M48
; DRILL file {KiCad 7.0.9-7.0.9~ubuntu22.04.1} date So 10 Dez 2023 20:03:15 CET
; FORMAT={-:-/ absolute / metric / decimal}
; #@! TF.CreationDate,2023-12-10T20:03:15+01:00
; #@! TF.GenerationSoftware,Kicad,Pcbnew,7.0.9-7.0.9~ubuntu22.04.1
; #@! TF.FileFunction,Plated,1,4,PTH
FMAT,2
METRIC
; #@! TA.AperFunction,Plated,PTH,ViaDrill
T1C0.300
; #@! TA.AperFunction,Plated,PTH,ViaDrill
T2C0.600
; #@! TA.AperFunction,Plated,PTH,ComponentDrill
T3C1.200
; #@! TA.AperFunction,Plated,PTH,ViaDrill
T4C1.400
%
G90
G05
T1
X63.7Y-119.9
X63.8Y-124.9
X64.1Y-101.0
X65.6Y-105.8
X65.6Y-113.5
X65.6Y-119.9
X66.4Y-105.7
X66.7Y-121.4
X67.0Y-109.4
X67.1Y-119.9
X67.5Y-102.4
X67.7Y-123.3
X70.1Y-132.3
X70.7Y-119.3
X70.8Y-120.9
X72.8Y-131.3
X77.05Y-124.85
X80.75Y-123.25
X80.95Y-124.15
X81.85Y-124.95
X82.1Y-122.5
X83.05Y-121.75
X83.35Y-123.45
X84.9Y-123.1
X87.81Y-130.6
X93.675Y-124.875
X93.77Y-130.225
X96.0Y-123.2
X96.6Y-120.4
X96.9Y-123.4
X98.475Y-124.975
X100.71Y-124.971
X100.8Y-134.1
X102.5Y-123.5
X104.0Y-123.5
X110.2Y-124.7
X111.2Y-97.3
X113.9Y-123.1
X114.1Y-124.0
X115.0Y-124.8
X116.2Y-121.6
X116.5Y-123.3
X118.6Y-96.2
X119.407Y-121.26
X120.0Y-120.8
X121.5Y-108.9
X122.2Y-107.3
X123.025Y-124.945
X123.6Y-114.2
X123.645Y-125.674
X124.7Y-105.1
X125.6Y-116.8
X125.6Y-118.7
X125.7Y-117.6
X125.78Y-126.608
X126.081Y-125.318
X126.1Y-119.5
X126.5Y-116.2
X127.0Y-114.6
X127.4Y-115.3
X128.1Y-117.8
X128.973Y-123.513
X129.1Y-116.1
X129.5Y-114.5
X130.0Y-115.3
X130.2Y-101.4
X130.6Y-133.0
X130.7Y-118.4
X131.273Y-122.906
X131.4Y-101.4
X131.4Y-117.3
X131.596Y-116.05
X131.75Y-133.0
X132.1Y-114.6
X132.5Y-115.5
X132.6Y-102.4
X133.4Y-122.3
X133.7Y-103.5
X133.965Y-102.075
X134.3Y-116.1
X134.7Y-114.6
X135.0Y-115.5
X135.5Y-132.9
X135.7Y-117.8
X136.0Y-122.3
X136.338Y-133.04
X136.9Y-116.1
X137.3Y-118.0
X137.307Y-118.807
X138.5Y-97.0
X138.6Y-114.6
X138.7Y-117.1
X138.9Y-115.5
X139.7Y-133.0
X139.8Y-122.4
X141.1Y-114.6
X141.2Y-117.1
X141.45Y-115.65
X142.0Y-118.8
X142.2Y-104.9
X142.3Y-116.8
X142.4Y-122.4
X142.8Y-119.3
X143.4Y-122.7
X143.6Y-114.6
X143.7Y-117.2
X143.986Y-132.99
X144.9Y-116.7
X145.3Y-104.3
X145.9Y-115.5
X146.2Y-114.6
X146.923Y-128.491
X146.975Y-122.239
X147.352Y-119.296
X147.45Y-133.15
X148.2Y-114.9
X148.3Y-102.4
X148.4Y-100.3
X148.4Y-115.9
T2
X62.5Y-98.0
X66.5Y-98.5
X74.95Y-118.75
X76.5Y-117.0
X77.55Y-118.75
X81.621Y-119.046
X84.15Y-118.65
X85.5Y-117.5
X91.575Y-118.775
X94.175Y-118.775
X96.348Y-118.152
X101.8Y-118.3
X103.5Y-118.0
X105.2Y-128.15
X105.3Y-117.8
X105.4Y-120.7
X108.1Y-118.6
X109.496Y-116.549
X110.7Y-118.6
X114.7Y-118.5
X117.3Y-118.5
X117.705Y-128.025
X119.6Y-107.5
X120.875Y-118.559
X132.9Y-124.1
X137.2Y-113.6
X142.025Y-102.15
X143.0Y-124.9
T3
X72.25Y-94.5
X75.75Y-99.5
X79.25Y-94.5
X82.75Y-99.5
X86.25Y-94.5
X89.75Y-99.5
X97.0Y-94.5
X100.5Y-99.5
X104.0Y-94.5
X107.5Y-99.5
X111.0Y-94.5
X114.5Y-99.5
X121.5Y-94.5
X125.0Y-99.5
X128.5Y-94.5
X132.0Y-99.5
X135.5Y-94.5
X139.0Y-99.5
T4
X73.7Y-108.0
X86.7Y-108.1
X88.4Y-114.1
X88.5Y-97.0
X90.5Y-108.1
X92.0Y-94.5
X96.0Y-98.8
X101.4Y-107.3
X104.2Y-107.6
X105.2Y-115.0
X107.191Y-93.264
X117.752Y-102.368
X120.6Y-102.5
X122.0Y-115.0
T0
M30
