%TF.GenerationSoftware,KiCad,Pcbnew,7.0.9-7.0.9~ubuntu22.04.1*%
%TF.CreationDate,2023-12-10T20:03:09+01:00*%
%TF.ProjectId,door_if4_usb.v2,646f6f72-5f69-4663-945f-7573622e7632,rev?*%
%TF.SameCoordinates,Original*%
%TF.FileFunction,Copper,L2,Inr*%
%TF.FilePolarity,Positive*%
%FSLAX46Y46*%
G04 Gerber Fmt 4.6, Leading zero omitted, Abs format (unit mm)*
G04 Created by KiCad (PCBNEW 7.0.9-7.0.9~ubuntu22.04.1) date 2023-12-10 20:03:09*
%MOMM*%
%LPD*%
G01*
G04 APERTURE LIST*
%TA.AperFunction,ComponentPad*%
%ADD10C,2.000000*%
%TD*%
%TA.AperFunction,ViaPad*%
%ADD11C,2.000000*%
%TD*%
%TA.AperFunction,ViaPad*%
%ADD12C,1.000000*%
%TD*%
%TA.AperFunction,ViaPad*%
%ADD13C,0.600000*%
%TD*%
%TA.AperFunction,Conductor*%
%ADD14C,2.000000*%
%TD*%
%TA.AperFunction,Conductor*%
%ADD15C,1.000000*%
%TD*%
%TA.AperFunction,Conductor*%
%ADD16C,0.250000*%
%TD*%
G04 APERTURE END LIST*
D10*
%TO.N,+24V*%
%TO.C,J1*%
X139000000Y-99500000D03*
%TO.N,IN1*%
X135500000Y-94500000D03*
%TO.N,IN2*%
X132000000Y-99500000D03*
%TO.N,IN3*%
X128500000Y-94500000D03*
%TO.N,IN4*%
X125000000Y-99500000D03*
%TO.N,IN5*%
X121500000Y-94500000D03*
%TD*%
%TO.N,OUT2*%
%TO.C,J3*%
X89750000Y-99500000D03*
%TO.N,OUT3*%
X86250000Y-94500000D03*
%TO.N,OUT4*%
X82750000Y-99500000D03*
%TO.N,OUT5*%
X79250000Y-94500000D03*
%TO.N,OUT6*%
X75750000Y-99500000D03*
%TO.N,GNDA*%
X72250000Y-94500000D03*
%TD*%
%TO.N,+24V*%
%TO.C,J2*%
X114500000Y-99500000D03*
%TO.N,IN6*%
X111000000Y-94500000D03*
%TO.N,IN7*%
X107500000Y-99500000D03*
%TO.N,IN8*%
X104000000Y-94500000D03*
%TO.N,OUT1*%
X100500000Y-99500000D03*
%TO.N,GNDA*%
X97000000Y-94500000D03*
%TD*%
D11*
%TO.N,+24V*%
X117751911Y-102368423D03*
D12*
X109495556Y-116549500D03*
D13*
X104000000Y-123500000D03*
D12*
X84150000Y-118650000D03*
X117300000Y-118500000D03*
X94175000Y-118775000D03*
X101800000Y-118300000D03*
X76500000Y-117000000D03*
X103500000Y-118000000D03*
X77550000Y-118750000D03*
D13*
X82100000Y-122500000D03*
X84900000Y-123100000D03*
D12*
X110700000Y-118600000D03*
D11*
X88400000Y-114100000D03*
X107190888Y-93263553D03*
X122000000Y-115000000D03*
X88500000Y-97000000D03*
X105200000Y-115000000D03*
D12*
X85500000Y-117500000D03*
X120875000Y-118559063D03*
D13*
X102500000Y-123500000D03*
%TO.N,GNDA*%
X147450002Y-133149998D03*
D12*
X114700000Y-118500000D03*
D13*
X80950000Y-124150000D03*
D12*
X66500000Y-98500000D03*
D13*
X110200000Y-124700000D03*
X77050000Y-124850000D03*
X98475000Y-124975000D03*
D11*
X120600000Y-102500000D03*
D13*
X81850000Y-124950000D03*
X114100000Y-124000000D03*
X131750000Y-133000000D03*
X96900000Y-123400000D03*
X124700000Y-105100000D03*
X67000000Y-109400000D03*
X66400000Y-105700000D03*
D11*
X104199998Y-107600001D03*
D12*
X62500000Y-98000000D03*
D13*
X100710500Y-124970945D03*
X83350000Y-123450000D03*
D12*
X74950000Y-118750000D03*
D13*
X70700000Y-119300000D03*
D11*
X101400000Y-107299996D03*
D13*
X148300000Y-102400000D03*
X143985507Y-132989796D03*
D12*
X81620711Y-119045711D03*
X96347655Y-118152345D03*
D13*
X115000000Y-124800000D03*
D11*
X86700000Y-108100000D03*
D13*
X136338437Y-133039740D03*
X148400000Y-100300000D03*
X116500000Y-123300000D03*
D11*
X90500000Y-108100000D03*
D13*
X93675000Y-124875000D03*
X122200000Y-107300000D03*
D12*
X91575000Y-118775000D03*
X108100000Y-118600000D03*
D11*
X73700000Y-108000000D03*
D13*
%TO.N,+3V3*%
X142300000Y-116800000D03*
X135700000Y-117800000D03*
X138700000Y-117100000D03*
X131400000Y-117300000D03*
X126500000Y-116200000D03*
X141200000Y-117100000D03*
X143700000Y-117200000D03*
X130700000Y-118400000D03*
X128100000Y-117800000D03*
X148400000Y-115900000D03*
X63800000Y-124900000D03*
X144900000Y-116700000D03*
X129100000Y-116100000D03*
X134300000Y-116100000D03*
X131596474Y-116050000D03*
D12*
X137200000Y-113600000D03*
D13*
X136900000Y-116100000D03*
%TO.N,GND*%
X141100000Y-114600000D03*
D12*
X117705288Y-128025000D03*
D13*
X131272622Y-122906237D03*
X132100000Y-114600000D03*
X134700000Y-114600000D03*
D12*
X105300000Y-117800000D03*
D13*
X143400000Y-122700000D03*
X136000000Y-122300000D03*
X133400000Y-122300000D03*
X127000000Y-114600000D03*
X146923478Y-128491242D03*
X142400000Y-122400000D03*
X146975000Y-122238955D03*
D12*
X119600000Y-107500000D03*
D13*
X146200000Y-114600000D03*
X138600000Y-114600000D03*
X67700000Y-123300000D03*
X66700000Y-121400000D03*
X128972756Y-123513468D03*
X129500000Y-114500000D03*
D12*
X142025000Y-102150000D03*
X143000000Y-124900000D03*
D13*
X65600000Y-113500000D03*
X123600000Y-114200000D03*
X139800000Y-122400000D03*
D12*
X105200000Y-128150000D03*
X105400000Y-120700000D03*
D13*
X143600000Y-114600000D03*
D12*
X132900000Y-124100000D03*
D13*
%TO.N,Net-(D26-A)*%
X145300000Y-104300000D03*
X142200000Y-104900000D03*
%TO.N,Net-(D28-A)*%
X132600000Y-102400000D03*
X133700000Y-103500000D03*
%TO.N,VmidA*%
X130600000Y-133000000D03*
X139700000Y-133000000D03*
X70100000Y-132300000D03*
X135500000Y-132900000D03*
%TO.N,VmidB*%
X64100000Y-101000000D03*
X133965314Y-102075000D03*
D11*
%TO.N,OUT2*%
X96000000Y-98800000D03*
D13*
%TO.N,Net-(U9A-+)*%
X65600000Y-105800000D03*
X67500000Y-102400000D03*
D11*
%TO.N,OUT3*%
X92000000Y-94500000D03*
D13*
%TO.N,Vmid_3v3_A*%
X65600000Y-119900000D03*
X70800000Y-120900000D03*
X63700000Y-119900000D03*
X67100000Y-119900000D03*
%TO.N,IN1*%
X138500000Y-97000000D03*
%TO.N,IN5*%
X130200000Y-101400000D03*
X131400000Y-101400000D03*
%TO.N,IN6*%
X118600000Y-96200000D03*
%TO.N,IN7*%
X123644510Y-125673832D03*
X125780000Y-126607917D03*
X111200000Y-97300000D03*
%TO.N,IN8*%
X123025000Y-124944806D03*
X126080771Y-125317668D03*
%TO.N,Net-(Q1-G1)*%
X113900000Y-123100000D03*
X116200000Y-121600000D03*
%TO.N,Net-(Q3-G1)*%
X96600000Y-120400000D03*
X96000000Y-123200000D03*
%TO.N,Net-(Q5-G1)*%
X83050000Y-121750000D03*
X80750000Y-123250000D03*
%TO.N,O_LED*%
X121500000Y-108900000D03*
%TO.N,S_IN1A*%
X148200000Y-114900000D03*
%TO.N,S_IN1B*%
X145900000Y-115500000D03*
%TO.N,S_IN2A*%
X141450000Y-115650000D03*
%TO.N,S_IN2B*%
X138900000Y-115500000D03*
%TO.N,S_IN3A*%
X137306587Y-118806587D03*
%TO.N,S_IN3B*%
X142000000Y-118800000D03*
X137300000Y-118000000D03*
%TO.N,S_IN4A*%
X142800000Y-119300000D03*
%TO.N,S_IN4B*%
X147351764Y-119296473D03*
%TO.N,S_IN5A*%
X135000000Y-115500000D03*
%TO.N,S_IN5B*%
X132500000Y-115500000D03*
%TO.N,S_IN6A*%
X130000000Y-115300000D03*
%TO.N,S_IN6B*%
X127400000Y-115300000D03*
%TO.N,S_IN7A*%
X126100000Y-119500000D03*
%TO.N,S_IN7B*%
X125600000Y-118700000D03*
%TO.N,S_IN8A*%
X125700000Y-117600000D03*
%TO.N,S_IN8B*%
X125600000Y-116800000D03*
%TO.N,S_OUT6*%
X87810454Y-130600000D03*
%TO.N,S_OUT5*%
X72800000Y-131300000D03*
%TO.N,S_OUT4*%
X100800000Y-134100000D03*
%TO.N,S_OUT3*%
X93769987Y-130225000D03*
%TO.N,S_OUT2*%
X119407326Y-121259610D03*
%TO.N,S_OUT1*%
X120000000Y-120800000D03*
%TD*%
D14*
%TO.N,+24V*%
X104900000Y-102000000D02*
X107250000Y-104350000D01*
D15*
X84150000Y-118650000D02*
X84350000Y-118650000D01*
D14*
X117450000Y-102670334D02*
X117751911Y-102368423D01*
D15*
X94175000Y-118775000D02*
X93775000Y-118775000D01*
X120815937Y-118500000D02*
X120875000Y-118559063D01*
D14*
X117450000Y-110450000D02*
X117450000Y-102670334D01*
D15*
X77550000Y-118050000D02*
X76500000Y-117000000D01*
X101800000Y-118300000D02*
X103200000Y-118300000D01*
X93775000Y-118775000D02*
X89100000Y-114100000D01*
D14*
X107250000Y-104350000D02*
X107250000Y-112950000D01*
D15*
X84350000Y-118650000D02*
X85500000Y-117500000D01*
D14*
X122000000Y-115000000D02*
X117450000Y-110450000D01*
X88500000Y-97000000D02*
X87000000Y-98500000D01*
D15*
X110700000Y-117753944D02*
X109495556Y-116549500D01*
D14*
X114500000Y-99500000D02*
X117368423Y-102368423D01*
X92650000Y-109850000D02*
X88400000Y-114100000D01*
D15*
X103200000Y-118300000D02*
X103500000Y-118000000D01*
D14*
X106700000Y-93754441D02*
X106700000Y-96700000D01*
X117368423Y-102368423D02*
X117751911Y-102368423D01*
X104900000Y-98500000D02*
X104900000Y-102000000D01*
X107190888Y-93263553D02*
X106700000Y-93754441D01*
X92650000Y-106350000D02*
X92650000Y-109850000D01*
X106700000Y-96700000D02*
X104900000Y-98500000D01*
X107250000Y-112950000D02*
X105200000Y-115000000D01*
D16*
X84300000Y-122500000D02*
X84900000Y-123100000D01*
D15*
X77550000Y-118750000D02*
X77550000Y-118050000D01*
X110700000Y-118600000D02*
X110700000Y-117753944D01*
D14*
X87000000Y-98500000D02*
X87000000Y-100700000D01*
X87000000Y-100700000D02*
X92650000Y-106350000D01*
D16*
X82100000Y-122500000D02*
X84300000Y-122500000D01*
D15*
X89100000Y-114100000D02*
X88400000Y-114100000D01*
D16*
X102500000Y-123500000D02*
X104000000Y-123500000D01*
D15*
X117300000Y-118500000D02*
X120815937Y-118500000D01*
%TO.N,+3V3*%
X124900000Y-129300000D02*
X121200000Y-129300000D01*
X127500000Y-125600000D02*
X127500000Y-126700000D01*
X103975000Y-129175000D02*
X68075000Y-129175000D01*
X133500000Y-119300000D02*
X132100000Y-120700000D01*
X137200000Y-115600000D02*
X133500000Y-119300000D01*
X105600000Y-129300000D02*
X104100000Y-129300000D01*
X128600000Y-120700000D02*
X127500000Y-121800000D01*
X127500000Y-121800000D02*
X127500000Y-125600000D01*
X104100000Y-129300000D02*
X103975000Y-129175000D01*
X121200000Y-129300000D02*
X105600000Y-129300000D01*
X68075000Y-129175000D02*
X63800000Y-124900000D01*
X137200000Y-113600000D02*
X137200000Y-115600000D01*
X127500000Y-126700000D02*
X124900000Y-129300000D01*
X132100000Y-120700000D02*
X128600000Y-120700000D01*
D14*
%TO.N,OUT2*%
X96000000Y-98800000D02*
X90450000Y-98800000D01*
X90450000Y-98800000D02*
X89750000Y-99500000D01*
D16*
%TO.N,IN1*%
X138000000Y-97000000D02*
X135500000Y-94500000D01*
X138500000Y-97000000D02*
X138000000Y-97000000D01*
%TO.N,IN5*%
X130200000Y-101400000D02*
X131400000Y-101400000D01*
%TO.N,IN6*%
X112700000Y-96200000D02*
X111000000Y-94500000D01*
X118600000Y-96200000D02*
X112700000Y-96200000D01*
%TO.N,IN7*%
X124578595Y-126607917D02*
X125780000Y-126607917D01*
X109700000Y-97300000D02*
X107500000Y-99500000D01*
X123644510Y-125673832D02*
X124578595Y-126607917D01*
X111200000Y-97300000D02*
X109700000Y-97300000D01*
%TO.N,IN8*%
X126080771Y-125317668D02*
X125707909Y-124944806D01*
X125707909Y-124944806D02*
X123025000Y-124944806D01*
%TO.N,Net-(Q1-G1)*%
X115400000Y-121600000D02*
X116200000Y-121600000D01*
X113900000Y-123100000D02*
X115400000Y-121600000D01*
%TO.N,Net-(Q3-G1)*%
X96600000Y-122600000D02*
X96600000Y-120400000D01*
X96000000Y-123200000D02*
X96600000Y-122600000D01*
%TO.N,Net-(Q5-G1)*%
X80750000Y-123250000D02*
X80750000Y-123036827D01*
X80750000Y-123036827D02*
X82036827Y-121750000D01*
X82036827Y-121750000D02*
X83050000Y-121750000D01*
%TD*%
%TA.AperFunction,Conductor*%
%TO.N,+3V3*%
G36*
X148943039Y-112019685D02*
G01*
X148988794Y-112072489D01*
X149000000Y-112124000D01*
X149000000Y-117069122D01*
X148980315Y-117136161D01*
X148927511Y-117181916D01*
X148858353Y-117191860D01*
X148794797Y-117162835D01*
X148784366Y-117152664D01*
X148778407Y-117146128D01*
X148608253Y-117017632D01*
X148417393Y-116922596D01*
X148212310Y-116864244D01*
X148053194Y-116849500D01*
X147946806Y-116849500D01*
X147819513Y-116861295D01*
X147787689Y-116864244D01*
X147582607Y-116922596D01*
X147582605Y-116922596D01*
X147391746Y-117017632D01*
X147221593Y-117146127D01*
X147077947Y-117303699D01*
X146965702Y-117484980D01*
X146965701Y-117484982D01*
X146918381Y-117607132D01*
X146888679Y-117683802D01*
X146849500Y-117893390D01*
X146849500Y-118106610D01*
X146888679Y-118316198D01*
X146902196Y-118351090D01*
X146955349Y-118488296D01*
X146965702Y-118515019D01*
X147053949Y-118657543D01*
X147077949Y-118696303D01*
X147083206Y-118702070D01*
X147113824Y-118764873D01*
X147105627Y-118834261D01*
X147061218Y-118888201D01*
X147058612Y-118889923D01*
X147020637Y-118914328D01*
X146926387Y-119023099D01*
X146926386Y-119023101D01*
X146866598Y-119154016D01*
X146846117Y-119296473D01*
X146866598Y-119438929D01*
X146894489Y-119500000D01*
X146926387Y-119569846D01*
X147020636Y-119678616D01*
X147141711Y-119756426D01*
X147141714Y-119756427D01*
X147141713Y-119756427D01*
X147279800Y-119796972D01*
X147279802Y-119796973D01*
X147279803Y-119796973D01*
X147423726Y-119796973D01*
X147423726Y-119796972D01*
X147561817Y-119756426D01*
X147682892Y-119678616D01*
X147777141Y-119569846D01*
X147836929Y-119438930D01*
X147857411Y-119296473D01*
X147856789Y-119292146D01*
X147857411Y-119287820D01*
X147857411Y-119287604D01*
X147857442Y-119287604D01*
X147866733Y-119222988D01*
X147912488Y-119170184D01*
X147979527Y-119150500D01*
X148053190Y-119150500D01*
X148053194Y-119150500D01*
X148212310Y-119135756D01*
X148417389Y-119077405D01*
X148417393Y-119077403D01*
X148417394Y-119077403D01*
X148608253Y-118982367D01*
X148608253Y-118982366D01*
X148608255Y-118982366D01*
X148778407Y-118853872D01*
X148784363Y-118847338D01*
X148844073Y-118811058D01*
X148913921Y-118812818D01*
X148971729Y-118852061D01*
X148999143Y-118916327D01*
X149000000Y-118930877D01*
X149000000Y-121876000D01*
X148980315Y-121943039D01*
X148927511Y-121988794D01*
X148876000Y-122000000D01*
X147486829Y-122000000D01*
X147419790Y-121980315D01*
X147393116Y-121957202D01*
X147306129Y-121856813D01*
X147306128Y-121856812D01*
X147185053Y-121779002D01*
X147185051Y-121779001D01*
X147185049Y-121779000D01*
X147185050Y-121779000D01*
X147046963Y-121738455D01*
X147046961Y-121738455D01*
X146903039Y-121738455D01*
X146903036Y-121738455D01*
X146764949Y-121779000D01*
X146643872Y-121856812D01*
X146643870Y-121856813D01*
X146556884Y-121957202D01*
X146498106Y-121994977D01*
X146463171Y-122000000D01*
X142739752Y-122000000D01*
X142672714Y-121980316D01*
X142610050Y-121940045D01*
X142471963Y-121899500D01*
X142471961Y-121899500D01*
X142328039Y-121899500D01*
X142328036Y-121899500D01*
X142189950Y-121940045D01*
X142189948Y-121940045D01*
X142127286Y-121980316D01*
X142060248Y-122000000D01*
X140139752Y-122000000D01*
X140072714Y-121980316D01*
X140010050Y-121940045D01*
X139871963Y-121899500D01*
X139871961Y-121899500D01*
X139728039Y-121899500D01*
X139728036Y-121899500D01*
X139589950Y-121940045D01*
X139589948Y-121940045D01*
X139527286Y-121980316D01*
X139460248Y-122000000D01*
X136458934Y-122000000D01*
X136391895Y-121980315D01*
X136365221Y-121957203D01*
X136352948Y-121943039D01*
X136331128Y-121917857D01*
X136210053Y-121840047D01*
X136210051Y-121840046D01*
X136210049Y-121840045D01*
X136210050Y-121840045D01*
X136071963Y-121799500D01*
X136071961Y-121799500D01*
X135928039Y-121799500D01*
X135928036Y-121799500D01*
X135789949Y-121840045D01*
X135668873Y-121917856D01*
X135668872Y-121917856D01*
X135668872Y-121917857D01*
X135649645Y-121940047D01*
X135634779Y-121957203D01*
X135576001Y-121994977D01*
X135541066Y-122000000D01*
X133858934Y-122000000D01*
X133791895Y-121980315D01*
X133765221Y-121957203D01*
X133752948Y-121943039D01*
X133731128Y-121917857D01*
X133610053Y-121840047D01*
X133610051Y-121840046D01*
X133610049Y-121840045D01*
X133610050Y-121840045D01*
X133471963Y-121799500D01*
X133471961Y-121799500D01*
X133328039Y-121799500D01*
X133328036Y-121799500D01*
X133189949Y-121840045D01*
X133068873Y-121917856D01*
X133068872Y-121917856D01*
X133068872Y-121917857D01*
X133049645Y-121940047D01*
X133034779Y-121957203D01*
X132976001Y-121994977D01*
X132941066Y-122000000D01*
X126124000Y-122000000D01*
X126056961Y-121980315D01*
X126011206Y-121927511D01*
X126000000Y-121876000D01*
X126000000Y-120124500D01*
X126019685Y-120057461D01*
X126072489Y-120011706D01*
X126124000Y-120000500D01*
X126171962Y-120000500D01*
X126171962Y-120000499D01*
X126310053Y-119959953D01*
X126431128Y-119882143D01*
X126525377Y-119773373D01*
X126585165Y-119642457D01*
X126605647Y-119500000D01*
X126585165Y-119357543D01*
X126525377Y-119226627D01*
X126431128Y-119117857D01*
X126310053Y-119040047D01*
X126310050Y-119040045D01*
X126168579Y-118998506D01*
X126109801Y-118960732D01*
X126080776Y-118897176D01*
X126084061Y-118851257D01*
X126083903Y-118851235D01*
X126084221Y-118849016D01*
X126084539Y-118844586D01*
X126085160Y-118842467D01*
X126085165Y-118842457D01*
X126105647Y-118700000D01*
X126085165Y-118557543D01*
X126025377Y-118426627D01*
X126025374Y-118426624D01*
X126020582Y-118419166D01*
X126023445Y-118417325D01*
X126001257Y-118368699D01*
X126000000Y-118351090D01*
X126000000Y-118064315D01*
X126018885Y-118000000D01*
X136794353Y-118000000D01*
X136814834Y-118142456D01*
X136874622Y-118273371D01*
X136874625Y-118273376D01*
X136920130Y-118325892D01*
X136949155Y-118389447D01*
X136939211Y-118458606D01*
X136920131Y-118488296D01*
X136881210Y-118533214D01*
X136881209Y-118533215D01*
X136821421Y-118664130D01*
X136800940Y-118806587D01*
X136821421Y-118949043D01*
X136855243Y-119023101D01*
X136881210Y-119079960D01*
X136975459Y-119188730D01*
X137096534Y-119266540D01*
X137096537Y-119266541D01*
X137096536Y-119266541D01*
X137183741Y-119292146D01*
X137212192Y-119300500D01*
X137234623Y-119307086D01*
X137234625Y-119307087D01*
X137234626Y-119307087D01*
X137378549Y-119307087D01*
X137378549Y-119307086D01*
X137516640Y-119266540D01*
X137637715Y-119188730D01*
X137731964Y-119079960D01*
X137791752Y-118949044D01*
X137812234Y-118806587D01*
X137811287Y-118800000D01*
X141494353Y-118800000D01*
X141514834Y-118942456D01*
X141569909Y-119063051D01*
X141574623Y-119073373D01*
X141668872Y-119182143D01*
X141789947Y-119259953D01*
X141789950Y-119259954D01*
X141789949Y-119259954D01*
X141875502Y-119285074D01*
X141926336Y-119300000D01*
X141928036Y-119300499D01*
X141928038Y-119300500D01*
X141928039Y-119300500D01*
X142071961Y-119300500D01*
X142100412Y-119292146D01*
X142148106Y-119278142D01*
X142217976Y-119278142D01*
X142276754Y-119315916D01*
X142305779Y-119379472D01*
X142314834Y-119442456D01*
X142341114Y-119500000D01*
X142374623Y-119573373D01*
X142468872Y-119682143D01*
X142589947Y-119759953D01*
X142589950Y-119759954D01*
X142589949Y-119759954D01*
X142728036Y-119800499D01*
X142728038Y-119800500D01*
X142728039Y-119800500D01*
X142871962Y-119800500D01*
X142871962Y-119800499D01*
X143010053Y-119759953D01*
X143131128Y-119682143D01*
X143225377Y-119573373D01*
X143285165Y-119442457D01*
X143305647Y-119300000D01*
X143285165Y-119157543D01*
X143225377Y-119026627D01*
X143131128Y-118917857D01*
X143010053Y-118840047D01*
X143010051Y-118840046D01*
X143010049Y-118840045D01*
X143010050Y-118840045D01*
X142871963Y-118799500D01*
X142871961Y-118799500D01*
X142728039Y-118799500D01*
X142651891Y-118821858D01*
X142582022Y-118821857D01*
X142523244Y-118784081D01*
X142494220Y-118720526D01*
X142490737Y-118696303D01*
X142485165Y-118657543D01*
X142425377Y-118526627D01*
X142331128Y-118417857D01*
X142226997Y-118350936D01*
X143965631Y-118350936D01*
X143996442Y-118552063D01*
X143996445Y-118552075D01*
X144067111Y-118742881D01*
X144067115Y-118742888D01*
X144174745Y-118915567D01*
X144174749Y-118915572D01*
X144276963Y-119023101D01*
X144314941Y-119063053D01*
X144419397Y-119135756D01*
X144481949Y-119179294D01*
X144481950Y-119179294D01*
X144481951Y-119179295D01*
X144668942Y-119259540D01*
X144868259Y-119300500D01*
X145020743Y-119300500D01*
X145172439Y-119285074D01*
X145366579Y-119224162D01*
X145366580Y-119224161D01*
X145366588Y-119224159D01*
X145544502Y-119125409D01*
X145698895Y-118992866D01*
X145823448Y-118831958D01*
X145913060Y-118649271D01*
X145964063Y-118452285D01*
X145974369Y-118249064D01*
X145943556Y-118047929D01*
X145886322Y-117893392D01*
X145872888Y-117857118D01*
X145872887Y-117857117D01*
X145872886Y-117857113D01*
X145765252Y-117684429D01*
X145625059Y-117536947D01*
X145510976Y-117457543D01*
X145458050Y-117420705D01*
X145271056Y-117340459D01*
X145071741Y-117299500D01*
X144919258Y-117299500D01*
X144919257Y-117299500D01*
X144767560Y-117314925D01*
X144573420Y-117375837D01*
X144573405Y-117375844D01*
X144395500Y-117474589D01*
X144395495Y-117474592D01*
X144241106Y-117607132D01*
X144241104Y-117607134D01*
X144116554Y-117768037D01*
X144116553Y-117768040D01*
X144026940Y-117950728D01*
X143975937Y-118147714D01*
X143965631Y-118350936D01*
X142226997Y-118350936D01*
X142210053Y-118340047D01*
X142210051Y-118340046D01*
X142210049Y-118340045D01*
X142210050Y-118340045D01*
X142071963Y-118299500D01*
X142071961Y-118299500D01*
X141928039Y-118299500D01*
X141928036Y-118299500D01*
X141789949Y-118340045D01*
X141668873Y-118417856D01*
X141574623Y-118526626D01*
X141574622Y-118526628D01*
X141514834Y-118657543D01*
X141494353Y-118800000D01*
X137811287Y-118800000D01*
X137791752Y-118664130D01*
X137731964Y-118533214D01*
X137686455Y-118480694D01*
X137657431Y-118417139D01*
X137667375Y-118347980D01*
X137686453Y-118318293D01*
X137725377Y-118273373D01*
X137785165Y-118142457D01*
X137805647Y-118000000D01*
X137785165Y-117857543D01*
X137725377Y-117726627D01*
X137631128Y-117617857D01*
X137510053Y-117540047D01*
X137510051Y-117540046D01*
X137510049Y-117540045D01*
X137510050Y-117540045D01*
X137371963Y-117499500D01*
X137371961Y-117499500D01*
X137228039Y-117499500D01*
X137228036Y-117499500D01*
X137089949Y-117540045D01*
X136968873Y-117617856D01*
X136874623Y-117726626D01*
X136874622Y-117726628D01*
X136814834Y-117857543D01*
X136794353Y-118000000D01*
X126018885Y-118000000D01*
X126019685Y-117997276D01*
X126030287Y-117983112D01*
X126031124Y-117982144D01*
X126031128Y-117982143D01*
X126125377Y-117873373D01*
X126185165Y-117742457D01*
X126205647Y-117600000D01*
X126185165Y-117457543D01*
X126125377Y-117326627D01*
X126047019Y-117236196D01*
X126035299Y-117222670D01*
X126006275Y-117159114D01*
X126016219Y-117089956D01*
X126024704Y-117074419D01*
X126025368Y-117073382D01*
X126025377Y-117073373D01*
X126085165Y-116942457D01*
X126105647Y-116800000D01*
X126085165Y-116657543D01*
X126025377Y-116526627D01*
X126025374Y-116526624D01*
X126020582Y-116519166D01*
X126023445Y-116517325D01*
X126001257Y-116468699D01*
X126000000Y-116451090D01*
X126000000Y-114600000D01*
X126494353Y-114600000D01*
X126514834Y-114742456D01*
X126540432Y-114798506D01*
X126574623Y-114873373D01*
X126668872Y-114982143D01*
X126716641Y-115012842D01*
X126789948Y-115059954D01*
X126820144Y-115068820D01*
X126878922Y-115106594D01*
X126907947Y-115170150D01*
X126907947Y-115205443D01*
X126894353Y-115299998D01*
X126894353Y-115299999D01*
X126914834Y-115442456D01*
X126941114Y-115500000D01*
X126974623Y-115573373D01*
X127068872Y-115682143D01*
X127189947Y-115759953D01*
X127189950Y-115759954D01*
X127189949Y-115759954D01*
X127328036Y-115800499D01*
X127328038Y-115800500D01*
X127328039Y-115800500D01*
X127471962Y-115800500D01*
X127471962Y-115800499D01*
X127610053Y-115759953D01*
X127731128Y-115682143D01*
X127825377Y-115573373D01*
X127885165Y-115442457D01*
X127905647Y-115300000D01*
X127885165Y-115157543D01*
X127825377Y-115026627D01*
X127731128Y-114917857D01*
X127675556Y-114882143D01*
X127610052Y-114840046D01*
X127579853Y-114831179D01*
X127521076Y-114793403D01*
X127492052Y-114729847D01*
X127492052Y-114694555D01*
X127498277Y-114651257D01*
X127505647Y-114600000D01*
X127491269Y-114500000D01*
X128994353Y-114500000D01*
X129014834Y-114642456D01*
X129068850Y-114760732D01*
X129074623Y-114773373D01*
X129168872Y-114882143D01*
X129289947Y-114959953D01*
X129289950Y-114959954D01*
X129289949Y-114959954D01*
X129431419Y-115001493D01*
X129490198Y-115039267D01*
X129519223Y-115102822D01*
X129515939Y-115148742D01*
X129516097Y-115148765D01*
X129515781Y-115150960D01*
X129515464Y-115155399D01*
X129514835Y-115157540D01*
X129494353Y-115300000D01*
X129514834Y-115442456D01*
X129541114Y-115500000D01*
X129574623Y-115573373D01*
X129668872Y-115682143D01*
X129789947Y-115759953D01*
X129789950Y-115759954D01*
X129789949Y-115759954D01*
X129928036Y-115800499D01*
X129928038Y-115800500D01*
X129928039Y-115800500D01*
X130071962Y-115800500D01*
X130071962Y-115800499D01*
X130210053Y-115759953D01*
X130331128Y-115682143D01*
X130425377Y-115573373D01*
X130485165Y-115442457D01*
X130505647Y-115300000D01*
X130485165Y-115157543D01*
X130425377Y-115026627D01*
X130331128Y-114917857D01*
X130210053Y-114840047D01*
X130210050Y-114840045D01*
X130068579Y-114798506D01*
X130009801Y-114760732D01*
X129980776Y-114697176D01*
X129984061Y-114651257D01*
X129983903Y-114651235D01*
X129984221Y-114649016D01*
X129984539Y-114644586D01*
X129985160Y-114642467D01*
X129985165Y-114642457D01*
X129991269Y-114600000D01*
X131594353Y-114600000D01*
X131614834Y-114742456D01*
X131640432Y-114798506D01*
X131674623Y-114873373D01*
X131768872Y-114982143D01*
X131889947Y-115059953D01*
X131889950Y-115059954D01*
X131889948Y-115059954D01*
X131982596Y-115087157D01*
X132041374Y-115124930D01*
X132070400Y-115188486D01*
X132060457Y-115257644D01*
X132060457Y-115257645D01*
X132014834Y-115357545D01*
X131994353Y-115500000D01*
X132014834Y-115642456D01*
X132032959Y-115682143D01*
X132074623Y-115773373D01*
X132168872Y-115882143D01*
X132289947Y-115959953D01*
X132289950Y-115959954D01*
X132289949Y-115959954D01*
X132428036Y-116000499D01*
X132428038Y-116000500D01*
X132428039Y-116000500D01*
X132571962Y-116000500D01*
X132571962Y-116000499D01*
X132710053Y-115959953D01*
X132831128Y-115882143D01*
X132925377Y-115773373D01*
X132985165Y-115642457D01*
X133005647Y-115500000D01*
X132985165Y-115357543D01*
X132925377Y-115226627D01*
X132831128Y-115117857D01*
X132754825Y-115068820D01*
X132710051Y-115040045D01*
X132617402Y-115012842D01*
X132558624Y-114975068D01*
X132529599Y-114911512D01*
X132539543Y-114842354D01*
X132585165Y-114742457D01*
X132605647Y-114600000D01*
X134194353Y-114600000D01*
X134214834Y-114742456D01*
X134240432Y-114798506D01*
X134274623Y-114873373D01*
X134368872Y-114982143D01*
X134489947Y-115059953D01*
X134494421Y-115061266D01*
X134553198Y-115099040D01*
X134582224Y-115162596D01*
X134572281Y-115231754D01*
X134572280Y-115231755D01*
X134514835Y-115357541D01*
X134514834Y-115357542D01*
X134494353Y-115500000D01*
X134514834Y-115642456D01*
X134532959Y-115682143D01*
X134574623Y-115773373D01*
X134668872Y-115882143D01*
X134789947Y-115959953D01*
X134789950Y-115959954D01*
X134789949Y-115959954D01*
X134928036Y-116000499D01*
X134928038Y-116000500D01*
X134928039Y-116000500D01*
X135071962Y-116000500D01*
X135071962Y-116000499D01*
X135210053Y-115959953D01*
X135331128Y-115882143D01*
X135425377Y-115773373D01*
X135485165Y-115642457D01*
X135505647Y-115500000D01*
X135485165Y-115357543D01*
X135425377Y-115226627D01*
X135331128Y-115117857D01*
X135210053Y-115040047D01*
X135210052Y-115040046D01*
X135210051Y-115040046D01*
X135205573Y-115038731D01*
X135146797Y-115000954D01*
X135117774Y-114937397D01*
X135127718Y-114868245D01*
X135185165Y-114742457D01*
X135205647Y-114600000D01*
X138094353Y-114600000D01*
X138114834Y-114742456D01*
X138140432Y-114798506D01*
X138174623Y-114873373D01*
X138268872Y-114982143D01*
X138389947Y-115059953D01*
X138394421Y-115061266D01*
X138453198Y-115099040D01*
X138482224Y-115162596D01*
X138472281Y-115231754D01*
X138472280Y-115231755D01*
X138414835Y-115357541D01*
X138414834Y-115357542D01*
X138394353Y-115500000D01*
X138414834Y-115642456D01*
X138432959Y-115682143D01*
X138474623Y-115773373D01*
X138568872Y-115882143D01*
X138689947Y-115959953D01*
X138689950Y-115959954D01*
X138689949Y-115959954D01*
X138828036Y-116000499D01*
X138828038Y-116000500D01*
X138828039Y-116000500D01*
X138971962Y-116000500D01*
X138971962Y-116000499D01*
X139110053Y-115959953D01*
X139231128Y-115882143D01*
X139325377Y-115773373D01*
X139385165Y-115642457D01*
X139405647Y-115500000D01*
X139385165Y-115357543D01*
X139325377Y-115226627D01*
X139231128Y-115117857D01*
X139110053Y-115040047D01*
X139110052Y-115040046D01*
X139110051Y-115040046D01*
X139105573Y-115038731D01*
X139046797Y-115000954D01*
X139017774Y-114937397D01*
X139027718Y-114868245D01*
X139085165Y-114742457D01*
X139105647Y-114600000D01*
X140594353Y-114600000D01*
X140614834Y-114742456D01*
X140640432Y-114798506D01*
X140674623Y-114873373D01*
X140768872Y-114982143D01*
X140889947Y-115059953D01*
X140889950Y-115059954D01*
X140889949Y-115059954D01*
X141030919Y-115101346D01*
X141089698Y-115139120D01*
X141118723Y-115202675D01*
X141108780Y-115271834D01*
X141089698Y-115301525D01*
X141024625Y-115376622D01*
X141024622Y-115376628D01*
X140964834Y-115507543D01*
X140944353Y-115650000D01*
X140964834Y-115792456D01*
X141024622Y-115923371D01*
X141024623Y-115923373D01*
X141118872Y-116032143D01*
X141239947Y-116109953D01*
X141239950Y-116109954D01*
X141239949Y-116109954D01*
X141378036Y-116150499D01*
X141378038Y-116150500D01*
X141378039Y-116150500D01*
X141521962Y-116150500D01*
X141521962Y-116150499D01*
X141660053Y-116109953D01*
X141781128Y-116032143D01*
X141875377Y-115923373D01*
X141935165Y-115792457D01*
X141955647Y-115650000D01*
X141935165Y-115507543D01*
X141931720Y-115500000D01*
X145394353Y-115500000D01*
X145414834Y-115642456D01*
X145432959Y-115682143D01*
X145474623Y-115773373D01*
X145568872Y-115882143D01*
X145689947Y-115959953D01*
X145689950Y-115959954D01*
X145689949Y-115959954D01*
X145828036Y-116000499D01*
X145828038Y-116000500D01*
X145828039Y-116000500D01*
X145971962Y-116000500D01*
X145971962Y-116000499D01*
X146110053Y-115959953D01*
X146231128Y-115882143D01*
X146325377Y-115773373D01*
X146385165Y-115642457D01*
X146405647Y-115500000D01*
X146385165Y-115357543D01*
X146327718Y-115231754D01*
X146317775Y-115162598D01*
X146346800Y-115099042D01*
X146405576Y-115061267D01*
X146405579Y-115061266D01*
X146405582Y-115061266D01*
X146406763Y-115060918D01*
X146410053Y-115059953D01*
X146531128Y-114982143D01*
X146602305Y-114900000D01*
X147694353Y-114900000D01*
X147714834Y-115042456D01*
X147769701Y-115162596D01*
X147774623Y-115173373D01*
X147868872Y-115282143D01*
X147989947Y-115359953D01*
X147989950Y-115359954D01*
X147989949Y-115359954D01*
X148128036Y-115400499D01*
X148128038Y-115400500D01*
X148128039Y-115400500D01*
X148271962Y-115400500D01*
X148271962Y-115400499D01*
X148410053Y-115359953D01*
X148531128Y-115282143D01*
X148625377Y-115173373D01*
X148685165Y-115042457D01*
X148705647Y-114900000D01*
X148685165Y-114757543D01*
X148625377Y-114626627D01*
X148531128Y-114517857D01*
X148410053Y-114440047D01*
X148410051Y-114440046D01*
X148410049Y-114440045D01*
X148410050Y-114440045D01*
X148271963Y-114399500D01*
X148271961Y-114399500D01*
X148128039Y-114399500D01*
X148128036Y-114399500D01*
X147989949Y-114440045D01*
X147868873Y-114517856D01*
X147774623Y-114626626D01*
X147774622Y-114626628D01*
X147714834Y-114757543D01*
X147694353Y-114900000D01*
X146602305Y-114900000D01*
X146625377Y-114873373D01*
X146685165Y-114742457D01*
X146705647Y-114600000D01*
X146685165Y-114457543D01*
X146625377Y-114326627D01*
X146531128Y-114217857D01*
X146410053Y-114140047D01*
X146410051Y-114140046D01*
X146410049Y-114140045D01*
X146410050Y-114140045D01*
X146271963Y-114099500D01*
X146271961Y-114099500D01*
X146128039Y-114099500D01*
X146128036Y-114099500D01*
X145989949Y-114140045D01*
X145868873Y-114217856D01*
X145774623Y-114326626D01*
X145774622Y-114326628D01*
X145714834Y-114457543D01*
X145694353Y-114600000D01*
X145714834Y-114742456D01*
X145772280Y-114868243D01*
X145782224Y-114937402D01*
X145753199Y-115000958D01*
X145694428Y-115038730D01*
X145689950Y-115040044D01*
X145689950Y-115040045D01*
X145568873Y-115117856D01*
X145474623Y-115226626D01*
X145474622Y-115226628D01*
X145414834Y-115357543D01*
X145394353Y-115500000D01*
X141931720Y-115500000D01*
X141875377Y-115376627D01*
X141781128Y-115267857D01*
X141724951Y-115231754D01*
X141660051Y-115190045D01*
X141519079Y-115148653D01*
X141460301Y-115110879D01*
X141431276Y-115047323D01*
X141441220Y-114978165D01*
X141460296Y-114948480D01*
X141525377Y-114873373D01*
X141585165Y-114742457D01*
X141605647Y-114600000D01*
X143094353Y-114600000D01*
X143114834Y-114742456D01*
X143140432Y-114798506D01*
X143174623Y-114873373D01*
X143268872Y-114982143D01*
X143389947Y-115059953D01*
X143389950Y-115059954D01*
X143389949Y-115059954D01*
X143482596Y-115087157D01*
X143523073Y-115099042D01*
X143528036Y-115100499D01*
X143528038Y-115100500D01*
X143528039Y-115100500D01*
X143671962Y-115100500D01*
X143671962Y-115100499D01*
X143805578Y-115061267D01*
X143810050Y-115059954D01*
X143810050Y-115059953D01*
X143810053Y-115059953D01*
X143931128Y-114982143D01*
X144025377Y-114873373D01*
X144085165Y-114742457D01*
X144105647Y-114600000D01*
X144085165Y-114457543D01*
X144025377Y-114326627D01*
X143931128Y-114217857D01*
X143810053Y-114140047D01*
X143810051Y-114140046D01*
X143810049Y-114140045D01*
X143810050Y-114140045D01*
X143671963Y-114099500D01*
X143671961Y-114099500D01*
X143528039Y-114099500D01*
X143528036Y-114099500D01*
X143389949Y-114140045D01*
X143268873Y-114217856D01*
X143174623Y-114326626D01*
X143174622Y-114326628D01*
X143114834Y-114457543D01*
X143094353Y-114600000D01*
X141605647Y-114600000D01*
X141585165Y-114457543D01*
X141525377Y-114326627D01*
X141431128Y-114217857D01*
X141310053Y-114140047D01*
X141310051Y-114140046D01*
X141310049Y-114140045D01*
X141310050Y-114140045D01*
X141171963Y-114099500D01*
X141171961Y-114099500D01*
X141028039Y-114099500D01*
X141028036Y-114099500D01*
X140889949Y-114140045D01*
X140768873Y-114217856D01*
X140674623Y-114326626D01*
X140674622Y-114326628D01*
X140614834Y-114457543D01*
X140594353Y-114600000D01*
X139105647Y-114600000D01*
X139085165Y-114457543D01*
X139025377Y-114326627D01*
X138931128Y-114217857D01*
X138810053Y-114140047D01*
X138810051Y-114140046D01*
X138810049Y-114140045D01*
X138810050Y-114140045D01*
X138671963Y-114099500D01*
X138671961Y-114099500D01*
X138528039Y-114099500D01*
X138528036Y-114099500D01*
X138389949Y-114140045D01*
X138268873Y-114217856D01*
X138174623Y-114326626D01*
X138174622Y-114326628D01*
X138114834Y-114457543D01*
X138094353Y-114600000D01*
X135205647Y-114600000D01*
X135185165Y-114457543D01*
X135125377Y-114326627D01*
X135031128Y-114217857D01*
X134910053Y-114140047D01*
X134910051Y-114140046D01*
X134910049Y-114140045D01*
X134910050Y-114140045D01*
X134771963Y-114099500D01*
X134771961Y-114099500D01*
X134628039Y-114099500D01*
X134628036Y-114099500D01*
X134489949Y-114140045D01*
X134368873Y-114217856D01*
X134274623Y-114326626D01*
X134274622Y-114326628D01*
X134214834Y-114457543D01*
X134194353Y-114600000D01*
X132605647Y-114600000D01*
X132585165Y-114457543D01*
X132525377Y-114326627D01*
X132431128Y-114217857D01*
X132310053Y-114140047D01*
X132310051Y-114140046D01*
X132310049Y-114140045D01*
X132310050Y-114140045D01*
X132171963Y-114099500D01*
X132171961Y-114099500D01*
X132028039Y-114099500D01*
X132028036Y-114099500D01*
X131889949Y-114140045D01*
X131768873Y-114217856D01*
X131674623Y-114326626D01*
X131674622Y-114326628D01*
X131614834Y-114457543D01*
X131594353Y-114600000D01*
X129991269Y-114600000D01*
X130005647Y-114500000D01*
X129985165Y-114357543D01*
X129925377Y-114226627D01*
X129831128Y-114117857D01*
X129710053Y-114040047D01*
X129710051Y-114040046D01*
X129710049Y-114040045D01*
X129710050Y-114040045D01*
X129571963Y-113999500D01*
X129571961Y-113999500D01*
X129428039Y-113999500D01*
X129428036Y-113999500D01*
X129289949Y-114040045D01*
X129168873Y-114117856D01*
X129074623Y-114226626D01*
X129074622Y-114226628D01*
X129014834Y-114357543D01*
X128994353Y-114500000D01*
X127491269Y-114500000D01*
X127485165Y-114457543D01*
X127425377Y-114326627D01*
X127331128Y-114217857D01*
X127210053Y-114140047D01*
X127210051Y-114140046D01*
X127210049Y-114140045D01*
X127210050Y-114140045D01*
X127071963Y-114099500D01*
X127071961Y-114099500D01*
X126928039Y-114099500D01*
X126928036Y-114099500D01*
X126789949Y-114140045D01*
X126668873Y-114217856D01*
X126574623Y-114326626D01*
X126574622Y-114326628D01*
X126514834Y-114457543D01*
X126494353Y-114600000D01*
X126000000Y-114600000D01*
X126000000Y-112124000D01*
X126019685Y-112056961D01*
X126072489Y-112011206D01*
X126124000Y-112000000D01*
X148876000Y-112000000D01*
X148943039Y-112019685D01*
G37*
%TD.AperFunction*%
%TD*%
%TA.AperFunction,Conductor*%
%TO.N,GNDA*%
G36*
X148943039Y-90519685D02*
G01*
X148988794Y-90572489D01*
X149000000Y-90624000D01*
X149000000Y-105876000D01*
X148980315Y-105943039D01*
X148927511Y-105988794D01*
X148876000Y-106000000D01*
X123000000Y-106000000D01*
X123000000Y-113578610D01*
X122980315Y-113645649D01*
X122927511Y-113691404D01*
X122858353Y-113701348D01*
X122794797Y-113672323D01*
X122788319Y-113666291D01*
X118986819Y-109864791D01*
X118953334Y-109803468D01*
X118950500Y-109777110D01*
X118950500Y-108900003D01*
X120694435Y-108900003D01*
X120714630Y-109079249D01*
X120714631Y-109079254D01*
X120774211Y-109249523D01*
X120870184Y-109402262D01*
X120997738Y-109529816D01*
X121150478Y-109625789D01*
X121320745Y-109685368D01*
X121320750Y-109685369D01*
X121499996Y-109705565D01*
X121500000Y-109705565D01*
X121500004Y-109705565D01*
X121679249Y-109685369D01*
X121679252Y-109685368D01*
X121679255Y-109685368D01*
X121849522Y-109625789D01*
X122002262Y-109529816D01*
X122129816Y-109402262D01*
X122225789Y-109249522D01*
X122285368Y-109079255D01*
X122305565Y-108900000D01*
X122285368Y-108720745D01*
X122225789Y-108550478D01*
X122129816Y-108397738D01*
X122002262Y-108270184D01*
X121988058Y-108261259D01*
X121849523Y-108174211D01*
X121679254Y-108114631D01*
X121679249Y-108114630D01*
X121500004Y-108094435D01*
X121499996Y-108094435D01*
X121320750Y-108114630D01*
X121320745Y-108114631D01*
X121150476Y-108174211D01*
X120997737Y-108270184D01*
X120870184Y-108397737D01*
X120774211Y-108550476D01*
X120714631Y-108720745D01*
X120714630Y-108720750D01*
X120694435Y-108899996D01*
X120694435Y-108900003D01*
X118950500Y-108900003D01*
X118950500Y-108494171D01*
X118970185Y-108427132D01*
X119022989Y-108381377D01*
X119092147Y-108371433D01*
X119132951Y-108384812D01*
X119215273Y-108428814D01*
X119403868Y-108486024D01*
X119600000Y-108505341D01*
X119796132Y-108486024D01*
X119984727Y-108428814D01*
X120158538Y-108335910D01*
X120310883Y-108210883D01*
X120435910Y-108058538D01*
X120528814Y-107884727D01*
X120586024Y-107696132D01*
X120605341Y-107500000D01*
X120586024Y-107303868D01*
X120528814Y-107115273D01*
X120528811Y-107115269D01*
X120528811Y-107115266D01*
X120435913Y-106941467D01*
X120435909Y-106941460D01*
X120310883Y-106789116D01*
X120158539Y-106664090D01*
X120158532Y-106664086D01*
X119984733Y-106571188D01*
X119984727Y-106571186D01*
X119796132Y-106513976D01*
X119796129Y-106513975D01*
X119600000Y-106494659D01*
X119403870Y-106513975D01*
X119215266Y-106571188D01*
X119132953Y-106615186D01*
X119064550Y-106629428D01*
X118999306Y-106604428D01*
X118957936Y-106548123D01*
X118950500Y-106505828D01*
X118950500Y-104900003D01*
X141394435Y-104900003D01*
X141414630Y-105079249D01*
X141414631Y-105079254D01*
X141474211Y-105249523D01*
X141504507Y-105297738D01*
X141570184Y-105402262D01*
X141697738Y-105529816D01*
X141738256Y-105555275D01*
X141842450Y-105620745D01*
X141850478Y-105625789D01*
X142020745Y-105685368D01*
X142020750Y-105685369D01*
X142199996Y-105705565D01*
X142200000Y-105705565D01*
X142200004Y-105705565D01*
X142379249Y-105685369D01*
X142379252Y-105685368D01*
X142379255Y-105685368D01*
X142549522Y-105625789D01*
X142702262Y-105529816D01*
X142829816Y-105402262D01*
X142925789Y-105249522D01*
X142985368Y-105079255D01*
X142985369Y-105079249D01*
X143005565Y-104900003D01*
X143005565Y-104899996D01*
X142985369Y-104720750D01*
X142985368Y-104720745D01*
X142925788Y-104550476D01*
X142858359Y-104443164D01*
X142829816Y-104397738D01*
X142732081Y-104300003D01*
X144494435Y-104300003D01*
X144514630Y-104479249D01*
X144514631Y-104479254D01*
X144574211Y-104649523D01*
X144670184Y-104802262D01*
X144797738Y-104929816D01*
X144806321Y-104935209D01*
X144932721Y-105014632D01*
X144950478Y-105025789D01*
X145088860Y-105074211D01*
X145120745Y-105085368D01*
X145120750Y-105085369D01*
X145299996Y-105105565D01*
X145300000Y-105105565D01*
X145300004Y-105105565D01*
X145479249Y-105085369D01*
X145479252Y-105085368D01*
X145479255Y-105085368D01*
X145649522Y-105025789D01*
X145802262Y-104929816D01*
X145929816Y-104802262D01*
X146025789Y-104649522D01*
X146085368Y-104479255D01*
X146085369Y-104479249D01*
X146105565Y-104300003D01*
X146105565Y-104299996D01*
X146085369Y-104120750D01*
X146085368Y-104120745D01*
X146025788Y-103950476D01*
X145929815Y-103797737D01*
X145802262Y-103670184D01*
X145649523Y-103574211D01*
X145479254Y-103514631D01*
X145479249Y-103514630D01*
X145300004Y-103494435D01*
X145299996Y-103494435D01*
X145120750Y-103514630D01*
X145120745Y-103514631D01*
X144950476Y-103574211D01*
X144797737Y-103670184D01*
X144670184Y-103797737D01*
X144574211Y-103950476D01*
X144514631Y-104120745D01*
X144514630Y-104120750D01*
X144494435Y-104299996D01*
X144494435Y-104300003D01*
X142732081Y-104300003D01*
X142702262Y-104270184D01*
X142631608Y-104225789D01*
X142549523Y-104174211D01*
X142379254Y-104114631D01*
X142379249Y-104114630D01*
X142200004Y-104094435D01*
X142199996Y-104094435D01*
X142020750Y-104114630D01*
X142020745Y-104114631D01*
X141850476Y-104174211D01*
X141697737Y-104270184D01*
X141570184Y-104397737D01*
X141474211Y-104550476D01*
X141414631Y-104720745D01*
X141414630Y-104720750D01*
X141394435Y-104899996D01*
X141394435Y-104900003D01*
X118950500Y-104900003D01*
X118950500Y-103320387D01*
X118970185Y-103253348D01*
X118974442Y-103247595D01*
X118974297Y-103247491D01*
X118977275Y-103243319D01*
X118977277Y-103243317D01*
X118991265Y-103219840D01*
X118995596Y-103213501D01*
X119012385Y-103191932D01*
X119040813Y-103139398D01*
X119043426Y-103135015D01*
X119076084Y-103085030D01*
X119087065Y-103059994D01*
X119090568Y-103053187D01*
X119104567Y-103029696D01*
X119114502Y-103004232D01*
X119117728Y-102997273D01*
X119130739Y-102973233D01*
X119150129Y-102916746D01*
X119151982Y-102911996D01*
X119175974Y-102857304D01*
X119182681Y-102830813D01*
X119185021Y-102823506D01*
X119194961Y-102798037D01*
X119200567Y-102771294D01*
X119202610Y-102763877D01*
X119211482Y-102738037D01*
X119221311Y-102679131D01*
X119222356Y-102674145D01*
X119237019Y-102616244D01*
X119239275Y-102589016D01*
X119240384Y-102581405D01*
X119241866Y-102574335D01*
X119245992Y-102554660D01*
X119247121Y-102527341D01*
X119247911Y-102519717D01*
X119252411Y-102492758D01*
X119252411Y-102433049D01*
X119252623Y-102427926D01*
X119257554Y-102368426D01*
X119257554Y-102368422D01*
X119257276Y-102365073D01*
X119255296Y-102341188D01*
X119255138Y-102333505D01*
X119256268Y-102306202D01*
X119252886Y-102279074D01*
X119252411Y-102271404D01*
X119252411Y-102244092D01*
X119252411Y-102244088D01*
X119242582Y-102185191D01*
X119241949Y-102180108D01*
X119240561Y-102163353D01*
X119237019Y-102120602D01*
X119230308Y-102094104D01*
X119228890Y-102086568D01*
X119225510Y-102059442D01*
X119217711Y-102033248D01*
X119215977Y-102025751D01*
X119215935Y-102025500D01*
X119211482Y-101998809D01*
X119192090Y-101942325D01*
X119190632Y-101937430D01*
X119175974Y-101879542D01*
X119164998Y-101854521D01*
X119162358Y-101847321D01*
X119154555Y-101821109D01*
X119142552Y-101796557D01*
X119139614Y-101789466D01*
X119130739Y-101763613D01*
X119102311Y-101711083D01*
X119100066Y-101706492D01*
X119076084Y-101651816D01*
X119061711Y-101629816D01*
X119061141Y-101628943D01*
X119057342Y-101622257D01*
X119045345Y-101597716D01*
X119045342Y-101597711D01*
X119045340Y-101597707D01*
X119029457Y-101575462D01*
X119025386Y-101568939D01*
X119012385Y-101544914D01*
X118975704Y-101497786D01*
X118972729Y-101493619D01*
X118940076Y-101443640D01*
X118940075Y-101443638D01*
X118921567Y-101423533D01*
X118916722Y-101417567D01*
X118913632Y-101413239D01*
X118904182Y-101400003D01*
X129394435Y-101400003D01*
X129414630Y-101579249D01*
X129414631Y-101579254D01*
X129474211Y-101749523D01*
X129510791Y-101807739D01*
X129570184Y-101902262D01*
X129697738Y-102029816D01*
X129769648Y-102075000D01*
X129800075Y-102094119D01*
X129850478Y-102125789D01*
X129957830Y-102163353D01*
X130020745Y-102185368D01*
X130020750Y-102185369D01*
X130199996Y-102205565D01*
X130200000Y-102205565D01*
X130200004Y-102205565D01*
X130379249Y-102185369D01*
X130379252Y-102185368D01*
X130379255Y-102185368D01*
X130549522Y-102125789D01*
X130678883Y-102044505D01*
X130744855Y-102025500D01*
X130855145Y-102025500D01*
X130921117Y-102044506D01*
X131000075Y-102094119D01*
X131050478Y-102125789D01*
X131157830Y-102163353D01*
X131220745Y-102185368D01*
X131220750Y-102185369D01*
X131399996Y-102205565D01*
X131400000Y-102205565D01*
X131400004Y-102205565D01*
X131579249Y-102185369D01*
X131579252Y-102185368D01*
X131579255Y-102185368D01*
X131579256Y-102185367D01*
X131579259Y-102185367D01*
X131642170Y-102163353D01*
X131711949Y-102159790D01*
X131772577Y-102194519D01*
X131804804Y-102256512D01*
X131806346Y-102294277D01*
X131794435Y-102399995D01*
X131794435Y-102400003D01*
X131814630Y-102579249D01*
X131814631Y-102579254D01*
X131874211Y-102749523D01*
X131966085Y-102895738D01*
X131970184Y-102902262D01*
X132097738Y-103029816D01*
X132188080Y-103086582D01*
X132248464Y-103124524D01*
X132250478Y-103125789D01*
X132334930Y-103155340D01*
X132420745Y-103185368D01*
X132420750Y-103185369D01*
X132599996Y-103205565D01*
X132600000Y-103205565D01*
X132600003Y-103205565D01*
X132684391Y-103196056D01*
X132777309Y-103185587D01*
X132846130Y-103197641D01*
X132897510Y-103244990D01*
X132915134Y-103312600D01*
X132914412Y-103322690D01*
X132894435Y-103499996D01*
X132894435Y-103500003D01*
X132914630Y-103679249D01*
X132914631Y-103679254D01*
X132974211Y-103849523D01*
X133037646Y-103950478D01*
X133070184Y-104002262D01*
X133197738Y-104129816D01*
X133350478Y-104225789D01*
X133439700Y-104257009D01*
X133520745Y-104285368D01*
X133520750Y-104285369D01*
X133699996Y-104305565D01*
X133700000Y-104305565D01*
X133700004Y-104305565D01*
X133879249Y-104285369D01*
X133879252Y-104285368D01*
X133879255Y-104285368D01*
X134049522Y-104225789D01*
X134202262Y-104129816D01*
X134329816Y-104002262D01*
X134425789Y-103849522D01*
X134485368Y-103679255D01*
X134490535Y-103633396D01*
X134505565Y-103500003D01*
X134505565Y-103499996D01*
X134485369Y-103320750D01*
X134485368Y-103320745D01*
X134457907Y-103242265D01*
X134425789Y-103150478D01*
X134410966Y-103126888D01*
X134364642Y-103053164D01*
X134329816Y-102997738D01*
X134313033Y-102980955D01*
X134279548Y-102919632D01*
X134284532Y-102849940D01*
X134326404Y-102794007D01*
X134334721Y-102788294D01*
X134467576Y-102704816D01*
X134595130Y-102577262D01*
X134691103Y-102424522D01*
X134750682Y-102254255D01*
X134751407Y-102247819D01*
X134762429Y-102150000D01*
X141019659Y-102150000D01*
X141038975Y-102346129D01*
X141038976Y-102346132D01*
X141093949Y-102527354D01*
X141096188Y-102534733D01*
X141189086Y-102708532D01*
X141189090Y-102708539D01*
X141314116Y-102860883D01*
X141466460Y-102985909D01*
X141466467Y-102985913D01*
X141640266Y-103078811D01*
X141640269Y-103078811D01*
X141640273Y-103078814D01*
X141828868Y-103136024D01*
X142025000Y-103155341D01*
X142221132Y-103136024D01*
X142409727Y-103078814D01*
X142444913Y-103060007D01*
X142562298Y-102997263D01*
X142583538Y-102985910D01*
X142735883Y-102860883D01*
X142860910Y-102708538D01*
X142924796Y-102589016D01*
X142953811Y-102534733D01*
X142953811Y-102534732D01*
X142953814Y-102534727D01*
X143011024Y-102346132D01*
X143030341Y-102150000D01*
X143011024Y-101953868D01*
X142953814Y-101765273D01*
X142953811Y-101765269D01*
X142953811Y-101765266D01*
X142860913Y-101591467D01*
X142860909Y-101591460D01*
X142735883Y-101439116D01*
X142583539Y-101314090D01*
X142583532Y-101314086D01*
X142409733Y-101221188D01*
X142409727Y-101221186D01*
X142221132Y-101163976D01*
X142221129Y-101163975D01*
X142025000Y-101144659D01*
X141828870Y-101163975D01*
X141640266Y-101221188D01*
X141466467Y-101314086D01*
X141466460Y-101314090D01*
X141314116Y-101439116D01*
X141189090Y-101591460D01*
X141189086Y-101591467D01*
X141096188Y-101765266D01*
X141038975Y-101953870D01*
X141019659Y-102150000D01*
X134762429Y-102150000D01*
X134770879Y-102075003D01*
X134770879Y-102074996D01*
X134750683Y-101895750D01*
X134750682Y-101895745D01*
X134745012Y-101879542D01*
X134691103Y-101725478D01*
X134684123Y-101714370D01*
X134635287Y-101636647D01*
X134595130Y-101572738D01*
X134467576Y-101445184D01*
X134433127Y-101423538D01*
X134314837Y-101349211D01*
X134144568Y-101289631D01*
X134144563Y-101289630D01*
X133965318Y-101269435D01*
X133965310Y-101269435D01*
X133786064Y-101289630D01*
X133786059Y-101289631D01*
X133615790Y-101349211D01*
X133463051Y-101445184D01*
X133335498Y-101572737D01*
X133335493Y-101572743D01*
X133246503Y-101714370D01*
X133194169Y-101760661D01*
X133125115Y-101771309D01*
X133075538Y-101753392D01*
X132949523Y-101674211D01*
X132779254Y-101614631D01*
X132779249Y-101614630D01*
X132600004Y-101594435D01*
X132599996Y-101594435D01*
X132420750Y-101614630D01*
X132420742Y-101614632D01*
X132357827Y-101636647D01*
X132288048Y-101640208D01*
X132227421Y-101605479D01*
X132195194Y-101543485D01*
X132193653Y-101505721D01*
X132194547Y-101497792D01*
X132203694Y-101416604D01*
X132205565Y-101400002D01*
X132205565Y-101399996D01*
X132185369Y-101220750D01*
X132185366Y-101220737D01*
X132157832Y-101142049D01*
X132154270Y-101072270D01*
X132188998Y-101011643D01*
X132250992Y-100979415D01*
X132254424Y-100978792D01*
X132369614Y-100959571D01*
X132604810Y-100878828D01*
X132823509Y-100760474D01*
X133019744Y-100607738D01*
X133188164Y-100424785D01*
X133324173Y-100216607D01*
X133424063Y-99988881D01*
X133485108Y-99747821D01*
X133487017Y-99724783D01*
X133505643Y-99500005D01*
X137494357Y-99500005D01*
X137514890Y-99747812D01*
X137514892Y-99747824D01*
X137575936Y-99988881D01*
X137675826Y-100216606D01*
X137811833Y-100424782D01*
X137811835Y-100424784D01*
X137811836Y-100424785D01*
X137980256Y-100607738D01*
X138176491Y-100760474D01*
X138395190Y-100878828D01*
X138630386Y-100959571D01*
X138875665Y-101000500D01*
X139124335Y-101000500D01*
X139369614Y-100959571D01*
X139604810Y-100878828D01*
X139823509Y-100760474D01*
X140019744Y-100607738D01*
X140188164Y-100424785D01*
X140324173Y-100216607D01*
X140424063Y-99988881D01*
X140485108Y-99747821D01*
X140487017Y-99724783D01*
X140505643Y-99500005D01*
X140505643Y-99499994D01*
X140485109Y-99252187D01*
X140485107Y-99252175D01*
X140424063Y-99011118D01*
X140324173Y-98783393D01*
X140188166Y-98575217D01*
X140164164Y-98549144D01*
X140019744Y-98392262D01*
X139823509Y-98239526D01*
X139823507Y-98239525D01*
X139823506Y-98239524D01*
X139604811Y-98121172D01*
X139604802Y-98121169D01*
X139369616Y-98040429D01*
X139124335Y-97999500D01*
X138875665Y-97999500D01*
X138755283Y-98019587D01*
X138686385Y-98011261D01*
X138660990Y-98031941D01*
X138633364Y-98039932D01*
X138630382Y-98040429D01*
X138395197Y-98121169D01*
X138395188Y-98121172D01*
X138176493Y-98239524D01*
X137980257Y-98392261D01*
X137811833Y-98575217D01*
X137675826Y-98783393D01*
X137575936Y-99011118D01*
X137514892Y-99252175D01*
X137514890Y-99252187D01*
X137494357Y-99499994D01*
X137494357Y-99500005D01*
X133505643Y-99500005D01*
X133505643Y-99499994D01*
X133485109Y-99252187D01*
X133485107Y-99252175D01*
X133424063Y-99011118D01*
X133324173Y-98783393D01*
X133188166Y-98575217D01*
X133164164Y-98549144D01*
X133019744Y-98392262D01*
X132823509Y-98239526D01*
X132823507Y-98239525D01*
X132823506Y-98239524D01*
X132604811Y-98121172D01*
X132604802Y-98121169D01*
X132369616Y-98040429D01*
X132124335Y-97999500D01*
X131875665Y-97999500D01*
X131630383Y-98040429D01*
X131395197Y-98121169D01*
X131395188Y-98121172D01*
X131176493Y-98239524D01*
X130980257Y-98392261D01*
X130811833Y-98575217D01*
X130675826Y-98783393D01*
X130575936Y-99011118D01*
X130514892Y-99252175D01*
X130514890Y-99252187D01*
X130494357Y-99499994D01*
X130494357Y-99500005D01*
X130514890Y-99747812D01*
X130514892Y-99747824D01*
X130575936Y-99988881D01*
X130675826Y-100216606D01*
X130811833Y-100424782D01*
X130811835Y-100424784D01*
X130811836Y-100424785D01*
X130942310Y-100566518D01*
X130973232Y-100629172D01*
X130965372Y-100698598D01*
X130921225Y-100752753D01*
X130854807Y-100774444D01*
X130851080Y-100774500D01*
X130744855Y-100774500D01*
X130678883Y-100755494D01*
X130549523Y-100674211D01*
X130379254Y-100614631D01*
X130379249Y-100614630D01*
X130200004Y-100594435D01*
X130199996Y-100594435D01*
X130020750Y-100614630D01*
X130020745Y-100614631D01*
X129850476Y-100674211D01*
X129697737Y-100770184D01*
X129570184Y-100897737D01*
X129474211Y-101050476D01*
X129414631Y-101220745D01*
X129414630Y-101220750D01*
X129394435Y-101399996D01*
X129394435Y-101400003D01*
X118904182Y-101400003D01*
X118900843Y-101395327D01*
X118900840Y-101395324D01*
X118900838Y-101395321D01*
X118881526Y-101376009D01*
X118876436Y-101370245D01*
X118859653Y-101348684D01*
X118859646Y-101348676D01*
X118815719Y-101308238D01*
X118812094Y-101304613D01*
X118771658Y-101260688D01*
X118771654Y-101260684D01*
X118764085Y-101254793D01*
X118750084Y-101243895D01*
X118744330Y-101238814D01*
X118725007Y-101219491D01*
X118702770Y-101203614D01*
X118696800Y-101198766D01*
X118676697Y-101180260D01*
X118676696Y-101180259D01*
X118649341Y-101162387D01*
X118626709Y-101147600D01*
X118622538Y-101144622D01*
X118575421Y-101107949D01*
X118575418Y-101107947D01*
X118551384Y-101094941D01*
X118544861Y-101090869D01*
X118522627Y-101074994D01*
X118522625Y-101074993D01*
X118522618Y-101074989D01*
X118498076Y-101062991D01*
X118491392Y-101059193D01*
X118478048Y-101050476D01*
X118468518Y-101044250D01*
X118468515Y-101044248D01*
X118468514Y-101044248D01*
X118413850Y-101020270D01*
X118409244Y-101018019D01*
X118356717Y-100989593D01*
X118356711Y-100989590D01*
X118330879Y-100980722D01*
X118323776Y-100977780D01*
X118299229Y-100965780D01*
X118294511Y-100964375D01*
X118273018Y-100957976D01*
X118265811Y-100955334D01*
X118240790Y-100944358D01*
X118182907Y-100929700D01*
X118177994Y-100928237D01*
X118121527Y-100908852D01*
X118094576Y-100904355D01*
X118087082Y-100902621D01*
X118060892Y-100894824D01*
X118052815Y-100893817D01*
X117988727Y-100865988D01*
X117980479Y-100858451D01*
X116622034Y-99500005D01*
X123494357Y-99500005D01*
X123514890Y-99747812D01*
X123514892Y-99747824D01*
X123575936Y-99988881D01*
X123675826Y-100216606D01*
X123811833Y-100424782D01*
X123811835Y-100424784D01*
X123811836Y-100424785D01*
X123980256Y-100607738D01*
X124176491Y-100760474D01*
X124395190Y-100878828D01*
X124630386Y-100959571D01*
X124875665Y-101000500D01*
X125124335Y-101000500D01*
X125369614Y-100959571D01*
X125604810Y-100878828D01*
X125823509Y-100760474D01*
X126019744Y-100607738D01*
X126188164Y-100424785D01*
X126324173Y-100216607D01*
X126424063Y-99988881D01*
X126485108Y-99747821D01*
X126487017Y-99724783D01*
X126505643Y-99500005D01*
X126505643Y-99499994D01*
X126485109Y-99252187D01*
X126485107Y-99252175D01*
X126424063Y-99011118D01*
X126324173Y-98783393D01*
X126188166Y-98575217D01*
X126164164Y-98549144D01*
X126019744Y-98392262D01*
X125823509Y-98239526D01*
X125823507Y-98239525D01*
X125823506Y-98239524D01*
X125604811Y-98121172D01*
X125604802Y-98121169D01*
X125369616Y-98040429D01*
X125124335Y-97999500D01*
X124875665Y-97999500D01*
X124630383Y-98040429D01*
X124395197Y-98121169D01*
X124395188Y-98121172D01*
X124176493Y-98239524D01*
X123980257Y-98392261D01*
X123811833Y-98575217D01*
X123675826Y-98783393D01*
X123575936Y-99011118D01*
X123514892Y-99252175D01*
X123514890Y-99252187D01*
X123494357Y-99499994D01*
X123494357Y-99500005D01*
X116622034Y-99500005D01*
X115582950Y-98460921D01*
X115519747Y-98392265D01*
X115519742Y-98392260D01*
X115446104Y-98334945D01*
X115401120Y-98296846D01*
X115374894Y-98274634D01*
X115351414Y-98260643D01*
X115345080Y-98256315D01*
X115333689Y-98247449D01*
X115323510Y-98239526D01*
X115323506Y-98239524D01*
X115241437Y-98195111D01*
X115161274Y-98147344D01*
X115161272Y-98147343D01*
X115161270Y-98147342D01*
X115135821Y-98137412D01*
X115128845Y-98134178D01*
X115115723Y-98127077D01*
X115104810Y-98121172D01*
X115104804Y-98121170D01*
X115104802Y-98121169D01*
X115016531Y-98090865D01*
X114929617Y-98056952D01*
X114929612Y-98056950D01*
X114902883Y-98051345D01*
X114895472Y-98049305D01*
X114869614Y-98040429D01*
X114777567Y-98025069D01*
X114686235Y-98005918D01*
X114658928Y-98004789D01*
X114651282Y-98003996D01*
X114624335Y-97999500D01*
X114531035Y-97999500D01*
X114437780Y-97995643D01*
X114437779Y-97995643D01*
X114410652Y-97999024D01*
X114402981Y-97999500D01*
X114375665Y-97999500D01*
X114283638Y-98014856D01*
X114191017Y-98026401D01*
X114164829Y-98034198D01*
X114157338Y-98035931D01*
X114130383Y-98040429D01*
X114064191Y-98063153D01*
X114042127Y-98070728D01*
X114015500Y-98078655D01*
X113952688Y-98097355D01*
X113928130Y-98109360D01*
X113921031Y-98112299D01*
X113915322Y-98114259D01*
X113895185Y-98121173D01*
X113813119Y-98165586D01*
X113729289Y-98206567D01*
X113729284Y-98206571D01*
X113707038Y-98222452D01*
X113700521Y-98226520D01*
X113676486Y-98239528D01*
X113602845Y-98296846D01*
X113526907Y-98351064D01*
X113507586Y-98370384D01*
X113501827Y-98375470D01*
X113480261Y-98392257D01*
X113480256Y-98392261D01*
X113417049Y-98460921D01*
X113351067Y-98526904D01*
X113335187Y-98549144D01*
X113330343Y-98555110D01*
X113311838Y-98575212D01*
X113311830Y-98575223D01*
X113260799Y-98653333D01*
X113206575Y-98729276D01*
X113206562Y-98729298D01*
X113194567Y-98753836D01*
X113190769Y-98760520D01*
X113175831Y-98783386D01*
X113175825Y-98783395D01*
X113138347Y-98868836D01*
X113097357Y-98952683D01*
X113089556Y-98978883D01*
X113086910Y-98986099D01*
X113075936Y-99011119D01*
X113053033Y-99101563D01*
X113026402Y-99191014D01*
X113026400Y-99191025D01*
X113023020Y-99218140D01*
X113021598Y-99225696D01*
X113014892Y-99252176D01*
X113014891Y-99252183D01*
X113007186Y-99345167D01*
X112995643Y-99437778D01*
X112996771Y-99465080D01*
X112996612Y-99472763D01*
X112994357Y-99499997D01*
X112994357Y-99500005D01*
X113002062Y-99592990D01*
X113005918Y-99686233D01*
X113011526Y-99712983D01*
X113012635Y-99720590D01*
X113014891Y-99747818D01*
X113014891Y-99747819D01*
X113020183Y-99768715D01*
X113037801Y-99838288D01*
X113056951Y-99929614D01*
X113056952Y-99929616D01*
X113066882Y-99955067D01*
X113069227Y-99962387D01*
X113075755Y-99988165D01*
X113075937Y-99988881D01*
X113091249Y-100023789D01*
X113113420Y-100074335D01*
X113147344Y-100161275D01*
X113161332Y-100184750D01*
X113164852Y-100191588D01*
X113175825Y-100216604D01*
X113175827Y-100216607D01*
X113226860Y-100294720D01*
X113274634Y-100374894D01*
X113292296Y-100395747D01*
X113296887Y-100401904D01*
X113311836Y-100424785D01*
X113311837Y-100424786D01*
X113375033Y-100493435D01*
X113395100Y-100517129D01*
X113417049Y-100539078D01*
X113480257Y-100607739D01*
X113501822Y-100624524D01*
X113507587Y-100629615D01*
X115913181Y-103035209D01*
X115946666Y-103096532D01*
X115949500Y-103122890D01*
X115949500Y-110352981D01*
X115949024Y-110360656D01*
X115945643Y-110387779D01*
X115949500Y-110481035D01*
X115949500Y-110512064D01*
X115952062Y-110542990D01*
X115955918Y-110636233D01*
X115961526Y-110662983D01*
X115962635Y-110670590D01*
X115964891Y-110697818D01*
X115964891Y-110697819D01*
X115977772Y-110748685D01*
X115987801Y-110788288D01*
X116006951Y-110879614D01*
X116006952Y-110879616D01*
X116016882Y-110905067D01*
X116019227Y-110912387D01*
X116025937Y-110938881D01*
X116063420Y-111024335D01*
X116097344Y-111111275D01*
X116111332Y-111134750D01*
X116114852Y-111141588D01*
X116125825Y-111166604D01*
X116125827Y-111166607D01*
X116176860Y-111244720D01*
X116224634Y-111324894D01*
X116242296Y-111345747D01*
X116246887Y-111351904D01*
X116261836Y-111374785D01*
X116261837Y-111374786D01*
X116325033Y-111443435D01*
X116345100Y-111467129D01*
X116367049Y-111489078D01*
X116430257Y-111557739D01*
X116451822Y-111574524D01*
X116457587Y-111579615D01*
X120917049Y-116039078D01*
X120980257Y-116107739D01*
X121033179Y-116148930D01*
X121053895Y-116165054D01*
X121125106Y-116225366D01*
X121148584Y-116239356D01*
X121154928Y-116243691D01*
X121176487Y-116260471D01*
X121176492Y-116260475D01*
X121237385Y-116293428D01*
X121258569Y-116304892D01*
X121338727Y-116352656D01*
X121364181Y-116362587D01*
X121371147Y-116365816D01*
X121395190Y-116378828D01*
X121395193Y-116378829D01*
X121395195Y-116378830D01*
X121424675Y-116388950D01*
X121483458Y-116409130D01*
X121570386Y-116443050D01*
X121597136Y-116448658D01*
X121604529Y-116450694D01*
X121624616Y-116457590D01*
X121630383Y-116459570D01*
X121630390Y-116459572D01*
X121693991Y-116470184D01*
X121722423Y-116474928D01*
X121813763Y-116494081D01*
X121841070Y-116495209D01*
X121848705Y-116496000D01*
X121862201Y-116498253D01*
X121875657Y-116500499D01*
X121875660Y-116500499D01*
X121875665Y-116500500D01*
X121875670Y-116500500D01*
X121968965Y-116500500D01*
X122062221Y-116504357D01*
X122089347Y-116500975D01*
X122097019Y-116500500D01*
X122124330Y-116500500D01*
X122124335Y-116500500D01*
X122216361Y-116485143D01*
X122308981Y-116473599D01*
X122316700Y-116471300D01*
X122335169Y-116465802D01*
X122342666Y-116464067D01*
X122350558Y-116462750D01*
X122369614Y-116459571D01*
X122457868Y-116429273D01*
X122547314Y-116402644D01*
X122571864Y-116390641D01*
X122578958Y-116387702D01*
X122604810Y-116378828D01*
X122604820Y-116378823D01*
X122686877Y-116334415D01*
X122704456Y-116325821D01*
X122770716Y-116293429D01*
X122792963Y-116277543D01*
X122799464Y-116273485D01*
X122816989Y-116264001D01*
X122885318Y-116249411D01*
X122950689Y-116274077D01*
X122992346Y-116330170D01*
X123000000Y-116373060D01*
X123000000Y-124031244D01*
X122980315Y-124098283D01*
X122927511Y-124144038D01*
X122889884Y-124154464D01*
X122845750Y-124159436D01*
X122675478Y-124219016D01*
X122522737Y-124314990D01*
X122395184Y-124442543D01*
X122299211Y-124595282D01*
X122239631Y-124765551D01*
X122239630Y-124765556D01*
X122219435Y-124944802D01*
X122219435Y-124944809D01*
X122239630Y-125124055D01*
X122239631Y-125124060D01*
X122299211Y-125294330D01*
X122309075Y-125310027D01*
X122328076Y-125377263D01*
X122307709Y-125444099D01*
X122254442Y-125489313D01*
X122204082Y-125500000D01*
X70124000Y-125500000D01*
X70056961Y-125480315D01*
X70011206Y-125427511D01*
X70000000Y-125376000D01*
X70000000Y-123250003D01*
X79944435Y-123250003D01*
X79964630Y-123429249D01*
X79964631Y-123429254D01*
X80024211Y-123599523D01*
X80094761Y-123711802D01*
X80120184Y-123752262D01*
X80247738Y-123879816D01*
X80332101Y-123932825D01*
X80397748Y-123974074D01*
X80400478Y-123975789D01*
X80543370Y-124025789D01*
X80570745Y-124035368D01*
X80570750Y-124035369D01*
X80749996Y-124055565D01*
X80750000Y-124055565D01*
X80750004Y-124055565D01*
X80929249Y-124035369D01*
X80929252Y-124035368D01*
X80929255Y-124035368D01*
X81099522Y-123975789D01*
X81252262Y-123879816D01*
X81379816Y-123752262D01*
X81475789Y-123599522D01*
X81535368Y-123429255D01*
X81536210Y-123421788D01*
X81548904Y-123309120D01*
X81575970Y-123244706D01*
X81633565Y-123205151D01*
X81703402Y-123203013D01*
X81738097Y-123218010D01*
X81750475Y-123225788D01*
X81920745Y-123285368D01*
X81920750Y-123285369D01*
X82099996Y-123305565D01*
X82100000Y-123305565D01*
X82100004Y-123305565D01*
X82279249Y-123285369D01*
X82279252Y-123285368D01*
X82279255Y-123285368D01*
X82449522Y-123225789D01*
X82578883Y-123144505D01*
X82644855Y-123125500D01*
X83986494Y-123125500D01*
X84053533Y-123145185D01*
X84099288Y-123197989D01*
X84109714Y-123235616D01*
X84114630Y-123279249D01*
X84174210Y-123449521D01*
X84205926Y-123499996D01*
X84270184Y-123602262D01*
X84397738Y-123729816D01*
X84473848Y-123777639D01*
X84520855Y-123807176D01*
X84550478Y-123825789D01*
X84704878Y-123879816D01*
X84720745Y-123885368D01*
X84720750Y-123885369D01*
X84899996Y-123905565D01*
X84900000Y-123905565D01*
X84900004Y-123905565D01*
X85079249Y-123885369D01*
X85079252Y-123885368D01*
X85079255Y-123885368D01*
X85249522Y-123825789D01*
X85402262Y-123729816D01*
X85529816Y-123602262D01*
X85625789Y-123449522D01*
X85685368Y-123279255D01*
X85685369Y-123279249D01*
X85694298Y-123200003D01*
X95194435Y-123200003D01*
X95214630Y-123379249D01*
X95214631Y-123379254D01*
X95274211Y-123549523D01*
X95337045Y-123649522D01*
X95370184Y-123702262D01*
X95497738Y-123829816D01*
X95585482Y-123884949D01*
X95641853Y-123920370D01*
X95650478Y-123925789D01*
X95780215Y-123971186D01*
X95820745Y-123985368D01*
X95820750Y-123985369D01*
X95999996Y-124005565D01*
X96000000Y-124005565D01*
X96000004Y-124005565D01*
X96179249Y-123985369D01*
X96179252Y-123985368D01*
X96179255Y-123985368D01*
X96349522Y-123925789D01*
X96502262Y-123829816D01*
X96629816Y-123702262D01*
X96725789Y-123549522D01*
X96743116Y-123500003D01*
X101694435Y-123500003D01*
X101714630Y-123679249D01*
X101714631Y-123679254D01*
X101774211Y-123849523D01*
X101864053Y-123992504D01*
X101870184Y-124002262D01*
X101997738Y-124129816D01*
X102150478Y-124225789D01*
X102305656Y-124280088D01*
X102320745Y-124285368D01*
X102320750Y-124285369D01*
X102499996Y-124305565D01*
X102500000Y-124305565D01*
X102500004Y-124305565D01*
X102679249Y-124285369D01*
X102679252Y-124285368D01*
X102679255Y-124285368D01*
X102849522Y-124225789D01*
X102978883Y-124144505D01*
X103044855Y-124125500D01*
X103455145Y-124125500D01*
X103521117Y-124144506D01*
X103639698Y-124219016D01*
X103650478Y-124225789D01*
X103805656Y-124280088D01*
X103820745Y-124285368D01*
X103820750Y-124285369D01*
X103999996Y-124305565D01*
X104000000Y-124305565D01*
X104000004Y-124305565D01*
X104179249Y-124285369D01*
X104179252Y-124285368D01*
X104179255Y-124285368D01*
X104349522Y-124225789D01*
X104502262Y-124129816D01*
X104629816Y-124002262D01*
X104725789Y-123849522D01*
X104785368Y-123679255D01*
X104787521Y-123660146D01*
X104805565Y-123500003D01*
X104805565Y-123499996D01*
X104785369Y-123320750D01*
X104785368Y-123320745D01*
X104766829Y-123267764D01*
X104725789Y-123150478D01*
X104712567Y-123129436D01*
X104694073Y-123100003D01*
X113094435Y-123100003D01*
X113114630Y-123279249D01*
X113114631Y-123279254D01*
X113174211Y-123449523D01*
X113205926Y-123499996D01*
X113270184Y-123602262D01*
X113397738Y-123729816D01*
X113473848Y-123777639D01*
X113520855Y-123807176D01*
X113550478Y-123825789D01*
X113704878Y-123879816D01*
X113720745Y-123885368D01*
X113720750Y-123885369D01*
X113899996Y-123905565D01*
X113900000Y-123905565D01*
X113900004Y-123905565D01*
X114079249Y-123885369D01*
X114079252Y-123885368D01*
X114079255Y-123885368D01*
X114249522Y-123825789D01*
X114402262Y-123729816D01*
X114529816Y-123602262D01*
X114625789Y-123449522D01*
X114685368Y-123279255D01*
X114690672Y-123232173D01*
X114717737Y-123167763D01*
X114726201Y-123158387D01*
X115601430Y-122283159D01*
X115662752Y-122249676D01*
X115732444Y-122254660D01*
X115755082Y-122265848D01*
X115850476Y-122325788D01*
X115850478Y-122325789D01*
X115900016Y-122343123D01*
X116020745Y-122385368D01*
X116020750Y-122385369D01*
X116199996Y-122405565D01*
X116200000Y-122405565D01*
X116200004Y-122405565D01*
X116379249Y-122385369D01*
X116379252Y-122385368D01*
X116379255Y-122385368D01*
X116549522Y-122325789D01*
X116702262Y-122229816D01*
X116829816Y-122102262D01*
X116925789Y-121949522D01*
X116985368Y-121779255D01*
X116986390Y-121770184D01*
X117005565Y-121600003D01*
X117005565Y-121599996D01*
X116985369Y-121420750D01*
X116985368Y-121420745D01*
X116981154Y-121408702D01*
X116928985Y-121259613D01*
X118601761Y-121259613D01*
X118621956Y-121438859D01*
X118621957Y-121438864D01*
X118681537Y-121609133D01*
X118741989Y-121705341D01*
X118777510Y-121761872D01*
X118905064Y-121889426D01*
X118979581Y-121936248D01*
X119013124Y-121957325D01*
X119057804Y-121985399D01*
X119184932Y-122029883D01*
X119228071Y-122044978D01*
X119228076Y-122044979D01*
X119407322Y-122065175D01*
X119407326Y-122065175D01*
X119407330Y-122065175D01*
X119586575Y-122044979D01*
X119586578Y-122044978D01*
X119586581Y-122044978D01*
X119756848Y-121985399D01*
X119909588Y-121889426D01*
X120037142Y-121761872D01*
X120116167Y-121636103D01*
X120168501Y-121589814D01*
X120180202Y-121585036D01*
X120349522Y-121525789D01*
X120502262Y-121429816D01*
X120629816Y-121302262D01*
X120725789Y-121149522D01*
X120785368Y-120979255D01*
X120785589Y-120977292D01*
X120805565Y-120800003D01*
X120805565Y-120799996D01*
X120785369Y-120620750D01*
X120785368Y-120620745D01*
X120770848Y-120579249D01*
X120725789Y-120450478D01*
X120629816Y-120297738D01*
X120502262Y-120170184D01*
X120349523Y-120074211D01*
X120179254Y-120014631D01*
X120179249Y-120014630D01*
X120000004Y-119994435D01*
X119999996Y-119994435D01*
X119820750Y-120014630D01*
X119820745Y-120014631D01*
X119650476Y-120074211D01*
X119497737Y-120170184D01*
X119370184Y-120297737D01*
X119370182Y-120297740D01*
X119291157Y-120423506D01*
X119238822Y-120469797D01*
X119227119Y-120474575D01*
X119057803Y-120533821D01*
X118905063Y-120629794D01*
X118777510Y-120757347D01*
X118681537Y-120910086D01*
X118621957Y-121080355D01*
X118621956Y-121080360D01*
X118601761Y-121259606D01*
X118601761Y-121259613D01*
X116928985Y-121259613D01*
X116925789Y-121250478D01*
X116925188Y-121249522D01*
X116862354Y-121149522D01*
X116829816Y-121097738D01*
X116702262Y-120970184D01*
X116693426Y-120964632D01*
X116549523Y-120874211D01*
X116379254Y-120814631D01*
X116379249Y-120814630D01*
X116200004Y-120794435D01*
X116199996Y-120794435D01*
X116020750Y-120814630D01*
X116020745Y-120814631D01*
X115850476Y-120874211D01*
X115721117Y-120955494D01*
X115655145Y-120974500D01*
X115482737Y-120974500D01*
X115467120Y-120972776D01*
X115467093Y-120973062D01*
X115459331Y-120972327D01*
X115390203Y-120974500D01*
X115360650Y-120974500D01*
X115359929Y-120974590D01*
X115353757Y-120975369D01*
X115347945Y-120975826D01*
X115301378Y-120977290D01*
X115301367Y-120977292D01*
X115282134Y-120982879D01*
X115263094Y-120986822D01*
X115243217Y-120989334D01*
X115243210Y-120989335D01*
X115243208Y-120989336D01*
X115243206Y-120989336D01*
X115243205Y-120989337D01*
X115199868Y-121006494D01*
X115194342Y-121008386D01*
X115149611Y-121021382D01*
X115149608Y-121021383D01*
X115132363Y-121031581D01*
X115114901Y-121040135D01*
X115096272Y-121047511D01*
X115096267Y-121047513D01*
X115058564Y-121074906D01*
X115053682Y-121078112D01*
X115013580Y-121101828D01*
X114999408Y-121116000D01*
X114984623Y-121128628D01*
X114969889Y-121139334D01*
X114968412Y-121140407D01*
X114938709Y-121176310D01*
X114934777Y-121180631D01*
X113841620Y-122273787D01*
X113780297Y-122307272D01*
X113767825Y-122309326D01*
X113720750Y-122314630D01*
X113550478Y-122374210D01*
X113397737Y-122470184D01*
X113270184Y-122597737D01*
X113174211Y-122750476D01*
X113114631Y-122920745D01*
X113114630Y-122920750D01*
X113094435Y-123099996D01*
X113094435Y-123100003D01*
X104694073Y-123100003D01*
X104676998Y-123072828D01*
X104629816Y-122997738D01*
X104502262Y-122870184D01*
X104441636Y-122832090D01*
X104349523Y-122774211D01*
X104179254Y-122714631D01*
X104179249Y-122714630D01*
X104000004Y-122694435D01*
X103999996Y-122694435D01*
X103820750Y-122714630D01*
X103820745Y-122714631D01*
X103650476Y-122774211D01*
X103521117Y-122855494D01*
X103455145Y-122874500D01*
X103044855Y-122874500D01*
X102978883Y-122855494D01*
X102849523Y-122774211D01*
X102679254Y-122714631D01*
X102679249Y-122714630D01*
X102500004Y-122694435D01*
X102499996Y-122694435D01*
X102320750Y-122714630D01*
X102320745Y-122714631D01*
X102150476Y-122774211D01*
X101997737Y-122870184D01*
X101870184Y-122997737D01*
X101774211Y-123150476D01*
X101714631Y-123320745D01*
X101714630Y-123320750D01*
X101694435Y-123499996D01*
X101694435Y-123500003D01*
X96743116Y-123500003D01*
X96785368Y-123379255D01*
X96790672Y-123332174D01*
X96817737Y-123267764D01*
X96826201Y-123258388D01*
X96983788Y-123100801D01*
X96996042Y-123090986D01*
X96995859Y-123090764D01*
X97001866Y-123085792D01*
X97001877Y-123085786D01*
X97032775Y-123052882D01*
X97049227Y-123035364D01*
X97059671Y-123024918D01*
X97070120Y-123014471D01*
X97074379Y-123008978D01*
X97078152Y-123004561D01*
X97110062Y-122970582D01*
X97119713Y-122953024D01*
X97130396Y-122936761D01*
X97142673Y-122920936D01*
X97161185Y-122878153D01*
X97163738Y-122872941D01*
X97186197Y-122832092D01*
X97191180Y-122812680D01*
X97197481Y-122794280D01*
X97205437Y-122775896D01*
X97212729Y-122729852D01*
X97213906Y-122724171D01*
X97225500Y-122679019D01*
X97225500Y-122658983D01*
X97227027Y-122639582D01*
X97230160Y-122619804D01*
X97225775Y-122573415D01*
X97225500Y-122567577D01*
X97225500Y-120944854D01*
X97244507Y-120878881D01*
X97247442Y-120874211D01*
X97325789Y-120749522D01*
X97343117Y-120700000D01*
X104394659Y-120700000D01*
X104413975Y-120896129D01*
X104428629Y-120944435D01*
X104470828Y-121083548D01*
X104471188Y-121084733D01*
X104564086Y-121258532D01*
X104564090Y-121258539D01*
X104689116Y-121410883D01*
X104841460Y-121535909D01*
X104841467Y-121535913D01*
X105015266Y-121628811D01*
X105015269Y-121628811D01*
X105015273Y-121628814D01*
X105203868Y-121686024D01*
X105400000Y-121705341D01*
X105596132Y-121686024D01*
X105784727Y-121628814D01*
X105790387Y-121625789D01*
X105958532Y-121535913D01*
X105958538Y-121535910D01*
X106110883Y-121410883D01*
X106235910Y-121258538D01*
X106303075Y-121132881D01*
X106328811Y-121084733D01*
X106328811Y-121084732D01*
X106328814Y-121084727D01*
X106386024Y-120896132D01*
X106405341Y-120700000D01*
X106386024Y-120503868D01*
X106328814Y-120315273D01*
X106328811Y-120315269D01*
X106328811Y-120315266D01*
X106235913Y-120141467D01*
X106235909Y-120141460D01*
X106110883Y-119989116D01*
X105958539Y-119864090D01*
X105958532Y-119864086D01*
X105784733Y-119771188D01*
X105784727Y-119771186D01*
X105596132Y-119713976D01*
X105596129Y-119713975D01*
X105400000Y-119694659D01*
X105203870Y-119713975D01*
X105015266Y-119771188D01*
X104841467Y-119864086D01*
X104841460Y-119864090D01*
X104689116Y-119989116D01*
X104564090Y-120141460D01*
X104564086Y-120141467D01*
X104471188Y-120315266D01*
X104413975Y-120503870D01*
X104394659Y-120700000D01*
X97343117Y-120700000D01*
X97385368Y-120579255D01*
X97385369Y-120579249D01*
X97405565Y-120400003D01*
X97405565Y-120399996D01*
X97385369Y-120220750D01*
X97385368Y-120220745D01*
X97357625Y-120141460D01*
X97325789Y-120050478D01*
X97303265Y-120014632D01*
X97229815Y-119897737D01*
X97102262Y-119770184D01*
X96949523Y-119674211D01*
X96779254Y-119614631D01*
X96779249Y-119614630D01*
X96600004Y-119594435D01*
X96599996Y-119594435D01*
X96420750Y-119614630D01*
X96420745Y-119614631D01*
X96250476Y-119674211D01*
X96097737Y-119770184D01*
X95970184Y-119897737D01*
X95874211Y-120050476D01*
X95814631Y-120220745D01*
X95814630Y-120220750D01*
X95794435Y-120399996D01*
X95794435Y-120400003D01*
X95814630Y-120579249D01*
X95814631Y-120579254D01*
X95874211Y-120749524D01*
X95915122Y-120814632D01*
X95952558Y-120874211D01*
X95955493Y-120878881D01*
X95974500Y-120944854D01*
X95974500Y-122286494D01*
X95954815Y-122353533D01*
X95902011Y-122399288D01*
X95864384Y-122409714D01*
X95820750Y-122414630D01*
X95650478Y-122474210D01*
X95497737Y-122570184D01*
X95370184Y-122697737D01*
X95274211Y-122850476D01*
X95214631Y-123020745D01*
X95214630Y-123020750D01*
X95194435Y-123199996D01*
X95194435Y-123200003D01*
X85694298Y-123200003D01*
X85705565Y-123100003D01*
X85705565Y-123099996D01*
X85685369Y-122920750D01*
X85685368Y-122920745D01*
X85679243Y-122903240D01*
X85625789Y-122750478D01*
X85625188Y-122749522D01*
X85556108Y-122639582D01*
X85529816Y-122597738D01*
X85402262Y-122470184D01*
X85319546Y-122418210D01*
X85249521Y-122374210D01*
X85079249Y-122314630D01*
X85032174Y-122309326D01*
X84967760Y-122282259D01*
X84958378Y-122273787D01*
X84800803Y-122116212D01*
X84790980Y-122103950D01*
X84790759Y-122104134D01*
X84785786Y-122098123D01*
X84756034Y-122070184D01*
X84735364Y-122050773D01*
X84724919Y-122040328D01*
X84714475Y-122029883D01*
X84708986Y-122025625D01*
X84704561Y-122021847D01*
X84670582Y-121989938D01*
X84670580Y-121989936D01*
X84670577Y-121989935D01*
X84653029Y-121980288D01*
X84636763Y-121969604D01*
X84620936Y-121957327D01*
X84620935Y-121957326D01*
X84620933Y-121957325D01*
X84578168Y-121938818D01*
X84572922Y-121936248D01*
X84532093Y-121913803D01*
X84532092Y-121913802D01*
X84512693Y-121908822D01*
X84494281Y-121902518D01*
X84475898Y-121894562D01*
X84475892Y-121894560D01*
X84429874Y-121887272D01*
X84424152Y-121886087D01*
X84379021Y-121874500D01*
X84379019Y-121874500D01*
X84358984Y-121874500D01*
X84339586Y-121872973D01*
X84332162Y-121871797D01*
X84319805Y-121869840D01*
X84319804Y-121869840D01*
X84273416Y-121874225D01*
X84267578Y-121874500D01*
X83979565Y-121874500D01*
X83912526Y-121854815D01*
X83866771Y-121802011D01*
X83856946Y-121756851D01*
X83856345Y-121756919D01*
X83855682Y-121751041D01*
X83855565Y-121750500D01*
X83855565Y-121749996D01*
X83835369Y-121570750D01*
X83835368Y-121570745D01*
X83803406Y-121479402D01*
X83775789Y-121400478D01*
X83679816Y-121247738D01*
X83552262Y-121120184D01*
X83523049Y-121101828D01*
X83399523Y-121024211D01*
X83229254Y-120964631D01*
X83229249Y-120964630D01*
X83050004Y-120944435D01*
X83049996Y-120944435D01*
X82870750Y-120964630D01*
X82870745Y-120964631D01*
X82700476Y-121024211D01*
X82571117Y-121105494D01*
X82505145Y-121124500D01*
X82119564Y-121124500D01*
X82103947Y-121122776D01*
X82103920Y-121123062D01*
X82096158Y-121122327D01*
X82027030Y-121124500D01*
X81997477Y-121124500D01*
X81996756Y-121124590D01*
X81990584Y-121125369D01*
X81984772Y-121125826D01*
X81938200Y-121127290D01*
X81938199Y-121127290D01*
X81918956Y-121132881D01*
X81899906Y-121136825D01*
X81880038Y-121139334D01*
X81880036Y-121139335D01*
X81836711Y-121156488D01*
X81831184Y-121158380D01*
X81786437Y-121171381D01*
X81786436Y-121171382D01*
X81769194Y-121181579D01*
X81751726Y-121190137D01*
X81733096Y-121197513D01*
X81733094Y-121197514D01*
X81695403Y-121224898D01*
X81690521Y-121228105D01*
X81650406Y-121251830D01*
X81636235Y-121266000D01*
X81621450Y-121278628D01*
X81605239Y-121290407D01*
X81575536Y-121326310D01*
X81571604Y-121330631D01*
X80366206Y-122536028D01*
X80353947Y-122545851D01*
X80354130Y-122546072D01*
X80348120Y-122551043D01*
X80345134Y-122554223D01*
X80320724Y-122574322D01*
X80247741Y-122620181D01*
X80247739Y-122620182D01*
X80120184Y-122747737D01*
X80024211Y-122900476D01*
X79964631Y-123070745D01*
X79964630Y-123070750D01*
X79944435Y-123249996D01*
X79944435Y-123250003D01*
X70000000Y-123250003D01*
X70000000Y-121531440D01*
X70019685Y-121464401D01*
X70072489Y-121418646D01*
X70141647Y-121408702D01*
X70205203Y-121437727D01*
X70211681Y-121443759D01*
X70297738Y-121529816D01*
X70347902Y-121561336D01*
X70447883Y-121624159D01*
X70450478Y-121625789D01*
X70577352Y-121670184D01*
X70620745Y-121685368D01*
X70620750Y-121685369D01*
X70799996Y-121705565D01*
X70800000Y-121705565D01*
X70800004Y-121705565D01*
X70979249Y-121685369D01*
X70979252Y-121685368D01*
X70979255Y-121685368D01*
X71149522Y-121625789D01*
X71302262Y-121529816D01*
X71429816Y-121402262D01*
X71525789Y-121249522D01*
X71585368Y-121079255D01*
X71585858Y-121074906D01*
X71605565Y-120900003D01*
X71605565Y-120899996D01*
X71585369Y-120720750D01*
X71585368Y-120720745D01*
X71541170Y-120594435D01*
X71525789Y-120550478D01*
X71429816Y-120397738D01*
X71302262Y-120270184D01*
X71231608Y-120225789D01*
X71149523Y-120174211D01*
X70979254Y-120114631D01*
X70979249Y-120114630D01*
X70800004Y-120094435D01*
X70799996Y-120094435D01*
X70620750Y-120114630D01*
X70620745Y-120114631D01*
X70450476Y-120174211D01*
X70297737Y-120270184D01*
X70211681Y-120356241D01*
X70150358Y-120389726D01*
X70080666Y-120384742D01*
X70024733Y-120342870D01*
X70000316Y-120277406D01*
X70000000Y-120268560D01*
X70000000Y-117000004D01*
X75494659Y-117000004D01*
X75497876Y-117032677D01*
X75498155Y-117040328D01*
X75497243Y-117076360D01*
X75497243Y-117076372D01*
X75507766Y-117135081D01*
X75508440Y-117139942D01*
X75513975Y-117196129D01*
X75513976Y-117196132D01*
X75524489Y-117230791D01*
X75526188Y-117237856D01*
X75533140Y-117276648D01*
X75533141Y-117276651D01*
X75537804Y-117288324D01*
X75552006Y-117323880D01*
X75554021Y-117328923D01*
X75555772Y-117333916D01*
X75562881Y-117357351D01*
X75571186Y-117384728D01*
X75589849Y-117419646D01*
X75592748Y-117425877D01*
X75608013Y-117464090D01*
X75608623Y-117465617D01*
X75623947Y-117488868D01*
X75637745Y-117509804D01*
X75640656Y-117514695D01*
X75660331Y-117551506D01*
X75664091Y-117558539D01*
X75691348Y-117591752D01*
X75695192Y-117596970D01*
X75720600Y-117635522D01*
X75755631Y-117670553D01*
X75759720Y-117675064D01*
X75777011Y-117696132D01*
X75789117Y-117710883D01*
X75823404Y-117739022D01*
X75824935Y-117740278D01*
X75829436Y-117744357D01*
X76188946Y-118103866D01*
X76513181Y-118428101D01*
X76546666Y-118489424D01*
X76549500Y-118515782D01*
X76549500Y-118697798D01*
X76549201Y-118703878D01*
X76544659Y-118749999D01*
X76544659Y-118750000D01*
X76549189Y-118795999D01*
X76549408Y-118798938D01*
X76549499Y-118800736D01*
X76553867Y-118843696D01*
X76554474Y-118849663D01*
X76563745Y-118943790D01*
X76563976Y-118946130D01*
X76564034Y-118946419D01*
X76564904Y-118952228D01*
X76564924Y-118952429D01*
X76564927Y-118952444D01*
X76593965Y-119044992D01*
X76621184Y-119134722D01*
X76623980Y-119141473D01*
X76625816Y-119146528D01*
X76625844Y-119146595D01*
X76660225Y-119208538D01*
X76671387Y-119228648D01*
X76714089Y-119308537D01*
X76717474Y-119313602D01*
X76717271Y-119313737D01*
X76724454Y-119324304D01*
X76724593Y-119324505D01*
X76783656Y-119393305D01*
X76839117Y-119460884D01*
X76839395Y-119461112D01*
X76854810Y-119476188D01*
X76857134Y-119478895D01*
X76857138Y-119478898D01*
X76857140Y-119478900D01*
X76899150Y-119511418D01*
X76926326Y-119532454D01*
X76991462Y-119585910D01*
X76994939Y-119587768D01*
X77012389Y-119599072D01*
X77017456Y-119602994D01*
X77018041Y-119603447D01*
X77018044Y-119603449D01*
X77093757Y-119640588D01*
X77164652Y-119678482D01*
X77165273Y-119678814D01*
X77172477Y-119680999D01*
X77191093Y-119688333D01*
X77200729Y-119693060D01*
X77279287Y-119713400D01*
X77353868Y-119736024D01*
X77362956Y-119736918D01*
X77364926Y-119737113D01*
X77383854Y-119740474D01*
X77397711Y-119744062D01*
X77397715Y-119744063D01*
X77474133Y-119747938D01*
X77477034Y-119748154D01*
X77550000Y-119755341D01*
X77564630Y-119753899D01*
X77583056Y-119753462D01*
X77600936Y-119754369D01*
X77673253Y-119743289D01*
X77676525Y-119742879D01*
X77746132Y-119736024D01*
X77763632Y-119730714D01*
X77780837Y-119726808D01*
X77802071Y-119723556D01*
X77867515Y-119699317D01*
X77871019Y-119698138D01*
X77934727Y-119678814D01*
X77957730Y-119666517D01*
X77965421Y-119663057D01*
X77992887Y-119652886D01*
X77992891Y-119652883D01*
X77992894Y-119652882D01*
X78049238Y-119617762D01*
X78052801Y-119615701D01*
X78108538Y-119585910D01*
X78131310Y-119567220D01*
X78137840Y-119562535D01*
X78165571Y-119545252D01*
X78211288Y-119501793D01*
X78214631Y-119498839D01*
X78260883Y-119460883D01*
X78281717Y-119435495D01*
X78286915Y-119429904D01*
X78313053Y-119405059D01*
X78347143Y-119356079D01*
X78350088Y-119352185D01*
X78385910Y-119308538D01*
X78402989Y-119276582D01*
X78406770Y-119270410D01*
X78429295Y-119238049D01*
X78451504Y-119186293D01*
X78453783Y-119181554D01*
X78478814Y-119134727D01*
X78490309Y-119096828D01*
X78492656Y-119090398D01*
X78509540Y-119051058D01*
X78520196Y-118999201D01*
X78521587Y-118993723D01*
X78536024Y-118946132D01*
X78540237Y-118903345D01*
X78541202Y-118896982D01*
X78550500Y-118851741D01*
X78550500Y-118802200D01*
X78550799Y-118796119D01*
X78554829Y-118755195D01*
X78555341Y-118750000D01*
X78554641Y-118742888D01*
X78550799Y-118703878D01*
X78550500Y-118697798D01*
X78550500Y-118650003D01*
X83144659Y-118650003D01*
X83146099Y-118664630D01*
X83146537Y-118683053D01*
X83145631Y-118700931D01*
X83145631Y-118700936D01*
X83152058Y-118742888D01*
X83156703Y-118773214D01*
X83157119Y-118776524D01*
X83163975Y-118846131D01*
X83169282Y-118863626D01*
X83173189Y-118880831D01*
X83176443Y-118902068D01*
X83176445Y-118902075D01*
X83200670Y-118967483D01*
X83201860Y-118971019D01*
X83221186Y-119034728D01*
X83233478Y-119057724D01*
X83236943Y-119065426D01*
X83238352Y-119069229D01*
X83247114Y-119092887D01*
X83247115Y-119092888D01*
X83247116Y-119092892D01*
X83268124Y-119126595D01*
X83282243Y-119149247D01*
X83284299Y-119152806D01*
X83314090Y-119208538D01*
X83332776Y-119231308D01*
X83337469Y-119237850D01*
X83352271Y-119261598D01*
X83354748Y-119265571D01*
X83398194Y-119311276D01*
X83401172Y-119314647D01*
X83416678Y-119333541D01*
X83439117Y-119360883D01*
X83464502Y-119381717D01*
X83470093Y-119386914D01*
X83494941Y-119413053D01*
X83543918Y-119447143D01*
X83547810Y-119450086D01*
X83591462Y-119485910D01*
X83623223Y-119502886D01*
X83623399Y-119502980D01*
X83629585Y-119506767D01*
X83640731Y-119514525D01*
X83661950Y-119529295D01*
X83661952Y-119529296D01*
X83713683Y-119551495D01*
X83718446Y-119553784D01*
X83765273Y-119578814D01*
X83803166Y-119590308D01*
X83809599Y-119592656D01*
X83848942Y-119609540D01*
X83898231Y-119619669D01*
X83900776Y-119620192D01*
X83906296Y-119621593D01*
X83953868Y-119636024D01*
X83996644Y-119640236D01*
X84003026Y-119641204D01*
X84017700Y-119644219D01*
X84048256Y-119650500D01*
X84048259Y-119650500D01*
X84097800Y-119650500D01*
X84103881Y-119650799D01*
X84113930Y-119651788D01*
X84150000Y-119655341D01*
X84186069Y-119651788D01*
X84196119Y-119650799D01*
X84202200Y-119650500D01*
X84337284Y-119650500D01*
X84426358Y-119652757D01*
X84426358Y-119652756D01*
X84426363Y-119652757D01*
X84486753Y-119641932D01*
X84491412Y-119641280D01*
X84533607Y-119636988D01*
X84552438Y-119635074D01*
X84585227Y-119624786D01*
X84592840Y-119622918D01*
X84626653Y-119616858D01*
X84683621Y-119594101D01*
X84688053Y-119592524D01*
X84689867Y-119591955D01*
X84746588Y-119574159D01*
X84776627Y-119557484D01*
X84783708Y-119554122D01*
X84815617Y-119541377D01*
X84866854Y-119507608D01*
X84870851Y-119505187D01*
X84924502Y-119475409D01*
X84950568Y-119453030D01*
X84956843Y-119448300D01*
X84985519Y-119429402D01*
X85028917Y-119386002D01*
X85032336Y-119382834D01*
X85078895Y-119342866D01*
X85099931Y-119315688D01*
X85105101Y-119309818D01*
X86170562Y-118244357D01*
X86175064Y-118240278D01*
X86210883Y-118210883D01*
X86240203Y-118175154D01*
X86242138Y-118172910D01*
X86243334Y-118171586D01*
X86243341Y-118171580D01*
X86243347Y-118171572D01*
X86243353Y-118171566D01*
X86274557Y-118133295D01*
X86275583Y-118132045D01*
X86335910Y-118058538D01*
X86335917Y-118058523D01*
X86336055Y-118058319D01*
X86339564Y-118053571D01*
X86339698Y-118053407D01*
X86384620Y-117967407D01*
X86428814Y-117884727D01*
X86428817Y-117884714D01*
X86431612Y-117877969D01*
X86433890Y-117873094D01*
X86433908Y-117873050D01*
X86433909Y-117873049D01*
X86459724Y-117782827D01*
X86486024Y-117696132D01*
X86486024Y-117696122D01*
X86487212Y-117690159D01*
X86487451Y-117690206D01*
X86489848Y-117677635D01*
X86489884Y-117677427D01*
X86489887Y-117677418D01*
X86496771Y-117587011D01*
X86505341Y-117500000D01*
X86505306Y-117499654D01*
X86505067Y-117478064D01*
X86505126Y-117477289D01*
X86505337Y-117474523D01*
X86494284Y-117387736D01*
X86493112Y-117375841D01*
X86486024Y-117303868D01*
X86486023Y-117303866D01*
X86484879Y-117300093D01*
X86480532Y-117279758D01*
X86480136Y-117276651D01*
X86479630Y-117272672D01*
X86479629Y-117272670D01*
X86479629Y-117272667D01*
X86452353Y-117192873D01*
X86428815Y-117115276D01*
X86428815Y-117115275D01*
X86428814Y-117115273D01*
X86425262Y-117108627D01*
X86417288Y-117090285D01*
X86416888Y-117089116D01*
X86413816Y-117080127D01*
X86413814Y-117080124D01*
X86413811Y-117080117D01*
X86372640Y-117010180D01*
X86335911Y-116941464D01*
X86335909Y-116941460D01*
X86328863Y-116932875D01*
X86317857Y-116917116D01*
X86310592Y-116904775D01*
X86310590Y-116904772D01*
X86281836Y-116872946D01*
X86259287Y-116847987D01*
X86257372Y-116845763D01*
X86231284Y-116813976D01*
X86210883Y-116789117D01*
X86210881Y-116789115D01*
X86210880Y-116789114D01*
X86200128Y-116780291D01*
X86199522Y-116779793D01*
X86186189Y-116767079D01*
X86174179Y-116753786D01*
X86115218Y-116710491D01*
X86112585Y-116708445D01*
X86058539Y-116664091D01*
X86058538Y-116664090D01*
X86042413Y-116655471D01*
X86027478Y-116646062D01*
X86010172Y-116633354D01*
X86010163Y-116633348D01*
X85946767Y-116604219D01*
X85943426Y-116602561D01*
X85922672Y-116591468D01*
X85884727Y-116571186D01*
X85881424Y-116570184D01*
X85859773Y-116563616D01*
X85851876Y-116560620D01*
X85825271Y-116548395D01*
X85825264Y-116548393D01*
X85760588Y-116533384D01*
X85756606Y-116532319D01*
X85696135Y-116513976D01*
X85696128Y-116513975D01*
X85666820Y-116511088D01*
X85658876Y-116509781D01*
X85627050Y-116502396D01*
X85627052Y-116502396D01*
X85564030Y-116500799D01*
X85559524Y-116500520D01*
X85500002Y-116494659D01*
X85499995Y-116494659D01*
X85467320Y-116497876D01*
X85459670Y-116498155D01*
X85423639Y-116497243D01*
X85423627Y-116497243D01*
X85364918Y-116507766D01*
X85360057Y-116508440D01*
X85303871Y-116513975D01*
X85303865Y-116513976D01*
X85269207Y-116524489D01*
X85262147Y-116526186D01*
X85223350Y-116533141D01*
X85223343Y-116533143D01*
X85171077Y-116554020D01*
X85166076Y-116555774D01*
X85115273Y-116571185D01*
X85080361Y-116589846D01*
X85074131Y-116592744D01*
X85034384Y-116608621D01*
X84990191Y-116637746D01*
X84985299Y-116640657D01*
X84941461Y-116664090D01*
X84908246Y-116691349D01*
X84903029Y-116695192D01*
X84864485Y-116720595D01*
X84864483Y-116720596D01*
X84829449Y-116755629D01*
X84824941Y-116759715D01*
X84789116Y-116789116D01*
X84759715Y-116824941D01*
X84755627Y-116829451D01*
X83929143Y-117655935D01*
X83878587Y-117686566D01*
X83855007Y-117693965D01*
X83833283Y-117700555D01*
X83765265Y-117721188D01*
X83758515Y-117723984D01*
X83753460Y-117725820D01*
X83753413Y-117725840D01*
X83671351Y-117771387D01*
X83591461Y-117814090D01*
X83586402Y-117817471D01*
X83586268Y-117817270D01*
X83575566Y-117824542D01*
X83575504Y-117824586D01*
X83575498Y-117824590D01*
X83575498Y-117824591D01*
X83569412Y-117829816D01*
X83506694Y-117883656D01*
X83439118Y-117939114D01*
X83439109Y-117939123D01*
X83438864Y-117939423D01*
X83423821Y-117954801D01*
X83421111Y-117957128D01*
X83421106Y-117957132D01*
X83367545Y-118026326D01*
X83314094Y-118091455D01*
X83314085Y-118091469D01*
X83312224Y-118094951D01*
X83300937Y-118112374D01*
X83296555Y-118118035D01*
X83296554Y-118118037D01*
X83259412Y-118193757D01*
X83221184Y-118265275D01*
X83218998Y-118272483D01*
X83211672Y-118291079D01*
X83206943Y-118300721D01*
X83206939Y-118300731D01*
X83193941Y-118350931D01*
X83186599Y-118379287D01*
X83184949Y-118384727D01*
X83163976Y-118453866D01*
X83162885Y-118464938D01*
X83159527Y-118483848D01*
X83155937Y-118497715D01*
X83152060Y-118574123D01*
X83151841Y-118577057D01*
X83144659Y-118649995D01*
X83144659Y-118650003D01*
X78550500Y-118650003D01*
X78550500Y-118062676D01*
X78551421Y-118026326D01*
X78552756Y-117973637D01*
X78541932Y-117913247D01*
X78541282Y-117908617D01*
X78535074Y-117847562D01*
X78524790Y-117814786D01*
X78522917Y-117807154D01*
X78517917Y-117779255D01*
X78516858Y-117773347D01*
X78494102Y-117716378D01*
X78492521Y-117711937D01*
X78489992Y-117703877D01*
X78474159Y-117653412D01*
X78474158Y-117653410D01*
X78474157Y-117653407D01*
X78457488Y-117623378D01*
X78454117Y-117616278D01*
X78446405Y-117596970D01*
X78441377Y-117584383D01*
X78407620Y-117533163D01*
X78405180Y-117529134D01*
X78388731Y-117499500D01*
X78375409Y-117475498D01*
X78375407Y-117475495D01*
X78359954Y-117457495D01*
X78353030Y-117449431D01*
X78348302Y-117443159D01*
X78347184Y-117441462D01*
X78329402Y-117414481D01*
X78286012Y-117371091D01*
X78282822Y-117367648D01*
X78242867Y-117321106D01*
X78242863Y-117321102D01*
X78215698Y-117300074D01*
X78209811Y-117294890D01*
X77244360Y-116329440D01*
X77240281Y-116324939D01*
X77231822Y-116314632D01*
X77216095Y-116295468D01*
X77210885Y-116289119D01*
X77210883Y-116289117D01*
X77175124Y-116259770D01*
X77172907Y-116257860D01*
X77171593Y-116256673D01*
X77171580Y-116256660D01*
X77133422Y-116225546D01*
X77058538Y-116164090D01*
X77058532Y-116164085D01*
X77058298Y-116163929D01*
X77053573Y-116160436D01*
X77053415Y-116160307D01*
X77053405Y-116160301D01*
X76967407Y-116115379D01*
X76916276Y-116088049D01*
X76884727Y-116071186D01*
X76884726Y-116071185D01*
X76884725Y-116071185D01*
X76877967Y-116068385D01*
X76873093Y-116066108D01*
X76873052Y-116066092D01*
X76782827Y-116040275D01*
X76696138Y-116013977D01*
X76690164Y-116012789D01*
X76690210Y-116012553D01*
X76677479Y-116010124D01*
X76677414Y-116010112D01*
X76587010Y-116003228D01*
X76500001Y-115994659D01*
X76500000Y-115994659D01*
X76499634Y-115994695D01*
X76478075Y-115994933D01*
X76474527Y-115994662D01*
X76387739Y-116005715D01*
X76303868Y-116013976D01*
X76303861Y-116013977D01*
X76300076Y-116015125D01*
X76279787Y-116019462D01*
X76272677Y-116020368D01*
X76272668Y-116020370D01*
X76192877Y-116047644D01*
X76115273Y-116071186D01*
X76115265Y-116071189D01*
X76108615Y-116074743D01*
X76090298Y-116082706D01*
X76080133Y-116086181D01*
X76080131Y-116086182D01*
X76010193Y-116127351D01*
X75941464Y-116164088D01*
X75941462Y-116164089D01*
X75932860Y-116171148D01*
X75917115Y-116182143D01*
X75904776Y-116189407D01*
X75848006Y-116240696D01*
X75845775Y-116242617D01*
X75789113Y-116289120D01*
X75779789Y-116300481D01*
X75767074Y-116313815D01*
X75753791Y-116325816D01*
X75753788Y-116325819D01*
X75710496Y-116384773D01*
X75708450Y-116387407D01*
X75664094Y-116441456D01*
X75664092Y-116441459D01*
X75664090Y-116441462D01*
X75655469Y-116457590D01*
X75646063Y-116472521D01*
X75633352Y-116489830D01*
X75604216Y-116553237D01*
X75602559Y-116556575D01*
X75571184Y-116615277D01*
X75563614Y-116640229D01*
X75560621Y-116648120D01*
X75548396Y-116674729D01*
X75548393Y-116674737D01*
X75533383Y-116739415D01*
X75532318Y-116743396D01*
X75513978Y-116803857D01*
X75513975Y-116803872D01*
X75511088Y-116833181D01*
X75509781Y-116841122D01*
X75502396Y-116872945D01*
X75502396Y-116872947D01*
X75500799Y-116935968D01*
X75500520Y-116940474D01*
X75494659Y-116999997D01*
X75494659Y-117000004D01*
X70000000Y-117000004D01*
X70000000Y-110500000D01*
X60624000Y-110500000D01*
X60556961Y-110480315D01*
X60511206Y-110427511D01*
X60500000Y-110376000D01*
X60500000Y-105800003D01*
X64794435Y-105800003D01*
X64814630Y-105979249D01*
X64814631Y-105979254D01*
X64874211Y-106149523D01*
X64961180Y-106287933D01*
X64970184Y-106302262D01*
X65097738Y-106429816D01*
X65125115Y-106447018D01*
X65231677Y-106513976D01*
X65250478Y-106525789D01*
X65314305Y-106548123D01*
X65420745Y-106585368D01*
X65420750Y-106585369D01*
X65599996Y-106605565D01*
X65600000Y-106605565D01*
X65600004Y-106605565D01*
X65779249Y-106585369D01*
X65779252Y-106585368D01*
X65779255Y-106585368D01*
X65949522Y-106525789D01*
X66102262Y-106429816D01*
X66229816Y-106302262D01*
X66325789Y-106149522D01*
X66385368Y-105979255D01*
X66392001Y-105920384D01*
X66405565Y-105800003D01*
X66405565Y-105799996D01*
X66385369Y-105620750D01*
X66385368Y-105620745D01*
X66362459Y-105555275D01*
X66325789Y-105450478D01*
X66324285Y-105448085D01*
X66286582Y-105388080D01*
X66229816Y-105297738D01*
X66102262Y-105170184D01*
X65999422Y-105105565D01*
X65949523Y-105074211D01*
X65779254Y-105014631D01*
X65779249Y-105014630D01*
X65600004Y-104994435D01*
X65599996Y-104994435D01*
X65420750Y-105014630D01*
X65420745Y-105014631D01*
X65250476Y-105074211D01*
X65097737Y-105170184D01*
X64970184Y-105297737D01*
X64874211Y-105450476D01*
X64814631Y-105620745D01*
X64814630Y-105620750D01*
X64794435Y-105799996D01*
X64794435Y-105800003D01*
X60500000Y-105800003D01*
X60500000Y-102400003D01*
X66694435Y-102400003D01*
X66714630Y-102579249D01*
X66714631Y-102579254D01*
X66774211Y-102749523D01*
X66866085Y-102895738D01*
X66870184Y-102902262D01*
X66997738Y-103029816D01*
X67088080Y-103086582D01*
X67148464Y-103124524D01*
X67150478Y-103125789D01*
X67234930Y-103155340D01*
X67320745Y-103185368D01*
X67320750Y-103185369D01*
X67499996Y-103205565D01*
X67500000Y-103205565D01*
X67500004Y-103205565D01*
X67679249Y-103185369D01*
X67679252Y-103185368D01*
X67679255Y-103185368D01*
X67849522Y-103125789D01*
X68002262Y-103029816D01*
X68129816Y-102902262D01*
X68225789Y-102749522D01*
X68285368Y-102579255D01*
X68285593Y-102577262D01*
X68305565Y-102400003D01*
X68305565Y-102399996D01*
X68285369Y-102220750D01*
X68285368Y-102220745D01*
X68250326Y-102120602D01*
X68225789Y-102050478D01*
X68212643Y-102029557D01*
X68133110Y-101902981D01*
X68129816Y-101897738D01*
X68002262Y-101770184D01*
X67931608Y-101725789D01*
X67849523Y-101674211D01*
X67679254Y-101614631D01*
X67679249Y-101614630D01*
X67500004Y-101594435D01*
X67499996Y-101594435D01*
X67320750Y-101614630D01*
X67320745Y-101614631D01*
X67150476Y-101674211D01*
X66997737Y-101770184D01*
X66870184Y-101897737D01*
X66774211Y-102050476D01*
X66714631Y-102220745D01*
X66714630Y-102220750D01*
X66694435Y-102399996D01*
X66694435Y-102400003D01*
X60500000Y-102400003D01*
X60500000Y-101000003D01*
X63294435Y-101000003D01*
X63314630Y-101179249D01*
X63314631Y-101179254D01*
X63374211Y-101349523D01*
X63430507Y-101439117D01*
X63470184Y-101502262D01*
X63597738Y-101629816D01*
X63614277Y-101640208D01*
X63749979Y-101725476D01*
X63750478Y-101725789D01*
X63858567Y-101763611D01*
X63920745Y-101785368D01*
X63920750Y-101785369D01*
X64099996Y-101805565D01*
X64100000Y-101805565D01*
X64100004Y-101805565D01*
X64279249Y-101785369D01*
X64279252Y-101785368D01*
X64279255Y-101785368D01*
X64449522Y-101725789D01*
X64602262Y-101629816D01*
X64729816Y-101502262D01*
X64825789Y-101349522D01*
X64885368Y-101179255D01*
X64887689Y-101158654D01*
X64905565Y-101000003D01*
X64905565Y-100999996D01*
X64885369Y-100820750D01*
X64885368Y-100820745D01*
X64879819Y-100804888D01*
X64825789Y-100650478D01*
X64810966Y-100626888D01*
X64773033Y-100566517D01*
X64729816Y-100497738D01*
X64602262Y-100370184D01*
X64549162Y-100336819D01*
X64449523Y-100274211D01*
X64279254Y-100214631D01*
X64279249Y-100214630D01*
X64100004Y-100194435D01*
X64099996Y-100194435D01*
X63920750Y-100214630D01*
X63920745Y-100214631D01*
X63750476Y-100274211D01*
X63597737Y-100370184D01*
X63470184Y-100497737D01*
X63374211Y-100650476D01*
X63314631Y-100820745D01*
X63314630Y-100820750D01*
X63294435Y-100999996D01*
X63294435Y-101000003D01*
X60500000Y-101000003D01*
X60500000Y-99500005D01*
X74244357Y-99500005D01*
X74264890Y-99747812D01*
X74264892Y-99747824D01*
X74325936Y-99988881D01*
X74425826Y-100216606D01*
X74561833Y-100424782D01*
X74561835Y-100424784D01*
X74561836Y-100424785D01*
X74730256Y-100607738D01*
X74926491Y-100760474D01*
X75145190Y-100878828D01*
X75380386Y-100959571D01*
X75625665Y-101000500D01*
X75874335Y-101000500D01*
X76119614Y-100959571D01*
X76354810Y-100878828D01*
X76573509Y-100760474D01*
X76769744Y-100607738D01*
X76938164Y-100424785D01*
X77074173Y-100216607D01*
X77174063Y-99988881D01*
X77235108Y-99747821D01*
X77237017Y-99724783D01*
X77255643Y-99500005D01*
X81244357Y-99500005D01*
X81264890Y-99747812D01*
X81264892Y-99747824D01*
X81325936Y-99988881D01*
X81425826Y-100216606D01*
X81561833Y-100424782D01*
X81561835Y-100424784D01*
X81561836Y-100424785D01*
X81730256Y-100607738D01*
X81926491Y-100760474D01*
X82145190Y-100878828D01*
X82380386Y-100959571D01*
X82625665Y-101000500D01*
X82874335Y-101000500D01*
X83119614Y-100959571D01*
X83354810Y-100878828D01*
X83573509Y-100760474D01*
X83769744Y-100607738D01*
X83938164Y-100424785D01*
X84074173Y-100216607D01*
X84174063Y-99988881D01*
X84235108Y-99747821D01*
X84237017Y-99724783D01*
X84255643Y-99500005D01*
X84255643Y-99499994D01*
X84235109Y-99252187D01*
X84235107Y-99252175D01*
X84174063Y-99011118D01*
X84074173Y-98783393D01*
X83938166Y-98575217D01*
X83926201Y-98562220D01*
X85495642Y-98562220D01*
X85499023Y-98589342D01*
X85499500Y-98597018D01*
X85499500Y-100602981D01*
X85499024Y-100610651D01*
X85495643Y-100637779D01*
X85499500Y-100731035D01*
X85499500Y-100762067D01*
X85500530Y-100774500D01*
X85502062Y-100792990D01*
X85505918Y-100886233D01*
X85511526Y-100912983D01*
X85512635Y-100920590D01*
X85514891Y-100947818D01*
X85514891Y-100947819D01*
X85531054Y-101011643D01*
X85537801Y-101038288D01*
X85556951Y-101129614D01*
X85556952Y-101129616D01*
X85566882Y-101155067D01*
X85569227Y-101162387D01*
X85573753Y-101180260D01*
X85575937Y-101188881D01*
X85600070Y-101243899D01*
X85613420Y-101274335D01*
X85647344Y-101361275D01*
X85661332Y-101384750D01*
X85664852Y-101391588D01*
X85675825Y-101416604D01*
X85675827Y-101416607D01*
X85726860Y-101494720D01*
X85774634Y-101574894D01*
X85792296Y-101595747D01*
X85796887Y-101601904D01*
X85811836Y-101624785D01*
X85816467Y-101629816D01*
X85875033Y-101693435D01*
X85895100Y-101717129D01*
X85917049Y-101739078D01*
X85980257Y-101807739D01*
X86001822Y-101824524D01*
X86007587Y-101829615D01*
X88575710Y-104397738D01*
X91113181Y-106935208D01*
X91146666Y-106996531D01*
X91149500Y-107022889D01*
X91149500Y-109177109D01*
X91129815Y-109244148D01*
X91113181Y-109264790D01*
X87407588Y-112970382D01*
X87401827Y-112975471D01*
X87380256Y-112992262D01*
X87317049Y-113060922D01*
X87295102Y-113082869D01*
X87295098Y-113082874D01*
X87275033Y-113106564D01*
X87261421Y-113121351D01*
X87211834Y-113175216D01*
X87196892Y-113198087D01*
X87192297Y-113204250D01*
X87174635Y-113225104D01*
X87126860Y-113305278D01*
X87075828Y-113383390D01*
X87075824Y-113383397D01*
X87064853Y-113408409D01*
X87061335Y-113415244D01*
X87047348Y-113438717D01*
X87047343Y-113438726D01*
X87013420Y-113525663D01*
X86975935Y-113611123D01*
X86969226Y-113637616D01*
X86966881Y-113644935D01*
X86956953Y-113670379D01*
X86956948Y-113670395D01*
X86937801Y-113761711D01*
X86914892Y-113852175D01*
X86914890Y-113852185D01*
X86912635Y-113879408D01*
X86911526Y-113887016D01*
X86905920Y-113913750D01*
X86905919Y-113913763D01*
X86902062Y-114007009D01*
X86894545Y-114097738D01*
X86894357Y-114100004D01*
X86896612Y-114127235D01*
X86896771Y-114134919D01*
X86895642Y-114162215D01*
X86895643Y-114162219D01*
X86895643Y-114162221D01*
X86899259Y-114191233D01*
X86907186Y-114254832D01*
X86914891Y-114347821D01*
X86914891Y-114347822D01*
X86921598Y-114374305D01*
X86923020Y-114381860D01*
X86926400Y-114408974D01*
X86926401Y-114408981D01*
X86953033Y-114498436D01*
X86975934Y-114588874D01*
X86975937Y-114588880D01*
X86986913Y-114613906D01*
X86989558Y-114621123D01*
X86997355Y-114647311D01*
X86997356Y-114647313D01*
X87038347Y-114731163D01*
X87075825Y-114816605D01*
X87090766Y-114839473D01*
X87094565Y-114846158D01*
X87106569Y-114870712D01*
X87106570Y-114870715D01*
X87132484Y-114907009D01*
X87160799Y-114946666D01*
X87211836Y-115024785D01*
X87217620Y-115031068D01*
X87230343Y-115044889D01*
X87235191Y-115050859D01*
X87251067Y-115073096D01*
X87317049Y-115139078D01*
X87348653Y-115173408D01*
X87380256Y-115207738D01*
X87395251Y-115219409D01*
X87401821Y-115224523D01*
X87407579Y-115229607D01*
X87426904Y-115248932D01*
X87486100Y-115291197D01*
X87502845Y-115303153D01*
X87576482Y-115360468D01*
X87576486Y-115360470D01*
X87576491Y-115360474D01*
X87600519Y-115373477D01*
X87607039Y-115377546D01*
X87629284Y-115393429D01*
X87672656Y-115414632D01*
X87713119Y-115434413D01*
X87795179Y-115478823D01*
X87795185Y-115478825D01*
X87795190Y-115478828D01*
X87821046Y-115487704D01*
X87828137Y-115490642D01*
X87852687Y-115502644D01*
X87942127Y-115529271D01*
X88030386Y-115559571D01*
X88053792Y-115563476D01*
X88057328Y-115564066D01*
X88064825Y-115565800D01*
X88091019Y-115573599D01*
X88183638Y-115585143D01*
X88275665Y-115600500D01*
X88302981Y-115600500D01*
X88310652Y-115600975D01*
X88337779Y-115604357D01*
X88431035Y-115600500D01*
X88524335Y-115600500D01*
X88551294Y-115596000D01*
X88558918Y-115595210D01*
X88586237Y-115594081D01*
X88677567Y-115574930D01*
X88769614Y-115559571D01*
X88795474Y-115550692D01*
X88802873Y-115548655D01*
X88829614Y-115543049D01*
X88916531Y-115509134D01*
X88975593Y-115488857D01*
X89045392Y-115485708D01*
X89103537Y-115518458D01*
X93058566Y-119473487D01*
X93119941Y-119538053D01*
X93119944Y-119538055D01*
X93119947Y-119538058D01*
X93170284Y-119573092D01*
X93174041Y-119575925D01*
X93221592Y-119614698D01*
X93252041Y-119630603D01*
X93258759Y-119634672D01*
X93286951Y-119654295D01*
X93286952Y-119654295D01*
X93286953Y-119654296D01*
X93286954Y-119654297D01*
X93307357Y-119663052D01*
X93343336Y-119678491D01*
X93347574Y-119680505D01*
X93386854Y-119701023D01*
X93401951Y-119708909D01*
X93434973Y-119718356D01*
X93442365Y-119720989D01*
X93473940Y-119734539D01*
X93473941Y-119734540D01*
X93486463Y-119737113D01*
X93534055Y-119746892D01*
X93538595Y-119748006D01*
X93597582Y-119764886D01*
X93631841Y-119767494D01*
X93639609Y-119768585D01*
X93673255Y-119775500D01*
X93673259Y-119775500D01*
X93734601Y-119775500D01*
X93739308Y-119775678D01*
X93775651Y-119778446D01*
X93800475Y-119780337D01*
X93800475Y-119780336D01*
X93800476Y-119780337D01*
X93834559Y-119775996D01*
X93842389Y-119775500D01*
X94122800Y-119775500D01*
X94128881Y-119775799D01*
X94138930Y-119776788D01*
X94175000Y-119780341D01*
X94206510Y-119777237D01*
X94220999Y-119775811D01*
X94223941Y-119775591D01*
X94225723Y-119775500D01*
X94225742Y-119775500D01*
X94274663Y-119770525D01*
X94371132Y-119761024D01*
X94371150Y-119761018D01*
X94371391Y-119760971D01*
X94377230Y-119760095D01*
X94377438Y-119760074D01*
X94469992Y-119731034D01*
X94523095Y-119714926D01*
X94559724Y-119703815D01*
X94559724Y-119703814D01*
X94559727Y-119703814D01*
X94559729Y-119703812D01*
X94566463Y-119701023D01*
X94571533Y-119699181D01*
X94571576Y-119699162D01*
X94571588Y-119699159D01*
X94653648Y-119653612D01*
X94733538Y-119610910D01*
X94733544Y-119610904D01*
X94738604Y-119607525D01*
X94738740Y-119607729D01*
X94749215Y-119600608D01*
X94749494Y-119600412D01*
X94749502Y-119600409D01*
X94818304Y-119541343D01*
X94885883Y-119485883D01*
X94886103Y-119485614D01*
X94901198Y-119470180D01*
X94903895Y-119467866D01*
X94957454Y-119398673D01*
X95010910Y-119333538D01*
X95012766Y-119330063D01*
X95024076Y-119312605D01*
X95025232Y-119311112D01*
X95028448Y-119306958D01*
X95040670Y-119282040D01*
X95065588Y-119231242D01*
X95096751Y-119172940D01*
X95103814Y-119159727D01*
X95106000Y-119152517D01*
X95113330Y-119133912D01*
X95118060Y-119124271D01*
X95138400Y-119045712D01*
X95161024Y-118971132D01*
X95162113Y-118960065D01*
X95165473Y-118941148D01*
X95169063Y-118927285D01*
X95172938Y-118850861D01*
X95173154Y-118847967D01*
X95180341Y-118775000D01*
X95178899Y-118760369D01*
X95178462Y-118741937D01*
X95179369Y-118724064D01*
X95168291Y-118651754D01*
X95167878Y-118648464D01*
X95166642Y-118635910D01*
X95161024Y-118578868D01*
X95155713Y-118561361D01*
X95151809Y-118544167D01*
X95148556Y-118522929D01*
X95124320Y-118457494D01*
X95123135Y-118453969D01*
X95103814Y-118390273D01*
X95091518Y-118367270D01*
X95088055Y-118359572D01*
X95087672Y-118358539D01*
X95077886Y-118332113D01*
X95057872Y-118300003D01*
X100794659Y-118300003D01*
X100796099Y-118314630D01*
X100796537Y-118333053D01*
X100795654Y-118350478D01*
X100795631Y-118350936D01*
X100803147Y-118400000D01*
X100806703Y-118423214D01*
X100807119Y-118426524D01*
X100813975Y-118496131D01*
X100819282Y-118513626D01*
X100823189Y-118530831D01*
X100826443Y-118552068D01*
X100826445Y-118552075D01*
X100850670Y-118617483D01*
X100851860Y-118621019D01*
X100871186Y-118684728D01*
X100883478Y-118707724D01*
X100886943Y-118715426D01*
X100888338Y-118719192D01*
X100897114Y-118742887D01*
X100897115Y-118742888D01*
X100897116Y-118742892D01*
X100916638Y-118774211D01*
X100932243Y-118799247D01*
X100934299Y-118802806D01*
X100964090Y-118858538D01*
X100982776Y-118881308D01*
X100987469Y-118887850D01*
X101004657Y-118915426D01*
X101004748Y-118915571D01*
X101048194Y-118961276D01*
X101051172Y-118964647D01*
X101054942Y-118969241D01*
X101089117Y-119010883D01*
X101114502Y-119031717D01*
X101120093Y-119036914D01*
X101144941Y-119063053D01*
X101193918Y-119097143D01*
X101197810Y-119100086D01*
X101241462Y-119135910D01*
X101273073Y-119152806D01*
X101273399Y-119152980D01*
X101279585Y-119156767D01*
X101299563Y-119170673D01*
X101311950Y-119179295D01*
X101311952Y-119179296D01*
X101363683Y-119201495D01*
X101368446Y-119203784D01*
X101415273Y-119228814D01*
X101453166Y-119240308D01*
X101459599Y-119242656D01*
X101498942Y-119259540D01*
X101549569Y-119269944D01*
X101550776Y-119270192D01*
X101556296Y-119271593D01*
X101603868Y-119286024D01*
X101646644Y-119290236D01*
X101653026Y-119291204D01*
X101667700Y-119294219D01*
X101698256Y-119300500D01*
X101698259Y-119300500D01*
X101747800Y-119300500D01*
X101753881Y-119300799D01*
X101763930Y-119301788D01*
X101800000Y-119305341D01*
X101836069Y-119301788D01*
X101846119Y-119300799D01*
X101852200Y-119300500D01*
X103187284Y-119300500D01*
X103276358Y-119302757D01*
X103276358Y-119302756D01*
X103276363Y-119302757D01*
X103336753Y-119291932D01*
X103341412Y-119291280D01*
X103384127Y-119286936D01*
X103402438Y-119285074D01*
X103435227Y-119274786D01*
X103442840Y-119272918D01*
X103476653Y-119266858D01*
X103533621Y-119244101D01*
X103538053Y-119242524D01*
X103596588Y-119224159D01*
X103626627Y-119207484D01*
X103633708Y-119204122D01*
X103665617Y-119191377D01*
X103716854Y-119157608D01*
X103720851Y-119155187D01*
X103774502Y-119125409D01*
X103800568Y-119103030D01*
X103806843Y-119098300D01*
X103835519Y-119079402D01*
X103878885Y-119036034D01*
X103882343Y-119032830D01*
X103917316Y-119002806D01*
X103928895Y-118992866D01*
X103949924Y-118965696D01*
X103955104Y-118959814D01*
X104170561Y-118744357D01*
X104175040Y-118740297D01*
X104210883Y-118710883D01*
X104240223Y-118675130D01*
X104242144Y-118672902D01*
X104243324Y-118671595D01*
X104243340Y-118671580D01*
X104274453Y-118633422D01*
X104335910Y-118558538D01*
X104335917Y-118558523D01*
X104336055Y-118558319D01*
X104339564Y-118553571D01*
X104339698Y-118553407D01*
X104363468Y-118507900D01*
X104411951Y-118457596D01*
X104479939Y-118441488D01*
X104545842Y-118464693D01*
X104569228Y-118486649D01*
X104589116Y-118510883D01*
X104741460Y-118635909D01*
X104741467Y-118635913D01*
X104915266Y-118728811D01*
X104915269Y-118728811D01*
X104915273Y-118728814D01*
X105103868Y-118786024D01*
X105300000Y-118805341D01*
X105496132Y-118786024D01*
X105684727Y-118728814D01*
X105690202Y-118725888D01*
X105794416Y-118670184D01*
X105858538Y-118635910D01*
X106010883Y-118510883D01*
X106135910Y-118358538D01*
X106220375Y-118200516D01*
X106228811Y-118184733D01*
X106228811Y-118184732D01*
X106228814Y-118184727D01*
X106286024Y-117996132D01*
X106305341Y-117800000D01*
X106286024Y-117603868D01*
X106228814Y-117415273D01*
X106228811Y-117415269D01*
X106228811Y-117415266D01*
X106135913Y-117241467D01*
X106135909Y-117241460D01*
X106010883Y-117089116D01*
X105858539Y-116964090D01*
X105858532Y-116964086D01*
X105684733Y-116871188D01*
X105684727Y-116871186D01*
X105536267Y-116826151D01*
X105496129Y-116813975D01*
X105300000Y-116794659D01*
X105103870Y-116813975D01*
X104915266Y-116871188D01*
X104741467Y-116964086D01*
X104741460Y-116964090D01*
X104589116Y-117089116D01*
X104464090Y-117241460D01*
X104464085Y-117241468D01*
X104436274Y-117293498D01*
X104387311Y-117343342D01*
X104319173Y-117358801D01*
X104253494Y-117334968D01*
X104231064Y-117313708D01*
X104219328Y-117299408D01*
X104210883Y-117289117D01*
X104209920Y-117288327D01*
X104204934Y-117284235D01*
X104199520Y-117279791D01*
X104186186Y-117267077D01*
X104174179Y-117253787D01*
X104174178Y-117253786D01*
X104174176Y-117253784D01*
X104174173Y-117253782D01*
X104115233Y-117210501D01*
X104112596Y-117208454D01*
X104058541Y-117164092D01*
X104058539Y-117164091D01*
X104058538Y-117164090D01*
X104042413Y-117155471D01*
X104027478Y-117146062D01*
X104010174Y-117133355D01*
X104010169Y-117133352D01*
X104010167Y-117133351D01*
X103964013Y-117112144D01*
X103946775Y-117104223D01*
X103943436Y-117102565D01*
X103901464Y-117080132D01*
X103884727Y-117071186D01*
X103884724Y-117071185D01*
X103884722Y-117071184D01*
X103859769Y-117063614D01*
X103851874Y-117060619D01*
X103825272Y-117048396D01*
X103825262Y-117048393D01*
X103760595Y-117033386D01*
X103756613Y-117032322D01*
X103696136Y-117013977D01*
X103696128Y-117013975D01*
X103666811Y-117011087D01*
X103658866Y-117009780D01*
X103627051Y-117002397D01*
X103564039Y-117000800D01*
X103559534Y-117000521D01*
X103500002Y-116994659D01*
X103499995Y-116994659D01*
X103467319Y-116997876D01*
X103459669Y-116998155D01*
X103423640Y-116997243D01*
X103423639Y-116997243D01*
X103423637Y-116997243D01*
X103423635Y-116997243D01*
X103423625Y-116997244D01*
X103364917Y-117007766D01*
X103360057Y-117008440D01*
X103303870Y-117013975D01*
X103303862Y-117013977D01*
X103269206Y-117024490D01*
X103262142Y-117026188D01*
X103223350Y-117033141D01*
X103223341Y-117033143D01*
X103171070Y-117054022D01*
X103166070Y-117055775D01*
X103115272Y-117071186D01*
X103080354Y-117089848D01*
X103074126Y-117092746D01*
X103034383Y-117108623D01*
X103034374Y-117108627D01*
X102990193Y-117137744D01*
X102985302Y-117140655D01*
X102941465Y-117164087D01*
X102908252Y-117191343D01*
X102903037Y-117195186D01*
X102864486Y-117220593D01*
X102864481Y-117220596D01*
X102829449Y-117255629D01*
X102824940Y-117259716D01*
X102810763Y-117271351D01*
X102746454Y-117298666D01*
X102732096Y-117299500D01*
X101852200Y-117299500D01*
X101846119Y-117299201D01*
X101800000Y-117294659D01*
X101754001Y-117299189D01*
X101751062Y-117299408D01*
X101749260Y-117299499D01*
X101700336Y-117304474D01*
X101603860Y-117313976D01*
X101603558Y-117314037D01*
X101597767Y-117314904D01*
X101597576Y-117314923D01*
X101597551Y-117314928D01*
X101505007Y-117343965D01*
X101415271Y-117371185D01*
X101408515Y-117373984D01*
X101403460Y-117375820D01*
X101403413Y-117375840D01*
X101321351Y-117421387D01*
X101241461Y-117464090D01*
X101236402Y-117467471D01*
X101236268Y-117467270D01*
X101225566Y-117474542D01*
X101225504Y-117474586D01*
X101225498Y-117474590D01*
X101225498Y-117474591D01*
X101220065Y-117479255D01*
X101156694Y-117533656D01*
X101089118Y-117589114D01*
X101089109Y-117589123D01*
X101088864Y-117589423D01*
X101073821Y-117604801D01*
X101071111Y-117607128D01*
X101071106Y-117607132D01*
X101017545Y-117676326D01*
X100964094Y-117741455D01*
X100964085Y-117741469D01*
X100962224Y-117744951D01*
X100950937Y-117762374D01*
X100946555Y-117768035D01*
X100946554Y-117768037D01*
X100909412Y-117843757D01*
X100871184Y-117915275D01*
X100868998Y-117922483D01*
X100861672Y-117941079D01*
X100856943Y-117950721D01*
X100856939Y-117950731D01*
X100836599Y-118029288D01*
X100813976Y-118103866D01*
X100812885Y-118114938D01*
X100809527Y-118133848D01*
X100805937Y-118147715D01*
X100802060Y-118224123D01*
X100801841Y-118227057D01*
X100794659Y-118299995D01*
X100794659Y-118300003D01*
X95057872Y-118300003D01*
X95042756Y-118275751D01*
X95040702Y-118272199D01*
X95015005Y-118224123D01*
X95010911Y-118216463D01*
X95010909Y-118216460D01*
X94992225Y-118193694D01*
X94987534Y-118187156D01*
X94970252Y-118159429D01*
X94926802Y-118113720D01*
X94923840Y-118110368D01*
X94885883Y-118064117D01*
X94885881Y-118064115D01*
X94885880Y-118064114D01*
X94860500Y-118043285D01*
X94854894Y-118038073D01*
X94830059Y-118011947D01*
X94807337Y-117996132D01*
X94781090Y-117977863D01*
X94777184Y-117974909D01*
X94733538Y-117939090D01*
X94733535Y-117939088D01*
X94733531Y-117939085D01*
X94701602Y-117922019D01*
X94695406Y-117918225D01*
X94663051Y-117895706D01*
X94641268Y-117886358D01*
X94626772Y-117880137D01*
X94611328Y-117873509D01*
X94606552Y-117871213D01*
X94559727Y-117846186D01*
X94559721Y-117846183D01*
X94521841Y-117834692D01*
X94515388Y-117832337D01*
X94476061Y-117815461D01*
X94476059Y-117815460D01*
X94476058Y-117815460D01*
X94424218Y-117804806D01*
X94418708Y-117803407D01*
X94371139Y-117788977D01*
X94371128Y-117788975D01*
X94328368Y-117784763D01*
X94321962Y-117783792D01*
X94276743Y-117774500D01*
X94276741Y-117774500D01*
X94240783Y-117774500D01*
X94173744Y-117754815D01*
X94153102Y-117738181D01*
X92964425Y-116549504D01*
X108490215Y-116549504D01*
X108493432Y-116582177D01*
X108493711Y-116589828D01*
X108492799Y-116625860D01*
X108492799Y-116625872D01*
X108503322Y-116684581D01*
X108503996Y-116689442D01*
X108509531Y-116745629D01*
X108509532Y-116745632D01*
X108520045Y-116780291D01*
X108521744Y-116787356D01*
X108528696Y-116826148D01*
X108528697Y-116826151D01*
X108528698Y-116826153D01*
X108547389Y-116872947D01*
X108549577Y-116878423D01*
X108551328Y-116883416D01*
X108557113Y-116902484D01*
X108566742Y-116934228D01*
X108585405Y-116969146D01*
X108588304Y-116975377D01*
X108603985Y-117014632D01*
X108604179Y-117015117D01*
X108618267Y-117036493D01*
X108633301Y-117059304D01*
X108636212Y-117064195D01*
X108659646Y-117108038D01*
X108670074Y-117120745D01*
X108686904Y-117141252D01*
X108690748Y-117146470D01*
X108716156Y-117185022D01*
X108751187Y-117220053D01*
X108755276Y-117224564D01*
X108775918Y-117249715D01*
X108780771Y-117255629D01*
X108784674Y-117260384D01*
X108798037Y-117271351D01*
X108819685Y-117289117D01*
X108820491Y-117289778D01*
X108824992Y-117293857D01*
X109264792Y-117733656D01*
X109663181Y-118132045D01*
X109696666Y-118193368D01*
X109699500Y-118219726D01*
X109699500Y-118547798D01*
X109699201Y-118553878D01*
X109694659Y-118599999D01*
X109694659Y-118600000D01*
X109699189Y-118645999D01*
X109699408Y-118648938D01*
X109699499Y-118650736D01*
X109701733Y-118672704D01*
X109704474Y-118699663D01*
X109712980Y-118786024D01*
X109713976Y-118796130D01*
X109714034Y-118796419D01*
X109714904Y-118802228D01*
X109714924Y-118802429D01*
X109714927Y-118802444D01*
X109743965Y-118894992D01*
X109771184Y-118984722D01*
X109773980Y-118991473D01*
X109775816Y-118996528D01*
X109775844Y-118996595D01*
X109809773Y-119057724D01*
X109821387Y-119078648D01*
X109864089Y-119158537D01*
X109867474Y-119163602D01*
X109867271Y-119163737D01*
X109874454Y-119174304D01*
X109874593Y-119174505D01*
X109933656Y-119243305D01*
X109989117Y-119310884D01*
X109989395Y-119311112D01*
X110004810Y-119326188D01*
X110007134Y-119328895D01*
X110007138Y-119328898D01*
X110007140Y-119328900D01*
X110034734Y-119350259D01*
X110076326Y-119382454D01*
X110141462Y-119435910D01*
X110144939Y-119437768D01*
X110162392Y-119449074D01*
X110168041Y-119453447D01*
X110168044Y-119453449D01*
X110243757Y-119490588D01*
X110315271Y-119528813D01*
X110315273Y-119528814D01*
X110322477Y-119530999D01*
X110341093Y-119538333D01*
X110350729Y-119543060D01*
X110429287Y-119563400D01*
X110503868Y-119586024D01*
X110512956Y-119586918D01*
X110514926Y-119587113D01*
X110533854Y-119590474D01*
X110547711Y-119594062D01*
X110547715Y-119594063D01*
X110624133Y-119597938D01*
X110627034Y-119598154D01*
X110700000Y-119605341D01*
X110714630Y-119603899D01*
X110733056Y-119603462D01*
X110750936Y-119604369D01*
X110823253Y-119593289D01*
X110826525Y-119592879D01*
X110896132Y-119586024D01*
X110913632Y-119580714D01*
X110930837Y-119576808D01*
X110952071Y-119573556D01*
X111017515Y-119549317D01*
X111021019Y-119548138D01*
X111084727Y-119528814D01*
X111107730Y-119516517D01*
X111115421Y-119513057D01*
X111142887Y-119502886D01*
X111142891Y-119502883D01*
X111142894Y-119502882D01*
X111199238Y-119467762D01*
X111202801Y-119465701D01*
X111258538Y-119435910D01*
X111281310Y-119417220D01*
X111287840Y-119412535D01*
X111315571Y-119395252D01*
X111361288Y-119351793D01*
X111364631Y-119348839D01*
X111410883Y-119310883D01*
X111431717Y-119285495D01*
X111436915Y-119279904D01*
X111463053Y-119255059D01*
X111497143Y-119206079D01*
X111500088Y-119202185D01*
X111535910Y-119158538D01*
X111552989Y-119126582D01*
X111556770Y-119120410D01*
X111579295Y-119088049D01*
X111601504Y-119036293D01*
X111603783Y-119031554D01*
X111628814Y-118984727D01*
X111640309Y-118946828D01*
X111642656Y-118940398D01*
X111659540Y-118901058D01*
X111670196Y-118849201D01*
X111671587Y-118843723D01*
X111686024Y-118796132D01*
X111690237Y-118753345D01*
X111691202Y-118746982D01*
X111700500Y-118701741D01*
X111700500Y-118652200D01*
X111700799Y-118646119D01*
X111705341Y-118599999D01*
X111700799Y-118553878D01*
X111700500Y-118547798D01*
X111700500Y-118500003D01*
X116294659Y-118500003D01*
X116296099Y-118514630D01*
X116296537Y-118533053D01*
X116295631Y-118550931D01*
X116295631Y-118550936D01*
X116302684Y-118596978D01*
X116306703Y-118623214D01*
X116307119Y-118626524D01*
X116313975Y-118696131D01*
X116319282Y-118713626D01*
X116323189Y-118730831D01*
X116326443Y-118752068D01*
X116326445Y-118752075D01*
X116350670Y-118817483D01*
X116351860Y-118821019D01*
X116371186Y-118884728D01*
X116383478Y-118907724D01*
X116386943Y-118915426D01*
X116391336Y-118927285D01*
X116397114Y-118942887D01*
X116397115Y-118942888D01*
X116397116Y-118942892D01*
X116414722Y-118971137D01*
X116432243Y-118999247D01*
X116434299Y-119002806D01*
X116464090Y-119058538D01*
X116482776Y-119081308D01*
X116487469Y-119087850D01*
X116487592Y-119088048D01*
X116504748Y-119115571D01*
X116548194Y-119161276D01*
X116551172Y-119164647D01*
X116559097Y-119174304D01*
X116589117Y-119210883D01*
X116614502Y-119231717D01*
X116620093Y-119236914D01*
X116644941Y-119263053D01*
X116693918Y-119297143D01*
X116697810Y-119300086D01*
X116741462Y-119335910D01*
X116765627Y-119348826D01*
X116773399Y-119352980D01*
X116779585Y-119356767D01*
X116798095Y-119369651D01*
X116811950Y-119379295D01*
X116811952Y-119379296D01*
X116863683Y-119401495D01*
X116868446Y-119403784D01*
X116915273Y-119428814D01*
X116953166Y-119440308D01*
X116959599Y-119442656D01*
X116998942Y-119459540D01*
X117050688Y-119470174D01*
X117050776Y-119470192D01*
X117056295Y-119471593D01*
X117082608Y-119479575D01*
X117103868Y-119486024D01*
X117146644Y-119490236D01*
X117153026Y-119491204D01*
X117167700Y-119494219D01*
X117198256Y-119500500D01*
X117198259Y-119500500D01*
X117247800Y-119500500D01*
X117253881Y-119500799D01*
X117263930Y-119501788D01*
X117300000Y-119505341D01*
X117336069Y-119501788D01*
X117346119Y-119500799D01*
X117352200Y-119500500D01*
X120510868Y-119500500D01*
X120544979Y-119505284D01*
X120592172Y-119518787D01*
X120678868Y-119545087D01*
X120684842Y-119546276D01*
X120684794Y-119546514D01*
X120697365Y-119548911D01*
X120697580Y-119548949D01*
X120697582Y-119548950D01*
X120717649Y-119550478D01*
X120787987Y-119555834D01*
X120800150Y-119557031D01*
X120875000Y-119564404D01*
X120875346Y-119564369D01*
X120896921Y-119564129D01*
X120900477Y-119564400D01*
X120987263Y-119553347D01*
X121071132Y-119545087D01*
X121074896Y-119543944D01*
X121095228Y-119539597D01*
X121102328Y-119538693D01*
X121124846Y-119530996D01*
X121182122Y-119511419D01*
X121233285Y-119495898D01*
X121259727Y-119487877D01*
X121266372Y-119484324D01*
X121284712Y-119476351D01*
X121294872Y-119472879D01*
X121336626Y-119448300D01*
X121364814Y-119431707D01*
X121400687Y-119412532D01*
X121433538Y-119394973D01*
X121442125Y-119387924D01*
X121457883Y-119376919D01*
X121470227Y-119369654D01*
X121527019Y-119318343D01*
X121529233Y-119316437D01*
X121530052Y-119315765D01*
X121585883Y-119269946D01*
X121595203Y-119258588D01*
X121607925Y-119245246D01*
X121621214Y-119233242D01*
X121664531Y-119174249D01*
X121666520Y-119171688D01*
X121710910Y-119117601D01*
X121719527Y-119101477D01*
X121728933Y-119086545D01*
X121741649Y-119069230D01*
X121770786Y-119005814D01*
X121772435Y-119002494D01*
X121773238Y-119000993D01*
X121799188Y-118952444D01*
X121803812Y-118943794D01*
X121803814Y-118943789D01*
X121803887Y-118943550D01*
X121811383Y-118918836D01*
X121814381Y-118910934D01*
X121818919Y-118901058D01*
X121826605Y-118884332D01*
X121841623Y-118819610D01*
X121842669Y-118815697D01*
X121861024Y-118755195D01*
X121863911Y-118725869D01*
X121865216Y-118717944D01*
X121872603Y-118686117D01*
X121874200Y-118623081D01*
X121874478Y-118618589D01*
X121875761Y-118605565D01*
X121880341Y-118559063D01*
X121877122Y-118526385D01*
X121876843Y-118518726D01*
X121876973Y-118513626D01*
X121877757Y-118482700D01*
X121867229Y-118423966D01*
X121866557Y-118419111D01*
X121862961Y-118382602D01*
X121861024Y-118362931D01*
X121850506Y-118328261D01*
X121848810Y-118321202D01*
X121848509Y-118319520D01*
X121841858Y-118282411D01*
X121820975Y-118230131D01*
X121819225Y-118225140D01*
X121803814Y-118174336D01*
X121785151Y-118139422D01*
X121782254Y-118133193D01*
X121776200Y-118118037D01*
X121766378Y-118093446D01*
X121766376Y-118093442D01*
X121742442Y-118057128D01*
X121737248Y-118049247D01*
X121734347Y-118044374D01*
X121710910Y-118000525D01*
X121683645Y-117967303D01*
X121679810Y-117962098D01*
X121654402Y-117923545D01*
X121654399Y-117923542D01*
X121654398Y-117923540D01*
X121628595Y-117897738D01*
X121619362Y-117888505D01*
X121615283Y-117884004D01*
X121614997Y-117883656D01*
X121606670Y-117873509D01*
X121585885Y-117848182D01*
X121585883Y-117848180D01*
X121550046Y-117818769D01*
X121545545Y-117814688D01*
X121532387Y-117801530D01*
X121520454Y-117788977D01*
X121474162Y-117740278D01*
X121470998Y-117736949D01*
X121470997Y-117736948D01*
X121470996Y-117736947D01*
X121421163Y-117702262D01*
X121420646Y-117701902D01*
X121416883Y-117699064D01*
X121369350Y-117660305D01*
X121369343Y-117660300D01*
X121338896Y-117644397D01*
X121332188Y-117640334D01*
X121303986Y-117620705D01*
X121303983Y-117620703D01*
X121303982Y-117620703D01*
X121303978Y-117620701D01*
X121247617Y-117596514D01*
X121243361Y-117594493D01*
X121188994Y-117566094D01*
X121188987Y-117566091D01*
X121188986Y-117566091D01*
X121182945Y-117564362D01*
X121155967Y-117556642D01*
X121148567Y-117554008D01*
X121116994Y-117540459D01*
X121116995Y-117540459D01*
X121056903Y-117528109D01*
X121052328Y-117526986D01*
X120993357Y-117510113D01*
X120993362Y-117510113D01*
X120959095Y-117507503D01*
X120951317Y-117506412D01*
X120917679Y-117499500D01*
X120917678Y-117499500D01*
X120856339Y-117499500D01*
X120851632Y-117499321D01*
X120846058Y-117498896D01*
X120790461Y-117494662D01*
X120770526Y-117497201D01*
X120756377Y-117499003D01*
X120748548Y-117499500D01*
X117352200Y-117499500D01*
X117346119Y-117499201D01*
X117300000Y-117494659D01*
X117254001Y-117499189D01*
X117251062Y-117499408D01*
X117249260Y-117499499D01*
X117200336Y-117504474D01*
X117103860Y-117513976D01*
X117103558Y-117514037D01*
X117097767Y-117514904D01*
X117097576Y-117514923D01*
X117097551Y-117514928D01*
X117005007Y-117543965D01*
X116915271Y-117571185D01*
X116908515Y-117573984D01*
X116903460Y-117575820D01*
X116903413Y-117575840D01*
X116821351Y-117621387D01*
X116741461Y-117664090D01*
X116736402Y-117667471D01*
X116736268Y-117667270D01*
X116725566Y-117674542D01*
X116725504Y-117674586D01*
X116656694Y-117733656D01*
X116589118Y-117789114D01*
X116589109Y-117789123D01*
X116588864Y-117789423D01*
X116573821Y-117804801D01*
X116571111Y-117807128D01*
X116571106Y-117807132D01*
X116517545Y-117876326D01*
X116464094Y-117941455D01*
X116464085Y-117941469D01*
X116462224Y-117944951D01*
X116450937Y-117962374D01*
X116446555Y-117968035D01*
X116446554Y-117968037D01*
X116409412Y-118043757D01*
X116371184Y-118115275D01*
X116368998Y-118122483D01*
X116361672Y-118141079D01*
X116356943Y-118150721D01*
X116356939Y-118150731D01*
X116346622Y-118190576D01*
X116337177Y-118227057D01*
X116336599Y-118229288D01*
X116313976Y-118303866D01*
X116312885Y-118314938D01*
X116309527Y-118333848D01*
X116305937Y-118347715D01*
X116302060Y-118424123D01*
X116301841Y-118427057D01*
X116294659Y-118499995D01*
X116294659Y-118500003D01*
X111700500Y-118500003D01*
X111700500Y-117766642D01*
X111702757Y-117677585D01*
X111702756Y-117677584D01*
X111702757Y-117677581D01*
X111691933Y-117617193D01*
X111691280Y-117612531D01*
X111685074Y-117551507D01*
X111684858Y-117550818D01*
X111674784Y-117518712D01*
X111672917Y-117511099D01*
X111672740Y-117510113D01*
X111666858Y-117477291D01*
X111644100Y-117420318D01*
X111642521Y-117415882D01*
X111642081Y-117414481D01*
X111624159Y-117357356D01*
X111624158Y-117357354D01*
X111624157Y-117357351D01*
X111611732Y-117334968D01*
X111607485Y-117327315D01*
X111604117Y-117320222D01*
X111596069Y-117300074D01*
X111591377Y-117288327D01*
X111557620Y-117237107D01*
X111555180Y-117233078D01*
X111536777Y-117199924D01*
X111525409Y-117179442D01*
X111525407Y-117179439D01*
X111503033Y-117153378D01*
X111498302Y-117147103D01*
X111494446Y-117141252D01*
X111479402Y-117118425D01*
X111436012Y-117075035D01*
X111432822Y-117071592D01*
X111432473Y-117071186D01*
X111417739Y-117054022D01*
X111392867Y-117025050D01*
X111392863Y-117025046D01*
X111365698Y-117004018D01*
X111359803Y-116998826D01*
X110802433Y-116441456D01*
X110239916Y-115878939D01*
X110235838Y-115874439D01*
X110232806Y-115870745D01*
X110206439Y-115838617D01*
X110170680Y-115809270D01*
X110168463Y-115807360D01*
X110167148Y-115806172D01*
X110167136Y-115806160D01*
X110128978Y-115775046D01*
X110054094Y-115713590D01*
X110054088Y-115713585D01*
X110053854Y-115713429D01*
X110049129Y-115709936D01*
X110048971Y-115709807D01*
X110048961Y-115709801D01*
X109962963Y-115664879D01*
X109934232Y-115649522D01*
X109880283Y-115620686D01*
X109880282Y-115620685D01*
X109880281Y-115620685D01*
X109873523Y-115617885D01*
X109868649Y-115615608D01*
X109868608Y-115615592D01*
X109778383Y-115589775D01*
X109691694Y-115563477D01*
X109685720Y-115562289D01*
X109685766Y-115562053D01*
X109673035Y-115559624D01*
X109672970Y-115559612D01*
X109582566Y-115552728D01*
X109495557Y-115544159D01*
X109495556Y-115544159D01*
X109495190Y-115544195D01*
X109473631Y-115544433D01*
X109470083Y-115544162D01*
X109383295Y-115555215D01*
X109299424Y-115563476D01*
X109299417Y-115563477D01*
X109295632Y-115564625D01*
X109275343Y-115568962D01*
X109268233Y-115569868D01*
X109268224Y-115569870D01*
X109188433Y-115597144D01*
X109110829Y-115620686D01*
X109110821Y-115620689D01*
X109104171Y-115624243D01*
X109085854Y-115632206D01*
X109075689Y-115635681D01*
X109075687Y-115635682D01*
X109005749Y-115676851D01*
X108937020Y-115713588D01*
X108937018Y-115713589D01*
X108928416Y-115720648D01*
X108912671Y-115731643D01*
X108900332Y-115738907D01*
X108843562Y-115790196D01*
X108841331Y-115792117D01*
X108784669Y-115838620D01*
X108775345Y-115849981D01*
X108762630Y-115863315D01*
X108749347Y-115875316D01*
X108749344Y-115875319D01*
X108706052Y-115934273D01*
X108704006Y-115936907D01*
X108659650Y-115990956D01*
X108659648Y-115990959D01*
X108659646Y-115990962D01*
X108653606Y-116002262D01*
X108651025Y-116007090D01*
X108641619Y-116022021D01*
X108628908Y-116039330D01*
X108599772Y-116102737D01*
X108598115Y-116106075D01*
X108566740Y-116164777D01*
X108559170Y-116189729D01*
X108556177Y-116197620D01*
X108543952Y-116224229D01*
X108543949Y-116224237D01*
X108528939Y-116288915D01*
X108527874Y-116292896D01*
X108509534Y-116353357D01*
X108509531Y-116353372D01*
X108506644Y-116382681D01*
X108505337Y-116390622D01*
X108497952Y-116422445D01*
X108497952Y-116422447D01*
X108496355Y-116485468D01*
X108496076Y-116489974D01*
X108490215Y-116549497D01*
X108490215Y-116549504D01*
X92964425Y-116549504D01*
X90606154Y-114191233D01*
X90572669Y-114129910D01*
X90577653Y-114060218D01*
X90606152Y-114015873D01*
X93642426Y-110979599D01*
X93648163Y-110974534D01*
X93669744Y-110957738D01*
X93732960Y-110889066D01*
X93754902Y-110867125D01*
X93754900Y-110867128D01*
X93761938Y-110858816D01*
X93774957Y-110843445D01*
X93838164Y-110774785D01*
X93853117Y-110751894D01*
X93857697Y-110745754D01*
X93875366Y-110724894D01*
X93923136Y-110644724D01*
X93974173Y-110566607D01*
X93985154Y-110541571D01*
X93988657Y-110534764D01*
X94002656Y-110511273D01*
X94036580Y-110424332D01*
X94074063Y-110338881D01*
X94080771Y-110312385D01*
X94083110Y-110305083D01*
X94093050Y-110279614D01*
X94112202Y-110188274D01*
X94135108Y-110097821D01*
X94137364Y-110070593D01*
X94138473Y-110062982D01*
X94139327Y-110058904D01*
X94144081Y-110036237D01*
X94147937Y-109942990D01*
X94150500Y-109912067D01*
X94150500Y-109881035D01*
X94154357Y-109787779D01*
X94150975Y-109760651D01*
X94150500Y-109752981D01*
X94150500Y-106447018D01*
X94150977Y-106439342D01*
X94154357Y-106412220D01*
X94154357Y-106412219D01*
X94150500Y-106318964D01*
X94150500Y-106287934D01*
X94147937Y-106257009D01*
X94144081Y-106163769D01*
X94144081Y-106163763D01*
X94138473Y-106137016D01*
X94137364Y-106129406D01*
X94135109Y-106102187D01*
X94135107Y-106102176D01*
X94112202Y-106011726D01*
X94107394Y-105988794D01*
X94093050Y-105920386D01*
X94083112Y-105894920D01*
X94080774Y-105887623D01*
X94074063Y-105861119D01*
X94036580Y-105775667D01*
X94002656Y-105688727D01*
X93988665Y-105665248D01*
X93985150Y-105658418D01*
X93974173Y-105633393D01*
X93965910Y-105620745D01*
X93923137Y-105555275D01*
X93893583Y-105505679D01*
X93875366Y-105475106D01*
X93875363Y-105475102D01*
X93857704Y-105454252D01*
X93853105Y-105448085D01*
X93838166Y-105425218D01*
X93838164Y-105425215D01*
X93774957Y-105356554D01*
X93754900Y-105332872D01*
X93732961Y-105310933D01*
X93669747Y-105242265D01*
X93669739Y-105242258D01*
X93648177Y-105225476D01*
X93642419Y-105220392D01*
X89636659Y-101214631D01*
X89603174Y-101153308D01*
X89608158Y-101083616D01*
X89650030Y-101027683D01*
X89715494Y-101003266D01*
X89719171Y-101003058D01*
X89777614Y-101000641D01*
X89781036Y-101000500D01*
X89874332Y-101000500D01*
X89874335Y-101000500D01*
X89901294Y-100996000D01*
X89908918Y-100995210D01*
X89936237Y-100994081D01*
X90027567Y-100974930D01*
X90119614Y-100959571D01*
X90145474Y-100950692D01*
X90152873Y-100948655D01*
X90179614Y-100943049D01*
X90266531Y-100909134D01*
X90354810Y-100878828D01*
X90378849Y-100865818D01*
X90385816Y-100862588D01*
X90411274Y-100852656D01*
X90491437Y-100804888D01*
X90573509Y-100760474D01*
X90595078Y-100743685D01*
X90601413Y-100739356D01*
X90624894Y-100725366D01*
X90696104Y-100665054D01*
X90769744Y-100607738D01*
X90769749Y-100607732D01*
X90769753Y-100607729D01*
X90832950Y-100539078D01*
X91035209Y-100336819D01*
X91096532Y-100303334D01*
X91122890Y-100300500D01*
X96124330Y-100300500D01*
X96124335Y-100300500D01*
X96183233Y-100290670D01*
X96188309Y-100290038D01*
X96247821Y-100285108D01*
X96305722Y-100270445D01*
X96310708Y-100269400D01*
X96369614Y-100259571D01*
X96426096Y-100240179D01*
X96430984Y-100238723D01*
X96488881Y-100224063D01*
X96543560Y-100200077D01*
X96548323Y-100198218D01*
X96604810Y-100178828D01*
X96657327Y-100150405D01*
X96661920Y-100148159D01*
X96716607Y-100124173D01*
X96766593Y-100091515D01*
X96770983Y-100088898D01*
X96823509Y-100060474D01*
X96870649Y-100023782D01*
X96874795Y-100020822D01*
X96924785Y-99988164D01*
X96968720Y-99947717D01*
X96972613Y-99944419D01*
X97019744Y-99907738D01*
X97060206Y-99863783D01*
X97063783Y-99860206D01*
X97107738Y-99819744D01*
X97144419Y-99772613D01*
X97147722Y-99768715D01*
X97166957Y-99747821D01*
X97188164Y-99724785D01*
X97220822Y-99674795D01*
X97223782Y-99670649D01*
X97260474Y-99623509D01*
X97288898Y-99570983D01*
X97291515Y-99566593D01*
X97324172Y-99516608D01*
X97324173Y-99516607D01*
X97331455Y-99500005D01*
X98994357Y-99500005D01*
X99014890Y-99747812D01*
X99014892Y-99747824D01*
X99075936Y-99988881D01*
X99175826Y-100216606D01*
X99311833Y-100424782D01*
X99311835Y-100424784D01*
X99311836Y-100424785D01*
X99480256Y-100607738D01*
X99676491Y-100760474D01*
X99895190Y-100878828D01*
X100130386Y-100959571D01*
X100375665Y-101000500D01*
X100624335Y-101000500D01*
X100869614Y-100959571D01*
X101104810Y-100878828D01*
X101323509Y-100760474D01*
X101519744Y-100607738D01*
X101688164Y-100424785D01*
X101824173Y-100216607D01*
X101924063Y-99988881D01*
X101985108Y-99747821D01*
X101987017Y-99724783D01*
X102005643Y-99500005D01*
X102005643Y-99499994D01*
X101985109Y-99252187D01*
X101985107Y-99252175D01*
X101924063Y-99011118D01*
X101824173Y-98783393D01*
X101688166Y-98575217D01*
X101664164Y-98549144D01*
X101519744Y-98392262D01*
X101323509Y-98239526D01*
X101323507Y-98239525D01*
X101323506Y-98239524D01*
X101104811Y-98121172D01*
X101104802Y-98121169D01*
X100869616Y-98040429D01*
X100624335Y-97999500D01*
X100375665Y-97999500D01*
X100130383Y-98040429D01*
X99895197Y-98121169D01*
X99895188Y-98121172D01*
X99676493Y-98239524D01*
X99480257Y-98392261D01*
X99311833Y-98575217D01*
X99175826Y-98783393D01*
X99075936Y-99011118D01*
X99014892Y-99252175D01*
X99014890Y-99252187D01*
X98994357Y-99499994D01*
X98994357Y-99500005D01*
X97331455Y-99500005D01*
X97348159Y-99461920D01*
X97350406Y-99457327D01*
X97360985Y-99437779D01*
X97378828Y-99404810D01*
X97398218Y-99348323D01*
X97400077Y-99343560D01*
X97424063Y-99288881D01*
X97438723Y-99230984D01*
X97440181Y-99226092D01*
X97442911Y-99218140D01*
X97459571Y-99169614D01*
X97469400Y-99110708D01*
X97470445Y-99105722D01*
X97485108Y-99047821D01*
X97490038Y-98988309D01*
X97490672Y-98983225D01*
X97491886Y-98975952D01*
X97500500Y-98924335D01*
X97500500Y-98864625D01*
X97500712Y-98859503D01*
X97505643Y-98800004D01*
X97505643Y-98799995D01*
X97502372Y-98760520D01*
X97500711Y-98740487D01*
X97500500Y-98735372D01*
X97500500Y-98675669D01*
X97500500Y-98675665D01*
X97490671Y-98616768D01*
X97490038Y-98611685D01*
X97488823Y-98597018D01*
X97485108Y-98552179D01*
X97470449Y-98494295D01*
X97469398Y-98489278D01*
X97459572Y-98430391D01*
X97459571Y-98430388D01*
X97459571Y-98430386D01*
X97440179Y-98373902D01*
X97438721Y-98369007D01*
X97424733Y-98313763D01*
X97424064Y-98311121D01*
X97408059Y-98274634D01*
X97400078Y-98256442D01*
X97398217Y-98251671D01*
X97378828Y-98195190D01*
X97360710Y-98161711D01*
X97350403Y-98142666D01*
X97348160Y-98138079D01*
X97324173Y-98083393D01*
X97291510Y-98033399D01*
X97288891Y-98029002D01*
X97287483Y-98026401D01*
X97260474Y-97976491D01*
X97228350Y-97935218D01*
X97223797Y-97929368D01*
X97220818Y-97925196D01*
X97188165Y-97875217D01*
X97188164Y-97875215D01*
X97147724Y-97831286D01*
X97144417Y-97827381D01*
X97107738Y-97780256D01*
X97107731Y-97780248D01*
X97079610Y-97754362D01*
X97063796Y-97739804D01*
X97060205Y-97736214D01*
X97037137Y-97711155D01*
X97019751Y-97692268D01*
X97019747Y-97692265D01*
X97019746Y-97692264D01*
X97019744Y-97692262D01*
X96972623Y-97655586D01*
X96968712Y-97652273D01*
X96944315Y-97629815D01*
X96924785Y-97611836D01*
X96901511Y-97596630D01*
X96874798Y-97579177D01*
X96870627Y-97576199D01*
X96823510Y-97539526D01*
X96823502Y-97539521D01*
X96770985Y-97511100D01*
X96766581Y-97508476D01*
X96716604Y-97475825D01*
X96661939Y-97451847D01*
X96657333Y-97449596D01*
X96637958Y-97439111D01*
X96604810Y-97421172D01*
X96548330Y-97401782D01*
X96543570Y-97399926D01*
X96508966Y-97384747D01*
X96488882Y-97375937D01*
X96430996Y-97361278D01*
X96426089Y-97359816D01*
X96414175Y-97355726D01*
X96369617Y-97340429D01*
X96310712Y-97330598D01*
X96305697Y-97329547D01*
X96247823Y-97314892D01*
X96247815Y-97314891D01*
X96188318Y-97309961D01*
X96183232Y-97309327D01*
X96124336Y-97299500D01*
X96124335Y-97299500D01*
X96062067Y-97299500D01*
X90547018Y-97299500D01*
X90539342Y-97299023D01*
X90516307Y-97296152D01*
X90512221Y-97295643D01*
X90512220Y-97295643D01*
X90418974Y-97299500D01*
X90387933Y-97299500D01*
X90363181Y-97301550D01*
X90356993Y-97302063D01*
X90263765Y-97305919D01*
X90237020Y-97311527D01*
X90229412Y-97312635D01*
X90202178Y-97314891D01*
X90202177Y-97314891D01*
X90146486Y-97328994D01*
X90076666Y-97326368D01*
X90019349Y-97286411D01*
X89992734Y-97221809D01*
X89994277Y-97191431D01*
X89993445Y-97191328D01*
X89994078Y-97186244D01*
X89994080Y-97186237D01*
X89997936Y-97093005D01*
X90005643Y-97000005D01*
X90005643Y-96999999D01*
X90004430Y-96985368D01*
X90003385Y-96972764D01*
X90003227Y-96965080D01*
X90004357Y-96937779D01*
X89992814Y-96845176D01*
X89988491Y-96793005D01*
X89985109Y-96752186D01*
X89985107Y-96752176D01*
X89983927Y-96747517D01*
X89978396Y-96725674D01*
X89976978Y-96718142D01*
X89973598Y-96691019D01*
X89946970Y-96601577D01*
X89924953Y-96514632D01*
X89924064Y-96511122D01*
X89924062Y-96511117D01*
X89913087Y-96486095D01*
X89910443Y-96478882D01*
X89902643Y-96452685D01*
X89861652Y-96368836D01*
X89824173Y-96283393D01*
X89809229Y-96260521D01*
X89805433Y-96253840D01*
X89793432Y-96229290D01*
X89793431Y-96229289D01*
X89793429Y-96229284D01*
X89739203Y-96153337D01*
X89688164Y-96075215D01*
X89685317Y-96072122D01*
X89669651Y-96055103D01*
X89664804Y-96049135D01*
X89648934Y-96026908D01*
X89648932Y-96026905D01*
X89582960Y-95960933D01*
X89553626Y-95929068D01*
X89519747Y-95892265D01*
X89519745Y-95892264D01*
X89519744Y-95892262D01*
X89498165Y-95875466D01*
X89492410Y-95870383D01*
X89473101Y-95851073D01*
X89473097Y-95851070D01*
X89473095Y-95851068D01*
X89441415Y-95828448D01*
X89397161Y-95796850D01*
X89323510Y-95739526D01*
X89299476Y-95726519D01*
X89292955Y-95722448D01*
X89270720Y-95706573D01*
X89270712Y-95706569D01*
X89186880Y-95665586D01*
X89153175Y-95647346D01*
X89104810Y-95621172D01*
X89104809Y-95621171D01*
X89104806Y-95621170D01*
X89104807Y-95621170D01*
X89078962Y-95612298D01*
X89071858Y-95609355D01*
X89047315Y-95597357D01*
X89047313Y-95597356D01*
X89047310Y-95597355D01*
X89047302Y-95597352D01*
X88957880Y-95570731D01*
X88869616Y-95540429D01*
X88842660Y-95535931D01*
X88835168Y-95534198D01*
X88808982Y-95526402D01*
X88716376Y-95514858D01*
X88624335Y-95499500D01*
X88597018Y-95499500D01*
X88589342Y-95499023D01*
X88566307Y-95496152D01*
X88562221Y-95495643D01*
X88562220Y-95495643D01*
X88468974Y-95499500D01*
X88375665Y-95499500D01*
X88348710Y-95503997D01*
X88341066Y-95504790D01*
X88313764Y-95505919D01*
X88222446Y-95525067D01*
X88130390Y-95540428D01*
X88130386Y-95540429D01*
X88104526Y-95549305D01*
X88097118Y-95551344D01*
X88070388Y-95556950D01*
X88070385Y-95556951D01*
X87983476Y-95590862D01*
X87895194Y-95621170D01*
X87895184Y-95621174D01*
X87871145Y-95634183D01*
X87864173Y-95637414D01*
X87838726Y-95647345D01*
X87838724Y-95647346D01*
X87758572Y-95695104D01*
X87676493Y-95739524D01*
X87676488Y-95739527D01*
X87654926Y-95756309D01*
X87648579Y-95760646D01*
X87625107Y-95774632D01*
X87553903Y-95834940D01*
X87480257Y-95892260D01*
X87466609Y-95907086D01*
X87417039Y-95960933D01*
X87177976Y-96199996D01*
X86007588Y-97370382D01*
X86001827Y-97375471D01*
X85980256Y-97392262D01*
X85917049Y-97460922D01*
X85895102Y-97482869D01*
X85895098Y-97482874D01*
X85875033Y-97506564D01*
X85844694Y-97539521D01*
X85811834Y-97575216D01*
X85796892Y-97598087D01*
X85792297Y-97604250D01*
X85774635Y-97625104D01*
X85726860Y-97705278D01*
X85675828Y-97783390D01*
X85675824Y-97783397D01*
X85664853Y-97808409D01*
X85661335Y-97815244D01*
X85647348Y-97838717D01*
X85647343Y-97838726D01*
X85613420Y-97925663D01*
X85575935Y-98011123D01*
X85569226Y-98037616D01*
X85566881Y-98044935D01*
X85556953Y-98070379D01*
X85556948Y-98070395D01*
X85537801Y-98161711D01*
X85514892Y-98252175D01*
X85514890Y-98252185D01*
X85512635Y-98279408D01*
X85511526Y-98287016D01*
X85505920Y-98313750D01*
X85505919Y-98313763D01*
X85502062Y-98407009D01*
X85499500Y-98437936D01*
X85499500Y-98468964D01*
X85495642Y-98562219D01*
X85495642Y-98562220D01*
X83926201Y-98562220D01*
X83914164Y-98549144D01*
X83769744Y-98392262D01*
X83573509Y-98239526D01*
X83573507Y-98239525D01*
X83573506Y-98239524D01*
X83354811Y-98121172D01*
X83354802Y-98121169D01*
X83119616Y-98040429D01*
X82874335Y-97999500D01*
X82625665Y-97999500D01*
X82380383Y-98040429D01*
X82145197Y-98121169D01*
X82145188Y-98121172D01*
X81926493Y-98239524D01*
X81730257Y-98392261D01*
X81561833Y-98575217D01*
X81425826Y-98783393D01*
X81325936Y-99011118D01*
X81264892Y-99252175D01*
X81264890Y-99252187D01*
X81244357Y-99499994D01*
X81244357Y-99500005D01*
X77255643Y-99500005D01*
X77255643Y-99499994D01*
X77235109Y-99252187D01*
X77235107Y-99252175D01*
X77174063Y-99011118D01*
X77074173Y-98783393D01*
X76938166Y-98575217D01*
X76914164Y-98549144D01*
X76769744Y-98392262D01*
X76573509Y-98239526D01*
X76573507Y-98239525D01*
X76573506Y-98239524D01*
X76354811Y-98121172D01*
X76354802Y-98121169D01*
X76119616Y-98040429D01*
X75874335Y-97999500D01*
X75625665Y-97999500D01*
X75380383Y-98040429D01*
X75145197Y-98121169D01*
X75145188Y-98121172D01*
X74926493Y-98239524D01*
X74730257Y-98392261D01*
X74561833Y-98575217D01*
X74425826Y-98783393D01*
X74325936Y-99011118D01*
X74264892Y-99252175D01*
X74264890Y-99252187D01*
X74244357Y-99499994D01*
X74244357Y-99500005D01*
X60500000Y-99500005D01*
X60500000Y-95067763D01*
X63145787Y-95067763D01*
X63175413Y-95337013D01*
X63175415Y-95337024D01*
X63243926Y-95599082D01*
X63243928Y-95599088D01*
X63349870Y-95848390D01*
X63490979Y-96079605D01*
X63490986Y-96079615D01*
X63664253Y-96287819D01*
X63664259Y-96287824D01*
X63756179Y-96370184D01*
X63865998Y-96468582D01*
X64091910Y-96618044D01*
X64337176Y-96733020D01*
X64337183Y-96733022D01*
X64337185Y-96733023D01*
X64596557Y-96811057D01*
X64596564Y-96811058D01*
X64596569Y-96811060D01*
X64864561Y-96850500D01*
X64864566Y-96850500D01*
X65067636Y-96850500D01*
X65119133Y-96846730D01*
X65270156Y-96835677D01*
X65405908Y-96805437D01*
X65534546Y-96776782D01*
X65534548Y-96776781D01*
X65534553Y-96776780D01*
X65787558Y-96680014D01*
X66023777Y-96547441D01*
X66238177Y-96381888D01*
X66426186Y-96186881D01*
X66583799Y-95966579D01*
X66671062Y-95796851D01*
X66707649Y-95725690D01*
X66707651Y-95725684D01*
X66707656Y-95725675D01*
X66795118Y-95469305D01*
X66844319Y-95202933D01*
X66854212Y-94932235D01*
X66824586Y-94662982D01*
X66781977Y-94500000D01*
X70995225Y-94500000D01*
X71014287Y-94717884D01*
X71014289Y-94717894D01*
X71070894Y-94929150D01*
X71070898Y-94929159D01*
X71163335Y-95127391D01*
X71206873Y-95189571D01*
X71206875Y-95189572D01*
X71687226Y-94709220D01*
X71725901Y-94802588D01*
X71822075Y-94927925D01*
X71947412Y-95024099D01*
X72040779Y-95062772D01*
X71560426Y-95543124D01*
X71622611Y-95586666D01*
X71622613Y-95586667D01*
X71820840Y-95679101D01*
X71820849Y-95679105D01*
X72032105Y-95735710D01*
X72032115Y-95735712D01*
X72249999Y-95754775D01*
X72250001Y-95754775D01*
X72467884Y-95735712D01*
X72467894Y-95735710D01*
X72679150Y-95679105D01*
X72679159Y-95679101D01*
X72877387Y-95586666D01*
X72939572Y-95543124D01*
X72459220Y-95062772D01*
X72552588Y-95024099D01*
X72677925Y-94927925D01*
X72774099Y-94802589D01*
X72812773Y-94709220D01*
X73293124Y-95189572D01*
X73336666Y-95127387D01*
X73429101Y-94929159D01*
X73429105Y-94929150D01*
X73485710Y-94717894D01*
X73485712Y-94717884D01*
X73504775Y-94500005D01*
X77744357Y-94500005D01*
X77764890Y-94747812D01*
X77764892Y-94747824D01*
X77825936Y-94988881D01*
X77925826Y-95216606D01*
X78061833Y-95424782D01*
X78061836Y-95424785D01*
X78230256Y-95607738D01*
X78426491Y-95760474D01*
X78426493Y-95760475D01*
X78588945Y-95848390D01*
X78645190Y-95878828D01*
X78880386Y-95959571D01*
X79125665Y-96000500D01*
X79374335Y-96000500D01*
X79619614Y-95959571D01*
X79854810Y-95878828D01*
X80073509Y-95760474D01*
X80269744Y-95607738D01*
X80438164Y-95424785D01*
X80574173Y-95216607D01*
X80674063Y-94988881D01*
X80735108Y-94747821D01*
X80742139Y-94662975D01*
X80755643Y-94500005D01*
X84744357Y-94500005D01*
X84764890Y-94747812D01*
X84764892Y-94747824D01*
X84825936Y-94988881D01*
X84925826Y-95216606D01*
X85061833Y-95424782D01*
X85061836Y-95424785D01*
X85230256Y-95607738D01*
X85426491Y-95760474D01*
X85426493Y-95760475D01*
X85588945Y-95848390D01*
X85645190Y-95878828D01*
X85880386Y-95959571D01*
X86125665Y-96000500D01*
X86374335Y-96000500D01*
X86619614Y-95959571D01*
X86854810Y-95878828D01*
X87073509Y-95760474D01*
X87269744Y-95607738D01*
X87438164Y-95424785D01*
X87574173Y-95216607D01*
X87674063Y-94988881D01*
X87735108Y-94747821D01*
X87742139Y-94662975D01*
X87755643Y-94500005D01*
X90494357Y-94500005D01*
X90514890Y-94747812D01*
X90514892Y-94747824D01*
X90575936Y-94988881D01*
X90675826Y-95216606D01*
X90811833Y-95424782D01*
X90811836Y-95424785D01*
X90980256Y-95607738D01*
X91176491Y-95760474D01*
X91176493Y-95760475D01*
X91338945Y-95848390D01*
X91395190Y-95878828D01*
X91630386Y-95959571D01*
X91875665Y-96000500D01*
X92124335Y-96000500D01*
X92369614Y-95959571D01*
X92604810Y-95878828D01*
X92823509Y-95760474D01*
X93019744Y-95607738D01*
X93188164Y-95424785D01*
X93324173Y-95216607D01*
X93424063Y-94988881D01*
X93485108Y-94747821D01*
X93492139Y-94662975D01*
X93505643Y-94500005D01*
X93505643Y-94500000D01*
X95745225Y-94500000D01*
X95764287Y-94717884D01*
X95764289Y-94717894D01*
X95820894Y-94929150D01*
X95820898Y-94929159D01*
X95913335Y-95127391D01*
X95956873Y-95189571D01*
X95956875Y-95189572D01*
X96437226Y-94709220D01*
X96475901Y-94802588D01*
X96572075Y-94927925D01*
X96697412Y-95024099D01*
X96790779Y-95062772D01*
X96310426Y-95543124D01*
X96372611Y-95586666D01*
X96372613Y-95586667D01*
X96570840Y-95679101D01*
X96570849Y-95679105D01*
X96782105Y-95735710D01*
X96782115Y-95735712D01*
X96999999Y-95754775D01*
X97000001Y-95754775D01*
X97217884Y-95735712D01*
X97217894Y-95735710D01*
X97429150Y-95679105D01*
X97429159Y-95679101D01*
X97627387Y-95586666D01*
X97689572Y-95543124D01*
X97209220Y-95062772D01*
X97302588Y-95024099D01*
X97427925Y-94927925D01*
X97524099Y-94802589D01*
X97562772Y-94709220D01*
X98043124Y-95189572D01*
X98086666Y-95127387D01*
X98179101Y-94929159D01*
X98179105Y-94929150D01*
X98235710Y-94717894D01*
X98235712Y-94717884D01*
X98254775Y-94500005D01*
X102494357Y-94500005D01*
X102514890Y-94747812D01*
X102514892Y-94747824D01*
X102575936Y-94988881D01*
X102675826Y-95216606D01*
X102811833Y-95424782D01*
X102811836Y-95424785D01*
X102980256Y-95607738D01*
X103176491Y-95760474D01*
X103176493Y-95760475D01*
X103338945Y-95848390D01*
X103395190Y-95878828D01*
X103630386Y-95959571D01*
X103875665Y-96000500D01*
X104124335Y-96000500D01*
X104369614Y-95959571D01*
X104604810Y-95878828D01*
X104823509Y-95760474D01*
X104968857Y-95647345D01*
X104999338Y-95623621D01*
X105064332Y-95597978D01*
X105132872Y-95611545D01*
X105183196Y-95660013D01*
X105199500Y-95721474D01*
X105199500Y-96027109D01*
X105179815Y-96094148D01*
X105163181Y-96114790D01*
X103907588Y-97370382D01*
X103901827Y-97375471D01*
X103880256Y-97392262D01*
X103817049Y-97460922D01*
X103795102Y-97482869D01*
X103795098Y-97482874D01*
X103775033Y-97506564D01*
X103744694Y-97539521D01*
X103711834Y-97575216D01*
X103696892Y-97598087D01*
X103692297Y-97604250D01*
X103674635Y-97625104D01*
X103626860Y-97705278D01*
X103575828Y-97783390D01*
X103575824Y-97783397D01*
X103564853Y-97808409D01*
X103561335Y-97815244D01*
X103547348Y-97838717D01*
X103547343Y-97838726D01*
X103513420Y-97925663D01*
X103475935Y-98011123D01*
X103469226Y-98037616D01*
X103466881Y-98044935D01*
X103456953Y-98070379D01*
X103456948Y-98070395D01*
X103437801Y-98161711D01*
X103414892Y-98252175D01*
X103414890Y-98252185D01*
X103412635Y-98279408D01*
X103411526Y-98287016D01*
X103405920Y-98313750D01*
X103405919Y-98313763D01*
X103402062Y-98407009D01*
X103399500Y-98437936D01*
X103399500Y-98468964D01*
X103395642Y-98562219D01*
X103395642Y-98562220D01*
X103399023Y-98589342D01*
X103399500Y-98597018D01*
X103399500Y-101902981D01*
X103399024Y-101910656D01*
X103395643Y-101937779D01*
X103399500Y-102031035D01*
X103399500Y-102062064D01*
X103402062Y-102092990D01*
X103405918Y-102186233D01*
X103411526Y-102212983D01*
X103412635Y-102220590D01*
X103414891Y-102247818D01*
X103414891Y-102247819D01*
X103420864Y-102271404D01*
X103437801Y-102338288D01*
X103456951Y-102429614D01*
X103458291Y-102433049D01*
X103466882Y-102455067D01*
X103469227Y-102462387D01*
X103475937Y-102488881D01*
X103504788Y-102554655D01*
X103513420Y-102574335D01*
X103547344Y-102661275D01*
X103561332Y-102684750D01*
X103564852Y-102691588D01*
X103575825Y-102716604D01*
X103575827Y-102716607D01*
X103626860Y-102794720D01*
X103674634Y-102874894D01*
X103692296Y-102895747D01*
X103696887Y-102901904D01*
X103711836Y-102924785D01*
X103711837Y-102924786D01*
X103775033Y-102993435D01*
X103795100Y-103017129D01*
X103817049Y-103039078D01*
X103880257Y-103107739D01*
X103901822Y-103124524D01*
X103907587Y-103129615D01*
X105713181Y-104935209D01*
X105746666Y-104996532D01*
X105749500Y-105022890D01*
X105749500Y-112277109D01*
X105729815Y-112344148D01*
X105713181Y-112364790D01*
X104207588Y-113870382D01*
X104201827Y-113875471D01*
X104180256Y-113892262D01*
X104117049Y-113960922D01*
X104095102Y-113982869D01*
X104095098Y-113982874D01*
X104075033Y-114006564D01*
X104061979Y-114020745D01*
X104011834Y-114075216D01*
X103996892Y-114098087D01*
X103992297Y-114104250D01*
X103974635Y-114125104D01*
X103926860Y-114205278D01*
X103875828Y-114283390D01*
X103875824Y-114283397D01*
X103864853Y-114308409D01*
X103861335Y-114315244D01*
X103847348Y-114338717D01*
X103847343Y-114338726D01*
X103813420Y-114425663D01*
X103775935Y-114511123D01*
X103769226Y-114537616D01*
X103766881Y-114544935D01*
X103756953Y-114570379D01*
X103756948Y-114570395D01*
X103737801Y-114661711D01*
X103714892Y-114752175D01*
X103714890Y-114752185D01*
X103712635Y-114779408D01*
X103711526Y-114787016D01*
X103705920Y-114813750D01*
X103705919Y-114813763D01*
X103702062Y-114907009D01*
X103694545Y-114997738D01*
X103694357Y-115000004D01*
X103696612Y-115027235D01*
X103696771Y-115034919D01*
X103695642Y-115062215D01*
X103695643Y-115062219D01*
X103695643Y-115062221D01*
X103704068Y-115129816D01*
X103707186Y-115154832D01*
X103714891Y-115247821D01*
X103714891Y-115247822D01*
X103721598Y-115274305D01*
X103723020Y-115281860D01*
X103726400Y-115308974D01*
X103726401Y-115308981D01*
X103753033Y-115398436D01*
X103775934Y-115488874D01*
X103775937Y-115488880D01*
X103786913Y-115513906D01*
X103789558Y-115521123D01*
X103797355Y-115547311D01*
X103797356Y-115547313D01*
X103838347Y-115631163D01*
X103875825Y-115716605D01*
X103890766Y-115739473D01*
X103894565Y-115746158D01*
X103906569Y-115770712D01*
X103906570Y-115770715D01*
X103931878Y-115806160D01*
X103960799Y-115846666D01*
X104011836Y-115924785D01*
X104021805Y-115935614D01*
X104030343Y-115944889D01*
X104035191Y-115950859D01*
X104051067Y-115973096D01*
X104117049Y-116039078D01*
X104146610Y-116071189D01*
X104180256Y-116107738D01*
X104195251Y-116119409D01*
X104201821Y-116124523D01*
X104207579Y-116129607D01*
X104226904Y-116148932D01*
X104266574Y-116177256D01*
X104302845Y-116203153D01*
X104376482Y-116260468D01*
X104376486Y-116260470D01*
X104376491Y-116260474D01*
X104400519Y-116273477D01*
X104407039Y-116277546D01*
X104429284Y-116293429D01*
X104495540Y-116325819D01*
X104513119Y-116334413D01*
X104595179Y-116378823D01*
X104595185Y-116378825D01*
X104595190Y-116378828D01*
X104621046Y-116387704D01*
X104628137Y-116390642D01*
X104652687Y-116402644D01*
X104742127Y-116429271D01*
X104830386Y-116459571D01*
X104857328Y-116464066D01*
X104864825Y-116465800D01*
X104891019Y-116473599D01*
X104983638Y-116485143D01*
X105075665Y-116500500D01*
X105102981Y-116500500D01*
X105110652Y-116500975D01*
X105137779Y-116504357D01*
X105231035Y-116500500D01*
X105324335Y-116500500D01*
X105351294Y-116496000D01*
X105358918Y-116495210D01*
X105386237Y-116494081D01*
X105477567Y-116474930D01*
X105569614Y-116459571D01*
X105595474Y-116450692D01*
X105602873Y-116448655D01*
X105629614Y-116443049D01*
X105716531Y-116409134D01*
X105804810Y-116378828D01*
X105828849Y-116365818D01*
X105835816Y-116362588D01*
X105859449Y-116353368D01*
X105861264Y-116352660D01*
X105861264Y-116352659D01*
X105861274Y-116352656D01*
X105941437Y-116304888D01*
X106023509Y-116260474D01*
X106045078Y-116243685D01*
X106051413Y-116239356D01*
X106074894Y-116225366D01*
X106146104Y-116165054D01*
X106219744Y-116107738D01*
X106282949Y-116039078D01*
X108242422Y-114079604D01*
X108248167Y-114074530D01*
X108269744Y-114057738D01*
X108332949Y-113989078D01*
X108354902Y-113967126D01*
X108374966Y-113943435D01*
X108438164Y-113874785D01*
X108453117Y-113851894D01*
X108457697Y-113845754D01*
X108475366Y-113824894D01*
X108523136Y-113744724D01*
X108574173Y-113666607D01*
X108585154Y-113641571D01*
X108588657Y-113634764D01*
X108602656Y-113611273D01*
X108636580Y-113524332D01*
X108674063Y-113438881D01*
X108680771Y-113412385D01*
X108683110Y-113405083D01*
X108693050Y-113379614D01*
X108712202Y-113288274D01*
X108735108Y-113197821D01*
X108737364Y-113170593D01*
X108738473Y-113162982D01*
X108739327Y-113158904D01*
X108744081Y-113136237D01*
X108747937Y-113042990D01*
X108750500Y-113012067D01*
X108750500Y-112981035D01*
X108754357Y-112887779D01*
X108750975Y-112860651D01*
X108750500Y-112852981D01*
X108750500Y-104447018D01*
X108750977Y-104439342D01*
X108754357Y-104412220D01*
X108754357Y-104412219D01*
X108750500Y-104318964D01*
X108750500Y-104287934D01*
X108747937Y-104257009D01*
X108744081Y-104163769D01*
X108744081Y-104163763D01*
X108741589Y-104151880D01*
X108738473Y-104137016D01*
X108737364Y-104129406D01*
X108735109Y-104102187D01*
X108735108Y-104102184D01*
X108735108Y-104102179D01*
X108712198Y-104011711D01*
X108693049Y-103920386D01*
X108683116Y-103894932D01*
X108680771Y-103887609D01*
X108674064Y-103861123D01*
X108674063Y-103861119D01*
X108660585Y-103830393D01*
X108636577Y-103775659D01*
X108602655Y-103688725D01*
X108588669Y-103665254D01*
X108585150Y-103658416D01*
X108574174Y-103633396D01*
X108574173Y-103633393D01*
X108570388Y-103627600D01*
X108523137Y-103555275D01*
X108498918Y-103514632D01*
X108475366Y-103475106D01*
X108457702Y-103454250D01*
X108453106Y-103448086D01*
X108438166Y-103425218D01*
X108438165Y-103425217D01*
X108438164Y-103425215D01*
X108374966Y-103356564D01*
X108354902Y-103332874D01*
X108344718Y-103322690D01*
X108332950Y-103310921D01*
X108269747Y-103242265D01*
X108269746Y-103242264D01*
X108269744Y-103242262D01*
X108248174Y-103225473D01*
X108242412Y-103220384D01*
X106436819Y-101414791D01*
X106403334Y-101353468D01*
X106400500Y-101327110D01*
X106400500Y-100799307D01*
X106420185Y-100732268D01*
X106472989Y-100686513D01*
X106542147Y-100676569D01*
X106600662Y-100701454D01*
X106676487Y-100760471D01*
X106676491Y-100760474D01*
X106857536Y-100858451D01*
X106895190Y-100878828D01*
X107130386Y-100959571D01*
X107375665Y-101000500D01*
X107624335Y-101000500D01*
X107869614Y-100959571D01*
X108104810Y-100878828D01*
X108323509Y-100760474D01*
X108519744Y-100607738D01*
X108688164Y-100424785D01*
X108824173Y-100216607D01*
X108924063Y-99988881D01*
X108985108Y-99747821D01*
X108987017Y-99724783D01*
X109005643Y-99500005D01*
X109005643Y-99499994D01*
X108985109Y-99252187D01*
X108985108Y-99252183D01*
X108985108Y-99252179D01*
X108979746Y-99231007D01*
X108933359Y-99047828D01*
X108931136Y-99039049D01*
X108933760Y-98969230D01*
X108963658Y-98920930D01*
X109922772Y-97961819D01*
X109984095Y-97928334D01*
X110010453Y-97925500D01*
X110655145Y-97925500D01*
X110721117Y-97944506D01*
X110840607Y-98019587D01*
X110850478Y-98025789D01*
X111015101Y-98083393D01*
X111020745Y-98085368D01*
X111020750Y-98085369D01*
X111199996Y-98105565D01*
X111200000Y-98105565D01*
X111200004Y-98105565D01*
X111379249Y-98085369D01*
X111379252Y-98085368D01*
X111379255Y-98085368D01*
X111549522Y-98025789D01*
X111702262Y-97929816D01*
X111829816Y-97802262D01*
X111925789Y-97649522D01*
X111985368Y-97479255D01*
X111985369Y-97479249D01*
X112005565Y-97300003D01*
X112005565Y-97299996D01*
X111985369Y-97120750D01*
X111985368Y-97120745D01*
X111943119Y-97000005D01*
X111925789Y-96950478D01*
X111924119Y-96947821D01*
X111879185Y-96876309D01*
X111829816Y-96797738D01*
X111702262Y-96670184D01*
X111607524Y-96610656D01*
X111549523Y-96574211D01*
X111379254Y-96514631D01*
X111379249Y-96514630D01*
X111200004Y-96494435D01*
X111199996Y-96494435D01*
X111020750Y-96514630D01*
X111020745Y-96514631D01*
X110850476Y-96574211D01*
X110721117Y-96655494D01*
X110655145Y-96674500D01*
X109782743Y-96674500D01*
X109767122Y-96672775D01*
X109767096Y-96673061D01*
X109759334Y-96672327D01*
X109759333Y-96672327D01*
X109690186Y-96674500D01*
X109660649Y-96674500D01*
X109653766Y-96675369D01*
X109647949Y-96675826D01*
X109601373Y-96677290D01*
X109582129Y-96682881D01*
X109563079Y-96686825D01*
X109543211Y-96689334D01*
X109499884Y-96706488D01*
X109494358Y-96708379D01*
X109449614Y-96721379D01*
X109449610Y-96721381D01*
X109432366Y-96731579D01*
X109414905Y-96740133D01*
X109396274Y-96747510D01*
X109396262Y-96747517D01*
X109358570Y-96774902D01*
X109353687Y-96778109D01*
X109313580Y-96801829D01*
X109299414Y-96815995D01*
X109284624Y-96828627D01*
X109268414Y-96840404D01*
X109268411Y-96840407D01*
X109238710Y-96876309D01*
X109234777Y-96880631D01*
X108077228Y-98038179D01*
X108015905Y-98071664D01*
X107949284Y-98067779D01*
X107869617Y-98040429D01*
X107778857Y-98025284D01*
X107715972Y-97994833D01*
X107679532Y-97935218D01*
X107681108Y-97865366D01*
X107716942Y-97812278D01*
X107715965Y-97811217D01*
X107719736Y-97807743D01*
X107719744Y-97807738D01*
X107782960Y-97739066D01*
X107804901Y-97717126D01*
X107804900Y-97717128D01*
X107824955Y-97693447D01*
X107859809Y-97655586D01*
X107888164Y-97624785D01*
X107903117Y-97601894D01*
X107907697Y-97595754D01*
X107925366Y-97574894D01*
X107973134Y-97494727D01*
X108024173Y-97416607D01*
X108035148Y-97391584D01*
X108038668Y-97384747D01*
X108052655Y-97361274D01*
X108064625Y-97330598D01*
X108086574Y-97274348D01*
X108122944Y-97191431D01*
X108124063Y-97188881D01*
X108130774Y-97162374D01*
X108133112Y-97155077D01*
X108143049Y-97129614D01*
X108162196Y-97038297D01*
X108185108Y-96947821D01*
X108187364Y-96920583D01*
X108188471Y-96912980D01*
X108194080Y-96886237D01*
X108197936Y-96793005D01*
X108200500Y-96762067D01*
X108200500Y-96731026D01*
X108204357Y-96637779D01*
X108200975Y-96610653D01*
X108200500Y-96602981D01*
X108200500Y-94500005D01*
X109494357Y-94500005D01*
X109514890Y-94747812D01*
X109514892Y-94747824D01*
X109575936Y-94988881D01*
X109675826Y-95216606D01*
X109811833Y-95424782D01*
X109811836Y-95424785D01*
X109980256Y-95607738D01*
X110176491Y-95760474D01*
X110176493Y-95760475D01*
X110338945Y-95848390D01*
X110395190Y-95878828D01*
X110630386Y-95959571D01*
X110875665Y-96000500D01*
X111124335Y-96000500D01*
X111369614Y-95959571D01*
X111449286Y-95932218D01*
X111519080Y-95929068D01*
X111577228Y-95961819D01*
X112199197Y-96583788D01*
X112209022Y-96596051D01*
X112209243Y-96595869D01*
X112214214Y-96601878D01*
X112231430Y-96618044D01*
X112264635Y-96649226D01*
X112285529Y-96670120D01*
X112291011Y-96674373D01*
X112295443Y-96678157D01*
X112329418Y-96710062D01*
X112346976Y-96719714D01*
X112363233Y-96730393D01*
X112379064Y-96742673D01*
X112398737Y-96751186D01*
X112421833Y-96761182D01*
X112427077Y-96763750D01*
X112467908Y-96786197D01*
X112480523Y-96789435D01*
X112487305Y-96791177D01*
X112505719Y-96797481D01*
X112524104Y-96805438D01*
X112570157Y-96812732D01*
X112575826Y-96813906D01*
X112620981Y-96825500D01*
X112641016Y-96825500D01*
X112660413Y-96827026D01*
X112680196Y-96830160D01*
X112726584Y-96825775D01*
X112732422Y-96825500D01*
X118055145Y-96825500D01*
X118121117Y-96844506D01*
X118236084Y-96916745D01*
X118250478Y-96925789D01*
X118420745Y-96985368D01*
X118420750Y-96985369D01*
X118599996Y-97005565D01*
X118600000Y-97005565D01*
X118600004Y-97005565D01*
X118779249Y-96985369D01*
X118779252Y-96985368D01*
X118779255Y-96985368D01*
X118949522Y-96925789D01*
X119102262Y-96829816D01*
X119229816Y-96702262D01*
X119325789Y-96549522D01*
X119385368Y-96379255D01*
X119395670Y-96287820D01*
X119405565Y-96200003D01*
X119405565Y-96199996D01*
X119385369Y-96020750D01*
X119385368Y-96020745D01*
X119335709Y-95878828D01*
X119325789Y-95850478D01*
X119324476Y-95848389D01*
X119256072Y-95739524D01*
X119229816Y-95697738D01*
X119102262Y-95570184D01*
X119078883Y-95555494D01*
X118949523Y-95474211D01*
X118779254Y-95414631D01*
X118779249Y-95414630D01*
X118600004Y-95394435D01*
X118599996Y-95394435D01*
X118420750Y-95414630D01*
X118420745Y-95414631D01*
X118250476Y-95474211D01*
X118121117Y-95555494D01*
X118055145Y-95574500D01*
X113010452Y-95574500D01*
X112943413Y-95554815D01*
X112922771Y-95538181D01*
X112463660Y-95079070D01*
X112430175Y-95017747D01*
X112431135Y-94960950D01*
X112485108Y-94747821D01*
X112492139Y-94662975D01*
X112505643Y-94500005D01*
X119994357Y-94500005D01*
X120014890Y-94747812D01*
X120014892Y-94747824D01*
X120075936Y-94988881D01*
X120175826Y-95216606D01*
X120311833Y-95424782D01*
X120311836Y-95424785D01*
X120480256Y-95607738D01*
X120676491Y-95760474D01*
X120676493Y-95760475D01*
X120838945Y-95848390D01*
X120895190Y-95878828D01*
X121130386Y-95959571D01*
X121375665Y-96000500D01*
X121624335Y-96000500D01*
X121869614Y-95959571D01*
X122104810Y-95878828D01*
X122323509Y-95760474D01*
X122519744Y-95607738D01*
X122688164Y-95424785D01*
X122824173Y-95216607D01*
X122924063Y-94988881D01*
X122985108Y-94747821D01*
X122992139Y-94662975D01*
X123005643Y-94500005D01*
X126994357Y-94500005D01*
X127014890Y-94747812D01*
X127014892Y-94747824D01*
X127075936Y-94988881D01*
X127175826Y-95216606D01*
X127311833Y-95424782D01*
X127311836Y-95424785D01*
X127480256Y-95607738D01*
X127676491Y-95760474D01*
X127676493Y-95760475D01*
X127838945Y-95848390D01*
X127895190Y-95878828D01*
X128130386Y-95959571D01*
X128375665Y-96000500D01*
X128624335Y-96000500D01*
X128869614Y-95959571D01*
X129104810Y-95878828D01*
X129323509Y-95760474D01*
X129519744Y-95607738D01*
X129688164Y-95424785D01*
X129824173Y-95216607D01*
X129924063Y-94988881D01*
X129985108Y-94747821D01*
X129992139Y-94662975D01*
X130005643Y-94500005D01*
X133994357Y-94500005D01*
X134014890Y-94747812D01*
X134014892Y-94747824D01*
X134075936Y-94988881D01*
X134175826Y-95216606D01*
X134311833Y-95424782D01*
X134311836Y-95424785D01*
X134480256Y-95607738D01*
X134676491Y-95760474D01*
X134676493Y-95760475D01*
X134838945Y-95848390D01*
X134895190Y-95878828D01*
X135130386Y-95959571D01*
X135375665Y-96000500D01*
X135624335Y-96000500D01*
X135869614Y-95959571D01*
X135949287Y-95932218D01*
X136019082Y-95929068D01*
X136077228Y-95961818D01*
X136788470Y-96673061D01*
X137499197Y-97383788D01*
X137509022Y-97396051D01*
X137509243Y-97395869D01*
X137514214Y-97401878D01*
X137534761Y-97421172D01*
X137564635Y-97449226D01*
X137585529Y-97470120D01*
X137591011Y-97474373D01*
X137595443Y-97478157D01*
X137629418Y-97510062D01*
X137646976Y-97519714D01*
X137663233Y-97530393D01*
X137679064Y-97542673D01*
X137698737Y-97551186D01*
X137721833Y-97561182D01*
X137727077Y-97563750D01*
X137767908Y-97586197D01*
X137780523Y-97589435D01*
X137787305Y-97591177D01*
X137805719Y-97597481D01*
X137824104Y-97605438D01*
X137870157Y-97612732D01*
X137875826Y-97613906D01*
X137920981Y-97625500D01*
X137941017Y-97625500D01*
X137960412Y-97627026D01*
X137978018Y-97629815D01*
X137979306Y-97630019D01*
X138025878Y-97647497D01*
X138033478Y-97652273D01*
X138117836Y-97705279D01*
X138150478Y-97725789D01*
X138306079Y-97780236D01*
X138320745Y-97785368D01*
X138320750Y-97785369D01*
X138499996Y-97805565D01*
X138500000Y-97805565D01*
X138500004Y-97805565D01*
X138599071Y-97794403D01*
X138659527Y-97804992D01*
X138680834Y-97785673D01*
X138693912Y-97780239D01*
X138849522Y-97725789D01*
X139002262Y-97629816D01*
X139129816Y-97502262D01*
X139225789Y-97349522D01*
X139285368Y-97179255D01*
X139287689Y-97158654D01*
X139305565Y-97000003D01*
X139305565Y-96999996D01*
X139285369Y-96820750D01*
X139285368Y-96820745D01*
X139278749Y-96801829D01*
X139225789Y-96650478D01*
X139225002Y-96649226D01*
X139140431Y-96514632D01*
X139129816Y-96497738D01*
X139002262Y-96370184D01*
X139000117Y-96368836D01*
X138849523Y-96274211D01*
X138679254Y-96214631D01*
X138679249Y-96214630D01*
X138500004Y-96194435D01*
X138499996Y-96194435D01*
X138320747Y-96214631D01*
X138230184Y-96246320D01*
X138160405Y-96249881D01*
X138101549Y-96216959D01*
X136963660Y-95079070D01*
X136957486Y-95067763D01*
X143645787Y-95067763D01*
X143675413Y-95337013D01*
X143675415Y-95337024D01*
X143743926Y-95599082D01*
X143743928Y-95599088D01*
X143849870Y-95848390D01*
X143990979Y-96079605D01*
X143990986Y-96079615D01*
X144164253Y-96287819D01*
X144164259Y-96287824D01*
X144256179Y-96370184D01*
X144365998Y-96468582D01*
X144591910Y-96618044D01*
X144837176Y-96733020D01*
X144837183Y-96733022D01*
X144837185Y-96733023D01*
X145096557Y-96811057D01*
X145096564Y-96811058D01*
X145096569Y-96811060D01*
X145364561Y-96850500D01*
X145364566Y-96850500D01*
X145567636Y-96850500D01*
X145619133Y-96846730D01*
X145770156Y-96835677D01*
X145905908Y-96805437D01*
X146034546Y-96776782D01*
X146034548Y-96776781D01*
X146034553Y-96776780D01*
X146287558Y-96680014D01*
X146523777Y-96547441D01*
X146738177Y-96381888D01*
X146926186Y-96186881D01*
X147083799Y-95966579D01*
X147171062Y-95796851D01*
X147207649Y-95725690D01*
X147207651Y-95725684D01*
X147207656Y-95725675D01*
X147295118Y-95469305D01*
X147344319Y-95202933D01*
X147354212Y-94932235D01*
X147324586Y-94662982D01*
X147256072Y-94400912D01*
X147150130Y-94151610D01*
X147009018Y-93920390D01*
X146992049Y-93900000D01*
X146835746Y-93712180D01*
X146835740Y-93712175D01*
X146634002Y-93531418D01*
X146408092Y-93381957D01*
X146348149Y-93353857D01*
X146162824Y-93266980D01*
X146162819Y-93266978D01*
X146162814Y-93266976D01*
X145903442Y-93188942D01*
X145903428Y-93188939D01*
X145787791Y-93171921D01*
X145635439Y-93149500D01*
X145432369Y-93149500D01*
X145432364Y-93149500D01*
X145229844Y-93164323D01*
X145229831Y-93164325D01*
X144965453Y-93223217D01*
X144965446Y-93223220D01*
X144712439Y-93319987D01*
X144476226Y-93452557D01*
X144476224Y-93452558D01*
X144476223Y-93452559D01*
X144440300Y-93480298D01*
X144261822Y-93618112D01*
X144073822Y-93813109D01*
X144073816Y-93813116D01*
X143916202Y-94033419D01*
X143916199Y-94033424D01*
X143792350Y-94274309D01*
X143792343Y-94274327D01*
X143704884Y-94530685D01*
X143704881Y-94530699D01*
X143655681Y-94797068D01*
X143655680Y-94797075D01*
X143645787Y-95067763D01*
X136957486Y-95067763D01*
X136930175Y-95017747D01*
X136931135Y-94960950D01*
X136985108Y-94747821D01*
X136992139Y-94662975D01*
X137005643Y-94500005D01*
X137005643Y-94499994D01*
X136985109Y-94252187D01*
X136985107Y-94252175D01*
X136924063Y-94011118D01*
X136824173Y-93783393D01*
X136688166Y-93575217D01*
X136625018Y-93506620D01*
X136519744Y-93392262D01*
X136323509Y-93239526D01*
X136323507Y-93239525D01*
X136323506Y-93239524D01*
X136104811Y-93121172D01*
X136104802Y-93121169D01*
X135869616Y-93040429D01*
X135624335Y-92999500D01*
X135375665Y-92999500D01*
X135130383Y-93040429D01*
X134895197Y-93121169D01*
X134895188Y-93121172D01*
X134676493Y-93239524D01*
X134480257Y-93392261D01*
X134311833Y-93575217D01*
X134175826Y-93783393D01*
X134075936Y-94011118D01*
X134014892Y-94252175D01*
X134014890Y-94252187D01*
X133994357Y-94499994D01*
X133994357Y-94500005D01*
X130005643Y-94500005D01*
X130005643Y-94499994D01*
X129985109Y-94252187D01*
X129985107Y-94252175D01*
X129924063Y-94011118D01*
X129824173Y-93783393D01*
X129688166Y-93575217D01*
X129625018Y-93506620D01*
X129519744Y-93392262D01*
X129323509Y-93239526D01*
X129323507Y-93239525D01*
X129323506Y-93239524D01*
X129104811Y-93121172D01*
X129104802Y-93121169D01*
X128869616Y-93040429D01*
X128624335Y-92999500D01*
X128375665Y-92999500D01*
X128130383Y-93040429D01*
X127895197Y-93121169D01*
X127895188Y-93121172D01*
X127676493Y-93239524D01*
X127480257Y-93392261D01*
X127311833Y-93575217D01*
X127175826Y-93783393D01*
X127075936Y-94011118D01*
X127014892Y-94252175D01*
X127014890Y-94252187D01*
X126994357Y-94499994D01*
X126994357Y-94500005D01*
X123005643Y-94500005D01*
X123005643Y-94499994D01*
X122985109Y-94252187D01*
X122985107Y-94252175D01*
X122924063Y-94011118D01*
X122824173Y-93783393D01*
X122688166Y-93575217D01*
X122625018Y-93506620D01*
X122519744Y-93392262D01*
X122323509Y-93239526D01*
X122323507Y-93239525D01*
X122323506Y-93239524D01*
X122104811Y-93121172D01*
X122104802Y-93121169D01*
X121869616Y-93040429D01*
X121624335Y-92999500D01*
X121375665Y-92999500D01*
X121130383Y-93040429D01*
X120895197Y-93121169D01*
X120895188Y-93121172D01*
X120676493Y-93239524D01*
X120480257Y-93392261D01*
X120311833Y-93575217D01*
X120175826Y-93783393D01*
X120075936Y-94011118D01*
X120014892Y-94252175D01*
X120014890Y-94252187D01*
X119994357Y-94499994D01*
X119994357Y-94500005D01*
X112505643Y-94500005D01*
X112505643Y-94499994D01*
X112485109Y-94252187D01*
X112485107Y-94252175D01*
X112424063Y-94011118D01*
X112324173Y-93783393D01*
X112188166Y-93575217D01*
X112125018Y-93506620D01*
X112019744Y-93392262D01*
X111823509Y-93239526D01*
X111823507Y-93239525D01*
X111823506Y-93239524D01*
X111604811Y-93121172D01*
X111604802Y-93121169D01*
X111369616Y-93040429D01*
X111124335Y-92999500D01*
X110875665Y-92999500D01*
X110630383Y-93040429D01*
X110395197Y-93121169D01*
X110395188Y-93121172D01*
X110176493Y-93239524D01*
X109980257Y-93392261D01*
X109811833Y-93575217D01*
X109675826Y-93783393D01*
X109575936Y-94011118D01*
X109514892Y-94252175D01*
X109514890Y-94252187D01*
X109494357Y-94499994D01*
X109494357Y-94500005D01*
X108200500Y-94500005D01*
X108200500Y-94430681D01*
X108220185Y-94363642D01*
X108233270Y-94346699D01*
X108273848Y-94302619D01*
X108295789Y-94280679D01*
X108295788Y-94280681D01*
X108315843Y-94257000D01*
X108320285Y-94252175D01*
X108379052Y-94188338D01*
X108394005Y-94165447D01*
X108398585Y-94159307D01*
X108416254Y-94138447D01*
X108464022Y-94058280D01*
X108515061Y-93980160D01*
X108526036Y-93955137D01*
X108529556Y-93948300D01*
X108543543Y-93924827D01*
X108563916Y-93872615D01*
X108577462Y-93837901D01*
X108601371Y-93783393D01*
X108614951Y-93752434D01*
X108621662Y-93725927D01*
X108624000Y-93718630D01*
X108633937Y-93693167D01*
X108653084Y-93601850D01*
X108675996Y-93511374D01*
X108678252Y-93484136D01*
X108679359Y-93476533D01*
X108684968Y-93449790D01*
X108688824Y-93356558D01*
X108691453Y-93324835D01*
X108696531Y-93263558D01*
X108696531Y-93263552D01*
X108695012Y-93245225D01*
X108694273Y-93236317D01*
X108694115Y-93228633D01*
X108694339Y-93223217D01*
X108695245Y-93201332D01*
X108683702Y-93108729D01*
X108675997Y-93015739D01*
X108675995Y-93015729D01*
X108669284Y-92989227D01*
X108667866Y-92981695D01*
X108664486Y-92954572D01*
X108637858Y-92865130D01*
X108614951Y-92774672D01*
X108603975Y-92749648D01*
X108601331Y-92742435D01*
X108593531Y-92716238D01*
X108552540Y-92632389D01*
X108550418Y-92627551D01*
X108515061Y-92546946D01*
X108500117Y-92524074D01*
X108496321Y-92517393D01*
X108484320Y-92492843D01*
X108484319Y-92492842D01*
X108484317Y-92492837D01*
X108430091Y-92416890D01*
X108379052Y-92338768D01*
X108376205Y-92335675D01*
X108360539Y-92318656D01*
X108355692Y-92312688D01*
X108339822Y-92290461D01*
X108339820Y-92290458D01*
X108273848Y-92224486D01*
X108210632Y-92155815D01*
X108189053Y-92139019D01*
X108183298Y-92133936D01*
X108163989Y-92114626D01*
X108163985Y-92114623D01*
X108163983Y-92114621D01*
X108132303Y-92092001D01*
X108088049Y-92060403D01*
X108014398Y-92003079D01*
X107990364Y-91990072D01*
X107983843Y-91986001D01*
X107961608Y-91970126D01*
X107961600Y-91970122D01*
X107877768Y-91929139D01*
X107844063Y-91910899D01*
X107795698Y-91884725D01*
X107795697Y-91884724D01*
X107795694Y-91884723D01*
X107795695Y-91884723D01*
X107769850Y-91875851D01*
X107762746Y-91872908D01*
X107738203Y-91860910D01*
X107738201Y-91860909D01*
X107738198Y-91860908D01*
X107738190Y-91860905D01*
X107648768Y-91834284D01*
X107560504Y-91803982D01*
X107533548Y-91799484D01*
X107526056Y-91797751D01*
X107499870Y-91789955D01*
X107407264Y-91778411D01*
X107315223Y-91763053D01*
X107287906Y-91763053D01*
X107280230Y-91762576D01*
X107257195Y-91759705D01*
X107253109Y-91759196D01*
X107253108Y-91759196D01*
X107159862Y-91763053D01*
X107066553Y-91763053D01*
X107039598Y-91767550D01*
X107031954Y-91768343D01*
X107004652Y-91769472D01*
X106913334Y-91788620D01*
X106821278Y-91803981D01*
X106821274Y-91803982D01*
X106795414Y-91812858D01*
X106788006Y-91814897D01*
X106761276Y-91820503D01*
X106761273Y-91820504D01*
X106674364Y-91854415D01*
X106586082Y-91884723D01*
X106586072Y-91884727D01*
X106562033Y-91897736D01*
X106555061Y-91900967D01*
X106529614Y-91910898D01*
X106529612Y-91910899D01*
X106449460Y-91958657D01*
X106367381Y-92003077D01*
X106367376Y-92003080D01*
X106345814Y-92019862D01*
X106339467Y-92024199D01*
X106315995Y-92038185D01*
X106244791Y-92098493D01*
X106171145Y-92155813D01*
X106142264Y-92187186D01*
X106107928Y-92224485D01*
X106019725Y-92312688D01*
X105707585Y-92624826D01*
X105701822Y-92629916D01*
X105680261Y-92646697D01*
X105617049Y-92715363D01*
X105595102Y-92737310D01*
X105595098Y-92737315D01*
X105575033Y-92761005D01*
X105544641Y-92794019D01*
X105511834Y-92829657D01*
X105496892Y-92852528D01*
X105492297Y-92858691D01*
X105474635Y-92879545D01*
X105426860Y-92959719D01*
X105375828Y-93037831D01*
X105375824Y-93037838D01*
X105364853Y-93062850D01*
X105361335Y-93069685D01*
X105347348Y-93093158D01*
X105347343Y-93093167D01*
X105313420Y-93180104D01*
X105275935Y-93265564D01*
X105269226Y-93292057D01*
X105266881Y-93299376D01*
X105256953Y-93324820D01*
X105256949Y-93324835D01*
X105250863Y-93353857D01*
X105217838Y-93415429D01*
X105156767Y-93449373D01*
X105087040Y-93444910D01*
X105038274Y-93412391D01*
X105019743Y-93392261D01*
X104858782Y-93266980D01*
X104823509Y-93239526D01*
X104823507Y-93239525D01*
X104823506Y-93239524D01*
X104604811Y-93121172D01*
X104604802Y-93121169D01*
X104369616Y-93040429D01*
X104124335Y-92999500D01*
X103875665Y-92999500D01*
X103630383Y-93040429D01*
X103395197Y-93121169D01*
X103395188Y-93121172D01*
X103176493Y-93239524D01*
X102980257Y-93392261D01*
X102811833Y-93575217D01*
X102675826Y-93783393D01*
X102575936Y-94011118D01*
X102514892Y-94252175D01*
X102514890Y-94252187D01*
X102494357Y-94499994D01*
X102494357Y-94500005D01*
X98254775Y-94500005D01*
X98254775Y-94500000D01*
X98254775Y-94499999D01*
X98235712Y-94282115D01*
X98235710Y-94282105D01*
X98179105Y-94070849D01*
X98179101Y-94070840D01*
X98086668Y-93872615D01*
X98043123Y-93810428D01*
X97562772Y-94290779D01*
X97524099Y-94197412D01*
X97427925Y-94072075D01*
X97302588Y-93975901D01*
X97209220Y-93937227D01*
X97689572Y-93456875D01*
X97689571Y-93456873D01*
X97627391Y-93413335D01*
X97429159Y-93320898D01*
X97429150Y-93320894D01*
X97217894Y-93264289D01*
X97217884Y-93264287D01*
X97000001Y-93245225D01*
X96999999Y-93245225D01*
X96782115Y-93264287D01*
X96782105Y-93264289D01*
X96570849Y-93320894D01*
X96570840Y-93320898D01*
X96372614Y-93413332D01*
X96372612Y-93413333D01*
X96310428Y-93456875D01*
X96310427Y-93456875D01*
X96790779Y-93937227D01*
X96697412Y-93975901D01*
X96572075Y-94072075D01*
X96475901Y-94197411D01*
X96437227Y-94290779D01*
X95956875Y-93810427D01*
X95956875Y-93810428D01*
X95913333Y-93872612D01*
X95913332Y-93872614D01*
X95820898Y-94070840D01*
X95820894Y-94070849D01*
X95764289Y-94282105D01*
X95764287Y-94282115D01*
X95745225Y-94499999D01*
X95745225Y-94500000D01*
X93505643Y-94500000D01*
X93505643Y-94499994D01*
X93485109Y-94252187D01*
X93485107Y-94252175D01*
X93424063Y-94011118D01*
X93324173Y-93783393D01*
X93188166Y-93575217D01*
X93125018Y-93506620D01*
X93019744Y-93392262D01*
X92823509Y-93239526D01*
X92823507Y-93239525D01*
X92823506Y-93239524D01*
X92604811Y-93121172D01*
X92604802Y-93121169D01*
X92369616Y-93040429D01*
X92124335Y-92999500D01*
X91875665Y-92999500D01*
X91630383Y-93040429D01*
X91395197Y-93121169D01*
X91395188Y-93121172D01*
X91176493Y-93239524D01*
X90980257Y-93392261D01*
X90811833Y-93575217D01*
X90675826Y-93783393D01*
X90575936Y-94011118D01*
X90514892Y-94252175D01*
X90514890Y-94252187D01*
X90494357Y-94499994D01*
X90494357Y-94500005D01*
X87755643Y-94500005D01*
X87755643Y-94499994D01*
X87735109Y-94252187D01*
X87735107Y-94252175D01*
X87674063Y-94011118D01*
X87574173Y-93783393D01*
X87438166Y-93575217D01*
X87375018Y-93506620D01*
X87269744Y-93392262D01*
X87073509Y-93239526D01*
X87073507Y-93239525D01*
X87073506Y-93239524D01*
X86854811Y-93121172D01*
X86854802Y-93121169D01*
X86619616Y-93040429D01*
X86374335Y-92999500D01*
X86125665Y-92999500D01*
X85880383Y-93040429D01*
X85645197Y-93121169D01*
X85645188Y-93121172D01*
X85426493Y-93239524D01*
X85230257Y-93392261D01*
X85061833Y-93575217D01*
X84925826Y-93783393D01*
X84825936Y-94011118D01*
X84764892Y-94252175D01*
X84764890Y-94252187D01*
X84744357Y-94499994D01*
X84744357Y-94500005D01*
X80755643Y-94500005D01*
X80755643Y-94499994D01*
X80735109Y-94252187D01*
X80735107Y-94252175D01*
X80674063Y-94011118D01*
X80574173Y-93783393D01*
X80438166Y-93575217D01*
X80375018Y-93506620D01*
X80269744Y-93392262D01*
X80073509Y-93239526D01*
X80073507Y-93239525D01*
X80073506Y-93239524D01*
X79854811Y-93121172D01*
X79854802Y-93121169D01*
X79619616Y-93040429D01*
X79374335Y-92999500D01*
X79125665Y-92999500D01*
X78880383Y-93040429D01*
X78645197Y-93121169D01*
X78645188Y-93121172D01*
X78426493Y-93239524D01*
X78230257Y-93392261D01*
X78061833Y-93575217D01*
X77925826Y-93783393D01*
X77825936Y-94011118D01*
X77764892Y-94252175D01*
X77764890Y-94252187D01*
X77744357Y-94499994D01*
X77744357Y-94500005D01*
X73504775Y-94500005D01*
X73504775Y-94500000D01*
X73504775Y-94499999D01*
X73485712Y-94282115D01*
X73485710Y-94282105D01*
X73429105Y-94070849D01*
X73429101Y-94070840D01*
X73336668Y-93872615D01*
X73293123Y-93810428D01*
X72812772Y-94290779D01*
X72774099Y-94197412D01*
X72677925Y-94072075D01*
X72552588Y-93975901D01*
X72459220Y-93937227D01*
X72939572Y-93456875D01*
X72939571Y-93456873D01*
X72877391Y-93413335D01*
X72679159Y-93320898D01*
X72679150Y-93320894D01*
X72467894Y-93264289D01*
X72467884Y-93264287D01*
X72250001Y-93245225D01*
X72249999Y-93245225D01*
X72032115Y-93264287D01*
X72032105Y-93264289D01*
X71820849Y-93320894D01*
X71820840Y-93320898D01*
X71622614Y-93413332D01*
X71622612Y-93413333D01*
X71560428Y-93456875D01*
X71560427Y-93456875D01*
X72040779Y-93937227D01*
X71947412Y-93975901D01*
X71822075Y-94072075D01*
X71725901Y-94197411D01*
X71687227Y-94290779D01*
X71206875Y-93810427D01*
X71206875Y-93810428D01*
X71163333Y-93872612D01*
X71163332Y-93872614D01*
X71070898Y-94070840D01*
X71070894Y-94070849D01*
X71014289Y-94282105D01*
X71014287Y-94282115D01*
X70995225Y-94499999D01*
X70995225Y-94500000D01*
X66781977Y-94500000D01*
X66756072Y-94400912D01*
X66650130Y-94151610D01*
X66509018Y-93920390D01*
X66492049Y-93900000D01*
X66335746Y-93712180D01*
X66335740Y-93712175D01*
X66134002Y-93531418D01*
X65908092Y-93381957D01*
X65848149Y-93353857D01*
X65662824Y-93266980D01*
X65662819Y-93266978D01*
X65662814Y-93266976D01*
X65403442Y-93188942D01*
X65403428Y-93188939D01*
X65287791Y-93171921D01*
X65135439Y-93149500D01*
X64932369Y-93149500D01*
X64932364Y-93149500D01*
X64729844Y-93164323D01*
X64729831Y-93164325D01*
X64465453Y-93223217D01*
X64465446Y-93223220D01*
X64212439Y-93319987D01*
X63976226Y-93452557D01*
X63976224Y-93452558D01*
X63976223Y-93452559D01*
X63940300Y-93480298D01*
X63761822Y-93618112D01*
X63573822Y-93813109D01*
X63573816Y-93813116D01*
X63416202Y-94033419D01*
X63416199Y-94033424D01*
X63292350Y-94274309D01*
X63292343Y-94274327D01*
X63204884Y-94530685D01*
X63204881Y-94530699D01*
X63155681Y-94797068D01*
X63155680Y-94797075D01*
X63145787Y-95067763D01*
X60500000Y-95067763D01*
X60500000Y-90624000D01*
X60519685Y-90556961D01*
X60572489Y-90511206D01*
X60624000Y-90500000D01*
X148876000Y-90500000D01*
X148943039Y-90519685D01*
G37*
%TD.AperFunction*%
%TD*%
M02*
