%TF.GenerationSoftware,KiCad,Pcbnew,7.0.9-7.0.9~ubuntu22.04.1*%
%TF.CreationDate,2023-12-10T20:03:09+01:00*%
%TF.ProjectId,door_if4_usb.v2,646f6f72-5f69-4663-945f-7573622e7632,rev?*%
%TF.SameCoordinates,Original*%
%TF.FileFunction,Copper,L4,Bot*%
%TF.FilePolarity,Positive*%
%FSLAX46Y46*%
G04 Gerber Fmt 4.6, Leading zero omitted, Abs format (unit mm)*
G04 Created by KiCad (PCBNEW 7.0.9-7.0.9~ubuntu22.04.1) date 2023-12-10 20:03:09*
%MOMM*%
%LPD*%
G01*
G04 APERTURE LIST*
%TA.AperFunction,ComponentPad*%
%ADD10C,2.000000*%
%TD*%
%TA.AperFunction,SMDPad,CuDef*%
%ADD11R,1.700000X3.500000*%
%TD*%
%TA.AperFunction,SMDPad,CuDef*%
%ADD12R,3.500000X1.700000*%
%TD*%
%TA.AperFunction,ViaPad*%
%ADD13C,2.000000*%
%TD*%
%TA.AperFunction,ViaPad*%
%ADD14C,1.000000*%
%TD*%
%TA.AperFunction,ViaPad*%
%ADD15C,0.600000*%
%TD*%
%TA.AperFunction,Conductor*%
%ADD16C,1.000000*%
%TD*%
%TA.AperFunction,Conductor*%
%ADD17C,0.500000*%
%TD*%
%TA.AperFunction,Conductor*%
%ADD18C,2.000000*%
%TD*%
%TA.AperFunction,Conductor*%
%ADD19C,0.250000*%
%TD*%
G04 APERTURE END LIST*
D10*
%TO.P,J1,1,Pin_1*%
%TO.N,+24V*%
X139000000Y-99500000D03*
%TO.P,J1,2,Pin_2*%
%TO.N,IN1*%
X135500000Y-94500000D03*
%TO.P,J1,3,Pin_3*%
%TO.N,IN2*%
X132000000Y-99500000D03*
%TO.P,J1,4,Pin_4*%
%TO.N,IN3*%
X128500000Y-94500000D03*
%TO.P,J1,5,Pin_5*%
%TO.N,IN4*%
X125000000Y-99500000D03*
%TO.P,J1,6,Pin_6*%
%TO.N,IN5*%
X121500000Y-94500000D03*
%TD*%
%TO.P,J3,1,Pin_1*%
%TO.N,OUT2*%
X89750000Y-99500000D03*
%TO.P,J3,2,Pin_2*%
%TO.N,OUT3*%
X86250000Y-94500000D03*
%TO.P,J3,3,Pin_3*%
%TO.N,OUT4*%
X82750000Y-99500000D03*
%TO.P,J3,4,Pin_4*%
%TO.N,OUT5*%
X79250000Y-94500000D03*
%TO.P,J3,5,Pin_5*%
%TO.N,OUT6*%
X75750000Y-99500000D03*
%TO.P,J3,6,Pin_6*%
%TO.N,GNDA*%
X72250000Y-94500000D03*
%TD*%
%TO.P,J2,1,Pin_1*%
%TO.N,+24V*%
X114500000Y-99500000D03*
%TO.P,J2,2,Pin_2*%
%TO.N,IN6*%
X111000000Y-94500000D03*
%TO.P,J2,3,Pin_3*%
%TO.N,IN7*%
X107500000Y-99500000D03*
%TO.P,J2,4,Pin_4*%
%TO.N,IN8*%
X104000000Y-94500000D03*
%TO.P,J2,5,Pin_5*%
%TO.N,OUT1*%
X100500000Y-99500000D03*
%TO.P,J2,6,Pin_6*%
%TO.N,GNDA*%
X97000000Y-94500000D03*
%TD*%
D11*
%TO.P,U1,1,GPIO0*%
%TO.N,S_IN1A*%
X148130000Y-130515000D03*
%TO.P,U1,2,GPIO1*%
%TO.N,S_IN1B*%
X145590000Y-130515000D03*
%TO.P,U1,3,GND*%
%TO.N,GND*%
X143050000Y-130515000D03*
%TO.P,U1,4,GPIO2*%
%TO.N,S_IN2A*%
X140510000Y-130515000D03*
%TO.P,U1,5,GPIO3*%
%TO.N,S_IN2B*%
X137970000Y-130515000D03*
%TO.P,U1,6,GPIO4*%
%TO.N,S_IN3A*%
X135430000Y-130515000D03*
%TO.P,U1,7,GPIO5*%
%TO.N,S_IN3B*%
X132890000Y-130515000D03*
%TO.P,U1,8,GND*%
%TO.N,GND*%
X130350000Y-130515000D03*
%TO.P,U1,9,GPIO6*%
%TO.N,S_IN4A*%
X127810000Y-130515000D03*
%TO.P,U1,10,GPIO7*%
%TO.N,S_IN4B*%
X125270000Y-130515000D03*
%TO.P,U1,11,GPIO8*%
%TO.N,S_IN5A*%
X122730000Y-130515000D03*
%TO.P,U1,12,GPIO9*%
%TO.N,S_IN5B*%
X120190000Y-130515000D03*
%TO.P,U1,13,GND*%
%TO.N,GND*%
X117650000Y-130515000D03*
%TO.P,U1,14,GPIO10*%
%TO.N,S_IN6A*%
X115110000Y-130515000D03*
%TO.P,U1,15,GPIO11*%
%TO.N,S_IN6B*%
X112570000Y-130515000D03*
%TO.P,U1,16,GPIO12*%
%TO.N,S_IN7A*%
X110030000Y-130515000D03*
%TO.P,U1,17,GPIO13*%
%TO.N,S_IN7B*%
X107490000Y-130515000D03*
%TO.P,U1,18,GND*%
%TO.N,GND*%
X104950000Y-130515000D03*
%TO.P,U1,19,GPIO14*%
%TO.N,S_IN8A*%
X102410000Y-130515000D03*
%TO.P,U1,20,GPIO15*%
%TO.N,S_IN8B*%
X99870000Y-130515000D03*
%TO.P,U1,21,GPIO16*%
%TO.N,S_OUT6*%
X99870000Y-110935000D03*
%TO.P,U1,22,GPIO17*%
%TO.N,S_OUT5*%
X102410000Y-110935000D03*
%TO.P,U1,23,GND*%
%TO.N,GND*%
X104950000Y-110935000D03*
%TO.P,U1,24,GPIO18*%
%TO.N,S_OUT4*%
X107490000Y-110935000D03*
%TO.P,U1,25,GPIO19*%
%TO.N,S_OUT3*%
X110030000Y-110935000D03*
%TO.P,U1,26,GPIO20*%
%TO.N,S_OUT2*%
X112570000Y-110935000D03*
%TO.P,U1,27,GPIO21*%
%TO.N,S_OUT1*%
X115110000Y-110935000D03*
%TO.P,U1,28,GND*%
%TO.N,GND*%
X117650000Y-110935000D03*
%TO.P,U1,29,GPIO22*%
%TO.N,O_LED*%
X120190000Y-110935000D03*
%TO.P,U1,30,RUN*%
%TO.N,unconnected-(U1-RUN-Pad30)*%
X122730000Y-110935000D03*
%TO.P,U1,31,GPIO26_ADC0*%
%TO.N,unconnected-(U1-GPIO26_ADC0-Pad31)*%
X125270000Y-110935000D03*
%TO.P,U1,32,GPIO27_ADC1*%
%TO.N,unconnected-(U1-GPIO27_ADC1-Pad32)*%
X127810000Y-110935000D03*
%TO.P,U1,33,AGND*%
%TO.N,unconnected-(U1-AGND-Pad33)*%
X130350000Y-110935000D03*
%TO.P,U1,34,GPIO28_ADC2*%
%TO.N,unconnected-(U1-GPIO28_ADC2-Pad34)*%
X132890000Y-110935000D03*
%TO.P,U1,35,ADC_VREF*%
%TO.N,unconnected-(U1-ADC_VREF-Pad35)*%
X135430000Y-110935000D03*
%TO.P,U1,36,3V3*%
%TO.N,+3V3*%
X137970000Y-110935000D03*
%TO.P,U1,37,3V3_EN*%
%TO.N,unconnected-(U1-3V3_EN-Pad37)*%
X140510000Y-110935000D03*
%TO.P,U1,38,GND*%
%TO.N,GND*%
X143050000Y-110935000D03*
%TO.P,U1,39,VSYS*%
%TO.N,unconnected-(U1-VSYS-Pad39)*%
X145590000Y-110935000D03*
%TO.P,U1,40,VBUS*%
%TO.N,unconnected-(U1-VBUS-Pad40)*%
X148130000Y-110935000D03*
D12*
%TO.P,U1,41,SWCLK*%
%TO.N,unconnected-(U1-SWCLK-Pad41)*%
X99200000Y-123265000D03*
%TO.P,U1,42,GND*%
%TO.N,GND*%
X99200000Y-120725000D03*
%TO.P,U1,43,SWDIO*%
%TO.N,unconnected-(U1-SWDIO-Pad43)*%
X99200000Y-118185000D03*
%TD*%
D13*
%TO.N,+24V*%
X117751911Y-102368423D03*
D14*
X109495556Y-116549500D03*
D15*
X104000000Y-123500000D03*
D14*
X84150000Y-118650000D03*
X117300000Y-118500000D03*
X94175000Y-118775000D03*
X101800000Y-118300000D03*
X76500000Y-117000000D03*
X103500000Y-118000000D03*
X77550000Y-118750000D03*
D15*
X82100000Y-122500000D03*
X84900000Y-123100000D03*
D14*
X110700000Y-118600000D03*
D13*
X88400000Y-114100000D03*
X107190888Y-93263553D03*
X122000000Y-115000000D03*
X88500000Y-97000000D03*
X105200000Y-115000000D03*
D14*
X85500000Y-117500000D03*
X120875000Y-118559063D03*
D15*
X102500000Y-123500000D03*
%TO.N,GNDA*%
X147450002Y-133149998D03*
D14*
X114700000Y-118500000D03*
D15*
X80950000Y-124150000D03*
D14*
X66500000Y-98500000D03*
D15*
X110200000Y-124700000D03*
X77050000Y-124850000D03*
X98475000Y-124975000D03*
D13*
X120600000Y-102500000D03*
D15*
X81850000Y-124950000D03*
X114100000Y-124000000D03*
X131750000Y-133000000D03*
X96900000Y-123400000D03*
X124700000Y-105100000D03*
X67000000Y-109400000D03*
X66400000Y-105700000D03*
D13*
X104199998Y-107600001D03*
D14*
X62500000Y-98000000D03*
D15*
X100710500Y-124970945D03*
X83350000Y-123450000D03*
D14*
X74950000Y-118750000D03*
D15*
X70700000Y-119300000D03*
D13*
X101400000Y-107299996D03*
D15*
X148300000Y-102400000D03*
X143985507Y-132989796D03*
D14*
X81620711Y-119045711D03*
X96347655Y-118152345D03*
D15*
X115000000Y-124800000D03*
D13*
X86700000Y-108100000D03*
D15*
X136338437Y-133039740D03*
X148400000Y-100300000D03*
X116500000Y-123300000D03*
D13*
X90500000Y-108100000D03*
D15*
X93675000Y-124875000D03*
X122200000Y-107300000D03*
D14*
X91575000Y-118775000D03*
X108100000Y-118600000D03*
D13*
X73700000Y-108000000D03*
D15*
%TO.N,+3V3*%
X142300000Y-116800000D03*
X135700000Y-117800000D03*
X138700000Y-117100000D03*
X131400000Y-117300000D03*
X126500000Y-116200000D03*
X141200000Y-117100000D03*
X143700000Y-117200000D03*
X130700000Y-118400000D03*
X128100000Y-117800000D03*
X148400000Y-115900000D03*
X63800000Y-124900000D03*
X144900000Y-116700000D03*
X129100000Y-116100000D03*
X134300000Y-116100000D03*
X131596474Y-116050000D03*
D14*
X137200000Y-113600000D03*
D15*
X136900000Y-116100000D03*
%TO.N,GND*%
X141100000Y-114600000D03*
D14*
X117705288Y-128025000D03*
D15*
X131272622Y-122906237D03*
X132100000Y-114600000D03*
X134700000Y-114600000D03*
D14*
X105300000Y-117800000D03*
D15*
X143400000Y-122700000D03*
X136000000Y-122300000D03*
X133400000Y-122300000D03*
X127000000Y-114600000D03*
X146923478Y-128491242D03*
X142400000Y-122400000D03*
X146975000Y-122238955D03*
D14*
X119600000Y-107500000D03*
D15*
X146200000Y-114600000D03*
X138600000Y-114600000D03*
X67700000Y-123300000D03*
X66700000Y-121400000D03*
X128972756Y-123513468D03*
X129500000Y-114500000D03*
D14*
X142025000Y-102150000D03*
X143000000Y-124900000D03*
D15*
X65600000Y-113500000D03*
X123600000Y-114200000D03*
X139800000Y-122400000D03*
D14*
X105200000Y-128150000D03*
X105400000Y-120700000D03*
D15*
X143600000Y-114600000D03*
D14*
X132900000Y-124100000D03*
D15*
%TO.N,Net-(D26-A)*%
X145300000Y-104300000D03*
X142200000Y-104900000D03*
%TO.N,Net-(D28-A)*%
X132600000Y-102400000D03*
X133700000Y-103500000D03*
%TO.N,VmidA*%
X130600000Y-133000000D03*
X139700000Y-133000000D03*
X70100000Y-132300000D03*
X135500000Y-132900000D03*
%TO.N,VmidB*%
X64100000Y-101000000D03*
X133965314Y-102075000D03*
D13*
%TO.N,OUT2*%
X96000000Y-98800000D03*
D15*
%TO.N,Net-(U9A-+)*%
X65600000Y-105800000D03*
X67500000Y-102400000D03*
D13*
%TO.N,OUT3*%
X92000000Y-94500000D03*
D15*
%TO.N,Vmid_3v3_A*%
X65600000Y-119900000D03*
X70800000Y-120900000D03*
X63700000Y-119900000D03*
X67100000Y-119900000D03*
%TO.N,IN1*%
X138500000Y-97000000D03*
%TO.N,IN5*%
X130200000Y-101400000D03*
X131400000Y-101400000D03*
%TO.N,IN6*%
X118600000Y-96200000D03*
%TO.N,IN7*%
X123644510Y-125673832D03*
X125780000Y-126607917D03*
X111200000Y-97300000D03*
%TO.N,IN8*%
X123025000Y-124944806D03*
X126080771Y-125317668D03*
%TO.N,Net-(Q1-G1)*%
X113900000Y-123100000D03*
X116200000Y-121600000D03*
%TO.N,Net-(Q3-G1)*%
X96600000Y-120400000D03*
X96000000Y-123200000D03*
%TO.N,Net-(Q5-G1)*%
X83050000Y-121750000D03*
X80750000Y-123250000D03*
%TO.N,O_LED*%
X121500000Y-108900000D03*
%TO.N,S_IN1A*%
X148200000Y-114900000D03*
%TO.N,S_IN1B*%
X145900000Y-115500000D03*
%TO.N,S_IN2A*%
X141450000Y-115650000D03*
%TO.N,S_IN2B*%
X138900000Y-115500000D03*
%TO.N,S_IN3A*%
X137306587Y-118806587D03*
%TO.N,S_IN3B*%
X142000000Y-118800000D03*
X137300000Y-118000000D03*
%TO.N,S_IN4A*%
X142800000Y-119300000D03*
%TO.N,S_IN4B*%
X147351764Y-119296473D03*
%TO.N,S_IN5A*%
X135000000Y-115500000D03*
%TO.N,S_IN5B*%
X132500000Y-115500000D03*
%TO.N,S_IN6A*%
X130000000Y-115300000D03*
%TO.N,S_IN6B*%
X127400000Y-115300000D03*
%TO.N,S_IN7A*%
X126100000Y-119500000D03*
%TO.N,S_IN7B*%
X125600000Y-118700000D03*
%TO.N,S_IN8A*%
X125700000Y-117600000D03*
%TO.N,S_IN8B*%
X125600000Y-116800000D03*
%TO.N,S_OUT6*%
X87810454Y-130600000D03*
%TO.N,S_OUT5*%
X72800000Y-131300000D03*
%TO.N,S_OUT4*%
X100800000Y-134100000D03*
%TO.N,S_OUT3*%
X93769987Y-130225000D03*
%TO.N,S_OUT2*%
X119407326Y-121259610D03*
%TO.N,S_OUT1*%
X120000000Y-120800000D03*
%TD*%
D16*
%TO.N,+3V3*%
X137970000Y-112830000D02*
X137200000Y-113600000D01*
X137970000Y-111835000D02*
X137970000Y-112830000D01*
%TO.N,GND*%
X103200000Y-115700000D02*
X105300000Y-117800000D01*
X143050000Y-111835000D02*
X143250000Y-111635000D01*
X103200000Y-114229926D02*
X103200000Y-115700000D01*
X117650000Y-109450000D02*
X119600000Y-107500000D01*
X104950000Y-111835000D02*
X104950000Y-112479926D01*
X104950000Y-112479926D02*
X103200000Y-114229926D01*
X117650000Y-129615000D02*
X117650000Y-128080288D01*
X143250000Y-111635000D02*
X143250000Y-103375000D01*
X100100000Y-120725000D02*
X105375000Y-120725000D01*
X143050000Y-129615000D02*
X143050000Y-124950000D01*
X143050000Y-124950000D02*
X143000000Y-124900000D01*
X104950000Y-128400000D02*
X105200000Y-128150000D01*
X130350000Y-129615000D02*
X130350000Y-126650000D01*
X105375000Y-120725000D02*
X105400000Y-120700000D01*
X117650000Y-111835000D02*
X117650000Y-109450000D01*
X104950000Y-129615000D02*
X104950000Y-128400000D01*
X143250000Y-103375000D02*
X142025000Y-102150000D01*
X117650000Y-128080288D02*
X117705288Y-128025000D01*
X130350000Y-126650000D02*
X132900000Y-124100000D01*
D17*
%TO.N,VmidB*%
X133900000Y-102009686D02*
X133965314Y-102075000D01*
X64100000Y-101000000D02*
X66000000Y-101000000D01*
X66000000Y-101000000D02*
X69100000Y-97900000D01*
X71100000Y-90900000D02*
X131500000Y-90900000D01*
X69100000Y-92900000D02*
X71100000Y-90900000D01*
X133200000Y-97400000D02*
X133900000Y-98100000D01*
X133900000Y-98100000D02*
X133900000Y-102009686D01*
X133200000Y-92600000D02*
X133200000Y-97400000D01*
X131500000Y-90900000D02*
X133200000Y-92600000D01*
X69100000Y-97900000D02*
X69100000Y-92900000D01*
D18*
%TO.N,OUT3*%
X92000000Y-94500000D02*
X86250000Y-94500000D01*
D17*
%TO.N,Vmid_3v3_A*%
X69800000Y-119900000D02*
X70800000Y-120900000D01*
X67100000Y-119900000D02*
X69800000Y-119900000D01*
X63700000Y-119900000D02*
X65600000Y-119900000D01*
D19*
%TO.N,O_LED*%
X120190000Y-110210000D02*
X121500000Y-108900000D01*
X120190000Y-111835000D02*
X120190000Y-110210000D01*
%TO.N,S_IN1A*%
X146495000Y-118891827D02*
X146495000Y-116605000D01*
X148130000Y-128884591D02*
X146495000Y-127249591D01*
X146400000Y-118986827D02*
X146495000Y-118891827D01*
X148130000Y-129615000D02*
X148130000Y-128884591D01*
X146495000Y-122586772D02*
X146400000Y-122491772D01*
X146495000Y-127249591D02*
X146495000Y-122586772D01*
X146495000Y-116605000D02*
X148200000Y-114900000D01*
X146400000Y-122491772D02*
X146400000Y-118986827D01*
%TO.N,S_IN1B*%
X146000000Y-122657457D02*
X146000000Y-118821142D01*
X146000000Y-118821142D02*
X146095000Y-118726142D01*
X146095000Y-122752458D02*
X146000000Y-122657457D01*
X145590000Y-129615000D02*
X146095000Y-129110000D01*
X146095000Y-118726142D02*
X146095000Y-115695000D01*
X146095000Y-115695000D02*
X145900000Y-115500000D01*
X146095000Y-129110000D02*
X146095000Y-122752458D01*
%TO.N,S_IN2A*%
X140510000Y-129615000D02*
X140510000Y-116590000D01*
X140510000Y-116590000D02*
X141450000Y-115650000D01*
%TO.N,S_IN2B*%
X137970000Y-116430000D02*
X138900000Y-115500000D01*
X137970000Y-129615000D02*
X137970000Y-116430000D01*
%TO.N,S_IN3A*%
X137300000Y-127745000D02*
X137300000Y-118813174D01*
X135430000Y-129615000D02*
X137300000Y-127745000D01*
X137300000Y-118813174D02*
X137306587Y-118806587D01*
%TO.N,S_IN3B*%
X136700000Y-122700000D02*
X136700000Y-118600000D01*
X132890000Y-126510000D02*
X136700000Y-122700000D01*
X132890000Y-129615000D02*
X132890000Y-126510000D01*
X136700000Y-118600000D02*
X137300000Y-118000000D01*
%TO.N,S_IN4A*%
X129000000Y-133700000D02*
X127900000Y-132600000D01*
X141800000Y-131500000D02*
X141800000Y-132800000D01*
X127900000Y-129705000D02*
X127810000Y-129615000D01*
X140900000Y-133700000D02*
X129000000Y-133700000D01*
X141825000Y-120275000D02*
X141825000Y-131475000D01*
X142800000Y-119300000D02*
X141825000Y-120275000D01*
X141800000Y-132800000D02*
X140900000Y-133700000D01*
X141825000Y-131475000D02*
X141800000Y-131500000D01*
X127900000Y-132600000D02*
X127900000Y-129705000D01*
%TO.N,S_IN4B*%
X127600000Y-134100000D02*
X125270000Y-131770000D01*
X147351764Y-119296473D02*
X149275000Y-121219709D01*
X149275000Y-132358910D02*
X147533910Y-134100000D01*
X147533910Y-134100000D02*
X127600000Y-134100000D01*
X125270000Y-131770000D02*
X125270000Y-129615000D01*
X149275000Y-121219709D02*
X149275000Y-132358910D01*
%TO.N,S_IN5A*%
X126385687Y-127223504D02*
X125542181Y-127223504D01*
X126721679Y-126887512D02*
X126385687Y-127223504D01*
X135000000Y-118299397D02*
X126721679Y-126577718D01*
X135000000Y-115500000D02*
X135000000Y-118299397D01*
X126721679Y-126577718D02*
X126721679Y-126887512D01*
X125542181Y-127223504D02*
X123150685Y-129615000D01*
X123150685Y-129615000D02*
X122730000Y-129615000D01*
%TO.N,S_IN5B*%
X120880000Y-129615000D02*
X120190000Y-129615000D01*
X123709999Y-128490000D02*
X121766090Y-128490000D01*
X121766090Y-128490000D02*
X121605000Y-128651090D01*
X126676548Y-124994163D02*
X126676548Y-126013817D01*
X125105000Y-127094999D02*
X123709999Y-128490000D01*
X132500000Y-119170711D02*
X126676548Y-124994163D01*
X126676548Y-126013817D02*
X125419505Y-126013817D01*
X125419505Y-126013817D02*
X125105000Y-126328322D01*
X132500000Y-115500000D02*
X132500000Y-119170711D01*
X121605000Y-128651090D02*
X121605000Y-128890000D01*
X125105000Y-126328322D02*
X125105000Y-127094999D01*
X121605000Y-128890000D02*
X120880000Y-129615000D01*
%TO.N,S_IN6A*%
X116713984Y-128490000D02*
X116686090Y-128490000D01*
X115561090Y-129615000D02*
X115110000Y-129615000D01*
X118021015Y-127224999D02*
X117378985Y-127224999D01*
X117378985Y-127224999D02*
X116724999Y-127878985D01*
X116724999Y-127878985D02*
X116724999Y-128478985D01*
X116686090Y-128490000D02*
X115561090Y-129615000D01*
X130000000Y-120585266D02*
X123260267Y-127324999D01*
X130000000Y-115300000D02*
X130000000Y-120585266D01*
X118121015Y-127324999D02*
X118021015Y-127224999D01*
X116724999Y-128478985D02*
X116713984Y-128490000D01*
X123260267Y-127324999D02*
X118121015Y-127324999D01*
%TO.N,S_IN6B*%
X118286701Y-126924999D02*
X118186700Y-126824999D01*
X118186700Y-126824999D02*
X117213299Y-126824999D01*
X120825000Y-126375000D02*
X120275001Y-126924999D01*
X127400000Y-119286827D02*
X120825000Y-125861827D01*
X117213299Y-126824999D02*
X115548298Y-128490000D01*
X115548298Y-128490000D02*
X113695000Y-128490000D01*
X120275001Y-126924999D02*
X118286701Y-126924999D01*
X120825000Y-125861827D02*
X120825000Y-126375000D01*
X127400000Y-115300000D02*
X127400000Y-119286827D01*
X113695000Y-128490000D02*
X112570000Y-129615000D01*
%TO.N,S_IN7A*%
X115472613Y-128000000D02*
X111645000Y-128000000D01*
X117147613Y-126424999D02*
X117047613Y-126425000D01*
X124072612Y-119500000D02*
X117147613Y-126424999D01*
X117047613Y-126425000D02*
X115472613Y-128000000D01*
X111645000Y-128000000D02*
X110030000Y-129615000D01*
X126100000Y-119500000D02*
X124072612Y-119500000D01*
%TO.N,S_IN7B*%
X115306937Y-127600000D02*
X111479314Y-127600000D01*
X124244543Y-118700000D02*
X120669543Y-122275000D01*
X111245000Y-127834315D02*
X109270685Y-127834315D01*
X111479314Y-127600000D02*
X111245000Y-127834315D01*
X125600000Y-118700000D02*
X124244543Y-118700000D01*
X120631937Y-122275000D02*
X115306937Y-127600000D01*
X120669543Y-122275000D02*
X120631937Y-122275000D01*
X109270685Y-127834315D02*
X107490000Y-129615000D01*
%TO.N,S_IN8A*%
X111313629Y-127200001D02*
X111138630Y-127375000D01*
X111138630Y-127375000D02*
X104650000Y-127375000D01*
X120466246Y-121875000D02*
X115141245Y-127200000D01*
X120503858Y-121875000D02*
X120466246Y-121875000D01*
X125700000Y-117600000D02*
X124778859Y-117600000D01*
X104650000Y-127375000D02*
X102410000Y-129615000D01*
X124778859Y-117600000D02*
X120503858Y-121875000D01*
X115141245Y-127200000D02*
X111313629Y-127200001D01*
%TO.N,S_IN8B*%
X111147942Y-126800001D02*
X110972943Y-126975000D01*
X110972943Y-126975000D02*
X102510000Y-126975000D01*
X114975560Y-126800000D02*
X111147942Y-126800001D01*
X120338173Y-121475000D02*
X120300560Y-121475000D01*
X102510000Y-126975000D02*
X99870000Y-129615000D01*
X120300560Y-121475000D02*
X114975560Y-126800000D01*
X125013173Y-116800000D02*
X120338173Y-121475000D01*
X125600000Y-116800000D02*
X125013173Y-116800000D01*
%TO.N,S_OUT6*%
X98005000Y-113700000D02*
X92300000Y-113700000D01*
X86700000Y-129489546D02*
X87810454Y-130600000D01*
X92300000Y-113700000D02*
X86700000Y-119300000D01*
X86700000Y-119300000D02*
X86700000Y-129489546D01*
X99870000Y-111835000D02*
X98005000Y-113700000D01*
%TO.N,S_OUT5*%
X81370405Y-118200000D02*
X78203793Y-121366612D01*
X78203793Y-125996207D02*
X73700000Y-130500000D01*
X82300000Y-118200000D02*
X81370405Y-118200000D01*
X72900000Y-131300000D02*
X72800000Y-131300000D01*
X100995000Y-108910000D02*
X91590000Y-108910000D01*
X102410000Y-111835000D02*
X102410000Y-110325000D01*
X78203793Y-121366612D02*
X78203793Y-125996207D01*
X102410000Y-110325000D02*
X100995000Y-108910000D01*
X91590000Y-108910000D02*
X82300000Y-118200000D01*
X73700000Y-130500000D02*
X72900000Y-131300000D01*
%TO.N,S_OUT4*%
X96086827Y-134100000D02*
X100800000Y-134100000D01*
X93700000Y-115500000D02*
X90400000Y-118800000D01*
X103825000Y-112508910D02*
X100833910Y-115500000D01*
X90400000Y-118800000D02*
X90400000Y-128413173D01*
X90400000Y-128413173D02*
X96086827Y-134100000D01*
X103825000Y-108910000D02*
X103825000Y-112508910D01*
X100833910Y-115500000D02*
X93700000Y-115500000D01*
X106075000Y-108910000D02*
X103825000Y-108910000D01*
X107490000Y-110325000D02*
X106075000Y-108910000D01*
X107490000Y-111835000D02*
X107490000Y-110325000D01*
%TO.N,S_OUT3*%
X102600000Y-124900000D02*
X101300000Y-126200000D01*
X110030000Y-111835000D02*
X110030000Y-113370000D01*
X106600000Y-116800000D02*
X106600000Y-122400000D01*
X101300000Y-126200000D02*
X99200000Y-126200000D01*
X104100000Y-124900000D02*
X102600000Y-124900000D01*
X106600000Y-122400000D02*
X104100000Y-124900000D01*
X95175000Y-130225000D02*
X93769987Y-130225000D01*
X99200000Y-126200000D02*
X95175000Y-130225000D01*
X110030000Y-113370000D02*
X106600000Y-116800000D01*
%TO.N,S_OUT2*%
X112570000Y-115070000D02*
X118759610Y-121259610D01*
X112570000Y-111835000D02*
X112570000Y-115070000D01*
X118759610Y-121259610D02*
X119407326Y-121259610D01*
%TO.N,S_OUT1*%
X115110000Y-111835000D02*
X120000000Y-116725000D01*
X120000000Y-116725000D02*
X120000000Y-120800000D01*
%TD*%
M02*
