%TF.GenerationSoftware,KiCad,Pcbnew,5.1.6-c6e7f7d~87~ubuntu18.04.1*%
%TF.CreationDate,2022-03-05T00:23:36+01:00*%
%TF.ProjectId,door_if2,646f6f72-5f69-4663-922e-6b696361645f,rev?*%
%TF.SameCoordinates,Original*%
%TF.FileFunction,Soldermask,Top*%
%TF.FilePolarity,Negative*%
%FSLAX46Y46*%
G04 Gerber Fmt 4.6, Leading zero omitted, Abs format (unit mm)*
G04 Created by KiCad (PCBNEW 5.1.6-c6e7f7d~87~ubuntu18.04.1) date 2022-03-05 00:23:36*
%MOMM*%
%LPD*%
G01*
G04 APERTURE LIST*
%ADD10C,0.100000*%
G04 APERTURE END LIST*
D10*
G36*
X113389499Y-117078445D02*
G01*
X113426995Y-117089820D01*
X113461554Y-117108292D01*
X113491847Y-117133153D01*
X113516708Y-117163446D01*
X113535180Y-117198005D01*
X113546555Y-117235501D01*
X113551000Y-117280638D01*
X113551000Y-117919362D01*
X113546555Y-117964499D01*
X113535180Y-118001995D01*
X113516708Y-118036554D01*
X113491847Y-118066847D01*
X113461554Y-118091708D01*
X113426995Y-118110180D01*
X113389499Y-118121555D01*
X113344362Y-118126000D01*
X112605638Y-118126000D01*
X112560501Y-118121555D01*
X112523005Y-118110180D01*
X112488446Y-118091708D01*
X112458153Y-118066847D01*
X112433292Y-118036554D01*
X112414820Y-118001995D01*
X112403445Y-117964499D01*
X112399000Y-117919362D01*
X112399000Y-117280638D01*
X112403445Y-117235501D01*
X112414820Y-117198005D01*
X112433292Y-117163446D01*
X112458153Y-117133153D01*
X112488446Y-117108292D01*
X112523005Y-117089820D01*
X112560501Y-117078445D01*
X112605638Y-117074000D01*
X113344362Y-117074000D01*
X113389499Y-117078445D01*
G37*
G36*
X111639499Y-117078445D02*
G01*
X111676995Y-117089820D01*
X111711554Y-117108292D01*
X111741847Y-117133153D01*
X111766708Y-117163446D01*
X111785180Y-117198005D01*
X111796555Y-117235501D01*
X111801000Y-117280638D01*
X111801000Y-117919362D01*
X111796555Y-117964499D01*
X111785180Y-118001995D01*
X111766708Y-118036554D01*
X111741847Y-118066847D01*
X111711554Y-118091708D01*
X111676995Y-118110180D01*
X111639499Y-118121555D01*
X111594362Y-118126000D01*
X110855638Y-118126000D01*
X110810501Y-118121555D01*
X110773005Y-118110180D01*
X110738446Y-118091708D01*
X110708153Y-118066847D01*
X110683292Y-118036554D01*
X110664820Y-118001995D01*
X110653445Y-117964499D01*
X110649000Y-117919362D01*
X110649000Y-117280638D01*
X110653445Y-117235501D01*
X110664820Y-117198005D01*
X110683292Y-117163446D01*
X110708153Y-117133153D01*
X110738446Y-117108292D01*
X110773005Y-117089820D01*
X110810501Y-117078445D01*
X110855638Y-117074000D01*
X111594362Y-117074000D01*
X111639499Y-117078445D01*
G37*
G36*
X96651000Y-117701000D02*
G01*
X92949000Y-117701000D01*
X92949000Y-116099000D01*
X96651000Y-116099000D01*
X96651000Y-117701000D01*
G37*
G36*
X101551000Y-117401000D02*
G01*
X100149000Y-117401000D01*
X100149000Y-116499000D01*
X101551000Y-116499000D01*
X101551000Y-117401000D01*
G37*
G36*
X107851000Y-117401000D02*
G01*
X106449000Y-117401000D01*
X106449000Y-116499000D01*
X107851000Y-116499000D01*
X107851000Y-117401000D01*
G37*
G36*
X83990245Y-114433292D02*
G01*
X84113658Y-114457840D01*
X84219268Y-114501586D01*
X84368622Y-114563450D01*
X84368623Y-114563451D01*
X84598087Y-114716773D01*
X84793229Y-114911915D01*
X84809990Y-114937000D01*
X84946552Y-115141380D01*
X84978703Y-115219000D01*
X85052162Y-115396344D01*
X85067602Y-115473969D01*
X85106001Y-115667013D01*
X85106001Y-115942989D01*
X85052162Y-116213657D01*
X84946552Y-116468622D01*
X84946551Y-116468623D01*
X84793229Y-116698087D01*
X84598087Y-116893229D01*
X84444764Y-116995676D01*
X84368622Y-117046552D01*
X84254024Y-117094020D01*
X84113658Y-117152162D01*
X84023434Y-117170108D01*
X83842989Y-117206001D01*
X83567013Y-117206001D01*
X83386568Y-117170108D01*
X83296344Y-117152162D01*
X83155978Y-117094020D01*
X83041380Y-117046552D01*
X82965238Y-116995676D01*
X82811915Y-116893229D01*
X82616773Y-116698087D01*
X82463451Y-116468623D01*
X82463450Y-116468622D01*
X82357840Y-116213657D01*
X82304001Y-115942989D01*
X82304001Y-115667013D01*
X82342400Y-115473969D01*
X82357840Y-115396344D01*
X82431299Y-115219000D01*
X82463450Y-115141380D01*
X82600012Y-114937000D01*
X82616773Y-114911915D01*
X82811915Y-114716773D01*
X83041379Y-114563451D01*
X83041380Y-114563450D01*
X83190734Y-114501586D01*
X83296344Y-114457840D01*
X83419757Y-114433292D01*
X83567013Y-114404001D01*
X83842989Y-114404001D01*
X83990245Y-114433292D01*
G37*
G36*
X141990245Y-114433292D02*
G01*
X142113658Y-114457840D01*
X142219268Y-114501586D01*
X142368622Y-114563450D01*
X142368623Y-114563451D01*
X142598087Y-114716773D01*
X142793229Y-114911915D01*
X142809990Y-114937000D01*
X142946552Y-115141380D01*
X142978703Y-115219000D01*
X143052162Y-115396344D01*
X143067602Y-115473969D01*
X143106001Y-115667013D01*
X143106001Y-115942989D01*
X143052162Y-116213657D01*
X142946552Y-116468622D01*
X142946551Y-116468623D01*
X142793229Y-116698087D01*
X142598087Y-116893229D01*
X142444764Y-116995676D01*
X142368622Y-117046552D01*
X142254024Y-117094020D01*
X142113658Y-117152162D01*
X142023434Y-117170108D01*
X141842989Y-117206001D01*
X141567013Y-117206001D01*
X141386568Y-117170108D01*
X141296344Y-117152162D01*
X141155978Y-117094020D01*
X141041380Y-117046552D01*
X140965238Y-116995676D01*
X140811915Y-116893229D01*
X140616773Y-116698087D01*
X140463451Y-116468623D01*
X140463450Y-116468622D01*
X140357840Y-116213657D01*
X140304001Y-115942989D01*
X140304001Y-115667013D01*
X140342400Y-115473969D01*
X140357840Y-115396344D01*
X140431299Y-115219000D01*
X140463450Y-115141380D01*
X140600012Y-114937000D01*
X140616773Y-114911915D01*
X140811915Y-114716773D01*
X141041379Y-114563451D01*
X141041380Y-114563450D01*
X141190734Y-114501586D01*
X141296344Y-114457840D01*
X141419757Y-114433292D01*
X141567013Y-114404001D01*
X141842989Y-114404001D01*
X141990245Y-114433292D01*
G37*
G36*
X107851000Y-116121000D02*
G01*
X106449000Y-116121000D01*
X106449000Y-115219000D01*
X107851000Y-115219000D01*
X107851000Y-116121000D01*
G37*
G36*
X101551000Y-116121000D02*
G01*
X100149000Y-116121000D01*
X100149000Y-115219000D01*
X101551000Y-115219000D01*
X101551000Y-116121000D01*
G37*
G36*
X113389499Y-114678445D02*
G01*
X113426995Y-114689820D01*
X113461554Y-114708292D01*
X113491847Y-114733153D01*
X113516708Y-114763446D01*
X113535180Y-114798005D01*
X113546555Y-114835501D01*
X113551000Y-114880638D01*
X113551000Y-115519362D01*
X113546555Y-115564499D01*
X113535180Y-115601995D01*
X113516708Y-115636554D01*
X113491847Y-115666847D01*
X113461554Y-115691708D01*
X113426995Y-115710180D01*
X113389499Y-115721555D01*
X113344362Y-115726000D01*
X112605638Y-115726000D01*
X112560501Y-115721555D01*
X112523005Y-115710180D01*
X112488446Y-115691708D01*
X112458153Y-115666847D01*
X112433292Y-115636554D01*
X112414820Y-115601995D01*
X112403445Y-115564499D01*
X112399000Y-115519362D01*
X112399000Y-114880638D01*
X112403445Y-114835501D01*
X112414820Y-114798005D01*
X112433292Y-114763446D01*
X112458153Y-114733153D01*
X112488446Y-114708292D01*
X112523005Y-114689820D01*
X112560501Y-114678445D01*
X112605638Y-114674000D01*
X113344362Y-114674000D01*
X113389499Y-114678445D01*
G37*
G36*
X111639499Y-114678445D02*
G01*
X111676995Y-114689820D01*
X111711554Y-114708292D01*
X111741847Y-114733153D01*
X111766708Y-114763446D01*
X111785180Y-114798005D01*
X111796555Y-114835501D01*
X111801000Y-114880638D01*
X111801000Y-115519362D01*
X111796555Y-115564499D01*
X111785180Y-115601995D01*
X111766708Y-115636554D01*
X111741847Y-115666847D01*
X111711554Y-115691708D01*
X111676995Y-115710180D01*
X111639499Y-115721555D01*
X111594362Y-115726000D01*
X110855638Y-115726000D01*
X110810501Y-115721555D01*
X110773005Y-115710180D01*
X110738446Y-115691708D01*
X110708153Y-115666847D01*
X110683292Y-115636554D01*
X110664820Y-115601995D01*
X110653445Y-115564499D01*
X110649000Y-115519362D01*
X110649000Y-114880638D01*
X110653445Y-114835501D01*
X110664820Y-114798005D01*
X110683292Y-114763446D01*
X110708153Y-114733153D01*
X110738446Y-114708292D01*
X110773005Y-114689820D01*
X110810501Y-114678445D01*
X110855638Y-114674000D01*
X111594362Y-114674000D01*
X111639499Y-114678445D01*
G37*
G36*
X98864499Y-114403445D02*
G01*
X98901995Y-114414820D01*
X98936554Y-114433292D01*
X98966847Y-114458153D01*
X98991708Y-114488446D01*
X99010180Y-114523005D01*
X99021555Y-114560501D01*
X99026000Y-114605638D01*
X99026000Y-115344362D01*
X99021555Y-115389499D01*
X99010180Y-115426995D01*
X98991708Y-115461554D01*
X98966847Y-115491847D01*
X98936554Y-115516708D01*
X98901995Y-115535180D01*
X98864499Y-115546555D01*
X98819362Y-115551000D01*
X98180638Y-115551000D01*
X98135501Y-115546555D01*
X98098005Y-115535180D01*
X98063446Y-115516708D01*
X98033153Y-115491847D01*
X98008292Y-115461554D01*
X97989820Y-115426995D01*
X97978445Y-115389499D01*
X97974000Y-115344362D01*
X97974000Y-114605638D01*
X97978445Y-114560501D01*
X97989820Y-114523005D01*
X98008292Y-114488446D01*
X98033153Y-114458153D01*
X98063446Y-114433292D01*
X98098005Y-114414820D01*
X98135501Y-114403445D01*
X98180638Y-114399000D01*
X98819362Y-114399000D01*
X98864499Y-114403445D01*
G37*
G36*
X107851000Y-114861000D02*
G01*
X106449000Y-114861000D01*
X106449000Y-113959000D01*
X107851000Y-113959000D01*
X107851000Y-114861000D01*
G37*
G36*
X101551000Y-114861000D02*
G01*
X100149000Y-114861000D01*
X100149000Y-113959000D01*
X101551000Y-113959000D01*
X101551000Y-114861000D01*
G37*
G36*
X96651000Y-114801000D02*
G01*
X92949000Y-114801000D01*
X92949000Y-113199000D01*
X96651000Y-113199000D01*
X96651000Y-114801000D01*
G37*
G36*
X117864499Y-113078445D02*
G01*
X117901995Y-113089820D01*
X117936554Y-113108292D01*
X117966847Y-113133153D01*
X117991708Y-113163446D01*
X118010180Y-113198005D01*
X118021555Y-113235501D01*
X118026000Y-113280638D01*
X118026000Y-113919362D01*
X118021555Y-113964499D01*
X118010180Y-114001995D01*
X117991708Y-114036554D01*
X117966847Y-114066847D01*
X117936554Y-114091708D01*
X117901995Y-114110180D01*
X117864499Y-114121555D01*
X117819362Y-114126000D01*
X117080638Y-114126000D01*
X117035501Y-114121555D01*
X116998005Y-114110180D01*
X116963446Y-114091708D01*
X116933153Y-114066847D01*
X116908292Y-114036554D01*
X116889820Y-114001995D01*
X116878445Y-113964499D01*
X116874000Y-113919362D01*
X116874000Y-113280638D01*
X116878445Y-113235501D01*
X116889820Y-113198005D01*
X116908292Y-113163446D01*
X116933153Y-113133153D01*
X116963446Y-113108292D01*
X116998005Y-113089820D01*
X117035501Y-113078445D01*
X117080638Y-113074000D01*
X117819362Y-113074000D01*
X117864499Y-113078445D01*
G37*
G36*
X119614499Y-113078445D02*
G01*
X119651995Y-113089820D01*
X119686554Y-113108292D01*
X119716847Y-113133153D01*
X119741708Y-113163446D01*
X119760180Y-113198005D01*
X119771555Y-113235501D01*
X119776000Y-113280638D01*
X119776000Y-113919362D01*
X119771555Y-113964499D01*
X119760180Y-114001995D01*
X119741708Y-114036554D01*
X119716847Y-114066847D01*
X119686554Y-114091708D01*
X119651995Y-114110180D01*
X119614499Y-114121555D01*
X119569362Y-114126000D01*
X118830638Y-114126000D01*
X118785501Y-114121555D01*
X118748005Y-114110180D01*
X118713446Y-114091708D01*
X118683153Y-114066847D01*
X118658292Y-114036554D01*
X118639820Y-114001995D01*
X118628445Y-113964499D01*
X118624000Y-113919362D01*
X118624000Y-113280638D01*
X118628445Y-113235501D01*
X118639820Y-113198005D01*
X118658292Y-113163446D01*
X118683153Y-113133153D01*
X118713446Y-113108292D01*
X118748005Y-113089820D01*
X118785501Y-113078445D01*
X118830638Y-113074000D01*
X119569362Y-113074000D01*
X119614499Y-113078445D01*
G37*
G36*
X98864499Y-112653445D02*
G01*
X98901995Y-112664820D01*
X98936554Y-112683292D01*
X98966847Y-112708153D01*
X98991708Y-112738446D01*
X99010180Y-112773005D01*
X99021555Y-112810501D01*
X99026000Y-112855638D01*
X99026000Y-113594362D01*
X99021555Y-113639499D01*
X99010180Y-113676995D01*
X98991708Y-113711554D01*
X98966847Y-113741847D01*
X98936554Y-113766708D01*
X98901995Y-113785180D01*
X98864499Y-113796555D01*
X98819362Y-113801000D01*
X98180638Y-113801000D01*
X98135501Y-113796555D01*
X98098005Y-113785180D01*
X98063446Y-113766708D01*
X98033153Y-113741847D01*
X98008292Y-113711554D01*
X97989820Y-113676995D01*
X97978445Y-113639499D01*
X97974000Y-113594362D01*
X97974000Y-112855638D01*
X97978445Y-112810501D01*
X97989820Y-112773005D01*
X98008292Y-112738446D01*
X98033153Y-112708153D01*
X98063446Y-112683292D01*
X98098005Y-112664820D01*
X98135501Y-112653445D01*
X98180638Y-112649000D01*
X98819362Y-112649000D01*
X98864499Y-112653445D01*
G37*
G36*
X101551000Y-113591000D02*
G01*
X100149000Y-113591000D01*
X100149000Y-112689000D01*
X101551000Y-112689000D01*
X101551000Y-113591000D01*
G37*
G36*
X107851000Y-113591000D02*
G01*
X106449000Y-113591000D01*
X106449000Y-112689000D01*
X107851000Y-112689000D01*
X107851000Y-113591000D01*
G37*
G36*
X132501000Y-113201000D02*
G01*
X128899000Y-113201000D01*
X128899000Y-110799000D01*
X132501000Y-110799000D01*
X132501000Y-113201000D01*
G37*
G36*
X127101000Y-113201000D02*
G01*
X123499000Y-113201000D01*
X123499000Y-110799000D01*
X127101000Y-110799000D01*
X127101000Y-113201000D01*
G37*
G36*
X114651000Y-112801000D02*
G01*
X110949000Y-112801000D01*
X110949000Y-111199000D01*
X114651000Y-111199000D01*
X114651000Y-112801000D01*
G37*
G36*
X107851000Y-112311000D02*
G01*
X106449000Y-112311000D01*
X106449000Y-111409000D01*
X107851000Y-111409000D01*
X107851000Y-112311000D01*
G37*
G36*
X101551000Y-112311000D02*
G01*
X100149000Y-112311000D01*
X100149000Y-111409000D01*
X101551000Y-111409000D01*
X101551000Y-112311000D01*
G37*
G36*
X122609928Y-111556764D02*
G01*
X122631009Y-111563160D01*
X122650445Y-111573548D01*
X122667476Y-111587524D01*
X122681452Y-111604555D01*
X122691840Y-111623991D01*
X122698236Y-111645072D01*
X122701000Y-111673140D01*
X122701000Y-112136860D01*
X122698236Y-112164928D01*
X122691840Y-112186009D01*
X122681452Y-112205445D01*
X122667476Y-112222476D01*
X122650445Y-112236452D01*
X122631009Y-112246840D01*
X122609928Y-112253236D01*
X122581860Y-112256000D01*
X120968140Y-112256000D01*
X120940072Y-112253236D01*
X120918991Y-112246840D01*
X120899555Y-112236452D01*
X120882524Y-112222476D01*
X120868548Y-112205445D01*
X120858160Y-112186009D01*
X120851764Y-112164928D01*
X120849000Y-112136860D01*
X120849000Y-111673140D01*
X120851764Y-111645072D01*
X120858160Y-111623991D01*
X120868548Y-111604555D01*
X120882524Y-111587524D01*
X120899555Y-111573548D01*
X120918991Y-111563160D01*
X120940072Y-111556764D01*
X120968140Y-111554000D01*
X122581860Y-111554000D01*
X122609928Y-111556764D01*
G37*
G36*
X117459928Y-111556764D02*
G01*
X117481009Y-111563160D01*
X117500445Y-111573548D01*
X117517476Y-111587524D01*
X117531452Y-111604555D01*
X117541840Y-111623991D01*
X117548236Y-111645072D01*
X117551000Y-111673140D01*
X117551000Y-112136860D01*
X117548236Y-112164928D01*
X117541840Y-112186009D01*
X117531452Y-112205445D01*
X117517476Y-112222476D01*
X117500445Y-112236452D01*
X117481009Y-112246840D01*
X117459928Y-112253236D01*
X117431860Y-112256000D01*
X115818140Y-112256000D01*
X115790072Y-112253236D01*
X115768991Y-112246840D01*
X115749555Y-112236452D01*
X115732524Y-112222476D01*
X115718548Y-112205445D01*
X115708160Y-112186009D01*
X115701764Y-112164928D01*
X115699000Y-112136860D01*
X115699000Y-111673140D01*
X115701764Y-111645072D01*
X115708160Y-111623991D01*
X115718548Y-111604555D01*
X115732524Y-111587524D01*
X115749555Y-111573548D01*
X115768991Y-111563160D01*
X115790072Y-111556764D01*
X115818140Y-111554000D01*
X117431860Y-111554000D01*
X117459928Y-111556764D01*
G37*
G36*
X96651000Y-111901000D02*
G01*
X92949000Y-111901000D01*
X92949000Y-110299000D01*
X96651000Y-110299000D01*
X96651000Y-111901000D01*
G37*
G36*
X107851000Y-111041000D02*
G01*
X106449000Y-111041000D01*
X106449000Y-110139000D01*
X107851000Y-110139000D01*
X107851000Y-111041000D01*
G37*
G36*
X101551000Y-111041000D02*
G01*
X100149000Y-111041000D01*
X100149000Y-110139000D01*
X101551000Y-110139000D01*
X101551000Y-111041000D01*
G37*
G36*
X122609928Y-110286764D02*
G01*
X122631009Y-110293160D01*
X122650445Y-110303548D01*
X122667476Y-110317524D01*
X122681452Y-110334555D01*
X122691840Y-110353991D01*
X122698236Y-110375072D01*
X122701000Y-110403140D01*
X122701000Y-110866860D01*
X122698236Y-110894928D01*
X122691840Y-110916009D01*
X122681452Y-110935445D01*
X122667476Y-110952476D01*
X122650445Y-110966452D01*
X122631009Y-110976840D01*
X122609928Y-110983236D01*
X122581860Y-110986000D01*
X120968140Y-110986000D01*
X120940072Y-110983236D01*
X120918991Y-110976840D01*
X120899555Y-110966452D01*
X120882524Y-110952476D01*
X120868548Y-110935445D01*
X120858160Y-110916009D01*
X120851764Y-110894928D01*
X120849000Y-110866860D01*
X120849000Y-110403140D01*
X120851764Y-110375072D01*
X120858160Y-110353991D01*
X120868548Y-110334555D01*
X120882524Y-110317524D01*
X120899555Y-110303548D01*
X120918991Y-110293160D01*
X120940072Y-110286764D01*
X120968140Y-110284000D01*
X122581860Y-110284000D01*
X122609928Y-110286764D01*
G37*
G36*
X117459928Y-110286764D02*
G01*
X117481009Y-110293160D01*
X117500445Y-110303548D01*
X117517476Y-110317524D01*
X117531452Y-110334555D01*
X117541840Y-110353991D01*
X117548236Y-110375072D01*
X117551000Y-110403140D01*
X117551000Y-110866860D01*
X117548236Y-110894928D01*
X117541840Y-110916009D01*
X117531452Y-110935445D01*
X117517476Y-110952476D01*
X117500445Y-110966452D01*
X117481009Y-110976840D01*
X117459928Y-110983236D01*
X117431860Y-110986000D01*
X115818140Y-110986000D01*
X115790072Y-110983236D01*
X115768991Y-110976840D01*
X115749555Y-110966452D01*
X115732524Y-110952476D01*
X115718548Y-110935445D01*
X115708160Y-110916009D01*
X115701764Y-110894928D01*
X115699000Y-110866860D01*
X115699000Y-110403140D01*
X115701764Y-110375072D01*
X115708160Y-110353991D01*
X115718548Y-110334555D01*
X115732524Y-110317524D01*
X115749555Y-110303548D01*
X115768991Y-110293160D01*
X115790072Y-110286764D01*
X115818140Y-110284000D01*
X117431860Y-110284000D01*
X117459928Y-110286764D01*
G37*
G36*
X114651000Y-110101000D02*
G01*
X110949000Y-110101000D01*
X110949000Y-108499000D01*
X114651000Y-108499000D01*
X114651000Y-110101000D01*
G37*
G36*
X89659472Y-107208412D02*
G01*
X89755040Y-107217825D01*
X90000280Y-107292218D01*
X90226294Y-107413025D01*
X90277899Y-107455376D01*
X90424397Y-107575603D01*
X90517712Y-107689309D01*
X90586975Y-107773706D01*
X90707782Y-107999720D01*
X90782175Y-108244960D01*
X90807294Y-108500000D01*
X90782175Y-108755040D01*
X90707782Y-109000280D01*
X90586975Y-109226294D01*
X90544624Y-109277899D01*
X90424397Y-109424397D01*
X90290704Y-109534115D01*
X90226294Y-109586975D01*
X90000280Y-109707782D01*
X89755040Y-109782175D01*
X89659473Y-109791587D01*
X89563906Y-109801000D01*
X88436094Y-109801000D01*
X88340527Y-109791587D01*
X88244960Y-109782175D01*
X87999720Y-109707782D01*
X87773706Y-109586975D01*
X87709296Y-109534115D01*
X87575603Y-109424397D01*
X87455376Y-109277899D01*
X87413025Y-109226294D01*
X87292218Y-109000280D01*
X87217825Y-108755040D01*
X87192706Y-108500000D01*
X87217825Y-108244960D01*
X87292218Y-107999720D01*
X87413025Y-107773706D01*
X87482288Y-107689309D01*
X87575603Y-107575603D01*
X87722101Y-107455376D01*
X87773706Y-107413025D01*
X87999720Y-107292218D01*
X88244960Y-107217825D01*
X88340528Y-107208412D01*
X88436094Y-107199000D01*
X89563906Y-107199000D01*
X89659472Y-107208412D01*
G37*
G36*
X101551000Y-109781000D02*
G01*
X100149000Y-109781000D01*
X100149000Y-108879000D01*
X101551000Y-108879000D01*
X101551000Y-109781000D01*
G37*
G36*
X107851000Y-109781000D02*
G01*
X106449000Y-109781000D01*
X106449000Y-108879000D01*
X107851000Y-108879000D01*
X107851000Y-109781000D01*
G37*
G36*
X117459928Y-109016764D02*
G01*
X117481009Y-109023160D01*
X117500445Y-109033548D01*
X117517476Y-109047524D01*
X117531452Y-109064555D01*
X117541840Y-109083991D01*
X117548236Y-109105072D01*
X117551000Y-109133140D01*
X117551000Y-109596860D01*
X117548236Y-109624928D01*
X117541840Y-109646009D01*
X117531452Y-109665445D01*
X117517476Y-109682476D01*
X117500445Y-109696452D01*
X117481009Y-109706840D01*
X117459928Y-109713236D01*
X117431860Y-109716000D01*
X115818140Y-109716000D01*
X115790072Y-109713236D01*
X115768991Y-109706840D01*
X115749555Y-109696452D01*
X115732524Y-109682476D01*
X115718548Y-109665445D01*
X115708160Y-109646009D01*
X115701764Y-109624928D01*
X115699000Y-109596860D01*
X115699000Y-109133140D01*
X115701764Y-109105072D01*
X115708160Y-109083991D01*
X115718548Y-109064555D01*
X115732524Y-109047524D01*
X115749555Y-109033548D01*
X115768991Y-109023160D01*
X115790072Y-109016764D01*
X115818140Y-109014000D01*
X117431860Y-109014000D01*
X117459928Y-109016764D01*
G37*
G36*
X122609928Y-109016764D02*
G01*
X122631009Y-109023160D01*
X122650445Y-109033548D01*
X122667476Y-109047524D01*
X122681452Y-109064555D01*
X122691840Y-109083991D01*
X122698236Y-109105072D01*
X122701000Y-109133140D01*
X122701000Y-109596860D01*
X122698236Y-109624928D01*
X122691840Y-109646009D01*
X122681452Y-109665445D01*
X122667476Y-109682476D01*
X122650445Y-109696452D01*
X122631009Y-109706840D01*
X122609928Y-109713236D01*
X122581860Y-109716000D01*
X120968140Y-109716000D01*
X120940072Y-109713236D01*
X120918991Y-109706840D01*
X120899555Y-109696452D01*
X120882524Y-109682476D01*
X120868548Y-109665445D01*
X120858160Y-109646009D01*
X120851764Y-109624928D01*
X120849000Y-109596860D01*
X120849000Y-109133140D01*
X120851764Y-109105072D01*
X120858160Y-109083991D01*
X120868548Y-109064555D01*
X120882524Y-109047524D01*
X120899555Y-109033548D01*
X120918991Y-109023160D01*
X120940072Y-109016764D01*
X120968140Y-109014000D01*
X122581860Y-109014000D01*
X122609928Y-109016764D01*
G37*
G36*
X98864499Y-108503445D02*
G01*
X98901995Y-108514820D01*
X98936554Y-108533292D01*
X98966847Y-108558153D01*
X98991708Y-108588446D01*
X99010180Y-108623005D01*
X99021555Y-108660501D01*
X99026000Y-108705638D01*
X99026000Y-109444362D01*
X99021555Y-109489499D01*
X99010180Y-109526995D01*
X98991708Y-109561554D01*
X98966847Y-109591847D01*
X98936554Y-109616708D01*
X98901995Y-109635180D01*
X98864499Y-109646555D01*
X98819362Y-109651000D01*
X98180638Y-109651000D01*
X98135501Y-109646555D01*
X98098005Y-109635180D01*
X98063446Y-109616708D01*
X98033153Y-109591847D01*
X98008292Y-109561554D01*
X97989820Y-109526995D01*
X97978445Y-109489499D01*
X97974000Y-109444362D01*
X97974000Y-108705638D01*
X97978445Y-108660501D01*
X97989820Y-108623005D01*
X98008292Y-108588446D01*
X98033153Y-108558153D01*
X98063446Y-108533292D01*
X98098005Y-108514820D01*
X98135501Y-108503445D01*
X98180638Y-108499000D01*
X98819362Y-108499000D01*
X98864499Y-108503445D01*
G37*
G36*
X136659473Y-106708413D02*
G01*
X136755040Y-106717825D01*
X137000280Y-106792218D01*
X137000282Y-106792219D01*
X137030092Y-106808153D01*
X137226294Y-106913025D01*
X137277899Y-106955376D01*
X137424397Y-107075603D01*
X137525665Y-107199000D01*
X137586975Y-107273706D01*
X137707782Y-107499720D01*
X137782175Y-107744960D01*
X137807294Y-108000000D01*
X137782175Y-108255040D01*
X137707782Y-108500280D01*
X137586975Y-108726294D01*
X137544624Y-108777899D01*
X137424397Y-108924397D01*
X137298936Y-109027359D01*
X137226294Y-109086975D01*
X137000280Y-109207782D01*
X136755040Y-109282175D01*
X136659472Y-109291588D01*
X136563906Y-109301000D01*
X135436094Y-109301000D01*
X135340528Y-109291588D01*
X135244960Y-109282175D01*
X134999720Y-109207782D01*
X134773706Y-109086975D01*
X134701064Y-109027359D01*
X134575603Y-108924397D01*
X134455376Y-108777899D01*
X134413025Y-108726294D01*
X134292218Y-108500280D01*
X134217825Y-108255040D01*
X134192706Y-108000000D01*
X134217825Y-107744960D01*
X134292218Y-107499720D01*
X134413025Y-107273706D01*
X134474335Y-107199000D01*
X134575603Y-107075603D01*
X134722101Y-106955376D01*
X134773706Y-106913025D01*
X134969908Y-106808153D01*
X134999718Y-106792219D01*
X134999720Y-106792218D01*
X135244960Y-106717825D01*
X135340527Y-106708413D01*
X135436094Y-106699000D01*
X136563906Y-106699000D01*
X136659473Y-106708413D01*
G37*
G36*
X96751000Y-109101000D02*
G01*
X93049000Y-109101000D01*
X93049000Y-107499000D01*
X96751000Y-107499000D01*
X96751000Y-109101000D01*
G37*
G36*
X107851000Y-108501000D02*
G01*
X106449000Y-108501000D01*
X106449000Y-107599000D01*
X107851000Y-107599000D01*
X107851000Y-108501000D01*
G37*
G36*
X101551000Y-108501000D02*
G01*
X100149000Y-108501000D01*
X100149000Y-107599000D01*
X101551000Y-107599000D01*
X101551000Y-108501000D01*
G37*
G36*
X122609928Y-107746764D02*
G01*
X122631009Y-107753160D01*
X122650445Y-107763548D01*
X122667476Y-107777524D01*
X122681452Y-107794555D01*
X122691840Y-107813991D01*
X122698236Y-107835072D01*
X122701000Y-107863140D01*
X122701000Y-108326860D01*
X122698236Y-108354928D01*
X122691840Y-108376009D01*
X122681452Y-108395445D01*
X122667476Y-108412476D01*
X122650445Y-108426452D01*
X122631009Y-108436840D01*
X122609928Y-108443236D01*
X122581860Y-108446000D01*
X120968140Y-108446000D01*
X120940072Y-108443236D01*
X120918991Y-108436840D01*
X120899555Y-108426452D01*
X120882524Y-108412476D01*
X120868548Y-108395445D01*
X120858160Y-108376009D01*
X120851764Y-108354928D01*
X120849000Y-108326860D01*
X120849000Y-107863140D01*
X120851764Y-107835072D01*
X120858160Y-107813991D01*
X120868548Y-107794555D01*
X120882524Y-107777524D01*
X120899555Y-107763548D01*
X120918991Y-107753160D01*
X120940072Y-107746764D01*
X120968140Y-107744000D01*
X122581860Y-107744000D01*
X122609928Y-107746764D01*
G37*
G36*
X117459928Y-107746764D02*
G01*
X117481009Y-107753160D01*
X117500445Y-107763548D01*
X117517476Y-107777524D01*
X117531452Y-107794555D01*
X117541840Y-107813991D01*
X117548236Y-107835072D01*
X117551000Y-107863140D01*
X117551000Y-108326860D01*
X117548236Y-108354928D01*
X117541840Y-108376009D01*
X117531452Y-108395445D01*
X117517476Y-108412476D01*
X117500445Y-108426452D01*
X117481009Y-108436840D01*
X117459928Y-108443236D01*
X117431860Y-108446000D01*
X115818140Y-108446000D01*
X115790072Y-108443236D01*
X115768991Y-108436840D01*
X115749555Y-108426452D01*
X115732524Y-108412476D01*
X115718548Y-108395445D01*
X115708160Y-108376009D01*
X115701764Y-108354928D01*
X115699000Y-108326860D01*
X115699000Y-107863140D01*
X115701764Y-107835072D01*
X115708160Y-107813991D01*
X115718548Y-107794555D01*
X115732524Y-107777524D01*
X115749555Y-107763548D01*
X115768991Y-107753160D01*
X115790072Y-107746764D01*
X115818140Y-107744000D01*
X117431860Y-107744000D01*
X117459928Y-107746764D01*
G37*
G36*
X98864499Y-106753445D02*
G01*
X98901995Y-106764820D01*
X98936554Y-106783292D01*
X98966847Y-106808153D01*
X98991708Y-106838446D01*
X99010180Y-106873005D01*
X99021555Y-106910501D01*
X99026000Y-106955638D01*
X99026000Y-107694362D01*
X99021555Y-107739499D01*
X99010180Y-107776995D01*
X98991708Y-107811554D01*
X98966847Y-107841847D01*
X98936554Y-107866708D01*
X98901995Y-107885180D01*
X98864499Y-107896555D01*
X98819362Y-107901000D01*
X98180638Y-107901000D01*
X98135501Y-107896555D01*
X98098005Y-107885180D01*
X98063446Y-107866708D01*
X98033153Y-107841847D01*
X98008292Y-107811554D01*
X97989820Y-107776995D01*
X97978445Y-107739499D01*
X97974000Y-107694362D01*
X97974000Y-106955638D01*
X97978445Y-106910501D01*
X97989820Y-106873005D01*
X98008292Y-106838446D01*
X98033153Y-106808153D01*
X98063446Y-106783292D01*
X98098005Y-106764820D01*
X98135501Y-106753445D01*
X98180638Y-106749000D01*
X98819362Y-106749000D01*
X98864499Y-106753445D01*
G37*
G36*
X112839499Y-106578445D02*
G01*
X112876995Y-106589820D01*
X112911554Y-106608292D01*
X112941847Y-106633153D01*
X112966708Y-106663446D01*
X112985180Y-106698005D01*
X112996555Y-106735501D01*
X113001000Y-106780638D01*
X113001000Y-107419362D01*
X112996555Y-107464499D01*
X112985180Y-107501995D01*
X112966708Y-107536554D01*
X112941847Y-107566847D01*
X112911554Y-107591708D01*
X112876995Y-107610180D01*
X112839499Y-107621555D01*
X112794362Y-107626000D01*
X112055638Y-107626000D01*
X112010501Y-107621555D01*
X111973005Y-107610180D01*
X111938446Y-107591708D01*
X111908153Y-107566847D01*
X111883292Y-107536554D01*
X111864820Y-107501995D01*
X111853445Y-107464499D01*
X111849000Y-107419362D01*
X111849000Y-106780638D01*
X111853445Y-106735501D01*
X111864820Y-106698005D01*
X111883292Y-106663446D01*
X111908153Y-106633153D01*
X111938446Y-106608292D01*
X111973005Y-106589820D01*
X112010501Y-106578445D01*
X112055638Y-106574000D01*
X112794362Y-106574000D01*
X112839499Y-106578445D01*
G37*
G36*
X114589499Y-106578445D02*
G01*
X114626995Y-106589820D01*
X114661554Y-106608292D01*
X114691847Y-106633153D01*
X114716708Y-106663446D01*
X114735180Y-106698005D01*
X114746555Y-106735501D01*
X114751000Y-106780638D01*
X114751000Y-107419362D01*
X114746555Y-107464499D01*
X114735180Y-107501995D01*
X114716708Y-107536554D01*
X114691847Y-107566847D01*
X114661554Y-107591708D01*
X114626995Y-107610180D01*
X114589499Y-107621555D01*
X114544362Y-107626000D01*
X113805638Y-107626000D01*
X113760501Y-107621555D01*
X113723005Y-107610180D01*
X113688446Y-107591708D01*
X113658153Y-107566847D01*
X113633292Y-107536554D01*
X113614820Y-107501995D01*
X113603445Y-107464499D01*
X113599000Y-107419362D01*
X113599000Y-106780638D01*
X113603445Y-106735501D01*
X113614820Y-106698005D01*
X113633292Y-106663446D01*
X113658153Y-106633153D01*
X113688446Y-106608292D01*
X113723005Y-106589820D01*
X113760501Y-106578445D01*
X113805638Y-106574000D01*
X114544362Y-106574000D01*
X114589499Y-106578445D01*
G37*
G36*
X118039499Y-105878445D02*
G01*
X118076995Y-105889820D01*
X118111554Y-105908292D01*
X118141847Y-105933153D01*
X118166708Y-105963446D01*
X118185180Y-105998005D01*
X118196555Y-106035501D01*
X118201000Y-106080638D01*
X118201000Y-106719362D01*
X118196555Y-106764499D01*
X118185180Y-106801995D01*
X118166708Y-106836554D01*
X118141847Y-106866847D01*
X118111554Y-106891708D01*
X118076995Y-106910180D01*
X118039499Y-106921555D01*
X117994362Y-106926000D01*
X117255638Y-106926000D01*
X117210501Y-106921555D01*
X117173005Y-106910180D01*
X117138446Y-106891708D01*
X117108153Y-106866847D01*
X117083292Y-106836554D01*
X117064820Y-106801995D01*
X117053445Y-106764499D01*
X117049000Y-106719362D01*
X117049000Y-106080638D01*
X117053445Y-106035501D01*
X117064820Y-105998005D01*
X117083292Y-105963446D01*
X117108153Y-105933153D01*
X117138446Y-105908292D01*
X117173005Y-105889820D01*
X117210501Y-105878445D01*
X117255638Y-105874000D01*
X117994362Y-105874000D01*
X118039499Y-105878445D01*
G37*
G36*
X119789499Y-105878445D02*
G01*
X119826995Y-105889820D01*
X119861554Y-105908292D01*
X119891847Y-105933153D01*
X119916708Y-105963446D01*
X119935180Y-105998005D01*
X119946555Y-106035501D01*
X119951000Y-106080638D01*
X119951000Y-106719362D01*
X119946555Y-106764499D01*
X119935180Y-106801995D01*
X119916708Y-106836554D01*
X119891847Y-106866847D01*
X119861554Y-106891708D01*
X119826995Y-106910180D01*
X119789499Y-106921555D01*
X119744362Y-106926000D01*
X119005638Y-106926000D01*
X118960501Y-106921555D01*
X118923005Y-106910180D01*
X118888446Y-106891708D01*
X118858153Y-106866847D01*
X118833292Y-106836554D01*
X118814820Y-106801995D01*
X118803445Y-106764499D01*
X118799000Y-106719362D01*
X118799000Y-106080638D01*
X118803445Y-106035501D01*
X118814820Y-105998005D01*
X118833292Y-105963446D01*
X118858153Y-105933153D01*
X118888446Y-105908292D01*
X118923005Y-105889820D01*
X118960501Y-105878445D01*
X119005638Y-105874000D01*
X119744362Y-105874000D01*
X119789499Y-105878445D01*
G37*
G36*
X96851000Y-106401000D02*
G01*
X93149000Y-106401000D01*
X93149000Y-104799000D01*
X96851000Y-104799000D01*
X96851000Y-106401000D01*
G37*
G36*
X89659473Y-103708413D02*
G01*
X89755040Y-103717825D01*
X90000280Y-103792218D01*
X90226294Y-103913025D01*
X90277899Y-103955376D01*
X90424397Y-104075603D01*
X90540198Y-104216708D01*
X90586975Y-104273706D01*
X90707782Y-104499720D01*
X90782175Y-104744960D01*
X90807294Y-105000000D01*
X90782175Y-105255040D01*
X90707782Y-105500280D01*
X90586975Y-105726294D01*
X90544624Y-105777899D01*
X90424397Y-105924397D01*
X90289015Y-106035501D01*
X90226294Y-106086975D01*
X90000280Y-106207782D01*
X89755040Y-106282175D01*
X89659473Y-106291587D01*
X89563906Y-106301000D01*
X88436094Y-106301000D01*
X88340527Y-106291587D01*
X88244960Y-106282175D01*
X87999720Y-106207782D01*
X87773706Y-106086975D01*
X87710985Y-106035501D01*
X87575603Y-105924397D01*
X87455376Y-105777899D01*
X87413025Y-105726294D01*
X87292218Y-105500280D01*
X87217825Y-105255040D01*
X87192706Y-105000000D01*
X87217825Y-104744960D01*
X87292218Y-104499720D01*
X87413025Y-104273706D01*
X87459802Y-104216708D01*
X87575603Y-104075603D01*
X87722101Y-103955376D01*
X87773706Y-103913025D01*
X87999720Y-103792218D01*
X88244960Y-103717825D01*
X88340527Y-103708413D01*
X88436094Y-103699000D01*
X89563906Y-103699000D01*
X89659473Y-103708413D01*
G37*
G36*
X136659473Y-103210833D02*
G01*
X136755040Y-103220245D01*
X137000280Y-103294638D01*
X137000282Y-103294639D01*
X137113287Y-103355042D01*
X137226294Y-103415445D01*
X137252015Y-103436554D01*
X137424397Y-103578023D01*
X137523679Y-103699000D01*
X137586975Y-103776126D01*
X137707782Y-104002140D01*
X137782175Y-104247380D01*
X137807294Y-104502420D01*
X137782175Y-104757460D01*
X137707782Y-105002700D01*
X137586975Y-105228714D01*
X137544624Y-105280319D01*
X137424397Y-105426817D01*
X137277899Y-105547044D01*
X137226294Y-105589395D01*
X137000280Y-105710202D01*
X136755040Y-105784595D01*
X136659472Y-105794008D01*
X136563906Y-105803420D01*
X135436094Y-105803420D01*
X135340528Y-105794008D01*
X135244960Y-105784595D01*
X134999720Y-105710202D01*
X134773706Y-105589395D01*
X134722101Y-105547044D01*
X134575603Y-105426817D01*
X134455376Y-105280319D01*
X134413025Y-105228714D01*
X134292218Y-105002700D01*
X134217825Y-104757460D01*
X134192706Y-104502420D01*
X134217825Y-104247380D01*
X134292218Y-104002140D01*
X134413025Y-103776126D01*
X134476321Y-103699000D01*
X134575603Y-103578023D01*
X134747985Y-103436554D01*
X134773706Y-103415445D01*
X134886713Y-103355041D01*
X134999718Y-103294639D01*
X134999720Y-103294638D01*
X135244960Y-103220245D01*
X135340527Y-103210833D01*
X135436094Y-103201420D01*
X136563906Y-103201420D01*
X136659473Y-103210833D01*
G37*
G36*
X127101000Y-105801000D02*
G01*
X123499000Y-105801000D01*
X123499000Y-103399000D01*
X127101000Y-103399000D01*
X127101000Y-105801000D01*
G37*
G36*
X132501000Y-105801000D02*
G01*
X128899000Y-105801000D01*
X128899000Y-103399000D01*
X132501000Y-103399000D01*
X132501000Y-105801000D01*
G37*
G36*
X114651000Y-105201000D02*
G01*
X110949000Y-105201000D01*
X110949000Y-103599000D01*
X114651000Y-103599000D01*
X114651000Y-105201000D01*
G37*
G36*
X117459928Y-104456764D02*
G01*
X117481009Y-104463160D01*
X117500445Y-104473548D01*
X117517476Y-104487524D01*
X117531452Y-104504555D01*
X117541840Y-104523991D01*
X117548236Y-104545072D01*
X117551000Y-104573140D01*
X117551000Y-105036860D01*
X117548236Y-105064928D01*
X117541840Y-105086009D01*
X117531452Y-105105445D01*
X117517476Y-105122476D01*
X117500445Y-105136452D01*
X117481009Y-105146840D01*
X117459928Y-105153236D01*
X117431860Y-105156000D01*
X115818140Y-105156000D01*
X115790072Y-105153236D01*
X115768991Y-105146840D01*
X115749555Y-105136452D01*
X115732524Y-105122476D01*
X115718548Y-105105445D01*
X115708160Y-105086009D01*
X115701764Y-105064928D01*
X115699000Y-105036860D01*
X115699000Y-104573140D01*
X115701764Y-104545072D01*
X115708160Y-104523991D01*
X115718548Y-104504555D01*
X115732524Y-104487524D01*
X115749555Y-104473548D01*
X115768991Y-104463160D01*
X115790072Y-104456764D01*
X115818140Y-104454000D01*
X117431860Y-104454000D01*
X117459928Y-104456764D01*
G37*
G36*
X122609928Y-104456764D02*
G01*
X122631009Y-104463160D01*
X122650445Y-104473548D01*
X122667476Y-104487524D01*
X122681452Y-104504555D01*
X122691840Y-104523991D01*
X122698236Y-104545072D01*
X122701000Y-104573140D01*
X122701000Y-105036860D01*
X122698236Y-105064928D01*
X122691840Y-105086009D01*
X122681452Y-105105445D01*
X122667476Y-105122476D01*
X122650445Y-105136452D01*
X122631009Y-105146840D01*
X122609928Y-105153236D01*
X122581860Y-105156000D01*
X120968140Y-105156000D01*
X120940072Y-105153236D01*
X120918991Y-105146840D01*
X120899555Y-105136452D01*
X120882524Y-105122476D01*
X120868548Y-105105445D01*
X120858160Y-105086009D01*
X120851764Y-105064928D01*
X120849000Y-105036860D01*
X120849000Y-104573140D01*
X120851764Y-104545072D01*
X120858160Y-104523991D01*
X120868548Y-104504555D01*
X120882524Y-104487524D01*
X120899555Y-104473548D01*
X120918991Y-104463160D01*
X120940072Y-104456764D01*
X120968140Y-104454000D01*
X122581860Y-104454000D01*
X122609928Y-104456764D01*
G37*
G36*
X107689499Y-104078445D02*
G01*
X107726995Y-104089820D01*
X107761554Y-104108292D01*
X107791847Y-104133153D01*
X107816708Y-104163446D01*
X107835180Y-104198005D01*
X107846555Y-104235501D01*
X107851000Y-104280638D01*
X107851000Y-104919362D01*
X107846555Y-104964499D01*
X107835180Y-105001995D01*
X107816708Y-105036554D01*
X107791847Y-105066847D01*
X107761554Y-105091708D01*
X107726995Y-105110180D01*
X107689499Y-105121555D01*
X107644362Y-105126000D01*
X106905638Y-105126000D01*
X106860501Y-105121555D01*
X106823005Y-105110180D01*
X106788446Y-105091708D01*
X106758153Y-105066847D01*
X106733292Y-105036554D01*
X106714820Y-105001995D01*
X106703445Y-104964499D01*
X106699000Y-104919362D01*
X106699000Y-104280638D01*
X106703445Y-104235501D01*
X106714820Y-104198005D01*
X106733292Y-104163446D01*
X106758153Y-104133153D01*
X106788446Y-104108292D01*
X106823005Y-104089820D01*
X106860501Y-104078445D01*
X106905638Y-104074000D01*
X107644362Y-104074000D01*
X107689499Y-104078445D01*
G37*
G36*
X105939499Y-104078445D02*
G01*
X105976995Y-104089820D01*
X106011554Y-104108292D01*
X106041847Y-104133153D01*
X106066708Y-104163446D01*
X106085180Y-104198005D01*
X106096555Y-104235501D01*
X106101000Y-104280638D01*
X106101000Y-104919362D01*
X106096555Y-104964499D01*
X106085180Y-105001995D01*
X106066708Y-105036554D01*
X106041847Y-105066847D01*
X106011554Y-105091708D01*
X105976995Y-105110180D01*
X105939499Y-105121555D01*
X105894362Y-105126000D01*
X105155638Y-105126000D01*
X105110501Y-105121555D01*
X105073005Y-105110180D01*
X105038446Y-105091708D01*
X105008153Y-105066847D01*
X104983292Y-105036554D01*
X104964820Y-105001995D01*
X104953445Y-104964499D01*
X104949000Y-104919362D01*
X104949000Y-104280638D01*
X104953445Y-104235501D01*
X104964820Y-104198005D01*
X104983292Y-104163446D01*
X105008153Y-104133153D01*
X105038446Y-104108292D01*
X105073005Y-104089820D01*
X105110501Y-104078445D01*
X105155638Y-104074000D01*
X105894362Y-104074000D01*
X105939499Y-104078445D01*
G37*
G36*
X98864499Y-103103445D02*
G01*
X98901995Y-103114820D01*
X98936554Y-103133292D01*
X98966847Y-103158153D01*
X98991708Y-103188446D01*
X99010180Y-103223005D01*
X99021555Y-103260501D01*
X99026000Y-103305638D01*
X99026000Y-104044362D01*
X99021555Y-104089499D01*
X99010180Y-104126995D01*
X98991708Y-104161554D01*
X98966847Y-104191847D01*
X98936554Y-104216708D01*
X98901995Y-104235180D01*
X98864499Y-104246555D01*
X98819362Y-104251000D01*
X98180638Y-104251000D01*
X98135501Y-104246555D01*
X98098005Y-104235180D01*
X98063446Y-104216708D01*
X98033153Y-104191847D01*
X98008292Y-104161554D01*
X97989820Y-104126995D01*
X97978445Y-104089499D01*
X97974000Y-104044362D01*
X97974000Y-103305638D01*
X97978445Y-103260501D01*
X97989820Y-103223005D01*
X98008292Y-103188446D01*
X98033153Y-103158153D01*
X98063446Y-103133292D01*
X98098005Y-103114820D01*
X98135501Y-103103445D01*
X98180638Y-103099000D01*
X98819362Y-103099000D01*
X98864499Y-103103445D01*
G37*
G36*
X117459928Y-103186764D02*
G01*
X117481009Y-103193160D01*
X117500445Y-103203548D01*
X117517476Y-103217524D01*
X117531452Y-103234555D01*
X117541840Y-103253991D01*
X117548236Y-103275072D01*
X117551000Y-103303140D01*
X117551000Y-103766860D01*
X117548236Y-103794928D01*
X117541840Y-103816009D01*
X117531452Y-103835445D01*
X117517476Y-103852476D01*
X117500445Y-103866452D01*
X117481009Y-103876840D01*
X117459928Y-103883236D01*
X117431860Y-103886000D01*
X115818140Y-103886000D01*
X115790072Y-103883236D01*
X115768991Y-103876840D01*
X115749555Y-103866452D01*
X115732524Y-103852476D01*
X115718548Y-103835445D01*
X115708160Y-103816009D01*
X115701764Y-103794928D01*
X115699000Y-103766860D01*
X115699000Y-103303140D01*
X115701764Y-103275072D01*
X115708160Y-103253991D01*
X115718548Y-103234555D01*
X115732524Y-103217524D01*
X115749555Y-103203548D01*
X115768991Y-103193160D01*
X115790072Y-103186764D01*
X115818140Y-103184000D01*
X117431860Y-103184000D01*
X117459928Y-103186764D01*
G37*
G36*
X122609928Y-103186764D02*
G01*
X122631009Y-103193160D01*
X122650445Y-103203548D01*
X122667476Y-103217524D01*
X122681452Y-103234555D01*
X122691840Y-103253991D01*
X122698236Y-103275072D01*
X122701000Y-103303140D01*
X122701000Y-103766860D01*
X122698236Y-103794928D01*
X122691840Y-103816009D01*
X122681452Y-103835445D01*
X122667476Y-103852476D01*
X122650445Y-103866452D01*
X122631009Y-103876840D01*
X122609928Y-103883236D01*
X122581860Y-103886000D01*
X120968140Y-103886000D01*
X120940072Y-103883236D01*
X120918991Y-103876840D01*
X120899555Y-103866452D01*
X120882524Y-103852476D01*
X120868548Y-103835445D01*
X120858160Y-103816009D01*
X120851764Y-103794928D01*
X120849000Y-103766860D01*
X120849000Y-103303140D01*
X120851764Y-103275072D01*
X120858160Y-103253991D01*
X120868548Y-103234555D01*
X120882524Y-103217524D01*
X120899555Y-103203548D01*
X120918991Y-103193160D01*
X120940072Y-103186764D01*
X120968140Y-103184000D01*
X122581860Y-103184000D01*
X122609928Y-103186764D01*
G37*
G36*
X107689499Y-102478445D02*
G01*
X107726995Y-102489820D01*
X107761554Y-102508292D01*
X107791847Y-102533153D01*
X107816708Y-102563446D01*
X107835180Y-102598005D01*
X107846555Y-102635501D01*
X107851000Y-102680638D01*
X107851000Y-103319362D01*
X107846555Y-103364499D01*
X107835180Y-103401995D01*
X107816708Y-103436554D01*
X107791847Y-103466847D01*
X107761554Y-103491708D01*
X107726995Y-103510180D01*
X107689499Y-103521555D01*
X107644362Y-103526000D01*
X106905638Y-103526000D01*
X106860501Y-103521555D01*
X106823005Y-103510180D01*
X106788446Y-103491708D01*
X106758153Y-103466847D01*
X106733292Y-103436554D01*
X106714820Y-103401995D01*
X106703445Y-103364499D01*
X106699000Y-103319362D01*
X106699000Y-102680638D01*
X106703445Y-102635501D01*
X106714820Y-102598005D01*
X106733292Y-102563446D01*
X106758153Y-102533153D01*
X106788446Y-102508292D01*
X106823005Y-102489820D01*
X106860501Y-102478445D01*
X106905638Y-102474000D01*
X107644362Y-102474000D01*
X107689499Y-102478445D01*
G37*
G36*
X105939499Y-102478445D02*
G01*
X105976995Y-102489820D01*
X106011554Y-102508292D01*
X106041847Y-102533153D01*
X106066708Y-102563446D01*
X106085180Y-102598005D01*
X106096555Y-102635501D01*
X106101000Y-102680638D01*
X106101000Y-103319362D01*
X106096555Y-103364499D01*
X106085180Y-103401995D01*
X106066708Y-103436554D01*
X106041847Y-103466847D01*
X106011554Y-103491708D01*
X105976995Y-103510180D01*
X105939499Y-103521555D01*
X105894362Y-103526000D01*
X105155638Y-103526000D01*
X105110501Y-103521555D01*
X105073005Y-103510180D01*
X105038446Y-103491708D01*
X105008153Y-103466847D01*
X104983292Y-103436554D01*
X104964820Y-103401995D01*
X104953445Y-103364499D01*
X104949000Y-103319362D01*
X104949000Y-102680638D01*
X104953445Y-102635501D01*
X104964820Y-102598005D01*
X104983292Y-102563446D01*
X105008153Y-102533153D01*
X105038446Y-102508292D01*
X105073005Y-102489820D01*
X105110501Y-102478445D01*
X105155638Y-102474000D01*
X105894362Y-102474000D01*
X105939499Y-102478445D01*
G37*
G36*
X96851000Y-103401000D02*
G01*
X93149000Y-103401000D01*
X93149000Y-101799000D01*
X96851000Y-101799000D01*
X96851000Y-103401000D01*
G37*
G36*
X89659473Y-100208413D02*
G01*
X89755040Y-100217825D01*
X90000280Y-100292218D01*
X90226294Y-100413025D01*
X90277899Y-100455376D01*
X90424397Y-100575603D01*
X90522017Y-100694555D01*
X90586975Y-100773706D01*
X90707782Y-100999720D01*
X90782175Y-101244960D01*
X90807294Y-101500000D01*
X90782175Y-101755040D01*
X90707782Y-102000280D01*
X90586975Y-102226294D01*
X90577368Y-102238000D01*
X90424397Y-102424397D01*
X90301898Y-102524928D01*
X90226294Y-102586975D01*
X90000280Y-102707782D01*
X89755040Y-102782175D01*
X89659473Y-102791587D01*
X89563906Y-102801000D01*
X88436094Y-102801000D01*
X88340527Y-102791587D01*
X88244960Y-102782175D01*
X87999720Y-102707782D01*
X87773706Y-102586975D01*
X87698102Y-102524928D01*
X87575603Y-102424397D01*
X87422632Y-102238000D01*
X87413025Y-102226294D01*
X87292218Y-102000280D01*
X87217825Y-101755040D01*
X87192706Y-101500000D01*
X87217825Y-101244960D01*
X87292218Y-100999720D01*
X87413025Y-100773706D01*
X87477983Y-100694555D01*
X87575603Y-100575603D01*
X87722101Y-100455376D01*
X87773706Y-100413025D01*
X87999720Y-100292218D01*
X88244960Y-100217825D01*
X88340527Y-100208413D01*
X88436094Y-100199000D01*
X89563906Y-100199000D01*
X89659473Y-100208413D01*
G37*
G36*
X117459928Y-101916764D02*
G01*
X117481009Y-101923160D01*
X117500445Y-101933548D01*
X117517476Y-101947524D01*
X117531452Y-101964555D01*
X117541840Y-101983991D01*
X117548236Y-102005072D01*
X117551000Y-102033140D01*
X117551000Y-102496860D01*
X117548236Y-102524928D01*
X117541840Y-102546009D01*
X117531452Y-102565445D01*
X117517476Y-102582476D01*
X117500445Y-102596452D01*
X117481009Y-102606840D01*
X117459928Y-102613236D01*
X117431860Y-102616000D01*
X115818140Y-102616000D01*
X115790072Y-102613236D01*
X115768991Y-102606840D01*
X115749555Y-102596452D01*
X115732524Y-102582476D01*
X115718548Y-102565445D01*
X115708160Y-102546009D01*
X115701764Y-102524928D01*
X115699000Y-102496860D01*
X115699000Y-102033140D01*
X115701764Y-102005072D01*
X115708160Y-101983991D01*
X115718548Y-101964555D01*
X115732524Y-101947524D01*
X115749555Y-101933548D01*
X115768991Y-101923160D01*
X115790072Y-101916764D01*
X115818140Y-101914000D01*
X117431860Y-101914000D01*
X117459928Y-101916764D01*
G37*
G36*
X122609928Y-101916764D02*
G01*
X122631009Y-101923160D01*
X122650445Y-101933548D01*
X122667476Y-101947524D01*
X122681452Y-101964555D01*
X122691840Y-101983991D01*
X122698236Y-102005072D01*
X122701000Y-102033140D01*
X122701000Y-102496860D01*
X122698236Y-102524928D01*
X122691840Y-102546009D01*
X122681452Y-102565445D01*
X122667476Y-102582476D01*
X122650445Y-102596452D01*
X122631009Y-102606840D01*
X122609928Y-102613236D01*
X122581860Y-102616000D01*
X120968140Y-102616000D01*
X120940072Y-102613236D01*
X120918991Y-102606840D01*
X120899555Y-102596452D01*
X120882524Y-102582476D01*
X120868548Y-102565445D01*
X120858160Y-102546009D01*
X120851764Y-102524928D01*
X120849000Y-102496860D01*
X120849000Y-102033140D01*
X120851764Y-102005072D01*
X120858160Y-101983991D01*
X120868548Y-101964555D01*
X120882524Y-101947524D01*
X120899555Y-101933548D01*
X120918991Y-101923160D01*
X120940072Y-101916764D01*
X120968140Y-101914000D01*
X122581860Y-101914000D01*
X122609928Y-101916764D01*
G37*
G36*
X114651000Y-102501000D02*
G01*
X110949000Y-102501000D01*
X110949000Y-100899000D01*
X114651000Y-100899000D01*
X114651000Y-102501000D01*
G37*
G36*
X98864499Y-101353445D02*
G01*
X98901995Y-101364820D01*
X98936554Y-101383292D01*
X98966847Y-101408153D01*
X98991708Y-101438446D01*
X99010180Y-101473005D01*
X99021555Y-101510501D01*
X99026000Y-101555638D01*
X99026000Y-102294362D01*
X99021555Y-102339499D01*
X99010180Y-102376995D01*
X98991708Y-102411554D01*
X98966847Y-102441847D01*
X98936554Y-102466708D01*
X98901995Y-102485180D01*
X98864499Y-102496555D01*
X98819362Y-102501000D01*
X98180638Y-102501000D01*
X98135501Y-102496555D01*
X98098005Y-102485180D01*
X98063446Y-102466708D01*
X98033153Y-102441847D01*
X98008292Y-102411554D01*
X97989820Y-102376995D01*
X97978445Y-102339499D01*
X97974000Y-102294362D01*
X97974000Y-101555638D01*
X97978445Y-101510501D01*
X97989820Y-101473005D01*
X98008292Y-101438446D01*
X98033153Y-101408153D01*
X98063446Y-101383292D01*
X98098005Y-101364820D01*
X98135501Y-101353445D01*
X98180638Y-101349000D01*
X98819362Y-101349000D01*
X98864499Y-101353445D01*
G37*
G36*
X136659472Y-99710712D02*
G01*
X136755040Y-99720125D01*
X137000280Y-99794518D01*
X137000282Y-99794519D01*
X137027589Y-99809115D01*
X137226294Y-99915325D01*
X137233144Y-99920947D01*
X137424397Y-100077903D01*
X137532079Y-100209115D01*
X137586975Y-100276006D01*
X137707782Y-100502020D01*
X137782175Y-100747260D01*
X137807294Y-101002300D01*
X137782175Y-101257340D01*
X137707782Y-101502580D01*
X137586975Y-101728594D01*
X137565272Y-101755039D01*
X137424397Y-101926697D01*
X137277899Y-102046924D01*
X137226294Y-102089275D01*
X137000280Y-102210082D01*
X136755040Y-102284475D01*
X136705959Y-102289309D01*
X136563906Y-102303300D01*
X135436094Y-102303300D01*
X135294041Y-102289309D01*
X135244960Y-102284475D01*
X134999720Y-102210082D01*
X134773706Y-102089275D01*
X134722101Y-102046924D01*
X134575603Y-101926697D01*
X134434728Y-101755039D01*
X134413025Y-101728594D01*
X134292218Y-101502580D01*
X134217825Y-101257340D01*
X134192706Y-101002300D01*
X134217825Y-100747260D01*
X134292218Y-100502020D01*
X134413025Y-100276006D01*
X134467921Y-100209115D01*
X134575603Y-100077903D01*
X134766856Y-99920947D01*
X134773706Y-99915325D01*
X134972411Y-99809115D01*
X134999718Y-99794519D01*
X134999720Y-99794518D01*
X135244960Y-99720125D01*
X135340528Y-99710712D01*
X135436094Y-99701300D01*
X136563906Y-99701300D01*
X136659472Y-99710712D01*
G37*
G36*
X107689499Y-100878445D02*
G01*
X107726995Y-100889820D01*
X107761554Y-100908292D01*
X107791847Y-100933153D01*
X107816708Y-100963446D01*
X107835180Y-100998005D01*
X107846555Y-101035501D01*
X107851000Y-101080638D01*
X107851000Y-101719362D01*
X107846555Y-101764499D01*
X107835180Y-101801995D01*
X107816708Y-101836554D01*
X107791847Y-101866847D01*
X107761554Y-101891708D01*
X107726995Y-101910180D01*
X107689499Y-101921555D01*
X107644362Y-101926000D01*
X106905638Y-101926000D01*
X106860501Y-101921555D01*
X106823005Y-101910180D01*
X106788446Y-101891708D01*
X106758153Y-101866847D01*
X106733292Y-101836554D01*
X106714820Y-101801995D01*
X106703445Y-101764499D01*
X106699000Y-101719362D01*
X106699000Y-101080638D01*
X106703445Y-101035501D01*
X106714820Y-100998005D01*
X106733292Y-100963446D01*
X106758153Y-100933153D01*
X106788446Y-100908292D01*
X106823005Y-100889820D01*
X106860501Y-100878445D01*
X106905638Y-100874000D01*
X107644362Y-100874000D01*
X107689499Y-100878445D01*
G37*
G36*
X105939499Y-100878445D02*
G01*
X105976995Y-100889820D01*
X106011554Y-100908292D01*
X106041847Y-100933153D01*
X106066708Y-100963446D01*
X106085180Y-100998005D01*
X106096555Y-101035501D01*
X106101000Y-101080638D01*
X106101000Y-101719362D01*
X106096555Y-101764499D01*
X106085180Y-101801995D01*
X106066708Y-101836554D01*
X106041847Y-101866847D01*
X106011554Y-101891708D01*
X105976995Y-101910180D01*
X105939499Y-101921555D01*
X105894362Y-101926000D01*
X105155638Y-101926000D01*
X105110501Y-101921555D01*
X105073005Y-101910180D01*
X105038446Y-101891708D01*
X105008153Y-101866847D01*
X104983292Y-101836554D01*
X104964820Y-101801995D01*
X104953445Y-101764499D01*
X104949000Y-101719362D01*
X104949000Y-101080638D01*
X104953445Y-101035501D01*
X104964820Y-100998005D01*
X104983292Y-100963446D01*
X105008153Y-100933153D01*
X105038446Y-100908292D01*
X105073005Y-100889820D01*
X105110501Y-100878445D01*
X105155638Y-100874000D01*
X105894362Y-100874000D01*
X105939499Y-100878445D01*
G37*
G36*
X122609928Y-100646764D02*
G01*
X122631009Y-100653160D01*
X122650445Y-100663548D01*
X122667476Y-100677524D01*
X122681452Y-100694555D01*
X122691840Y-100713991D01*
X122698236Y-100735072D01*
X122701000Y-100763140D01*
X122701000Y-101226860D01*
X122698236Y-101254928D01*
X122691840Y-101276009D01*
X122681452Y-101295445D01*
X122667476Y-101312476D01*
X122650445Y-101326452D01*
X122631009Y-101336840D01*
X122609928Y-101343236D01*
X122581860Y-101346000D01*
X120968140Y-101346000D01*
X120940072Y-101343236D01*
X120918991Y-101336840D01*
X120899555Y-101326452D01*
X120882524Y-101312476D01*
X120868548Y-101295445D01*
X120858160Y-101276009D01*
X120851764Y-101254928D01*
X120849000Y-101226860D01*
X120849000Y-100763140D01*
X120851764Y-100735072D01*
X120858160Y-100713991D01*
X120868548Y-100694555D01*
X120882524Y-100677524D01*
X120899555Y-100663548D01*
X120918991Y-100653160D01*
X120940072Y-100646764D01*
X120968140Y-100644000D01*
X122581860Y-100644000D01*
X122609928Y-100646764D01*
G37*
G36*
X117459928Y-100646764D02*
G01*
X117481009Y-100653160D01*
X117500445Y-100663548D01*
X117517476Y-100677524D01*
X117531452Y-100694555D01*
X117541840Y-100713991D01*
X117548236Y-100735072D01*
X117551000Y-100763140D01*
X117551000Y-101226860D01*
X117548236Y-101254928D01*
X117541840Y-101276009D01*
X117531452Y-101295445D01*
X117517476Y-101312476D01*
X117500445Y-101326452D01*
X117481009Y-101336840D01*
X117459928Y-101343236D01*
X117431860Y-101346000D01*
X115818140Y-101346000D01*
X115790072Y-101343236D01*
X115768991Y-101336840D01*
X115749555Y-101326452D01*
X115732524Y-101312476D01*
X115718548Y-101295445D01*
X115708160Y-101276009D01*
X115701764Y-101254928D01*
X115699000Y-101226860D01*
X115699000Y-100763140D01*
X115701764Y-100735072D01*
X115708160Y-100713991D01*
X115718548Y-100694555D01*
X115732524Y-100677524D01*
X115749555Y-100663548D01*
X115768991Y-100653160D01*
X115790072Y-100646764D01*
X115818140Y-100644000D01*
X117431860Y-100644000D01*
X117459928Y-100646764D01*
G37*
G36*
X96851000Y-100501000D02*
G01*
X93149000Y-100501000D01*
X93149000Y-98899000D01*
X96851000Y-98899000D01*
X96851000Y-100501000D01*
G37*
G36*
X105939499Y-99278445D02*
G01*
X105976995Y-99289820D01*
X106011554Y-99308292D01*
X106041847Y-99333153D01*
X106066708Y-99363446D01*
X106085180Y-99398005D01*
X106096555Y-99435501D01*
X106101000Y-99480638D01*
X106101000Y-100119362D01*
X106096555Y-100164499D01*
X106085180Y-100201995D01*
X106066708Y-100236554D01*
X106041847Y-100266847D01*
X106011554Y-100291708D01*
X105976995Y-100310180D01*
X105939499Y-100321555D01*
X105894362Y-100326000D01*
X105155638Y-100326000D01*
X105110501Y-100321555D01*
X105073005Y-100310180D01*
X105038446Y-100291708D01*
X105008153Y-100266847D01*
X104983292Y-100236554D01*
X104964820Y-100201995D01*
X104953445Y-100164499D01*
X104949000Y-100119362D01*
X104949000Y-99480638D01*
X104953445Y-99435501D01*
X104964820Y-99398005D01*
X104983292Y-99363446D01*
X105008153Y-99333153D01*
X105038446Y-99308292D01*
X105073005Y-99289820D01*
X105110501Y-99278445D01*
X105155638Y-99274000D01*
X105894362Y-99274000D01*
X105939499Y-99278445D01*
G37*
G36*
X107689499Y-99278445D02*
G01*
X107726995Y-99289820D01*
X107761554Y-99308292D01*
X107791847Y-99333153D01*
X107816708Y-99363446D01*
X107835180Y-99398005D01*
X107846555Y-99435501D01*
X107851000Y-99480638D01*
X107851000Y-100119362D01*
X107846555Y-100164499D01*
X107835180Y-100201995D01*
X107816708Y-100236554D01*
X107791847Y-100266847D01*
X107761554Y-100291708D01*
X107726995Y-100310180D01*
X107689499Y-100321555D01*
X107644362Y-100326000D01*
X106905638Y-100326000D01*
X106860501Y-100321555D01*
X106823005Y-100310180D01*
X106788446Y-100291708D01*
X106758153Y-100266847D01*
X106733292Y-100236554D01*
X106714820Y-100201995D01*
X106703445Y-100164499D01*
X106699000Y-100119362D01*
X106699000Y-99480638D01*
X106703445Y-99435501D01*
X106714820Y-99398005D01*
X106733292Y-99363446D01*
X106758153Y-99333153D01*
X106788446Y-99308292D01*
X106823005Y-99289820D01*
X106860501Y-99278445D01*
X106905638Y-99274000D01*
X107644362Y-99274000D01*
X107689499Y-99278445D01*
G37*
G36*
X113039499Y-98978445D02*
G01*
X113076995Y-98989820D01*
X113111554Y-99008292D01*
X113141847Y-99033153D01*
X113166708Y-99063446D01*
X113185180Y-99098005D01*
X113196555Y-99135501D01*
X113201000Y-99180638D01*
X113201000Y-99819362D01*
X113196555Y-99864499D01*
X113185180Y-99901995D01*
X113166708Y-99936554D01*
X113141847Y-99966847D01*
X113111554Y-99991708D01*
X113076995Y-100010180D01*
X113039499Y-100021555D01*
X112994362Y-100026000D01*
X112255638Y-100026000D01*
X112210501Y-100021555D01*
X112173005Y-100010180D01*
X112138446Y-99991708D01*
X112108153Y-99966847D01*
X112083292Y-99936554D01*
X112064820Y-99901995D01*
X112053445Y-99864499D01*
X112049000Y-99819362D01*
X112049000Y-99180638D01*
X112053445Y-99135501D01*
X112064820Y-99098005D01*
X112083292Y-99063446D01*
X112108153Y-99033153D01*
X112138446Y-99008292D01*
X112173005Y-98989820D01*
X112210501Y-98978445D01*
X112255638Y-98974000D01*
X112994362Y-98974000D01*
X113039499Y-98978445D01*
G37*
G36*
X114789499Y-98978445D02*
G01*
X114826995Y-98989820D01*
X114861554Y-99008292D01*
X114891847Y-99033153D01*
X114916708Y-99063446D01*
X114935180Y-99098005D01*
X114946555Y-99135501D01*
X114951000Y-99180638D01*
X114951000Y-99819362D01*
X114946555Y-99864499D01*
X114935180Y-99901995D01*
X114916708Y-99936554D01*
X114891847Y-99966847D01*
X114861554Y-99991708D01*
X114826995Y-100010180D01*
X114789499Y-100021555D01*
X114744362Y-100026000D01*
X114005638Y-100026000D01*
X113960501Y-100021555D01*
X113923005Y-100010180D01*
X113888446Y-99991708D01*
X113858153Y-99966847D01*
X113833292Y-99936554D01*
X113814820Y-99901995D01*
X113803445Y-99864499D01*
X113799000Y-99819362D01*
X113799000Y-99180638D01*
X113803445Y-99135501D01*
X113814820Y-99098005D01*
X113833292Y-99063446D01*
X113858153Y-99033153D01*
X113888446Y-99008292D01*
X113923005Y-98989820D01*
X113960501Y-98978445D01*
X114005638Y-98974000D01*
X114744362Y-98974000D01*
X114789499Y-98978445D01*
G37*
G36*
X119789499Y-98878445D02*
G01*
X119826995Y-98889820D01*
X119861554Y-98908292D01*
X119891847Y-98933153D01*
X119916708Y-98963446D01*
X119935180Y-98998005D01*
X119946555Y-99035501D01*
X119951000Y-99080638D01*
X119951000Y-99719362D01*
X119946555Y-99764499D01*
X119935180Y-99801995D01*
X119916708Y-99836554D01*
X119891847Y-99866847D01*
X119861554Y-99891708D01*
X119826995Y-99910180D01*
X119789499Y-99921555D01*
X119744362Y-99926000D01*
X119005638Y-99926000D01*
X118960501Y-99921555D01*
X118923005Y-99910180D01*
X118888446Y-99891708D01*
X118858153Y-99866847D01*
X118833292Y-99836554D01*
X118814820Y-99801995D01*
X118803445Y-99764499D01*
X118799000Y-99719362D01*
X118799000Y-99080638D01*
X118803445Y-99035501D01*
X118814820Y-98998005D01*
X118833292Y-98963446D01*
X118858153Y-98933153D01*
X118888446Y-98908292D01*
X118923005Y-98889820D01*
X118960501Y-98878445D01*
X119005638Y-98874000D01*
X119744362Y-98874000D01*
X119789499Y-98878445D01*
G37*
G36*
X118039499Y-98878445D02*
G01*
X118076995Y-98889820D01*
X118111554Y-98908292D01*
X118141847Y-98933153D01*
X118166708Y-98963446D01*
X118185180Y-98998005D01*
X118196555Y-99035501D01*
X118201000Y-99080638D01*
X118201000Y-99719362D01*
X118196555Y-99764499D01*
X118185180Y-99801995D01*
X118166708Y-99836554D01*
X118141847Y-99866847D01*
X118111554Y-99891708D01*
X118076995Y-99910180D01*
X118039499Y-99921555D01*
X117994362Y-99926000D01*
X117255638Y-99926000D01*
X117210501Y-99921555D01*
X117173005Y-99910180D01*
X117138446Y-99891708D01*
X117108153Y-99866847D01*
X117083292Y-99836554D01*
X117064820Y-99801995D01*
X117053445Y-99764499D01*
X117049000Y-99719362D01*
X117049000Y-99080638D01*
X117053445Y-99035501D01*
X117064820Y-98998005D01*
X117083292Y-98963446D01*
X117108153Y-98933153D01*
X117138446Y-98908292D01*
X117173005Y-98889820D01*
X117210501Y-98878445D01*
X117255638Y-98874000D01*
X117994362Y-98874000D01*
X118039499Y-98878445D01*
G37*
G36*
X89659473Y-96708413D02*
G01*
X89755040Y-96717825D01*
X90000280Y-96792218D01*
X90226294Y-96913025D01*
X90274365Y-96952476D01*
X90424397Y-97075603D01*
X90492143Y-97158153D01*
X90586975Y-97273706D01*
X90707782Y-97499720D01*
X90782175Y-97744960D01*
X90807294Y-98000000D01*
X90782175Y-98255040D01*
X90707782Y-98500280D01*
X90586975Y-98726294D01*
X90544624Y-98777899D01*
X90424397Y-98924397D01*
X90291876Y-99033153D01*
X90226294Y-99086975D01*
X90000280Y-99207782D01*
X89755040Y-99282175D01*
X89677418Y-99289820D01*
X89563906Y-99301000D01*
X88436094Y-99301000D01*
X88322582Y-99289820D01*
X88244960Y-99282175D01*
X87999720Y-99207782D01*
X87773706Y-99086975D01*
X87708124Y-99033153D01*
X87575603Y-98924397D01*
X87455376Y-98777899D01*
X87413025Y-98726294D01*
X87292218Y-98500280D01*
X87217825Y-98255040D01*
X87192706Y-98000000D01*
X87217825Y-97744960D01*
X87292218Y-97499720D01*
X87413025Y-97273706D01*
X87507857Y-97158153D01*
X87575603Y-97075603D01*
X87725635Y-96952476D01*
X87773706Y-96913025D01*
X87999720Y-96792218D01*
X88244960Y-96717825D01*
X88340527Y-96708413D01*
X88436094Y-96699000D01*
X89563906Y-96699000D01*
X89659473Y-96708413D01*
G37*
G36*
X132501000Y-99201000D02*
G01*
X128899000Y-99201000D01*
X128899000Y-96799000D01*
X132501000Y-96799000D01*
X132501000Y-99201000D01*
G37*
G36*
X127101000Y-99201000D02*
G01*
X123499000Y-99201000D01*
X123499000Y-96799000D01*
X127101000Y-96799000D01*
X127101000Y-99201000D01*
G37*
G36*
X136659473Y-96210593D02*
G01*
X136755040Y-96220005D01*
X137000280Y-96294398D01*
X137000282Y-96294399D01*
X137076995Y-96335403D01*
X137226294Y-96415205D01*
X137277899Y-96457556D01*
X137424397Y-96577783D01*
X137523876Y-96699000D01*
X137586975Y-96775886D01*
X137707782Y-97001900D01*
X137782175Y-97247140D01*
X137807294Y-97502180D01*
X137782175Y-97757220D01*
X137707782Y-98002460D01*
X137586975Y-98228474D01*
X137564385Y-98256000D01*
X137424397Y-98426577D01*
X137277899Y-98546804D01*
X137226294Y-98589155D01*
X137000280Y-98709962D01*
X136755040Y-98784355D01*
X136659472Y-98793768D01*
X136563906Y-98803180D01*
X135436094Y-98803180D01*
X135340528Y-98793768D01*
X135244960Y-98784355D01*
X134999720Y-98709962D01*
X134773706Y-98589155D01*
X134722101Y-98546804D01*
X134575603Y-98426577D01*
X134435615Y-98256000D01*
X134413025Y-98228474D01*
X134292218Y-98002460D01*
X134217825Y-97757220D01*
X134192706Y-97502180D01*
X134217825Y-97247140D01*
X134292218Y-97001900D01*
X134413025Y-96775886D01*
X134476124Y-96699000D01*
X134575603Y-96577783D01*
X134722101Y-96457556D01*
X134773706Y-96415205D01*
X134923005Y-96335403D01*
X134999718Y-96294399D01*
X134999720Y-96294398D01*
X135244960Y-96220005D01*
X135340528Y-96210592D01*
X135436094Y-96201180D01*
X136563906Y-96201180D01*
X136659473Y-96210593D01*
G37*
G36*
X117459928Y-97556764D02*
G01*
X117481009Y-97563160D01*
X117500445Y-97573548D01*
X117517476Y-97587524D01*
X117531452Y-97604555D01*
X117541840Y-97623991D01*
X117548236Y-97645072D01*
X117551000Y-97673140D01*
X117551000Y-98136860D01*
X117548236Y-98164928D01*
X117541840Y-98186009D01*
X117531452Y-98205445D01*
X117517476Y-98222476D01*
X117500445Y-98236452D01*
X117481009Y-98246840D01*
X117459928Y-98253236D01*
X117431860Y-98256000D01*
X115818140Y-98256000D01*
X115790072Y-98253236D01*
X115768991Y-98246840D01*
X115749555Y-98236452D01*
X115732524Y-98222476D01*
X115718548Y-98205445D01*
X115708160Y-98186009D01*
X115701764Y-98164928D01*
X115699000Y-98136860D01*
X115699000Y-97673140D01*
X115701764Y-97645072D01*
X115708160Y-97623991D01*
X115718548Y-97604555D01*
X115732524Y-97587524D01*
X115749555Y-97573548D01*
X115768991Y-97563160D01*
X115790072Y-97556764D01*
X115818140Y-97554000D01*
X117431860Y-97554000D01*
X117459928Y-97556764D01*
G37*
G36*
X122609928Y-97556764D02*
G01*
X122631009Y-97563160D01*
X122650445Y-97573548D01*
X122667476Y-97587524D01*
X122681452Y-97604555D01*
X122691840Y-97623991D01*
X122698236Y-97645072D01*
X122701000Y-97673140D01*
X122701000Y-98136860D01*
X122698236Y-98164928D01*
X122691840Y-98186009D01*
X122681452Y-98205445D01*
X122667476Y-98222476D01*
X122650445Y-98236452D01*
X122631009Y-98246840D01*
X122609928Y-98253236D01*
X122581860Y-98256000D01*
X120968140Y-98256000D01*
X120940072Y-98253236D01*
X120918991Y-98246840D01*
X120899555Y-98236452D01*
X120882524Y-98222476D01*
X120868548Y-98205445D01*
X120858160Y-98186009D01*
X120851764Y-98164928D01*
X120849000Y-98136860D01*
X120849000Y-97673140D01*
X120851764Y-97645072D01*
X120858160Y-97623991D01*
X120868548Y-97604555D01*
X120882524Y-97587524D01*
X120899555Y-97573548D01*
X120918991Y-97563160D01*
X120940072Y-97556764D01*
X120968140Y-97554000D01*
X122581860Y-97554000D01*
X122609928Y-97556764D01*
G37*
G36*
X98864499Y-97103445D02*
G01*
X98901995Y-97114820D01*
X98936554Y-97133292D01*
X98966847Y-97158153D01*
X98991708Y-97188446D01*
X99010180Y-97223005D01*
X99021555Y-97260501D01*
X99026000Y-97305638D01*
X99026000Y-98044362D01*
X99021555Y-98089499D01*
X99010180Y-98126995D01*
X98991708Y-98161554D01*
X98966847Y-98191847D01*
X98936554Y-98216708D01*
X98901995Y-98235180D01*
X98864499Y-98246555D01*
X98819362Y-98251000D01*
X98180638Y-98251000D01*
X98135501Y-98246555D01*
X98098005Y-98235180D01*
X98063446Y-98216708D01*
X98033153Y-98191847D01*
X98008292Y-98161554D01*
X97989820Y-98126995D01*
X97978445Y-98089499D01*
X97974000Y-98044362D01*
X97974000Y-97305638D01*
X97978445Y-97260501D01*
X97989820Y-97223005D01*
X98008292Y-97188446D01*
X98033153Y-97158153D01*
X98063446Y-97133292D01*
X98098005Y-97114820D01*
X98135501Y-97103445D01*
X98180638Y-97099000D01*
X98819362Y-97099000D01*
X98864499Y-97103445D01*
G37*
G36*
X114651000Y-98101000D02*
G01*
X110949000Y-98101000D01*
X110949000Y-96499000D01*
X114651000Y-96499000D01*
X114651000Y-98101000D01*
G37*
G36*
X101551000Y-97701000D02*
G01*
X100149000Y-97701000D01*
X100149000Y-96799000D01*
X101551000Y-96799000D01*
X101551000Y-97701000D01*
G37*
G36*
X107851000Y-97701000D02*
G01*
X106449000Y-97701000D01*
X106449000Y-96799000D01*
X107851000Y-96799000D01*
X107851000Y-97701000D01*
G37*
G36*
X96951000Y-97601000D02*
G01*
X93249000Y-97601000D01*
X93249000Y-95999000D01*
X96951000Y-95999000D01*
X96951000Y-97601000D01*
G37*
G36*
X117459928Y-96286764D02*
G01*
X117481009Y-96293160D01*
X117500445Y-96303548D01*
X117517476Y-96317524D01*
X117531452Y-96334555D01*
X117541840Y-96353991D01*
X117548236Y-96375072D01*
X117551000Y-96403140D01*
X117551000Y-96866860D01*
X117548236Y-96894928D01*
X117541840Y-96916009D01*
X117531452Y-96935445D01*
X117517476Y-96952476D01*
X117500445Y-96966452D01*
X117481009Y-96976840D01*
X117459928Y-96983236D01*
X117431860Y-96986000D01*
X115818140Y-96986000D01*
X115790072Y-96983236D01*
X115768991Y-96976840D01*
X115749555Y-96966452D01*
X115732524Y-96952476D01*
X115718548Y-96935445D01*
X115708160Y-96916009D01*
X115701764Y-96894928D01*
X115699000Y-96866860D01*
X115699000Y-96403140D01*
X115701764Y-96375072D01*
X115708160Y-96353991D01*
X115718548Y-96334555D01*
X115732524Y-96317524D01*
X115749555Y-96303548D01*
X115768991Y-96293160D01*
X115790072Y-96286764D01*
X115818140Y-96284000D01*
X117431860Y-96284000D01*
X117459928Y-96286764D01*
G37*
G36*
X122609928Y-96286764D02*
G01*
X122631009Y-96293160D01*
X122650445Y-96303548D01*
X122667476Y-96317524D01*
X122681452Y-96334555D01*
X122691840Y-96353991D01*
X122698236Y-96375072D01*
X122701000Y-96403140D01*
X122701000Y-96866860D01*
X122698236Y-96894928D01*
X122691840Y-96916009D01*
X122681452Y-96935445D01*
X122667476Y-96952476D01*
X122650445Y-96966452D01*
X122631009Y-96976840D01*
X122609928Y-96983236D01*
X122581860Y-96986000D01*
X120968140Y-96986000D01*
X120940072Y-96983236D01*
X120918991Y-96976840D01*
X120899555Y-96966452D01*
X120882524Y-96952476D01*
X120868548Y-96935445D01*
X120858160Y-96916009D01*
X120851764Y-96894928D01*
X120849000Y-96866860D01*
X120849000Y-96403140D01*
X120851764Y-96375072D01*
X120858160Y-96353991D01*
X120868548Y-96334555D01*
X120882524Y-96317524D01*
X120899555Y-96303548D01*
X120918991Y-96293160D01*
X120940072Y-96286764D01*
X120968140Y-96284000D01*
X122581860Y-96284000D01*
X122609928Y-96286764D01*
G37*
G36*
X98864499Y-95353445D02*
G01*
X98901995Y-95364820D01*
X98936554Y-95383292D01*
X98966847Y-95408153D01*
X98991708Y-95438446D01*
X99010180Y-95473005D01*
X99021555Y-95510501D01*
X99026000Y-95555638D01*
X99026000Y-96294362D01*
X99021555Y-96339499D01*
X99010180Y-96376995D01*
X98991708Y-96411554D01*
X98966847Y-96441847D01*
X98936554Y-96466708D01*
X98901995Y-96485180D01*
X98864499Y-96496555D01*
X98819362Y-96501000D01*
X98180638Y-96501000D01*
X98135501Y-96496555D01*
X98098005Y-96485180D01*
X98063446Y-96466708D01*
X98033153Y-96441847D01*
X98008292Y-96411554D01*
X97989820Y-96376995D01*
X97978445Y-96339499D01*
X97974000Y-96294362D01*
X97974000Y-95555638D01*
X97978445Y-95510501D01*
X97989820Y-95473005D01*
X98008292Y-95438446D01*
X98033153Y-95408153D01*
X98063446Y-95383292D01*
X98098005Y-95364820D01*
X98135501Y-95353445D01*
X98180638Y-95349000D01*
X98819362Y-95349000D01*
X98864499Y-95353445D01*
G37*
G36*
X107851000Y-96421000D02*
G01*
X106449000Y-96421000D01*
X106449000Y-95519000D01*
X107851000Y-95519000D01*
X107851000Y-96421000D01*
G37*
G36*
X101551000Y-96421000D02*
G01*
X100149000Y-96421000D01*
X100149000Y-95519000D01*
X101551000Y-95519000D01*
X101551000Y-96421000D01*
G37*
G36*
X89659472Y-93206232D02*
G01*
X89755040Y-93215645D01*
X90000280Y-93290038D01*
X90226294Y-93410845D01*
X90277899Y-93453196D01*
X90424397Y-93573423D01*
X90544624Y-93719921D01*
X90586975Y-93771526D01*
X90707782Y-93997540D01*
X90782175Y-94242780D01*
X90807294Y-94497820D01*
X90782175Y-94752860D01*
X90707782Y-94998100D01*
X90586975Y-95224114D01*
X90544624Y-95275719D01*
X90424397Y-95422217D01*
X90315782Y-95511354D01*
X90226294Y-95584795D01*
X90226292Y-95584796D01*
X90017399Y-95696452D01*
X90000280Y-95705602D01*
X89755040Y-95779995D01*
X89659472Y-95789408D01*
X89563906Y-95798820D01*
X88436094Y-95798820D01*
X88340528Y-95789408D01*
X88244960Y-95779995D01*
X87999720Y-95705602D01*
X87982602Y-95696452D01*
X87773708Y-95584796D01*
X87773706Y-95584795D01*
X87684218Y-95511354D01*
X87575603Y-95422217D01*
X87455376Y-95275719D01*
X87413025Y-95224114D01*
X87292218Y-94998100D01*
X87217825Y-94752860D01*
X87192706Y-94497820D01*
X87217825Y-94242780D01*
X87292218Y-93997540D01*
X87413025Y-93771526D01*
X87455376Y-93719921D01*
X87575603Y-93573423D01*
X87722101Y-93453196D01*
X87773706Y-93410845D01*
X87999720Y-93290038D01*
X88244960Y-93215645D01*
X88340528Y-93206232D01*
X88436094Y-93196820D01*
X89563906Y-93196820D01*
X89659472Y-93206232D01*
G37*
G36*
X117459928Y-95016764D02*
G01*
X117481009Y-95023160D01*
X117500445Y-95033548D01*
X117517476Y-95047524D01*
X117531452Y-95064555D01*
X117541840Y-95083991D01*
X117548236Y-95105072D01*
X117551000Y-95133140D01*
X117551000Y-95596860D01*
X117548236Y-95624928D01*
X117541840Y-95646009D01*
X117531452Y-95665445D01*
X117517476Y-95682476D01*
X117500445Y-95696452D01*
X117481009Y-95706840D01*
X117459928Y-95713236D01*
X117431860Y-95716000D01*
X115818140Y-95716000D01*
X115790072Y-95713236D01*
X115768991Y-95706840D01*
X115749555Y-95696452D01*
X115732524Y-95682476D01*
X115718548Y-95665445D01*
X115708160Y-95646009D01*
X115701764Y-95624928D01*
X115699000Y-95596860D01*
X115699000Y-95133140D01*
X115701764Y-95105072D01*
X115708160Y-95083991D01*
X115718548Y-95064555D01*
X115732524Y-95047524D01*
X115749555Y-95033548D01*
X115768991Y-95023160D01*
X115790072Y-95016764D01*
X115818140Y-95014000D01*
X117431860Y-95014000D01*
X117459928Y-95016764D01*
G37*
G36*
X122609928Y-95016764D02*
G01*
X122631009Y-95023160D01*
X122650445Y-95033548D01*
X122667476Y-95047524D01*
X122681452Y-95064555D01*
X122691840Y-95083991D01*
X122698236Y-95105072D01*
X122701000Y-95133140D01*
X122701000Y-95596860D01*
X122698236Y-95624928D01*
X122691840Y-95646009D01*
X122681452Y-95665445D01*
X122667476Y-95682476D01*
X122650445Y-95696452D01*
X122631009Y-95706840D01*
X122609928Y-95713236D01*
X122581860Y-95716000D01*
X120968140Y-95716000D01*
X120940072Y-95713236D01*
X120918991Y-95706840D01*
X120899555Y-95696452D01*
X120882524Y-95682476D01*
X120868548Y-95665445D01*
X120858160Y-95646009D01*
X120851764Y-95624928D01*
X120849000Y-95596860D01*
X120849000Y-95133140D01*
X120851764Y-95105072D01*
X120858160Y-95083991D01*
X120868548Y-95064555D01*
X120882524Y-95047524D01*
X120899555Y-95033548D01*
X120918991Y-95023160D01*
X120940072Y-95016764D01*
X120968140Y-95014000D01*
X122581860Y-95014000D01*
X122609928Y-95016764D01*
G37*
G36*
X114651000Y-95401000D02*
G01*
X110949000Y-95401000D01*
X110949000Y-93799000D01*
X114651000Y-93799000D01*
X114651000Y-95401000D01*
G37*
G36*
X136659472Y-92708412D02*
G01*
X136755040Y-92717825D01*
X137000280Y-92792218D01*
X137226294Y-92913025D01*
X137254964Y-92936554D01*
X137424397Y-93075603D01*
X137523876Y-93196820D01*
X137586975Y-93273706D01*
X137707782Y-93499720D01*
X137782175Y-93744960D01*
X137807294Y-94000000D01*
X137782175Y-94255040D01*
X137707782Y-94500280D01*
X137586975Y-94726294D01*
X137544624Y-94777899D01*
X137424397Y-94924397D01*
X137298936Y-95027359D01*
X137226294Y-95086975D01*
X137000280Y-95207782D01*
X136755040Y-95282175D01*
X136659472Y-95291588D01*
X136563906Y-95301000D01*
X135436094Y-95301000D01*
X135340528Y-95291588D01*
X135244960Y-95282175D01*
X134999720Y-95207782D01*
X134773706Y-95086975D01*
X134701064Y-95027359D01*
X134575603Y-94924397D01*
X134455376Y-94777899D01*
X134413025Y-94726294D01*
X134292218Y-94500280D01*
X134217825Y-94255040D01*
X134192706Y-94000000D01*
X134217825Y-93744960D01*
X134292218Y-93499720D01*
X134413025Y-93273706D01*
X134476124Y-93196820D01*
X134575603Y-93075603D01*
X134745036Y-92936554D01*
X134773706Y-92913025D01*
X134999720Y-92792218D01*
X135244960Y-92717825D01*
X135340527Y-92708413D01*
X135436094Y-92699000D01*
X136563906Y-92699000D01*
X136659472Y-92708412D01*
G37*
G36*
X107851000Y-95161000D02*
G01*
X106449000Y-95161000D01*
X106449000Y-94259000D01*
X107851000Y-94259000D01*
X107851000Y-95161000D01*
G37*
G36*
X101551000Y-95161000D02*
G01*
X100149000Y-95161000D01*
X100149000Y-94259000D01*
X101551000Y-94259000D01*
X101551000Y-95161000D01*
G37*
G36*
X96851000Y-94801000D02*
G01*
X93149000Y-94801000D01*
X93149000Y-93199000D01*
X96851000Y-93199000D01*
X96851000Y-94801000D01*
G37*
G36*
X117459928Y-93746764D02*
G01*
X117481009Y-93753160D01*
X117500445Y-93763548D01*
X117517476Y-93777524D01*
X117531452Y-93794555D01*
X117541840Y-93813991D01*
X117548236Y-93835072D01*
X117551000Y-93863140D01*
X117551000Y-94326860D01*
X117548236Y-94354928D01*
X117541840Y-94376009D01*
X117531452Y-94395445D01*
X117517476Y-94412476D01*
X117500445Y-94426452D01*
X117481009Y-94436840D01*
X117459928Y-94443236D01*
X117431860Y-94446000D01*
X115818140Y-94446000D01*
X115790072Y-94443236D01*
X115768991Y-94436840D01*
X115749555Y-94426452D01*
X115732524Y-94412476D01*
X115718548Y-94395445D01*
X115708160Y-94376009D01*
X115701764Y-94354928D01*
X115699000Y-94326860D01*
X115699000Y-93863140D01*
X115701764Y-93835072D01*
X115708160Y-93813991D01*
X115718548Y-93794555D01*
X115732524Y-93777524D01*
X115749555Y-93763548D01*
X115768991Y-93753160D01*
X115790072Y-93746764D01*
X115818140Y-93744000D01*
X117431860Y-93744000D01*
X117459928Y-93746764D01*
G37*
G36*
X122609928Y-93746764D02*
G01*
X122631009Y-93753160D01*
X122650445Y-93763548D01*
X122667476Y-93777524D01*
X122681452Y-93794555D01*
X122691840Y-93813991D01*
X122698236Y-93835072D01*
X122701000Y-93863140D01*
X122701000Y-94326860D01*
X122698236Y-94354928D01*
X122691840Y-94376009D01*
X122681452Y-94395445D01*
X122667476Y-94412476D01*
X122650445Y-94426452D01*
X122631009Y-94436840D01*
X122609928Y-94443236D01*
X122581860Y-94446000D01*
X120968140Y-94446000D01*
X120940072Y-94443236D01*
X120918991Y-94436840D01*
X120899555Y-94426452D01*
X120882524Y-94412476D01*
X120868548Y-94395445D01*
X120858160Y-94376009D01*
X120851764Y-94354928D01*
X120849000Y-94326860D01*
X120849000Y-93863140D01*
X120851764Y-93835072D01*
X120858160Y-93813991D01*
X120868548Y-93794555D01*
X120882524Y-93777524D01*
X120899555Y-93763548D01*
X120918991Y-93753160D01*
X120940072Y-93746764D01*
X120968140Y-93744000D01*
X122581860Y-93744000D01*
X122609928Y-93746764D01*
G37*
G36*
X101551000Y-93891000D02*
G01*
X100149000Y-93891000D01*
X100149000Y-92989000D01*
X101551000Y-92989000D01*
X101551000Y-93891000D01*
G37*
G36*
X107851000Y-93891000D02*
G01*
X106449000Y-93891000D01*
X106449000Y-92989000D01*
X107851000Y-92989000D01*
X107851000Y-93891000D01*
G37*
G36*
X114589499Y-92078445D02*
G01*
X114626995Y-92089820D01*
X114661554Y-92108292D01*
X114691847Y-92133153D01*
X114716708Y-92163446D01*
X114735180Y-92198005D01*
X114746555Y-92235501D01*
X114751000Y-92280638D01*
X114751000Y-92919362D01*
X114746555Y-92964499D01*
X114735180Y-93001995D01*
X114716708Y-93036554D01*
X114691847Y-93066847D01*
X114661554Y-93091708D01*
X114626995Y-93110180D01*
X114589499Y-93121555D01*
X114544362Y-93126000D01*
X113805638Y-93126000D01*
X113760501Y-93121555D01*
X113723005Y-93110180D01*
X113688446Y-93091708D01*
X113658153Y-93066847D01*
X113633292Y-93036554D01*
X113614820Y-93001995D01*
X113603445Y-92964499D01*
X113599000Y-92919362D01*
X113599000Y-92280638D01*
X113603445Y-92235501D01*
X113614820Y-92198005D01*
X113633292Y-92163446D01*
X113658153Y-92133153D01*
X113688446Y-92108292D01*
X113723005Y-92089820D01*
X113760501Y-92078445D01*
X113805638Y-92074000D01*
X114544362Y-92074000D01*
X114589499Y-92078445D01*
G37*
G36*
X112839499Y-92078445D02*
G01*
X112876995Y-92089820D01*
X112911554Y-92108292D01*
X112941847Y-92133153D01*
X112966708Y-92163446D01*
X112985180Y-92198005D01*
X112996555Y-92235501D01*
X113001000Y-92280638D01*
X113001000Y-92919362D01*
X112996555Y-92964499D01*
X112985180Y-93001995D01*
X112966708Y-93036554D01*
X112941847Y-93066847D01*
X112911554Y-93091708D01*
X112876995Y-93110180D01*
X112839499Y-93121555D01*
X112794362Y-93126000D01*
X112055638Y-93126000D01*
X112010501Y-93121555D01*
X111973005Y-93110180D01*
X111938446Y-93091708D01*
X111908153Y-93066847D01*
X111883292Y-93036554D01*
X111864820Y-93001995D01*
X111853445Y-92964499D01*
X111849000Y-92919362D01*
X111849000Y-92280638D01*
X111853445Y-92235501D01*
X111864820Y-92198005D01*
X111883292Y-92163446D01*
X111908153Y-92133153D01*
X111938446Y-92108292D01*
X111973005Y-92089820D01*
X112010501Y-92078445D01*
X112055638Y-92074000D01*
X112794362Y-92074000D01*
X112839499Y-92078445D01*
G37*
G36*
X118039499Y-91978445D02*
G01*
X118076995Y-91989820D01*
X118111554Y-92008292D01*
X118141847Y-92033153D01*
X118166708Y-92063446D01*
X118185180Y-92098005D01*
X118196555Y-92135501D01*
X118201000Y-92180638D01*
X118201000Y-92819362D01*
X118196555Y-92864499D01*
X118185180Y-92901995D01*
X118166708Y-92936554D01*
X118141847Y-92966847D01*
X118111554Y-92991708D01*
X118076995Y-93010180D01*
X118039499Y-93021555D01*
X117994362Y-93026000D01*
X117255638Y-93026000D01*
X117210501Y-93021555D01*
X117173005Y-93010180D01*
X117138446Y-92991708D01*
X117108153Y-92966847D01*
X117083292Y-92936554D01*
X117064820Y-92901995D01*
X117053445Y-92864499D01*
X117049000Y-92819362D01*
X117049000Y-92180638D01*
X117053445Y-92135501D01*
X117064820Y-92098005D01*
X117083292Y-92063446D01*
X117108153Y-92033153D01*
X117138446Y-92008292D01*
X117173005Y-91989820D01*
X117210501Y-91978445D01*
X117255638Y-91974000D01*
X117994362Y-91974000D01*
X118039499Y-91978445D01*
G37*
G36*
X119789499Y-91978445D02*
G01*
X119826995Y-91989820D01*
X119861554Y-92008292D01*
X119891847Y-92033153D01*
X119916708Y-92063446D01*
X119935180Y-92098005D01*
X119946555Y-92135501D01*
X119951000Y-92180638D01*
X119951000Y-92819362D01*
X119946555Y-92864499D01*
X119935180Y-92901995D01*
X119916708Y-92936554D01*
X119891847Y-92966847D01*
X119861554Y-92991708D01*
X119826995Y-93010180D01*
X119789499Y-93021555D01*
X119744362Y-93026000D01*
X119005638Y-93026000D01*
X118960501Y-93021555D01*
X118923005Y-93010180D01*
X118888446Y-92991708D01*
X118858153Y-92966847D01*
X118833292Y-92936554D01*
X118814820Y-92901995D01*
X118803445Y-92864499D01*
X118799000Y-92819362D01*
X118799000Y-92180638D01*
X118803445Y-92135501D01*
X118814820Y-92098005D01*
X118833292Y-92063446D01*
X118858153Y-92033153D01*
X118888446Y-92008292D01*
X118923005Y-91989820D01*
X118960501Y-91978445D01*
X119005638Y-91974000D01*
X119744362Y-91974000D01*
X119789499Y-91978445D01*
G37*
G36*
X98864499Y-91803445D02*
G01*
X98901995Y-91814820D01*
X98936554Y-91833292D01*
X98966847Y-91858153D01*
X98991708Y-91888446D01*
X99010180Y-91923005D01*
X99021555Y-91960501D01*
X99026000Y-92005638D01*
X99026000Y-92744362D01*
X99021555Y-92789499D01*
X99010180Y-92826995D01*
X98991708Y-92861554D01*
X98966847Y-92891847D01*
X98936554Y-92916708D01*
X98901995Y-92935180D01*
X98864499Y-92946555D01*
X98819362Y-92951000D01*
X98180638Y-92951000D01*
X98135501Y-92946555D01*
X98098005Y-92935180D01*
X98063446Y-92916708D01*
X98033153Y-92891847D01*
X98008292Y-92861554D01*
X97989820Y-92826995D01*
X97978445Y-92789499D01*
X97974000Y-92744362D01*
X97974000Y-92005638D01*
X97978445Y-91960501D01*
X97989820Y-91923005D01*
X98008292Y-91888446D01*
X98033153Y-91858153D01*
X98063446Y-91833292D01*
X98098005Y-91814820D01*
X98135501Y-91803445D01*
X98180638Y-91799000D01*
X98819362Y-91799000D01*
X98864499Y-91803445D01*
G37*
G36*
X107851000Y-92611000D02*
G01*
X106449000Y-92611000D01*
X106449000Y-91709000D01*
X107851000Y-91709000D01*
X107851000Y-92611000D01*
G37*
G36*
X101551000Y-92611000D02*
G01*
X100149000Y-92611000D01*
X100149000Y-91709000D01*
X101551000Y-91709000D01*
X101551000Y-92611000D01*
G37*
G36*
X89659473Y-89706113D02*
G01*
X89755040Y-89715525D01*
X90000280Y-89789918D01*
X90226294Y-89910725D01*
X90267739Y-89944738D01*
X90424397Y-90073303D01*
X90536991Y-90210501D01*
X90586975Y-90271406D01*
X90707782Y-90497420D01*
X90782175Y-90742660D01*
X90807294Y-90997700D01*
X90782175Y-91252740D01*
X90707782Y-91497980D01*
X90586975Y-91723994D01*
X90544624Y-91775599D01*
X90424397Y-91922097D01*
X90277899Y-92042324D01*
X90226294Y-92084675D01*
X90226292Y-92084676D01*
X90014269Y-92198005D01*
X90000280Y-92205482D01*
X89755040Y-92279875D01*
X89659473Y-92289287D01*
X89563906Y-92298700D01*
X88436094Y-92298700D01*
X88340527Y-92289287D01*
X88244960Y-92279875D01*
X87999720Y-92205482D01*
X87985732Y-92198005D01*
X87773708Y-92084676D01*
X87773706Y-92084675D01*
X87722101Y-92042324D01*
X87575603Y-91922097D01*
X87455376Y-91775599D01*
X87413025Y-91723994D01*
X87292218Y-91497980D01*
X87217825Y-91252740D01*
X87192706Y-90997700D01*
X87217825Y-90742660D01*
X87292218Y-90497420D01*
X87413025Y-90271406D01*
X87463009Y-90210501D01*
X87575603Y-90073303D01*
X87732261Y-89944738D01*
X87773706Y-89910725D01*
X87999720Y-89789918D01*
X88244960Y-89715525D01*
X88340527Y-89706113D01*
X88436094Y-89696700D01*
X89563906Y-89696700D01*
X89659473Y-89706113D01*
G37*
G36*
X132501000Y-92201000D02*
G01*
X128899000Y-92201000D01*
X128899000Y-89799000D01*
X132501000Y-89799000D01*
X132501000Y-92201000D01*
G37*
G36*
X127101000Y-92201000D02*
G01*
X123499000Y-92201000D01*
X123499000Y-89799000D01*
X127101000Y-89799000D01*
X127101000Y-92201000D01*
G37*
G36*
X96851000Y-92101000D02*
G01*
X93149000Y-92101000D01*
X93149000Y-90499000D01*
X96851000Y-90499000D01*
X96851000Y-92101000D01*
G37*
G36*
X136659472Y-89208412D02*
G01*
X136755040Y-89217825D01*
X137000280Y-89292218D01*
X137226294Y-89413025D01*
X137276211Y-89453991D01*
X137424397Y-89575603D01*
X137539227Y-89715525D01*
X137586975Y-89773706D01*
X137707782Y-89999720D01*
X137782175Y-90244960D01*
X137807294Y-90500000D01*
X137782175Y-90755040D01*
X137707782Y-91000280D01*
X137586975Y-91226294D01*
X137569439Y-91247661D01*
X137424397Y-91424397D01*
X137277899Y-91544624D01*
X137226294Y-91586975D01*
X137000280Y-91707782D01*
X136755040Y-91782175D01*
X136659472Y-91791588D01*
X136563906Y-91801000D01*
X135436094Y-91801000D01*
X135340528Y-91791588D01*
X135244960Y-91782175D01*
X134999720Y-91707782D01*
X134773706Y-91586975D01*
X134722101Y-91544624D01*
X134575603Y-91424397D01*
X134430561Y-91247661D01*
X134413025Y-91226294D01*
X134292218Y-91000280D01*
X134217825Y-90755040D01*
X134192706Y-90500000D01*
X134217825Y-90244960D01*
X134292218Y-89999720D01*
X134413025Y-89773706D01*
X134460773Y-89715525D01*
X134575603Y-89575603D01*
X134723789Y-89453991D01*
X134773706Y-89413025D01*
X134999720Y-89292218D01*
X135244960Y-89217825D01*
X135340528Y-89208412D01*
X135436094Y-89199000D01*
X136563906Y-89199000D01*
X136659472Y-89208412D01*
G37*
G36*
X122609928Y-90656764D02*
G01*
X122631009Y-90663160D01*
X122650445Y-90673548D01*
X122667476Y-90687524D01*
X122681452Y-90704555D01*
X122691840Y-90723991D01*
X122698236Y-90745072D01*
X122701000Y-90773140D01*
X122701000Y-91236860D01*
X122698236Y-91264928D01*
X122691840Y-91286009D01*
X122681452Y-91305445D01*
X122667476Y-91322476D01*
X122650445Y-91336452D01*
X122631009Y-91346840D01*
X122609928Y-91353236D01*
X122581860Y-91356000D01*
X120968140Y-91356000D01*
X120940072Y-91353236D01*
X120918991Y-91346840D01*
X120899555Y-91336452D01*
X120882524Y-91322476D01*
X120868548Y-91305445D01*
X120858160Y-91286009D01*
X120851764Y-91264928D01*
X120849000Y-91236860D01*
X120849000Y-90773140D01*
X120851764Y-90745072D01*
X120858160Y-90723991D01*
X120868548Y-90704555D01*
X120882524Y-90687524D01*
X120899555Y-90673548D01*
X120918991Y-90663160D01*
X120940072Y-90656764D01*
X120968140Y-90654000D01*
X122581860Y-90654000D01*
X122609928Y-90656764D01*
G37*
G36*
X117459928Y-90656764D02*
G01*
X117481009Y-90663160D01*
X117500445Y-90673548D01*
X117517476Y-90687524D01*
X117531452Y-90704555D01*
X117541840Y-90723991D01*
X117548236Y-90745072D01*
X117551000Y-90773140D01*
X117551000Y-91236860D01*
X117548236Y-91264928D01*
X117541840Y-91286009D01*
X117531452Y-91305445D01*
X117517476Y-91322476D01*
X117500445Y-91336452D01*
X117481009Y-91346840D01*
X117459928Y-91353236D01*
X117431860Y-91356000D01*
X115818140Y-91356000D01*
X115790072Y-91353236D01*
X115768991Y-91346840D01*
X115749555Y-91336452D01*
X115732524Y-91322476D01*
X115718548Y-91305445D01*
X115708160Y-91286009D01*
X115701764Y-91264928D01*
X115699000Y-91236860D01*
X115699000Y-90773140D01*
X115701764Y-90745072D01*
X115708160Y-90723991D01*
X115718548Y-90704555D01*
X115732524Y-90687524D01*
X115749555Y-90673548D01*
X115768991Y-90663160D01*
X115790072Y-90656764D01*
X115818140Y-90654000D01*
X117431860Y-90654000D01*
X117459928Y-90656764D01*
G37*
G36*
X101551000Y-91341000D02*
G01*
X100149000Y-91341000D01*
X100149000Y-90439000D01*
X101551000Y-90439000D01*
X101551000Y-91341000D01*
G37*
G36*
X107851000Y-91341000D02*
G01*
X106449000Y-91341000D01*
X106449000Y-90439000D01*
X107851000Y-90439000D01*
X107851000Y-91341000D01*
G37*
G36*
X114651000Y-91201000D02*
G01*
X110949000Y-91201000D01*
X110949000Y-89599000D01*
X114651000Y-89599000D01*
X114651000Y-91201000D01*
G37*
G36*
X98864499Y-90053445D02*
G01*
X98901995Y-90064820D01*
X98936554Y-90083292D01*
X98966847Y-90108153D01*
X98991708Y-90138446D01*
X99010180Y-90173005D01*
X99021555Y-90210501D01*
X99026000Y-90255638D01*
X99026000Y-90994362D01*
X99021555Y-91039499D01*
X99010180Y-91076995D01*
X98991708Y-91111554D01*
X98966847Y-91141847D01*
X98936554Y-91166708D01*
X98901995Y-91185180D01*
X98864499Y-91196555D01*
X98819362Y-91201000D01*
X98180638Y-91201000D01*
X98135501Y-91196555D01*
X98098005Y-91185180D01*
X98063446Y-91166708D01*
X98033153Y-91141847D01*
X98008292Y-91111554D01*
X97989820Y-91076995D01*
X97978445Y-91039499D01*
X97974000Y-90994362D01*
X97974000Y-90255638D01*
X97978445Y-90210501D01*
X97989820Y-90173005D01*
X98008292Y-90138446D01*
X98033153Y-90108153D01*
X98063446Y-90083292D01*
X98098005Y-90064820D01*
X98135501Y-90053445D01*
X98180638Y-90049000D01*
X98819362Y-90049000D01*
X98864499Y-90053445D01*
G37*
G36*
X122609928Y-89386764D02*
G01*
X122631009Y-89393160D01*
X122650445Y-89403548D01*
X122667476Y-89417524D01*
X122681452Y-89434555D01*
X122691840Y-89453991D01*
X122698236Y-89475072D01*
X122701000Y-89503140D01*
X122701000Y-89966860D01*
X122698236Y-89994928D01*
X122691840Y-90016009D01*
X122681452Y-90035445D01*
X122667476Y-90052476D01*
X122650445Y-90066452D01*
X122631009Y-90076840D01*
X122609928Y-90083236D01*
X122581860Y-90086000D01*
X120968140Y-90086000D01*
X120940072Y-90083236D01*
X120918991Y-90076840D01*
X120899555Y-90066452D01*
X120882524Y-90052476D01*
X120868548Y-90035445D01*
X120858160Y-90016009D01*
X120851764Y-89994928D01*
X120849000Y-89966860D01*
X120849000Y-89503140D01*
X120851764Y-89475072D01*
X120858160Y-89453991D01*
X120868548Y-89434555D01*
X120882524Y-89417524D01*
X120899555Y-89403548D01*
X120918991Y-89393160D01*
X120940072Y-89386764D01*
X120968140Y-89384000D01*
X122581860Y-89384000D01*
X122609928Y-89386764D01*
G37*
G36*
X117459928Y-89386764D02*
G01*
X117481009Y-89393160D01*
X117500445Y-89403548D01*
X117517476Y-89417524D01*
X117531452Y-89434555D01*
X117541840Y-89453991D01*
X117548236Y-89475072D01*
X117551000Y-89503140D01*
X117551000Y-89966860D01*
X117548236Y-89994928D01*
X117541840Y-90016009D01*
X117531452Y-90035445D01*
X117517476Y-90052476D01*
X117500445Y-90066452D01*
X117481009Y-90076840D01*
X117459928Y-90083236D01*
X117431860Y-90086000D01*
X115818140Y-90086000D01*
X115790072Y-90083236D01*
X115768991Y-90076840D01*
X115749555Y-90066452D01*
X115732524Y-90052476D01*
X115718548Y-90035445D01*
X115708160Y-90016009D01*
X115701764Y-89994928D01*
X115699000Y-89966860D01*
X115699000Y-89503140D01*
X115701764Y-89475072D01*
X115708160Y-89453991D01*
X115718548Y-89434555D01*
X115732524Y-89417524D01*
X115749555Y-89403548D01*
X115768991Y-89393160D01*
X115790072Y-89386764D01*
X115818140Y-89384000D01*
X117431860Y-89384000D01*
X117459928Y-89386764D01*
G37*
G36*
X101551000Y-90081000D02*
G01*
X100149000Y-90081000D01*
X100149000Y-89179000D01*
X101551000Y-89179000D01*
X101551000Y-90081000D01*
G37*
G36*
X107851000Y-90081000D02*
G01*
X106449000Y-90081000D01*
X106449000Y-89179000D01*
X107851000Y-89179000D01*
X107851000Y-90081000D01*
G37*
G36*
X96851000Y-89301000D02*
G01*
X93149000Y-89301000D01*
X93149000Y-87699000D01*
X96851000Y-87699000D01*
X96851000Y-89301000D01*
G37*
G36*
X117459928Y-88116764D02*
G01*
X117481009Y-88123160D01*
X117500445Y-88133548D01*
X117517476Y-88147524D01*
X117531452Y-88164555D01*
X117541840Y-88183991D01*
X117548236Y-88205072D01*
X117551000Y-88233140D01*
X117551000Y-88696860D01*
X117548236Y-88724928D01*
X117541840Y-88746009D01*
X117531452Y-88765445D01*
X117517476Y-88782476D01*
X117500445Y-88796452D01*
X117481009Y-88806840D01*
X117459928Y-88813236D01*
X117431860Y-88816000D01*
X115818140Y-88816000D01*
X115790072Y-88813236D01*
X115768991Y-88806840D01*
X115749555Y-88796452D01*
X115732524Y-88782476D01*
X115718548Y-88765445D01*
X115708160Y-88746009D01*
X115701764Y-88724928D01*
X115699000Y-88696860D01*
X115699000Y-88233140D01*
X115701764Y-88205072D01*
X115708160Y-88183991D01*
X115718548Y-88164555D01*
X115732524Y-88147524D01*
X115749555Y-88133548D01*
X115768991Y-88123160D01*
X115790072Y-88116764D01*
X115818140Y-88114000D01*
X117431860Y-88114000D01*
X117459928Y-88116764D01*
G37*
G36*
X122609928Y-88116764D02*
G01*
X122631009Y-88123160D01*
X122650445Y-88133548D01*
X122667476Y-88147524D01*
X122681452Y-88164555D01*
X122691840Y-88183991D01*
X122698236Y-88205072D01*
X122701000Y-88233140D01*
X122701000Y-88696860D01*
X122698236Y-88724928D01*
X122691840Y-88746009D01*
X122681452Y-88765445D01*
X122667476Y-88782476D01*
X122650445Y-88796452D01*
X122631009Y-88806840D01*
X122609928Y-88813236D01*
X122581860Y-88816000D01*
X120968140Y-88816000D01*
X120940072Y-88813236D01*
X120918991Y-88806840D01*
X120899555Y-88796452D01*
X120882524Y-88782476D01*
X120868548Y-88765445D01*
X120858160Y-88746009D01*
X120851764Y-88724928D01*
X120849000Y-88696860D01*
X120849000Y-88233140D01*
X120851764Y-88205072D01*
X120858160Y-88183991D01*
X120868548Y-88164555D01*
X120882524Y-88147524D01*
X120899555Y-88133548D01*
X120918991Y-88123160D01*
X120940072Y-88116764D01*
X120968140Y-88114000D01*
X122581860Y-88114000D01*
X122609928Y-88116764D01*
G37*
G36*
X107851000Y-88801000D02*
G01*
X106449000Y-88801000D01*
X106449000Y-87899000D01*
X107851000Y-87899000D01*
X107851000Y-88801000D01*
G37*
G36*
X101551000Y-88801000D02*
G01*
X100149000Y-88801000D01*
X100149000Y-87899000D01*
X101551000Y-87899000D01*
X101551000Y-88801000D01*
G37*
G36*
X89659473Y-86205993D02*
G01*
X89755040Y-86215405D01*
X90000280Y-86289798D01*
X90226294Y-86410605D01*
X90277899Y-86452956D01*
X90424397Y-86573183D01*
X90544624Y-86719681D01*
X90586975Y-86771286D01*
X90707782Y-86997300D01*
X90782175Y-87242540D01*
X90807294Y-87497580D01*
X90782175Y-87752620D01*
X90707782Y-87997860D01*
X90586975Y-88223874D01*
X90561215Y-88255262D01*
X90424397Y-88421977D01*
X90328106Y-88501000D01*
X90226294Y-88584555D01*
X90226292Y-88584556D01*
X90057574Y-88674738D01*
X90000280Y-88705362D01*
X89755040Y-88779755D01*
X89687338Y-88786423D01*
X89563906Y-88798580D01*
X88436094Y-88798580D01*
X88312662Y-88786423D01*
X88244960Y-88779755D01*
X87999720Y-88705362D01*
X87942427Y-88674738D01*
X87773708Y-88584556D01*
X87773706Y-88584555D01*
X87671894Y-88501000D01*
X87575603Y-88421977D01*
X87438785Y-88255262D01*
X87413025Y-88223874D01*
X87292218Y-87997860D01*
X87217825Y-87752620D01*
X87192706Y-87497580D01*
X87217825Y-87242540D01*
X87292218Y-86997300D01*
X87413025Y-86771286D01*
X87455376Y-86719681D01*
X87575603Y-86573183D01*
X87722101Y-86452956D01*
X87773706Y-86410605D01*
X87999720Y-86289798D01*
X88244960Y-86215405D01*
X88340527Y-86205993D01*
X88436094Y-86196580D01*
X89563906Y-86196580D01*
X89659473Y-86205993D01*
G37*
G36*
X114651000Y-88501000D02*
G01*
X110949000Y-88501000D01*
X110949000Y-86899000D01*
X114651000Y-86899000D01*
X114651000Y-88501000D01*
G37*
G36*
X136659472Y-85708412D02*
G01*
X136755040Y-85717825D01*
X137000280Y-85792218D01*
X137226294Y-85913025D01*
X137254964Y-85936554D01*
X137424397Y-86075603D01*
X137492143Y-86158153D01*
X137586975Y-86273706D01*
X137707782Y-86499720D01*
X137782175Y-86744960D01*
X137807294Y-87000000D01*
X137782175Y-87255040D01*
X137707782Y-87500280D01*
X137586975Y-87726294D01*
X137544624Y-87777899D01*
X137424397Y-87924397D01*
X137277899Y-88044624D01*
X137226294Y-88086975D01*
X137000280Y-88207782D01*
X136755040Y-88282175D01*
X136680667Y-88289500D01*
X136563906Y-88301000D01*
X135436094Y-88301000D01*
X135319333Y-88289500D01*
X135244960Y-88282175D01*
X134999720Y-88207782D01*
X134773706Y-88086975D01*
X134722101Y-88044624D01*
X134575603Y-87924397D01*
X134455376Y-87777899D01*
X134413025Y-87726294D01*
X134292218Y-87500280D01*
X134217825Y-87255040D01*
X134192706Y-87000000D01*
X134217825Y-86744960D01*
X134292218Y-86499720D01*
X134413025Y-86273706D01*
X134507857Y-86158153D01*
X134575603Y-86075603D01*
X134745036Y-85936554D01*
X134773706Y-85913025D01*
X134999720Y-85792218D01*
X135244960Y-85717825D01*
X135340528Y-85708412D01*
X135436094Y-85699000D01*
X136563906Y-85699000D01*
X136659472Y-85708412D01*
G37*
G36*
X117459928Y-86846764D02*
G01*
X117481009Y-86853160D01*
X117500445Y-86863548D01*
X117517476Y-86877524D01*
X117531452Y-86894555D01*
X117541840Y-86913991D01*
X117548236Y-86935072D01*
X117551000Y-86963140D01*
X117551000Y-87426860D01*
X117548236Y-87454928D01*
X117541840Y-87476009D01*
X117531452Y-87495445D01*
X117517476Y-87512476D01*
X117500445Y-87526452D01*
X117481009Y-87536840D01*
X117459928Y-87543236D01*
X117431860Y-87546000D01*
X115818140Y-87546000D01*
X115790072Y-87543236D01*
X115768991Y-87536840D01*
X115749555Y-87526452D01*
X115732524Y-87512476D01*
X115718548Y-87495445D01*
X115708160Y-87476009D01*
X115701764Y-87454928D01*
X115699000Y-87426860D01*
X115699000Y-86963140D01*
X115701764Y-86935072D01*
X115708160Y-86913991D01*
X115718548Y-86894555D01*
X115732524Y-86877524D01*
X115749555Y-86863548D01*
X115768991Y-86853160D01*
X115790072Y-86846764D01*
X115818140Y-86844000D01*
X117431860Y-86844000D01*
X117459928Y-86846764D01*
G37*
G36*
X122609928Y-86846764D02*
G01*
X122631009Y-86853160D01*
X122650445Y-86863548D01*
X122667476Y-86877524D01*
X122681452Y-86894555D01*
X122691840Y-86913991D01*
X122698236Y-86935072D01*
X122701000Y-86963140D01*
X122701000Y-87426860D01*
X122698236Y-87454928D01*
X122691840Y-87476009D01*
X122681452Y-87495445D01*
X122667476Y-87512476D01*
X122650445Y-87526452D01*
X122631009Y-87536840D01*
X122609928Y-87543236D01*
X122581860Y-87546000D01*
X120968140Y-87546000D01*
X120940072Y-87543236D01*
X120918991Y-87536840D01*
X120899555Y-87526452D01*
X120882524Y-87512476D01*
X120868548Y-87495445D01*
X120858160Y-87476009D01*
X120851764Y-87454928D01*
X120849000Y-87426860D01*
X120849000Y-86963140D01*
X120851764Y-86935072D01*
X120858160Y-86913991D01*
X120868548Y-86894555D01*
X120882524Y-86877524D01*
X120899555Y-86863548D01*
X120918991Y-86853160D01*
X120940072Y-86846764D01*
X120968140Y-86844000D01*
X122581860Y-86844000D01*
X122609928Y-86846764D01*
G37*
G36*
X98864499Y-86103445D02*
G01*
X98901995Y-86114820D01*
X98936554Y-86133292D01*
X98966847Y-86158153D01*
X98991708Y-86188446D01*
X99010180Y-86223005D01*
X99021555Y-86260501D01*
X99026000Y-86305638D01*
X99026000Y-87044362D01*
X99021555Y-87089499D01*
X99010180Y-87126995D01*
X98991708Y-87161554D01*
X98966847Y-87191847D01*
X98936554Y-87216708D01*
X98901995Y-87235180D01*
X98864499Y-87246555D01*
X98819362Y-87251000D01*
X98180638Y-87251000D01*
X98135501Y-87246555D01*
X98098005Y-87235180D01*
X98063446Y-87216708D01*
X98033153Y-87191847D01*
X98008292Y-87161554D01*
X97989820Y-87126995D01*
X97978445Y-87089499D01*
X97974000Y-87044362D01*
X97974000Y-86305638D01*
X97978445Y-86260501D01*
X97989820Y-86223005D01*
X98008292Y-86188446D01*
X98033153Y-86158153D01*
X98063446Y-86133292D01*
X98098005Y-86114820D01*
X98135501Y-86103445D01*
X98180638Y-86099000D01*
X98819362Y-86099000D01*
X98864499Y-86103445D01*
G37*
G36*
X96851000Y-86601000D02*
G01*
X93149000Y-86601000D01*
X93149000Y-84999000D01*
X96851000Y-84999000D01*
X96851000Y-86601000D01*
G37*
G36*
X114689499Y-84978445D02*
G01*
X114726995Y-84989820D01*
X114761554Y-85008292D01*
X114791847Y-85033153D01*
X114816708Y-85063446D01*
X114835180Y-85098005D01*
X114846555Y-85135501D01*
X114851000Y-85180638D01*
X114851000Y-85819362D01*
X114846555Y-85864499D01*
X114835180Y-85901995D01*
X114816708Y-85936554D01*
X114791847Y-85966847D01*
X114761554Y-85991708D01*
X114726995Y-86010180D01*
X114689499Y-86021555D01*
X114644362Y-86026000D01*
X113905638Y-86026000D01*
X113860501Y-86021555D01*
X113823005Y-86010180D01*
X113788446Y-85991708D01*
X113758153Y-85966847D01*
X113733292Y-85936554D01*
X113714820Y-85901995D01*
X113703445Y-85864499D01*
X113699000Y-85819362D01*
X113699000Y-85180638D01*
X113703445Y-85135501D01*
X113714820Y-85098005D01*
X113733292Y-85063446D01*
X113758153Y-85033153D01*
X113788446Y-85008292D01*
X113823005Y-84989820D01*
X113860501Y-84978445D01*
X113905638Y-84974000D01*
X114644362Y-84974000D01*
X114689499Y-84978445D01*
G37*
G36*
X112939499Y-84978445D02*
G01*
X112976995Y-84989820D01*
X113011554Y-85008292D01*
X113041847Y-85033153D01*
X113066708Y-85063446D01*
X113085180Y-85098005D01*
X113096555Y-85135501D01*
X113101000Y-85180638D01*
X113101000Y-85819362D01*
X113096555Y-85864499D01*
X113085180Y-85901995D01*
X113066708Y-85936554D01*
X113041847Y-85966847D01*
X113011554Y-85991708D01*
X112976995Y-86010180D01*
X112939499Y-86021555D01*
X112894362Y-86026000D01*
X112155638Y-86026000D01*
X112110501Y-86021555D01*
X112073005Y-86010180D01*
X112038446Y-85991708D01*
X112008153Y-85966847D01*
X111983292Y-85936554D01*
X111964820Y-85901995D01*
X111953445Y-85864499D01*
X111949000Y-85819362D01*
X111949000Y-85180638D01*
X111953445Y-85135501D01*
X111964820Y-85098005D01*
X111983292Y-85063446D01*
X112008153Y-85033153D01*
X112038446Y-85008292D01*
X112073005Y-84989820D01*
X112110501Y-84978445D01*
X112155638Y-84974000D01*
X112894362Y-84974000D01*
X112939499Y-84978445D01*
G37*
G36*
X98864499Y-84353445D02*
G01*
X98901995Y-84364820D01*
X98936554Y-84383292D01*
X98966847Y-84408153D01*
X98991708Y-84438446D01*
X99010180Y-84473005D01*
X99021555Y-84510501D01*
X99026000Y-84555638D01*
X99026000Y-85294362D01*
X99021555Y-85339499D01*
X99010180Y-85376995D01*
X98991708Y-85411554D01*
X98966847Y-85441847D01*
X98936554Y-85466708D01*
X98901995Y-85485180D01*
X98864499Y-85496555D01*
X98819362Y-85501000D01*
X98180638Y-85501000D01*
X98135501Y-85496555D01*
X98098005Y-85485180D01*
X98063446Y-85466708D01*
X98033153Y-85441847D01*
X98008292Y-85411554D01*
X97989820Y-85376995D01*
X97978445Y-85339499D01*
X97974000Y-85294362D01*
X97974000Y-84555638D01*
X97978445Y-84510501D01*
X97989820Y-84473005D01*
X98008292Y-84438446D01*
X98033153Y-84408153D01*
X98063446Y-84383292D01*
X98098005Y-84364820D01*
X98135501Y-84353445D01*
X98180638Y-84349000D01*
X98819362Y-84349000D01*
X98864499Y-84353445D01*
G37*
G36*
X89659473Y-82708413D02*
G01*
X89755040Y-82717825D01*
X90000280Y-82792218D01*
X90226294Y-82913025D01*
X90277899Y-82955376D01*
X90424397Y-83075603D01*
X90492143Y-83158153D01*
X90586975Y-83273706D01*
X90707782Y-83499720D01*
X90782175Y-83744960D01*
X90807294Y-84000000D01*
X90782175Y-84255040D01*
X90707782Y-84500280D01*
X90586975Y-84726294D01*
X90544624Y-84777899D01*
X90424397Y-84924397D01*
X90291876Y-85033153D01*
X90226294Y-85086975D01*
X90000280Y-85207782D01*
X89755040Y-85282175D01*
X89659472Y-85291588D01*
X89563906Y-85301000D01*
X88436094Y-85301000D01*
X88340528Y-85291588D01*
X88244960Y-85282175D01*
X87999720Y-85207782D01*
X87773706Y-85086975D01*
X87708124Y-85033153D01*
X87575603Y-84924397D01*
X87455376Y-84777899D01*
X87413025Y-84726294D01*
X87292218Y-84500280D01*
X87217825Y-84255040D01*
X87192706Y-84000000D01*
X87217825Y-83744960D01*
X87292218Y-83499720D01*
X87413025Y-83273706D01*
X87507857Y-83158153D01*
X87575603Y-83075603D01*
X87722101Y-82955376D01*
X87773706Y-82913025D01*
X87999720Y-82792218D01*
X88244960Y-82717825D01*
X88340527Y-82708413D01*
X88436094Y-82699000D01*
X89563906Y-82699000D01*
X89659473Y-82708413D01*
G37*
G36*
X136659472Y-82208412D02*
G01*
X136755040Y-82217825D01*
X137000280Y-82292218D01*
X137226294Y-82413025D01*
X137277899Y-82455376D01*
X137424397Y-82575603D01*
X137525665Y-82699000D01*
X137586975Y-82773706D01*
X137707782Y-82999720D01*
X137782175Y-83244960D01*
X137807294Y-83500000D01*
X137782175Y-83755040D01*
X137707782Y-84000280D01*
X137586975Y-84226294D01*
X137556851Y-84263000D01*
X137424397Y-84424397D01*
X137306749Y-84520947D01*
X137226294Y-84586975D01*
X137000280Y-84707782D01*
X136755040Y-84782175D01*
X136659472Y-84791588D01*
X136563906Y-84801000D01*
X135436094Y-84801000D01*
X135340528Y-84791588D01*
X135244960Y-84782175D01*
X134999720Y-84707782D01*
X134773706Y-84586975D01*
X134693251Y-84520947D01*
X134575603Y-84424397D01*
X134443149Y-84263000D01*
X134413025Y-84226294D01*
X134292218Y-84000280D01*
X134217825Y-83755040D01*
X134192706Y-83500000D01*
X134217825Y-83244960D01*
X134292218Y-82999720D01*
X134413025Y-82773706D01*
X134474335Y-82699000D01*
X134575603Y-82575603D01*
X134722101Y-82455376D01*
X134773706Y-82413025D01*
X134999720Y-82292218D01*
X135244960Y-82217825D01*
X135340528Y-82208412D01*
X135436094Y-82199000D01*
X136563906Y-82199000D01*
X136659472Y-82208412D01*
G37*
G36*
X130039499Y-83478445D02*
G01*
X130076995Y-83489820D01*
X130111554Y-83508292D01*
X130141847Y-83533153D01*
X130166708Y-83563446D01*
X130185180Y-83598005D01*
X130196555Y-83635501D01*
X130201000Y-83680638D01*
X130201000Y-84319362D01*
X130196555Y-84364499D01*
X130185180Y-84401995D01*
X130166708Y-84436554D01*
X130141847Y-84466847D01*
X130111554Y-84491708D01*
X130076995Y-84510180D01*
X130039499Y-84521555D01*
X129994362Y-84526000D01*
X129255638Y-84526000D01*
X129210501Y-84521555D01*
X129173005Y-84510180D01*
X129138446Y-84491708D01*
X129108153Y-84466847D01*
X129083292Y-84436554D01*
X129064820Y-84401995D01*
X129053445Y-84364499D01*
X129049000Y-84319362D01*
X129049000Y-83680638D01*
X129053445Y-83635501D01*
X129064820Y-83598005D01*
X129083292Y-83563446D01*
X129108153Y-83533153D01*
X129138446Y-83508292D01*
X129173005Y-83489820D01*
X129210501Y-83478445D01*
X129255638Y-83474000D01*
X129994362Y-83474000D01*
X130039499Y-83478445D01*
G37*
G36*
X131789499Y-83478445D02*
G01*
X131826995Y-83489820D01*
X131861554Y-83508292D01*
X131891847Y-83533153D01*
X131916708Y-83563446D01*
X131935180Y-83598005D01*
X131946555Y-83635501D01*
X131951000Y-83680638D01*
X131951000Y-84319362D01*
X131946555Y-84364499D01*
X131935180Y-84401995D01*
X131916708Y-84436554D01*
X131891847Y-84466847D01*
X131861554Y-84491708D01*
X131826995Y-84510180D01*
X131789499Y-84521555D01*
X131744362Y-84526000D01*
X131005638Y-84526000D01*
X130960501Y-84521555D01*
X130923005Y-84510180D01*
X130888446Y-84491708D01*
X130858153Y-84466847D01*
X130833292Y-84436554D01*
X130814820Y-84401995D01*
X130803445Y-84364499D01*
X130799000Y-84319362D01*
X130799000Y-83680638D01*
X130803445Y-83635501D01*
X130814820Y-83598005D01*
X130833292Y-83563446D01*
X130858153Y-83533153D01*
X130888446Y-83508292D01*
X130923005Y-83489820D01*
X130960501Y-83478445D01*
X131005638Y-83474000D01*
X131744362Y-83474000D01*
X131789499Y-83478445D01*
G37*
G36*
X102864499Y-83103445D02*
G01*
X102901995Y-83114820D01*
X102936554Y-83133292D01*
X102966847Y-83158153D01*
X102991708Y-83188446D01*
X103010180Y-83223005D01*
X103021555Y-83260501D01*
X103026000Y-83305638D01*
X103026000Y-84044362D01*
X103021555Y-84089499D01*
X103010180Y-84126995D01*
X102991708Y-84161554D01*
X102966847Y-84191847D01*
X102936554Y-84216708D01*
X102901995Y-84235180D01*
X102864499Y-84246555D01*
X102819362Y-84251000D01*
X102180638Y-84251000D01*
X102135501Y-84246555D01*
X102098005Y-84235180D01*
X102063446Y-84216708D01*
X102033153Y-84191847D01*
X102008292Y-84161554D01*
X101989820Y-84126995D01*
X101978445Y-84089499D01*
X101974000Y-84044362D01*
X101974000Y-83305638D01*
X101978445Y-83260501D01*
X101989820Y-83223005D01*
X102008292Y-83188446D01*
X102033153Y-83158153D01*
X102063446Y-83133292D01*
X102098005Y-83114820D01*
X102135501Y-83103445D01*
X102180638Y-83099000D01*
X102819362Y-83099000D01*
X102864499Y-83103445D01*
G37*
G36*
X107664499Y-83103445D02*
G01*
X107701995Y-83114820D01*
X107736554Y-83133292D01*
X107766847Y-83158153D01*
X107791708Y-83188446D01*
X107810180Y-83223005D01*
X107821555Y-83260501D01*
X107826000Y-83305638D01*
X107826000Y-84044362D01*
X107821555Y-84089499D01*
X107810180Y-84126995D01*
X107791708Y-84161554D01*
X107766847Y-84191847D01*
X107736554Y-84216708D01*
X107701995Y-84235180D01*
X107664499Y-84246555D01*
X107619362Y-84251000D01*
X106980638Y-84251000D01*
X106935501Y-84246555D01*
X106898005Y-84235180D01*
X106863446Y-84216708D01*
X106833153Y-84191847D01*
X106808292Y-84161554D01*
X106789820Y-84126995D01*
X106778445Y-84089499D01*
X106774000Y-84044362D01*
X106774000Y-83305638D01*
X106778445Y-83260501D01*
X106789820Y-83223005D01*
X106808292Y-83188446D01*
X106833153Y-83158153D01*
X106863446Y-83133292D01*
X106898005Y-83114820D01*
X106935501Y-83103445D01*
X106980638Y-83099000D01*
X107619362Y-83099000D01*
X107664499Y-83103445D01*
G37*
G36*
X106064499Y-83103445D02*
G01*
X106101995Y-83114820D01*
X106136554Y-83133292D01*
X106166847Y-83158153D01*
X106191708Y-83188446D01*
X106210180Y-83223005D01*
X106221555Y-83260501D01*
X106226000Y-83305638D01*
X106226000Y-84044362D01*
X106221555Y-84089499D01*
X106210180Y-84126995D01*
X106191708Y-84161554D01*
X106166847Y-84191847D01*
X106136554Y-84216708D01*
X106101995Y-84235180D01*
X106064499Y-84246555D01*
X106019362Y-84251000D01*
X105380638Y-84251000D01*
X105335501Y-84246555D01*
X105298005Y-84235180D01*
X105263446Y-84216708D01*
X105233153Y-84191847D01*
X105208292Y-84161554D01*
X105189820Y-84126995D01*
X105178445Y-84089499D01*
X105174000Y-84044362D01*
X105174000Y-83305638D01*
X105178445Y-83260501D01*
X105189820Y-83223005D01*
X105208292Y-83188446D01*
X105233153Y-83158153D01*
X105263446Y-83133292D01*
X105298005Y-83114820D01*
X105335501Y-83103445D01*
X105380638Y-83099000D01*
X106019362Y-83099000D01*
X106064499Y-83103445D01*
G37*
G36*
X104464499Y-83103445D02*
G01*
X104501995Y-83114820D01*
X104536554Y-83133292D01*
X104566847Y-83158153D01*
X104591708Y-83188446D01*
X104610180Y-83223005D01*
X104621555Y-83260501D01*
X104626000Y-83305638D01*
X104626000Y-84044362D01*
X104621555Y-84089499D01*
X104610180Y-84126995D01*
X104591708Y-84161554D01*
X104566847Y-84191847D01*
X104536554Y-84216708D01*
X104501995Y-84235180D01*
X104464499Y-84246555D01*
X104419362Y-84251000D01*
X103780638Y-84251000D01*
X103735501Y-84246555D01*
X103698005Y-84235180D01*
X103663446Y-84216708D01*
X103633153Y-84191847D01*
X103608292Y-84161554D01*
X103589820Y-84126995D01*
X103578445Y-84089499D01*
X103574000Y-84044362D01*
X103574000Y-83305638D01*
X103578445Y-83260501D01*
X103589820Y-83223005D01*
X103608292Y-83188446D01*
X103633153Y-83158153D01*
X103663446Y-83133292D01*
X103698005Y-83114820D01*
X103735501Y-83103445D01*
X103780638Y-83099000D01*
X104419362Y-83099000D01*
X104464499Y-83103445D01*
G37*
G36*
X107664499Y-81353445D02*
G01*
X107701995Y-81364820D01*
X107736554Y-81383292D01*
X107766847Y-81408153D01*
X107791708Y-81438446D01*
X107810180Y-81473005D01*
X107821555Y-81510501D01*
X107826000Y-81555638D01*
X107826000Y-82294362D01*
X107821555Y-82339499D01*
X107810180Y-82376995D01*
X107791708Y-82411554D01*
X107766847Y-82441847D01*
X107736554Y-82466708D01*
X107701995Y-82485180D01*
X107664499Y-82496555D01*
X107619362Y-82501000D01*
X106980638Y-82501000D01*
X106935501Y-82496555D01*
X106898005Y-82485180D01*
X106863446Y-82466708D01*
X106833153Y-82441847D01*
X106808292Y-82411554D01*
X106789820Y-82376995D01*
X106778445Y-82339499D01*
X106774000Y-82294362D01*
X106774000Y-81555638D01*
X106778445Y-81510501D01*
X106789820Y-81473005D01*
X106808292Y-81438446D01*
X106833153Y-81408153D01*
X106863446Y-81383292D01*
X106898005Y-81364820D01*
X106935501Y-81353445D01*
X106980638Y-81349000D01*
X107619362Y-81349000D01*
X107664499Y-81353445D01*
G37*
G36*
X102864499Y-81353445D02*
G01*
X102901995Y-81364820D01*
X102936554Y-81383292D01*
X102966847Y-81408153D01*
X102991708Y-81438446D01*
X103010180Y-81473005D01*
X103021555Y-81510501D01*
X103026000Y-81555638D01*
X103026000Y-82294362D01*
X103021555Y-82339499D01*
X103010180Y-82376995D01*
X102991708Y-82411554D01*
X102966847Y-82441847D01*
X102936554Y-82466708D01*
X102901995Y-82485180D01*
X102864499Y-82496555D01*
X102819362Y-82501000D01*
X102180638Y-82501000D01*
X102135501Y-82496555D01*
X102098005Y-82485180D01*
X102063446Y-82466708D01*
X102033153Y-82441847D01*
X102008292Y-82411554D01*
X101989820Y-82376995D01*
X101978445Y-82339499D01*
X101974000Y-82294362D01*
X101974000Y-81555638D01*
X101978445Y-81510501D01*
X101989820Y-81473005D01*
X102008292Y-81438446D01*
X102033153Y-81408153D01*
X102063446Y-81383292D01*
X102098005Y-81364820D01*
X102135501Y-81353445D01*
X102180638Y-81349000D01*
X102819362Y-81349000D01*
X102864499Y-81353445D01*
G37*
G36*
X106064499Y-81353445D02*
G01*
X106101995Y-81364820D01*
X106136554Y-81383292D01*
X106166847Y-81408153D01*
X106191708Y-81438446D01*
X106210180Y-81473005D01*
X106221555Y-81510501D01*
X106226000Y-81555638D01*
X106226000Y-82294362D01*
X106221555Y-82339499D01*
X106210180Y-82376995D01*
X106191708Y-82411554D01*
X106166847Y-82441847D01*
X106136554Y-82466708D01*
X106101995Y-82485180D01*
X106064499Y-82496555D01*
X106019362Y-82501000D01*
X105380638Y-82501000D01*
X105335501Y-82496555D01*
X105298005Y-82485180D01*
X105263446Y-82466708D01*
X105233153Y-82441847D01*
X105208292Y-82411554D01*
X105189820Y-82376995D01*
X105178445Y-82339499D01*
X105174000Y-82294362D01*
X105174000Y-81555638D01*
X105178445Y-81510501D01*
X105189820Y-81473005D01*
X105208292Y-81438446D01*
X105233153Y-81408153D01*
X105263446Y-81383292D01*
X105298005Y-81364820D01*
X105335501Y-81353445D01*
X105380638Y-81349000D01*
X106019362Y-81349000D01*
X106064499Y-81353445D01*
G37*
G36*
X125151000Y-82501000D02*
G01*
X123749000Y-82501000D01*
X123749000Y-81599000D01*
X125151000Y-81599000D01*
X125151000Y-82501000D01*
G37*
G36*
X131451000Y-82501000D02*
G01*
X130049000Y-82501000D01*
X130049000Y-81599000D01*
X131451000Y-81599000D01*
X131451000Y-82501000D01*
G37*
G36*
X104464499Y-81353445D02*
G01*
X104501995Y-81364820D01*
X104536554Y-81383292D01*
X104566847Y-81408153D01*
X104591708Y-81438446D01*
X104610180Y-81473005D01*
X104621555Y-81510501D01*
X104626000Y-81555638D01*
X104626000Y-82294362D01*
X104621555Y-82339499D01*
X104610180Y-82376995D01*
X104591708Y-82411554D01*
X104566847Y-82441847D01*
X104536554Y-82466708D01*
X104501995Y-82485180D01*
X104464499Y-82496555D01*
X104419362Y-82501000D01*
X103780638Y-82501000D01*
X103735501Y-82496555D01*
X103698005Y-82485180D01*
X103663446Y-82466708D01*
X103633153Y-82441847D01*
X103608292Y-82411554D01*
X103589820Y-82376995D01*
X103578445Y-82339499D01*
X103574000Y-82294362D01*
X103574000Y-81555638D01*
X103578445Y-81510501D01*
X103589820Y-81473005D01*
X103608292Y-81438446D01*
X103633153Y-81408153D01*
X103663446Y-81383292D01*
X103698005Y-81364820D01*
X103735501Y-81353445D01*
X103780638Y-81349000D01*
X104419362Y-81349000D01*
X104464499Y-81353445D01*
G37*
G36*
X125151000Y-81221000D02*
G01*
X123749000Y-81221000D01*
X123749000Y-80319000D01*
X125151000Y-80319000D01*
X125151000Y-81221000D01*
G37*
G36*
X131451000Y-81221000D02*
G01*
X130049000Y-81221000D01*
X130049000Y-80319000D01*
X131451000Y-80319000D01*
X131451000Y-81221000D01*
G37*
G36*
X131451000Y-79961000D02*
G01*
X130049000Y-79961000D01*
X130049000Y-79059000D01*
X131451000Y-79059000D01*
X131451000Y-79961000D01*
G37*
G36*
X125151000Y-79961000D02*
G01*
X123749000Y-79961000D01*
X123749000Y-79059000D01*
X125151000Y-79059000D01*
X125151000Y-79961000D01*
G37*
G36*
X125151000Y-78691000D02*
G01*
X123749000Y-78691000D01*
X123749000Y-77789000D01*
X125151000Y-77789000D01*
X125151000Y-78691000D01*
G37*
G36*
X131451000Y-78691000D02*
G01*
X130049000Y-78691000D01*
X130049000Y-77789000D01*
X131451000Y-77789000D01*
X131451000Y-78691000D01*
G37*
G36*
X133439499Y-77578445D02*
G01*
X133476995Y-77589820D01*
X133511554Y-77608292D01*
X133541847Y-77633153D01*
X133566708Y-77663446D01*
X133585180Y-77698005D01*
X133596555Y-77735501D01*
X133601000Y-77780638D01*
X133601000Y-78419362D01*
X133596555Y-78464499D01*
X133585180Y-78501995D01*
X133566708Y-78536554D01*
X133541847Y-78566847D01*
X133511554Y-78591708D01*
X133476995Y-78610180D01*
X133439499Y-78621555D01*
X133394362Y-78626000D01*
X132655638Y-78626000D01*
X132610501Y-78621555D01*
X132573005Y-78610180D01*
X132538446Y-78591708D01*
X132508153Y-78566847D01*
X132483292Y-78536554D01*
X132464820Y-78501995D01*
X132453445Y-78464499D01*
X132449000Y-78419362D01*
X132449000Y-77780638D01*
X132453445Y-77735501D01*
X132464820Y-77698005D01*
X132483292Y-77663446D01*
X132508153Y-77633153D01*
X132538446Y-77608292D01*
X132573005Y-77589820D01*
X132610501Y-77578445D01*
X132655638Y-77574000D01*
X133394362Y-77574000D01*
X133439499Y-77578445D01*
G37*
G36*
X135189499Y-77578445D02*
G01*
X135226995Y-77589820D01*
X135261554Y-77608292D01*
X135291847Y-77633153D01*
X135316708Y-77663446D01*
X135335180Y-77698005D01*
X135346555Y-77735501D01*
X135351000Y-77780638D01*
X135351000Y-78419362D01*
X135346555Y-78464499D01*
X135335180Y-78501995D01*
X135316708Y-78536554D01*
X135291847Y-78566847D01*
X135261554Y-78591708D01*
X135226995Y-78610180D01*
X135189499Y-78621555D01*
X135144362Y-78626000D01*
X134405638Y-78626000D01*
X134360501Y-78621555D01*
X134323005Y-78610180D01*
X134288446Y-78591708D01*
X134258153Y-78566847D01*
X134233292Y-78536554D01*
X134214820Y-78501995D01*
X134203445Y-78464499D01*
X134199000Y-78419362D01*
X134199000Y-77780638D01*
X134203445Y-77735501D01*
X134214820Y-77698005D01*
X134233292Y-77663446D01*
X134258153Y-77633153D01*
X134288446Y-77608292D01*
X134323005Y-77589820D01*
X134360501Y-77578445D01*
X134405638Y-77574000D01*
X135144362Y-77574000D01*
X135189499Y-77578445D01*
G37*
G36*
X95302325Y-76537090D02*
G01*
X95441038Y-76594547D01*
X95565872Y-76677958D01*
X95672042Y-76784128D01*
X95755453Y-76908962D01*
X95812910Y-77047675D01*
X95842200Y-77194929D01*
X95842200Y-77345071D01*
X95812910Y-77492325D01*
X95755453Y-77631038D01*
X95672042Y-77755872D01*
X95565872Y-77862042D01*
X95441038Y-77945453D01*
X95302325Y-78002910D01*
X95155071Y-78032200D01*
X95004929Y-78032200D01*
X94857675Y-78002910D01*
X94718962Y-77945453D01*
X94594128Y-77862042D01*
X94487958Y-77755872D01*
X94404547Y-77631038D01*
X94347090Y-77492325D01*
X94317800Y-77345071D01*
X94317800Y-77194929D01*
X94347090Y-77047675D01*
X94404547Y-76908962D01*
X94487958Y-76784128D01*
X94594128Y-76677958D01*
X94718962Y-76594547D01*
X94857675Y-76537090D01*
X95004929Y-76507800D01*
X95155071Y-76507800D01*
X95302325Y-76537090D01*
G37*
G36*
X117302325Y-76537090D02*
G01*
X117441038Y-76594547D01*
X117565872Y-76677958D01*
X117672042Y-76784128D01*
X117755453Y-76908962D01*
X117812910Y-77047675D01*
X117842200Y-77194929D01*
X117842200Y-77345071D01*
X117812910Y-77492325D01*
X117755453Y-77631038D01*
X117672042Y-77755872D01*
X117565872Y-77862042D01*
X117441038Y-77945453D01*
X117302325Y-78002910D01*
X117155071Y-78032200D01*
X117004929Y-78032200D01*
X116857675Y-78002910D01*
X116718962Y-77945453D01*
X116594128Y-77862042D01*
X116487958Y-77755872D01*
X116404547Y-77631038D01*
X116347090Y-77492325D01*
X116317800Y-77345071D01*
X116317800Y-77194929D01*
X116347090Y-77047675D01*
X116404547Y-76908962D01*
X116487958Y-76784128D01*
X116594128Y-76677958D01*
X116718962Y-76594547D01*
X116857675Y-76537090D01*
X117004929Y-76507800D01*
X117155071Y-76507800D01*
X117302325Y-76537090D01*
G37*
G36*
X85142325Y-76537090D02*
G01*
X85281038Y-76594547D01*
X85405872Y-76677958D01*
X85512042Y-76784128D01*
X85595453Y-76908962D01*
X85652910Y-77047675D01*
X85682200Y-77194929D01*
X85682200Y-77345071D01*
X85652910Y-77492325D01*
X85595453Y-77631038D01*
X85512042Y-77755872D01*
X85405872Y-77862042D01*
X85281038Y-77945453D01*
X85142325Y-78002910D01*
X84995071Y-78032200D01*
X84844929Y-78032200D01*
X84697675Y-78002910D01*
X84558962Y-77945453D01*
X84434128Y-77862042D01*
X84327958Y-77755872D01*
X84244547Y-77631038D01*
X84187090Y-77492325D01*
X84157800Y-77345071D01*
X84157800Y-77194929D01*
X84187090Y-77047675D01*
X84244547Y-76908962D01*
X84327958Y-76784128D01*
X84434128Y-76677958D01*
X84558962Y-76594547D01*
X84697675Y-76537090D01*
X84844929Y-76507800D01*
X84995071Y-76507800D01*
X85142325Y-76537090D01*
G37*
G36*
X90222325Y-76537090D02*
G01*
X90361038Y-76594547D01*
X90485872Y-76677958D01*
X90592042Y-76784128D01*
X90675453Y-76908962D01*
X90732910Y-77047675D01*
X90762200Y-77194929D01*
X90762200Y-77345071D01*
X90732910Y-77492325D01*
X90675453Y-77631038D01*
X90592042Y-77755872D01*
X90485872Y-77862042D01*
X90361038Y-77945453D01*
X90222325Y-78002910D01*
X90075071Y-78032200D01*
X89924929Y-78032200D01*
X89777675Y-78002910D01*
X89638962Y-77945453D01*
X89514128Y-77862042D01*
X89407958Y-77755872D01*
X89324547Y-77631038D01*
X89267090Y-77492325D01*
X89237800Y-77345071D01*
X89237800Y-77194929D01*
X89267090Y-77047675D01*
X89324547Y-76908962D01*
X89407958Y-76784128D01*
X89514128Y-76677958D01*
X89638962Y-76594547D01*
X89777675Y-76537090D01*
X89924929Y-76507800D01*
X90075071Y-76507800D01*
X90222325Y-76537090D01*
G37*
G36*
X87682325Y-76537090D02*
G01*
X87821038Y-76594547D01*
X87945872Y-76677958D01*
X88052042Y-76784128D01*
X88135453Y-76908962D01*
X88192910Y-77047675D01*
X88222200Y-77194929D01*
X88222200Y-77345071D01*
X88192910Y-77492325D01*
X88135453Y-77631038D01*
X88052042Y-77755872D01*
X87945872Y-77862042D01*
X87821038Y-77945453D01*
X87682325Y-78002910D01*
X87535071Y-78032200D01*
X87384929Y-78032200D01*
X87237675Y-78002910D01*
X87098962Y-77945453D01*
X86974128Y-77862042D01*
X86867958Y-77755872D01*
X86784547Y-77631038D01*
X86727090Y-77492325D01*
X86697800Y-77345071D01*
X86697800Y-77194929D01*
X86727090Y-77047675D01*
X86784547Y-76908962D01*
X86867958Y-76784128D01*
X86974128Y-76677958D01*
X87098962Y-76594547D01*
X87237675Y-76537090D01*
X87384929Y-76507800D01*
X87535071Y-76507800D01*
X87682325Y-76537090D01*
G37*
G36*
X107142325Y-76537090D02*
G01*
X107281038Y-76594547D01*
X107405872Y-76677958D01*
X107512042Y-76784128D01*
X107595453Y-76908962D01*
X107652910Y-77047675D01*
X107682200Y-77194929D01*
X107682200Y-77345071D01*
X107652910Y-77492325D01*
X107595453Y-77631038D01*
X107512042Y-77755872D01*
X107405872Y-77862042D01*
X107281038Y-77945453D01*
X107142325Y-78002910D01*
X106995071Y-78032200D01*
X106844929Y-78032200D01*
X106697675Y-78002910D01*
X106558962Y-77945453D01*
X106434128Y-77862042D01*
X106327958Y-77755872D01*
X106244547Y-77631038D01*
X106187090Y-77492325D01*
X106157800Y-77345071D01*
X106157800Y-77194929D01*
X106187090Y-77047675D01*
X106244547Y-76908962D01*
X106327958Y-76784128D01*
X106434128Y-76677958D01*
X106558962Y-76594547D01*
X106697675Y-76537090D01*
X106844929Y-76507800D01*
X106995071Y-76507800D01*
X107142325Y-76537090D01*
G37*
G36*
X109682325Y-76537090D02*
G01*
X109821038Y-76594547D01*
X109945872Y-76677958D01*
X110052042Y-76784128D01*
X110135453Y-76908962D01*
X110192910Y-77047675D01*
X110222200Y-77194929D01*
X110222200Y-77345071D01*
X110192910Y-77492325D01*
X110135453Y-77631038D01*
X110052042Y-77755872D01*
X109945872Y-77862042D01*
X109821038Y-77945453D01*
X109682325Y-78002910D01*
X109535071Y-78032200D01*
X109384929Y-78032200D01*
X109237675Y-78002910D01*
X109098962Y-77945453D01*
X108974128Y-77862042D01*
X108867958Y-77755872D01*
X108784547Y-77631038D01*
X108727090Y-77492325D01*
X108697800Y-77345071D01*
X108697800Y-77194929D01*
X108727090Y-77047675D01*
X108784547Y-76908962D01*
X108867958Y-76784128D01*
X108974128Y-76677958D01*
X109098962Y-76594547D01*
X109237675Y-76537090D01*
X109384929Y-76507800D01*
X109535071Y-76507800D01*
X109682325Y-76537090D01*
G37*
G36*
X112222325Y-76537090D02*
G01*
X112361038Y-76594547D01*
X112485872Y-76677958D01*
X112592042Y-76784128D01*
X112675453Y-76908962D01*
X112732910Y-77047675D01*
X112762200Y-77194929D01*
X112762200Y-77345071D01*
X112732910Y-77492325D01*
X112675453Y-77631038D01*
X112592042Y-77755872D01*
X112485872Y-77862042D01*
X112361038Y-77945453D01*
X112222325Y-78002910D01*
X112075071Y-78032200D01*
X111924929Y-78032200D01*
X111777675Y-78002910D01*
X111638962Y-77945453D01*
X111514128Y-77862042D01*
X111407958Y-77755872D01*
X111324547Y-77631038D01*
X111267090Y-77492325D01*
X111237800Y-77345071D01*
X111237800Y-77194929D01*
X111267090Y-77047675D01*
X111324547Y-76908962D01*
X111407958Y-76784128D01*
X111514128Y-76677958D01*
X111638962Y-76594547D01*
X111777675Y-76537090D01*
X111924929Y-76507800D01*
X112075071Y-76507800D01*
X112222325Y-76537090D01*
G37*
G36*
X114762325Y-76537090D02*
G01*
X114901038Y-76594547D01*
X115025872Y-76677958D01*
X115132042Y-76784128D01*
X115215453Y-76908962D01*
X115272910Y-77047675D01*
X115302200Y-77194929D01*
X115302200Y-77345071D01*
X115272910Y-77492325D01*
X115215453Y-77631038D01*
X115132042Y-77755872D01*
X115025872Y-77862042D01*
X114901038Y-77945453D01*
X114762325Y-78002910D01*
X114615071Y-78032200D01*
X114464929Y-78032200D01*
X114317675Y-78002910D01*
X114178962Y-77945453D01*
X114054128Y-77862042D01*
X113947958Y-77755872D01*
X113864547Y-77631038D01*
X113807090Y-77492325D01*
X113777800Y-77345071D01*
X113777800Y-77194929D01*
X113807090Y-77047675D01*
X113864547Y-76908962D01*
X113947958Y-76784128D01*
X114054128Y-76677958D01*
X114178962Y-76594547D01*
X114317675Y-76537090D01*
X114464929Y-76507800D01*
X114615071Y-76507800D01*
X114762325Y-76537090D01*
G37*
G36*
X92762325Y-76537090D02*
G01*
X92901038Y-76594547D01*
X93025872Y-76677958D01*
X93132042Y-76784128D01*
X93215453Y-76908962D01*
X93272910Y-77047675D01*
X93302200Y-77194929D01*
X93302200Y-77345071D01*
X93272910Y-77492325D01*
X93215453Y-77631038D01*
X93132042Y-77755872D01*
X93025872Y-77862042D01*
X92901038Y-77945453D01*
X92762325Y-78002910D01*
X92615071Y-78032200D01*
X92464929Y-78032200D01*
X92317675Y-78002910D01*
X92178962Y-77945453D01*
X92054128Y-77862042D01*
X91947958Y-77755872D01*
X91864547Y-77631038D01*
X91807090Y-77492325D01*
X91777800Y-77345071D01*
X91777800Y-77194929D01*
X91807090Y-77047675D01*
X91864547Y-76908962D01*
X91947958Y-76784128D01*
X92054128Y-76677958D01*
X92178962Y-76594547D01*
X92317675Y-76537090D01*
X92464929Y-76507800D01*
X92615071Y-76507800D01*
X92762325Y-76537090D01*
G37*
G36*
X125151000Y-77411000D02*
G01*
X123749000Y-77411000D01*
X123749000Y-76509000D01*
X125151000Y-76509000D01*
X125151000Y-77411000D01*
G37*
G36*
X131451000Y-77411000D02*
G01*
X130049000Y-77411000D01*
X130049000Y-76509000D01*
X131451000Y-76509000D01*
X131451000Y-77411000D01*
G37*
G36*
X144264499Y-75903445D02*
G01*
X144301995Y-75914820D01*
X144336554Y-75933292D01*
X144366847Y-75958153D01*
X144391708Y-75988446D01*
X144410180Y-76023005D01*
X144421555Y-76060501D01*
X144426000Y-76105638D01*
X144426000Y-76844362D01*
X144421555Y-76889499D01*
X144410180Y-76926995D01*
X144391708Y-76961554D01*
X144366847Y-76991847D01*
X144336554Y-77016708D01*
X144301995Y-77035180D01*
X144264499Y-77046555D01*
X144219362Y-77051000D01*
X143580638Y-77051000D01*
X143535501Y-77046555D01*
X143498005Y-77035180D01*
X143463446Y-77016708D01*
X143433153Y-76991847D01*
X143408292Y-76961554D01*
X143389820Y-76926995D01*
X143378445Y-76889499D01*
X143374000Y-76844362D01*
X143374000Y-76105638D01*
X143378445Y-76060501D01*
X143389820Y-76023005D01*
X143408292Y-75988446D01*
X143433153Y-75958153D01*
X143463446Y-75933292D01*
X143498005Y-75914820D01*
X143535501Y-75903445D01*
X143580638Y-75899000D01*
X144219362Y-75899000D01*
X144264499Y-75903445D01*
G37*
G36*
X125151000Y-76141000D02*
G01*
X123749000Y-76141000D01*
X123749000Y-75239000D01*
X125151000Y-75239000D01*
X125151000Y-76141000D01*
G37*
G36*
X131451000Y-76141000D02*
G01*
X130049000Y-76141000D01*
X130049000Y-75239000D01*
X131451000Y-75239000D01*
X131451000Y-76141000D01*
G37*
G36*
X135189499Y-75078445D02*
G01*
X135226995Y-75089820D01*
X135261554Y-75108292D01*
X135291847Y-75133153D01*
X135316708Y-75163446D01*
X135335180Y-75198005D01*
X135346555Y-75235501D01*
X135351000Y-75280638D01*
X135351000Y-75919362D01*
X135346555Y-75964499D01*
X135335180Y-76001995D01*
X135316708Y-76036554D01*
X135291847Y-76066847D01*
X135261554Y-76091708D01*
X135226995Y-76110180D01*
X135189499Y-76121555D01*
X135144362Y-76126000D01*
X134405638Y-76126000D01*
X134360501Y-76121555D01*
X134323005Y-76110180D01*
X134288446Y-76091708D01*
X134258153Y-76066847D01*
X134233292Y-76036554D01*
X134214820Y-76001995D01*
X134203445Y-75964499D01*
X134199000Y-75919362D01*
X134199000Y-75280638D01*
X134203445Y-75235501D01*
X134214820Y-75198005D01*
X134233292Y-75163446D01*
X134258153Y-75133153D01*
X134288446Y-75108292D01*
X134323005Y-75089820D01*
X134360501Y-75078445D01*
X134405638Y-75074000D01*
X135144362Y-75074000D01*
X135189499Y-75078445D01*
G37*
G36*
X133439499Y-75078445D02*
G01*
X133476995Y-75089820D01*
X133511554Y-75108292D01*
X133541847Y-75133153D01*
X133566708Y-75163446D01*
X133585180Y-75198005D01*
X133596555Y-75235501D01*
X133601000Y-75280638D01*
X133601000Y-75919362D01*
X133596555Y-75964499D01*
X133585180Y-76001995D01*
X133566708Y-76036554D01*
X133541847Y-76066847D01*
X133511554Y-76091708D01*
X133476995Y-76110180D01*
X133439499Y-76121555D01*
X133394362Y-76126000D01*
X132655638Y-76126000D01*
X132610501Y-76121555D01*
X132573005Y-76110180D01*
X132538446Y-76091708D01*
X132508153Y-76066847D01*
X132483292Y-76036554D01*
X132464820Y-76001995D01*
X132453445Y-75964499D01*
X132449000Y-75919362D01*
X132449000Y-75280638D01*
X132453445Y-75235501D01*
X132464820Y-75198005D01*
X132483292Y-75163446D01*
X132508153Y-75133153D01*
X132538446Y-75108292D01*
X132573005Y-75089820D01*
X132610501Y-75078445D01*
X132655638Y-75074000D01*
X133394362Y-75074000D01*
X133439499Y-75078445D01*
G37*
G36*
X107142325Y-73997090D02*
G01*
X107281038Y-74054547D01*
X107405872Y-74137958D01*
X107512042Y-74244128D01*
X107595453Y-74368962D01*
X107652910Y-74507675D01*
X107682200Y-74654929D01*
X107682200Y-74805071D01*
X107652910Y-74952325D01*
X107595453Y-75091038D01*
X107512042Y-75215872D01*
X107405872Y-75322042D01*
X107281038Y-75405453D01*
X107142325Y-75462910D01*
X106995071Y-75492200D01*
X106844929Y-75492200D01*
X106697675Y-75462910D01*
X106558962Y-75405453D01*
X106434128Y-75322042D01*
X106327958Y-75215872D01*
X106244547Y-75091038D01*
X106187090Y-74952325D01*
X106157800Y-74805071D01*
X106157800Y-74654929D01*
X106187090Y-74507675D01*
X106244547Y-74368962D01*
X106327958Y-74244128D01*
X106434128Y-74137958D01*
X106558962Y-74054547D01*
X106697675Y-73997090D01*
X106844929Y-73967800D01*
X106995071Y-73967800D01*
X107142325Y-73997090D01*
G37*
G36*
X92762325Y-73997090D02*
G01*
X92901038Y-74054547D01*
X93025872Y-74137958D01*
X93132042Y-74244128D01*
X93215453Y-74368962D01*
X93272910Y-74507675D01*
X93302200Y-74654929D01*
X93302200Y-74805071D01*
X93272910Y-74952325D01*
X93215453Y-75091038D01*
X93132042Y-75215872D01*
X93025872Y-75322042D01*
X92901038Y-75405453D01*
X92762325Y-75462910D01*
X92615071Y-75492200D01*
X92464929Y-75492200D01*
X92317675Y-75462910D01*
X92178962Y-75405453D01*
X92054128Y-75322042D01*
X91947958Y-75215872D01*
X91864547Y-75091038D01*
X91807090Y-74952325D01*
X91777800Y-74805071D01*
X91777800Y-74654929D01*
X91807090Y-74507675D01*
X91864547Y-74368962D01*
X91947958Y-74244128D01*
X92054128Y-74137958D01*
X92178962Y-74054547D01*
X92317675Y-73997090D01*
X92464929Y-73967800D01*
X92615071Y-73967800D01*
X92762325Y-73997090D01*
G37*
G36*
X109682325Y-73997090D02*
G01*
X109821038Y-74054547D01*
X109945872Y-74137958D01*
X110052042Y-74244128D01*
X110135453Y-74368962D01*
X110192910Y-74507675D01*
X110222200Y-74654929D01*
X110222200Y-74805071D01*
X110192910Y-74952325D01*
X110135453Y-75091038D01*
X110052042Y-75215872D01*
X109945872Y-75322042D01*
X109821038Y-75405453D01*
X109682325Y-75462910D01*
X109535071Y-75492200D01*
X109384929Y-75492200D01*
X109237675Y-75462910D01*
X109098962Y-75405453D01*
X108974128Y-75322042D01*
X108867958Y-75215872D01*
X108784547Y-75091038D01*
X108727090Y-74952325D01*
X108697800Y-74805071D01*
X108697800Y-74654929D01*
X108727090Y-74507675D01*
X108784547Y-74368962D01*
X108867958Y-74244128D01*
X108974128Y-74137958D01*
X109098962Y-74054547D01*
X109237675Y-73997090D01*
X109384929Y-73967800D01*
X109535071Y-73967800D01*
X109682325Y-73997090D01*
G37*
G36*
X90222325Y-73997090D02*
G01*
X90361038Y-74054547D01*
X90485872Y-74137958D01*
X90592042Y-74244128D01*
X90675453Y-74368962D01*
X90732910Y-74507675D01*
X90762200Y-74654929D01*
X90762200Y-74805071D01*
X90732910Y-74952325D01*
X90675453Y-75091038D01*
X90592042Y-75215872D01*
X90485872Y-75322042D01*
X90361038Y-75405453D01*
X90222325Y-75462910D01*
X90075071Y-75492200D01*
X89924929Y-75492200D01*
X89777675Y-75462910D01*
X89638962Y-75405453D01*
X89514128Y-75322042D01*
X89407958Y-75215872D01*
X89324547Y-75091038D01*
X89267090Y-74952325D01*
X89237800Y-74805071D01*
X89237800Y-74654929D01*
X89267090Y-74507675D01*
X89324547Y-74368962D01*
X89407958Y-74244128D01*
X89514128Y-74137958D01*
X89638962Y-74054547D01*
X89777675Y-73997090D01*
X89924929Y-73967800D01*
X90075071Y-73967800D01*
X90222325Y-73997090D01*
G37*
G36*
X87682325Y-73997090D02*
G01*
X87821038Y-74054547D01*
X87945872Y-74137958D01*
X88052042Y-74244128D01*
X88135453Y-74368962D01*
X88192910Y-74507675D01*
X88222200Y-74654929D01*
X88222200Y-74805071D01*
X88192910Y-74952325D01*
X88135453Y-75091038D01*
X88052042Y-75215872D01*
X87945872Y-75322042D01*
X87821038Y-75405453D01*
X87682325Y-75462910D01*
X87535071Y-75492200D01*
X87384929Y-75492200D01*
X87237675Y-75462910D01*
X87098962Y-75405453D01*
X86974128Y-75322042D01*
X86867958Y-75215872D01*
X86784547Y-75091038D01*
X86727090Y-74952325D01*
X86697800Y-74805071D01*
X86697800Y-74654929D01*
X86727090Y-74507675D01*
X86784547Y-74368962D01*
X86867958Y-74244128D01*
X86974128Y-74137958D01*
X87098962Y-74054547D01*
X87237675Y-73997090D01*
X87384929Y-73967800D01*
X87535071Y-73967800D01*
X87682325Y-73997090D01*
G37*
G36*
X112222325Y-73997090D02*
G01*
X112361038Y-74054547D01*
X112485872Y-74137958D01*
X112592042Y-74244128D01*
X112675453Y-74368962D01*
X112732910Y-74507675D01*
X112762200Y-74654929D01*
X112762200Y-74805071D01*
X112732910Y-74952325D01*
X112675453Y-75091038D01*
X112592042Y-75215872D01*
X112485872Y-75322042D01*
X112361038Y-75405453D01*
X112222325Y-75462910D01*
X112075071Y-75492200D01*
X111924929Y-75492200D01*
X111777675Y-75462910D01*
X111638962Y-75405453D01*
X111514128Y-75322042D01*
X111407958Y-75215872D01*
X111324547Y-75091038D01*
X111267090Y-74952325D01*
X111237800Y-74805071D01*
X111237800Y-74654929D01*
X111267090Y-74507675D01*
X111324547Y-74368962D01*
X111407958Y-74244128D01*
X111514128Y-74137958D01*
X111638962Y-74054547D01*
X111777675Y-73997090D01*
X111924929Y-73967800D01*
X112075071Y-73967800D01*
X112222325Y-73997090D01*
G37*
G36*
X114762325Y-73997090D02*
G01*
X114901038Y-74054547D01*
X115025872Y-74137958D01*
X115132042Y-74244128D01*
X115215453Y-74368962D01*
X115272910Y-74507675D01*
X115302200Y-74654929D01*
X115302200Y-74805071D01*
X115272910Y-74952325D01*
X115215453Y-75091038D01*
X115132042Y-75215872D01*
X115025872Y-75322042D01*
X114901038Y-75405453D01*
X114762325Y-75462910D01*
X114615071Y-75492200D01*
X114464929Y-75492200D01*
X114317675Y-75462910D01*
X114178962Y-75405453D01*
X114054128Y-75322042D01*
X113947958Y-75215872D01*
X113864547Y-75091038D01*
X113807090Y-74952325D01*
X113777800Y-74805071D01*
X113777800Y-74654929D01*
X113807090Y-74507675D01*
X113864547Y-74368962D01*
X113947958Y-74244128D01*
X114054128Y-74137958D01*
X114178962Y-74054547D01*
X114317675Y-73997090D01*
X114464929Y-73967800D01*
X114615071Y-73967800D01*
X114762325Y-73997090D01*
G37*
G36*
X95302325Y-73997090D02*
G01*
X95441038Y-74054547D01*
X95565872Y-74137958D01*
X95672042Y-74244128D01*
X95755453Y-74368962D01*
X95812910Y-74507675D01*
X95842200Y-74654929D01*
X95842200Y-74805071D01*
X95812910Y-74952325D01*
X95755453Y-75091038D01*
X95672042Y-75215872D01*
X95565872Y-75322042D01*
X95441038Y-75405453D01*
X95302325Y-75462910D01*
X95155071Y-75492200D01*
X95004929Y-75492200D01*
X94857675Y-75462910D01*
X94718962Y-75405453D01*
X94594128Y-75322042D01*
X94487958Y-75215872D01*
X94404547Y-75091038D01*
X94347090Y-74952325D01*
X94317800Y-74805071D01*
X94317800Y-74654929D01*
X94347090Y-74507675D01*
X94404547Y-74368962D01*
X94487958Y-74244128D01*
X94594128Y-74137958D01*
X94718962Y-74054547D01*
X94857675Y-73997090D01*
X95004929Y-73967800D01*
X95155071Y-73967800D01*
X95302325Y-73997090D01*
G37*
G36*
X117302325Y-73997090D02*
G01*
X117441038Y-74054547D01*
X117565872Y-74137958D01*
X117672042Y-74244128D01*
X117755453Y-74368962D01*
X117812910Y-74507675D01*
X117842200Y-74654929D01*
X117842200Y-74805071D01*
X117812910Y-74952325D01*
X117755453Y-75091038D01*
X117672042Y-75215872D01*
X117565872Y-75322042D01*
X117441038Y-75405453D01*
X117302325Y-75462910D01*
X117155071Y-75492200D01*
X117004929Y-75492200D01*
X116857675Y-75462910D01*
X116718962Y-75405453D01*
X116594128Y-75322042D01*
X116487958Y-75215872D01*
X116404547Y-75091038D01*
X116347090Y-74952325D01*
X116317800Y-74805071D01*
X116317800Y-74654929D01*
X116347090Y-74507675D01*
X116404547Y-74368962D01*
X116487958Y-74244128D01*
X116594128Y-74137958D01*
X116718962Y-74054547D01*
X116857675Y-73997090D01*
X117004929Y-73967800D01*
X117155071Y-73967800D01*
X117302325Y-73997090D01*
G37*
G36*
X85142325Y-73997090D02*
G01*
X85281038Y-74054547D01*
X85405872Y-74137958D01*
X85512042Y-74244128D01*
X85595453Y-74368962D01*
X85652910Y-74507675D01*
X85682200Y-74654929D01*
X85682200Y-74805071D01*
X85652910Y-74952325D01*
X85595453Y-75091038D01*
X85512042Y-75215872D01*
X85405872Y-75322042D01*
X85281038Y-75405453D01*
X85142325Y-75462910D01*
X84995071Y-75492200D01*
X84844929Y-75492200D01*
X84697675Y-75462910D01*
X84558962Y-75405453D01*
X84434128Y-75322042D01*
X84327958Y-75215872D01*
X84244547Y-75091038D01*
X84187090Y-74952325D01*
X84157800Y-74805071D01*
X84157800Y-74654929D01*
X84187090Y-74507675D01*
X84244547Y-74368962D01*
X84327958Y-74244128D01*
X84434128Y-74137958D01*
X84558962Y-74054547D01*
X84697675Y-73997090D01*
X84844929Y-73967800D01*
X84995071Y-73967800D01*
X85142325Y-73997090D01*
G37*
G36*
X144264499Y-74153445D02*
G01*
X144301995Y-74164820D01*
X144336554Y-74183292D01*
X144366847Y-74208153D01*
X144391708Y-74238446D01*
X144410180Y-74273005D01*
X144421555Y-74310501D01*
X144426000Y-74355638D01*
X144426000Y-75094362D01*
X144421555Y-75139499D01*
X144410180Y-75176995D01*
X144391708Y-75211554D01*
X144366847Y-75241847D01*
X144336554Y-75266708D01*
X144301995Y-75285180D01*
X144264499Y-75296555D01*
X144219362Y-75301000D01*
X143580638Y-75301000D01*
X143535501Y-75296555D01*
X143498005Y-75285180D01*
X143463446Y-75266708D01*
X143433153Y-75241847D01*
X143408292Y-75211554D01*
X143389820Y-75176995D01*
X143378445Y-75139499D01*
X143374000Y-75094362D01*
X143374000Y-74355638D01*
X143378445Y-74310501D01*
X143389820Y-74273005D01*
X143408292Y-74238446D01*
X143433153Y-74208153D01*
X143463446Y-74183292D01*
X143498005Y-74164820D01*
X143535501Y-74153445D01*
X143580638Y-74149000D01*
X144219362Y-74149000D01*
X144264499Y-74153445D01*
G37*
G36*
X131451000Y-74881000D02*
G01*
X130049000Y-74881000D01*
X130049000Y-73979000D01*
X131451000Y-73979000D01*
X131451000Y-74881000D01*
G37*
G36*
X125151000Y-74881000D02*
G01*
X123749000Y-74881000D01*
X123749000Y-73979000D01*
X125151000Y-73979000D01*
X125151000Y-74881000D01*
G37*
G36*
X131451000Y-73601000D02*
G01*
X130049000Y-73601000D01*
X130049000Y-72699000D01*
X131451000Y-72699000D01*
X131451000Y-73601000D01*
G37*
G36*
X125151000Y-73601000D02*
G01*
X123749000Y-73601000D01*
X123749000Y-72699000D01*
X125151000Y-72699000D01*
X125151000Y-73601000D01*
G37*
G36*
X144264499Y-72303445D02*
G01*
X144301995Y-72314820D01*
X144336554Y-72333292D01*
X144366847Y-72358153D01*
X144391708Y-72388446D01*
X144410180Y-72423005D01*
X144421555Y-72460501D01*
X144426000Y-72505638D01*
X144426000Y-73244362D01*
X144421555Y-73289499D01*
X144410180Y-73326995D01*
X144391708Y-73361554D01*
X144366847Y-73391847D01*
X144336554Y-73416708D01*
X144301995Y-73435180D01*
X144264499Y-73446555D01*
X144219362Y-73451000D01*
X143580638Y-73451000D01*
X143535501Y-73446555D01*
X143498005Y-73435180D01*
X143463446Y-73416708D01*
X143433153Y-73391847D01*
X143408292Y-73361554D01*
X143389820Y-73326995D01*
X143378445Y-73289499D01*
X143374000Y-73244362D01*
X143374000Y-72505638D01*
X143378445Y-72460501D01*
X143389820Y-72423005D01*
X143408292Y-72388446D01*
X143433153Y-72358153D01*
X143463446Y-72333292D01*
X143498005Y-72314820D01*
X143535501Y-72303445D01*
X143580638Y-72299000D01*
X144219362Y-72299000D01*
X144264499Y-72303445D01*
G37*
G36*
X135189499Y-72178445D02*
G01*
X135226995Y-72189820D01*
X135261554Y-72208292D01*
X135291847Y-72233153D01*
X135316708Y-72263446D01*
X135335180Y-72298005D01*
X135346555Y-72335501D01*
X135351000Y-72380638D01*
X135351000Y-73019362D01*
X135346555Y-73064499D01*
X135335180Y-73101995D01*
X135316708Y-73136554D01*
X135291847Y-73166847D01*
X135261554Y-73191708D01*
X135226995Y-73210180D01*
X135189499Y-73221555D01*
X135144362Y-73226000D01*
X134405638Y-73226000D01*
X134360501Y-73221555D01*
X134323005Y-73210180D01*
X134288446Y-73191708D01*
X134258153Y-73166847D01*
X134233292Y-73136554D01*
X134214820Y-73101995D01*
X134203445Y-73064499D01*
X134199000Y-73019362D01*
X134199000Y-72380638D01*
X134203445Y-72335501D01*
X134214820Y-72298005D01*
X134233292Y-72263446D01*
X134258153Y-72233153D01*
X134288446Y-72208292D01*
X134323005Y-72189820D01*
X134360501Y-72178445D01*
X134405638Y-72174000D01*
X135144362Y-72174000D01*
X135189499Y-72178445D01*
G37*
G36*
X133439499Y-72178445D02*
G01*
X133476995Y-72189820D01*
X133511554Y-72208292D01*
X133541847Y-72233153D01*
X133566708Y-72263446D01*
X133585180Y-72298005D01*
X133596555Y-72335501D01*
X133601000Y-72380638D01*
X133601000Y-73019362D01*
X133596555Y-73064499D01*
X133585180Y-73101995D01*
X133566708Y-73136554D01*
X133541847Y-73166847D01*
X133511554Y-73191708D01*
X133476995Y-73210180D01*
X133439499Y-73221555D01*
X133394362Y-73226000D01*
X132655638Y-73226000D01*
X132610501Y-73221555D01*
X132573005Y-73210180D01*
X132538446Y-73191708D01*
X132508153Y-73166847D01*
X132483292Y-73136554D01*
X132464820Y-73101995D01*
X132453445Y-73064499D01*
X132449000Y-73019362D01*
X132449000Y-72380638D01*
X132453445Y-72335501D01*
X132464820Y-72298005D01*
X132483292Y-72263446D01*
X132508153Y-72233153D01*
X132538446Y-72208292D01*
X132573005Y-72189820D01*
X132610501Y-72178445D01*
X132655638Y-72174000D01*
X133394362Y-72174000D01*
X133439499Y-72178445D01*
G37*
G36*
X144264499Y-70553445D02*
G01*
X144301995Y-70564820D01*
X144336554Y-70583292D01*
X144366847Y-70608153D01*
X144391708Y-70638446D01*
X144410180Y-70673005D01*
X144421555Y-70710501D01*
X144426000Y-70755638D01*
X144426000Y-71494362D01*
X144421555Y-71539499D01*
X144410180Y-71576995D01*
X144391708Y-71611554D01*
X144366847Y-71641847D01*
X144336554Y-71666708D01*
X144301995Y-71685180D01*
X144264499Y-71696555D01*
X144219362Y-71701000D01*
X143580638Y-71701000D01*
X143535501Y-71696555D01*
X143498005Y-71685180D01*
X143463446Y-71666708D01*
X143433153Y-71641847D01*
X143408292Y-71611554D01*
X143389820Y-71576995D01*
X143378445Y-71539499D01*
X143374000Y-71494362D01*
X143374000Y-70755638D01*
X143378445Y-70710501D01*
X143389820Y-70673005D01*
X143408292Y-70638446D01*
X143433153Y-70608153D01*
X143463446Y-70583292D01*
X143498005Y-70564820D01*
X143535501Y-70553445D01*
X143580638Y-70549000D01*
X144219362Y-70549000D01*
X144264499Y-70553445D01*
G37*
G36*
X130689499Y-69978445D02*
G01*
X130726995Y-69989820D01*
X130761554Y-70008292D01*
X130791847Y-70033153D01*
X130816708Y-70063446D01*
X130835180Y-70098005D01*
X130846555Y-70135501D01*
X130851000Y-70180638D01*
X130851000Y-70819362D01*
X130846555Y-70864499D01*
X130835180Y-70901995D01*
X130816708Y-70936554D01*
X130791847Y-70966847D01*
X130761554Y-70991708D01*
X130726995Y-71010180D01*
X130689499Y-71021555D01*
X130644362Y-71026000D01*
X129905638Y-71026000D01*
X129860501Y-71021555D01*
X129823005Y-71010180D01*
X129788446Y-70991708D01*
X129758153Y-70966847D01*
X129733292Y-70936554D01*
X129714820Y-70901995D01*
X129703445Y-70864499D01*
X129699000Y-70819362D01*
X129699000Y-70180638D01*
X129703445Y-70135501D01*
X129714820Y-70098005D01*
X129733292Y-70063446D01*
X129758153Y-70033153D01*
X129788446Y-70008292D01*
X129823005Y-69989820D01*
X129860501Y-69978445D01*
X129905638Y-69974000D01*
X130644362Y-69974000D01*
X130689499Y-69978445D01*
G37*
G36*
X128939499Y-69978445D02*
G01*
X128976995Y-69989820D01*
X129011554Y-70008292D01*
X129041847Y-70033153D01*
X129066708Y-70063446D01*
X129085180Y-70098005D01*
X129096555Y-70135501D01*
X129101000Y-70180638D01*
X129101000Y-70819362D01*
X129096555Y-70864499D01*
X129085180Y-70901995D01*
X129066708Y-70936554D01*
X129041847Y-70966847D01*
X129011554Y-70991708D01*
X128976995Y-71010180D01*
X128939499Y-71021555D01*
X128894362Y-71026000D01*
X128155638Y-71026000D01*
X128110501Y-71021555D01*
X128073005Y-71010180D01*
X128038446Y-70991708D01*
X128008153Y-70966847D01*
X127983292Y-70936554D01*
X127964820Y-70901995D01*
X127953445Y-70864499D01*
X127949000Y-70819362D01*
X127949000Y-70180638D01*
X127953445Y-70135501D01*
X127964820Y-70098005D01*
X127983292Y-70063446D01*
X128008153Y-70033153D01*
X128038446Y-70008292D01*
X128073005Y-69989820D01*
X128110501Y-69978445D01*
X128155638Y-69974000D01*
X128894362Y-69974000D01*
X128939499Y-69978445D01*
G37*
G36*
X101639499Y-69778445D02*
G01*
X101676995Y-69789820D01*
X101711554Y-69808292D01*
X101741847Y-69833153D01*
X101766708Y-69863446D01*
X101785180Y-69898005D01*
X101796555Y-69935501D01*
X101801000Y-69980638D01*
X101801000Y-70619362D01*
X101796555Y-70664499D01*
X101785180Y-70701995D01*
X101766708Y-70736554D01*
X101741847Y-70766847D01*
X101711554Y-70791708D01*
X101676995Y-70810180D01*
X101639499Y-70821555D01*
X101594362Y-70826000D01*
X100855638Y-70826000D01*
X100810501Y-70821555D01*
X100773005Y-70810180D01*
X100738446Y-70791708D01*
X100708153Y-70766847D01*
X100683292Y-70736554D01*
X100664820Y-70701995D01*
X100653445Y-70664499D01*
X100649000Y-70619362D01*
X100649000Y-69980638D01*
X100653445Y-69935501D01*
X100664820Y-69898005D01*
X100683292Y-69863446D01*
X100708153Y-69833153D01*
X100738446Y-69808292D01*
X100773005Y-69789820D01*
X100810501Y-69778445D01*
X100855638Y-69774000D01*
X101594362Y-69774000D01*
X101639499Y-69778445D01*
G37*
G36*
X103389499Y-69778445D02*
G01*
X103426995Y-69789820D01*
X103461554Y-69808292D01*
X103491847Y-69833153D01*
X103516708Y-69863446D01*
X103535180Y-69898005D01*
X103546555Y-69935501D01*
X103551000Y-69980638D01*
X103551000Y-70619362D01*
X103546555Y-70664499D01*
X103535180Y-70701995D01*
X103516708Y-70736554D01*
X103491847Y-70766847D01*
X103461554Y-70791708D01*
X103426995Y-70810180D01*
X103389499Y-70821555D01*
X103344362Y-70826000D01*
X102605638Y-70826000D01*
X102560501Y-70821555D01*
X102523005Y-70810180D01*
X102488446Y-70791708D01*
X102458153Y-70766847D01*
X102433292Y-70736554D01*
X102414820Y-70701995D01*
X102403445Y-70664499D01*
X102399000Y-70619362D01*
X102399000Y-69980638D01*
X102403445Y-69935501D01*
X102414820Y-69898005D01*
X102433292Y-69863446D01*
X102458153Y-69833153D01*
X102488446Y-69808292D01*
X102523005Y-69789820D01*
X102560501Y-69778445D01*
X102605638Y-69774000D01*
X103344362Y-69774000D01*
X103389499Y-69778445D01*
G37*
G36*
X106632396Y-67160547D02*
G01*
X106805467Y-67232235D01*
X106805468Y-67232236D01*
X106961228Y-67336311D01*
X107093691Y-67468774D01*
X107093692Y-67468776D01*
X107197767Y-67624535D01*
X107269455Y-67797606D01*
X107306001Y-67981334D01*
X107306001Y-68168668D01*
X107269455Y-68352396D01*
X107197767Y-68525467D01*
X107197766Y-68525468D01*
X107093691Y-68681228D01*
X106961228Y-68813691D01*
X106882819Y-68866082D01*
X106805467Y-68917767D01*
X106632396Y-68989455D01*
X106448668Y-69026001D01*
X106261334Y-69026001D01*
X106077606Y-68989455D01*
X105904535Y-68917767D01*
X105827183Y-68866082D01*
X105748774Y-68813691D01*
X105616311Y-68681228D01*
X105512236Y-68525468D01*
X105512235Y-68525467D01*
X105440547Y-68352396D01*
X105404001Y-68168668D01*
X105404001Y-67981334D01*
X105440547Y-67797606D01*
X105512235Y-67624535D01*
X105616310Y-67468776D01*
X105616311Y-67468774D01*
X105748774Y-67336311D01*
X105904534Y-67232236D01*
X105904535Y-67232235D01*
X106077606Y-67160547D01*
X106261334Y-67124001D01*
X106448668Y-67124001D01*
X106632396Y-67160547D01*
G37*
G36*
X104092396Y-67160547D02*
G01*
X104265467Y-67232235D01*
X104265468Y-67232236D01*
X104421228Y-67336311D01*
X104553691Y-67468774D01*
X104553692Y-67468776D01*
X104657767Y-67624535D01*
X104729455Y-67797606D01*
X104766001Y-67981334D01*
X104766001Y-68168668D01*
X104729455Y-68352396D01*
X104657767Y-68525467D01*
X104657766Y-68525468D01*
X104553691Y-68681228D01*
X104421228Y-68813691D01*
X104342819Y-68866082D01*
X104265467Y-68917767D01*
X104092396Y-68989455D01*
X103908668Y-69026001D01*
X103721334Y-69026001D01*
X103537606Y-68989455D01*
X103364535Y-68917767D01*
X103287183Y-68866082D01*
X103208774Y-68813691D01*
X103076311Y-68681228D01*
X102972236Y-68525468D01*
X102972235Y-68525467D01*
X102900547Y-68352396D01*
X102864001Y-68168668D01*
X102864001Y-67981334D01*
X102900547Y-67797606D01*
X102972235Y-67624535D01*
X103076310Y-67468776D01*
X103076311Y-67468774D01*
X103208774Y-67336311D01*
X103364534Y-67232236D01*
X103364535Y-67232235D01*
X103537606Y-67160547D01*
X103721334Y-67124001D01*
X103908668Y-67124001D01*
X104092396Y-67160547D01*
G37*
G36*
X101552396Y-67160547D02*
G01*
X101725467Y-67232235D01*
X101725468Y-67232236D01*
X101881228Y-67336311D01*
X102013691Y-67468774D01*
X102013692Y-67468776D01*
X102117767Y-67624535D01*
X102189455Y-67797606D01*
X102226001Y-67981334D01*
X102226001Y-68168668D01*
X102189455Y-68352396D01*
X102117767Y-68525467D01*
X102117766Y-68525468D01*
X102013691Y-68681228D01*
X101881228Y-68813691D01*
X101802819Y-68866082D01*
X101725467Y-68917767D01*
X101552396Y-68989455D01*
X101368668Y-69026001D01*
X101181334Y-69026001D01*
X100997606Y-68989455D01*
X100824535Y-68917767D01*
X100747183Y-68866082D01*
X100668774Y-68813691D01*
X100536311Y-68681228D01*
X100432236Y-68525468D01*
X100432235Y-68525467D01*
X100360547Y-68352396D01*
X100324001Y-68168668D01*
X100324001Y-67981334D01*
X100360547Y-67797606D01*
X100432235Y-67624535D01*
X100536310Y-67468776D01*
X100536311Y-67468774D01*
X100668774Y-67336311D01*
X100824534Y-67232236D01*
X100824535Y-67232235D01*
X100997606Y-67160547D01*
X101181334Y-67124001D01*
X101368668Y-67124001D01*
X101552396Y-67160547D01*
G37*
G36*
X99012396Y-67160547D02*
G01*
X99185467Y-67232235D01*
X99185468Y-67232236D01*
X99341228Y-67336311D01*
X99473691Y-67468774D01*
X99473692Y-67468776D01*
X99577767Y-67624535D01*
X99649455Y-67797606D01*
X99686001Y-67981334D01*
X99686001Y-68168668D01*
X99649455Y-68352396D01*
X99577767Y-68525467D01*
X99577766Y-68525468D01*
X99473691Y-68681228D01*
X99341228Y-68813691D01*
X99262819Y-68866082D01*
X99185467Y-68917767D01*
X99012396Y-68989455D01*
X98828668Y-69026001D01*
X98641334Y-69026001D01*
X98457606Y-68989455D01*
X98284535Y-68917767D01*
X98207183Y-68866082D01*
X98128774Y-68813691D01*
X97996311Y-68681228D01*
X97892236Y-68525468D01*
X97892235Y-68525467D01*
X97820547Y-68352396D01*
X97784001Y-68168668D01*
X97784001Y-67981334D01*
X97820547Y-67797606D01*
X97892235Y-67624535D01*
X97996310Y-67468776D01*
X97996311Y-67468774D01*
X98128774Y-67336311D01*
X98284534Y-67232236D01*
X98284535Y-67232235D01*
X98457606Y-67160547D01*
X98641334Y-67124001D01*
X98828668Y-67124001D01*
X99012396Y-67160547D01*
G37*
G36*
X93932396Y-67160547D02*
G01*
X94105467Y-67232235D01*
X94105468Y-67232236D01*
X94261228Y-67336311D01*
X94393691Y-67468774D01*
X94393692Y-67468776D01*
X94497767Y-67624535D01*
X94569455Y-67797606D01*
X94606001Y-67981334D01*
X94606001Y-68168668D01*
X94569455Y-68352396D01*
X94497767Y-68525467D01*
X94497766Y-68525468D01*
X94393691Y-68681228D01*
X94261228Y-68813691D01*
X94182819Y-68866082D01*
X94105467Y-68917767D01*
X93932396Y-68989455D01*
X93748668Y-69026001D01*
X93561334Y-69026001D01*
X93377606Y-68989455D01*
X93204535Y-68917767D01*
X93127183Y-68866082D01*
X93048774Y-68813691D01*
X92916311Y-68681228D01*
X92812236Y-68525468D01*
X92812235Y-68525467D01*
X92740547Y-68352396D01*
X92704001Y-68168668D01*
X92704001Y-67981334D01*
X92740547Y-67797606D01*
X92812235Y-67624535D01*
X92916310Y-67468776D01*
X92916311Y-67468774D01*
X93048774Y-67336311D01*
X93204534Y-67232236D01*
X93204535Y-67232235D01*
X93377606Y-67160547D01*
X93561334Y-67124001D01*
X93748668Y-67124001D01*
X93932396Y-67160547D01*
G37*
G36*
X91392396Y-67160547D02*
G01*
X91565467Y-67232235D01*
X91565468Y-67232236D01*
X91721228Y-67336311D01*
X91853691Y-67468774D01*
X91853692Y-67468776D01*
X91957767Y-67624535D01*
X92029455Y-67797606D01*
X92066001Y-67981334D01*
X92066001Y-68168668D01*
X92029455Y-68352396D01*
X91957767Y-68525467D01*
X91957766Y-68525468D01*
X91853691Y-68681228D01*
X91721228Y-68813691D01*
X91642819Y-68866082D01*
X91565467Y-68917767D01*
X91392396Y-68989455D01*
X91208668Y-69026001D01*
X91021334Y-69026001D01*
X90837606Y-68989455D01*
X90664535Y-68917767D01*
X90587183Y-68866082D01*
X90508774Y-68813691D01*
X90376311Y-68681228D01*
X90272236Y-68525468D01*
X90272235Y-68525467D01*
X90200547Y-68352396D01*
X90164001Y-68168668D01*
X90164001Y-67981334D01*
X90200547Y-67797606D01*
X90272235Y-67624535D01*
X90376310Y-67468776D01*
X90376311Y-67468774D01*
X90508774Y-67336311D01*
X90664534Y-67232236D01*
X90664535Y-67232235D01*
X90837606Y-67160547D01*
X91021334Y-67124001D01*
X91208668Y-67124001D01*
X91392396Y-67160547D01*
G37*
G36*
X89526001Y-69026001D02*
G01*
X87624001Y-69026001D01*
X87624001Y-67124001D01*
X89526001Y-67124001D01*
X89526001Y-69026001D01*
G37*
G36*
X121872396Y-67160547D02*
G01*
X122045467Y-67232235D01*
X122045468Y-67232236D01*
X122201228Y-67336311D01*
X122333691Y-67468774D01*
X122333692Y-67468776D01*
X122437767Y-67624535D01*
X122509455Y-67797606D01*
X122546001Y-67981334D01*
X122546001Y-68168668D01*
X122509455Y-68352396D01*
X122437767Y-68525467D01*
X122437766Y-68525468D01*
X122333691Y-68681228D01*
X122201228Y-68813691D01*
X122122819Y-68866082D01*
X122045467Y-68917767D01*
X121872396Y-68989455D01*
X121688668Y-69026001D01*
X121501334Y-69026001D01*
X121317606Y-68989455D01*
X121144535Y-68917767D01*
X121067183Y-68866082D01*
X120988774Y-68813691D01*
X120856311Y-68681228D01*
X120752236Y-68525468D01*
X120752235Y-68525467D01*
X120680547Y-68352396D01*
X120644001Y-68168668D01*
X120644001Y-67981334D01*
X120680547Y-67797606D01*
X120752235Y-67624535D01*
X120856310Y-67468776D01*
X120856311Y-67468774D01*
X120988774Y-67336311D01*
X121144534Y-67232236D01*
X121144535Y-67232235D01*
X121317606Y-67160547D01*
X121501334Y-67124001D01*
X121688668Y-67124001D01*
X121872396Y-67160547D01*
G37*
G36*
X124412396Y-67160547D02*
G01*
X124585467Y-67232235D01*
X124585468Y-67232236D01*
X124741228Y-67336311D01*
X124873691Y-67468774D01*
X124873692Y-67468776D01*
X124977767Y-67624535D01*
X125049455Y-67797606D01*
X125086001Y-67981334D01*
X125086001Y-68168668D01*
X125049455Y-68352396D01*
X124977767Y-68525467D01*
X124977766Y-68525468D01*
X124873691Y-68681228D01*
X124741228Y-68813691D01*
X124662819Y-68866082D01*
X124585467Y-68917767D01*
X124412396Y-68989455D01*
X124228668Y-69026001D01*
X124041334Y-69026001D01*
X123857606Y-68989455D01*
X123684535Y-68917767D01*
X123607183Y-68866082D01*
X123528774Y-68813691D01*
X123396311Y-68681228D01*
X123292236Y-68525468D01*
X123292235Y-68525467D01*
X123220547Y-68352396D01*
X123184001Y-68168668D01*
X123184001Y-67981334D01*
X123220547Y-67797606D01*
X123292235Y-67624535D01*
X123396310Y-67468776D01*
X123396311Y-67468774D01*
X123528774Y-67336311D01*
X123684534Y-67232236D01*
X123684535Y-67232235D01*
X123857606Y-67160547D01*
X124041334Y-67124001D01*
X124228668Y-67124001D01*
X124412396Y-67160547D01*
G37*
G36*
X129492396Y-67160547D02*
G01*
X129665467Y-67232235D01*
X129665468Y-67232236D01*
X129821228Y-67336311D01*
X129953691Y-67468774D01*
X129953692Y-67468776D01*
X130057767Y-67624535D01*
X130129455Y-67797606D01*
X130166001Y-67981334D01*
X130166001Y-68168668D01*
X130129455Y-68352396D01*
X130057767Y-68525467D01*
X130057766Y-68525468D01*
X129953691Y-68681228D01*
X129821228Y-68813691D01*
X129742819Y-68866082D01*
X129665467Y-68917767D01*
X129492396Y-68989455D01*
X129308668Y-69026001D01*
X129121334Y-69026001D01*
X128937606Y-68989455D01*
X128764535Y-68917767D01*
X128687183Y-68866082D01*
X128608774Y-68813691D01*
X128476311Y-68681228D01*
X128372236Y-68525468D01*
X128372235Y-68525467D01*
X128300547Y-68352396D01*
X128264001Y-68168668D01*
X128264001Y-67981334D01*
X128300547Y-67797606D01*
X128372235Y-67624535D01*
X128476310Y-67468776D01*
X128476311Y-67468774D01*
X128608774Y-67336311D01*
X128764534Y-67232236D01*
X128764535Y-67232235D01*
X128937606Y-67160547D01*
X129121334Y-67124001D01*
X129308668Y-67124001D01*
X129492396Y-67160547D01*
G37*
G36*
X134572396Y-67160547D02*
G01*
X134745467Y-67232235D01*
X134745468Y-67232236D01*
X134901228Y-67336311D01*
X135033691Y-67468774D01*
X135033692Y-67468776D01*
X135137767Y-67624535D01*
X135209455Y-67797606D01*
X135246001Y-67981334D01*
X135246001Y-68168668D01*
X135209455Y-68352396D01*
X135137767Y-68525467D01*
X135137766Y-68525468D01*
X135033691Y-68681228D01*
X134901228Y-68813691D01*
X134822819Y-68866082D01*
X134745467Y-68917767D01*
X134572396Y-68989455D01*
X134388668Y-69026001D01*
X134201334Y-69026001D01*
X134017606Y-68989455D01*
X133844535Y-68917767D01*
X133767183Y-68866082D01*
X133688774Y-68813691D01*
X133556311Y-68681228D01*
X133452236Y-68525468D01*
X133452235Y-68525467D01*
X133380547Y-68352396D01*
X133344001Y-68168668D01*
X133344001Y-67981334D01*
X133380547Y-67797606D01*
X133452235Y-67624535D01*
X133556310Y-67468776D01*
X133556311Y-67468774D01*
X133688774Y-67336311D01*
X133844534Y-67232236D01*
X133844535Y-67232235D01*
X134017606Y-67160547D01*
X134201334Y-67124001D01*
X134388668Y-67124001D01*
X134572396Y-67160547D01*
G37*
G36*
X137112396Y-67160547D02*
G01*
X137285467Y-67232235D01*
X137285468Y-67232236D01*
X137441228Y-67336311D01*
X137573691Y-67468774D01*
X137573692Y-67468776D01*
X137677767Y-67624535D01*
X137749455Y-67797606D01*
X137786001Y-67981334D01*
X137786001Y-68168668D01*
X137749455Y-68352396D01*
X137677767Y-68525467D01*
X137677766Y-68525468D01*
X137573691Y-68681228D01*
X137441228Y-68813691D01*
X137362819Y-68866082D01*
X137285467Y-68917767D01*
X137112396Y-68989455D01*
X136928668Y-69026001D01*
X136741334Y-69026001D01*
X136557606Y-68989455D01*
X136384535Y-68917767D01*
X136307183Y-68866082D01*
X136228774Y-68813691D01*
X136096311Y-68681228D01*
X135992236Y-68525468D01*
X135992235Y-68525467D01*
X135920547Y-68352396D01*
X135884001Y-68168668D01*
X135884001Y-67981334D01*
X135920547Y-67797606D01*
X135992235Y-67624535D01*
X136096310Y-67468776D01*
X136096311Y-67468774D01*
X136228774Y-67336311D01*
X136384534Y-67232236D01*
X136384535Y-67232235D01*
X136557606Y-67160547D01*
X136741334Y-67124001D01*
X136928668Y-67124001D01*
X137112396Y-67160547D01*
G37*
G36*
X109172396Y-67160547D02*
G01*
X109345467Y-67232235D01*
X109345468Y-67232236D01*
X109501228Y-67336311D01*
X109633691Y-67468774D01*
X109633692Y-67468776D01*
X109737767Y-67624535D01*
X109809455Y-67797606D01*
X109846001Y-67981334D01*
X109846001Y-68168668D01*
X109809455Y-68352396D01*
X109737767Y-68525467D01*
X109737766Y-68525468D01*
X109633691Y-68681228D01*
X109501228Y-68813691D01*
X109422819Y-68866082D01*
X109345467Y-68917767D01*
X109172396Y-68989455D01*
X108988668Y-69026001D01*
X108801334Y-69026001D01*
X108617606Y-68989455D01*
X108444535Y-68917767D01*
X108367183Y-68866082D01*
X108288774Y-68813691D01*
X108156311Y-68681228D01*
X108052236Y-68525468D01*
X108052235Y-68525467D01*
X107980547Y-68352396D01*
X107944001Y-68168668D01*
X107944001Y-67981334D01*
X107980547Y-67797606D01*
X108052235Y-67624535D01*
X108156310Y-67468776D01*
X108156311Y-67468774D01*
X108288774Y-67336311D01*
X108444534Y-67232236D01*
X108444535Y-67232235D01*
X108617606Y-67160547D01*
X108801334Y-67124001D01*
X108988668Y-67124001D01*
X109172396Y-67160547D01*
G37*
G36*
X111712396Y-67160547D02*
G01*
X111885467Y-67232235D01*
X111885468Y-67232236D01*
X112041228Y-67336311D01*
X112173691Y-67468774D01*
X112173692Y-67468776D01*
X112277767Y-67624535D01*
X112349455Y-67797606D01*
X112386001Y-67981334D01*
X112386001Y-68168668D01*
X112349455Y-68352396D01*
X112277767Y-68525467D01*
X112277766Y-68525468D01*
X112173691Y-68681228D01*
X112041228Y-68813691D01*
X111962819Y-68866082D01*
X111885467Y-68917767D01*
X111712396Y-68989455D01*
X111528668Y-69026001D01*
X111341334Y-69026001D01*
X111157606Y-68989455D01*
X110984535Y-68917767D01*
X110907183Y-68866082D01*
X110828774Y-68813691D01*
X110696311Y-68681228D01*
X110592236Y-68525468D01*
X110592235Y-68525467D01*
X110520547Y-68352396D01*
X110484001Y-68168668D01*
X110484001Y-67981334D01*
X110520547Y-67797606D01*
X110592235Y-67624535D01*
X110696310Y-67468776D01*
X110696311Y-67468774D01*
X110828774Y-67336311D01*
X110984534Y-67232236D01*
X110984535Y-67232235D01*
X111157606Y-67160547D01*
X111341334Y-67124001D01*
X111528668Y-67124001D01*
X111712396Y-67160547D01*
G37*
G36*
X114252396Y-67160547D02*
G01*
X114425467Y-67232235D01*
X114425468Y-67232236D01*
X114581228Y-67336311D01*
X114713691Y-67468774D01*
X114713692Y-67468776D01*
X114817767Y-67624535D01*
X114889455Y-67797606D01*
X114926001Y-67981334D01*
X114926001Y-68168668D01*
X114889455Y-68352396D01*
X114817767Y-68525467D01*
X114817766Y-68525468D01*
X114713691Y-68681228D01*
X114581228Y-68813691D01*
X114502819Y-68866082D01*
X114425467Y-68917767D01*
X114252396Y-68989455D01*
X114068668Y-69026001D01*
X113881334Y-69026001D01*
X113697606Y-68989455D01*
X113524535Y-68917767D01*
X113447183Y-68866082D01*
X113368774Y-68813691D01*
X113236311Y-68681228D01*
X113132236Y-68525468D01*
X113132235Y-68525467D01*
X113060547Y-68352396D01*
X113024001Y-68168668D01*
X113024001Y-67981334D01*
X113060547Y-67797606D01*
X113132235Y-67624535D01*
X113236310Y-67468776D01*
X113236311Y-67468774D01*
X113368774Y-67336311D01*
X113524534Y-67232236D01*
X113524535Y-67232235D01*
X113697606Y-67160547D01*
X113881334Y-67124001D01*
X114068668Y-67124001D01*
X114252396Y-67160547D01*
G37*
G36*
X116792396Y-67160547D02*
G01*
X116965467Y-67232235D01*
X116965468Y-67232236D01*
X117121228Y-67336311D01*
X117253691Y-67468774D01*
X117253692Y-67468776D01*
X117357767Y-67624535D01*
X117429455Y-67797606D01*
X117466001Y-67981334D01*
X117466001Y-68168668D01*
X117429455Y-68352396D01*
X117357767Y-68525467D01*
X117357766Y-68525468D01*
X117253691Y-68681228D01*
X117121228Y-68813691D01*
X117042819Y-68866082D01*
X116965467Y-68917767D01*
X116792396Y-68989455D01*
X116608668Y-69026001D01*
X116421334Y-69026001D01*
X116237606Y-68989455D01*
X116064535Y-68917767D01*
X115987183Y-68866082D01*
X115908774Y-68813691D01*
X115776311Y-68681228D01*
X115672236Y-68525468D01*
X115672235Y-68525467D01*
X115600547Y-68352396D01*
X115564001Y-68168668D01*
X115564001Y-67981334D01*
X115600547Y-67797606D01*
X115672235Y-67624535D01*
X115776310Y-67468776D01*
X115776311Y-67468774D01*
X115908774Y-67336311D01*
X116064534Y-67232236D01*
X116064535Y-67232235D01*
X116237606Y-67160547D01*
X116421334Y-67124001D01*
X116608668Y-67124001D01*
X116792396Y-67160547D01*
G37*
G36*
X119332396Y-67160547D02*
G01*
X119505467Y-67232235D01*
X119505468Y-67232236D01*
X119661228Y-67336311D01*
X119793691Y-67468774D01*
X119793692Y-67468776D01*
X119897767Y-67624535D01*
X119969455Y-67797606D01*
X120006001Y-67981334D01*
X120006001Y-68168668D01*
X119969455Y-68352396D01*
X119897767Y-68525467D01*
X119897766Y-68525468D01*
X119793691Y-68681228D01*
X119661228Y-68813691D01*
X119582819Y-68866082D01*
X119505467Y-68917767D01*
X119332396Y-68989455D01*
X119148668Y-69026001D01*
X118961334Y-69026001D01*
X118777606Y-68989455D01*
X118604535Y-68917767D01*
X118527183Y-68866082D01*
X118448774Y-68813691D01*
X118316311Y-68681228D01*
X118212236Y-68525468D01*
X118212235Y-68525467D01*
X118140547Y-68352396D01*
X118104001Y-68168668D01*
X118104001Y-67981334D01*
X118140547Y-67797606D01*
X118212235Y-67624535D01*
X118316310Y-67468776D01*
X118316311Y-67468774D01*
X118448774Y-67336311D01*
X118604534Y-67232236D01*
X118604535Y-67232235D01*
X118777606Y-67160547D01*
X118961334Y-67124001D01*
X119148668Y-67124001D01*
X119332396Y-67160547D01*
G37*
G36*
X96472396Y-67160547D02*
G01*
X96645467Y-67232235D01*
X96645468Y-67232236D01*
X96801228Y-67336311D01*
X96933691Y-67468774D01*
X96933692Y-67468776D01*
X97037767Y-67624535D01*
X97109455Y-67797606D01*
X97146001Y-67981334D01*
X97146001Y-68168668D01*
X97109455Y-68352396D01*
X97037767Y-68525467D01*
X97037766Y-68525468D01*
X96933691Y-68681228D01*
X96801228Y-68813691D01*
X96722819Y-68866082D01*
X96645467Y-68917767D01*
X96472396Y-68989455D01*
X96288668Y-69026001D01*
X96101334Y-69026001D01*
X95917606Y-68989455D01*
X95744535Y-68917767D01*
X95667183Y-68866082D01*
X95588774Y-68813691D01*
X95456311Y-68681228D01*
X95352236Y-68525468D01*
X95352235Y-68525467D01*
X95280547Y-68352396D01*
X95244001Y-68168668D01*
X95244001Y-67981334D01*
X95280547Y-67797606D01*
X95352235Y-67624535D01*
X95456310Y-67468776D01*
X95456311Y-67468774D01*
X95588774Y-67336311D01*
X95744534Y-67232236D01*
X95744535Y-67232235D01*
X95917606Y-67160547D01*
X96101334Y-67124001D01*
X96288668Y-67124001D01*
X96472396Y-67160547D01*
G37*
G36*
X126952396Y-67160547D02*
G01*
X127125467Y-67232235D01*
X127125468Y-67232236D01*
X127281228Y-67336311D01*
X127413691Y-67468774D01*
X127413692Y-67468776D01*
X127517767Y-67624535D01*
X127589455Y-67797606D01*
X127626001Y-67981334D01*
X127626001Y-68168668D01*
X127589455Y-68352396D01*
X127517767Y-68525467D01*
X127517766Y-68525468D01*
X127413691Y-68681228D01*
X127281228Y-68813691D01*
X127202819Y-68866082D01*
X127125467Y-68917767D01*
X126952396Y-68989455D01*
X126768668Y-69026001D01*
X126581334Y-69026001D01*
X126397606Y-68989455D01*
X126224535Y-68917767D01*
X126147183Y-68866082D01*
X126068774Y-68813691D01*
X125936311Y-68681228D01*
X125832236Y-68525468D01*
X125832235Y-68525467D01*
X125760547Y-68352396D01*
X125724001Y-68168668D01*
X125724001Y-67981334D01*
X125760547Y-67797606D01*
X125832235Y-67624535D01*
X125936310Y-67468776D01*
X125936311Y-67468774D01*
X126068774Y-67336311D01*
X126224534Y-67232236D01*
X126224535Y-67232235D01*
X126397606Y-67160547D01*
X126581334Y-67124001D01*
X126768668Y-67124001D01*
X126952396Y-67160547D01*
G37*
G36*
X132032396Y-67160547D02*
G01*
X132205467Y-67232235D01*
X132205468Y-67232236D01*
X132361228Y-67336311D01*
X132493691Y-67468774D01*
X132493692Y-67468776D01*
X132597767Y-67624535D01*
X132669455Y-67797606D01*
X132706001Y-67981334D01*
X132706001Y-68168668D01*
X132669455Y-68352396D01*
X132597767Y-68525467D01*
X132597766Y-68525468D01*
X132493691Y-68681228D01*
X132361228Y-68813691D01*
X132282819Y-68866082D01*
X132205467Y-68917767D01*
X132032396Y-68989455D01*
X131848668Y-69026001D01*
X131661334Y-69026001D01*
X131477606Y-68989455D01*
X131304535Y-68917767D01*
X131227183Y-68866082D01*
X131148774Y-68813691D01*
X131016311Y-68681228D01*
X130912236Y-68525468D01*
X130912235Y-68525467D01*
X130840547Y-68352396D01*
X130804001Y-68168668D01*
X130804001Y-67981334D01*
X130840547Y-67797606D01*
X130912235Y-67624535D01*
X131016310Y-67468776D01*
X131016311Y-67468774D01*
X131148774Y-67336311D01*
X131304534Y-67232236D01*
X131304535Y-67232235D01*
X131477606Y-67160547D01*
X131661334Y-67124001D01*
X131848668Y-67124001D01*
X132032396Y-67160547D01*
G37*
G36*
X84023434Y-65439894D02*
G01*
X84113658Y-65457840D01*
X84219268Y-65501586D01*
X84368622Y-65563450D01*
X84368623Y-65563451D01*
X84598087Y-65716773D01*
X84793229Y-65911915D01*
X84842375Y-65985468D01*
X84946552Y-66141380D01*
X85001357Y-66273691D01*
X85052162Y-66396344D01*
X85106001Y-66667015D01*
X85106001Y-66942987D01*
X85052162Y-67213658D01*
X85008416Y-67319268D01*
X84946552Y-67468622D01*
X84946551Y-67468623D01*
X84793229Y-67698087D01*
X84598087Y-67893229D01*
X84466228Y-67981334D01*
X84368622Y-68046552D01*
X84219268Y-68108416D01*
X84113658Y-68152162D01*
X84030675Y-68168668D01*
X83842989Y-68206001D01*
X83567013Y-68206001D01*
X83379327Y-68168668D01*
X83296344Y-68152162D01*
X83190734Y-68108416D01*
X83041380Y-68046552D01*
X82943774Y-67981334D01*
X82811915Y-67893229D01*
X82616773Y-67698087D01*
X82463451Y-67468623D01*
X82463450Y-67468622D01*
X82401586Y-67319268D01*
X82357840Y-67213658D01*
X82304001Y-66942987D01*
X82304001Y-66667015D01*
X82357840Y-66396344D01*
X82408645Y-66273691D01*
X82463450Y-66141380D01*
X82567627Y-65985468D01*
X82616773Y-65911915D01*
X82811915Y-65716773D01*
X83041379Y-65563451D01*
X83041380Y-65563450D01*
X83190734Y-65501586D01*
X83296344Y-65457840D01*
X83386568Y-65439894D01*
X83567013Y-65404001D01*
X83842989Y-65404001D01*
X84023434Y-65439894D01*
G37*
G36*
X142023434Y-65439894D02*
G01*
X142113658Y-65457840D01*
X142219268Y-65501586D01*
X142368622Y-65563450D01*
X142368623Y-65563451D01*
X142598087Y-65716773D01*
X142793229Y-65911915D01*
X142842375Y-65985468D01*
X142946552Y-66141380D01*
X143001357Y-66273691D01*
X143052162Y-66396344D01*
X143106001Y-66667015D01*
X143106001Y-66942987D01*
X143052162Y-67213658D01*
X143008416Y-67319268D01*
X142946552Y-67468622D01*
X142946551Y-67468623D01*
X142793229Y-67698087D01*
X142598087Y-67893229D01*
X142466228Y-67981334D01*
X142368622Y-68046552D01*
X142219268Y-68108416D01*
X142113658Y-68152162D01*
X142030675Y-68168668D01*
X141842989Y-68206001D01*
X141567013Y-68206001D01*
X141379327Y-68168668D01*
X141296344Y-68152162D01*
X141190734Y-68108416D01*
X141041380Y-68046552D01*
X140943774Y-67981334D01*
X140811915Y-67893229D01*
X140616773Y-67698087D01*
X140463451Y-67468623D01*
X140463450Y-67468622D01*
X140401586Y-67319268D01*
X140357840Y-67213658D01*
X140304001Y-66942987D01*
X140304001Y-66667015D01*
X140357840Y-66396344D01*
X140408645Y-66273691D01*
X140463450Y-66141380D01*
X140567627Y-65985468D01*
X140616773Y-65911915D01*
X140811915Y-65716773D01*
X141041379Y-65563451D01*
X141041380Y-65563450D01*
X141190734Y-65501586D01*
X141296344Y-65457840D01*
X141386568Y-65439894D01*
X141567013Y-65404001D01*
X141842989Y-65404001D01*
X142023434Y-65439894D01*
G37*
G36*
X111712396Y-64620547D02*
G01*
X111885467Y-64692235D01*
X111885468Y-64692236D01*
X112041228Y-64796311D01*
X112173691Y-64928774D01*
X112173692Y-64928776D01*
X112277767Y-65084535D01*
X112349455Y-65257606D01*
X112386001Y-65441334D01*
X112386001Y-65628668D01*
X112349455Y-65812396D01*
X112277767Y-65985467D01*
X112277766Y-65985468D01*
X112173691Y-66141228D01*
X112041228Y-66273691D01*
X111962819Y-66326082D01*
X111885467Y-66377767D01*
X111712396Y-66449455D01*
X111528668Y-66486001D01*
X111341334Y-66486001D01*
X111157606Y-66449455D01*
X110984535Y-66377767D01*
X110907183Y-66326082D01*
X110828774Y-66273691D01*
X110696311Y-66141228D01*
X110592236Y-65985468D01*
X110592235Y-65985467D01*
X110520547Y-65812396D01*
X110484001Y-65628668D01*
X110484001Y-65441334D01*
X110520547Y-65257606D01*
X110592235Y-65084535D01*
X110696310Y-64928776D01*
X110696311Y-64928774D01*
X110828774Y-64796311D01*
X110984534Y-64692236D01*
X110984535Y-64692235D01*
X111157606Y-64620547D01*
X111341334Y-64584001D01*
X111528668Y-64584001D01*
X111712396Y-64620547D01*
G37*
G36*
X116792396Y-64620547D02*
G01*
X116965467Y-64692235D01*
X116965468Y-64692236D01*
X117121228Y-64796311D01*
X117253691Y-64928774D01*
X117253692Y-64928776D01*
X117357767Y-65084535D01*
X117429455Y-65257606D01*
X117466001Y-65441334D01*
X117466001Y-65628668D01*
X117429455Y-65812396D01*
X117357767Y-65985467D01*
X117357766Y-65985468D01*
X117253691Y-66141228D01*
X117121228Y-66273691D01*
X117042819Y-66326082D01*
X116965467Y-66377767D01*
X116792396Y-66449455D01*
X116608668Y-66486001D01*
X116421334Y-66486001D01*
X116237606Y-66449455D01*
X116064535Y-66377767D01*
X115987183Y-66326082D01*
X115908774Y-66273691D01*
X115776311Y-66141228D01*
X115672236Y-65985468D01*
X115672235Y-65985467D01*
X115600547Y-65812396D01*
X115564001Y-65628668D01*
X115564001Y-65441334D01*
X115600547Y-65257606D01*
X115672235Y-65084535D01*
X115776310Y-64928776D01*
X115776311Y-64928774D01*
X115908774Y-64796311D01*
X116064534Y-64692236D01*
X116064535Y-64692235D01*
X116237606Y-64620547D01*
X116421334Y-64584001D01*
X116608668Y-64584001D01*
X116792396Y-64620547D01*
G37*
G36*
X114252396Y-64620547D02*
G01*
X114425467Y-64692235D01*
X114425468Y-64692236D01*
X114581228Y-64796311D01*
X114713691Y-64928774D01*
X114713692Y-64928776D01*
X114817767Y-65084535D01*
X114889455Y-65257606D01*
X114926001Y-65441334D01*
X114926001Y-65628668D01*
X114889455Y-65812396D01*
X114817767Y-65985467D01*
X114817766Y-65985468D01*
X114713691Y-66141228D01*
X114581228Y-66273691D01*
X114502819Y-66326082D01*
X114425467Y-66377767D01*
X114252396Y-66449455D01*
X114068668Y-66486001D01*
X113881334Y-66486001D01*
X113697606Y-66449455D01*
X113524535Y-66377767D01*
X113447183Y-66326082D01*
X113368774Y-66273691D01*
X113236311Y-66141228D01*
X113132236Y-65985468D01*
X113132235Y-65985467D01*
X113060547Y-65812396D01*
X113024001Y-65628668D01*
X113024001Y-65441334D01*
X113060547Y-65257606D01*
X113132235Y-65084535D01*
X113236310Y-64928776D01*
X113236311Y-64928774D01*
X113368774Y-64796311D01*
X113524534Y-64692236D01*
X113524535Y-64692235D01*
X113697606Y-64620547D01*
X113881334Y-64584001D01*
X114068668Y-64584001D01*
X114252396Y-64620547D01*
G37*
G36*
X91392396Y-64620547D02*
G01*
X91565467Y-64692235D01*
X91565468Y-64692236D01*
X91721228Y-64796311D01*
X91853691Y-64928774D01*
X91853692Y-64928776D01*
X91957767Y-65084535D01*
X92029455Y-65257606D01*
X92066001Y-65441334D01*
X92066001Y-65628668D01*
X92029455Y-65812396D01*
X91957767Y-65985467D01*
X91957766Y-65985468D01*
X91853691Y-66141228D01*
X91721228Y-66273691D01*
X91642819Y-66326082D01*
X91565467Y-66377767D01*
X91392396Y-66449455D01*
X91208668Y-66486001D01*
X91021334Y-66486001D01*
X90837606Y-66449455D01*
X90664535Y-66377767D01*
X90587183Y-66326082D01*
X90508774Y-66273691D01*
X90376311Y-66141228D01*
X90272236Y-65985468D01*
X90272235Y-65985467D01*
X90200547Y-65812396D01*
X90164001Y-65628668D01*
X90164001Y-65441334D01*
X90200547Y-65257606D01*
X90272235Y-65084535D01*
X90376310Y-64928776D01*
X90376311Y-64928774D01*
X90508774Y-64796311D01*
X90664534Y-64692236D01*
X90664535Y-64692235D01*
X90837606Y-64620547D01*
X91021334Y-64584001D01*
X91208668Y-64584001D01*
X91392396Y-64620547D01*
G37*
G36*
X93932396Y-64620547D02*
G01*
X94105467Y-64692235D01*
X94105468Y-64692236D01*
X94261228Y-64796311D01*
X94393691Y-64928774D01*
X94393692Y-64928776D01*
X94497767Y-65084535D01*
X94569455Y-65257606D01*
X94606001Y-65441334D01*
X94606001Y-65628668D01*
X94569455Y-65812396D01*
X94497767Y-65985467D01*
X94497766Y-65985468D01*
X94393691Y-66141228D01*
X94261228Y-66273691D01*
X94182819Y-66326082D01*
X94105467Y-66377767D01*
X93932396Y-66449455D01*
X93748668Y-66486001D01*
X93561334Y-66486001D01*
X93377606Y-66449455D01*
X93204535Y-66377767D01*
X93127183Y-66326082D01*
X93048774Y-66273691D01*
X92916311Y-66141228D01*
X92812236Y-65985468D01*
X92812235Y-65985467D01*
X92740547Y-65812396D01*
X92704001Y-65628668D01*
X92704001Y-65441334D01*
X92740547Y-65257606D01*
X92812235Y-65084535D01*
X92916310Y-64928776D01*
X92916311Y-64928774D01*
X93048774Y-64796311D01*
X93204534Y-64692236D01*
X93204535Y-64692235D01*
X93377606Y-64620547D01*
X93561334Y-64584001D01*
X93748668Y-64584001D01*
X93932396Y-64620547D01*
G37*
G36*
X99012396Y-64620547D02*
G01*
X99185467Y-64692235D01*
X99185468Y-64692236D01*
X99341228Y-64796311D01*
X99473691Y-64928774D01*
X99473692Y-64928776D01*
X99577767Y-65084535D01*
X99649455Y-65257606D01*
X99686001Y-65441334D01*
X99686001Y-65628668D01*
X99649455Y-65812396D01*
X99577767Y-65985467D01*
X99577766Y-65985468D01*
X99473691Y-66141228D01*
X99341228Y-66273691D01*
X99262819Y-66326082D01*
X99185467Y-66377767D01*
X99012396Y-66449455D01*
X98828668Y-66486001D01*
X98641334Y-66486001D01*
X98457606Y-66449455D01*
X98284535Y-66377767D01*
X98207183Y-66326082D01*
X98128774Y-66273691D01*
X97996311Y-66141228D01*
X97892236Y-65985468D01*
X97892235Y-65985467D01*
X97820547Y-65812396D01*
X97784001Y-65628668D01*
X97784001Y-65441334D01*
X97820547Y-65257606D01*
X97892235Y-65084535D01*
X97996310Y-64928776D01*
X97996311Y-64928774D01*
X98128774Y-64796311D01*
X98284534Y-64692236D01*
X98284535Y-64692235D01*
X98457606Y-64620547D01*
X98641334Y-64584001D01*
X98828668Y-64584001D01*
X99012396Y-64620547D01*
G37*
G36*
X101552396Y-64620547D02*
G01*
X101725467Y-64692235D01*
X101725468Y-64692236D01*
X101881228Y-64796311D01*
X102013691Y-64928774D01*
X102013692Y-64928776D01*
X102117767Y-65084535D01*
X102189455Y-65257606D01*
X102226001Y-65441334D01*
X102226001Y-65628668D01*
X102189455Y-65812396D01*
X102117767Y-65985467D01*
X102117766Y-65985468D01*
X102013691Y-66141228D01*
X101881228Y-66273691D01*
X101802819Y-66326082D01*
X101725467Y-66377767D01*
X101552396Y-66449455D01*
X101368668Y-66486001D01*
X101181334Y-66486001D01*
X100997606Y-66449455D01*
X100824535Y-66377767D01*
X100747183Y-66326082D01*
X100668774Y-66273691D01*
X100536311Y-66141228D01*
X100432236Y-65985468D01*
X100432235Y-65985467D01*
X100360547Y-65812396D01*
X100324001Y-65628668D01*
X100324001Y-65441334D01*
X100360547Y-65257606D01*
X100432235Y-65084535D01*
X100536310Y-64928776D01*
X100536311Y-64928774D01*
X100668774Y-64796311D01*
X100824534Y-64692236D01*
X100824535Y-64692235D01*
X100997606Y-64620547D01*
X101181334Y-64584001D01*
X101368668Y-64584001D01*
X101552396Y-64620547D01*
G37*
G36*
X104092396Y-64620547D02*
G01*
X104265467Y-64692235D01*
X104265468Y-64692236D01*
X104421228Y-64796311D01*
X104553691Y-64928774D01*
X104553692Y-64928776D01*
X104657767Y-65084535D01*
X104729455Y-65257606D01*
X104766001Y-65441334D01*
X104766001Y-65628668D01*
X104729455Y-65812396D01*
X104657767Y-65985467D01*
X104657766Y-65985468D01*
X104553691Y-66141228D01*
X104421228Y-66273691D01*
X104342819Y-66326082D01*
X104265467Y-66377767D01*
X104092396Y-66449455D01*
X103908668Y-66486001D01*
X103721334Y-66486001D01*
X103537606Y-66449455D01*
X103364535Y-66377767D01*
X103287183Y-66326082D01*
X103208774Y-66273691D01*
X103076311Y-66141228D01*
X102972236Y-65985468D01*
X102972235Y-65985467D01*
X102900547Y-65812396D01*
X102864001Y-65628668D01*
X102864001Y-65441334D01*
X102900547Y-65257606D01*
X102972235Y-65084535D01*
X103076310Y-64928776D01*
X103076311Y-64928774D01*
X103208774Y-64796311D01*
X103364534Y-64692236D01*
X103364535Y-64692235D01*
X103537606Y-64620547D01*
X103721334Y-64584001D01*
X103908668Y-64584001D01*
X104092396Y-64620547D01*
G37*
G36*
X106632396Y-64620547D02*
G01*
X106805467Y-64692235D01*
X106805468Y-64692236D01*
X106961228Y-64796311D01*
X107093691Y-64928774D01*
X107093692Y-64928776D01*
X107197767Y-65084535D01*
X107269455Y-65257606D01*
X107306001Y-65441334D01*
X107306001Y-65628668D01*
X107269455Y-65812396D01*
X107197767Y-65985467D01*
X107197766Y-65985468D01*
X107093691Y-66141228D01*
X106961228Y-66273691D01*
X106882819Y-66326082D01*
X106805467Y-66377767D01*
X106632396Y-66449455D01*
X106448668Y-66486001D01*
X106261334Y-66486001D01*
X106077606Y-66449455D01*
X105904535Y-66377767D01*
X105827183Y-66326082D01*
X105748774Y-66273691D01*
X105616311Y-66141228D01*
X105512236Y-65985468D01*
X105512235Y-65985467D01*
X105440547Y-65812396D01*
X105404001Y-65628668D01*
X105404001Y-65441334D01*
X105440547Y-65257606D01*
X105512235Y-65084535D01*
X105616310Y-64928776D01*
X105616311Y-64928774D01*
X105748774Y-64796311D01*
X105904534Y-64692236D01*
X105904535Y-64692235D01*
X106077606Y-64620547D01*
X106261334Y-64584001D01*
X106448668Y-64584001D01*
X106632396Y-64620547D01*
G37*
G36*
X109172396Y-64620547D02*
G01*
X109345467Y-64692235D01*
X109345468Y-64692236D01*
X109501228Y-64796311D01*
X109633691Y-64928774D01*
X109633692Y-64928776D01*
X109737767Y-65084535D01*
X109809455Y-65257606D01*
X109846001Y-65441334D01*
X109846001Y-65628668D01*
X109809455Y-65812396D01*
X109737767Y-65985467D01*
X109737766Y-65985468D01*
X109633691Y-66141228D01*
X109501228Y-66273691D01*
X109422819Y-66326082D01*
X109345467Y-66377767D01*
X109172396Y-66449455D01*
X108988668Y-66486001D01*
X108801334Y-66486001D01*
X108617606Y-66449455D01*
X108444535Y-66377767D01*
X108367183Y-66326082D01*
X108288774Y-66273691D01*
X108156311Y-66141228D01*
X108052236Y-65985468D01*
X108052235Y-65985467D01*
X107980547Y-65812396D01*
X107944001Y-65628668D01*
X107944001Y-65441334D01*
X107980547Y-65257606D01*
X108052235Y-65084535D01*
X108156310Y-64928776D01*
X108156311Y-64928774D01*
X108288774Y-64796311D01*
X108444534Y-64692236D01*
X108444535Y-64692235D01*
X108617606Y-64620547D01*
X108801334Y-64584001D01*
X108988668Y-64584001D01*
X109172396Y-64620547D01*
G37*
G36*
X119332396Y-64620547D02*
G01*
X119505467Y-64692235D01*
X119505468Y-64692236D01*
X119661228Y-64796311D01*
X119793691Y-64928774D01*
X119793692Y-64928776D01*
X119897767Y-65084535D01*
X119969455Y-65257606D01*
X120006001Y-65441334D01*
X120006001Y-65628668D01*
X119969455Y-65812396D01*
X119897767Y-65985467D01*
X119897766Y-65985468D01*
X119793691Y-66141228D01*
X119661228Y-66273691D01*
X119582819Y-66326082D01*
X119505467Y-66377767D01*
X119332396Y-66449455D01*
X119148668Y-66486001D01*
X118961334Y-66486001D01*
X118777606Y-66449455D01*
X118604535Y-66377767D01*
X118527183Y-66326082D01*
X118448774Y-66273691D01*
X118316311Y-66141228D01*
X118212236Y-65985468D01*
X118212235Y-65985467D01*
X118140547Y-65812396D01*
X118104001Y-65628668D01*
X118104001Y-65441334D01*
X118140547Y-65257606D01*
X118212235Y-65084535D01*
X118316310Y-64928776D01*
X118316311Y-64928774D01*
X118448774Y-64796311D01*
X118604534Y-64692236D01*
X118604535Y-64692235D01*
X118777606Y-64620547D01*
X118961334Y-64584001D01*
X119148668Y-64584001D01*
X119332396Y-64620547D01*
G37*
G36*
X129492396Y-64620547D02*
G01*
X129665467Y-64692235D01*
X129665468Y-64692236D01*
X129821228Y-64796311D01*
X129953691Y-64928774D01*
X129953692Y-64928776D01*
X130057767Y-65084535D01*
X130129455Y-65257606D01*
X130166001Y-65441334D01*
X130166001Y-65628668D01*
X130129455Y-65812396D01*
X130057767Y-65985467D01*
X130057766Y-65985468D01*
X129953691Y-66141228D01*
X129821228Y-66273691D01*
X129742819Y-66326082D01*
X129665467Y-66377767D01*
X129492396Y-66449455D01*
X129308668Y-66486001D01*
X129121334Y-66486001D01*
X128937606Y-66449455D01*
X128764535Y-66377767D01*
X128687183Y-66326082D01*
X128608774Y-66273691D01*
X128476311Y-66141228D01*
X128372236Y-65985468D01*
X128372235Y-65985467D01*
X128300547Y-65812396D01*
X128264001Y-65628668D01*
X128264001Y-65441334D01*
X128300547Y-65257606D01*
X128372235Y-65084535D01*
X128476310Y-64928776D01*
X128476311Y-64928774D01*
X128608774Y-64796311D01*
X128764534Y-64692236D01*
X128764535Y-64692235D01*
X128937606Y-64620547D01*
X129121334Y-64584001D01*
X129308668Y-64584001D01*
X129492396Y-64620547D01*
G37*
G36*
X96472396Y-64620547D02*
G01*
X96645467Y-64692235D01*
X96645468Y-64692236D01*
X96801228Y-64796311D01*
X96933691Y-64928774D01*
X96933692Y-64928776D01*
X97037767Y-65084535D01*
X97109455Y-65257606D01*
X97146001Y-65441334D01*
X97146001Y-65628668D01*
X97109455Y-65812396D01*
X97037767Y-65985467D01*
X97037766Y-65985468D01*
X96933691Y-66141228D01*
X96801228Y-66273691D01*
X96722819Y-66326082D01*
X96645467Y-66377767D01*
X96472396Y-66449455D01*
X96288668Y-66486001D01*
X96101334Y-66486001D01*
X95917606Y-66449455D01*
X95744535Y-66377767D01*
X95667183Y-66326082D01*
X95588774Y-66273691D01*
X95456311Y-66141228D01*
X95352236Y-65985468D01*
X95352235Y-65985467D01*
X95280547Y-65812396D01*
X95244001Y-65628668D01*
X95244001Y-65441334D01*
X95280547Y-65257606D01*
X95352235Y-65084535D01*
X95456310Y-64928776D01*
X95456311Y-64928774D01*
X95588774Y-64796311D01*
X95744534Y-64692236D01*
X95744535Y-64692235D01*
X95917606Y-64620547D01*
X96101334Y-64584001D01*
X96288668Y-64584001D01*
X96472396Y-64620547D01*
G37*
G36*
X126952396Y-64620547D02*
G01*
X127125467Y-64692235D01*
X127125468Y-64692236D01*
X127281228Y-64796311D01*
X127413691Y-64928774D01*
X127413692Y-64928776D01*
X127517767Y-65084535D01*
X127589455Y-65257606D01*
X127626001Y-65441334D01*
X127626001Y-65628668D01*
X127589455Y-65812396D01*
X127517767Y-65985467D01*
X127517766Y-65985468D01*
X127413691Y-66141228D01*
X127281228Y-66273691D01*
X127202819Y-66326082D01*
X127125467Y-66377767D01*
X126952396Y-66449455D01*
X126768668Y-66486001D01*
X126581334Y-66486001D01*
X126397606Y-66449455D01*
X126224535Y-66377767D01*
X126147183Y-66326082D01*
X126068774Y-66273691D01*
X125936311Y-66141228D01*
X125832236Y-65985468D01*
X125832235Y-65985467D01*
X125760547Y-65812396D01*
X125724001Y-65628668D01*
X125724001Y-65441334D01*
X125760547Y-65257606D01*
X125832235Y-65084535D01*
X125936310Y-64928776D01*
X125936311Y-64928774D01*
X126068774Y-64796311D01*
X126224534Y-64692236D01*
X126224535Y-64692235D01*
X126397606Y-64620547D01*
X126581334Y-64584001D01*
X126768668Y-64584001D01*
X126952396Y-64620547D01*
G37*
G36*
X124412396Y-64620547D02*
G01*
X124585467Y-64692235D01*
X124585468Y-64692236D01*
X124741228Y-64796311D01*
X124873691Y-64928774D01*
X124873692Y-64928776D01*
X124977767Y-65084535D01*
X125049455Y-65257606D01*
X125086001Y-65441334D01*
X125086001Y-65628668D01*
X125049455Y-65812396D01*
X124977767Y-65985467D01*
X124977766Y-65985468D01*
X124873691Y-66141228D01*
X124741228Y-66273691D01*
X124662819Y-66326082D01*
X124585467Y-66377767D01*
X124412396Y-66449455D01*
X124228668Y-66486001D01*
X124041334Y-66486001D01*
X123857606Y-66449455D01*
X123684535Y-66377767D01*
X123607183Y-66326082D01*
X123528774Y-66273691D01*
X123396311Y-66141228D01*
X123292236Y-65985468D01*
X123292235Y-65985467D01*
X123220547Y-65812396D01*
X123184001Y-65628668D01*
X123184001Y-65441334D01*
X123220547Y-65257606D01*
X123292235Y-65084535D01*
X123396310Y-64928776D01*
X123396311Y-64928774D01*
X123528774Y-64796311D01*
X123684534Y-64692236D01*
X123684535Y-64692235D01*
X123857606Y-64620547D01*
X124041334Y-64584001D01*
X124228668Y-64584001D01*
X124412396Y-64620547D01*
G37*
G36*
X121872396Y-64620547D02*
G01*
X122045467Y-64692235D01*
X122045468Y-64692236D01*
X122201228Y-64796311D01*
X122333691Y-64928774D01*
X122333692Y-64928776D01*
X122437767Y-65084535D01*
X122509455Y-65257606D01*
X122546001Y-65441334D01*
X122546001Y-65628668D01*
X122509455Y-65812396D01*
X122437767Y-65985467D01*
X122437766Y-65985468D01*
X122333691Y-66141228D01*
X122201228Y-66273691D01*
X122122819Y-66326082D01*
X122045467Y-66377767D01*
X121872396Y-66449455D01*
X121688668Y-66486001D01*
X121501334Y-66486001D01*
X121317606Y-66449455D01*
X121144535Y-66377767D01*
X121067183Y-66326082D01*
X120988774Y-66273691D01*
X120856311Y-66141228D01*
X120752236Y-65985468D01*
X120752235Y-65985467D01*
X120680547Y-65812396D01*
X120644001Y-65628668D01*
X120644001Y-65441334D01*
X120680547Y-65257606D01*
X120752235Y-65084535D01*
X120856310Y-64928776D01*
X120856311Y-64928774D01*
X120988774Y-64796311D01*
X121144534Y-64692236D01*
X121144535Y-64692235D01*
X121317606Y-64620547D01*
X121501334Y-64584001D01*
X121688668Y-64584001D01*
X121872396Y-64620547D01*
G37*
G36*
X132032396Y-64620547D02*
G01*
X132205467Y-64692235D01*
X132205468Y-64692236D01*
X132361228Y-64796311D01*
X132493691Y-64928774D01*
X132493692Y-64928776D01*
X132597767Y-65084535D01*
X132669455Y-65257606D01*
X132706001Y-65441334D01*
X132706001Y-65628668D01*
X132669455Y-65812396D01*
X132597767Y-65985467D01*
X132597766Y-65985468D01*
X132493691Y-66141228D01*
X132361228Y-66273691D01*
X132282819Y-66326082D01*
X132205467Y-66377767D01*
X132032396Y-66449455D01*
X131848668Y-66486001D01*
X131661334Y-66486001D01*
X131477606Y-66449455D01*
X131304535Y-66377767D01*
X131227183Y-66326082D01*
X131148774Y-66273691D01*
X131016311Y-66141228D01*
X130912236Y-65985468D01*
X130912235Y-65985467D01*
X130840547Y-65812396D01*
X130804001Y-65628668D01*
X130804001Y-65441334D01*
X130840547Y-65257606D01*
X130912235Y-65084535D01*
X131016310Y-64928776D01*
X131016311Y-64928774D01*
X131148774Y-64796311D01*
X131304534Y-64692236D01*
X131304535Y-64692235D01*
X131477606Y-64620547D01*
X131661334Y-64584001D01*
X131848668Y-64584001D01*
X132032396Y-64620547D01*
G37*
G36*
X137112396Y-64620547D02*
G01*
X137285467Y-64692235D01*
X137285468Y-64692236D01*
X137441228Y-64796311D01*
X137573691Y-64928774D01*
X137573692Y-64928776D01*
X137677767Y-65084535D01*
X137749455Y-65257606D01*
X137786001Y-65441334D01*
X137786001Y-65628668D01*
X137749455Y-65812396D01*
X137677767Y-65985467D01*
X137677766Y-65985468D01*
X137573691Y-66141228D01*
X137441228Y-66273691D01*
X137362819Y-66326082D01*
X137285467Y-66377767D01*
X137112396Y-66449455D01*
X136928668Y-66486001D01*
X136741334Y-66486001D01*
X136557606Y-66449455D01*
X136384535Y-66377767D01*
X136307183Y-66326082D01*
X136228774Y-66273691D01*
X136096311Y-66141228D01*
X135992236Y-65985468D01*
X135992235Y-65985467D01*
X135920547Y-65812396D01*
X135884001Y-65628668D01*
X135884001Y-65441334D01*
X135920547Y-65257606D01*
X135992235Y-65084535D01*
X136096310Y-64928776D01*
X136096311Y-64928774D01*
X136228774Y-64796311D01*
X136384534Y-64692236D01*
X136384535Y-64692235D01*
X136557606Y-64620547D01*
X136741334Y-64584001D01*
X136928668Y-64584001D01*
X137112396Y-64620547D01*
G37*
G36*
X88852396Y-64620547D02*
G01*
X89025467Y-64692235D01*
X89025468Y-64692236D01*
X89181228Y-64796311D01*
X89313691Y-64928774D01*
X89313692Y-64928776D01*
X89417767Y-65084535D01*
X89489455Y-65257606D01*
X89526001Y-65441334D01*
X89526001Y-65628668D01*
X89489455Y-65812396D01*
X89417767Y-65985467D01*
X89417766Y-65985468D01*
X89313691Y-66141228D01*
X89181228Y-66273691D01*
X89102819Y-66326082D01*
X89025467Y-66377767D01*
X88852396Y-66449455D01*
X88668668Y-66486001D01*
X88481334Y-66486001D01*
X88297606Y-66449455D01*
X88124535Y-66377767D01*
X88047183Y-66326082D01*
X87968774Y-66273691D01*
X87836311Y-66141228D01*
X87732236Y-65985468D01*
X87732235Y-65985467D01*
X87660547Y-65812396D01*
X87624001Y-65628668D01*
X87624001Y-65441334D01*
X87660547Y-65257606D01*
X87732235Y-65084535D01*
X87836310Y-64928776D01*
X87836311Y-64928774D01*
X87968774Y-64796311D01*
X88124534Y-64692236D01*
X88124535Y-64692235D01*
X88297606Y-64620547D01*
X88481334Y-64584001D01*
X88668668Y-64584001D01*
X88852396Y-64620547D01*
G37*
G36*
X134572396Y-64620547D02*
G01*
X134745467Y-64692235D01*
X134745468Y-64692236D01*
X134901228Y-64796311D01*
X135033691Y-64928774D01*
X135033692Y-64928776D01*
X135137767Y-65084535D01*
X135209455Y-65257606D01*
X135246001Y-65441334D01*
X135246001Y-65628668D01*
X135209455Y-65812396D01*
X135137767Y-65985467D01*
X135137766Y-65985468D01*
X135033691Y-66141228D01*
X134901228Y-66273691D01*
X134822819Y-66326082D01*
X134745467Y-66377767D01*
X134572396Y-66449455D01*
X134388668Y-66486001D01*
X134201334Y-66486001D01*
X134017606Y-66449455D01*
X133844535Y-66377767D01*
X133767183Y-66326082D01*
X133688774Y-66273691D01*
X133556311Y-66141228D01*
X133452236Y-65985468D01*
X133452235Y-65985467D01*
X133380547Y-65812396D01*
X133344001Y-65628668D01*
X133344001Y-65441334D01*
X133380547Y-65257606D01*
X133452235Y-65084535D01*
X133556310Y-64928776D01*
X133556311Y-64928774D01*
X133688774Y-64796311D01*
X133844534Y-64692236D01*
X133844535Y-64692235D01*
X134017606Y-64620547D01*
X134201334Y-64584001D01*
X134388668Y-64584001D01*
X134572396Y-64620547D01*
G37*
M02*
