%TF.GenerationSoftware,KiCad,Pcbnew,5.1.6-c6e7f7d~87~ubuntu18.04.1*%
%TF.CreationDate,2022-03-05T00:23:36+01:00*%
%TF.ProjectId,door_if2,646f6f72-5f69-4663-922e-6b696361645f,rev?*%
%TF.SameCoordinates,Original*%
%TF.FileFunction,Soldermask,Bot*%
%TF.FilePolarity,Negative*%
%FSLAX46Y46*%
G04 Gerber Fmt 4.6, Leading zero omitted, Abs format (unit mm)*
G04 Created by KiCad (PCBNEW 5.1.6-c6e7f7d~87~ubuntu18.04.1) date 2022-03-05 00:23:36*
%MOMM*%
%LPD*%
G01*
G04 APERTURE LIST*
%ADD10C,0.100000*%
G04 APERTURE END LIST*
D10*
G36*
X142023434Y-114439894D02*
G01*
X142113658Y-114457840D01*
X142219268Y-114501586D01*
X142368622Y-114563450D01*
X142368623Y-114563451D01*
X142598087Y-114716773D01*
X142793229Y-114911915D01*
X142895676Y-115065238D01*
X142946552Y-115141380D01*
X143052162Y-115396345D01*
X143106001Y-115667013D01*
X143106001Y-115942989D01*
X143052162Y-116213657D01*
X142946552Y-116468622D01*
X142946551Y-116468623D01*
X142793229Y-116698087D01*
X142598087Y-116893229D01*
X142444764Y-116995676D01*
X142368622Y-117046552D01*
X142219268Y-117108416D01*
X142113658Y-117152162D01*
X142023434Y-117170108D01*
X141842989Y-117206001D01*
X141567013Y-117206001D01*
X141386568Y-117170108D01*
X141296344Y-117152162D01*
X141190734Y-117108416D01*
X141041380Y-117046552D01*
X140965238Y-116995676D01*
X140811915Y-116893229D01*
X140616773Y-116698087D01*
X140463451Y-116468623D01*
X140463450Y-116468622D01*
X140357840Y-116213657D01*
X140304001Y-115942989D01*
X140304001Y-115667013D01*
X140357840Y-115396345D01*
X140463450Y-115141380D01*
X140514326Y-115065238D01*
X140616773Y-114911915D01*
X140811915Y-114716773D01*
X141041379Y-114563451D01*
X141041380Y-114563450D01*
X141190734Y-114501586D01*
X141296344Y-114457840D01*
X141386568Y-114439894D01*
X141567013Y-114404001D01*
X141842989Y-114404001D01*
X142023434Y-114439894D01*
G37*
G36*
X84023434Y-114439894D02*
G01*
X84113658Y-114457840D01*
X84219268Y-114501586D01*
X84368622Y-114563450D01*
X84368623Y-114563451D01*
X84598087Y-114716773D01*
X84793229Y-114911915D01*
X84895676Y-115065238D01*
X84946552Y-115141380D01*
X85052162Y-115396345D01*
X85106001Y-115667013D01*
X85106001Y-115942989D01*
X85052162Y-116213657D01*
X84946552Y-116468622D01*
X84946551Y-116468623D01*
X84793229Y-116698087D01*
X84598087Y-116893229D01*
X84444764Y-116995676D01*
X84368622Y-117046552D01*
X84219268Y-117108416D01*
X84113658Y-117152162D01*
X84023434Y-117170108D01*
X83842989Y-117206001D01*
X83567013Y-117206001D01*
X83386568Y-117170108D01*
X83296344Y-117152162D01*
X83190734Y-117108416D01*
X83041380Y-117046552D01*
X82965238Y-116995676D01*
X82811915Y-116893229D01*
X82616773Y-116698087D01*
X82463451Y-116468623D01*
X82463450Y-116468622D01*
X82357840Y-116213657D01*
X82304001Y-115942989D01*
X82304001Y-115667013D01*
X82357840Y-115396345D01*
X82463450Y-115141380D01*
X82514326Y-115065238D01*
X82616773Y-114911915D01*
X82811915Y-114716773D01*
X83041379Y-114563451D01*
X83041380Y-114563450D01*
X83190734Y-114501586D01*
X83296344Y-114457840D01*
X83386568Y-114439894D01*
X83567013Y-114404001D01*
X83842989Y-114404001D01*
X84023434Y-114439894D01*
G37*
G36*
X132401000Y-110201000D02*
G01*
X128799000Y-110201000D01*
X128799000Y-107799000D01*
X132401000Y-107799000D01*
X132401000Y-110201000D01*
G37*
G36*
X127001000Y-110201000D02*
G01*
X123399000Y-110201000D01*
X123399000Y-107799000D01*
X127001000Y-107799000D01*
X127001000Y-110201000D01*
G37*
G36*
X89659472Y-107208412D02*
G01*
X89755040Y-107217825D01*
X90000280Y-107292218D01*
X90226294Y-107413025D01*
X90277899Y-107455376D01*
X90424397Y-107575603D01*
X90544624Y-107722101D01*
X90586975Y-107773706D01*
X90707782Y-107999720D01*
X90782175Y-108244960D01*
X90807294Y-108500000D01*
X90782175Y-108755040D01*
X90707782Y-109000280D01*
X90586975Y-109226294D01*
X90544624Y-109277899D01*
X90424397Y-109424397D01*
X90277899Y-109544624D01*
X90226294Y-109586975D01*
X90000280Y-109707782D01*
X89755040Y-109782175D01*
X89659473Y-109791587D01*
X89563906Y-109801000D01*
X88436094Y-109801000D01*
X88340527Y-109791587D01*
X88244960Y-109782175D01*
X87999720Y-109707782D01*
X87773706Y-109586975D01*
X87722101Y-109544624D01*
X87575603Y-109424397D01*
X87455376Y-109277899D01*
X87413025Y-109226294D01*
X87292218Y-109000280D01*
X87217825Y-108755040D01*
X87192706Y-108500000D01*
X87217825Y-108244960D01*
X87292218Y-107999720D01*
X87413025Y-107773706D01*
X87455376Y-107722101D01*
X87575603Y-107575603D01*
X87722101Y-107455376D01*
X87773706Y-107413025D01*
X87999720Y-107292218D01*
X88244960Y-107217825D01*
X88340528Y-107208412D01*
X88436094Y-107199000D01*
X89563906Y-107199000D01*
X89659472Y-107208412D01*
G37*
G36*
X136659473Y-106708413D02*
G01*
X136755040Y-106717825D01*
X137000280Y-106792218D01*
X137226294Y-106913025D01*
X137277899Y-106955376D01*
X137424397Y-107075603D01*
X137525665Y-107199000D01*
X137586975Y-107273706D01*
X137707782Y-107499720D01*
X137782175Y-107744960D01*
X137807294Y-108000000D01*
X137782175Y-108255040D01*
X137707782Y-108500280D01*
X137586975Y-108726294D01*
X137544624Y-108777899D01*
X137424397Y-108924397D01*
X137277899Y-109044624D01*
X137226294Y-109086975D01*
X137000280Y-109207782D01*
X136755040Y-109282175D01*
X136659472Y-109291588D01*
X136563906Y-109301000D01*
X135436094Y-109301000D01*
X135340528Y-109291588D01*
X135244960Y-109282175D01*
X134999720Y-109207782D01*
X134773706Y-109086975D01*
X134722101Y-109044624D01*
X134575603Y-108924397D01*
X134455376Y-108777899D01*
X134413025Y-108726294D01*
X134292218Y-108500280D01*
X134217825Y-108255040D01*
X134192706Y-108000000D01*
X134217825Y-107744960D01*
X134292218Y-107499720D01*
X134413025Y-107273706D01*
X134474335Y-107199000D01*
X134575603Y-107075603D01*
X134722101Y-106955376D01*
X134773706Y-106913025D01*
X134999720Y-106792218D01*
X135244960Y-106717825D01*
X135340527Y-106708413D01*
X135436094Y-106699000D01*
X136563906Y-106699000D01*
X136659473Y-106708413D01*
G37*
G36*
X89659473Y-103708413D02*
G01*
X89755040Y-103717825D01*
X90000280Y-103792218D01*
X90226294Y-103913025D01*
X90277899Y-103955376D01*
X90424397Y-104075603D01*
X90544624Y-104222101D01*
X90586975Y-104273706D01*
X90707782Y-104499720D01*
X90782175Y-104744960D01*
X90807294Y-105000000D01*
X90782175Y-105255040D01*
X90707782Y-105500280D01*
X90586975Y-105726294D01*
X90544624Y-105777899D01*
X90424397Y-105924397D01*
X90277899Y-106044624D01*
X90226294Y-106086975D01*
X90000280Y-106207782D01*
X89755040Y-106282175D01*
X89659473Y-106291587D01*
X89563906Y-106301000D01*
X88436094Y-106301000D01*
X88340527Y-106291587D01*
X88244960Y-106282175D01*
X87999720Y-106207782D01*
X87773706Y-106086975D01*
X87722101Y-106044624D01*
X87575603Y-105924397D01*
X87455376Y-105777899D01*
X87413025Y-105726294D01*
X87292218Y-105500280D01*
X87217825Y-105255040D01*
X87192706Y-105000000D01*
X87217825Y-104744960D01*
X87292218Y-104499720D01*
X87413025Y-104273706D01*
X87455376Y-104222101D01*
X87575603Y-104075603D01*
X87722101Y-103955376D01*
X87773706Y-103913025D01*
X87999720Y-103792218D01*
X88244960Y-103717825D01*
X88340527Y-103708413D01*
X88436094Y-103699000D01*
X89563906Y-103699000D01*
X89659473Y-103708413D01*
G37*
G36*
X136659473Y-103210833D02*
G01*
X136755040Y-103220245D01*
X137000280Y-103294638D01*
X137226294Y-103415445D01*
X137277899Y-103457796D01*
X137424397Y-103578023D01*
X137523679Y-103699000D01*
X137586975Y-103776126D01*
X137707782Y-104002140D01*
X137782175Y-104247380D01*
X137807294Y-104502420D01*
X137782175Y-104757460D01*
X137707782Y-105002700D01*
X137586975Y-105228714D01*
X137544624Y-105280319D01*
X137424397Y-105426817D01*
X137277899Y-105547044D01*
X137226294Y-105589395D01*
X137000280Y-105710202D01*
X136755040Y-105784595D01*
X136659472Y-105794008D01*
X136563906Y-105803420D01*
X135436094Y-105803420D01*
X135340528Y-105794008D01*
X135244960Y-105784595D01*
X134999720Y-105710202D01*
X134773706Y-105589395D01*
X134722101Y-105547044D01*
X134575603Y-105426817D01*
X134455376Y-105280319D01*
X134413025Y-105228714D01*
X134292218Y-105002700D01*
X134217825Y-104757460D01*
X134192706Y-104502420D01*
X134217825Y-104247380D01*
X134292218Y-104002140D01*
X134413025Y-103776126D01*
X134476321Y-103699000D01*
X134575603Y-103578023D01*
X134722101Y-103457796D01*
X134773706Y-103415445D01*
X134999720Y-103294638D01*
X135244960Y-103220245D01*
X135340527Y-103210833D01*
X135436094Y-103201420D01*
X136563906Y-103201420D01*
X136659473Y-103210833D01*
G37*
G36*
X127101000Y-103201000D02*
G01*
X123499000Y-103201000D01*
X123499000Y-100799000D01*
X127101000Y-100799000D01*
X127101000Y-103201000D01*
G37*
G36*
X132501000Y-103201000D02*
G01*
X128899000Y-103201000D01*
X128899000Y-100799000D01*
X132501000Y-100799000D01*
X132501000Y-103201000D01*
G37*
G36*
X89659473Y-100208413D02*
G01*
X89755040Y-100217825D01*
X90000280Y-100292218D01*
X90226294Y-100413025D01*
X90277899Y-100455376D01*
X90424397Y-100575603D01*
X90544624Y-100722101D01*
X90586975Y-100773706D01*
X90707782Y-100999720D01*
X90782175Y-101244960D01*
X90807294Y-101500000D01*
X90782175Y-101755040D01*
X90707782Y-102000280D01*
X90586975Y-102226294D01*
X90544624Y-102277899D01*
X90424397Y-102424397D01*
X90277899Y-102544624D01*
X90226294Y-102586975D01*
X90000280Y-102707782D01*
X89755040Y-102782175D01*
X89659473Y-102791587D01*
X89563906Y-102801000D01*
X88436094Y-102801000D01*
X88340527Y-102791587D01*
X88244960Y-102782175D01*
X87999720Y-102707782D01*
X87773706Y-102586975D01*
X87722101Y-102544624D01*
X87575603Y-102424397D01*
X87455376Y-102277899D01*
X87413025Y-102226294D01*
X87292218Y-102000280D01*
X87217825Y-101755040D01*
X87192706Y-101500000D01*
X87217825Y-101244960D01*
X87292218Y-100999720D01*
X87413025Y-100773706D01*
X87455376Y-100722101D01*
X87575603Y-100575603D01*
X87722101Y-100455376D01*
X87773706Y-100413025D01*
X87999720Y-100292218D01*
X88244960Y-100217825D01*
X88340527Y-100208413D01*
X88436094Y-100199000D01*
X89563906Y-100199000D01*
X89659473Y-100208413D01*
G37*
G36*
X136659472Y-99710712D02*
G01*
X136755040Y-99720125D01*
X137000280Y-99794518D01*
X137226294Y-99915325D01*
X137277899Y-99957676D01*
X137424397Y-100077903D01*
X137539227Y-100217825D01*
X137586975Y-100276006D01*
X137707782Y-100502020D01*
X137782175Y-100747260D01*
X137807294Y-101002300D01*
X137782175Y-101257340D01*
X137707782Y-101502580D01*
X137586975Y-101728594D01*
X137565272Y-101755039D01*
X137424397Y-101926697D01*
X137277899Y-102046924D01*
X137226294Y-102089275D01*
X137000280Y-102210082D01*
X136755040Y-102284475D01*
X136659473Y-102293887D01*
X136563906Y-102303300D01*
X135436094Y-102303300D01*
X135340528Y-102293888D01*
X135244960Y-102284475D01*
X134999720Y-102210082D01*
X134773706Y-102089275D01*
X134722101Y-102046924D01*
X134575603Y-101926697D01*
X134434728Y-101755039D01*
X134413025Y-101728594D01*
X134292218Y-101502580D01*
X134217825Y-101257340D01*
X134192706Y-101002300D01*
X134217825Y-100747260D01*
X134292218Y-100502020D01*
X134413025Y-100276006D01*
X134460773Y-100217825D01*
X134575603Y-100077903D01*
X134722101Y-99957676D01*
X134773706Y-99915325D01*
X134999720Y-99794518D01*
X135244960Y-99720125D01*
X135340528Y-99710712D01*
X135436094Y-99701300D01*
X136563906Y-99701300D01*
X136659472Y-99710712D01*
G37*
G36*
X89659473Y-96708413D02*
G01*
X89755040Y-96717825D01*
X90000280Y-96792218D01*
X90226294Y-96913025D01*
X90277899Y-96955376D01*
X90424397Y-97075603D01*
X90544624Y-97222101D01*
X90586975Y-97273706D01*
X90707782Y-97499720D01*
X90782175Y-97744960D01*
X90807294Y-98000000D01*
X90782175Y-98255040D01*
X90707782Y-98500280D01*
X90586975Y-98726294D01*
X90544624Y-98777899D01*
X90424397Y-98924397D01*
X90277899Y-99044624D01*
X90226294Y-99086975D01*
X90000280Y-99207782D01*
X89755040Y-99282175D01*
X89659473Y-99291587D01*
X89563906Y-99301000D01*
X88436094Y-99301000D01*
X88340527Y-99291587D01*
X88244960Y-99282175D01*
X87999720Y-99207782D01*
X87773706Y-99086975D01*
X87722101Y-99044624D01*
X87575603Y-98924397D01*
X87455376Y-98777899D01*
X87413025Y-98726294D01*
X87292218Y-98500280D01*
X87217825Y-98255040D01*
X87192706Y-98000000D01*
X87217825Y-97744960D01*
X87292218Y-97499720D01*
X87413025Y-97273706D01*
X87455376Y-97222101D01*
X87575603Y-97075603D01*
X87722101Y-96955376D01*
X87773706Y-96913025D01*
X87999720Y-96792218D01*
X88244960Y-96717825D01*
X88340527Y-96708413D01*
X88436094Y-96699000D01*
X89563906Y-96699000D01*
X89659473Y-96708413D01*
G37*
G36*
X136659473Y-96210593D02*
G01*
X136755040Y-96220005D01*
X137000280Y-96294398D01*
X137226294Y-96415205D01*
X137277899Y-96457556D01*
X137424397Y-96577783D01*
X137523876Y-96699000D01*
X137586975Y-96775886D01*
X137707782Y-97001900D01*
X137782175Y-97247140D01*
X137807294Y-97502180D01*
X137782175Y-97757220D01*
X137707782Y-98002460D01*
X137586975Y-98228474D01*
X137544624Y-98280079D01*
X137424397Y-98426577D01*
X137277899Y-98546804D01*
X137226294Y-98589155D01*
X137000280Y-98709962D01*
X136755040Y-98784355D01*
X136659472Y-98793768D01*
X136563906Y-98803180D01*
X135436094Y-98803180D01*
X135340528Y-98793768D01*
X135244960Y-98784355D01*
X134999720Y-98709962D01*
X134773706Y-98589155D01*
X134722101Y-98546804D01*
X134575603Y-98426577D01*
X134455376Y-98280079D01*
X134413025Y-98228474D01*
X134292218Y-98002460D01*
X134217825Y-97757220D01*
X134192706Y-97502180D01*
X134217825Y-97247140D01*
X134292218Y-97001900D01*
X134413025Y-96775886D01*
X134476124Y-96699000D01*
X134575603Y-96577783D01*
X134722101Y-96457556D01*
X134773706Y-96415205D01*
X134999720Y-96294398D01*
X135244960Y-96220005D01*
X135340528Y-96210592D01*
X135436094Y-96201180D01*
X136563906Y-96201180D01*
X136659473Y-96210593D01*
G37*
G36*
X132501000Y-96201000D02*
G01*
X128899000Y-96201000D01*
X128899000Y-93799000D01*
X132501000Y-93799000D01*
X132501000Y-96201000D01*
G37*
G36*
X127101000Y-96201000D02*
G01*
X123499000Y-96201000D01*
X123499000Y-93799000D01*
X127101000Y-93799000D01*
X127101000Y-96201000D01*
G37*
G36*
X89659472Y-93206232D02*
G01*
X89755040Y-93215645D01*
X90000280Y-93290038D01*
X90226294Y-93410845D01*
X90277899Y-93453196D01*
X90424397Y-93573423D01*
X90544624Y-93719921D01*
X90586975Y-93771526D01*
X90707782Y-93997540D01*
X90782175Y-94242780D01*
X90807294Y-94497820D01*
X90782175Y-94752860D01*
X90707782Y-94998100D01*
X90586975Y-95224114D01*
X90544624Y-95275719D01*
X90424397Y-95422217D01*
X90277899Y-95542444D01*
X90226294Y-95584795D01*
X90000280Y-95705602D01*
X89755040Y-95779995D01*
X89659472Y-95789408D01*
X89563906Y-95798820D01*
X88436094Y-95798820D01*
X88340528Y-95789408D01*
X88244960Y-95779995D01*
X87999720Y-95705602D01*
X87773706Y-95584795D01*
X87722101Y-95542444D01*
X87575603Y-95422217D01*
X87455376Y-95275719D01*
X87413025Y-95224114D01*
X87292218Y-94998100D01*
X87217825Y-94752860D01*
X87192706Y-94497820D01*
X87217825Y-94242780D01*
X87292218Y-93997540D01*
X87413025Y-93771526D01*
X87455376Y-93719921D01*
X87575603Y-93573423D01*
X87722101Y-93453196D01*
X87773706Y-93410845D01*
X87999720Y-93290038D01*
X88244960Y-93215645D01*
X88340528Y-93206232D01*
X88436094Y-93196820D01*
X89563906Y-93196820D01*
X89659472Y-93206232D01*
G37*
G36*
X136659472Y-92708412D02*
G01*
X136755040Y-92717825D01*
X137000280Y-92792218D01*
X137226294Y-92913025D01*
X137277899Y-92955376D01*
X137424397Y-93075603D01*
X137523876Y-93196820D01*
X137586975Y-93273706D01*
X137707782Y-93499720D01*
X137782175Y-93744960D01*
X137807294Y-94000000D01*
X137782175Y-94255040D01*
X137707782Y-94500280D01*
X137586975Y-94726294D01*
X137544624Y-94777899D01*
X137424397Y-94924397D01*
X137277899Y-95044624D01*
X137226294Y-95086975D01*
X137000280Y-95207782D01*
X136755040Y-95282175D01*
X136659472Y-95291588D01*
X136563906Y-95301000D01*
X135436094Y-95301000D01*
X135340528Y-95291588D01*
X135244960Y-95282175D01*
X134999720Y-95207782D01*
X134773706Y-95086975D01*
X134722101Y-95044624D01*
X134575603Y-94924397D01*
X134455376Y-94777899D01*
X134413025Y-94726294D01*
X134292218Y-94500280D01*
X134217825Y-94255040D01*
X134192706Y-94000000D01*
X134217825Y-93744960D01*
X134292218Y-93499720D01*
X134413025Y-93273706D01*
X134476124Y-93196820D01*
X134575603Y-93075603D01*
X134722101Y-92955376D01*
X134773706Y-92913025D01*
X134999720Y-92792218D01*
X135244960Y-92717825D01*
X135340527Y-92708413D01*
X135436094Y-92699000D01*
X136563906Y-92699000D01*
X136659472Y-92708412D01*
G37*
G36*
X89659473Y-89706113D02*
G01*
X89755040Y-89715525D01*
X90000280Y-89789918D01*
X90226294Y-89910725D01*
X90277899Y-89953076D01*
X90424397Y-90073303D01*
X90544624Y-90219801D01*
X90586975Y-90271406D01*
X90707782Y-90497420D01*
X90782175Y-90742660D01*
X90807294Y-90997700D01*
X90782175Y-91252740D01*
X90707782Y-91497980D01*
X90586975Y-91723994D01*
X90544624Y-91775599D01*
X90424397Y-91922097D01*
X90277899Y-92042324D01*
X90226294Y-92084675D01*
X90000280Y-92205482D01*
X89755040Y-92279875D01*
X89659473Y-92289287D01*
X89563906Y-92298700D01*
X88436094Y-92298700D01*
X88340527Y-92289287D01*
X88244960Y-92279875D01*
X87999720Y-92205482D01*
X87773706Y-92084675D01*
X87722101Y-92042324D01*
X87575603Y-91922097D01*
X87455376Y-91775599D01*
X87413025Y-91723994D01*
X87292218Y-91497980D01*
X87217825Y-91252740D01*
X87192706Y-90997700D01*
X87217825Y-90742660D01*
X87292218Y-90497420D01*
X87413025Y-90271406D01*
X87455376Y-90219801D01*
X87575603Y-90073303D01*
X87722101Y-89953076D01*
X87773706Y-89910725D01*
X87999720Y-89789918D01*
X88244960Y-89715525D01*
X88340527Y-89706113D01*
X88436094Y-89696700D01*
X89563906Y-89696700D01*
X89659473Y-89706113D01*
G37*
G36*
X142751000Y-92201000D02*
G01*
X139049000Y-92201000D01*
X139049000Y-90599000D01*
X142751000Y-90599000D01*
X142751000Y-92201000D01*
G37*
G36*
X136584212Y-89201000D02*
G01*
X136755040Y-89217825D01*
X137000280Y-89292218D01*
X137226294Y-89413025D01*
X137277899Y-89455376D01*
X137424397Y-89575603D01*
X137539227Y-89715525D01*
X137586975Y-89773706D01*
X137707782Y-89999720D01*
X137782175Y-90244960D01*
X137807294Y-90500000D01*
X137782175Y-90755040D01*
X137707782Y-91000280D01*
X137586975Y-91226294D01*
X137565272Y-91252739D01*
X137424397Y-91424397D01*
X137277899Y-91544624D01*
X137226294Y-91586975D01*
X137000280Y-91707782D01*
X136755040Y-91782175D01*
X136659472Y-91791588D01*
X136563906Y-91801000D01*
X135436094Y-91801000D01*
X135340528Y-91791588D01*
X135244960Y-91782175D01*
X134999720Y-91707782D01*
X134773706Y-91586975D01*
X134722101Y-91544624D01*
X134575603Y-91424397D01*
X134434728Y-91252739D01*
X134413025Y-91226294D01*
X134292218Y-91000280D01*
X134217825Y-90755040D01*
X134192706Y-90500000D01*
X134217825Y-90244960D01*
X134292218Y-89999720D01*
X134413025Y-89773706D01*
X134460773Y-89715525D01*
X134575603Y-89575603D01*
X134722101Y-89455376D01*
X134773706Y-89413025D01*
X134999720Y-89292218D01*
X135244960Y-89217825D01*
X135415788Y-89201000D01*
X135436094Y-89199000D01*
X136563906Y-89199000D01*
X136584212Y-89201000D01*
G37*
G36*
X142751000Y-89501000D02*
G01*
X139049000Y-89501000D01*
X139049000Y-87899000D01*
X142751000Y-87899000D01*
X142751000Y-89501000D01*
G37*
G36*
X132501000Y-89201000D02*
G01*
X128899000Y-89201000D01*
X128899000Y-86799000D01*
X132501000Y-86799000D01*
X132501000Y-89201000D01*
G37*
G36*
X127101000Y-89201000D02*
G01*
X123499000Y-89201000D01*
X123499000Y-86799000D01*
X127101000Y-86799000D01*
X127101000Y-89201000D01*
G37*
G36*
X89659473Y-86205993D02*
G01*
X89755040Y-86215405D01*
X90000280Y-86289798D01*
X90226294Y-86410605D01*
X90277899Y-86452956D01*
X90424397Y-86573183D01*
X90544624Y-86719681D01*
X90586975Y-86771286D01*
X90707782Y-86997300D01*
X90782175Y-87242540D01*
X90807294Y-87497580D01*
X90782175Y-87752620D01*
X90707782Y-87997860D01*
X90586975Y-88223874D01*
X90544624Y-88275479D01*
X90424397Y-88421977D01*
X90277899Y-88542204D01*
X90226294Y-88584555D01*
X90000280Y-88705362D01*
X89755040Y-88779755D01*
X89659472Y-88789168D01*
X89563906Y-88798580D01*
X88436094Y-88798580D01*
X88340528Y-88789168D01*
X88244960Y-88779755D01*
X87999720Y-88705362D01*
X87773706Y-88584555D01*
X87722101Y-88542204D01*
X87575603Y-88421977D01*
X87455376Y-88275479D01*
X87413025Y-88223874D01*
X87292218Y-87997860D01*
X87217825Y-87752620D01*
X87192706Y-87497580D01*
X87217825Y-87242540D01*
X87292218Y-86997300D01*
X87413025Y-86771286D01*
X87455376Y-86719681D01*
X87575603Y-86573183D01*
X87722101Y-86452956D01*
X87773706Y-86410605D01*
X87999720Y-86289798D01*
X88244960Y-86215405D01*
X88340527Y-86205993D01*
X88436094Y-86196580D01*
X89563906Y-86196580D01*
X89659473Y-86205993D01*
G37*
G36*
X136659472Y-85708412D02*
G01*
X136755040Y-85717825D01*
X137000280Y-85792218D01*
X137226294Y-85913025D01*
X137277899Y-85955376D01*
X137424397Y-86075603D01*
X137523679Y-86196580D01*
X137586975Y-86273706D01*
X137707782Y-86499720D01*
X137782175Y-86744960D01*
X137807294Y-87000000D01*
X137782175Y-87255040D01*
X137707782Y-87500280D01*
X137586975Y-87726294D01*
X137544624Y-87777899D01*
X137424397Y-87924397D01*
X137277899Y-88044624D01*
X137226294Y-88086975D01*
X137000280Y-88207782D01*
X136755040Y-88282175D01*
X136659472Y-88291588D01*
X136563906Y-88301000D01*
X135436094Y-88301000D01*
X135340528Y-88291588D01*
X135244960Y-88282175D01*
X134999720Y-88207782D01*
X134773706Y-88086975D01*
X134722101Y-88044624D01*
X134575603Y-87924397D01*
X134455376Y-87777899D01*
X134413025Y-87726294D01*
X134292218Y-87500280D01*
X134217825Y-87255040D01*
X134192706Y-87000000D01*
X134217825Y-86744960D01*
X134292218Y-86499720D01*
X134413025Y-86273706D01*
X134476321Y-86196580D01*
X134575603Y-86075603D01*
X134722101Y-85955376D01*
X134773706Y-85913025D01*
X134999720Y-85792218D01*
X135244960Y-85717825D01*
X135340528Y-85708412D01*
X135436094Y-85699000D01*
X136563906Y-85699000D01*
X136659472Y-85708412D01*
G37*
G36*
X142751000Y-86801000D02*
G01*
X139049000Y-86801000D01*
X139049000Y-85199000D01*
X142751000Y-85199000D01*
X142751000Y-86801000D01*
G37*
G36*
X89659473Y-82708413D02*
G01*
X89755040Y-82717825D01*
X90000280Y-82792218D01*
X90226294Y-82913025D01*
X90277899Y-82955376D01*
X90424397Y-83075603D01*
X90544624Y-83222101D01*
X90586975Y-83273706D01*
X90707782Y-83499720D01*
X90782175Y-83744960D01*
X90807294Y-84000000D01*
X90782175Y-84255040D01*
X90707782Y-84500280D01*
X90586975Y-84726294D01*
X90544624Y-84777899D01*
X90424397Y-84924397D01*
X90277899Y-85044624D01*
X90226294Y-85086975D01*
X90000280Y-85207782D01*
X89755040Y-85282175D01*
X89659472Y-85291588D01*
X89563906Y-85301000D01*
X88436094Y-85301000D01*
X88340528Y-85291588D01*
X88244960Y-85282175D01*
X87999720Y-85207782D01*
X87773706Y-85086975D01*
X87722101Y-85044624D01*
X87575603Y-84924397D01*
X87455376Y-84777899D01*
X87413025Y-84726294D01*
X87292218Y-84500280D01*
X87217825Y-84255040D01*
X87192706Y-84000000D01*
X87217825Y-83744960D01*
X87292218Y-83499720D01*
X87413025Y-83273706D01*
X87455376Y-83222101D01*
X87575603Y-83075603D01*
X87722101Y-82955376D01*
X87773706Y-82913025D01*
X87999720Y-82792218D01*
X88244960Y-82717825D01*
X88340527Y-82708413D01*
X88436094Y-82699000D01*
X89563906Y-82699000D01*
X89659473Y-82708413D01*
G37*
G36*
X136659472Y-82208412D02*
G01*
X136755040Y-82217825D01*
X137000280Y-82292218D01*
X137226294Y-82413025D01*
X137277899Y-82455376D01*
X137424397Y-82575603D01*
X137525665Y-82699000D01*
X137586975Y-82773706D01*
X137707782Y-82999720D01*
X137782175Y-83244960D01*
X137807294Y-83500000D01*
X137782175Y-83755040D01*
X137707782Y-84000280D01*
X137586975Y-84226294D01*
X137544624Y-84277899D01*
X137424397Y-84424397D01*
X137277899Y-84544624D01*
X137226294Y-84586975D01*
X137000280Y-84707782D01*
X136755040Y-84782175D01*
X136659472Y-84791588D01*
X136563906Y-84801000D01*
X135436094Y-84801000D01*
X135340528Y-84791588D01*
X135244960Y-84782175D01*
X134999720Y-84707782D01*
X134773706Y-84586975D01*
X134722101Y-84544624D01*
X134575603Y-84424397D01*
X134455376Y-84277899D01*
X134413025Y-84226294D01*
X134292218Y-84000280D01*
X134217825Y-83755040D01*
X134192706Y-83500000D01*
X134217825Y-83244960D01*
X134292218Y-82999720D01*
X134413025Y-82773706D01*
X134474335Y-82699000D01*
X134575603Y-82575603D01*
X134722101Y-82455376D01*
X134773706Y-82413025D01*
X134999720Y-82292218D01*
X135244960Y-82217825D01*
X135340528Y-82208412D01*
X135436094Y-82199000D01*
X136563906Y-82199000D01*
X136659472Y-82208412D01*
G37*
G36*
X142751000Y-84101000D02*
G01*
X139049000Y-84101000D01*
X139049000Y-82499000D01*
X142751000Y-82499000D01*
X142751000Y-84101000D01*
G37*
G36*
X122364499Y-79203445D02*
G01*
X122401995Y-79214820D01*
X122436554Y-79233292D01*
X122466847Y-79258153D01*
X122491708Y-79288446D01*
X122510180Y-79323005D01*
X122521555Y-79360501D01*
X122526000Y-79405638D01*
X122526000Y-80144362D01*
X122521555Y-80189499D01*
X122510180Y-80226995D01*
X122491708Y-80261554D01*
X122466847Y-80291847D01*
X122436554Y-80316708D01*
X122401995Y-80335180D01*
X122364499Y-80346555D01*
X122319362Y-80351000D01*
X121680638Y-80351000D01*
X121635501Y-80346555D01*
X121598005Y-80335180D01*
X121563446Y-80316708D01*
X121533153Y-80291847D01*
X121508292Y-80261554D01*
X121489820Y-80226995D01*
X121478445Y-80189499D01*
X121474000Y-80144362D01*
X121474000Y-79405638D01*
X121478445Y-79360501D01*
X121489820Y-79323005D01*
X121508292Y-79288446D01*
X121533153Y-79258153D01*
X121563446Y-79233292D01*
X121598005Y-79214820D01*
X121635501Y-79203445D01*
X121680638Y-79199000D01*
X122319362Y-79199000D01*
X122364499Y-79203445D01*
G37*
G36*
X122364499Y-77453445D02*
G01*
X122401995Y-77464820D01*
X122436554Y-77483292D01*
X122466847Y-77508153D01*
X122491708Y-77538446D01*
X122510180Y-77573005D01*
X122521555Y-77610501D01*
X122526000Y-77655638D01*
X122526000Y-78394362D01*
X122521555Y-78439499D01*
X122510180Y-78476995D01*
X122491708Y-78511554D01*
X122466847Y-78541847D01*
X122436554Y-78566708D01*
X122401995Y-78585180D01*
X122364499Y-78596555D01*
X122319362Y-78601000D01*
X121680638Y-78601000D01*
X121635501Y-78596555D01*
X121598005Y-78585180D01*
X121563446Y-78566708D01*
X121533153Y-78541847D01*
X121508292Y-78511554D01*
X121489820Y-78476995D01*
X121478445Y-78439499D01*
X121474000Y-78394362D01*
X121474000Y-77655638D01*
X121478445Y-77610501D01*
X121489820Y-77573005D01*
X121508292Y-77538446D01*
X121533153Y-77508153D01*
X121563446Y-77483292D01*
X121598005Y-77464820D01*
X121635501Y-77453445D01*
X121680638Y-77449000D01*
X122319362Y-77449000D01*
X122364499Y-77453445D01*
G37*
G36*
X112222325Y-76537090D02*
G01*
X112361038Y-76594547D01*
X112485872Y-76677958D01*
X112592042Y-76784128D01*
X112675453Y-76908962D01*
X112732910Y-77047675D01*
X112762200Y-77194929D01*
X112762200Y-77345071D01*
X112732910Y-77492325D01*
X112675453Y-77631038D01*
X112592042Y-77755872D01*
X112485872Y-77862042D01*
X112361038Y-77945453D01*
X112222325Y-78002910D01*
X112075071Y-78032200D01*
X111924929Y-78032200D01*
X111777675Y-78002910D01*
X111638962Y-77945453D01*
X111514128Y-77862042D01*
X111407958Y-77755872D01*
X111324547Y-77631038D01*
X111267090Y-77492325D01*
X111237800Y-77345071D01*
X111237800Y-77194929D01*
X111267090Y-77047675D01*
X111324547Y-76908962D01*
X111407958Y-76784128D01*
X111514128Y-76677958D01*
X111638962Y-76594547D01*
X111777675Y-76537090D01*
X111924929Y-76507800D01*
X112075071Y-76507800D01*
X112222325Y-76537090D01*
G37*
G36*
X87682325Y-76537090D02*
G01*
X87821038Y-76594547D01*
X87945872Y-76677958D01*
X88052042Y-76784128D01*
X88135453Y-76908962D01*
X88192910Y-77047675D01*
X88222200Y-77194929D01*
X88222200Y-77345071D01*
X88192910Y-77492325D01*
X88135453Y-77631038D01*
X88052042Y-77755872D01*
X87945872Y-77862042D01*
X87821038Y-77945453D01*
X87682325Y-78002910D01*
X87535071Y-78032200D01*
X87384929Y-78032200D01*
X87237675Y-78002910D01*
X87098962Y-77945453D01*
X86974128Y-77862042D01*
X86867958Y-77755872D01*
X86784547Y-77631038D01*
X86727090Y-77492325D01*
X86697800Y-77345071D01*
X86697800Y-77194929D01*
X86727090Y-77047675D01*
X86784547Y-76908962D01*
X86867958Y-76784128D01*
X86974128Y-76677958D01*
X87098962Y-76594547D01*
X87237675Y-76537090D01*
X87384929Y-76507800D01*
X87535071Y-76507800D01*
X87682325Y-76537090D01*
G37*
G36*
X90222325Y-76537090D02*
G01*
X90361038Y-76594547D01*
X90485872Y-76677958D01*
X90592042Y-76784128D01*
X90675453Y-76908962D01*
X90732910Y-77047675D01*
X90762200Y-77194929D01*
X90762200Y-77345071D01*
X90732910Y-77492325D01*
X90675453Y-77631038D01*
X90592042Y-77755872D01*
X90485872Y-77862042D01*
X90361038Y-77945453D01*
X90222325Y-78002910D01*
X90075071Y-78032200D01*
X89924929Y-78032200D01*
X89777675Y-78002910D01*
X89638962Y-77945453D01*
X89514128Y-77862042D01*
X89407958Y-77755872D01*
X89324547Y-77631038D01*
X89267090Y-77492325D01*
X89237800Y-77345071D01*
X89237800Y-77194929D01*
X89267090Y-77047675D01*
X89324547Y-76908962D01*
X89407958Y-76784128D01*
X89514128Y-76677958D01*
X89638962Y-76594547D01*
X89777675Y-76537090D01*
X89924929Y-76507800D01*
X90075071Y-76507800D01*
X90222325Y-76537090D01*
G37*
G36*
X107142325Y-76537090D02*
G01*
X107281038Y-76594547D01*
X107405872Y-76677958D01*
X107512042Y-76784128D01*
X107595453Y-76908962D01*
X107652910Y-77047675D01*
X107682200Y-77194929D01*
X107682200Y-77345071D01*
X107652910Y-77492325D01*
X107595453Y-77631038D01*
X107512042Y-77755872D01*
X107405872Y-77862042D01*
X107281038Y-77945453D01*
X107142325Y-78002910D01*
X106995071Y-78032200D01*
X106844929Y-78032200D01*
X106697675Y-78002910D01*
X106558962Y-77945453D01*
X106434128Y-77862042D01*
X106327958Y-77755872D01*
X106244547Y-77631038D01*
X106187090Y-77492325D01*
X106157800Y-77345071D01*
X106157800Y-77194929D01*
X106187090Y-77047675D01*
X106244547Y-76908962D01*
X106327958Y-76784128D01*
X106434128Y-76677958D01*
X106558962Y-76594547D01*
X106697675Y-76537090D01*
X106844929Y-76507800D01*
X106995071Y-76507800D01*
X107142325Y-76537090D01*
G37*
G36*
X92762325Y-76537090D02*
G01*
X92901038Y-76594547D01*
X93025872Y-76677958D01*
X93132042Y-76784128D01*
X93215453Y-76908962D01*
X93272910Y-77047675D01*
X93302200Y-77194929D01*
X93302200Y-77345071D01*
X93272910Y-77492325D01*
X93215453Y-77631038D01*
X93132042Y-77755872D01*
X93025872Y-77862042D01*
X92901038Y-77945453D01*
X92762325Y-78002910D01*
X92615071Y-78032200D01*
X92464929Y-78032200D01*
X92317675Y-78002910D01*
X92178962Y-77945453D01*
X92054128Y-77862042D01*
X91947958Y-77755872D01*
X91864547Y-77631038D01*
X91807090Y-77492325D01*
X91777800Y-77345071D01*
X91777800Y-77194929D01*
X91807090Y-77047675D01*
X91864547Y-76908962D01*
X91947958Y-76784128D01*
X92054128Y-76677958D01*
X92178962Y-76594547D01*
X92317675Y-76537090D01*
X92464929Y-76507800D01*
X92615071Y-76507800D01*
X92762325Y-76537090D01*
G37*
G36*
X109682325Y-76537090D02*
G01*
X109821038Y-76594547D01*
X109945872Y-76677958D01*
X110052042Y-76784128D01*
X110135453Y-76908962D01*
X110192910Y-77047675D01*
X110222200Y-77194929D01*
X110222200Y-77345071D01*
X110192910Y-77492325D01*
X110135453Y-77631038D01*
X110052042Y-77755872D01*
X109945872Y-77862042D01*
X109821038Y-77945453D01*
X109682325Y-78002910D01*
X109535071Y-78032200D01*
X109384929Y-78032200D01*
X109237675Y-78002910D01*
X109098962Y-77945453D01*
X108974128Y-77862042D01*
X108867958Y-77755872D01*
X108784547Y-77631038D01*
X108727090Y-77492325D01*
X108697800Y-77345071D01*
X108697800Y-77194929D01*
X108727090Y-77047675D01*
X108784547Y-76908962D01*
X108867958Y-76784128D01*
X108974128Y-76677958D01*
X109098962Y-76594547D01*
X109237675Y-76537090D01*
X109384929Y-76507800D01*
X109535071Y-76507800D01*
X109682325Y-76537090D01*
G37*
G36*
X117302325Y-76537090D02*
G01*
X117441038Y-76594547D01*
X117565872Y-76677958D01*
X117672042Y-76784128D01*
X117755453Y-76908962D01*
X117812910Y-77047675D01*
X117842200Y-77194929D01*
X117842200Y-77345071D01*
X117812910Y-77492325D01*
X117755453Y-77631038D01*
X117672042Y-77755872D01*
X117565872Y-77862042D01*
X117441038Y-77945453D01*
X117302325Y-78002910D01*
X117155071Y-78032200D01*
X117004929Y-78032200D01*
X116857675Y-78002910D01*
X116718962Y-77945453D01*
X116594128Y-77862042D01*
X116487958Y-77755872D01*
X116404547Y-77631038D01*
X116347090Y-77492325D01*
X116317800Y-77345071D01*
X116317800Y-77194929D01*
X116347090Y-77047675D01*
X116404547Y-76908962D01*
X116487958Y-76784128D01*
X116594128Y-76677958D01*
X116718962Y-76594547D01*
X116857675Y-76537090D01*
X117004929Y-76507800D01*
X117155071Y-76507800D01*
X117302325Y-76537090D01*
G37*
G36*
X95302325Y-76537090D02*
G01*
X95441038Y-76594547D01*
X95565872Y-76677958D01*
X95672042Y-76784128D01*
X95755453Y-76908962D01*
X95812910Y-77047675D01*
X95842200Y-77194929D01*
X95842200Y-77345071D01*
X95812910Y-77492325D01*
X95755453Y-77631038D01*
X95672042Y-77755872D01*
X95565872Y-77862042D01*
X95441038Y-77945453D01*
X95302325Y-78002910D01*
X95155071Y-78032200D01*
X95004929Y-78032200D01*
X94857675Y-78002910D01*
X94718962Y-77945453D01*
X94594128Y-77862042D01*
X94487958Y-77755872D01*
X94404547Y-77631038D01*
X94347090Y-77492325D01*
X94317800Y-77345071D01*
X94317800Y-77194929D01*
X94347090Y-77047675D01*
X94404547Y-76908962D01*
X94487958Y-76784128D01*
X94594128Y-76677958D01*
X94718962Y-76594547D01*
X94857675Y-76537090D01*
X95004929Y-76507800D01*
X95155071Y-76507800D01*
X95302325Y-76537090D01*
G37*
G36*
X114762325Y-76537090D02*
G01*
X114901038Y-76594547D01*
X115025872Y-76677958D01*
X115132042Y-76784128D01*
X115215453Y-76908962D01*
X115272910Y-77047675D01*
X115302200Y-77194929D01*
X115302200Y-77345071D01*
X115272910Y-77492325D01*
X115215453Y-77631038D01*
X115132042Y-77755872D01*
X115025872Y-77862042D01*
X114901038Y-77945453D01*
X114762325Y-78002910D01*
X114615071Y-78032200D01*
X114464929Y-78032200D01*
X114317675Y-78002910D01*
X114178962Y-77945453D01*
X114054128Y-77862042D01*
X113947958Y-77755872D01*
X113864547Y-77631038D01*
X113807090Y-77492325D01*
X113777800Y-77345071D01*
X113777800Y-77194929D01*
X113807090Y-77047675D01*
X113864547Y-76908962D01*
X113947958Y-76784128D01*
X114054128Y-76677958D01*
X114178962Y-76594547D01*
X114317675Y-76537090D01*
X114464929Y-76507800D01*
X114615071Y-76507800D01*
X114762325Y-76537090D01*
G37*
G36*
X85142325Y-76537090D02*
G01*
X85281038Y-76594547D01*
X85405872Y-76677958D01*
X85512042Y-76784128D01*
X85595453Y-76908962D01*
X85652910Y-77047675D01*
X85682200Y-77194929D01*
X85682200Y-77345071D01*
X85652910Y-77492325D01*
X85595453Y-77631038D01*
X85512042Y-77755872D01*
X85405872Y-77862042D01*
X85281038Y-77945453D01*
X85142325Y-78002910D01*
X84995071Y-78032200D01*
X84844929Y-78032200D01*
X84697675Y-78002910D01*
X84558962Y-77945453D01*
X84434128Y-77862042D01*
X84327958Y-77755872D01*
X84244547Y-77631038D01*
X84187090Y-77492325D01*
X84157800Y-77345071D01*
X84157800Y-77194929D01*
X84187090Y-77047675D01*
X84244547Y-76908962D01*
X84327958Y-76784128D01*
X84434128Y-76677958D01*
X84558962Y-76594547D01*
X84697675Y-76537090D01*
X84844929Y-76507800D01*
X84995071Y-76507800D01*
X85142325Y-76537090D01*
G37*
G36*
X117302325Y-73997090D02*
G01*
X117441038Y-74054547D01*
X117565872Y-74137958D01*
X117672042Y-74244128D01*
X117755453Y-74368962D01*
X117812910Y-74507675D01*
X117842200Y-74654929D01*
X117842200Y-74805071D01*
X117812910Y-74952325D01*
X117755453Y-75091038D01*
X117672042Y-75215872D01*
X117565872Y-75322042D01*
X117441038Y-75405453D01*
X117302325Y-75462910D01*
X117155071Y-75492200D01*
X117004929Y-75492200D01*
X116857675Y-75462910D01*
X116718962Y-75405453D01*
X116594128Y-75322042D01*
X116487958Y-75215872D01*
X116404547Y-75091038D01*
X116347090Y-74952325D01*
X116317800Y-74805071D01*
X116317800Y-74654929D01*
X116347090Y-74507675D01*
X116404547Y-74368962D01*
X116487958Y-74244128D01*
X116594128Y-74137958D01*
X116718962Y-74054547D01*
X116857675Y-73997090D01*
X117004929Y-73967800D01*
X117155071Y-73967800D01*
X117302325Y-73997090D01*
G37*
G36*
X109682325Y-73997090D02*
G01*
X109821038Y-74054547D01*
X109945872Y-74137958D01*
X110052042Y-74244128D01*
X110135453Y-74368962D01*
X110192910Y-74507675D01*
X110222200Y-74654929D01*
X110222200Y-74805071D01*
X110192910Y-74952325D01*
X110135453Y-75091038D01*
X110052042Y-75215872D01*
X109945872Y-75322042D01*
X109821038Y-75405453D01*
X109682325Y-75462910D01*
X109535071Y-75492200D01*
X109384929Y-75492200D01*
X109237675Y-75462910D01*
X109098962Y-75405453D01*
X108974128Y-75322042D01*
X108867958Y-75215872D01*
X108784547Y-75091038D01*
X108727090Y-74952325D01*
X108697800Y-74805071D01*
X108697800Y-74654929D01*
X108727090Y-74507675D01*
X108784547Y-74368962D01*
X108867958Y-74244128D01*
X108974128Y-74137958D01*
X109098962Y-74054547D01*
X109237675Y-73997090D01*
X109384929Y-73967800D01*
X109535071Y-73967800D01*
X109682325Y-73997090D01*
G37*
G36*
X112222325Y-73997090D02*
G01*
X112361038Y-74054547D01*
X112485872Y-74137958D01*
X112592042Y-74244128D01*
X112675453Y-74368962D01*
X112732910Y-74507675D01*
X112762200Y-74654929D01*
X112762200Y-74805071D01*
X112732910Y-74952325D01*
X112675453Y-75091038D01*
X112592042Y-75215872D01*
X112485872Y-75322042D01*
X112361038Y-75405453D01*
X112222325Y-75462910D01*
X112075071Y-75492200D01*
X111924929Y-75492200D01*
X111777675Y-75462910D01*
X111638962Y-75405453D01*
X111514128Y-75322042D01*
X111407958Y-75215872D01*
X111324547Y-75091038D01*
X111267090Y-74952325D01*
X111237800Y-74805071D01*
X111237800Y-74654929D01*
X111267090Y-74507675D01*
X111324547Y-74368962D01*
X111407958Y-74244128D01*
X111514128Y-74137958D01*
X111638962Y-74054547D01*
X111777675Y-73997090D01*
X111924929Y-73967800D01*
X112075071Y-73967800D01*
X112222325Y-73997090D01*
G37*
G36*
X114762325Y-73997090D02*
G01*
X114901038Y-74054547D01*
X115025872Y-74137958D01*
X115132042Y-74244128D01*
X115215453Y-74368962D01*
X115272910Y-74507675D01*
X115302200Y-74654929D01*
X115302200Y-74805071D01*
X115272910Y-74952325D01*
X115215453Y-75091038D01*
X115132042Y-75215872D01*
X115025872Y-75322042D01*
X114901038Y-75405453D01*
X114762325Y-75462910D01*
X114615071Y-75492200D01*
X114464929Y-75492200D01*
X114317675Y-75462910D01*
X114178962Y-75405453D01*
X114054128Y-75322042D01*
X113947958Y-75215872D01*
X113864547Y-75091038D01*
X113807090Y-74952325D01*
X113777800Y-74805071D01*
X113777800Y-74654929D01*
X113807090Y-74507675D01*
X113864547Y-74368962D01*
X113947958Y-74244128D01*
X114054128Y-74137958D01*
X114178962Y-74054547D01*
X114317675Y-73997090D01*
X114464929Y-73967800D01*
X114615071Y-73967800D01*
X114762325Y-73997090D01*
G37*
G36*
X107142325Y-73997090D02*
G01*
X107281038Y-74054547D01*
X107405872Y-74137958D01*
X107512042Y-74244128D01*
X107595453Y-74368962D01*
X107652910Y-74507675D01*
X107682200Y-74654929D01*
X107682200Y-74805071D01*
X107652910Y-74952325D01*
X107595453Y-75091038D01*
X107512042Y-75215872D01*
X107405872Y-75322042D01*
X107281038Y-75405453D01*
X107142325Y-75462910D01*
X106995071Y-75492200D01*
X106844929Y-75492200D01*
X106697675Y-75462910D01*
X106558962Y-75405453D01*
X106434128Y-75322042D01*
X106327958Y-75215872D01*
X106244547Y-75091038D01*
X106187090Y-74952325D01*
X106157800Y-74805071D01*
X106157800Y-74654929D01*
X106187090Y-74507675D01*
X106244547Y-74368962D01*
X106327958Y-74244128D01*
X106434128Y-74137958D01*
X106558962Y-74054547D01*
X106697675Y-73997090D01*
X106844929Y-73967800D01*
X106995071Y-73967800D01*
X107142325Y-73997090D01*
G37*
G36*
X92762325Y-73997090D02*
G01*
X92901038Y-74054547D01*
X93025872Y-74137958D01*
X93132042Y-74244128D01*
X93215453Y-74368962D01*
X93272910Y-74507675D01*
X93302200Y-74654929D01*
X93302200Y-74805071D01*
X93272910Y-74952325D01*
X93215453Y-75091038D01*
X93132042Y-75215872D01*
X93025872Y-75322042D01*
X92901038Y-75405453D01*
X92762325Y-75462910D01*
X92615071Y-75492200D01*
X92464929Y-75492200D01*
X92317675Y-75462910D01*
X92178962Y-75405453D01*
X92054128Y-75322042D01*
X91947958Y-75215872D01*
X91864547Y-75091038D01*
X91807090Y-74952325D01*
X91777800Y-74805071D01*
X91777800Y-74654929D01*
X91807090Y-74507675D01*
X91864547Y-74368962D01*
X91947958Y-74244128D01*
X92054128Y-74137958D01*
X92178962Y-74054547D01*
X92317675Y-73997090D01*
X92464929Y-73967800D01*
X92615071Y-73967800D01*
X92762325Y-73997090D01*
G37*
G36*
X85142325Y-73997090D02*
G01*
X85281038Y-74054547D01*
X85405872Y-74137958D01*
X85512042Y-74244128D01*
X85595453Y-74368962D01*
X85652910Y-74507675D01*
X85682200Y-74654929D01*
X85682200Y-74805071D01*
X85652910Y-74952325D01*
X85595453Y-75091038D01*
X85512042Y-75215872D01*
X85405872Y-75322042D01*
X85281038Y-75405453D01*
X85142325Y-75462910D01*
X84995071Y-75492200D01*
X84844929Y-75492200D01*
X84697675Y-75462910D01*
X84558962Y-75405453D01*
X84434128Y-75322042D01*
X84327958Y-75215872D01*
X84244547Y-75091038D01*
X84187090Y-74952325D01*
X84157800Y-74805071D01*
X84157800Y-74654929D01*
X84187090Y-74507675D01*
X84244547Y-74368962D01*
X84327958Y-74244128D01*
X84434128Y-74137958D01*
X84558962Y-74054547D01*
X84697675Y-73997090D01*
X84844929Y-73967800D01*
X84995071Y-73967800D01*
X85142325Y-73997090D01*
G37*
G36*
X87682325Y-73997090D02*
G01*
X87821038Y-74054547D01*
X87945872Y-74137958D01*
X88052042Y-74244128D01*
X88135453Y-74368962D01*
X88192910Y-74507675D01*
X88222200Y-74654929D01*
X88222200Y-74805071D01*
X88192910Y-74952325D01*
X88135453Y-75091038D01*
X88052042Y-75215872D01*
X87945872Y-75322042D01*
X87821038Y-75405453D01*
X87682325Y-75462910D01*
X87535071Y-75492200D01*
X87384929Y-75492200D01*
X87237675Y-75462910D01*
X87098962Y-75405453D01*
X86974128Y-75322042D01*
X86867958Y-75215872D01*
X86784547Y-75091038D01*
X86727090Y-74952325D01*
X86697800Y-74805071D01*
X86697800Y-74654929D01*
X86727090Y-74507675D01*
X86784547Y-74368962D01*
X86867958Y-74244128D01*
X86974128Y-74137958D01*
X87098962Y-74054547D01*
X87237675Y-73997090D01*
X87384929Y-73967800D01*
X87535071Y-73967800D01*
X87682325Y-73997090D01*
G37*
G36*
X90222325Y-73997090D02*
G01*
X90361038Y-74054547D01*
X90485872Y-74137958D01*
X90592042Y-74244128D01*
X90675453Y-74368962D01*
X90732910Y-74507675D01*
X90762200Y-74654929D01*
X90762200Y-74805071D01*
X90732910Y-74952325D01*
X90675453Y-75091038D01*
X90592042Y-75215872D01*
X90485872Y-75322042D01*
X90361038Y-75405453D01*
X90222325Y-75462910D01*
X90075071Y-75492200D01*
X89924929Y-75492200D01*
X89777675Y-75462910D01*
X89638962Y-75405453D01*
X89514128Y-75322042D01*
X89407958Y-75215872D01*
X89324547Y-75091038D01*
X89267090Y-74952325D01*
X89237800Y-74805071D01*
X89237800Y-74654929D01*
X89267090Y-74507675D01*
X89324547Y-74368962D01*
X89407958Y-74244128D01*
X89514128Y-74137958D01*
X89638962Y-74054547D01*
X89777675Y-73997090D01*
X89924929Y-73967800D01*
X90075071Y-73967800D01*
X90222325Y-73997090D01*
G37*
G36*
X95302325Y-73997090D02*
G01*
X95441038Y-74054547D01*
X95565872Y-74137958D01*
X95672042Y-74244128D01*
X95755453Y-74368962D01*
X95812910Y-74507675D01*
X95842200Y-74654929D01*
X95842200Y-74805071D01*
X95812910Y-74952325D01*
X95755453Y-75091038D01*
X95672042Y-75215872D01*
X95565872Y-75322042D01*
X95441038Y-75405453D01*
X95302325Y-75462910D01*
X95155071Y-75492200D01*
X95004929Y-75492200D01*
X94857675Y-75462910D01*
X94718962Y-75405453D01*
X94594128Y-75322042D01*
X94487958Y-75215872D01*
X94404547Y-75091038D01*
X94347090Y-74952325D01*
X94317800Y-74805071D01*
X94317800Y-74654929D01*
X94347090Y-74507675D01*
X94404547Y-74368962D01*
X94487958Y-74244128D01*
X94594128Y-74137958D01*
X94718962Y-74054547D01*
X94857675Y-73997090D01*
X95004929Y-73967800D01*
X95155071Y-73967800D01*
X95302325Y-73997090D01*
G37*
G36*
X101439499Y-72078445D02*
G01*
X101476995Y-72089820D01*
X101511554Y-72108292D01*
X101541847Y-72133153D01*
X101566708Y-72163446D01*
X101585180Y-72198005D01*
X101596555Y-72235501D01*
X101601000Y-72280638D01*
X101601000Y-72919362D01*
X101596555Y-72964499D01*
X101585180Y-73001995D01*
X101566708Y-73036554D01*
X101541847Y-73066847D01*
X101511554Y-73091708D01*
X101476995Y-73110180D01*
X101439499Y-73121555D01*
X101394362Y-73126000D01*
X100655638Y-73126000D01*
X100610501Y-73121555D01*
X100573005Y-73110180D01*
X100538446Y-73091708D01*
X100508153Y-73066847D01*
X100483292Y-73036554D01*
X100464820Y-73001995D01*
X100453445Y-72964499D01*
X100449000Y-72919362D01*
X100449000Y-72280638D01*
X100453445Y-72235501D01*
X100464820Y-72198005D01*
X100483292Y-72163446D01*
X100508153Y-72133153D01*
X100538446Y-72108292D01*
X100573005Y-72089820D01*
X100610501Y-72078445D01*
X100655638Y-72074000D01*
X101394362Y-72074000D01*
X101439499Y-72078445D01*
G37*
G36*
X103189499Y-72078445D02*
G01*
X103226995Y-72089820D01*
X103261554Y-72108292D01*
X103291847Y-72133153D01*
X103316708Y-72163446D01*
X103335180Y-72198005D01*
X103346555Y-72235501D01*
X103351000Y-72280638D01*
X103351000Y-72919362D01*
X103346555Y-72964499D01*
X103335180Y-73001995D01*
X103316708Y-73036554D01*
X103291847Y-73066847D01*
X103261554Y-73091708D01*
X103226995Y-73110180D01*
X103189499Y-73121555D01*
X103144362Y-73126000D01*
X102405638Y-73126000D01*
X102360501Y-73121555D01*
X102323005Y-73110180D01*
X102288446Y-73091708D01*
X102258153Y-73066847D01*
X102233292Y-73036554D01*
X102214820Y-73001995D01*
X102203445Y-72964499D01*
X102199000Y-72919362D01*
X102199000Y-72280638D01*
X102203445Y-72235501D01*
X102214820Y-72198005D01*
X102233292Y-72163446D01*
X102258153Y-72133153D01*
X102288446Y-72108292D01*
X102323005Y-72089820D01*
X102360501Y-72078445D01*
X102405638Y-72074000D01*
X103144362Y-72074000D01*
X103189499Y-72078445D01*
G37*
G36*
X96472396Y-67160547D02*
G01*
X96645467Y-67232235D01*
X96645468Y-67232236D01*
X96801228Y-67336311D01*
X96933691Y-67468774D01*
X96933692Y-67468776D01*
X97037767Y-67624535D01*
X97109455Y-67797606D01*
X97146001Y-67981334D01*
X97146001Y-68168668D01*
X97109455Y-68352396D01*
X97037767Y-68525467D01*
X97037766Y-68525468D01*
X96933691Y-68681228D01*
X96801228Y-68813691D01*
X96722819Y-68866082D01*
X96645467Y-68917767D01*
X96472396Y-68989455D01*
X96288668Y-69026001D01*
X96101334Y-69026001D01*
X95917606Y-68989455D01*
X95744535Y-68917767D01*
X95667183Y-68866082D01*
X95588774Y-68813691D01*
X95456311Y-68681228D01*
X95352236Y-68525468D01*
X95352235Y-68525467D01*
X95280547Y-68352396D01*
X95244001Y-68168668D01*
X95244001Y-67981334D01*
X95280547Y-67797606D01*
X95352235Y-67624535D01*
X95456310Y-67468776D01*
X95456311Y-67468774D01*
X95588774Y-67336311D01*
X95744534Y-67232236D01*
X95744535Y-67232235D01*
X95917606Y-67160547D01*
X96101334Y-67124001D01*
X96288668Y-67124001D01*
X96472396Y-67160547D01*
G37*
G36*
X109172396Y-67160547D02*
G01*
X109345467Y-67232235D01*
X109345468Y-67232236D01*
X109501228Y-67336311D01*
X109633691Y-67468774D01*
X109633692Y-67468776D01*
X109737767Y-67624535D01*
X109809455Y-67797606D01*
X109846001Y-67981334D01*
X109846001Y-68168668D01*
X109809455Y-68352396D01*
X109737767Y-68525467D01*
X109737766Y-68525468D01*
X109633691Y-68681228D01*
X109501228Y-68813691D01*
X109422819Y-68866082D01*
X109345467Y-68917767D01*
X109172396Y-68989455D01*
X108988668Y-69026001D01*
X108801334Y-69026001D01*
X108617606Y-68989455D01*
X108444535Y-68917767D01*
X108367183Y-68866082D01*
X108288774Y-68813691D01*
X108156311Y-68681228D01*
X108052236Y-68525468D01*
X108052235Y-68525467D01*
X107980547Y-68352396D01*
X107944001Y-68168668D01*
X107944001Y-67981334D01*
X107980547Y-67797606D01*
X108052235Y-67624535D01*
X108156310Y-67468776D01*
X108156311Y-67468774D01*
X108288774Y-67336311D01*
X108444534Y-67232236D01*
X108444535Y-67232235D01*
X108617606Y-67160547D01*
X108801334Y-67124001D01*
X108988668Y-67124001D01*
X109172396Y-67160547D01*
G37*
G36*
X99012396Y-67160547D02*
G01*
X99185467Y-67232235D01*
X99185468Y-67232236D01*
X99341228Y-67336311D01*
X99473691Y-67468774D01*
X99473692Y-67468776D01*
X99577767Y-67624535D01*
X99649455Y-67797606D01*
X99686001Y-67981334D01*
X99686001Y-68168668D01*
X99649455Y-68352396D01*
X99577767Y-68525467D01*
X99577766Y-68525468D01*
X99473691Y-68681228D01*
X99341228Y-68813691D01*
X99262819Y-68866082D01*
X99185467Y-68917767D01*
X99012396Y-68989455D01*
X98828668Y-69026001D01*
X98641334Y-69026001D01*
X98457606Y-68989455D01*
X98284535Y-68917767D01*
X98207183Y-68866082D01*
X98128774Y-68813691D01*
X97996311Y-68681228D01*
X97892236Y-68525468D01*
X97892235Y-68525467D01*
X97820547Y-68352396D01*
X97784001Y-68168668D01*
X97784001Y-67981334D01*
X97820547Y-67797606D01*
X97892235Y-67624535D01*
X97996310Y-67468776D01*
X97996311Y-67468774D01*
X98128774Y-67336311D01*
X98284534Y-67232236D01*
X98284535Y-67232235D01*
X98457606Y-67160547D01*
X98641334Y-67124001D01*
X98828668Y-67124001D01*
X99012396Y-67160547D01*
G37*
G36*
X101552396Y-67160547D02*
G01*
X101725467Y-67232235D01*
X101725468Y-67232236D01*
X101881228Y-67336311D01*
X102013691Y-67468774D01*
X102013692Y-67468776D01*
X102117767Y-67624535D01*
X102189455Y-67797606D01*
X102226001Y-67981334D01*
X102226001Y-68168668D01*
X102189455Y-68352396D01*
X102117767Y-68525467D01*
X102117766Y-68525468D01*
X102013691Y-68681228D01*
X101881228Y-68813691D01*
X101802819Y-68866082D01*
X101725467Y-68917767D01*
X101552396Y-68989455D01*
X101368668Y-69026001D01*
X101181334Y-69026001D01*
X100997606Y-68989455D01*
X100824535Y-68917767D01*
X100747183Y-68866082D01*
X100668774Y-68813691D01*
X100536311Y-68681228D01*
X100432236Y-68525468D01*
X100432235Y-68525467D01*
X100360547Y-68352396D01*
X100324001Y-68168668D01*
X100324001Y-67981334D01*
X100360547Y-67797606D01*
X100432235Y-67624535D01*
X100536310Y-67468776D01*
X100536311Y-67468774D01*
X100668774Y-67336311D01*
X100824534Y-67232236D01*
X100824535Y-67232235D01*
X100997606Y-67160547D01*
X101181334Y-67124001D01*
X101368668Y-67124001D01*
X101552396Y-67160547D01*
G37*
G36*
X114252396Y-67160547D02*
G01*
X114425467Y-67232235D01*
X114425468Y-67232236D01*
X114581228Y-67336311D01*
X114713691Y-67468774D01*
X114713692Y-67468776D01*
X114817767Y-67624535D01*
X114889455Y-67797606D01*
X114926001Y-67981334D01*
X114926001Y-68168668D01*
X114889455Y-68352396D01*
X114817767Y-68525467D01*
X114817766Y-68525468D01*
X114713691Y-68681228D01*
X114581228Y-68813691D01*
X114502819Y-68866082D01*
X114425467Y-68917767D01*
X114252396Y-68989455D01*
X114068668Y-69026001D01*
X113881334Y-69026001D01*
X113697606Y-68989455D01*
X113524535Y-68917767D01*
X113447183Y-68866082D01*
X113368774Y-68813691D01*
X113236311Y-68681228D01*
X113132236Y-68525468D01*
X113132235Y-68525467D01*
X113060547Y-68352396D01*
X113024001Y-68168668D01*
X113024001Y-67981334D01*
X113060547Y-67797606D01*
X113132235Y-67624535D01*
X113236310Y-67468776D01*
X113236311Y-67468774D01*
X113368774Y-67336311D01*
X113524534Y-67232236D01*
X113524535Y-67232235D01*
X113697606Y-67160547D01*
X113881334Y-67124001D01*
X114068668Y-67124001D01*
X114252396Y-67160547D01*
G37*
G36*
X119332396Y-67160547D02*
G01*
X119505467Y-67232235D01*
X119505468Y-67232236D01*
X119661228Y-67336311D01*
X119793691Y-67468774D01*
X119793692Y-67468776D01*
X119897767Y-67624535D01*
X119969455Y-67797606D01*
X120006001Y-67981334D01*
X120006001Y-68168668D01*
X119969455Y-68352396D01*
X119897767Y-68525467D01*
X119897766Y-68525468D01*
X119793691Y-68681228D01*
X119661228Y-68813691D01*
X119582819Y-68866082D01*
X119505467Y-68917767D01*
X119332396Y-68989455D01*
X119148668Y-69026001D01*
X118961334Y-69026001D01*
X118777606Y-68989455D01*
X118604535Y-68917767D01*
X118527183Y-68866082D01*
X118448774Y-68813691D01*
X118316311Y-68681228D01*
X118212236Y-68525468D01*
X118212235Y-68525467D01*
X118140547Y-68352396D01*
X118104001Y-68168668D01*
X118104001Y-67981334D01*
X118140547Y-67797606D01*
X118212235Y-67624535D01*
X118316310Y-67468776D01*
X118316311Y-67468774D01*
X118448774Y-67336311D01*
X118604534Y-67232236D01*
X118604535Y-67232235D01*
X118777606Y-67160547D01*
X118961334Y-67124001D01*
X119148668Y-67124001D01*
X119332396Y-67160547D01*
G37*
G36*
X116792396Y-67160547D02*
G01*
X116965467Y-67232235D01*
X116965468Y-67232236D01*
X117121228Y-67336311D01*
X117253691Y-67468774D01*
X117253692Y-67468776D01*
X117357767Y-67624535D01*
X117429455Y-67797606D01*
X117466001Y-67981334D01*
X117466001Y-68168668D01*
X117429455Y-68352396D01*
X117357767Y-68525467D01*
X117357766Y-68525468D01*
X117253691Y-68681228D01*
X117121228Y-68813691D01*
X117042819Y-68866082D01*
X116965467Y-68917767D01*
X116792396Y-68989455D01*
X116608668Y-69026001D01*
X116421334Y-69026001D01*
X116237606Y-68989455D01*
X116064535Y-68917767D01*
X115987183Y-68866082D01*
X115908774Y-68813691D01*
X115776311Y-68681228D01*
X115672236Y-68525468D01*
X115672235Y-68525467D01*
X115600547Y-68352396D01*
X115564001Y-68168668D01*
X115564001Y-67981334D01*
X115600547Y-67797606D01*
X115672235Y-67624535D01*
X115776310Y-67468776D01*
X115776311Y-67468774D01*
X115908774Y-67336311D01*
X116064534Y-67232236D01*
X116064535Y-67232235D01*
X116237606Y-67160547D01*
X116421334Y-67124001D01*
X116608668Y-67124001D01*
X116792396Y-67160547D01*
G37*
G36*
X111712396Y-67160547D02*
G01*
X111885467Y-67232235D01*
X111885468Y-67232236D01*
X112041228Y-67336311D01*
X112173691Y-67468774D01*
X112173692Y-67468776D01*
X112277767Y-67624535D01*
X112349455Y-67797606D01*
X112386001Y-67981334D01*
X112386001Y-68168668D01*
X112349455Y-68352396D01*
X112277767Y-68525467D01*
X112277766Y-68525468D01*
X112173691Y-68681228D01*
X112041228Y-68813691D01*
X111962819Y-68866082D01*
X111885467Y-68917767D01*
X111712396Y-68989455D01*
X111528668Y-69026001D01*
X111341334Y-69026001D01*
X111157606Y-68989455D01*
X110984535Y-68917767D01*
X110907183Y-68866082D01*
X110828774Y-68813691D01*
X110696311Y-68681228D01*
X110592236Y-68525468D01*
X110592235Y-68525467D01*
X110520547Y-68352396D01*
X110484001Y-68168668D01*
X110484001Y-67981334D01*
X110520547Y-67797606D01*
X110592235Y-67624535D01*
X110696310Y-67468776D01*
X110696311Y-67468774D01*
X110828774Y-67336311D01*
X110984534Y-67232236D01*
X110984535Y-67232235D01*
X111157606Y-67160547D01*
X111341334Y-67124001D01*
X111528668Y-67124001D01*
X111712396Y-67160547D01*
G37*
G36*
X106632396Y-67160547D02*
G01*
X106805467Y-67232235D01*
X106805468Y-67232236D01*
X106961228Y-67336311D01*
X107093691Y-67468774D01*
X107093692Y-67468776D01*
X107197767Y-67624535D01*
X107269455Y-67797606D01*
X107306001Y-67981334D01*
X107306001Y-68168668D01*
X107269455Y-68352396D01*
X107197767Y-68525467D01*
X107197766Y-68525468D01*
X107093691Y-68681228D01*
X106961228Y-68813691D01*
X106882819Y-68866082D01*
X106805467Y-68917767D01*
X106632396Y-68989455D01*
X106448668Y-69026001D01*
X106261334Y-69026001D01*
X106077606Y-68989455D01*
X105904535Y-68917767D01*
X105827183Y-68866082D01*
X105748774Y-68813691D01*
X105616311Y-68681228D01*
X105512236Y-68525468D01*
X105512235Y-68525467D01*
X105440547Y-68352396D01*
X105404001Y-68168668D01*
X105404001Y-67981334D01*
X105440547Y-67797606D01*
X105512235Y-67624535D01*
X105616310Y-67468776D01*
X105616311Y-67468774D01*
X105748774Y-67336311D01*
X105904534Y-67232236D01*
X105904535Y-67232235D01*
X106077606Y-67160547D01*
X106261334Y-67124001D01*
X106448668Y-67124001D01*
X106632396Y-67160547D01*
G37*
G36*
X104092396Y-67160547D02*
G01*
X104265467Y-67232235D01*
X104265468Y-67232236D01*
X104421228Y-67336311D01*
X104553691Y-67468774D01*
X104553692Y-67468776D01*
X104657767Y-67624535D01*
X104729455Y-67797606D01*
X104766001Y-67981334D01*
X104766001Y-68168668D01*
X104729455Y-68352396D01*
X104657767Y-68525467D01*
X104657766Y-68525468D01*
X104553691Y-68681228D01*
X104421228Y-68813691D01*
X104342819Y-68866082D01*
X104265467Y-68917767D01*
X104092396Y-68989455D01*
X103908668Y-69026001D01*
X103721334Y-69026001D01*
X103537606Y-68989455D01*
X103364535Y-68917767D01*
X103287183Y-68866082D01*
X103208774Y-68813691D01*
X103076311Y-68681228D01*
X102972236Y-68525468D01*
X102972235Y-68525467D01*
X102900547Y-68352396D01*
X102864001Y-68168668D01*
X102864001Y-67981334D01*
X102900547Y-67797606D01*
X102972235Y-67624535D01*
X103076310Y-67468776D01*
X103076311Y-67468774D01*
X103208774Y-67336311D01*
X103364534Y-67232236D01*
X103364535Y-67232235D01*
X103537606Y-67160547D01*
X103721334Y-67124001D01*
X103908668Y-67124001D01*
X104092396Y-67160547D01*
G37*
G36*
X91392396Y-67160547D02*
G01*
X91565467Y-67232235D01*
X91565468Y-67232236D01*
X91721228Y-67336311D01*
X91853691Y-67468774D01*
X91853692Y-67468776D01*
X91957767Y-67624535D01*
X92029455Y-67797606D01*
X92066001Y-67981334D01*
X92066001Y-68168668D01*
X92029455Y-68352396D01*
X91957767Y-68525467D01*
X91957766Y-68525468D01*
X91853691Y-68681228D01*
X91721228Y-68813691D01*
X91642819Y-68866082D01*
X91565467Y-68917767D01*
X91392396Y-68989455D01*
X91208668Y-69026001D01*
X91021334Y-69026001D01*
X90837606Y-68989455D01*
X90664535Y-68917767D01*
X90587183Y-68866082D01*
X90508774Y-68813691D01*
X90376311Y-68681228D01*
X90272236Y-68525468D01*
X90272235Y-68525467D01*
X90200547Y-68352396D01*
X90164001Y-68168668D01*
X90164001Y-67981334D01*
X90200547Y-67797606D01*
X90272235Y-67624535D01*
X90376310Y-67468776D01*
X90376311Y-67468774D01*
X90508774Y-67336311D01*
X90664534Y-67232236D01*
X90664535Y-67232235D01*
X90837606Y-67160547D01*
X91021334Y-67124001D01*
X91208668Y-67124001D01*
X91392396Y-67160547D01*
G37*
G36*
X121872396Y-67160547D02*
G01*
X122045467Y-67232235D01*
X122045468Y-67232236D01*
X122201228Y-67336311D01*
X122333691Y-67468774D01*
X122333692Y-67468776D01*
X122437767Y-67624535D01*
X122509455Y-67797606D01*
X122546001Y-67981334D01*
X122546001Y-68168668D01*
X122509455Y-68352396D01*
X122437767Y-68525467D01*
X122437766Y-68525468D01*
X122333691Y-68681228D01*
X122201228Y-68813691D01*
X122122819Y-68866082D01*
X122045467Y-68917767D01*
X121872396Y-68989455D01*
X121688668Y-69026001D01*
X121501334Y-69026001D01*
X121317606Y-68989455D01*
X121144535Y-68917767D01*
X121067183Y-68866082D01*
X120988774Y-68813691D01*
X120856311Y-68681228D01*
X120752236Y-68525468D01*
X120752235Y-68525467D01*
X120680547Y-68352396D01*
X120644001Y-68168668D01*
X120644001Y-67981334D01*
X120680547Y-67797606D01*
X120752235Y-67624535D01*
X120856310Y-67468776D01*
X120856311Y-67468774D01*
X120988774Y-67336311D01*
X121144534Y-67232236D01*
X121144535Y-67232235D01*
X121317606Y-67160547D01*
X121501334Y-67124001D01*
X121688668Y-67124001D01*
X121872396Y-67160547D01*
G37*
G36*
X124412396Y-67160547D02*
G01*
X124585467Y-67232235D01*
X124585468Y-67232236D01*
X124741228Y-67336311D01*
X124873691Y-67468774D01*
X124873692Y-67468776D01*
X124977767Y-67624535D01*
X125049455Y-67797606D01*
X125086001Y-67981334D01*
X125086001Y-68168668D01*
X125049455Y-68352396D01*
X124977767Y-68525467D01*
X124977766Y-68525468D01*
X124873691Y-68681228D01*
X124741228Y-68813691D01*
X124662819Y-68866082D01*
X124585467Y-68917767D01*
X124412396Y-68989455D01*
X124228668Y-69026001D01*
X124041334Y-69026001D01*
X123857606Y-68989455D01*
X123684535Y-68917767D01*
X123607183Y-68866082D01*
X123528774Y-68813691D01*
X123396311Y-68681228D01*
X123292236Y-68525468D01*
X123292235Y-68525467D01*
X123220547Y-68352396D01*
X123184001Y-68168668D01*
X123184001Y-67981334D01*
X123220547Y-67797606D01*
X123292235Y-67624535D01*
X123396310Y-67468776D01*
X123396311Y-67468774D01*
X123528774Y-67336311D01*
X123684534Y-67232236D01*
X123684535Y-67232235D01*
X123857606Y-67160547D01*
X124041334Y-67124001D01*
X124228668Y-67124001D01*
X124412396Y-67160547D01*
G37*
G36*
X126952396Y-67160547D02*
G01*
X127125467Y-67232235D01*
X127125468Y-67232236D01*
X127281228Y-67336311D01*
X127413691Y-67468774D01*
X127413692Y-67468776D01*
X127517767Y-67624535D01*
X127589455Y-67797606D01*
X127626001Y-67981334D01*
X127626001Y-68168668D01*
X127589455Y-68352396D01*
X127517767Y-68525467D01*
X127517766Y-68525468D01*
X127413691Y-68681228D01*
X127281228Y-68813691D01*
X127202819Y-68866082D01*
X127125467Y-68917767D01*
X126952396Y-68989455D01*
X126768668Y-69026001D01*
X126581334Y-69026001D01*
X126397606Y-68989455D01*
X126224535Y-68917767D01*
X126147183Y-68866082D01*
X126068774Y-68813691D01*
X125936311Y-68681228D01*
X125832236Y-68525468D01*
X125832235Y-68525467D01*
X125760547Y-68352396D01*
X125724001Y-68168668D01*
X125724001Y-67981334D01*
X125760547Y-67797606D01*
X125832235Y-67624535D01*
X125936310Y-67468776D01*
X125936311Y-67468774D01*
X126068774Y-67336311D01*
X126224534Y-67232236D01*
X126224535Y-67232235D01*
X126397606Y-67160547D01*
X126581334Y-67124001D01*
X126768668Y-67124001D01*
X126952396Y-67160547D01*
G37*
G36*
X129492396Y-67160547D02*
G01*
X129665467Y-67232235D01*
X129665468Y-67232236D01*
X129821228Y-67336311D01*
X129953691Y-67468774D01*
X129953692Y-67468776D01*
X130057767Y-67624535D01*
X130129455Y-67797606D01*
X130166001Y-67981334D01*
X130166001Y-68168668D01*
X130129455Y-68352396D01*
X130057767Y-68525467D01*
X130057766Y-68525468D01*
X129953691Y-68681228D01*
X129821228Y-68813691D01*
X129742819Y-68866082D01*
X129665467Y-68917767D01*
X129492396Y-68989455D01*
X129308668Y-69026001D01*
X129121334Y-69026001D01*
X128937606Y-68989455D01*
X128764535Y-68917767D01*
X128687183Y-68866082D01*
X128608774Y-68813691D01*
X128476311Y-68681228D01*
X128372236Y-68525468D01*
X128372235Y-68525467D01*
X128300547Y-68352396D01*
X128264001Y-68168668D01*
X128264001Y-67981334D01*
X128300547Y-67797606D01*
X128372235Y-67624535D01*
X128476310Y-67468776D01*
X128476311Y-67468774D01*
X128608774Y-67336311D01*
X128764534Y-67232236D01*
X128764535Y-67232235D01*
X128937606Y-67160547D01*
X129121334Y-67124001D01*
X129308668Y-67124001D01*
X129492396Y-67160547D01*
G37*
G36*
X132032396Y-67160547D02*
G01*
X132205467Y-67232235D01*
X132205468Y-67232236D01*
X132361228Y-67336311D01*
X132493691Y-67468774D01*
X132493692Y-67468776D01*
X132597767Y-67624535D01*
X132669455Y-67797606D01*
X132706001Y-67981334D01*
X132706001Y-68168668D01*
X132669455Y-68352396D01*
X132597767Y-68525467D01*
X132597766Y-68525468D01*
X132493691Y-68681228D01*
X132361228Y-68813691D01*
X132282819Y-68866082D01*
X132205467Y-68917767D01*
X132032396Y-68989455D01*
X131848668Y-69026001D01*
X131661334Y-69026001D01*
X131477606Y-68989455D01*
X131304535Y-68917767D01*
X131227183Y-68866082D01*
X131148774Y-68813691D01*
X131016311Y-68681228D01*
X130912236Y-68525468D01*
X130912235Y-68525467D01*
X130840547Y-68352396D01*
X130804001Y-68168668D01*
X130804001Y-67981334D01*
X130840547Y-67797606D01*
X130912235Y-67624535D01*
X131016310Y-67468776D01*
X131016311Y-67468774D01*
X131148774Y-67336311D01*
X131304534Y-67232236D01*
X131304535Y-67232235D01*
X131477606Y-67160547D01*
X131661334Y-67124001D01*
X131848668Y-67124001D01*
X132032396Y-67160547D01*
G37*
G36*
X134572396Y-67160547D02*
G01*
X134745467Y-67232235D01*
X134745468Y-67232236D01*
X134901228Y-67336311D01*
X135033691Y-67468774D01*
X135033692Y-67468776D01*
X135137767Y-67624535D01*
X135209455Y-67797606D01*
X135246001Y-67981334D01*
X135246001Y-68168668D01*
X135209455Y-68352396D01*
X135137767Y-68525467D01*
X135137766Y-68525468D01*
X135033691Y-68681228D01*
X134901228Y-68813691D01*
X134822819Y-68866082D01*
X134745467Y-68917767D01*
X134572396Y-68989455D01*
X134388668Y-69026001D01*
X134201334Y-69026001D01*
X134017606Y-68989455D01*
X133844535Y-68917767D01*
X133767183Y-68866082D01*
X133688774Y-68813691D01*
X133556311Y-68681228D01*
X133452236Y-68525468D01*
X133452235Y-68525467D01*
X133380547Y-68352396D01*
X133344001Y-68168668D01*
X133344001Y-67981334D01*
X133380547Y-67797606D01*
X133452235Y-67624535D01*
X133556310Y-67468776D01*
X133556311Y-67468774D01*
X133688774Y-67336311D01*
X133844534Y-67232236D01*
X133844535Y-67232235D01*
X134017606Y-67160547D01*
X134201334Y-67124001D01*
X134388668Y-67124001D01*
X134572396Y-67160547D01*
G37*
G36*
X137112396Y-67160547D02*
G01*
X137285467Y-67232235D01*
X137285468Y-67232236D01*
X137441228Y-67336311D01*
X137573691Y-67468774D01*
X137573692Y-67468776D01*
X137677767Y-67624535D01*
X137749455Y-67797606D01*
X137786001Y-67981334D01*
X137786001Y-68168668D01*
X137749455Y-68352396D01*
X137677767Y-68525467D01*
X137677766Y-68525468D01*
X137573691Y-68681228D01*
X137441228Y-68813691D01*
X137362819Y-68866082D01*
X137285467Y-68917767D01*
X137112396Y-68989455D01*
X136928668Y-69026001D01*
X136741334Y-69026001D01*
X136557606Y-68989455D01*
X136384535Y-68917767D01*
X136307183Y-68866082D01*
X136228774Y-68813691D01*
X136096311Y-68681228D01*
X135992236Y-68525468D01*
X135992235Y-68525467D01*
X135920547Y-68352396D01*
X135884001Y-68168668D01*
X135884001Y-67981334D01*
X135920547Y-67797606D01*
X135992235Y-67624535D01*
X136096310Y-67468776D01*
X136096311Y-67468774D01*
X136228774Y-67336311D01*
X136384534Y-67232236D01*
X136384535Y-67232235D01*
X136557606Y-67160547D01*
X136741334Y-67124001D01*
X136928668Y-67124001D01*
X137112396Y-67160547D01*
G37*
G36*
X89526001Y-69026001D02*
G01*
X87624001Y-69026001D01*
X87624001Y-67124001D01*
X89526001Y-67124001D01*
X89526001Y-69026001D01*
G37*
G36*
X93932396Y-67160547D02*
G01*
X94105467Y-67232235D01*
X94105468Y-67232236D01*
X94261228Y-67336311D01*
X94393691Y-67468774D01*
X94393692Y-67468776D01*
X94497767Y-67624535D01*
X94569455Y-67797606D01*
X94606001Y-67981334D01*
X94606001Y-68168668D01*
X94569455Y-68352396D01*
X94497767Y-68525467D01*
X94497766Y-68525468D01*
X94393691Y-68681228D01*
X94261228Y-68813691D01*
X94182819Y-68866082D01*
X94105467Y-68917767D01*
X93932396Y-68989455D01*
X93748668Y-69026001D01*
X93561334Y-69026001D01*
X93377606Y-68989455D01*
X93204535Y-68917767D01*
X93127183Y-68866082D01*
X93048774Y-68813691D01*
X92916311Y-68681228D01*
X92812236Y-68525468D01*
X92812235Y-68525467D01*
X92740547Y-68352396D01*
X92704001Y-68168668D01*
X92704001Y-67981334D01*
X92740547Y-67797606D01*
X92812235Y-67624535D01*
X92916310Y-67468776D01*
X92916311Y-67468774D01*
X93048774Y-67336311D01*
X93204534Y-67232236D01*
X93204535Y-67232235D01*
X93377606Y-67160547D01*
X93561334Y-67124001D01*
X93748668Y-67124001D01*
X93932396Y-67160547D01*
G37*
G36*
X84023434Y-65439894D02*
G01*
X84113658Y-65457840D01*
X84219268Y-65501586D01*
X84368622Y-65563450D01*
X84368623Y-65563451D01*
X84598087Y-65716773D01*
X84793229Y-65911915D01*
X84842375Y-65985468D01*
X84946552Y-66141380D01*
X85001357Y-66273691D01*
X85052162Y-66396344D01*
X85106001Y-66667015D01*
X85106001Y-66942987D01*
X85052162Y-67213658D01*
X85008416Y-67319268D01*
X84946552Y-67468622D01*
X84946551Y-67468623D01*
X84793229Y-67698087D01*
X84598087Y-67893229D01*
X84466228Y-67981334D01*
X84368622Y-68046552D01*
X84219268Y-68108416D01*
X84113658Y-68152162D01*
X84030675Y-68168668D01*
X83842989Y-68206001D01*
X83567013Y-68206001D01*
X83379327Y-68168668D01*
X83296344Y-68152162D01*
X83190734Y-68108416D01*
X83041380Y-68046552D01*
X82943774Y-67981334D01*
X82811915Y-67893229D01*
X82616773Y-67698087D01*
X82463451Y-67468623D01*
X82463450Y-67468622D01*
X82401586Y-67319268D01*
X82357840Y-67213658D01*
X82304001Y-66942987D01*
X82304001Y-66667015D01*
X82357840Y-66396344D01*
X82408645Y-66273691D01*
X82463450Y-66141380D01*
X82567627Y-65985468D01*
X82616773Y-65911915D01*
X82811915Y-65716773D01*
X83041379Y-65563451D01*
X83041380Y-65563450D01*
X83190734Y-65501586D01*
X83296344Y-65457840D01*
X83386568Y-65439894D01*
X83567013Y-65404001D01*
X83842989Y-65404001D01*
X84023434Y-65439894D01*
G37*
G36*
X142023434Y-65439894D02*
G01*
X142113658Y-65457840D01*
X142219268Y-65501586D01*
X142368622Y-65563450D01*
X142368623Y-65563451D01*
X142598087Y-65716773D01*
X142793229Y-65911915D01*
X142842375Y-65985468D01*
X142946552Y-66141380D01*
X143001357Y-66273691D01*
X143052162Y-66396344D01*
X143106001Y-66667015D01*
X143106001Y-66942987D01*
X143052162Y-67213658D01*
X143008416Y-67319268D01*
X142946552Y-67468622D01*
X142946551Y-67468623D01*
X142793229Y-67698087D01*
X142598087Y-67893229D01*
X142466228Y-67981334D01*
X142368622Y-68046552D01*
X142219268Y-68108416D01*
X142113658Y-68152162D01*
X142030675Y-68168668D01*
X141842989Y-68206001D01*
X141567013Y-68206001D01*
X141379327Y-68168668D01*
X141296344Y-68152162D01*
X141190734Y-68108416D01*
X141041380Y-68046552D01*
X140943774Y-67981334D01*
X140811915Y-67893229D01*
X140616773Y-67698087D01*
X140463451Y-67468623D01*
X140463450Y-67468622D01*
X140401586Y-67319268D01*
X140357840Y-67213658D01*
X140304001Y-66942987D01*
X140304001Y-66667015D01*
X140357840Y-66396344D01*
X140408645Y-66273691D01*
X140463450Y-66141380D01*
X140567627Y-65985468D01*
X140616773Y-65911915D01*
X140811915Y-65716773D01*
X141041379Y-65563451D01*
X141041380Y-65563450D01*
X141190734Y-65501586D01*
X141296344Y-65457840D01*
X141386568Y-65439894D01*
X141567013Y-65404001D01*
X141842989Y-65404001D01*
X142023434Y-65439894D01*
G37*
G36*
X88852396Y-64620547D02*
G01*
X89025467Y-64692235D01*
X89025468Y-64692236D01*
X89181228Y-64796311D01*
X89313691Y-64928774D01*
X89313692Y-64928776D01*
X89417767Y-65084535D01*
X89489455Y-65257606D01*
X89526001Y-65441334D01*
X89526001Y-65628668D01*
X89489455Y-65812396D01*
X89417767Y-65985467D01*
X89417766Y-65985468D01*
X89313691Y-66141228D01*
X89181228Y-66273691D01*
X89102819Y-66326082D01*
X89025467Y-66377767D01*
X88852396Y-66449455D01*
X88668668Y-66486001D01*
X88481334Y-66486001D01*
X88297606Y-66449455D01*
X88124535Y-66377767D01*
X88047183Y-66326082D01*
X87968774Y-66273691D01*
X87836311Y-66141228D01*
X87732236Y-65985468D01*
X87732235Y-65985467D01*
X87660547Y-65812396D01*
X87624001Y-65628668D01*
X87624001Y-65441334D01*
X87660547Y-65257606D01*
X87732235Y-65084535D01*
X87836310Y-64928776D01*
X87836311Y-64928774D01*
X87968774Y-64796311D01*
X88124534Y-64692236D01*
X88124535Y-64692235D01*
X88297606Y-64620547D01*
X88481334Y-64584001D01*
X88668668Y-64584001D01*
X88852396Y-64620547D01*
G37*
G36*
X91392396Y-64620547D02*
G01*
X91565467Y-64692235D01*
X91565468Y-64692236D01*
X91721228Y-64796311D01*
X91853691Y-64928774D01*
X91853692Y-64928776D01*
X91957767Y-65084535D01*
X92029455Y-65257606D01*
X92066001Y-65441334D01*
X92066001Y-65628668D01*
X92029455Y-65812396D01*
X91957767Y-65985467D01*
X91957766Y-65985468D01*
X91853691Y-66141228D01*
X91721228Y-66273691D01*
X91642819Y-66326082D01*
X91565467Y-66377767D01*
X91392396Y-66449455D01*
X91208668Y-66486001D01*
X91021334Y-66486001D01*
X90837606Y-66449455D01*
X90664535Y-66377767D01*
X90587183Y-66326082D01*
X90508774Y-66273691D01*
X90376311Y-66141228D01*
X90272236Y-65985468D01*
X90272235Y-65985467D01*
X90200547Y-65812396D01*
X90164001Y-65628668D01*
X90164001Y-65441334D01*
X90200547Y-65257606D01*
X90272235Y-65084535D01*
X90376310Y-64928776D01*
X90376311Y-64928774D01*
X90508774Y-64796311D01*
X90664534Y-64692236D01*
X90664535Y-64692235D01*
X90837606Y-64620547D01*
X91021334Y-64584001D01*
X91208668Y-64584001D01*
X91392396Y-64620547D01*
G37*
G36*
X137112396Y-64620547D02*
G01*
X137285467Y-64692235D01*
X137285468Y-64692236D01*
X137441228Y-64796311D01*
X137573691Y-64928774D01*
X137573692Y-64928776D01*
X137677767Y-65084535D01*
X137749455Y-65257606D01*
X137786001Y-65441334D01*
X137786001Y-65628668D01*
X137749455Y-65812396D01*
X137677767Y-65985467D01*
X137677766Y-65985468D01*
X137573691Y-66141228D01*
X137441228Y-66273691D01*
X137362819Y-66326082D01*
X137285467Y-66377767D01*
X137112396Y-66449455D01*
X136928668Y-66486001D01*
X136741334Y-66486001D01*
X136557606Y-66449455D01*
X136384535Y-66377767D01*
X136307183Y-66326082D01*
X136228774Y-66273691D01*
X136096311Y-66141228D01*
X135992236Y-65985468D01*
X135992235Y-65985467D01*
X135920547Y-65812396D01*
X135884001Y-65628668D01*
X135884001Y-65441334D01*
X135920547Y-65257606D01*
X135992235Y-65084535D01*
X136096310Y-64928776D01*
X136096311Y-64928774D01*
X136228774Y-64796311D01*
X136384534Y-64692236D01*
X136384535Y-64692235D01*
X136557606Y-64620547D01*
X136741334Y-64584001D01*
X136928668Y-64584001D01*
X137112396Y-64620547D01*
G37*
G36*
X134572396Y-64620547D02*
G01*
X134745467Y-64692235D01*
X134745468Y-64692236D01*
X134901228Y-64796311D01*
X135033691Y-64928774D01*
X135033692Y-64928776D01*
X135137767Y-65084535D01*
X135209455Y-65257606D01*
X135246001Y-65441334D01*
X135246001Y-65628668D01*
X135209455Y-65812396D01*
X135137767Y-65985467D01*
X135137766Y-65985468D01*
X135033691Y-66141228D01*
X134901228Y-66273691D01*
X134822819Y-66326082D01*
X134745467Y-66377767D01*
X134572396Y-66449455D01*
X134388668Y-66486001D01*
X134201334Y-66486001D01*
X134017606Y-66449455D01*
X133844535Y-66377767D01*
X133767183Y-66326082D01*
X133688774Y-66273691D01*
X133556311Y-66141228D01*
X133452236Y-65985468D01*
X133452235Y-65985467D01*
X133380547Y-65812396D01*
X133344001Y-65628668D01*
X133344001Y-65441334D01*
X133380547Y-65257606D01*
X133452235Y-65084535D01*
X133556310Y-64928776D01*
X133556311Y-64928774D01*
X133688774Y-64796311D01*
X133844534Y-64692236D01*
X133844535Y-64692235D01*
X134017606Y-64620547D01*
X134201334Y-64584001D01*
X134388668Y-64584001D01*
X134572396Y-64620547D01*
G37*
G36*
X132032396Y-64620547D02*
G01*
X132205467Y-64692235D01*
X132205468Y-64692236D01*
X132361228Y-64796311D01*
X132493691Y-64928774D01*
X132493692Y-64928776D01*
X132597767Y-65084535D01*
X132669455Y-65257606D01*
X132706001Y-65441334D01*
X132706001Y-65628668D01*
X132669455Y-65812396D01*
X132597767Y-65985467D01*
X132597766Y-65985468D01*
X132493691Y-66141228D01*
X132361228Y-66273691D01*
X132282819Y-66326082D01*
X132205467Y-66377767D01*
X132032396Y-66449455D01*
X131848668Y-66486001D01*
X131661334Y-66486001D01*
X131477606Y-66449455D01*
X131304535Y-66377767D01*
X131227183Y-66326082D01*
X131148774Y-66273691D01*
X131016311Y-66141228D01*
X130912236Y-65985468D01*
X130912235Y-65985467D01*
X130840547Y-65812396D01*
X130804001Y-65628668D01*
X130804001Y-65441334D01*
X130840547Y-65257606D01*
X130912235Y-65084535D01*
X131016310Y-64928776D01*
X131016311Y-64928774D01*
X131148774Y-64796311D01*
X131304534Y-64692236D01*
X131304535Y-64692235D01*
X131477606Y-64620547D01*
X131661334Y-64584001D01*
X131848668Y-64584001D01*
X132032396Y-64620547D01*
G37*
G36*
X129492396Y-64620547D02*
G01*
X129665467Y-64692235D01*
X129665468Y-64692236D01*
X129821228Y-64796311D01*
X129953691Y-64928774D01*
X129953692Y-64928776D01*
X130057767Y-65084535D01*
X130129455Y-65257606D01*
X130166001Y-65441334D01*
X130166001Y-65628668D01*
X130129455Y-65812396D01*
X130057767Y-65985467D01*
X130057766Y-65985468D01*
X129953691Y-66141228D01*
X129821228Y-66273691D01*
X129742819Y-66326082D01*
X129665467Y-66377767D01*
X129492396Y-66449455D01*
X129308668Y-66486001D01*
X129121334Y-66486001D01*
X128937606Y-66449455D01*
X128764535Y-66377767D01*
X128687183Y-66326082D01*
X128608774Y-66273691D01*
X128476311Y-66141228D01*
X128372236Y-65985468D01*
X128372235Y-65985467D01*
X128300547Y-65812396D01*
X128264001Y-65628668D01*
X128264001Y-65441334D01*
X128300547Y-65257606D01*
X128372235Y-65084535D01*
X128476310Y-64928776D01*
X128476311Y-64928774D01*
X128608774Y-64796311D01*
X128764534Y-64692236D01*
X128764535Y-64692235D01*
X128937606Y-64620547D01*
X129121334Y-64584001D01*
X129308668Y-64584001D01*
X129492396Y-64620547D01*
G37*
G36*
X126952396Y-64620547D02*
G01*
X127125467Y-64692235D01*
X127125468Y-64692236D01*
X127281228Y-64796311D01*
X127413691Y-64928774D01*
X127413692Y-64928776D01*
X127517767Y-65084535D01*
X127589455Y-65257606D01*
X127626001Y-65441334D01*
X127626001Y-65628668D01*
X127589455Y-65812396D01*
X127517767Y-65985467D01*
X127517766Y-65985468D01*
X127413691Y-66141228D01*
X127281228Y-66273691D01*
X127202819Y-66326082D01*
X127125467Y-66377767D01*
X126952396Y-66449455D01*
X126768668Y-66486001D01*
X126581334Y-66486001D01*
X126397606Y-66449455D01*
X126224535Y-66377767D01*
X126147183Y-66326082D01*
X126068774Y-66273691D01*
X125936311Y-66141228D01*
X125832236Y-65985468D01*
X125832235Y-65985467D01*
X125760547Y-65812396D01*
X125724001Y-65628668D01*
X125724001Y-65441334D01*
X125760547Y-65257606D01*
X125832235Y-65084535D01*
X125936310Y-64928776D01*
X125936311Y-64928774D01*
X126068774Y-64796311D01*
X126224534Y-64692236D01*
X126224535Y-64692235D01*
X126397606Y-64620547D01*
X126581334Y-64584001D01*
X126768668Y-64584001D01*
X126952396Y-64620547D01*
G37*
G36*
X124412396Y-64620547D02*
G01*
X124585467Y-64692235D01*
X124585468Y-64692236D01*
X124741228Y-64796311D01*
X124873691Y-64928774D01*
X124873692Y-64928776D01*
X124977767Y-65084535D01*
X125049455Y-65257606D01*
X125086001Y-65441334D01*
X125086001Y-65628668D01*
X125049455Y-65812396D01*
X124977767Y-65985467D01*
X124977766Y-65985468D01*
X124873691Y-66141228D01*
X124741228Y-66273691D01*
X124662819Y-66326082D01*
X124585467Y-66377767D01*
X124412396Y-66449455D01*
X124228668Y-66486001D01*
X124041334Y-66486001D01*
X123857606Y-66449455D01*
X123684535Y-66377767D01*
X123607183Y-66326082D01*
X123528774Y-66273691D01*
X123396311Y-66141228D01*
X123292236Y-65985468D01*
X123292235Y-65985467D01*
X123220547Y-65812396D01*
X123184001Y-65628668D01*
X123184001Y-65441334D01*
X123220547Y-65257606D01*
X123292235Y-65084535D01*
X123396310Y-64928776D01*
X123396311Y-64928774D01*
X123528774Y-64796311D01*
X123684534Y-64692236D01*
X123684535Y-64692235D01*
X123857606Y-64620547D01*
X124041334Y-64584001D01*
X124228668Y-64584001D01*
X124412396Y-64620547D01*
G37*
G36*
X121872396Y-64620547D02*
G01*
X122045467Y-64692235D01*
X122045468Y-64692236D01*
X122201228Y-64796311D01*
X122333691Y-64928774D01*
X122333692Y-64928776D01*
X122437767Y-65084535D01*
X122509455Y-65257606D01*
X122546001Y-65441334D01*
X122546001Y-65628668D01*
X122509455Y-65812396D01*
X122437767Y-65985467D01*
X122437766Y-65985468D01*
X122333691Y-66141228D01*
X122201228Y-66273691D01*
X122122819Y-66326082D01*
X122045467Y-66377767D01*
X121872396Y-66449455D01*
X121688668Y-66486001D01*
X121501334Y-66486001D01*
X121317606Y-66449455D01*
X121144535Y-66377767D01*
X121067183Y-66326082D01*
X120988774Y-66273691D01*
X120856311Y-66141228D01*
X120752236Y-65985468D01*
X120752235Y-65985467D01*
X120680547Y-65812396D01*
X120644001Y-65628668D01*
X120644001Y-65441334D01*
X120680547Y-65257606D01*
X120752235Y-65084535D01*
X120856310Y-64928776D01*
X120856311Y-64928774D01*
X120988774Y-64796311D01*
X121144534Y-64692236D01*
X121144535Y-64692235D01*
X121317606Y-64620547D01*
X121501334Y-64584001D01*
X121688668Y-64584001D01*
X121872396Y-64620547D01*
G37*
G36*
X119332396Y-64620547D02*
G01*
X119505467Y-64692235D01*
X119505468Y-64692236D01*
X119661228Y-64796311D01*
X119793691Y-64928774D01*
X119793692Y-64928776D01*
X119897767Y-65084535D01*
X119969455Y-65257606D01*
X120006001Y-65441334D01*
X120006001Y-65628668D01*
X119969455Y-65812396D01*
X119897767Y-65985467D01*
X119897766Y-65985468D01*
X119793691Y-66141228D01*
X119661228Y-66273691D01*
X119582819Y-66326082D01*
X119505467Y-66377767D01*
X119332396Y-66449455D01*
X119148668Y-66486001D01*
X118961334Y-66486001D01*
X118777606Y-66449455D01*
X118604535Y-66377767D01*
X118527183Y-66326082D01*
X118448774Y-66273691D01*
X118316311Y-66141228D01*
X118212236Y-65985468D01*
X118212235Y-65985467D01*
X118140547Y-65812396D01*
X118104001Y-65628668D01*
X118104001Y-65441334D01*
X118140547Y-65257606D01*
X118212235Y-65084535D01*
X118316310Y-64928776D01*
X118316311Y-64928774D01*
X118448774Y-64796311D01*
X118604534Y-64692236D01*
X118604535Y-64692235D01*
X118777606Y-64620547D01*
X118961334Y-64584001D01*
X119148668Y-64584001D01*
X119332396Y-64620547D01*
G37*
G36*
X116792396Y-64620547D02*
G01*
X116965467Y-64692235D01*
X116965468Y-64692236D01*
X117121228Y-64796311D01*
X117253691Y-64928774D01*
X117253692Y-64928776D01*
X117357767Y-65084535D01*
X117429455Y-65257606D01*
X117466001Y-65441334D01*
X117466001Y-65628668D01*
X117429455Y-65812396D01*
X117357767Y-65985467D01*
X117357766Y-65985468D01*
X117253691Y-66141228D01*
X117121228Y-66273691D01*
X117042819Y-66326082D01*
X116965467Y-66377767D01*
X116792396Y-66449455D01*
X116608668Y-66486001D01*
X116421334Y-66486001D01*
X116237606Y-66449455D01*
X116064535Y-66377767D01*
X115987183Y-66326082D01*
X115908774Y-66273691D01*
X115776311Y-66141228D01*
X115672236Y-65985468D01*
X115672235Y-65985467D01*
X115600547Y-65812396D01*
X115564001Y-65628668D01*
X115564001Y-65441334D01*
X115600547Y-65257606D01*
X115672235Y-65084535D01*
X115776310Y-64928776D01*
X115776311Y-64928774D01*
X115908774Y-64796311D01*
X116064534Y-64692236D01*
X116064535Y-64692235D01*
X116237606Y-64620547D01*
X116421334Y-64584001D01*
X116608668Y-64584001D01*
X116792396Y-64620547D01*
G37*
G36*
X114252396Y-64620547D02*
G01*
X114425467Y-64692235D01*
X114425468Y-64692236D01*
X114581228Y-64796311D01*
X114713691Y-64928774D01*
X114713692Y-64928776D01*
X114817767Y-65084535D01*
X114889455Y-65257606D01*
X114926001Y-65441334D01*
X114926001Y-65628668D01*
X114889455Y-65812396D01*
X114817767Y-65985467D01*
X114817766Y-65985468D01*
X114713691Y-66141228D01*
X114581228Y-66273691D01*
X114502819Y-66326082D01*
X114425467Y-66377767D01*
X114252396Y-66449455D01*
X114068668Y-66486001D01*
X113881334Y-66486001D01*
X113697606Y-66449455D01*
X113524535Y-66377767D01*
X113447183Y-66326082D01*
X113368774Y-66273691D01*
X113236311Y-66141228D01*
X113132236Y-65985468D01*
X113132235Y-65985467D01*
X113060547Y-65812396D01*
X113024001Y-65628668D01*
X113024001Y-65441334D01*
X113060547Y-65257606D01*
X113132235Y-65084535D01*
X113236310Y-64928776D01*
X113236311Y-64928774D01*
X113368774Y-64796311D01*
X113524534Y-64692236D01*
X113524535Y-64692235D01*
X113697606Y-64620547D01*
X113881334Y-64584001D01*
X114068668Y-64584001D01*
X114252396Y-64620547D01*
G37*
G36*
X111712396Y-64620547D02*
G01*
X111885467Y-64692235D01*
X111885468Y-64692236D01*
X112041228Y-64796311D01*
X112173691Y-64928774D01*
X112173692Y-64928776D01*
X112277767Y-65084535D01*
X112349455Y-65257606D01*
X112386001Y-65441334D01*
X112386001Y-65628668D01*
X112349455Y-65812396D01*
X112277767Y-65985467D01*
X112277766Y-65985468D01*
X112173691Y-66141228D01*
X112041228Y-66273691D01*
X111962819Y-66326082D01*
X111885467Y-66377767D01*
X111712396Y-66449455D01*
X111528668Y-66486001D01*
X111341334Y-66486001D01*
X111157606Y-66449455D01*
X110984535Y-66377767D01*
X110907183Y-66326082D01*
X110828774Y-66273691D01*
X110696311Y-66141228D01*
X110592236Y-65985468D01*
X110592235Y-65985467D01*
X110520547Y-65812396D01*
X110484001Y-65628668D01*
X110484001Y-65441334D01*
X110520547Y-65257606D01*
X110592235Y-65084535D01*
X110696310Y-64928776D01*
X110696311Y-64928774D01*
X110828774Y-64796311D01*
X110984534Y-64692236D01*
X110984535Y-64692235D01*
X111157606Y-64620547D01*
X111341334Y-64584001D01*
X111528668Y-64584001D01*
X111712396Y-64620547D01*
G37*
G36*
X109172396Y-64620547D02*
G01*
X109345467Y-64692235D01*
X109345468Y-64692236D01*
X109501228Y-64796311D01*
X109633691Y-64928774D01*
X109633692Y-64928776D01*
X109737767Y-65084535D01*
X109809455Y-65257606D01*
X109846001Y-65441334D01*
X109846001Y-65628668D01*
X109809455Y-65812396D01*
X109737767Y-65985467D01*
X109737766Y-65985468D01*
X109633691Y-66141228D01*
X109501228Y-66273691D01*
X109422819Y-66326082D01*
X109345467Y-66377767D01*
X109172396Y-66449455D01*
X108988668Y-66486001D01*
X108801334Y-66486001D01*
X108617606Y-66449455D01*
X108444535Y-66377767D01*
X108367183Y-66326082D01*
X108288774Y-66273691D01*
X108156311Y-66141228D01*
X108052236Y-65985468D01*
X108052235Y-65985467D01*
X107980547Y-65812396D01*
X107944001Y-65628668D01*
X107944001Y-65441334D01*
X107980547Y-65257606D01*
X108052235Y-65084535D01*
X108156310Y-64928776D01*
X108156311Y-64928774D01*
X108288774Y-64796311D01*
X108444534Y-64692236D01*
X108444535Y-64692235D01*
X108617606Y-64620547D01*
X108801334Y-64584001D01*
X108988668Y-64584001D01*
X109172396Y-64620547D01*
G37*
G36*
X106632396Y-64620547D02*
G01*
X106805467Y-64692235D01*
X106805468Y-64692236D01*
X106961228Y-64796311D01*
X107093691Y-64928774D01*
X107093692Y-64928776D01*
X107197767Y-65084535D01*
X107269455Y-65257606D01*
X107306001Y-65441334D01*
X107306001Y-65628668D01*
X107269455Y-65812396D01*
X107197767Y-65985467D01*
X107197766Y-65985468D01*
X107093691Y-66141228D01*
X106961228Y-66273691D01*
X106882819Y-66326082D01*
X106805467Y-66377767D01*
X106632396Y-66449455D01*
X106448668Y-66486001D01*
X106261334Y-66486001D01*
X106077606Y-66449455D01*
X105904535Y-66377767D01*
X105827183Y-66326082D01*
X105748774Y-66273691D01*
X105616311Y-66141228D01*
X105512236Y-65985468D01*
X105512235Y-65985467D01*
X105440547Y-65812396D01*
X105404001Y-65628668D01*
X105404001Y-65441334D01*
X105440547Y-65257606D01*
X105512235Y-65084535D01*
X105616310Y-64928776D01*
X105616311Y-64928774D01*
X105748774Y-64796311D01*
X105904534Y-64692236D01*
X105904535Y-64692235D01*
X106077606Y-64620547D01*
X106261334Y-64584001D01*
X106448668Y-64584001D01*
X106632396Y-64620547D01*
G37*
G36*
X104092396Y-64620547D02*
G01*
X104265467Y-64692235D01*
X104265468Y-64692236D01*
X104421228Y-64796311D01*
X104553691Y-64928774D01*
X104553692Y-64928776D01*
X104657767Y-65084535D01*
X104729455Y-65257606D01*
X104766001Y-65441334D01*
X104766001Y-65628668D01*
X104729455Y-65812396D01*
X104657767Y-65985467D01*
X104657766Y-65985468D01*
X104553691Y-66141228D01*
X104421228Y-66273691D01*
X104342819Y-66326082D01*
X104265467Y-66377767D01*
X104092396Y-66449455D01*
X103908668Y-66486001D01*
X103721334Y-66486001D01*
X103537606Y-66449455D01*
X103364535Y-66377767D01*
X103287183Y-66326082D01*
X103208774Y-66273691D01*
X103076311Y-66141228D01*
X102972236Y-65985468D01*
X102972235Y-65985467D01*
X102900547Y-65812396D01*
X102864001Y-65628668D01*
X102864001Y-65441334D01*
X102900547Y-65257606D01*
X102972235Y-65084535D01*
X103076310Y-64928776D01*
X103076311Y-64928774D01*
X103208774Y-64796311D01*
X103364534Y-64692236D01*
X103364535Y-64692235D01*
X103537606Y-64620547D01*
X103721334Y-64584001D01*
X103908668Y-64584001D01*
X104092396Y-64620547D01*
G37*
G36*
X101552396Y-64620547D02*
G01*
X101725467Y-64692235D01*
X101725468Y-64692236D01*
X101881228Y-64796311D01*
X102013691Y-64928774D01*
X102013692Y-64928776D01*
X102117767Y-65084535D01*
X102189455Y-65257606D01*
X102226001Y-65441334D01*
X102226001Y-65628668D01*
X102189455Y-65812396D01*
X102117767Y-65985467D01*
X102117766Y-65985468D01*
X102013691Y-66141228D01*
X101881228Y-66273691D01*
X101802819Y-66326082D01*
X101725467Y-66377767D01*
X101552396Y-66449455D01*
X101368668Y-66486001D01*
X101181334Y-66486001D01*
X100997606Y-66449455D01*
X100824535Y-66377767D01*
X100747183Y-66326082D01*
X100668774Y-66273691D01*
X100536311Y-66141228D01*
X100432236Y-65985468D01*
X100432235Y-65985467D01*
X100360547Y-65812396D01*
X100324001Y-65628668D01*
X100324001Y-65441334D01*
X100360547Y-65257606D01*
X100432235Y-65084535D01*
X100536310Y-64928776D01*
X100536311Y-64928774D01*
X100668774Y-64796311D01*
X100824534Y-64692236D01*
X100824535Y-64692235D01*
X100997606Y-64620547D01*
X101181334Y-64584001D01*
X101368668Y-64584001D01*
X101552396Y-64620547D01*
G37*
G36*
X93932396Y-64620547D02*
G01*
X94105467Y-64692235D01*
X94105468Y-64692236D01*
X94261228Y-64796311D01*
X94393691Y-64928774D01*
X94393692Y-64928776D01*
X94497767Y-65084535D01*
X94569455Y-65257606D01*
X94606001Y-65441334D01*
X94606001Y-65628668D01*
X94569455Y-65812396D01*
X94497767Y-65985467D01*
X94497766Y-65985468D01*
X94393691Y-66141228D01*
X94261228Y-66273691D01*
X94182819Y-66326082D01*
X94105467Y-66377767D01*
X93932396Y-66449455D01*
X93748668Y-66486001D01*
X93561334Y-66486001D01*
X93377606Y-66449455D01*
X93204535Y-66377767D01*
X93127183Y-66326082D01*
X93048774Y-66273691D01*
X92916311Y-66141228D01*
X92812236Y-65985468D01*
X92812235Y-65985467D01*
X92740547Y-65812396D01*
X92704001Y-65628668D01*
X92704001Y-65441334D01*
X92740547Y-65257606D01*
X92812235Y-65084535D01*
X92916310Y-64928776D01*
X92916311Y-64928774D01*
X93048774Y-64796311D01*
X93204534Y-64692236D01*
X93204535Y-64692235D01*
X93377606Y-64620547D01*
X93561334Y-64584001D01*
X93748668Y-64584001D01*
X93932396Y-64620547D01*
G37*
G36*
X99012396Y-64620547D02*
G01*
X99185467Y-64692235D01*
X99185468Y-64692236D01*
X99341228Y-64796311D01*
X99473691Y-64928774D01*
X99473692Y-64928776D01*
X99577767Y-65084535D01*
X99649455Y-65257606D01*
X99686001Y-65441334D01*
X99686001Y-65628668D01*
X99649455Y-65812396D01*
X99577767Y-65985467D01*
X99577766Y-65985468D01*
X99473691Y-66141228D01*
X99341228Y-66273691D01*
X99262819Y-66326082D01*
X99185467Y-66377767D01*
X99012396Y-66449455D01*
X98828668Y-66486001D01*
X98641334Y-66486001D01*
X98457606Y-66449455D01*
X98284535Y-66377767D01*
X98207183Y-66326082D01*
X98128774Y-66273691D01*
X97996311Y-66141228D01*
X97892236Y-65985468D01*
X97892235Y-65985467D01*
X97820547Y-65812396D01*
X97784001Y-65628668D01*
X97784001Y-65441334D01*
X97820547Y-65257606D01*
X97892235Y-65084535D01*
X97996310Y-64928776D01*
X97996311Y-64928774D01*
X98128774Y-64796311D01*
X98284534Y-64692236D01*
X98284535Y-64692235D01*
X98457606Y-64620547D01*
X98641334Y-64584001D01*
X98828668Y-64584001D01*
X99012396Y-64620547D01*
G37*
G36*
X96472396Y-64620547D02*
G01*
X96645467Y-64692235D01*
X96645468Y-64692236D01*
X96801228Y-64796311D01*
X96933691Y-64928774D01*
X96933692Y-64928776D01*
X97037767Y-65084535D01*
X97109455Y-65257606D01*
X97146001Y-65441334D01*
X97146001Y-65628668D01*
X97109455Y-65812396D01*
X97037767Y-65985467D01*
X97037766Y-65985468D01*
X96933691Y-66141228D01*
X96801228Y-66273691D01*
X96722819Y-66326082D01*
X96645467Y-66377767D01*
X96472396Y-66449455D01*
X96288668Y-66486001D01*
X96101334Y-66486001D01*
X95917606Y-66449455D01*
X95744535Y-66377767D01*
X95667183Y-66326082D01*
X95588774Y-66273691D01*
X95456311Y-66141228D01*
X95352236Y-65985468D01*
X95352235Y-65985467D01*
X95280547Y-65812396D01*
X95244001Y-65628668D01*
X95244001Y-65441334D01*
X95280547Y-65257606D01*
X95352235Y-65084535D01*
X95456310Y-64928776D01*
X95456311Y-64928774D01*
X95588774Y-64796311D01*
X95744534Y-64692236D01*
X95744535Y-64692235D01*
X95917606Y-64620547D01*
X96101334Y-64584001D01*
X96288668Y-64584001D01*
X96472396Y-64620547D01*
G37*
M02*
