%TF.GenerationSoftware,KiCad,Pcbnew,5.1.6-c6e7f7d~87~ubuntu18.04.1*%
%TF.CreationDate,2022-03-05T00:23:36+01:00*%
%TF.ProjectId,door_if2,646f6f72-5f69-4663-922e-6b696361645f,rev?*%
%TF.SameCoordinates,Original*%
%TF.FileFunction,Legend,Bot*%
%TF.FilePolarity,Positive*%
%FSLAX46Y46*%
G04 Gerber Fmt 4.6, Leading zero omitted, Abs format (unit mm)*
G04 Created by KiCad (PCBNEW 5.1.6-c6e7f7d~87~ubuntu18.04.1) date 2022-03-05 00:23:36*
%MOMM*%
%LPD*%
G01*
G04 APERTURE LIST*
%ADD10C,0.120000*%
G04 APERTURE END LIST*
D10*
%TO.C,D2*%
X132500000Y-106850000D02*
X132500000Y-111150000D01*
X132500000Y-111150000D02*
X125200000Y-111150000D01*
X132500000Y-106850000D02*
X125200000Y-106850000D01*
%TO.C,D4*%
X132600000Y-99850000D02*
X125300000Y-99850000D01*
X132600000Y-104150000D02*
X125300000Y-104150000D01*
X132600000Y-99850000D02*
X132600000Y-104150000D01*
%TO.C,D6*%
X132600000Y-92850000D02*
X132600000Y-97150000D01*
X132600000Y-97150000D02*
X125300000Y-97150000D01*
X132600000Y-92850000D02*
X125300000Y-92850000D01*
%TO.C,D8*%
X132600000Y-85850000D02*
X132600000Y-90150000D01*
X132600000Y-90150000D02*
X125300000Y-90150000D01*
X132600000Y-85850000D02*
X125300000Y-85850000D01*
%TO.C,JP13*%
X142200000Y-92600000D02*
X141900000Y-92900000D01*
X142500000Y-92900000D02*
X141900000Y-92900000D01*
X142200000Y-92600000D02*
X142500000Y-92900000D01*
X142950000Y-92400000D02*
X142950000Y-90400000D01*
X138850000Y-92400000D02*
X142950000Y-92400000D01*
X138850000Y-90400000D02*
X138850000Y-92400000D01*
X142950000Y-90400000D02*
X138850000Y-90400000D01*
%TO.C,JP14*%
X142950000Y-87700000D02*
X138850000Y-87700000D01*
X138850000Y-87700000D02*
X138850000Y-89700000D01*
X138850000Y-89700000D02*
X142950000Y-89700000D01*
X142950000Y-89700000D02*
X142950000Y-87700000D01*
X142200000Y-89900000D02*
X142500000Y-90200000D01*
X142500000Y-90200000D02*
X141900000Y-90200000D01*
X142200000Y-89900000D02*
X141900000Y-90200000D01*
%TO.C,JP15*%
X142200000Y-87200000D02*
X141900000Y-87500000D01*
X142500000Y-87500000D02*
X141900000Y-87500000D01*
X142200000Y-87200000D02*
X142500000Y-87500000D01*
X142950000Y-87000000D02*
X142950000Y-85000000D01*
X138850000Y-87000000D02*
X142950000Y-87000000D01*
X138850000Y-85000000D02*
X138850000Y-87000000D01*
X142950000Y-85000000D02*
X138850000Y-85000000D01*
%TO.C,JP16*%
X142950000Y-82300000D02*
X138850000Y-82300000D01*
X138850000Y-82300000D02*
X138850000Y-84300000D01*
X138850000Y-84300000D02*
X142950000Y-84300000D01*
X142950000Y-84300000D02*
X142950000Y-82300000D01*
X142200000Y-84500000D02*
X142500000Y-84800000D01*
X142500000Y-84800000D02*
X141900000Y-84800000D01*
X142200000Y-84500000D02*
X141900000Y-84800000D01*
%TO.C,R21*%
X101728733Y-72090000D02*
X102071267Y-72090000D01*
X101728733Y-73110000D02*
X102071267Y-73110000D01*
%TO.C,R22*%
X122510000Y-78728733D02*
X122510000Y-79071267D01*
X121490000Y-78728733D02*
X121490000Y-79071267D01*
%TD*%
M02*
