%TF.GenerationSoftware,KiCad,Pcbnew,5.1.6-c6e7f7d~87~ubuntu18.04.1*%
%TF.CreationDate,2022-03-05T00:23:36+01:00*%
%TF.ProjectId,door_if2,646f6f72-5f69-4663-922e-6b696361645f,rev?*%
%TF.SameCoordinates,Original*%
%TF.FileFunction,Legend,Top*%
%TF.FilePolarity,Positive*%
%FSLAX46Y46*%
G04 Gerber Fmt 4.6, Leading zero omitted, Abs format (unit mm)*
G04 Created by KiCad (PCBNEW 5.1.6-c6e7f7d~87~ubuntu18.04.1) date 2022-03-05 00:23:36*
%MOMM*%
%LPD*%
G01*
G04 APERTURE LIST*
%ADD10C,0.300000*%
%ADD11C,0.120000*%
%ADD12C,0.150000*%
%ADD13C,0.304800*%
%ADD14C,0.066040*%
%ADD15C,0.152400*%
%ADD16C,0.050800*%
%ADD17C,0.088900*%
%ADD18C,0.100000*%
G04 APERTURE END LIST*
D10*
X121357142Y-114903571D02*
X122357142Y-114903571D01*
X121357142Y-116403571D01*
X122357142Y-116403571D01*
X122857142Y-115975000D02*
X123571428Y-115975000D01*
X122714285Y-116403571D02*
X123214285Y-114903571D01*
X123714285Y-116403571D01*
X124214285Y-116403571D02*
X124214285Y-114903571D01*
X124714285Y-115975000D01*
X125214285Y-114903571D01*
X125214285Y-116403571D01*
X127714285Y-116403571D02*
X127714285Y-114903571D01*
X127714285Y-116332142D02*
X127571428Y-116403571D01*
X127285714Y-116403571D01*
X127142857Y-116332142D01*
X127071428Y-116260714D01*
X127000000Y-116117857D01*
X127000000Y-115689285D01*
X127071428Y-115546428D01*
X127142857Y-115475000D01*
X127285714Y-115403571D01*
X127571428Y-115403571D01*
X127714285Y-115475000D01*
X128642857Y-116403571D02*
X128500000Y-116332142D01*
X128428571Y-116260714D01*
X128357142Y-116117857D01*
X128357142Y-115689285D01*
X128428571Y-115546428D01*
X128500000Y-115475000D01*
X128642857Y-115403571D01*
X128857142Y-115403571D01*
X129000000Y-115475000D01*
X129071428Y-115546428D01*
X129142857Y-115689285D01*
X129142857Y-116117857D01*
X129071428Y-116260714D01*
X129000000Y-116332142D01*
X128857142Y-116403571D01*
X128642857Y-116403571D01*
X130000000Y-116403571D02*
X129857142Y-116332142D01*
X129785714Y-116260714D01*
X129714285Y-116117857D01*
X129714285Y-115689285D01*
X129785714Y-115546428D01*
X129857142Y-115475000D01*
X130000000Y-115403571D01*
X130214285Y-115403571D01*
X130357142Y-115475000D01*
X130428571Y-115546428D01*
X130500000Y-115689285D01*
X130500000Y-116117857D01*
X130428571Y-116260714D01*
X130357142Y-116332142D01*
X130214285Y-116403571D01*
X130000000Y-116403571D01*
X131142857Y-116403571D02*
X131142857Y-115403571D01*
X131142857Y-115689285D02*
X131214285Y-115546428D01*
X131285714Y-115475000D01*
X131428571Y-115403571D01*
X131571428Y-115403571D01*
X131714285Y-116546428D02*
X132857142Y-116546428D01*
X133214285Y-116403571D02*
X133214285Y-115403571D01*
X133214285Y-114903571D02*
X133142857Y-114975000D01*
X133214285Y-115046428D01*
X133285714Y-114975000D01*
X133214285Y-114903571D01*
X133214285Y-115046428D01*
X133714285Y-115403571D02*
X134285714Y-115403571D01*
X133928571Y-116403571D02*
X133928571Y-115117857D01*
X134000000Y-114975000D01*
X134142857Y-114903571D01*
X134285714Y-114903571D01*
X134714285Y-115046428D02*
X134785714Y-114975000D01*
X134928571Y-114903571D01*
X135285714Y-114903571D01*
X135428571Y-114975000D01*
X135500000Y-115046428D01*
X135571428Y-115189285D01*
X135571428Y-115332142D01*
X135500000Y-115546428D01*
X134642857Y-116403571D01*
X135571428Y-116403571D01*
X118892857Y-117596428D02*
X118964285Y-117525000D01*
X119107142Y-117453571D01*
X119464285Y-117453571D01*
X119607142Y-117525000D01*
X119678571Y-117596428D01*
X119750000Y-117739285D01*
X119750000Y-117882142D01*
X119678571Y-118096428D01*
X118821428Y-118953571D01*
X119750000Y-118953571D01*
X120678571Y-117453571D02*
X120821428Y-117453571D01*
X120964285Y-117525000D01*
X121035714Y-117596428D01*
X121107142Y-117739285D01*
X121178571Y-118025000D01*
X121178571Y-118382142D01*
X121107142Y-118667857D01*
X121035714Y-118810714D01*
X120964285Y-118882142D01*
X120821428Y-118953571D01*
X120678571Y-118953571D01*
X120535714Y-118882142D01*
X120464285Y-118810714D01*
X120392857Y-118667857D01*
X120321428Y-118382142D01*
X120321428Y-118025000D01*
X120392857Y-117739285D01*
X120464285Y-117596428D01*
X120535714Y-117525000D01*
X120678571Y-117453571D01*
X121750000Y-117596428D02*
X121821428Y-117525000D01*
X121964285Y-117453571D01*
X122321428Y-117453571D01*
X122464285Y-117525000D01*
X122535714Y-117596428D01*
X122607142Y-117739285D01*
X122607142Y-117882142D01*
X122535714Y-118096428D01*
X121678571Y-118953571D01*
X122607142Y-118953571D01*
X123178571Y-117596428D02*
X123250000Y-117525000D01*
X123392857Y-117453571D01*
X123750000Y-117453571D01*
X123892857Y-117525000D01*
X123964285Y-117596428D01*
X124035714Y-117739285D01*
X124035714Y-117882142D01*
X123964285Y-118096428D01*
X123107142Y-118953571D01*
X124035714Y-118953571D01*
X124964285Y-117453571D02*
X125107142Y-117453571D01*
X125250000Y-117525000D01*
X125321428Y-117596428D01*
X125392857Y-117739285D01*
X125464285Y-118025000D01*
X125464285Y-118382142D01*
X125392857Y-118667857D01*
X125321428Y-118810714D01*
X125250000Y-118882142D01*
X125107142Y-118953571D01*
X124964285Y-118953571D01*
X124821428Y-118882142D01*
X124750000Y-118810714D01*
X124678571Y-118667857D01*
X124607142Y-118382142D01*
X124607142Y-118025000D01*
X124678571Y-117739285D01*
X124750000Y-117596428D01*
X124821428Y-117525000D01*
X124964285Y-117453571D01*
X125964285Y-117453571D02*
X126892857Y-117453571D01*
X126392857Y-118025000D01*
X126607142Y-118025000D01*
X126750000Y-118096428D01*
X126821428Y-118167857D01*
X126892857Y-118310714D01*
X126892857Y-118667857D01*
X126821428Y-118810714D01*
X126750000Y-118882142D01*
X126607142Y-118953571D01*
X126178571Y-118953571D01*
X126035714Y-118882142D01*
X125964285Y-118810714D01*
X127821428Y-117453571D02*
X127964285Y-117453571D01*
X128107142Y-117525000D01*
X128178571Y-117596428D01*
X128250000Y-117739285D01*
X128321428Y-118025000D01*
X128321428Y-118382142D01*
X128250000Y-118667857D01*
X128178571Y-118810714D01*
X128107142Y-118882142D01*
X127964285Y-118953571D01*
X127821428Y-118953571D01*
X127678571Y-118882142D01*
X127607142Y-118810714D01*
X127535714Y-118667857D01*
X127464285Y-118382142D01*
X127464285Y-118025000D01*
X127535714Y-117739285D01*
X127607142Y-117596428D01*
X127678571Y-117525000D01*
X127821428Y-117453571D01*
X129607142Y-117953571D02*
X129607142Y-118953571D01*
X129250000Y-117382142D02*
X128892857Y-118453571D01*
X129821428Y-118453571D01*
X132392857Y-118810714D02*
X132321428Y-118882142D01*
X132107142Y-118953571D01*
X131964285Y-118953571D01*
X131750000Y-118882142D01*
X131607142Y-118739285D01*
X131535714Y-118596428D01*
X131464285Y-118310714D01*
X131464285Y-118096428D01*
X131535714Y-117810714D01*
X131607142Y-117667857D01*
X131750000Y-117525000D01*
X131964285Y-117453571D01*
X132107142Y-117453571D01*
X132321428Y-117525000D01*
X132392857Y-117596428D01*
X133035714Y-118953571D02*
X133035714Y-117453571D01*
X133678571Y-118953571D02*
X133678571Y-118167857D01*
X133607142Y-118025000D01*
X133464285Y-117953571D01*
X133250000Y-117953571D01*
X133107142Y-118025000D01*
X133035714Y-118096428D01*
X134392857Y-118953571D02*
X134392857Y-117953571D01*
X134392857Y-118239285D02*
X134464285Y-118096428D01*
X134535714Y-118025000D01*
X134678571Y-117953571D01*
X134821428Y-117953571D01*
X135321428Y-118953571D02*
X135321428Y-117953571D01*
X135321428Y-117453571D02*
X135250000Y-117525000D01*
X135321428Y-117596428D01*
X135392857Y-117525000D01*
X135321428Y-117453571D01*
X135321428Y-117596428D01*
X135964285Y-118882142D02*
X136107142Y-118953571D01*
X136392857Y-118953571D01*
X136535714Y-118882142D01*
X136607142Y-118739285D01*
X136607142Y-118667857D01*
X136535714Y-118525000D01*
X136392857Y-118453571D01*
X136178571Y-118453571D01*
X136035714Y-118382142D01*
X135964285Y-118239285D01*
X135964285Y-118167857D01*
X136035714Y-118025000D01*
X136178571Y-117953571D01*
X136392857Y-117953571D01*
X136535714Y-118025000D01*
X138107142Y-118810714D02*
X138035714Y-118882142D01*
X137821428Y-118953571D01*
X137678571Y-118953571D01*
X137464285Y-118882142D01*
X137321428Y-118739285D01*
X137250000Y-118596428D01*
X137178571Y-118310714D01*
X137178571Y-118096428D01*
X137250000Y-117810714D01*
X137321428Y-117667857D01*
X137464285Y-117525000D01*
X137678571Y-117453571D01*
X137821428Y-117453571D01*
X138035714Y-117525000D01*
X138107142Y-117596428D01*
D11*
%TO.C,D1*%
X144635000Y-77260000D02*
X144635000Y-74800000D01*
X143165000Y-77260000D02*
X144635000Y-77260000D01*
X143165000Y-74800000D02*
X143165000Y-77260000D01*
%TO.C,D3*%
X123400000Y-109850000D02*
X130700000Y-109850000D01*
X123400000Y-114150000D02*
X130700000Y-114150000D01*
X123400000Y-109850000D02*
X123400000Y-114150000D01*
%TO.C,D5*%
X123400000Y-102450000D02*
X130700000Y-102450000D01*
X123400000Y-106750000D02*
X130700000Y-106750000D01*
X123400000Y-102450000D02*
X123400000Y-106750000D01*
%TO.C,D7*%
X123400000Y-95850000D02*
X130700000Y-95850000D01*
X123400000Y-100150000D02*
X130700000Y-100150000D01*
X123400000Y-95850000D02*
X123400000Y-100150000D01*
%TO.C,D9*%
X123400000Y-88850000D02*
X123400000Y-93150000D01*
X123400000Y-93150000D02*
X130700000Y-93150000D01*
X123400000Y-88850000D02*
X130700000Y-88850000D01*
D12*
%TO.C,J1*%
X133750000Y-81750000D02*
X145000000Y-81750000D01*
X133750000Y-85250000D02*
X145000000Y-85250000D01*
X133750000Y-88750000D02*
X145000000Y-88750000D01*
X133750000Y-95750000D02*
X145000000Y-95750000D01*
D13*
X141499680Y-108499740D02*
X141997520Y-107999360D01*
X141499680Y-108499740D02*
X141997520Y-108997580D01*
X143747580Y-108499740D02*
X141499680Y-108499740D01*
X133750000Y-110500000D02*
X133750000Y-81000000D01*
X145000000Y-110500000D02*
X133750000Y-110500000D01*
X145000000Y-81000000D02*
X133750000Y-81000000D01*
X145000000Y-110500000D02*
X145000000Y-81000000D01*
D12*
X133750000Y-106250000D02*
X145000000Y-106250000D01*
X133750000Y-102750000D02*
X145000000Y-102750000D01*
X133750000Y-99250000D02*
X145000000Y-99250000D01*
X133750000Y-92250000D02*
X145000000Y-92250000D01*
X133750000Y-109750000D02*
X145000000Y-109750000D01*
%TO.C,J2*%
X144705001Y-115805001D02*
G75*
G03*
X144705001Y-115805001I-3000000J0D01*
G01*
X86705001Y-115805001D02*
G75*
G03*
X86705001Y-115805001I-3000000J0D01*
G01*
X86705001Y-66805001D02*
G75*
G03*
X86705001Y-66805001I-3000000J0D01*
G01*
X144705001Y-66805001D02*
G75*
G03*
X144705001Y-66805001I-3000000J0D01*
G01*
X87305001Y-64265001D02*
X87305001Y-69345001D01*
X87305001Y-69345001D02*
X138105001Y-69345001D01*
X138105001Y-69345001D02*
X138105001Y-64265001D01*
X138105001Y-64265001D02*
X87305001Y-64265001D01*
D14*
%TO.C,J3*%
X92794000Y-77016000D02*
X92286000Y-77016000D01*
X92286000Y-77016000D02*
X92286000Y-77524000D01*
X92794000Y-77524000D02*
X92286000Y-77524000D01*
X92794000Y-77016000D02*
X92794000Y-77524000D01*
X95334000Y-77016000D02*
X94826000Y-77016000D01*
X94826000Y-77016000D02*
X94826000Y-77524000D01*
X95334000Y-77524000D02*
X94826000Y-77524000D01*
X95334000Y-77016000D02*
X95334000Y-77524000D01*
X90254000Y-77016000D02*
X89746000Y-77016000D01*
X89746000Y-77016000D02*
X89746000Y-77524000D01*
X90254000Y-77524000D02*
X89746000Y-77524000D01*
X90254000Y-77016000D02*
X90254000Y-77524000D01*
X85174000Y-77016000D02*
X84666000Y-77016000D01*
X84666000Y-77016000D02*
X84666000Y-77524000D01*
X85174000Y-77524000D02*
X84666000Y-77524000D01*
X85174000Y-77016000D02*
X85174000Y-77524000D01*
X87714000Y-77016000D02*
X87206000Y-77016000D01*
X87206000Y-77016000D02*
X87206000Y-77524000D01*
X87714000Y-77524000D02*
X87206000Y-77524000D01*
X87714000Y-77016000D02*
X87714000Y-77524000D01*
X92794000Y-74476000D02*
X92286000Y-74476000D01*
X92286000Y-74476000D02*
X92286000Y-74984000D01*
X92794000Y-74984000D02*
X92286000Y-74984000D01*
X92794000Y-74476000D02*
X92794000Y-74984000D01*
X95334000Y-74476000D02*
X94826000Y-74476000D01*
X94826000Y-74476000D02*
X94826000Y-74984000D01*
X95334000Y-74984000D02*
X94826000Y-74984000D01*
X95334000Y-74476000D02*
X95334000Y-74984000D01*
X90254000Y-74476000D02*
X89746000Y-74476000D01*
X89746000Y-74476000D02*
X89746000Y-74984000D01*
X90254000Y-74984000D02*
X89746000Y-74984000D01*
X90254000Y-74476000D02*
X90254000Y-74984000D01*
X85174000Y-74476000D02*
X84666000Y-74476000D01*
X84666000Y-74476000D02*
X84666000Y-74984000D01*
X85174000Y-74984000D02*
X84666000Y-74984000D01*
X85174000Y-74476000D02*
X85174000Y-74984000D01*
X87714000Y-74476000D02*
X87206000Y-74476000D01*
X87206000Y-74476000D02*
X87206000Y-74984000D01*
X87714000Y-74984000D02*
X87206000Y-74984000D01*
X87714000Y-74476000D02*
X87714000Y-74984000D01*
D15*
X98890000Y-79175000D02*
X81110000Y-79175000D01*
X81110000Y-72825000D02*
X81110000Y-79175000D01*
X98890000Y-79175000D02*
X98890000Y-72825000D01*
X100160000Y-80445000D02*
X98890000Y-80445000D01*
X79840000Y-71555000D02*
X84539000Y-71555000D01*
X79840000Y-71555000D02*
X79840000Y-80445000D01*
X100160000Y-80445000D02*
X100160000Y-71555000D01*
X81110000Y-72825000D02*
X85428000Y-72825000D01*
X87968000Y-73587000D02*
X92032000Y-73587000D01*
X92032000Y-72825000D02*
X92032000Y-73587000D01*
X92032000Y-72825000D02*
X98890000Y-72825000D01*
X92032000Y-72825000D02*
X92032000Y-72571000D01*
X87968000Y-73587000D02*
X87968000Y-72825000D01*
X87968000Y-72825000D02*
X87968000Y-72571000D01*
X81110000Y-80445000D02*
X81110000Y-80699000D01*
X81110000Y-80699000D02*
X82380000Y-80699000D01*
X82380000Y-80445000D02*
X82380000Y-80699000D01*
X81110000Y-80445000D02*
X79840000Y-80445000D01*
X89365000Y-80699000D02*
X90635000Y-80699000D01*
X89365000Y-80699000D02*
X89365000Y-80445000D01*
X89365000Y-80445000D02*
X82380000Y-80445000D01*
X90635000Y-80699000D02*
X90635000Y-80445000D01*
X97620000Y-80699000D02*
X98890000Y-80699000D01*
X98890000Y-80699000D02*
X98890000Y-80445000D01*
X97620000Y-80699000D02*
X97620000Y-80445000D01*
X97620000Y-80445000D02*
X90635000Y-80445000D01*
X87841000Y-71555000D02*
X87968000Y-71555000D01*
X87968000Y-71555000D02*
X92032000Y-71555000D01*
X86952000Y-72825000D02*
X86952000Y-72571000D01*
X86952000Y-72825000D02*
X87968000Y-72825000D01*
X85428000Y-72825000D02*
X85428000Y-72571000D01*
X85428000Y-72825000D02*
X86952000Y-72825000D01*
X87841000Y-71555000D02*
X87460000Y-72063000D01*
X84920000Y-72063000D02*
X84539000Y-71555000D01*
X84920000Y-72063000D02*
X85428000Y-72063000D01*
D16*
X86952000Y-72571000D02*
X87968000Y-72571000D01*
D15*
X87968000Y-72571000D02*
X87968000Y-71555000D01*
D16*
X85428000Y-72571000D02*
X80856000Y-72571000D01*
X80856000Y-72571000D02*
X80856000Y-79429000D01*
X80856000Y-79429000D02*
X99144000Y-79429000D01*
X99144000Y-79429000D02*
X99144000Y-72571000D01*
X99144000Y-72571000D02*
X92032000Y-72571000D01*
D15*
X92032000Y-72571000D02*
X92032000Y-71555000D01*
X86952000Y-72571000D02*
X86952000Y-72063000D01*
X86952000Y-72063000D02*
X87460000Y-72063000D01*
X85428000Y-72571000D02*
X85428000Y-72063000D01*
X85428000Y-72063000D02*
X86952000Y-72063000D01*
X92032000Y-71555000D02*
X94445000Y-71555000D01*
X94445000Y-71682000D02*
X94445000Y-71555000D01*
X94445000Y-71682000D02*
X95715000Y-71682000D01*
X95715000Y-71555000D02*
X95715000Y-71682000D01*
X95715000Y-71555000D02*
X100160000Y-71555000D01*
D12*
%TO.C,J4*%
X91250000Y-82250000D02*
X80000000Y-82250000D01*
X91250000Y-99750000D02*
X80000000Y-99750000D01*
X91250000Y-92750000D02*
X80000000Y-92750000D01*
X91250000Y-89250000D02*
X80000000Y-89250000D01*
X91250000Y-85750000D02*
X80000000Y-85750000D01*
D13*
X80000000Y-81500000D02*
X80000000Y-111000000D01*
X80000000Y-111000000D02*
X91250000Y-111000000D01*
X80000000Y-81500000D02*
X91250000Y-81500000D01*
X91250000Y-81500000D02*
X91250000Y-111000000D01*
X81252420Y-83500260D02*
X83500320Y-83500260D01*
X83500320Y-83500260D02*
X83002480Y-83002420D01*
X83500320Y-83500260D02*
X83002480Y-84000640D01*
D12*
X91250000Y-96250000D02*
X80000000Y-96250000D01*
X91250000Y-103250000D02*
X80000000Y-103250000D01*
X91250000Y-106750000D02*
X80000000Y-106750000D01*
X91250000Y-110250000D02*
X80000000Y-110250000D01*
D15*
%TO.C,J5*%
X117715000Y-71555000D02*
X122160000Y-71555000D01*
X117715000Y-71555000D02*
X117715000Y-71682000D01*
X116445000Y-71682000D02*
X117715000Y-71682000D01*
X116445000Y-71682000D02*
X116445000Y-71555000D01*
X114032000Y-71555000D02*
X116445000Y-71555000D01*
X107428000Y-72063000D02*
X108952000Y-72063000D01*
X107428000Y-72571000D02*
X107428000Y-72063000D01*
X108952000Y-72063000D02*
X109460000Y-72063000D01*
X108952000Y-72571000D02*
X108952000Y-72063000D01*
X114032000Y-72571000D02*
X114032000Y-71555000D01*
D16*
X121144000Y-72571000D02*
X114032000Y-72571000D01*
X121144000Y-79429000D02*
X121144000Y-72571000D01*
X102856000Y-79429000D02*
X121144000Y-79429000D01*
X102856000Y-72571000D02*
X102856000Y-79429000D01*
X107428000Y-72571000D02*
X102856000Y-72571000D01*
D15*
X109968000Y-72571000D02*
X109968000Y-71555000D01*
D16*
X108952000Y-72571000D02*
X109968000Y-72571000D01*
D15*
X106920000Y-72063000D02*
X107428000Y-72063000D01*
X106920000Y-72063000D02*
X106539000Y-71555000D01*
X109841000Y-71555000D02*
X109460000Y-72063000D01*
X107428000Y-72825000D02*
X108952000Y-72825000D01*
X107428000Y-72825000D02*
X107428000Y-72571000D01*
X108952000Y-72825000D02*
X109968000Y-72825000D01*
X108952000Y-72825000D02*
X108952000Y-72571000D01*
X109968000Y-71555000D02*
X114032000Y-71555000D01*
X109841000Y-71555000D02*
X109968000Y-71555000D01*
X119620000Y-80445000D02*
X112635000Y-80445000D01*
X119620000Y-80699000D02*
X119620000Y-80445000D01*
X120890000Y-80699000D02*
X120890000Y-80445000D01*
X119620000Y-80699000D02*
X120890000Y-80699000D01*
X112635000Y-80699000D02*
X112635000Y-80445000D01*
X111365000Y-80445000D02*
X104380000Y-80445000D01*
X111365000Y-80699000D02*
X111365000Y-80445000D01*
X111365000Y-80699000D02*
X112635000Y-80699000D01*
X103110000Y-80445000D02*
X101840000Y-80445000D01*
X104380000Y-80445000D02*
X104380000Y-80699000D01*
X103110000Y-80699000D02*
X104380000Y-80699000D01*
X103110000Y-80445000D02*
X103110000Y-80699000D01*
X109968000Y-72825000D02*
X109968000Y-72571000D01*
X109968000Y-73587000D02*
X109968000Y-72825000D01*
X114032000Y-72825000D02*
X114032000Y-72571000D01*
X114032000Y-72825000D02*
X120890000Y-72825000D01*
X114032000Y-72825000D02*
X114032000Y-73587000D01*
X109968000Y-73587000D02*
X114032000Y-73587000D01*
X103110000Y-72825000D02*
X107428000Y-72825000D01*
X122160000Y-80445000D02*
X122160000Y-71555000D01*
X101840000Y-71555000D02*
X101840000Y-80445000D01*
X101840000Y-71555000D02*
X106539000Y-71555000D01*
X122160000Y-80445000D02*
X120890000Y-80445000D01*
X120890000Y-79175000D02*
X120890000Y-72825000D01*
X103110000Y-72825000D02*
X103110000Y-79175000D01*
X120890000Y-79175000D02*
X103110000Y-79175000D01*
D14*
X109714000Y-74476000D02*
X109714000Y-74984000D01*
X109714000Y-74984000D02*
X109206000Y-74984000D01*
X109206000Y-74476000D02*
X109206000Y-74984000D01*
X109714000Y-74476000D02*
X109206000Y-74476000D01*
X107174000Y-74476000D02*
X107174000Y-74984000D01*
X107174000Y-74984000D02*
X106666000Y-74984000D01*
X106666000Y-74476000D02*
X106666000Y-74984000D01*
X107174000Y-74476000D02*
X106666000Y-74476000D01*
X112254000Y-74476000D02*
X112254000Y-74984000D01*
X112254000Y-74984000D02*
X111746000Y-74984000D01*
X111746000Y-74476000D02*
X111746000Y-74984000D01*
X112254000Y-74476000D02*
X111746000Y-74476000D01*
X117334000Y-74476000D02*
X117334000Y-74984000D01*
X117334000Y-74984000D02*
X116826000Y-74984000D01*
X116826000Y-74476000D02*
X116826000Y-74984000D01*
X117334000Y-74476000D02*
X116826000Y-74476000D01*
X114794000Y-74476000D02*
X114794000Y-74984000D01*
X114794000Y-74984000D02*
X114286000Y-74984000D01*
X114286000Y-74476000D02*
X114286000Y-74984000D01*
X114794000Y-74476000D02*
X114286000Y-74476000D01*
X109714000Y-77016000D02*
X109714000Y-77524000D01*
X109714000Y-77524000D02*
X109206000Y-77524000D01*
X109206000Y-77016000D02*
X109206000Y-77524000D01*
X109714000Y-77016000D02*
X109206000Y-77016000D01*
X107174000Y-77016000D02*
X107174000Y-77524000D01*
X107174000Y-77524000D02*
X106666000Y-77524000D01*
X106666000Y-77016000D02*
X106666000Y-77524000D01*
X107174000Y-77016000D02*
X106666000Y-77016000D01*
X112254000Y-77016000D02*
X112254000Y-77524000D01*
X112254000Y-77524000D02*
X111746000Y-77524000D01*
X111746000Y-77016000D02*
X111746000Y-77524000D01*
X112254000Y-77016000D02*
X111746000Y-77016000D01*
X117334000Y-77016000D02*
X117334000Y-77524000D01*
X117334000Y-77524000D02*
X116826000Y-77524000D01*
X116826000Y-77016000D02*
X116826000Y-77524000D01*
X117334000Y-77016000D02*
X116826000Y-77016000D01*
X114794000Y-77016000D02*
X114794000Y-77524000D01*
X114794000Y-77524000D02*
X114286000Y-77524000D01*
X114286000Y-77016000D02*
X114286000Y-77524000D01*
X114794000Y-77016000D02*
X114286000Y-77016000D01*
D11*
%TO.C,JP1*%
X97050000Y-86800000D02*
X92950000Y-86800000D01*
X92950000Y-86800000D02*
X92950000Y-84800000D01*
X92950000Y-84800000D02*
X97050000Y-84800000D01*
X97050000Y-84800000D02*
X97050000Y-86800000D01*
X96300000Y-84600000D02*
X96600000Y-84300000D01*
X96600000Y-84300000D02*
X96000000Y-84300000D01*
X96300000Y-84600000D02*
X96000000Y-84300000D01*
%TO.C,JP2*%
X97050000Y-89500000D02*
X92950000Y-89500000D01*
X92950000Y-89500000D02*
X92950000Y-87500000D01*
X92950000Y-87500000D02*
X97050000Y-87500000D01*
X97050000Y-87500000D02*
X97050000Y-89500000D01*
X96300000Y-87300000D02*
X96600000Y-87000000D01*
X96600000Y-87000000D02*
X96000000Y-87000000D01*
X96300000Y-87300000D02*
X96000000Y-87000000D01*
%TO.C,JP3*%
X96300000Y-90100000D02*
X96000000Y-89800000D01*
X96600000Y-89800000D02*
X96000000Y-89800000D01*
X96300000Y-90100000D02*
X96600000Y-89800000D01*
X97050000Y-90300000D02*
X97050000Y-92300000D01*
X92950000Y-90300000D02*
X97050000Y-90300000D01*
X92950000Y-92300000D02*
X92950000Y-90300000D01*
X97050000Y-92300000D02*
X92950000Y-92300000D01*
%TO.C,JP4*%
X97050000Y-95000000D02*
X92950000Y-95000000D01*
X92950000Y-95000000D02*
X92950000Y-93000000D01*
X92950000Y-93000000D02*
X97050000Y-93000000D01*
X97050000Y-93000000D02*
X97050000Y-95000000D01*
X96300000Y-92800000D02*
X96600000Y-92500000D01*
X96600000Y-92500000D02*
X96000000Y-92500000D01*
X96300000Y-92800000D02*
X96000000Y-92500000D01*
%TO.C,JP5*%
X96400000Y-95600000D02*
X96100000Y-95300000D01*
X96700000Y-95300000D02*
X96100000Y-95300000D01*
X96400000Y-95600000D02*
X96700000Y-95300000D01*
X97150000Y-95800000D02*
X97150000Y-97800000D01*
X93050000Y-95800000D02*
X97150000Y-95800000D01*
X93050000Y-97800000D02*
X93050000Y-95800000D01*
X97150000Y-97800000D02*
X93050000Y-97800000D01*
%TO.C,JP6*%
X97050000Y-100700000D02*
X92950000Y-100700000D01*
X92950000Y-100700000D02*
X92950000Y-98700000D01*
X92950000Y-98700000D02*
X97050000Y-98700000D01*
X97050000Y-98700000D02*
X97050000Y-100700000D01*
X96300000Y-98500000D02*
X96600000Y-98200000D01*
X96600000Y-98200000D02*
X96000000Y-98200000D01*
X96300000Y-98500000D02*
X96000000Y-98200000D01*
%TO.C,JP7*%
X97050000Y-103600000D02*
X92950000Y-103600000D01*
X92950000Y-103600000D02*
X92950000Y-101600000D01*
X92950000Y-101600000D02*
X97050000Y-101600000D01*
X97050000Y-101600000D02*
X97050000Y-103600000D01*
X96300000Y-101400000D02*
X96600000Y-101100000D01*
X96600000Y-101100000D02*
X96000000Y-101100000D01*
X96300000Y-101400000D02*
X96000000Y-101100000D01*
%TO.C,JP8*%
X96300000Y-104400000D02*
X96000000Y-104100000D01*
X96600000Y-104100000D02*
X96000000Y-104100000D01*
X96300000Y-104400000D02*
X96600000Y-104100000D01*
X97050000Y-104600000D02*
X97050000Y-106600000D01*
X92950000Y-104600000D02*
X97050000Y-104600000D01*
X92950000Y-106600000D02*
X92950000Y-104600000D01*
X97050000Y-106600000D02*
X92950000Y-106600000D01*
%TO.C,JP9*%
X96200000Y-107100000D02*
X95900000Y-106800000D01*
X96500000Y-106800000D02*
X95900000Y-106800000D01*
X96200000Y-107100000D02*
X96500000Y-106800000D01*
X96950000Y-107300000D02*
X96950000Y-109300000D01*
X92850000Y-107300000D02*
X96950000Y-107300000D01*
X92850000Y-109300000D02*
X92850000Y-107300000D01*
X96950000Y-109300000D02*
X92850000Y-109300000D01*
%TO.C,JP10*%
X96850000Y-112100000D02*
X92750000Y-112100000D01*
X92750000Y-112100000D02*
X92750000Y-110100000D01*
X92750000Y-110100000D02*
X96850000Y-110100000D01*
X96850000Y-110100000D02*
X96850000Y-112100000D01*
X96100000Y-109900000D02*
X96400000Y-109600000D01*
X96400000Y-109600000D02*
X95800000Y-109600000D01*
X96100000Y-109900000D02*
X95800000Y-109600000D01*
%TO.C,JP11*%
X96100000Y-112800000D02*
X95800000Y-112500000D01*
X96400000Y-112500000D02*
X95800000Y-112500000D01*
X96100000Y-112800000D02*
X96400000Y-112500000D01*
X96850000Y-113000000D02*
X96850000Y-115000000D01*
X92750000Y-113000000D02*
X96850000Y-113000000D01*
X92750000Y-115000000D02*
X92750000Y-113000000D01*
X96850000Y-115000000D02*
X92750000Y-115000000D01*
%TO.C,JP12*%
X96850000Y-117900000D02*
X92750000Y-117900000D01*
X92750000Y-117900000D02*
X92750000Y-115900000D01*
X92750000Y-115900000D02*
X96850000Y-115900000D01*
X96850000Y-115900000D02*
X96850000Y-117900000D01*
X96100000Y-115700000D02*
X96400000Y-115400000D01*
X96400000Y-115400000D02*
X95800000Y-115400000D01*
X96100000Y-115700000D02*
X95800000Y-115400000D01*
%TO.C,JP17*%
X111500000Y-113200000D02*
X111800000Y-113500000D01*
X111200000Y-113500000D02*
X111800000Y-113500000D01*
X111500000Y-113200000D02*
X111200000Y-113500000D01*
X110750000Y-113000000D02*
X110750000Y-111000000D01*
X114850000Y-113000000D02*
X110750000Y-113000000D01*
X114850000Y-111000000D02*
X114850000Y-113000000D01*
X110750000Y-111000000D02*
X114850000Y-111000000D01*
%TO.C,JP18*%
X114850000Y-110300000D02*
X110750000Y-110300000D01*
X110750000Y-110300000D02*
X110750000Y-108300000D01*
X110750000Y-108300000D02*
X114850000Y-108300000D01*
X114850000Y-108300000D02*
X114850000Y-110300000D01*
X114100000Y-108100000D02*
X114400000Y-107800000D01*
X114400000Y-107800000D02*
X113800000Y-107800000D01*
X114100000Y-108100000D02*
X113800000Y-107800000D01*
%TO.C,JP19*%
X110750000Y-103400000D02*
X114850000Y-103400000D01*
X114850000Y-103400000D02*
X114850000Y-105400000D01*
X114850000Y-105400000D02*
X110750000Y-105400000D01*
X110750000Y-105400000D02*
X110750000Y-103400000D01*
X111500000Y-105600000D02*
X111200000Y-105900000D01*
X111200000Y-105900000D02*
X111800000Y-105900000D01*
X111500000Y-105600000D02*
X111800000Y-105900000D01*
%TO.C,JP20*%
X114100000Y-100500000D02*
X113800000Y-100200000D01*
X114400000Y-100200000D02*
X113800000Y-100200000D01*
X114100000Y-100500000D02*
X114400000Y-100200000D01*
X114850000Y-100700000D02*
X114850000Y-102700000D01*
X110750000Y-100700000D02*
X114850000Y-100700000D01*
X110750000Y-102700000D02*
X110750000Y-100700000D01*
X114850000Y-102700000D02*
X110750000Y-102700000D01*
%TO.C,JP21*%
X111500000Y-98500000D02*
X111800000Y-98800000D01*
X111200000Y-98800000D02*
X111800000Y-98800000D01*
X111500000Y-98500000D02*
X111200000Y-98800000D01*
X110750000Y-98300000D02*
X110750000Y-96300000D01*
X114850000Y-98300000D02*
X110750000Y-98300000D01*
X114850000Y-96300000D02*
X114850000Y-98300000D01*
X110750000Y-96300000D02*
X114850000Y-96300000D01*
%TO.C,JP22*%
X114100000Y-93400000D02*
X113800000Y-93100000D01*
X114400000Y-93100000D02*
X113800000Y-93100000D01*
X114100000Y-93400000D02*
X114400000Y-93100000D01*
X114850000Y-93600000D02*
X114850000Y-95600000D01*
X110750000Y-93600000D02*
X114850000Y-93600000D01*
X110750000Y-95600000D02*
X110750000Y-93600000D01*
X114850000Y-95600000D02*
X110750000Y-95600000D01*
%TO.C,JP23*%
X111500000Y-91600000D02*
X111800000Y-91900000D01*
X111200000Y-91900000D02*
X111800000Y-91900000D01*
X111500000Y-91600000D02*
X111200000Y-91900000D01*
X110750000Y-91400000D02*
X110750000Y-89400000D01*
X114850000Y-91400000D02*
X110750000Y-91400000D01*
X114850000Y-89400000D02*
X114850000Y-91400000D01*
X110750000Y-89400000D02*
X114850000Y-89400000D01*
%TO.C,JP24*%
X114850000Y-88700000D02*
X110750000Y-88700000D01*
X110750000Y-88700000D02*
X110750000Y-86700000D01*
X110750000Y-86700000D02*
X114850000Y-86700000D01*
X114850000Y-86700000D02*
X114850000Y-88700000D01*
X114100000Y-86500000D02*
X114400000Y-86200000D01*
X114400000Y-86200000D02*
X113800000Y-86200000D01*
X114100000Y-86500000D02*
X113800000Y-86200000D01*
%TO.C,Q1*%
X119200000Y-107440000D02*
X115750000Y-107440000D01*
X119200000Y-107440000D02*
X121150000Y-107440000D01*
X119200000Y-112560000D02*
X117250000Y-112560000D01*
X119200000Y-112560000D02*
X121150000Y-112560000D01*
%TO.C,Q2*%
X119200000Y-105460000D02*
X121150000Y-105460000D01*
X119200000Y-105460000D02*
X117250000Y-105460000D01*
X119200000Y-100340000D02*
X121150000Y-100340000D01*
X119200000Y-100340000D02*
X115750000Y-100340000D01*
%TO.C,Q3*%
X119200000Y-98560000D02*
X121150000Y-98560000D01*
X119200000Y-98560000D02*
X117250000Y-98560000D01*
X119200000Y-93440000D02*
X121150000Y-93440000D01*
X119200000Y-93440000D02*
X115750000Y-93440000D01*
%TO.C,Q4*%
X119200000Y-86540000D02*
X115750000Y-86540000D01*
X119200000Y-86540000D02*
X121150000Y-86540000D01*
X119200000Y-91660000D02*
X117250000Y-91660000D01*
X119200000Y-91660000D02*
X121150000Y-91660000D01*
%TO.C,R1*%
X106790000Y-82628733D02*
X106790000Y-82971267D01*
X107810000Y-82628733D02*
X107810000Y-82971267D01*
%TO.C,R2*%
X105190000Y-82628733D02*
X105190000Y-82971267D01*
X106210000Y-82628733D02*
X106210000Y-82971267D01*
%TO.C,R3*%
X103590000Y-82628733D02*
X103590000Y-82971267D01*
X104610000Y-82628733D02*
X104610000Y-82971267D01*
%TO.C,R4*%
X143390000Y-72171267D02*
X143390000Y-71828733D01*
X144410000Y-72171267D02*
X144410000Y-71828733D01*
%TO.C,R5*%
X101990000Y-82628733D02*
X101990000Y-82971267D01*
X103010000Y-82628733D02*
X103010000Y-82971267D01*
%TO.C,R6*%
X106228733Y-100310000D02*
X106571267Y-100310000D01*
X106228733Y-99290000D02*
X106571267Y-99290000D01*
%TO.C,R7*%
X106228733Y-101910000D02*
X106571267Y-101910000D01*
X106228733Y-100890000D02*
X106571267Y-100890000D01*
%TO.C,R8*%
X106228733Y-103510000D02*
X106571267Y-103510000D01*
X106228733Y-102490000D02*
X106571267Y-102490000D01*
%TO.C,R9*%
X106228733Y-105110000D02*
X106571267Y-105110000D01*
X106228733Y-104090000D02*
X106571267Y-104090000D01*
%TO.C,R10*%
X97990000Y-85971267D02*
X97990000Y-85628733D01*
X99010000Y-85971267D02*
X99010000Y-85628733D01*
%TO.C,R11*%
X99010000Y-91328733D02*
X99010000Y-91671267D01*
X97990000Y-91328733D02*
X97990000Y-91671267D01*
%TO.C,R12*%
X99010000Y-96628733D02*
X99010000Y-96971267D01*
X97990000Y-96628733D02*
X97990000Y-96971267D01*
%TO.C,R13*%
X118153733Y-113090000D02*
X118496267Y-113090000D01*
X118153733Y-114110000D02*
X118496267Y-114110000D01*
%TO.C,R14*%
X99010000Y-102628733D02*
X99010000Y-102971267D01*
X97990000Y-102628733D02*
X97990000Y-102971267D01*
%TO.C,R15*%
X99010000Y-108028733D02*
X99010000Y-108371267D01*
X97990000Y-108028733D02*
X97990000Y-108371267D01*
%TO.C,R16*%
X99010000Y-113928733D02*
X99010000Y-114271267D01*
X97990000Y-113928733D02*
X97990000Y-114271267D01*
%TO.C,R17*%
X111928733Y-114690000D02*
X112271267Y-114690000D01*
X111928733Y-115710000D02*
X112271267Y-115710000D01*
%TO.C,R18*%
X111928733Y-117090000D02*
X112271267Y-117090000D01*
X111928733Y-118110000D02*
X112271267Y-118110000D01*
%TO.C,R19*%
X129571267Y-69990000D02*
X129228733Y-69990000D01*
X129571267Y-71010000D02*
X129228733Y-71010000D01*
%TO.C,R20*%
X101928733Y-70810000D02*
X102271267Y-70810000D01*
X101928733Y-69790000D02*
X102271267Y-69790000D01*
%TO.C,R23*%
X113128733Y-106590000D02*
X113471267Y-106590000D01*
X113128733Y-107610000D02*
X113471267Y-107610000D01*
%TO.C,R24*%
X113328733Y-98990000D02*
X113671267Y-98990000D01*
X113328733Y-100010000D02*
X113671267Y-100010000D01*
%TO.C,R25*%
X118671267Y-91990000D02*
X118328733Y-91990000D01*
X118671267Y-93010000D02*
X118328733Y-93010000D01*
%TO.C,R26*%
X113228733Y-86010000D02*
X113571267Y-86010000D01*
X113228733Y-84990000D02*
X113571267Y-84990000D01*
%TO.C,R27*%
X118328733Y-105890000D02*
X118671267Y-105890000D01*
X118328733Y-106910000D02*
X118671267Y-106910000D01*
%TO.C,R28*%
X118328733Y-98890000D02*
X118671267Y-98890000D01*
X118328733Y-99910000D02*
X118671267Y-99910000D01*
%TO.C,R29*%
X113471267Y-92090000D02*
X113128733Y-92090000D01*
X113471267Y-93110000D02*
X113128733Y-93110000D01*
%TO.C,U1*%
X101600000Y-98200000D02*
X106400000Y-98200000D01*
X101600000Y-87400000D02*
X106400000Y-87400000D01*
X101600000Y-87800000D02*
X100200000Y-87800000D01*
X101600000Y-87400000D02*
X101600000Y-87800000D01*
%TO.C,U2*%
X101600000Y-107100000D02*
X101600000Y-107500000D01*
X101600000Y-107500000D02*
X100200000Y-107500000D01*
X101600000Y-107100000D02*
X106400000Y-107100000D01*
X101600000Y-117900000D02*
X106400000Y-117900000D01*
%TO.C,U3*%
X125200000Y-83000000D02*
X130000000Y-83000000D01*
X125200000Y-72200000D02*
X130000000Y-72200000D01*
X125200000Y-72600000D02*
X123800000Y-72600000D01*
X125200000Y-72200000D02*
X125200000Y-72600000D01*
%TO.C,R30*%
X133728733Y-72190000D02*
X134071267Y-72190000D01*
X133728733Y-73210000D02*
X134071267Y-73210000D01*
%TO.C,R31*%
X133728733Y-76110000D02*
X134071267Y-76110000D01*
X133728733Y-75090000D02*
X134071267Y-75090000D01*
%TO.C,R32*%
X133728733Y-77590000D02*
X134071267Y-77590000D01*
X133728733Y-78610000D02*
X134071267Y-78610000D01*
%TO.C,R33*%
X130671267Y-84510000D02*
X130328733Y-84510000D01*
X130671267Y-83490000D02*
X130328733Y-83490000D01*
%TO.C,J3*%
D17*
X96622142Y-76695476D02*
X96682619Y-76635000D01*
X96803571Y-76574523D01*
X97105952Y-76574523D01*
X97226904Y-76635000D01*
X97287380Y-76695476D01*
X97347857Y-76816428D01*
X97347857Y-76937380D01*
X97287380Y-77118809D01*
X96561666Y-77844523D01*
X97347857Y-77844523D01*
X97347857Y-75304523D02*
X96622142Y-75304523D01*
X96985000Y-75304523D02*
X96985000Y-74034523D01*
X96864047Y-74215952D01*
X96743095Y-74336904D01*
X96622142Y-74397380D01*
D18*
X85085714Y-80661904D02*
X85352380Y-81461904D01*
X85619047Y-80661904D01*
X85847619Y-81233333D02*
X86228571Y-81233333D01*
X85771428Y-81461904D02*
X86038095Y-80661904D01*
X86304761Y-81461904D01*
X86952380Y-81461904D02*
X86571428Y-81461904D01*
X86571428Y-80661904D01*
X87219047Y-80661904D02*
X87219047Y-81309523D01*
X87257142Y-81385714D01*
X87295238Y-81423809D01*
X87371428Y-81461904D01*
X87523809Y-81461904D01*
X87600000Y-81423809D01*
X87638095Y-81385714D01*
X87676190Y-81309523D01*
X87676190Y-80661904D01*
X88057142Y-81042857D02*
X88323809Y-81042857D01*
X88438095Y-81461904D02*
X88057142Y-81461904D01*
X88057142Y-80661904D01*
X88438095Y-80661904D01*
%TO.C,J5*%
X107085714Y-80661904D02*
X107352380Y-81461904D01*
X107619047Y-80661904D01*
X107847619Y-81233333D02*
X108228571Y-81233333D01*
X107771428Y-81461904D02*
X108038095Y-80661904D01*
X108304761Y-81461904D01*
X108952380Y-81461904D02*
X108571428Y-81461904D01*
X108571428Y-80661904D01*
X109219047Y-80661904D02*
X109219047Y-81309523D01*
X109257142Y-81385714D01*
X109295238Y-81423809D01*
X109371428Y-81461904D01*
X109523809Y-81461904D01*
X109600000Y-81423809D01*
X109638095Y-81385714D01*
X109676190Y-81309523D01*
X109676190Y-80661904D01*
X110057142Y-81042857D02*
X110323809Y-81042857D01*
X110438095Y-81461904D02*
X110057142Y-81461904D01*
X110057142Y-80661904D01*
X110438095Y-80661904D01*
D17*
X119347857Y-75304523D02*
X118622142Y-75304523D01*
X118985000Y-75304523D02*
X118985000Y-74034523D01*
X118864047Y-74215952D01*
X118743095Y-74336904D01*
X118622142Y-74397380D01*
X118622142Y-76695476D02*
X118682619Y-76635000D01*
X118803571Y-76574523D01*
X119105952Y-76574523D01*
X119226904Y-76635000D01*
X119287380Y-76695476D01*
X119347857Y-76816428D01*
X119347857Y-76937380D01*
X119287380Y-77118809D01*
X118561666Y-77844523D01*
X119347857Y-77844523D01*
%TD*%
M02*
