%TF.GenerationSoftware,KiCad,Pcbnew,7.0.8-7.0.8~ubuntu22.04.1*%
%TF.CreationDate,2023-11-03T21:58:31+01:00*%
%TF.ProjectId,door_if4_usb,646f6f72-5f69-4663-945f-7573622e6b69,rev?*%
%TF.SameCoordinates,Original*%
%TF.FileFunction,Legend,Bot*%
%TF.FilePolarity,Positive*%
%FSLAX46Y46*%
G04 Gerber Fmt 4.6, Leading zero omitted, Abs format (unit mm)*
G04 Created by KiCad (PCBNEW 7.0.8-7.0.8~ubuntu22.04.1) date 2023-11-03 21:58:31*
%MOMM*%
%LPD*%
G01*
G04 APERTURE LIST*
%ADD10C,0.100000*%
%ADD11C,0.150000*%
%ADD12C,0.120000*%
%ADD13C,2.000000*%
%ADD14C,3.200000*%
%ADD15R,3.500000X1.700000*%
%ADD16R,1.700000X3.500000*%
%ADD17O,1.800000X1.800000*%
%ADD18O,1.500000X1.500000*%
G04 APERTURE END LIST*
D10*
X123726109Y-120344047D02*
X124130871Y-120344047D01*
X124130871Y-120344047D02*
X124178490Y-120367857D01*
X124178490Y-120367857D02*
X124202300Y-120391666D01*
X124202300Y-120391666D02*
X124226109Y-120439285D01*
X124226109Y-120439285D02*
X124226109Y-120534523D01*
X124226109Y-120534523D02*
X124202300Y-120582142D01*
X124202300Y-120582142D02*
X124178490Y-120605952D01*
X124178490Y-120605952D02*
X124130871Y-120629761D01*
X124130871Y-120629761D02*
X123726109Y-120629761D01*
X124226109Y-121129762D02*
X124226109Y-120844048D01*
X124226109Y-120986905D02*
X123726109Y-120986905D01*
X123726109Y-120986905D02*
X123797538Y-120939286D01*
X123797538Y-120939286D02*
X123845157Y-120891667D01*
X123845157Y-120891667D02*
X123868966Y-120844048D01*
D11*
X120580868Y-106714998D02*
X120607805Y-106634185D01*
X120607805Y-106634185D02*
X120688618Y-106553373D01*
X120688618Y-106553373D02*
X120796367Y-106499498D01*
X120796367Y-106499498D02*
X120904117Y-106499498D01*
X120904117Y-106499498D02*
X120984929Y-106526436D01*
X120984929Y-106526436D02*
X121119616Y-106607248D01*
X121119616Y-106607248D02*
X121200428Y-106688060D01*
X121200428Y-106688060D02*
X121281241Y-106822747D01*
X121281241Y-106822747D02*
X121308178Y-106903560D01*
X121308178Y-106903560D02*
X121308178Y-107011309D01*
X121308178Y-107011309D02*
X121254303Y-107119059D01*
X121254303Y-107119059D02*
X121200428Y-107172934D01*
X121200428Y-107172934D02*
X121092679Y-107226808D01*
X121092679Y-107226808D02*
X121038804Y-107226808D01*
X121038804Y-107226808D02*
X120850242Y-107038247D01*
X120850242Y-107038247D02*
X120957992Y-106930497D01*
X120850242Y-107523120D02*
X120284557Y-106957434D01*
X120284557Y-106957434D02*
X120069057Y-107172934D01*
X120069057Y-107172934D02*
X120042120Y-107253746D01*
X120042120Y-107253746D02*
X120042120Y-107307621D01*
X120042120Y-107307621D02*
X120069057Y-107388433D01*
X120069057Y-107388433D02*
X120149870Y-107469245D01*
X120149870Y-107469245D02*
X120230682Y-107496182D01*
X120230682Y-107496182D02*
X120284557Y-107496182D01*
X120284557Y-107496182D02*
X120365369Y-107469245D01*
X120365369Y-107469245D02*
X120580868Y-107253746D01*
X119799683Y-107550057D02*
X119745809Y-107550057D01*
X119745809Y-107550057D02*
X119664996Y-107576995D01*
X119664996Y-107576995D02*
X119530309Y-107711682D01*
X119530309Y-107711682D02*
X119503372Y-107792494D01*
X119503372Y-107792494D02*
X119503372Y-107846369D01*
X119503372Y-107846369D02*
X119530309Y-107927181D01*
X119530309Y-107927181D02*
X119584184Y-107981056D01*
X119584184Y-107981056D02*
X119691934Y-108034930D01*
X119691934Y-108034930D02*
X120338431Y-108034930D01*
X120338431Y-108034930D02*
X119988245Y-108385117D01*
X119260935Y-108088805D02*
X119207060Y-108088805D01*
X119207060Y-108088805D02*
X119126248Y-108115743D01*
X119126248Y-108115743D02*
X118991561Y-108250430D01*
X118991561Y-108250430D02*
X118964624Y-108331242D01*
X118964624Y-108331242D02*
X118964624Y-108385117D01*
X118964624Y-108385117D02*
X118991561Y-108465929D01*
X118991561Y-108465929D02*
X119045436Y-108519804D01*
X119045436Y-108519804D02*
X119153186Y-108573679D01*
X119153186Y-108573679D02*
X119799683Y-108573679D01*
X119799683Y-108573679D02*
X119449497Y-108923865D01*
X130498431Y-132811435D02*
X130525368Y-132730623D01*
X130525368Y-132730623D02*
X130606180Y-132649811D01*
X130606180Y-132649811D02*
X130713930Y-132595936D01*
X130713930Y-132595936D02*
X130821680Y-132595936D01*
X130821680Y-132595936D02*
X130902492Y-132622873D01*
X130902492Y-132622873D02*
X131037179Y-132703685D01*
X131037179Y-132703685D02*
X131117991Y-132784498D01*
X131117991Y-132784498D02*
X131198803Y-132919185D01*
X131198803Y-132919185D02*
X131225741Y-132999997D01*
X131225741Y-132999997D02*
X131225741Y-133107746D01*
X131225741Y-133107746D02*
X131171866Y-133215496D01*
X131171866Y-133215496D02*
X131117991Y-133269371D01*
X131117991Y-133269371D02*
X131010241Y-133323246D01*
X131010241Y-133323246D02*
X130956367Y-133323246D01*
X130956367Y-133323246D02*
X130767805Y-133134684D01*
X130767805Y-133134684D02*
X130875554Y-133026934D01*
X130767805Y-133619557D02*
X130202119Y-133053872D01*
X130202119Y-133053872D02*
X130444556Y-133942806D01*
X130444556Y-133942806D02*
X129878871Y-133377120D01*
X130175182Y-134212180D02*
X129609497Y-133646494D01*
X129609497Y-133646494D02*
X129474810Y-133781181D01*
X129474810Y-133781181D02*
X129420935Y-133888931D01*
X129420935Y-133888931D02*
X129420935Y-133996680D01*
X129420935Y-133996680D02*
X129447872Y-134077493D01*
X129447872Y-134077493D02*
X129528685Y-134212180D01*
X129528685Y-134212180D02*
X129609497Y-134292992D01*
X129609497Y-134292992D02*
X129744184Y-134373804D01*
X129744184Y-134373804D02*
X129824996Y-134400741D01*
X129824996Y-134400741D02*
X129932746Y-134400741D01*
X129932746Y-134400741D02*
X130040495Y-134346867D01*
X130040495Y-134346867D02*
X130175182Y-134212180D01*
X112960868Y-106714998D02*
X112987805Y-106634185D01*
X112987805Y-106634185D02*
X113068618Y-106553373D01*
X113068618Y-106553373D02*
X113176367Y-106499498D01*
X113176367Y-106499498D02*
X113284117Y-106499498D01*
X113284117Y-106499498D02*
X113364929Y-106526436D01*
X113364929Y-106526436D02*
X113499616Y-106607248D01*
X113499616Y-106607248D02*
X113580428Y-106688060D01*
X113580428Y-106688060D02*
X113661241Y-106822747D01*
X113661241Y-106822747D02*
X113688178Y-106903560D01*
X113688178Y-106903560D02*
X113688178Y-107011309D01*
X113688178Y-107011309D02*
X113634303Y-107119059D01*
X113634303Y-107119059D02*
X113580428Y-107172934D01*
X113580428Y-107172934D02*
X113472679Y-107226808D01*
X113472679Y-107226808D02*
X113418804Y-107226808D01*
X113418804Y-107226808D02*
X113230242Y-107038247D01*
X113230242Y-107038247D02*
X113337992Y-106930497D01*
X113230242Y-107523120D02*
X112664557Y-106957434D01*
X112664557Y-106957434D02*
X112449057Y-107172934D01*
X112449057Y-107172934D02*
X112422120Y-107253746D01*
X112422120Y-107253746D02*
X112422120Y-107307621D01*
X112422120Y-107307621D02*
X112449057Y-107388433D01*
X112449057Y-107388433D02*
X112529870Y-107469245D01*
X112529870Y-107469245D02*
X112610682Y-107496182D01*
X112610682Y-107496182D02*
X112664557Y-107496182D01*
X112664557Y-107496182D02*
X112745369Y-107469245D01*
X112745369Y-107469245D02*
X112960868Y-107253746D01*
X112179683Y-107550057D02*
X112125809Y-107550057D01*
X112125809Y-107550057D02*
X112044996Y-107576995D01*
X112044996Y-107576995D02*
X111910309Y-107711682D01*
X111910309Y-107711682D02*
X111883372Y-107792494D01*
X111883372Y-107792494D02*
X111883372Y-107846369D01*
X111883372Y-107846369D02*
X111910309Y-107927181D01*
X111910309Y-107927181D02*
X111964184Y-107981056D01*
X111964184Y-107981056D02*
X112071934Y-108034930D01*
X112071934Y-108034930D02*
X112718431Y-108034930D01*
X112718431Y-108034930D02*
X112368245Y-108385117D01*
X111452373Y-108169618D02*
X111398499Y-108223492D01*
X111398499Y-108223492D02*
X111371561Y-108304305D01*
X111371561Y-108304305D02*
X111371561Y-108358179D01*
X111371561Y-108358179D02*
X111398499Y-108438992D01*
X111398499Y-108438992D02*
X111479311Y-108573679D01*
X111479311Y-108573679D02*
X111613998Y-108708366D01*
X111613998Y-108708366D02*
X111748685Y-108789178D01*
X111748685Y-108789178D02*
X111829497Y-108816115D01*
X111829497Y-108816115D02*
X111883372Y-108816115D01*
X111883372Y-108816115D02*
X111964184Y-108789178D01*
X111964184Y-108789178D02*
X112018059Y-108735303D01*
X112018059Y-108735303D02*
X112044996Y-108654491D01*
X112044996Y-108654491D02*
X112044996Y-108600616D01*
X112044996Y-108600616D02*
X112018059Y-108519804D01*
X112018059Y-108519804D02*
X111937247Y-108385117D01*
X111937247Y-108385117D02*
X111802560Y-108250430D01*
X111802560Y-108250430D02*
X111667873Y-108169618D01*
X111667873Y-108169618D02*
X111587060Y-108142680D01*
X111587060Y-108142680D02*
X111533186Y-108142680D01*
X111533186Y-108142680D02*
X111452373Y-108169618D01*
X143198431Y-132811435D02*
X143225368Y-132730623D01*
X143225368Y-132730623D02*
X143306180Y-132649811D01*
X143306180Y-132649811D02*
X143413930Y-132595936D01*
X143413930Y-132595936D02*
X143521680Y-132595936D01*
X143521680Y-132595936D02*
X143602492Y-132622873D01*
X143602492Y-132622873D02*
X143737179Y-132703685D01*
X143737179Y-132703685D02*
X143817991Y-132784498D01*
X143817991Y-132784498D02*
X143898803Y-132919185D01*
X143898803Y-132919185D02*
X143925741Y-132999997D01*
X143925741Y-132999997D02*
X143925741Y-133107746D01*
X143925741Y-133107746D02*
X143871866Y-133215496D01*
X143871866Y-133215496D02*
X143817991Y-133269371D01*
X143817991Y-133269371D02*
X143710241Y-133323246D01*
X143710241Y-133323246D02*
X143656367Y-133323246D01*
X143656367Y-133323246D02*
X143467805Y-133134684D01*
X143467805Y-133134684D02*
X143575554Y-133026934D01*
X143467805Y-133619557D02*
X142902119Y-133053872D01*
X142902119Y-133053872D02*
X143144556Y-133942806D01*
X143144556Y-133942806D02*
X142578871Y-133377120D01*
X142875182Y-134212180D02*
X142309497Y-133646494D01*
X142309497Y-133646494D02*
X142174810Y-133781181D01*
X142174810Y-133781181D02*
X142120935Y-133888931D01*
X142120935Y-133888931D02*
X142120935Y-133996680D01*
X142120935Y-133996680D02*
X142147872Y-134077493D01*
X142147872Y-134077493D02*
X142228685Y-134212180D01*
X142228685Y-134212180D02*
X142309497Y-134292992D01*
X142309497Y-134292992D02*
X142444184Y-134373804D01*
X142444184Y-134373804D02*
X142524996Y-134400741D01*
X142524996Y-134400741D02*
X142632746Y-134400741D01*
X142632746Y-134400741D02*
X142740495Y-134346867D01*
X142740495Y-134346867D02*
X142875182Y-134212180D01*
X112960868Y-132968998D02*
X112987805Y-132888185D01*
X112987805Y-132888185D02*
X113068618Y-132807373D01*
X113068618Y-132807373D02*
X113176367Y-132753498D01*
X113176367Y-132753498D02*
X113284117Y-132753498D01*
X113284117Y-132753498D02*
X113364929Y-132780436D01*
X113364929Y-132780436D02*
X113499616Y-132861248D01*
X113499616Y-132861248D02*
X113580428Y-132942060D01*
X113580428Y-132942060D02*
X113661241Y-133076747D01*
X113661241Y-133076747D02*
X113688178Y-133157560D01*
X113688178Y-133157560D02*
X113688178Y-133265309D01*
X113688178Y-133265309D02*
X113634303Y-133373059D01*
X113634303Y-133373059D02*
X113580428Y-133426934D01*
X113580428Y-133426934D02*
X113472679Y-133480808D01*
X113472679Y-133480808D02*
X113418804Y-133480808D01*
X113418804Y-133480808D02*
X113230242Y-133292247D01*
X113230242Y-133292247D02*
X113337992Y-133184497D01*
X113230242Y-133777120D02*
X112664557Y-133211434D01*
X112664557Y-133211434D02*
X112449057Y-133426934D01*
X112449057Y-133426934D02*
X112422120Y-133507746D01*
X112422120Y-133507746D02*
X112422120Y-133561621D01*
X112422120Y-133561621D02*
X112449057Y-133642433D01*
X112449057Y-133642433D02*
X112529870Y-133723245D01*
X112529870Y-133723245D02*
X112610682Y-133750182D01*
X112610682Y-133750182D02*
X112664557Y-133750182D01*
X112664557Y-133750182D02*
X112745369Y-133723245D01*
X112745369Y-133723245D02*
X112960868Y-133507746D01*
X112368245Y-134639117D02*
X112691494Y-134315868D01*
X112529870Y-134477492D02*
X111964184Y-133911807D01*
X111964184Y-133911807D02*
X112098871Y-133938744D01*
X112098871Y-133938744D02*
X112206621Y-133938744D01*
X112206621Y-133938744D02*
X112287433Y-133911807D01*
X111829497Y-135177865D02*
X112152746Y-134854616D01*
X111991121Y-135016240D02*
X111425436Y-134450555D01*
X111425436Y-134450555D02*
X111560123Y-134477492D01*
X111560123Y-134477492D02*
X111667873Y-134477492D01*
X111667873Y-134477492D02*
X111748685Y-134450555D01*
X123403710Y-107563651D02*
X123322898Y-107105716D01*
X123726959Y-107240403D02*
X123161274Y-106674717D01*
X123161274Y-106674717D02*
X122945775Y-106890216D01*
X122945775Y-106890216D02*
X122918837Y-106971029D01*
X122918837Y-106971029D02*
X122918837Y-107024903D01*
X122918837Y-107024903D02*
X122945775Y-107105716D01*
X122945775Y-107105716D02*
X123026587Y-107186528D01*
X123026587Y-107186528D02*
X123107399Y-107213465D01*
X123107399Y-107213465D02*
X123161274Y-107213465D01*
X123161274Y-107213465D02*
X123242086Y-107186528D01*
X123242086Y-107186528D02*
X123457585Y-106971029D01*
X122595588Y-107240403D02*
X123053524Y-107698338D01*
X123053524Y-107698338D02*
X123080462Y-107779151D01*
X123080462Y-107779151D02*
X123080462Y-107833025D01*
X123080462Y-107833025D02*
X123053524Y-107913838D01*
X123053524Y-107913838D02*
X122945775Y-108021587D01*
X122945775Y-108021587D02*
X122864962Y-108048525D01*
X122864962Y-108048525D02*
X122811088Y-108048525D01*
X122811088Y-108048525D02*
X122730275Y-108021587D01*
X122730275Y-108021587D02*
X122272340Y-107563651D01*
X122568651Y-108398711D02*
X122002966Y-107833025D01*
X122002966Y-107833025D02*
X122245402Y-108721959D01*
X122245402Y-108721959D02*
X121679717Y-108156274D01*
X102800868Y-106714998D02*
X102827805Y-106634185D01*
X102827805Y-106634185D02*
X102908618Y-106553373D01*
X102908618Y-106553373D02*
X103016367Y-106499498D01*
X103016367Y-106499498D02*
X103124117Y-106499498D01*
X103124117Y-106499498D02*
X103204929Y-106526436D01*
X103204929Y-106526436D02*
X103339616Y-106607248D01*
X103339616Y-106607248D02*
X103420428Y-106688060D01*
X103420428Y-106688060D02*
X103501241Y-106822747D01*
X103501241Y-106822747D02*
X103528178Y-106903560D01*
X103528178Y-106903560D02*
X103528178Y-107011309D01*
X103528178Y-107011309D02*
X103474303Y-107119059D01*
X103474303Y-107119059D02*
X103420428Y-107172934D01*
X103420428Y-107172934D02*
X103312679Y-107226808D01*
X103312679Y-107226808D02*
X103258804Y-107226808D01*
X103258804Y-107226808D02*
X103070242Y-107038247D01*
X103070242Y-107038247D02*
X103177992Y-106930497D01*
X103070242Y-107523120D02*
X102504557Y-106957434D01*
X102504557Y-106957434D02*
X102289057Y-107172934D01*
X102289057Y-107172934D02*
X102262120Y-107253746D01*
X102262120Y-107253746D02*
X102262120Y-107307621D01*
X102262120Y-107307621D02*
X102289057Y-107388433D01*
X102289057Y-107388433D02*
X102369870Y-107469245D01*
X102369870Y-107469245D02*
X102450682Y-107496182D01*
X102450682Y-107496182D02*
X102504557Y-107496182D01*
X102504557Y-107496182D02*
X102585369Y-107469245D01*
X102585369Y-107469245D02*
X102800868Y-107253746D01*
X102208245Y-108385117D02*
X102531494Y-108061868D01*
X102369870Y-108223492D02*
X101804184Y-107657807D01*
X101804184Y-107657807D02*
X101938871Y-107684744D01*
X101938871Y-107684744D02*
X102046621Y-107684744D01*
X102046621Y-107684744D02*
X102127433Y-107657807D01*
X101453998Y-108007993D02*
X101076874Y-108385117D01*
X101076874Y-108385117D02*
X101884996Y-108708366D01*
X140631494Y-132938372D02*
X140658431Y-132857560D01*
X140658431Y-132857560D02*
X140739243Y-132776748D01*
X140739243Y-132776748D02*
X140846993Y-132722873D01*
X140846993Y-132722873D02*
X140954742Y-132722873D01*
X140954742Y-132722873D02*
X141035555Y-132749810D01*
X141035555Y-132749810D02*
X141170242Y-132830623D01*
X141170242Y-132830623D02*
X141251054Y-132911435D01*
X141251054Y-132911435D02*
X141331866Y-133046122D01*
X141331866Y-133046122D02*
X141358803Y-133126934D01*
X141358803Y-133126934D02*
X141358803Y-133234684D01*
X141358803Y-133234684D02*
X141304929Y-133342433D01*
X141304929Y-133342433D02*
X141251054Y-133396308D01*
X141251054Y-133396308D02*
X141143304Y-133450183D01*
X141143304Y-133450183D02*
X141089429Y-133450183D01*
X141089429Y-133450183D02*
X140900868Y-133261621D01*
X140900868Y-133261621D02*
X141008617Y-133153871D01*
X140900868Y-133746494D02*
X140335182Y-133180809D01*
X140335182Y-133180809D02*
X140119683Y-133396308D01*
X140119683Y-133396308D02*
X140092746Y-133477120D01*
X140092746Y-133477120D02*
X140092746Y-133530995D01*
X140092746Y-133530995D02*
X140119683Y-133611807D01*
X140119683Y-133611807D02*
X140200495Y-133692619D01*
X140200495Y-133692619D02*
X140281307Y-133719557D01*
X140281307Y-133719557D02*
X140335182Y-133719557D01*
X140335182Y-133719557D02*
X140415994Y-133692619D01*
X140415994Y-133692619D02*
X140631494Y-133477120D01*
X139850309Y-133773432D02*
X139796434Y-133773432D01*
X139796434Y-133773432D02*
X139715622Y-133800369D01*
X139715622Y-133800369D02*
X139580935Y-133935056D01*
X139580935Y-133935056D02*
X139553998Y-134015868D01*
X139553998Y-134015868D02*
X139553998Y-134069743D01*
X139553998Y-134069743D02*
X139580935Y-134150555D01*
X139580935Y-134150555D02*
X139634810Y-134204430D01*
X139634810Y-134204430D02*
X139742559Y-134258305D01*
X139742559Y-134258305D02*
X140389057Y-134258305D01*
X140389057Y-134258305D02*
X140038871Y-134608491D01*
X122851494Y-132838372D02*
X122878431Y-132757560D01*
X122878431Y-132757560D02*
X122959243Y-132676748D01*
X122959243Y-132676748D02*
X123066993Y-132622873D01*
X123066993Y-132622873D02*
X123174742Y-132622873D01*
X123174742Y-132622873D02*
X123255555Y-132649810D01*
X123255555Y-132649810D02*
X123390242Y-132730623D01*
X123390242Y-132730623D02*
X123471054Y-132811435D01*
X123471054Y-132811435D02*
X123551866Y-132946122D01*
X123551866Y-132946122D02*
X123578803Y-133026934D01*
X123578803Y-133026934D02*
X123578803Y-133134684D01*
X123578803Y-133134684D02*
X123524929Y-133242433D01*
X123524929Y-133242433D02*
X123471054Y-133296308D01*
X123471054Y-133296308D02*
X123363304Y-133350183D01*
X123363304Y-133350183D02*
X123309429Y-133350183D01*
X123309429Y-133350183D02*
X123120868Y-133161621D01*
X123120868Y-133161621D02*
X123228617Y-133053871D01*
X123120868Y-133646494D02*
X122555182Y-133080809D01*
X122555182Y-133080809D02*
X122339683Y-133296308D01*
X122339683Y-133296308D02*
X122312746Y-133377120D01*
X122312746Y-133377120D02*
X122312746Y-133430995D01*
X122312746Y-133430995D02*
X122339683Y-133511807D01*
X122339683Y-133511807D02*
X122420495Y-133592619D01*
X122420495Y-133592619D02*
X122501307Y-133619557D01*
X122501307Y-133619557D02*
X122555182Y-133619557D01*
X122555182Y-133619557D02*
X122635994Y-133592619D01*
X122635994Y-133592619D02*
X122851494Y-133377120D01*
X122151121Y-133969743D02*
X122178059Y-133888931D01*
X122178059Y-133888931D02*
X122178059Y-133835056D01*
X122178059Y-133835056D02*
X122151121Y-133754244D01*
X122151121Y-133754244D02*
X122124184Y-133727306D01*
X122124184Y-133727306D02*
X122043372Y-133700369D01*
X122043372Y-133700369D02*
X121989497Y-133700369D01*
X121989497Y-133700369D02*
X121908685Y-133727306D01*
X121908685Y-133727306D02*
X121800935Y-133835056D01*
X121800935Y-133835056D02*
X121773998Y-133915868D01*
X121773998Y-133915868D02*
X121773998Y-133969743D01*
X121773998Y-133969743D02*
X121800935Y-134050555D01*
X121800935Y-134050555D02*
X121827872Y-134077493D01*
X121827872Y-134077493D02*
X121908685Y-134104430D01*
X121908685Y-134104430D02*
X121962559Y-134104430D01*
X121962559Y-134104430D02*
X122043372Y-134077493D01*
X122043372Y-134077493D02*
X122151121Y-133969743D01*
X122151121Y-133969743D02*
X122231933Y-133942806D01*
X122231933Y-133942806D02*
X122285808Y-133942806D01*
X122285808Y-133942806D02*
X122366620Y-133969743D01*
X122366620Y-133969743D02*
X122474370Y-134077493D01*
X122474370Y-134077493D02*
X122501307Y-134158305D01*
X122501307Y-134158305D02*
X122501307Y-134212180D01*
X122501307Y-134212180D02*
X122474370Y-134292992D01*
X122474370Y-134292992D02*
X122366620Y-134400741D01*
X122366620Y-134400741D02*
X122285808Y-134427679D01*
X122285808Y-134427679D02*
X122231933Y-134427679D01*
X122231933Y-134427679D02*
X122151121Y-134400741D01*
X122151121Y-134400741D02*
X122043372Y-134292992D01*
X122043372Y-134292992D02*
X122016434Y-134212180D01*
X122016434Y-134212180D02*
X122016434Y-134158305D01*
X122016434Y-134158305D02*
X122043372Y-134077493D01*
X145721494Y-132938372D02*
X145748431Y-132857560D01*
X145748431Y-132857560D02*
X145829243Y-132776748D01*
X145829243Y-132776748D02*
X145936993Y-132722873D01*
X145936993Y-132722873D02*
X146044742Y-132722873D01*
X146044742Y-132722873D02*
X146125555Y-132749810D01*
X146125555Y-132749810D02*
X146260242Y-132830623D01*
X146260242Y-132830623D02*
X146341054Y-132911435D01*
X146341054Y-132911435D02*
X146421866Y-133046122D01*
X146421866Y-133046122D02*
X146448803Y-133126934D01*
X146448803Y-133126934D02*
X146448803Y-133234684D01*
X146448803Y-133234684D02*
X146394929Y-133342433D01*
X146394929Y-133342433D02*
X146341054Y-133396308D01*
X146341054Y-133396308D02*
X146233304Y-133450183D01*
X146233304Y-133450183D02*
X146179429Y-133450183D01*
X146179429Y-133450183D02*
X145990868Y-133261621D01*
X145990868Y-133261621D02*
X146098617Y-133153871D01*
X145990868Y-133746494D02*
X145425182Y-133180809D01*
X145425182Y-133180809D02*
X145209683Y-133396308D01*
X145209683Y-133396308D02*
X145182746Y-133477120D01*
X145182746Y-133477120D02*
X145182746Y-133530995D01*
X145182746Y-133530995D02*
X145209683Y-133611807D01*
X145209683Y-133611807D02*
X145290495Y-133692619D01*
X145290495Y-133692619D02*
X145371307Y-133719557D01*
X145371307Y-133719557D02*
X145425182Y-133719557D01*
X145425182Y-133719557D02*
X145505994Y-133692619D01*
X145505994Y-133692619D02*
X145721494Y-133477120D01*
X145128871Y-134608491D02*
X145452120Y-134285242D01*
X145290495Y-134446867D02*
X144724810Y-133881181D01*
X144724810Y-133881181D02*
X144859497Y-133908119D01*
X144859497Y-133908119D02*
X144967246Y-133908119D01*
X144967246Y-133908119D02*
X145048059Y-133881181D01*
X98124200Y-124615475D02*
X98162295Y-124729761D01*
X98162295Y-124729761D02*
X98162295Y-124920237D01*
X98162295Y-124920237D02*
X98124200Y-124996428D01*
X98124200Y-124996428D02*
X98086104Y-125034523D01*
X98086104Y-125034523D02*
X98009914Y-125072618D01*
X98009914Y-125072618D02*
X97933723Y-125072618D01*
X97933723Y-125072618D02*
X97857533Y-125034523D01*
X97857533Y-125034523D02*
X97819438Y-124996428D01*
X97819438Y-124996428D02*
X97781342Y-124920237D01*
X97781342Y-124920237D02*
X97743247Y-124767856D01*
X97743247Y-124767856D02*
X97705152Y-124691666D01*
X97705152Y-124691666D02*
X97667057Y-124653571D01*
X97667057Y-124653571D02*
X97590866Y-124615475D01*
X97590866Y-124615475D02*
X97514676Y-124615475D01*
X97514676Y-124615475D02*
X97438485Y-124653571D01*
X97438485Y-124653571D02*
X97400390Y-124691666D01*
X97400390Y-124691666D02*
X97362295Y-124767856D01*
X97362295Y-124767856D02*
X97362295Y-124958333D01*
X97362295Y-124958333D02*
X97400390Y-125072618D01*
X97362295Y-125339285D02*
X98162295Y-125529761D01*
X98162295Y-125529761D02*
X97590866Y-125682142D01*
X97590866Y-125682142D02*
X98162295Y-125834523D01*
X98162295Y-125834523D02*
X97362295Y-126025000D01*
X98086104Y-126786905D02*
X98124200Y-126748809D01*
X98124200Y-126748809D02*
X98162295Y-126634524D01*
X98162295Y-126634524D02*
X98162295Y-126558333D01*
X98162295Y-126558333D02*
X98124200Y-126444047D01*
X98124200Y-126444047D02*
X98048009Y-126367857D01*
X98048009Y-126367857D02*
X97971819Y-126329762D01*
X97971819Y-126329762D02*
X97819438Y-126291666D01*
X97819438Y-126291666D02*
X97705152Y-126291666D01*
X97705152Y-126291666D02*
X97552771Y-126329762D01*
X97552771Y-126329762D02*
X97476580Y-126367857D01*
X97476580Y-126367857D02*
X97400390Y-126444047D01*
X97400390Y-126444047D02*
X97362295Y-126558333D01*
X97362295Y-126558333D02*
X97362295Y-126634524D01*
X97362295Y-126634524D02*
X97400390Y-126748809D01*
X97400390Y-126748809D02*
X97438485Y-126786905D01*
X98162295Y-127510714D02*
X98162295Y-127129762D01*
X98162295Y-127129762D02*
X97362295Y-127129762D01*
X98162295Y-127777381D02*
X97362295Y-127777381D01*
X98162295Y-128234524D02*
X97705152Y-127891666D01*
X97362295Y-128234524D02*
X97819438Y-127777381D01*
X135551494Y-132838372D02*
X135578431Y-132757560D01*
X135578431Y-132757560D02*
X135659243Y-132676748D01*
X135659243Y-132676748D02*
X135766993Y-132622873D01*
X135766993Y-132622873D02*
X135874742Y-132622873D01*
X135874742Y-132622873D02*
X135955555Y-132649810D01*
X135955555Y-132649810D02*
X136090242Y-132730623D01*
X136090242Y-132730623D02*
X136171054Y-132811435D01*
X136171054Y-132811435D02*
X136251866Y-132946122D01*
X136251866Y-132946122D02*
X136278803Y-133026934D01*
X136278803Y-133026934D02*
X136278803Y-133134684D01*
X136278803Y-133134684D02*
X136224929Y-133242433D01*
X136224929Y-133242433D02*
X136171054Y-133296308D01*
X136171054Y-133296308D02*
X136063304Y-133350183D01*
X136063304Y-133350183D02*
X136009429Y-133350183D01*
X136009429Y-133350183D02*
X135820868Y-133161621D01*
X135820868Y-133161621D02*
X135928617Y-133053871D01*
X135820868Y-133646494D02*
X135255182Y-133080809D01*
X135255182Y-133080809D02*
X135039683Y-133296308D01*
X135039683Y-133296308D02*
X135012746Y-133377120D01*
X135012746Y-133377120D02*
X135012746Y-133430995D01*
X135012746Y-133430995D02*
X135039683Y-133511807D01*
X135039683Y-133511807D02*
X135120495Y-133592619D01*
X135120495Y-133592619D02*
X135201307Y-133619557D01*
X135201307Y-133619557D02*
X135255182Y-133619557D01*
X135255182Y-133619557D02*
X135335994Y-133592619D01*
X135335994Y-133592619D02*
X135551494Y-133377120D01*
X134635622Y-134077493D02*
X135012746Y-134454616D01*
X134554810Y-133727306D02*
X135093558Y-133996680D01*
X135093558Y-133996680D02*
X134743372Y-134346867D01*
X138091494Y-132838372D02*
X138118431Y-132757560D01*
X138118431Y-132757560D02*
X138199243Y-132676748D01*
X138199243Y-132676748D02*
X138306993Y-132622873D01*
X138306993Y-132622873D02*
X138414742Y-132622873D01*
X138414742Y-132622873D02*
X138495555Y-132649810D01*
X138495555Y-132649810D02*
X138630242Y-132730623D01*
X138630242Y-132730623D02*
X138711054Y-132811435D01*
X138711054Y-132811435D02*
X138791866Y-132946122D01*
X138791866Y-132946122D02*
X138818803Y-133026934D01*
X138818803Y-133026934D02*
X138818803Y-133134684D01*
X138818803Y-133134684D02*
X138764929Y-133242433D01*
X138764929Y-133242433D02*
X138711054Y-133296308D01*
X138711054Y-133296308D02*
X138603304Y-133350183D01*
X138603304Y-133350183D02*
X138549429Y-133350183D01*
X138549429Y-133350183D02*
X138360868Y-133161621D01*
X138360868Y-133161621D02*
X138468617Y-133053871D01*
X138360868Y-133646494D02*
X137795182Y-133080809D01*
X137795182Y-133080809D02*
X137579683Y-133296308D01*
X137579683Y-133296308D02*
X137552746Y-133377120D01*
X137552746Y-133377120D02*
X137552746Y-133430995D01*
X137552746Y-133430995D02*
X137579683Y-133511807D01*
X137579683Y-133511807D02*
X137660495Y-133592619D01*
X137660495Y-133592619D02*
X137741307Y-133619557D01*
X137741307Y-133619557D02*
X137795182Y-133619557D01*
X137795182Y-133619557D02*
X137875994Y-133592619D01*
X137875994Y-133592619D02*
X138091494Y-133377120D01*
X137283372Y-133592619D02*
X136933185Y-133942806D01*
X136933185Y-133942806D02*
X137337246Y-133969743D01*
X137337246Y-133969743D02*
X137256434Y-134050555D01*
X137256434Y-134050555D02*
X137229497Y-134131367D01*
X137229497Y-134131367D02*
X137229497Y-134185242D01*
X137229497Y-134185242D02*
X137256434Y-134266054D01*
X137256434Y-134266054D02*
X137391121Y-134400741D01*
X137391121Y-134400741D02*
X137471933Y-134427679D01*
X137471933Y-134427679D02*
X137525808Y-134427679D01*
X137525808Y-134427679D02*
X137606620Y-134400741D01*
X137606620Y-134400741D02*
X137768245Y-134239117D01*
X137768245Y-134239117D02*
X137795182Y-134158305D01*
X137795182Y-134158305D02*
X137795182Y-134104430D01*
X133011494Y-132838372D02*
X133038431Y-132757560D01*
X133038431Y-132757560D02*
X133119243Y-132676748D01*
X133119243Y-132676748D02*
X133226993Y-132622873D01*
X133226993Y-132622873D02*
X133334742Y-132622873D01*
X133334742Y-132622873D02*
X133415555Y-132649810D01*
X133415555Y-132649810D02*
X133550242Y-132730623D01*
X133550242Y-132730623D02*
X133631054Y-132811435D01*
X133631054Y-132811435D02*
X133711866Y-132946122D01*
X133711866Y-132946122D02*
X133738803Y-133026934D01*
X133738803Y-133026934D02*
X133738803Y-133134684D01*
X133738803Y-133134684D02*
X133684929Y-133242433D01*
X133684929Y-133242433D02*
X133631054Y-133296308D01*
X133631054Y-133296308D02*
X133523304Y-133350183D01*
X133523304Y-133350183D02*
X133469429Y-133350183D01*
X133469429Y-133350183D02*
X133280868Y-133161621D01*
X133280868Y-133161621D02*
X133388617Y-133053871D01*
X133280868Y-133646494D02*
X132715182Y-133080809D01*
X132715182Y-133080809D02*
X132499683Y-133296308D01*
X132499683Y-133296308D02*
X132472746Y-133377120D01*
X132472746Y-133377120D02*
X132472746Y-133430995D01*
X132472746Y-133430995D02*
X132499683Y-133511807D01*
X132499683Y-133511807D02*
X132580495Y-133592619D01*
X132580495Y-133592619D02*
X132661307Y-133619557D01*
X132661307Y-133619557D02*
X132715182Y-133619557D01*
X132715182Y-133619557D02*
X132795994Y-133592619D01*
X132795994Y-133592619D02*
X133011494Y-133377120D01*
X131880123Y-133915868D02*
X132149497Y-133646494D01*
X132149497Y-133646494D02*
X132445808Y-133888931D01*
X132445808Y-133888931D02*
X132391933Y-133888931D01*
X132391933Y-133888931D02*
X132311121Y-133915868D01*
X132311121Y-133915868D02*
X132176434Y-134050555D01*
X132176434Y-134050555D02*
X132149497Y-134131367D01*
X132149497Y-134131367D02*
X132149497Y-134185242D01*
X132149497Y-134185242D02*
X132176434Y-134266054D01*
X132176434Y-134266054D02*
X132311121Y-134400741D01*
X132311121Y-134400741D02*
X132391933Y-134427679D01*
X132391933Y-134427679D02*
X132445808Y-134427679D01*
X132445808Y-134427679D02*
X132526620Y-134400741D01*
X132526620Y-134400741D02*
X132661307Y-134266054D01*
X132661307Y-134266054D02*
X132688245Y-134185242D01*
X132688245Y-134185242D02*
X132688245Y-134131367D01*
X107880868Y-132822998D02*
X107907805Y-132742185D01*
X107907805Y-132742185D02*
X107988618Y-132661373D01*
X107988618Y-132661373D02*
X108096367Y-132607498D01*
X108096367Y-132607498D02*
X108204117Y-132607498D01*
X108204117Y-132607498D02*
X108284929Y-132634436D01*
X108284929Y-132634436D02*
X108419616Y-132715248D01*
X108419616Y-132715248D02*
X108500428Y-132796060D01*
X108500428Y-132796060D02*
X108581241Y-132930747D01*
X108581241Y-132930747D02*
X108608178Y-133011560D01*
X108608178Y-133011560D02*
X108608178Y-133119309D01*
X108608178Y-133119309D02*
X108554303Y-133227059D01*
X108554303Y-133227059D02*
X108500428Y-133280934D01*
X108500428Y-133280934D02*
X108392679Y-133334808D01*
X108392679Y-133334808D02*
X108338804Y-133334808D01*
X108338804Y-133334808D02*
X108150242Y-133146247D01*
X108150242Y-133146247D02*
X108257992Y-133038497D01*
X108150242Y-133631120D02*
X107584557Y-133065434D01*
X107584557Y-133065434D02*
X107369057Y-133280934D01*
X107369057Y-133280934D02*
X107342120Y-133361746D01*
X107342120Y-133361746D02*
X107342120Y-133415621D01*
X107342120Y-133415621D02*
X107369057Y-133496433D01*
X107369057Y-133496433D02*
X107449870Y-133577245D01*
X107449870Y-133577245D02*
X107530682Y-133604182D01*
X107530682Y-133604182D02*
X107584557Y-133604182D01*
X107584557Y-133604182D02*
X107665369Y-133577245D01*
X107665369Y-133577245D02*
X107880868Y-133361746D01*
X107288245Y-134493117D02*
X107611494Y-134169868D01*
X107449870Y-134331492D02*
X106884184Y-133765807D01*
X106884184Y-133765807D02*
X107018871Y-133792744D01*
X107018871Y-133792744D02*
X107126621Y-133792744D01*
X107126621Y-133792744D02*
X107207433Y-133765807D01*
X106533998Y-134115993D02*
X106183812Y-134466179D01*
X106183812Y-134466179D02*
X106587873Y-134493117D01*
X106587873Y-134493117D02*
X106507060Y-134573929D01*
X106507060Y-134573929D02*
X106480123Y-134654741D01*
X106480123Y-134654741D02*
X106480123Y-134708616D01*
X106480123Y-134708616D02*
X106507060Y-134789428D01*
X106507060Y-134789428D02*
X106641747Y-134924115D01*
X106641747Y-134924115D02*
X106722560Y-134951053D01*
X106722560Y-134951053D02*
X106776434Y-134951053D01*
X106776434Y-134951053D02*
X106857247Y-134924115D01*
X106857247Y-134924115D02*
X107018871Y-134762491D01*
X107018871Y-134762491D02*
X107045808Y-134681679D01*
X107045808Y-134681679D02*
X107045808Y-134627804D01*
X133534868Y-106714998D02*
X133561805Y-106634185D01*
X133561805Y-106634185D02*
X133642618Y-106553373D01*
X133642618Y-106553373D02*
X133750367Y-106499498D01*
X133750367Y-106499498D02*
X133858117Y-106499498D01*
X133858117Y-106499498D02*
X133938929Y-106526436D01*
X133938929Y-106526436D02*
X134073616Y-106607248D01*
X134073616Y-106607248D02*
X134154428Y-106688060D01*
X134154428Y-106688060D02*
X134235241Y-106822747D01*
X134235241Y-106822747D02*
X134262178Y-106903560D01*
X134262178Y-106903560D02*
X134262178Y-107011309D01*
X134262178Y-107011309D02*
X134208303Y-107119059D01*
X134208303Y-107119059D02*
X134154428Y-107172934D01*
X134154428Y-107172934D02*
X134046679Y-107226808D01*
X134046679Y-107226808D02*
X133992804Y-107226808D01*
X133992804Y-107226808D02*
X133804242Y-107038247D01*
X133804242Y-107038247D02*
X133911992Y-106930497D01*
X133804242Y-107523120D02*
X133238557Y-106957434D01*
X133238557Y-106957434D02*
X133023057Y-107172934D01*
X133023057Y-107172934D02*
X132996120Y-107253746D01*
X132996120Y-107253746D02*
X132996120Y-107307621D01*
X132996120Y-107307621D02*
X133023057Y-107388433D01*
X133023057Y-107388433D02*
X133103870Y-107469245D01*
X133103870Y-107469245D02*
X133184682Y-107496182D01*
X133184682Y-107496182D02*
X133238557Y-107496182D01*
X133238557Y-107496182D02*
X133319369Y-107469245D01*
X133319369Y-107469245D02*
X133534868Y-107253746D01*
X132753683Y-107550057D02*
X132699809Y-107550057D01*
X132699809Y-107550057D02*
X132618996Y-107576995D01*
X132618996Y-107576995D02*
X132484309Y-107711682D01*
X132484309Y-107711682D02*
X132457372Y-107792494D01*
X132457372Y-107792494D02*
X132457372Y-107846369D01*
X132457372Y-107846369D02*
X132484309Y-107927181D01*
X132484309Y-107927181D02*
X132538184Y-107981056D01*
X132538184Y-107981056D02*
X132645934Y-108034930D01*
X132645934Y-108034930D02*
X133292431Y-108034930D01*
X133292431Y-108034930D02*
X132942245Y-108385117D01*
X132295747Y-108385117D02*
X132322685Y-108304305D01*
X132322685Y-108304305D02*
X132322685Y-108250430D01*
X132322685Y-108250430D02*
X132295747Y-108169618D01*
X132295747Y-108169618D02*
X132268810Y-108142680D01*
X132268810Y-108142680D02*
X132187998Y-108115743D01*
X132187998Y-108115743D02*
X132134123Y-108115743D01*
X132134123Y-108115743D02*
X132053311Y-108142680D01*
X132053311Y-108142680D02*
X131945561Y-108250430D01*
X131945561Y-108250430D02*
X131918624Y-108331242D01*
X131918624Y-108331242D02*
X131918624Y-108385117D01*
X131918624Y-108385117D02*
X131945561Y-108465929D01*
X131945561Y-108465929D02*
X131972499Y-108492866D01*
X131972499Y-108492866D02*
X132053311Y-108519804D01*
X132053311Y-108519804D02*
X132107186Y-108519804D01*
X132107186Y-108519804D02*
X132187998Y-108492866D01*
X132187998Y-108492866D02*
X132295747Y-108385117D01*
X132295747Y-108385117D02*
X132376560Y-108358179D01*
X132376560Y-108358179D02*
X132430434Y-108358179D01*
X132430434Y-108358179D02*
X132511247Y-108385117D01*
X132511247Y-108385117D02*
X132618996Y-108492866D01*
X132618996Y-108492866D02*
X132645934Y-108573679D01*
X132645934Y-108573679D02*
X132645934Y-108627553D01*
X132645934Y-108627553D02*
X132618996Y-108708366D01*
X132618996Y-108708366D02*
X132511247Y-108816115D01*
X132511247Y-108816115D02*
X132430434Y-108843053D01*
X132430434Y-108843053D02*
X132376560Y-108843053D01*
X132376560Y-108843053D02*
X132295747Y-108816115D01*
X132295747Y-108816115D02*
X132187998Y-108708366D01*
X132187998Y-108708366D02*
X132161060Y-108627553D01*
X132161060Y-108627553D02*
X132161060Y-108573679D01*
X132161060Y-108573679D02*
X132187998Y-108492866D01*
X100260868Y-132822998D02*
X100287805Y-132742185D01*
X100287805Y-132742185D02*
X100368618Y-132661373D01*
X100368618Y-132661373D02*
X100476367Y-132607498D01*
X100476367Y-132607498D02*
X100584117Y-132607498D01*
X100584117Y-132607498D02*
X100664929Y-132634436D01*
X100664929Y-132634436D02*
X100799616Y-132715248D01*
X100799616Y-132715248D02*
X100880428Y-132796060D01*
X100880428Y-132796060D02*
X100961241Y-132930747D01*
X100961241Y-132930747D02*
X100988178Y-133011560D01*
X100988178Y-133011560D02*
X100988178Y-133119309D01*
X100988178Y-133119309D02*
X100934303Y-133227059D01*
X100934303Y-133227059D02*
X100880428Y-133280934D01*
X100880428Y-133280934D02*
X100772679Y-133334808D01*
X100772679Y-133334808D02*
X100718804Y-133334808D01*
X100718804Y-133334808D02*
X100530242Y-133146247D01*
X100530242Y-133146247D02*
X100637992Y-133038497D01*
X100530242Y-133631120D02*
X99964557Y-133065434D01*
X99964557Y-133065434D02*
X99749057Y-133280934D01*
X99749057Y-133280934D02*
X99722120Y-133361746D01*
X99722120Y-133361746D02*
X99722120Y-133415621D01*
X99722120Y-133415621D02*
X99749057Y-133496433D01*
X99749057Y-133496433D02*
X99829870Y-133577245D01*
X99829870Y-133577245D02*
X99910682Y-133604182D01*
X99910682Y-133604182D02*
X99964557Y-133604182D01*
X99964557Y-133604182D02*
X100045369Y-133577245D01*
X100045369Y-133577245D02*
X100260868Y-133361746D01*
X99668245Y-134493117D02*
X99991494Y-134169868D01*
X99829870Y-134331492D02*
X99264184Y-133765807D01*
X99264184Y-133765807D02*
X99398871Y-133792744D01*
X99398871Y-133792744D02*
X99506621Y-133792744D01*
X99506621Y-133792744D02*
X99587433Y-133765807D01*
X98590749Y-134439242D02*
X98860123Y-134169868D01*
X98860123Y-134169868D02*
X99156434Y-134412305D01*
X99156434Y-134412305D02*
X99102560Y-134412305D01*
X99102560Y-134412305D02*
X99021747Y-134439242D01*
X99021747Y-134439242D02*
X98887060Y-134573929D01*
X98887060Y-134573929D02*
X98860123Y-134654741D01*
X98860123Y-134654741D02*
X98860123Y-134708616D01*
X98860123Y-134708616D02*
X98887060Y-134789428D01*
X98887060Y-134789428D02*
X99021747Y-134924115D01*
X99021747Y-134924115D02*
X99102560Y-134951053D01*
X99102560Y-134951053D02*
X99156434Y-134951053D01*
X99156434Y-134951053D02*
X99237247Y-134924115D01*
X99237247Y-134924115D02*
X99371934Y-134789428D01*
X99371934Y-134789428D02*
X99398871Y-134708616D01*
X99398871Y-134708616D02*
X99398871Y-134654741D01*
X102800868Y-132868998D02*
X102827805Y-132788185D01*
X102827805Y-132788185D02*
X102908618Y-132707373D01*
X102908618Y-132707373D02*
X103016367Y-132653498D01*
X103016367Y-132653498D02*
X103124117Y-132653498D01*
X103124117Y-132653498D02*
X103204929Y-132680436D01*
X103204929Y-132680436D02*
X103339616Y-132761248D01*
X103339616Y-132761248D02*
X103420428Y-132842060D01*
X103420428Y-132842060D02*
X103501241Y-132976747D01*
X103501241Y-132976747D02*
X103528178Y-133057560D01*
X103528178Y-133057560D02*
X103528178Y-133165309D01*
X103528178Y-133165309D02*
X103474303Y-133273059D01*
X103474303Y-133273059D02*
X103420428Y-133326934D01*
X103420428Y-133326934D02*
X103312679Y-133380808D01*
X103312679Y-133380808D02*
X103258804Y-133380808D01*
X103258804Y-133380808D02*
X103070242Y-133192247D01*
X103070242Y-133192247D02*
X103177992Y-133084497D01*
X103070242Y-133677120D02*
X102504557Y-133111434D01*
X102504557Y-133111434D02*
X102289057Y-133326934D01*
X102289057Y-133326934D02*
X102262120Y-133407746D01*
X102262120Y-133407746D02*
X102262120Y-133461621D01*
X102262120Y-133461621D02*
X102289057Y-133542433D01*
X102289057Y-133542433D02*
X102369870Y-133623245D01*
X102369870Y-133623245D02*
X102450682Y-133650182D01*
X102450682Y-133650182D02*
X102504557Y-133650182D01*
X102504557Y-133650182D02*
X102585369Y-133623245D01*
X102585369Y-133623245D02*
X102800868Y-133407746D01*
X102208245Y-134539117D02*
X102531494Y-134215868D01*
X102369870Y-134377492D02*
X101804184Y-133811807D01*
X101804184Y-133811807D02*
X101938871Y-133838744D01*
X101938871Y-133838744D02*
X102046621Y-133838744D01*
X102046621Y-133838744D02*
X102127433Y-133811807D01*
X101346248Y-134646866D02*
X101723372Y-135023990D01*
X101265436Y-134296680D02*
X101804184Y-134566054D01*
X101804184Y-134566054D02*
X101453998Y-134916240D01*
X142358584Y-105247407D02*
X142008398Y-105597593D01*
X142008398Y-105597593D02*
X142412459Y-105624531D01*
X142412459Y-105624531D02*
X142331646Y-105705343D01*
X142331646Y-105705343D02*
X142304709Y-105786155D01*
X142304709Y-105786155D02*
X142304709Y-105840030D01*
X142304709Y-105840030D02*
X142331646Y-105920842D01*
X142331646Y-105920842D02*
X142466333Y-106055529D01*
X142466333Y-106055529D02*
X142547146Y-106082467D01*
X142547146Y-106082467D02*
X142601020Y-106082467D01*
X142601020Y-106082467D02*
X142681833Y-106055529D01*
X142681833Y-106055529D02*
X142843457Y-105893905D01*
X142843457Y-105893905D02*
X142870394Y-105813093D01*
X142870394Y-105813093D02*
X142870394Y-105759218D01*
X141846773Y-105759218D02*
X142223897Y-106513465D01*
X142223897Y-106513465D02*
X141469649Y-106136342D01*
X141334963Y-106271028D02*
X140984776Y-106621215D01*
X140984776Y-106621215D02*
X141388837Y-106648152D01*
X141388837Y-106648152D02*
X141308025Y-106728964D01*
X141308025Y-106728964D02*
X141281088Y-106809776D01*
X141281088Y-106809776D02*
X141281088Y-106863651D01*
X141281088Y-106863651D02*
X141308025Y-106944464D01*
X141308025Y-106944464D02*
X141442712Y-107079151D01*
X141442712Y-107079151D02*
X141523524Y-107106088D01*
X141523524Y-107106088D02*
X141577399Y-107106088D01*
X141577399Y-107106088D02*
X141658211Y-107079151D01*
X141658211Y-107079151D02*
X141819836Y-106917526D01*
X141819836Y-106917526D02*
X141846773Y-106836714D01*
X141846773Y-106836714D02*
X141846773Y-106782839D01*
X141496587Y-107348525D02*
X141065588Y-107779523D01*
X140580715Y-107564024D02*
X140392153Y-107752586D01*
X140607652Y-108129709D02*
X140877026Y-107860335D01*
X140877026Y-107860335D02*
X140311341Y-107294650D01*
X140311341Y-107294650D02*
X140041967Y-107564024D01*
X140365215Y-108372146D02*
X139799530Y-107806461D01*
X139799530Y-107806461D02*
X140041967Y-108695395D01*
X140041967Y-108695395D02*
X139476281Y-108129710D01*
X125421494Y-132738372D02*
X125448431Y-132657560D01*
X125448431Y-132657560D02*
X125529243Y-132576748D01*
X125529243Y-132576748D02*
X125636993Y-132522873D01*
X125636993Y-132522873D02*
X125744742Y-132522873D01*
X125744742Y-132522873D02*
X125825555Y-132549810D01*
X125825555Y-132549810D02*
X125960242Y-132630623D01*
X125960242Y-132630623D02*
X126041054Y-132711435D01*
X126041054Y-132711435D02*
X126121866Y-132846122D01*
X126121866Y-132846122D02*
X126148803Y-132926934D01*
X126148803Y-132926934D02*
X126148803Y-133034684D01*
X126148803Y-133034684D02*
X126094929Y-133142433D01*
X126094929Y-133142433D02*
X126041054Y-133196308D01*
X126041054Y-133196308D02*
X125933304Y-133250183D01*
X125933304Y-133250183D02*
X125879429Y-133250183D01*
X125879429Y-133250183D02*
X125690868Y-133061621D01*
X125690868Y-133061621D02*
X125798617Y-132953871D01*
X125690868Y-133546494D02*
X125125182Y-132980809D01*
X125125182Y-132980809D02*
X124909683Y-133196308D01*
X124909683Y-133196308D02*
X124882746Y-133277120D01*
X124882746Y-133277120D02*
X124882746Y-133330995D01*
X124882746Y-133330995D02*
X124909683Y-133411807D01*
X124909683Y-133411807D02*
X124990495Y-133492619D01*
X124990495Y-133492619D02*
X125071307Y-133519557D01*
X125071307Y-133519557D02*
X125125182Y-133519557D01*
X125125182Y-133519557D02*
X125205994Y-133492619D01*
X125205994Y-133492619D02*
X125421494Y-133277120D01*
X124613372Y-133492619D02*
X124236248Y-133869743D01*
X124236248Y-133869743D02*
X125044370Y-134192992D01*
X115490868Y-106714998D02*
X115517805Y-106634185D01*
X115517805Y-106634185D02*
X115598618Y-106553373D01*
X115598618Y-106553373D02*
X115706367Y-106499498D01*
X115706367Y-106499498D02*
X115814117Y-106499498D01*
X115814117Y-106499498D02*
X115894929Y-106526436D01*
X115894929Y-106526436D02*
X116029616Y-106607248D01*
X116029616Y-106607248D02*
X116110428Y-106688060D01*
X116110428Y-106688060D02*
X116191241Y-106822747D01*
X116191241Y-106822747D02*
X116218178Y-106903560D01*
X116218178Y-106903560D02*
X116218178Y-107011309D01*
X116218178Y-107011309D02*
X116164303Y-107119059D01*
X116164303Y-107119059D02*
X116110428Y-107172934D01*
X116110428Y-107172934D02*
X116002679Y-107226808D01*
X116002679Y-107226808D02*
X115948804Y-107226808D01*
X115948804Y-107226808D02*
X115760242Y-107038247D01*
X115760242Y-107038247D02*
X115867992Y-106930497D01*
X115760242Y-107523120D02*
X115194557Y-106957434D01*
X115194557Y-106957434D02*
X114979057Y-107172934D01*
X114979057Y-107172934D02*
X114952120Y-107253746D01*
X114952120Y-107253746D02*
X114952120Y-107307621D01*
X114952120Y-107307621D02*
X114979057Y-107388433D01*
X114979057Y-107388433D02*
X115059870Y-107469245D01*
X115059870Y-107469245D02*
X115140682Y-107496182D01*
X115140682Y-107496182D02*
X115194557Y-107496182D01*
X115194557Y-107496182D02*
X115275369Y-107469245D01*
X115275369Y-107469245D02*
X115490868Y-107253746D01*
X114709683Y-107550057D02*
X114655809Y-107550057D01*
X114655809Y-107550057D02*
X114574996Y-107576995D01*
X114574996Y-107576995D02*
X114440309Y-107711682D01*
X114440309Y-107711682D02*
X114413372Y-107792494D01*
X114413372Y-107792494D02*
X114413372Y-107846369D01*
X114413372Y-107846369D02*
X114440309Y-107927181D01*
X114440309Y-107927181D02*
X114494184Y-107981056D01*
X114494184Y-107981056D02*
X114601934Y-108034930D01*
X114601934Y-108034930D02*
X115248431Y-108034930D01*
X115248431Y-108034930D02*
X114898245Y-108385117D01*
X114359497Y-108923865D02*
X114682746Y-108600616D01*
X114521121Y-108762240D02*
X113955436Y-108196555D01*
X113955436Y-108196555D02*
X114090123Y-108223492D01*
X114090123Y-108223492D02*
X114197873Y-108223492D01*
X114197873Y-108223492D02*
X114278685Y-108196555D01*
X105098431Y-132811435D02*
X105125368Y-132730623D01*
X105125368Y-132730623D02*
X105206180Y-132649811D01*
X105206180Y-132649811D02*
X105313930Y-132595936D01*
X105313930Y-132595936D02*
X105421680Y-132595936D01*
X105421680Y-132595936D02*
X105502492Y-132622873D01*
X105502492Y-132622873D02*
X105637179Y-132703685D01*
X105637179Y-132703685D02*
X105717991Y-132784498D01*
X105717991Y-132784498D02*
X105798803Y-132919185D01*
X105798803Y-132919185D02*
X105825741Y-132999997D01*
X105825741Y-132999997D02*
X105825741Y-133107746D01*
X105825741Y-133107746D02*
X105771866Y-133215496D01*
X105771866Y-133215496D02*
X105717991Y-133269371D01*
X105717991Y-133269371D02*
X105610241Y-133323246D01*
X105610241Y-133323246D02*
X105556367Y-133323246D01*
X105556367Y-133323246D02*
X105367805Y-133134684D01*
X105367805Y-133134684D02*
X105475554Y-133026934D01*
X105367805Y-133619557D02*
X104802119Y-133053872D01*
X104802119Y-133053872D02*
X105044556Y-133942806D01*
X105044556Y-133942806D02*
X104478871Y-133377120D01*
X104775182Y-134212180D02*
X104209497Y-133646494D01*
X104209497Y-133646494D02*
X104074810Y-133781181D01*
X104074810Y-133781181D02*
X104020935Y-133888931D01*
X104020935Y-133888931D02*
X104020935Y-133996680D01*
X104020935Y-133996680D02*
X104047872Y-134077493D01*
X104047872Y-134077493D02*
X104128685Y-134212180D01*
X104128685Y-134212180D02*
X104209497Y-134292992D01*
X104209497Y-134292992D02*
X104344184Y-134373804D01*
X104344184Y-134373804D02*
X104424996Y-134400741D01*
X104424996Y-134400741D02*
X104532746Y-134400741D01*
X104532746Y-134400741D02*
X104640495Y-134346867D01*
X104640495Y-134346867D02*
X104775182Y-134212180D01*
X138534049Y-104880064D02*
X138264675Y-105149438D01*
X138749549Y-104987813D02*
X137995301Y-104610690D01*
X137995301Y-104610690D02*
X138372425Y-105364937D01*
X138183863Y-105553499D02*
X137618178Y-104987813D01*
X137618178Y-104987813D02*
X137483491Y-105122500D01*
X137483491Y-105122500D02*
X137429616Y-105230250D01*
X137429616Y-105230250D02*
X137429616Y-105337999D01*
X137429616Y-105337999D02*
X137456553Y-105418812D01*
X137456553Y-105418812D02*
X137537366Y-105553499D01*
X137537366Y-105553499D02*
X137618178Y-105634311D01*
X137618178Y-105634311D02*
X137752865Y-105715123D01*
X137752865Y-105715123D02*
X137833677Y-105742060D01*
X137833677Y-105742060D02*
X137941427Y-105742060D01*
X137941427Y-105742060D02*
X138049176Y-105688186D01*
X138049176Y-105688186D02*
X138183863Y-105553499D01*
X137241054Y-106388558D02*
X137294929Y-106388558D01*
X137294929Y-106388558D02*
X137402679Y-106334683D01*
X137402679Y-106334683D02*
X137456553Y-106280808D01*
X137456553Y-106280808D02*
X137510428Y-106173059D01*
X137510428Y-106173059D02*
X137510428Y-106065309D01*
X137510428Y-106065309D02*
X137483491Y-105984497D01*
X137483491Y-105984497D02*
X137402679Y-105849810D01*
X137402679Y-105849810D02*
X137321866Y-105768998D01*
X137321866Y-105768998D02*
X137187179Y-105688186D01*
X137187179Y-105688186D02*
X137106367Y-105661248D01*
X137106367Y-105661248D02*
X136998618Y-105661248D01*
X136998618Y-105661248D02*
X136890868Y-105715123D01*
X136890868Y-105715123D02*
X136836993Y-105768998D01*
X136836993Y-105768998D02*
X136783118Y-105876747D01*
X136783118Y-105876747D02*
X136783118Y-105930622D01*
X137241054Y-106604057D02*
X136810056Y-107035056D01*
X136136621Y-106469370D02*
X136513744Y-107223618D01*
X136513744Y-107223618D02*
X135759497Y-106846494D01*
X135813372Y-107923990D02*
X135732560Y-107466054D01*
X136136621Y-107600741D02*
X135570935Y-107035056D01*
X135570935Y-107035056D02*
X135355436Y-107250555D01*
X135355436Y-107250555D02*
X135328499Y-107331367D01*
X135328499Y-107331367D02*
X135328499Y-107385242D01*
X135328499Y-107385242D02*
X135355436Y-107466054D01*
X135355436Y-107466054D02*
X135436248Y-107546866D01*
X135436248Y-107546866D02*
X135517061Y-107573804D01*
X135517061Y-107573804D02*
X135570935Y-107573804D01*
X135570935Y-107573804D02*
X135651748Y-107546866D01*
X135651748Y-107546866D02*
X135867247Y-107331367D01*
X135274624Y-107870115D02*
X135086062Y-108058677D01*
X135301561Y-108435800D02*
X135570935Y-108166426D01*
X135570935Y-108166426D02*
X135005250Y-107600741D01*
X135005250Y-107600741D02*
X134735876Y-107870115D01*
X134574251Y-108570488D02*
X134762813Y-108381926D01*
X135059125Y-108678237D02*
X134493439Y-108112552D01*
X134493439Y-108112552D02*
X134224065Y-108381926D01*
X110420868Y-106714998D02*
X110447805Y-106634185D01*
X110447805Y-106634185D02*
X110528618Y-106553373D01*
X110528618Y-106553373D02*
X110636367Y-106499498D01*
X110636367Y-106499498D02*
X110744117Y-106499498D01*
X110744117Y-106499498D02*
X110824929Y-106526436D01*
X110824929Y-106526436D02*
X110959616Y-106607248D01*
X110959616Y-106607248D02*
X111040428Y-106688060D01*
X111040428Y-106688060D02*
X111121241Y-106822747D01*
X111121241Y-106822747D02*
X111148178Y-106903560D01*
X111148178Y-106903560D02*
X111148178Y-107011309D01*
X111148178Y-107011309D02*
X111094303Y-107119059D01*
X111094303Y-107119059D02*
X111040428Y-107172934D01*
X111040428Y-107172934D02*
X110932679Y-107226808D01*
X110932679Y-107226808D02*
X110878804Y-107226808D01*
X110878804Y-107226808D02*
X110690242Y-107038247D01*
X110690242Y-107038247D02*
X110797992Y-106930497D01*
X110690242Y-107523120D02*
X110124557Y-106957434D01*
X110124557Y-106957434D02*
X109909057Y-107172934D01*
X109909057Y-107172934D02*
X109882120Y-107253746D01*
X109882120Y-107253746D02*
X109882120Y-107307621D01*
X109882120Y-107307621D02*
X109909057Y-107388433D01*
X109909057Y-107388433D02*
X109989870Y-107469245D01*
X109989870Y-107469245D02*
X110070682Y-107496182D01*
X110070682Y-107496182D02*
X110124557Y-107496182D01*
X110124557Y-107496182D02*
X110205369Y-107469245D01*
X110205369Y-107469245D02*
X110420868Y-107253746D01*
X109828245Y-108385117D02*
X110151494Y-108061868D01*
X109989870Y-108223492D02*
X109424184Y-107657807D01*
X109424184Y-107657807D02*
X109558871Y-107684744D01*
X109558871Y-107684744D02*
X109666621Y-107684744D01*
X109666621Y-107684744D02*
X109747433Y-107657807D01*
X109558871Y-108654491D02*
X109451121Y-108762240D01*
X109451121Y-108762240D02*
X109370309Y-108789178D01*
X109370309Y-108789178D02*
X109316434Y-108789178D01*
X109316434Y-108789178D02*
X109181747Y-108762240D01*
X109181747Y-108762240D02*
X109047060Y-108681428D01*
X109047060Y-108681428D02*
X108831561Y-108465929D01*
X108831561Y-108465929D02*
X108804624Y-108385117D01*
X108804624Y-108385117D02*
X108804624Y-108331242D01*
X108804624Y-108331242D02*
X108831561Y-108250430D01*
X108831561Y-108250430D02*
X108939311Y-108142680D01*
X108939311Y-108142680D02*
X109020123Y-108115743D01*
X109020123Y-108115743D02*
X109073998Y-108115743D01*
X109073998Y-108115743D02*
X109154810Y-108142680D01*
X109154810Y-108142680D02*
X109289497Y-108277367D01*
X109289497Y-108277367D02*
X109316434Y-108358179D01*
X109316434Y-108358179D02*
X109316434Y-108412054D01*
X109316434Y-108412054D02*
X109289497Y-108492866D01*
X109289497Y-108492866D02*
X109181747Y-108600616D01*
X109181747Y-108600616D02*
X109100935Y-108627553D01*
X109100935Y-108627553D02*
X109047060Y-108627553D01*
X109047060Y-108627553D02*
X108966248Y-108600616D01*
X125660868Y-106714998D02*
X125687805Y-106634185D01*
X125687805Y-106634185D02*
X125768618Y-106553373D01*
X125768618Y-106553373D02*
X125876367Y-106499498D01*
X125876367Y-106499498D02*
X125984117Y-106499498D01*
X125984117Y-106499498D02*
X126064929Y-106526436D01*
X126064929Y-106526436D02*
X126199616Y-106607248D01*
X126199616Y-106607248D02*
X126280428Y-106688060D01*
X126280428Y-106688060D02*
X126361241Y-106822747D01*
X126361241Y-106822747D02*
X126388178Y-106903560D01*
X126388178Y-106903560D02*
X126388178Y-107011309D01*
X126388178Y-107011309D02*
X126334303Y-107119059D01*
X126334303Y-107119059D02*
X126280428Y-107172934D01*
X126280428Y-107172934D02*
X126172679Y-107226808D01*
X126172679Y-107226808D02*
X126118804Y-107226808D01*
X126118804Y-107226808D02*
X125930242Y-107038247D01*
X125930242Y-107038247D02*
X126037992Y-106930497D01*
X125930242Y-107523120D02*
X125364557Y-106957434D01*
X125364557Y-106957434D02*
X125149057Y-107172934D01*
X125149057Y-107172934D02*
X125122120Y-107253746D01*
X125122120Y-107253746D02*
X125122120Y-107307621D01*
X125122120Y-107307621D02*
X125149057Y-107388433D01*
X125149057Y-107388433D02*
X125229870Y-107469245D01*
X125229870Y-107469245D02*
X125310682Y-107496182D01*
X125310682Y-107496182D02*
X125364557Y-107496182D01*
X125364557Y-107496182D02*
X125445369Y-107469245D01*
X125445369Y-107469245D02*
X125660868Y-107253746D01*
X124879683Y-107550057D02*
X124825809Y-107550057D01*
X124825809Y-107550057D02*
X124744996Y-107576995D01*
X124744996Y-107576995D02*
X124610309Y-107711682D01*
X124610309Y-107711682D02*
X124583372Y-107792494D01*
X124583372Y-107792494D02*
X124583372Y-107846369D01*
X124583372Y-107846369D02*
X124610309Y-107927181D01*
X124610309Y-107927181D02*
X124664184Y-107981056D01*
X124664184Y-107981056D02*
X124771934Y-108034930D01*
X124771934Y-108034930D02*
X125418431Y-108034930D01*
X125418431Y-108034930D02*
X125068245Y-108385117D01*
X124017686Y-108304305D02*
X124125436Y-108196555D01*
X124125436Y-108196555D02*
X124206248Y-108169618D01*
X124206248Y-108169618D02*
X124260123Y-108169618D01*
X124260123Y-108169618D02*
X124394810Y-108196555D01*
X124394810Y-108196555D02*
X124529497Y-108277367D01*
X124529497Y-108277367D02*
X124744996Y-108492866D01*
X124744996Y-108492866D02*
X124771934Y-108573679D01*
X124771934Y-108573679D02*
X124771934Y-108627553D01*
X124771934Y-108627553D02*
X124744996Y-108708366D01*
X124744996Y-108708366D02*
X124637247Y-108816115D01*
X124637247Y-108816115D02*
X124556434Y-108843053D01*
X124556434Y-108843053D02*
X124502560Y-108843053D01*
X124502560Y-108843053D02*
X124421747Y-108816115D01*
X124421747Y-108816115D02*
X124287060Y-108681428D01*
X124287060Y-108681428D02*
X124260123Y-108600616D01*
X124260123Y-108600616D02*
X124260123Y-108546741D01*
X124260123Y-108546741D02*
X124287060Y-108465929D01*
X124287060Y-108465929D02*
X124394810Y-108358179D01*
X124394810Y-108358179D02*
X124475622Y-108331242D01*
X124475622Y-108331242D02*
X124529497Y-108331242D01*
X124529497Y-108331242D02*
X124610309Y-108358179D01*
X120311494Y-132838372D02*
X120338431Y-132757560D01*
X120338431Y-132757560D02*
X120419243Y-132676748D01*
X120419243Y-132676748D02*
X120526993Y-132622873D01*
X120526993Y-132622873D02*
X120634742Y-132622873D01*
X120634742Y-132622873D02*
X120715555Y-132649810D01*
X120715555Y-132649810D02*
X120850242Y-132730623D01*
X120850242Y-132730623D02*
X120931054Y-132811435D01*
X120931054Y-132811435D02*
X121011866Y-132946122D01*
X121011866Y-132946122D02*
X121038803Y-133026934D01*
X121038803Y-133026934D02*
X121038803Y-133134684D01*
X121038803Y-133134684D02*
X120984929Y-133242433D01*
X120984929Y-133242433D02*
X120931054Y-133296308D01*
X120931054Y-133296308D02*
X120823304Y-133350183D01*
X120823304Y-133350183D02*
X120769429Y-133350183D01*
X120769429Y-133350183D02*
X120580868Y-133161621D01*
X120580868Y-133161621D02*
X120688617Y-133053871D01*
X120580868Y-133646494D02*
X120015182Y-133080809D01*
X120015182Y-133080809D02*
X119799683Y-133296308D01*
X119799683Y-133296308D02*
X119772746Y-133377120D01*
X119772746Y-133377120D02*
X119772746Y-133430995D01*
X119772746Y-133430995D02*
X119799683Y-133511807D01*
X119799683Y-133511807D02*
X119880495Y-133592619D01*
X119880495Y-133592619D02*
X119961307Y-133619557D01*
X119961307Y-133619557D02*
X120015182Y-133619557D01*
X120015182Y-133619557D02*
X120095994Y-133592619D01*
X120095994Y-133592619D02*
X120311494Y-133377120D01*
X119988245Y-134239117D02*
X119880495Y-134346867D01*
X119880495Y-134346867D02*
X119799683Y-134373804D01*
X119799683Y-134373804D02*
X119745808Y-134373804D01*
X119745808Y-134373804D02*
X119611121Y-134346867D01*
X119611121Y-134346867D02*
X119476434Y-134266054D01*
X119476434Y-134266054D02*
X119260935Y-134050555D01*
X119260935Y-134050555D02*
X119233998Y-133969743D01*
X119233998Y-133969743D02*
X119233998Y-133915868D01*
X119233998Y-133915868D02*
X119260935Y-133835056D01*
X119260935Y-133835056D02*
X119368685Y-133727306D01*
X119368685Y-133727306D02*
X119449497Y-133700369D01*
X119449497Y-133700369D02*
X119503372Y-133700369D01*
X119503372Y-133700369D02*
X119584184Y-133727306D01*
X119584184Y-133727306D02*
X119718871Y-133861993D01*
X119718871Y-133861993D02*
X119745808Y-133942806D01*
X119745808Y-133942806D02*
X119745808Y-133996680D01*
X119745808Y-133996680D02*
X119718871Y-134077493D01*
X119718871Y-134077493D02*
X119611121Y-134185242D01*
X119611121Y-134185242D02*
X119530309Y-134212180D01*
X119530309Y-134212180D02*
X119476434Y-134212180D01*
X119476434Y-134212180D02*
X119395622Y-134185242D01*
X131441240Y-106768873D02*
X131171866Y-107038247D01*
X131656739Y-106876623D02*
X130902492Y-106499499D01*
X130902492Y-106499499D02*
X131279615Y-107253746D01*
X130255994Y-107199871D02*
X130282932Y-107119059D01*
X130282932Y-107119059D02*
X130363744Y-107038247D01*
X130363744Y-107038247D02*
X130471494Y-106984372D01*
X130471494Y-106984372D02*
X130579243Y-106984372D01*
X130579243Y-106984372D02*
X130660055Y-107011310D01*
X130660055Y-107011310D02*
X130794742Y-107092122D01*
X130794742Y-107092122D02*
X130875555Y-107172934D01*
X130875555Y-107172934D02*
X130956367Y-107307621D01*
X130956367Y-107307621D02*
X130983304Y-107388433D01*
X130983304Y-107388433D02*
X130983304Y-107496183D01*
X130983304Y-107496183D02*
X130929429Y-107603932D01*
X130929429Y-107603932D02*
X130875555Y-107657807D01*
X130875555Y-107657807D02*
X130767805Y-107711682D01*
X130767805Y-107711682D02*
X130713930Y-107711682D01*
X130713930Y-107711682D02*
X130525368Y-107523120D01*
X130525368Y-107523120D02*
X130633118Y-107415371D01*
X130525368Y-108007993D02*
X129959683Y-107442308D01*
X129959683Y-107442308D02*
X130202120Y-108331242D01*
X130202120Y-108331242D02*
X129636434Y-107765557D01*
X129932746Y-108600616D02*
X129367060Y-108034931D01*
X129367060Y-108034931D02*
X129232373Y-108169618D01*
X129232373Y-108169618D02*
X129178498Y-108277367D01*
X129178498Y-108277367D02*
X129178498Y-108385117D01*
X129178498Y-108385117D02*
X129205436Y-108465929D01*
X129205436Y-108465929D02*
X129286248Y-108600616D01*
X129286248Y-108600616D02*
X129367060Y-108681428D01*
X129367060Y-108681428D02*
X129501747Y-108762241D01*
X129501747Y-108762241D02*
X129582560Y-108789178D01*
X129582560Y-108789178D02*
X129690309Y-108789178D01*
X129690309Y-108789178D02*
X129798059Y-108735303D01*
X129798059Y-108735303D02*
X129932746Y-108600616D01*
X115500868Y-132822998D02*
X115527805Y-132742185D01*
X115527805Y-132742185D02*
X115608618Y-132661373D01*
X115608618Y-132661373D02*
X115716367Y-132607498D01*
X115716367Y-132607498D02*
X115824117Y-132607498D01*
X115824117Y-132607498D02*
X115904929Y-132634436D01*
X115904929Y-132634436D02*
X116039616Y-132715248D01*
X116039616Y-132715248D02*
X116120428Y-132796060D01*
X116120428Y-132796060D02*
X116201241Y-132930747D01*
X116201241Y-132930747D02*
X116228178Y-133011560D01*
X116228178Y-133011560D02*
X116228178Y-133119309D01*
X116228178Y-133119309D02*
X116174303Y-133227059D01*
X116174303Y-133227059D02*
X116120428Y-133280934D01*
X116120428Y-133280934D02*
X116012679Y-133334808D01*
X116012679Y-133334808D02*
X115958804Y-133334808D01*
X115958804Y-133334808D02*
X115770242Y-133146247D01*
X115770242Y-133146247D02*
X115877992Y-133038497D01*
X115770242Y-133631120D02*
X115204557Y-133065434D01*
X115204557Y-133065434D02*
X114989057Y-133280934D01*
X114989057Y-133280934D02*
X114962120Y-133361746D01*
X114962120Y-133361746D02*
X114962120Y-133415621D01*
X114962120Y-133415621D02*
X114989057Y-133496433D01*
X114989057Y-133496433D02*
X115069870Y-133577245D01*
X115069870Y-133577245D02*
X115150682Y-133604182D01*
X115150682Y-133604182D02*
X115204557Y-133604182D01*
X115204557Y-133604182D02*
X115285369Y-133577245D01*
X115285369Y-133577245D02*
X115500868Y-133361746D01*
X114908245Y-134493117D02*
X115231494Y-134169868D01*
X115069870Y-134331492D02*
X114504184Y-133765807D01*
X114504184Y-133765807D02*
X114638871Y-133792744D01*
X114638871Y-133792744D02*
X114746621Y-133792744D01*
X114746621Y-133792744D02*
X114827433Y-133765807D01*
X113992373Y-134277618D02*
X113938499Y-134331492D01*
X113938499Y-134331492D02*
X113911561Y-134412305D01*
X113911561Y-134412305D02*
X113911561Y-134466179D01*
X113911561Y-134466179D02*
X113938499Y-134546992D01*
X113938499Y-134546992D02*
X114019311Y-134681679D01*
X114019311Y-134681679D02*
X114153998Y-134816366D01*
X114153998Y-134816366D02*
X114288685Y-134897178D01*
X114288685Y-134897178D02*
X114369497Y-134924115D01*
X114369497Y-134924115D02*
X114423372Y-134924115D01*
X114423372Y-134924115D02*
X114504184Y-134897178D01*
X114504184Y-134897178D02*
X114558059Y-134843303D01*
X114558059Y-134843303D02*
X114584996Y-134762491D01*
X114584996Y-134762491D02*
X114584996Y-134708616D01*
X114584996Y-134708616D02*
X114558059Y-134627804D01*
X114558059Y-134627804D02*
X114477247Y-134493117D01*
X114477247Y-134493117D02*
X114342560Y-134358430D01*
X114342560Y-134358430D02*
X114207873Y-134277618D01*
X114207873Y-134277618D02*
X114127060Y-134250680D01*
X114127060Y-134250680D02*
X114073186Y-134250680D01*
X114073186Y-134250680D02*
X113992373Y-134277618D01*
X117798431Y-107211435D02*
X117825368Y-107130623D01*
X117825368Y-107130623D02*
X117906180Y-107049811D01*
X117906180Y-107049811D02*
X118013930Y-106995936D01*
X118013930Y-106995936D02*
X118121680Y-106995936D01*
X118121680Y-106995936D02*
X118202492Y-107022873D01*
X118202492Y-107022873D02*
X118337179Y-107103685D01*
X118337179Y-107103685D02*
X118417991Y-107184498D01*
X118417991Y-107184498D02*
X118498803Y-107319185D01*
X118498803Y-107319185D02*
X118525741Y-107399997D01*
X118525741Y-107399997D02*
X118525741Y-107507746D01*
X118525741Y-107507746D02*
X118471866Y-107615496D01*
X118471866Y-107615496D02*
X118417991Y-107669371D01*
X118417991Y-107669371D02*
X118310241Y-107723246D01*
X118310241Y-107723246D02*
X118256367Y-107723246D01*
X118256367Y-107723246D02*
X118067805Y-107534684D01*
X118067805Y-107534684D02*
X118175554Y-107426934D01*
X118067805Y-108019557D02*
X117502119Y-107453872D01*
X117502119Y-107453872D02*
X117744556Y-108342806D01*
X117744556Y-108342806D02*
X117178871Y-107777120D01*
X117475182Y-108612180D02*
X116909497Y-108046494D01*
X116909497Y-108046494D02*
X116774810Y-108181181D01*
X116774810Y-108181181D02*
X116720935Y-108288931D01*
X116720935Y-108288931D02*
X116720935Y-108396680D01*
X116720935Y-108396680D02*
X116747872Y-108477493D01*
X116747872Y-108477493D02*
X116828685Y-108612180D01*
X116828685Y-108612180D02*
X116909497Y-108692992D01*
X116909497Y-108692992D02*
X117044184Y-108773804D01*
X117044184Y-108773804D02*
X117124996Y-108800741D01*
X117124996Y-108800741D02*
X117232746Y-108800741D01*
X117232746Y-108800741D02*
X117340495Y-108746867D01*
X117340495Y-108746867D02*
X117475182Y-108612180D01*
X100260868Y-106714998D02*
X100287805Y-106634185D01*
X100287805Y-106634185D02*
X100368618Y-106553373D01*
X100368618Y-106553373D02*
X100476367Y-106499498D01*
X100476367Y-106499498D02*
X100584117Y-106499498D01*
X100584117Y-106499498D02*
X100664929Y-106526436D01*
X100664929Y-106526436D02*
X100799616Y-106607248D01*
X100799616Y-106607248D02*
X100880428Y-106688060D01*
X100880428Y-106688060D02*
X100961241Y-106822747D01*
X100961241Y-106822747D02*
X100988178Y-106903560D01*
X100988178Y-106903560D02*
X100988178Y-107011309D01*
X100988178Y-107011309D02*
X100934303Y-107119059D01*
X100934303Y-107119059D02*
X100880428Y-107172934D01*
X100880428Y-107172934D02*
X100772679Y-107226808D01*
X100772679Y-107226808D02*
X100718804Y-107226808D01*
X100718804Y-107226808D02*
X100530242Y-107038247D01*
X100530242Y-107038247D02*
X100637992Y-106930497D01*
X100530242Y-107523120D02*
X99964557Y-106957434D01*
X99964557Y-106957434D02*
X99749057Y-107172934D01*
X99749057Y-107172934D02*
X99722120Y-107253746D01*
X99722120Y-107253746D02*
X99722120Y-107307621D01*
X99722120Y-107307621D02*
X99749057Y-107388433D01*
X99749057Y-107388433D02*
X99829870Y-107469245D01*
X99829870Y-107469245D02*
X99910682Y-107496182D01*
X99910682Y-107496182D02*
X99964557Y-107496182D01*
X99964557Y-107496182D02*
X100045369Y-107469245D01*
X100045369Y-107469245D02*
X100260868Y-107253746D01*
X99668245Y-108385117D02*
X99991494Y-108061868D01*
X99829870Y-108223492D02*
X99264184Y-107657807D01*
X99264184Y-107657807D02*
X99398871Y-107684744D01*
X99398871Y-107684744D02*
X99506621Y-107684744D01*
X99506621Y-107684744D02*
X99587433Y-107657807D01*
X98617686Y-108304305D02*
X98725436Y-108196555D01*
X98725436Y-108196555D02*
X98806248Y-108169618D01*
X98806248Y-108169618D02*
X98860123Y-108169618D01*
X98860123Y-108169618D02*
X98994810Y-108196555D01*
X98994810Y-108196555D02*
X99129497Y-108277367D01*
X99129497Y-108277367D02*
X99344996Y-108492866D01*
X99344996Y-108492866D02*
X99371934Y-108573679D01*
X99371934Y-108573679D02*
X99371934Y-108627553D01*
X99371934Y-108627553D02*
X99344996Y-108708366D01*
X99344996Y-108708366D02*
X99237247Y-108816115D01*
X99237247Y-108816115D02*
X99156434Y-108843053D01*
X99156434Y-108843053D02*
X99102560Y-108843053D01*
X99102560Y-108843053D02*
X99021747Y-108816115D01*
X99021747Y-108816115D02*
X98887060Y-108681428D01*
X98887060Y-108681428D02*
X98860123Y-108600616D01*
X98860123Y-108600616D02*
X98860123Y-108546741D01*
X98860123Y-108546741D02*
X98887060Y-108465929D01*
X98887060Y-108465929D02*
X98994810Y-108358179D01*
X98994810Y-108358179D02*
X99075622Y-108331242D01*
X99075622Y-108331242D02*
X99129497Y-108331242D01*
X99129497Y-108331242D02*
X99210309Y-108358179D01*
X98124200Y-113429761D02*
X98162295Y-113544047D01*
X98162295Y-113544047D02*
X98162295Y-113734523D01*
X98162295Y-113734523D02*
X98124200Y-113810714D01*
X98124200Y-113810714D02*
X98086104Y-113848809D01*
X98086104Y-113848809D02*
X98009914Y-113886904D01*
X98009914Y-113886904D02*
X97933723Y-113886904D01*
X97933723Y-113886904D02*
X97857533Y-113848809D01*
X97857533Y-113848809D02*
X97819438Y-113810714D01*
X97819438Y-113810714D02*
X97781342Y-113734523D01*
X97781342Y-113734523D02*
X97743247Y-113582142D01*
X97743247Y-113582142D02*
X97705152Y-113505952D01*
X97705152Y-113505952D02*
X97667057Y-113467857D01*
X97667057Y-113467857D02*
X97590866Y-113429761D01*
X97590866Y-113429761D02*
X97514676Y-113429761D01*
X97514676Y-113429761D02*
X97438485Y-113467857D01*
X97438485Y-113467857D02*
X97400390Y-113505952D01*
X97400390Y-113505952D02*
X97362295Y-113582142D01*
X97362295Y-113582142D02*
X97362295Y-113772619D01*
X97362295Y-113772619D02*
X97400390Y-113886904D01*
X97362295Y-114153571D02*
X98162295Y-114344047D01*
X98162295Y-114344047D02*
X97590866Y-114496428D01*
X97590866Y-114496428D02*
X98162295Y-114648809D01*
X98162295Y-114648809D02*
X97362295Y-114839286D01*
X98162295Y-115144048D02*
X97362295Y-115144048D01*
X97362295Y-115144048D02*
X97362295Y-115334524D01*
X97362295Y-115334524D02*
X97400390Y-115448810D01*
X97400390Y-115448810D02*
X97476580Y-115525000D01*
X97476580Y-115525000D02*
X97552771Y-115563095D01*
X97552771Y-115563095D02*
X97705152Y-115601191D01*
X97705152Y-115601191D02*
X97819438Y-115601191D01*
X97819438Y-115601191D02*
X97971819Y-115563095D01*
X97971819Y-115563095D02*
X98048009Y-115525000D01*
X98048009Y-115525000D02*
X98124200Y-115448810D01*
X98124200Y-115448810D02*
X98162295Y-115334524D01*
X98162295Y-115334524D02*
X98162295Y-115144048D01*
X98162295Y-115944048D02*
X97362295Y-115944048D01*
X97362295Y-116477381D02*
X97362295Y-116629762D01*
X97362295Y-116629762D02*
X97400390Y-116705952D01*
X97400390Y-116705952D02*
X97476580Y-116782143D01*
X97476580Y-116782143D02*
X97628961Y-116820238D01*
X97628961Y-116820238D02*
X97895628Y-116820238D01*
X97895628Y-116820238D02*
X98048009Y-116782143D01*
X98048009Y-116782143D02*
X98124200Y-116705952D01*
X98124200Y-116705952D02*
X98162295Y-116629762D01*
X98162295Y-116629762D02*
X98162295Y-116477381D01*
X98162295Y-116477381D02*
X98124200Y-116401190D01*
X98124200Y-116401190D02*
X98048009Y-116325000D01*
X98048009Y-116325000D02*
X97895628Y-116286904D01*
X97895628Y-116286904D02*
X97628961Y-116286904D01*
X97628961Y-116286904D02*
X97476580Y-116325000D01*
X97476580Y-116325000D02*
X97400390Y-116401190D01*
X97400390Y-116401190D02*
X97362295Y-116477381D01*
X138290868Y-106815123D02*
X137940682Y-107165309D01*
X137940682Y-107165309D02*
X138344743Y-107192247D01*
X138344743Y-107192247D02*
X138263931Y-107273059D01*
X138263931Y-107273059D02*
X138236993Y-107353871D01*
X138236993Y-107353871D02*
X138236993Y-107407746D01*
X138236993Y-107407746D02*
X138263931Y-107488558D01*
X138263931Y-107488558D02*
X138398618Y-107623245D01*
X138398618Y-107623245D02*
X138479430Y-107650182D01*
X138479430Y-107650182D02*
X138533305Y-107650182D01*
X138533305Y-107650182D02*
X138614117Y-107623245D01*
X138614117Y-107623245D02*
X138775741Y-107461621D01*
X138775741Y-107461621D02*
X138802679Y-107380808D01*
X138802679Y-107380808D02*
X138802679Y-107326934D01*
X137779057Y-107326934D02*
X138156181Y-108081181D01*
X138156181Y-108081181D02*
X137401934Y-107704057D01*
X137267247Y-107838744D02*
X136917061Y-108188930D01*
X136917061Y-108188930D02*
X137321122Y-108215868D01*
X137321122Y-108215868D02*
X137240309Y-108296680D01*
X137240309Y-108296680D02*
X137213372Y-108377492D01*
X137213372Y-108377492D02*
X137213372Y-108431367D01*
X137213372Y-108431367D02*
X137240309Y-108512179D01*
X137240309Y-108512179D02*
X137374996Y-108646866D01*
X137374996Y-108646866D02*
X137455809Y-108673804D01*
X137455809Y-108673804D02*
X137509683Y-108673804D01*
X137509683Y-108673804D02*
X137590496Y-108646866D01*
X137590496Y-108646866D02*
X137752120Y-108485242D01*
X137752120Y-108485242D02*
X137779057Y-108404430D01*
X137779057Y-108404430D02*
X137779057Y-108350555D01*
X110420868Y-132968998D02*
X110447805Y-132888185D01*
X110447805Y-132888185D02*
X110528618Y-132807373D01*
X110528618Y-132807373D02*
X110636367Y-132753498D01*
X110636367Y-132753498D02*
X110744117Y-132753498D01*
X110744117Y-132753498D02*
X110824929Y-132780436D01*
X110824929Y-132780436D02*
X110959616Y-132861248D01*
X110959616Y-132861248D02*
X111040428Y-132942060D01*
X111040428Y-132942060D02*
X111121241Y-133076747D01*
X111121241Y-133076747D02*
X111148178Y-133157560D01*
X111148178Y-133157560D02*
X111148178Y-133265309D01*
X111148178Y-133265309D02*
X111094303Y-133373059D01*
X111094303Y-133373059D02*
X111040428Y-133426934D01*
X111040428Y-133426934D02*
X110932679Y-133480808D01*
X110932679Y-133480808D02*
X110878804Y-133480808D01*
X110878804Y-133480808D02*
X110690242Y-133292247D01*
X110690242Y-133292247D02*
X110797992Y-133184497D01*
X110690242Y-133777120D02*
X110124557Y-133211434D01*
X110124557Y-133211434D02*
X109909057Y-133426934D01*
X109909057Y-133426934D02*
X109882120Y-133507746D01*
X109882120Y-133507746D02*
X109882120Y-133561621D01*
X109882120Y-133561621D02*
X109909057Y-133642433D01*
X109909057Y-133642433D02*
X109989870Y-133723245D01*
X109989870Y-133723245D02*
X110070682Y-133750182D01*
X110070682Y-133750182D02*
X110124557Y-133750182D01*
X110124557Y-133750182D02*
X110205369Y-133723245D01*
X110205369Y-133723245D02*
X110420868Y-133507746D01*
X109828245Y-134639117D02*
X110151494Y-134315868D01*
X109989870Y-134477492D02*
X109424184Y-133911807D01*
X109424184Y-133911807D02*
X109558871Y-133938744D01*
X109558871Y-133938744D02*
X109666621Y-133938744D01*
X109666621Y-133938744D02*
X109747433Y-133911807D01*
X109100935Y-134342805D02*
X109047060Y-134342805D01*
X109047060Y-134342805D02*
X108966248Y-134369743D01*
X108966248Y-134369743D02*
X108831561Y-134504430D01*
X108831561Y-134504430D02*
X108804624Y-134585242D01*
X108804624Y-134585242D02*
X108804624Y-134639117D01*
X108804624Y-134639117D02*
X108831561Y-134719929D01*
X108831561Y-134719929D02*
X108885436Y-134773804D01*
X108885436Y-134773804D02*
X108993186Y-134827679D01*
X108993186Y-134827679D02*
X109639683Y-134827679D01*
X109639683Y-134827679D02*
X109289497Y-135177865D01*
X107880868Y-106714998D02*
X107907805Y-106634185D01*
X107907805Y-106634185D02*
X107988618Y-106553373D01*
X107988618Y-106553373D02*
X108096367Y-106499498D01*
X108096367Y-106499498D02*
X108204117Y-106499498D01*
X108204117Y-106499498D02*
X108284929Y-106526436D01*
X108284929Y-106526436D02*
X108419616Y-106607248D01*
X108419616Y-106607248D02*
X108500428Y-106688060D01*
X108500428Y-106688060D02*
X108581241Y-106822747D01*
X108581241Y-106822747D02*
X108608178Y-106903560D01*
X108608178Y-106903560D02*
X108608178Y-107011309D01*
X108608178Y-107011309D02*
X108554303Y-107119059D01*
X108554303Y-107119059D02*
X108500428Y-107172934D01*
X108500428Y-107172934D02*
X108392679Y-107226808D01*
X108392679Y-107226808D02*
X108338804Y-107226808D01*
X108338804Y-107226808D02*
X108150242Y-107038247D01*
X108150242Y-107038247D02*
X108257992Y-106930497D01*
X108150242Y-107523120D02*
X107584557Y-106957434D01*
X107584557Y-106957434D02*
X107369057Y-107172934D01*
X107369057Y-107172934D02*
X107342120Y-107253746D01*
X107342120Y-107253746D02*
X107342120Y-107307621D01*
X107342120Y-107307621D02*
X107369057Y-107388433D01*
X107369057Y-107388433D02*
X107449870Y-107469245D01*
X107449870Y-107469245D02*
X107530682Y-107496182D01*
X107530682Y-107496182D02*
X107584557Y-107496182D01*
X107584557Y-107496182D02*
X107665369Y-107469245D01*
X107665369Y-107469245D02*
X107880868Y-107253746D01*
X107288245Y-108385117D02*
X107611494Y-108061868D01*
X107449870Y-108223492D02*
X106884184Y-107657807D01*
X106884184Y-107657807D02*
X107018871Y-107684744D01*
X107018871Y-107684744D02*
X107126621Y-107684744D01*
X107126621Y-107684744D02*
X107207433Y-107657807D01*
X106641747Y-108385117D02*
X106668685Y-108304305D01*
X106668685Y-108304305D02*
X106668685Y-108250430D01*
X106668685Y-108250430D02*
X106641747Y-108169618D01*
X106641747Y-108169618D02*
X106614810Y-108142680D01*
X106614810Y-108142680D02*
X106533998Y-108115743D01*
X106533998Y-108115743D02*
X106480123Y-108115743D01*
X106480123Y-108115743D02*
X106399311Y-108142680D01*
X106399311Y-108142680D02*
X106291561Y-108250430D01*
X106291561Y-108250430D02*
X106264624Y-108331242D01*
X106264624Y-108331242D02*
X106264624Y-108385117D01*
X106264624Y-108385117D02*
X106291561Y-108465929D01*
X106291561Y-108465929D02*
X106318499Y-108492866D01*
X106318499Y-108492866D02*
X106399311Y-108519804D01*
X106399311Y-108519804D02*
X106453186Y-108519804D01*
X106453186Y-108519804D02*
X106533998Y-108492866D01*
X106533998Y-108492866D02*
X106641747Y-108385117D01*
X106641747Y-108385117D02*
X106722560Y-108358179D01*
X106722560Y-108358179D02*
X106776434Y-108358179D01*
X106776434Y-108358179D02*
X106857247Y-108385117D01*
X106857247Y-108385117D02*
X106964996Y-108492866D01*
X106964996Y-108492866D02*
X106991934Y-108573679D01*
X106991934Y-108573679D02*
X106991934Y-108627553D01*
X106991934Y-108627553D02*
X106964996Y-108708366D01*
X106964996Y-108708366D02*
X106857247Y-108816115D01*
X106857247Y-108816115D02*
X106776434Y-108843053D01*
X106776434Y-108843053D02*
X106722560Y-108843053D01*
X106722560Y-108843053D02*
X106641747Y-108816115D01*
X106641747Y-108816115D02*
X106533998Y-108708366D01*
X106533998Y-108708366D02*
X106507060Y-108627553D01*
X106507060Y-108627553D02*
X106507060Y-108573679D01*
X106507060Y-108573679D02*
X106533998Y-108492866D01*
X127931494Y-132838372D02*
X127958431Y-132757560D01*
X127958431Y-132757560D02*
X128039243Y-132676748D01*
X128039243Y-132676748D02*
X128146993Y-132622873D01*
X128146993Y-132622873D02*
X128254742Y-132622873D01*
X128254742Y-132622873D02*
X128335555Y-132649810D01*
X128335555Y-132649810D02*
X128470242Y-132730623D01*
X128470242Y-132730623D02*
X128551054Y-132811435D01*
X128551054Y-132811435D02*
X128631866Y-132946122D01*
X128631866Y-132946122D02*
X128658803Y-133026934D01*
X128658803Y-133026934D02*
X128658803Y-133134684D01*
X128658803Y-133134684D02*
X128604929Y-133242433D01*
X128604929Y-133242433D02*
X128551054Y-133296308D01*
X128551054Y-133296308D02*
X128443304Y-133350183D01*
X128443304Y-133350183D02*
X128389429Y-133350183D01*
X128389429Y-133350183D02*
X128200868Y-133161621D01*
X128200868Y-133161621D02*
X128308617Y-133053871D01*
X128200868Y-133646494D02*
X127635182Y-133080809D01*
X127635182Y-133080809D02*
X127419683Y-133296308D01*
X127419683Y-133296308D02*
X127392746Y-133377120D01*
X127392746Y-133377120D02*
X127392746Y-133430995D01*
X127392746Y-133430995D02*
X127419683Y-133511807D01*
X127419683Y-133511807D02*
X127500495Y-133592619D01*
X127500495Y-133592619D02*
X127581307Y-133619557D01*
X127581307Y-133619557D02*
X127635182Y-133619557D01*
X127635182Y-133619557D02*
X127715994Y-133592619D01*
X127715994Y-133592619D02*
X127931494Y-133377120D01*
X126827060Y-133888931D02*
X126934810Y-133781181D01*
X126934810Y-133781181D02*
X127015622Y-133754244D01*
X127015622Y-133754244D02*
X127069497Y-133754244D01*
X127069497Y-133754244D02*
X127204184Y-133781181D01*
X127204184Y-133781181D02*
X127338871Y-133861993D01*
X127338871Y-133861993D02*
X127554370Y-134077493D01*
X127554370Y-134077493D02*
X127581307Y-134158305D01*
X127581307Y-134158305D02*
X127581307Y-134212180D01*
X127581307Y-134212180D02*
X127554370Y-134292992D01*
X127554370Y-134292992D02*
X127446620Y-134400741D01*
X127446620Y-134400741D02*
X127365808Y-134427679D01*
X127365808Y-134427679D02*
X127311933Y-134427679D01*
X127311933Y-134427679D02*
X127231121Y-134400741D01*
X127231121Y-134400741D02*
X127096434Y-134266054D01*
X127096434Y-134266054D02*
X127069497Y-134185242D01*
X127069497Y-134185242D02*
X127069497Y-134131367D01*
X127069497Y-134131367D02*
X127096434Y-134050555D01*
X127096434Y-134050555D02*
X127204184Y-133942806D01*
X127204184Y-133942806D02*
X127284996Y-133915868D01*
X127284996Y-133915868D02*
X127338871Y-133915868D01*
X127338871Y-133915868D02*
X127419683Y-133942806D01*
X117798431Y-132811435D02*
X117825368Y-132730623D01*
X117825368Y-132730623D02*
X117906180Y-132649811D01*
X117906180Y-132649811D02*
X118013930Y-132595936D01*
X118013930Y-132595936D02*
X118121680Y-132595936D01*
X118121680Y-132595936D02*
X118202492Y-132622873D01*
X118202492Y-132622873D02*
X118337179Y-132703685D01*
X118337179Y-132703685D02*
X118417991Y-132784498D01*
X118417991Y-132784498D02*
X118498803Y-132919185D01*
X118498803Y-132919185D02*
X118525741Y-132999997D01*
X118525741Y-132999997D02*
X118525741Y-133107746D01*
X118525741Y-133107746D02*
X118471866Y-133215496D01*
X118471866Y-133215496D02*
X118417991Y-133269371D01*
X118417991Y-133269371D02*
X118310241Y-133323246D01*
X118310241Y-133323246D02*
X118256367Y-133323246D01*
X118256367Y-133323246D02*
X118067805Y-133134684D01*
X118067805Y-133134684D02*
X118175554Y-133026934D01*
X118067805Y-133619557D02*
X117502119Y-133053872D01*
X117502119Y-133053872D02*
X117744556Y-133942806D01*
X117744556Y-133942806D02*
X117178871Y-133377120D01*
X117475182Y-134212180D02*
X116909497Y-133646494D01*
X116909497Y-133646494D02*
X116774810Y-133781181D01*
X116774810Y-133781181D02*
X116720935Y-133888931D01*
X116720935Y-133888931D02*
X116720935Y-133996680D01*
X116720935Y-133996680D02*
X116747872Y-134077493D01*
X116747872Y-134077493D02*
X116828685Y-134212180D01*
X116828685Y-134212180D02*
X116909497Y-134292992D01*
X116909497Y-134292992D02*
X117044184Y-134373804D01*
X117044184Y-134373804D02*
X117124996Y-134400741D01*
X117124996Y-134400741D02*
X117232746Y-134400741D01*
X117232746Y-134400741D02*
X117340495Y-134346867D01*
X117340495Y-134346867D02*
X117475182Y-134212180D01*
X146250242Y-106245749D02*
X146627366Y-106999996D01*
X146627366Y-106999996D02*
X145873118Y-106622873D01*
X146250242Y-107323245D02*
X146196367Y-107430995D01*
X146196367Y-107430995D02*
X146061680Y-107565682D01*
X146061680Y-107565682D02*
X145980868Y-107592619D01*
X145980868Y-107592619D02*
X145926993Y-107592619D01*
X145926993Y-107592619D02*
X145846181Y-107565682D01*
X145846181Y-107565682D02*
X145792306Y-107511807D01*
X145792306Y-107511807D02*
X145765369Y-107430995D01*
X145765369Y-107430995D02*
X145765369Y-107377120D01*
X145765369Y-107377120D02*
X145792306Y-107296308D01*
X145792306Y-107296308D02*
X145873118Y-107161621D01*
X145873118Y-107161621D02*
X145900056Y-107080808D01*
X145900056Y-107080808D02*
X145900056Y-107026934D01*
X145900056Y-107026934D02*
X145873118Y-106946121D01*
X145873118Y-106946121D02*
X145819244Y-106892247D01*
X145819244Y-106892247D02*
X145738431Y-106865309D01*
X145738431Y-106865309D02*
X145684557Y-106865309D01*
X145684557Y-106865309D02*
X145603744Y-106892247D01*
X145603744Y-106892247D02*
X145469057Y-107026934D01*
X145469057Y-107026934D02*
X145415183Y-107134683D01*
X145334370Y-107754244D02*
X145603744Y-108023618D01*
X145226621Y-107269370D02*
X145334370Y-107754244D01*
X145334370Y-107754244D02*
X144849497Y-107646494D01*
X145226621Y-108346866D02*
X145172746Y-108454616D01*
X145172746Y-108454616D02*
X145038059Y-108589303D01*
X145038059Y-108589303D02*
X144957247Y-108616240D01*
X144957247Y-108616240D02*
X144903372Y-108616240D01*
X144903372Y-108616240D02*
X144822560Y-108589303D01*
X144822560Y-108589303D02*
X144768685Y-108535428D01*
X144768685Y-108535428D02*
X144741748Y-108454616D01*
X144741748Y-108454616D02*
X144741748Y-108400741D01*
X144741748Y-108400741D02*
X144768685Y-108319929D01*
X144768685Y-108319929D02*
X144849497Y-108185242D01*
X144849497Y-108185242D02*
X144876435Y-108104430D01*
X144876435Y-108104430D02*
X144876435Y-108050555D01*
X144876435Y-108050555D02*
X144849497Y-107969743D01*
X144849497Y-107969743D02*
X144795622Y-107915868D01*
X144795622Y-107915868D02*
X144714810Y-107888930D01*
X144714810Y-107888930D02*
X144660935Y-107888930D01*
X144660935Y-107888930D02*
X144580123Y-107915868D01*
X144580123Y-107915868D02*
X144445436Y-108050555D01*
X144445436Y-108050555D02*
X144391561Y-108158304D01*
X105098431Y-107211435D02*
X105125368Y-107130623D01*
X105125368Y-107130623D02*
X105206180Y-107049811D01*
X105206180Y-107049811D02*
X105313930Y-106995936D01*
X105313930Y-106995936D02*
X105421680Y-106995936D01*
X105421680Y-106995936D02*
X105502492Y-107022873D01*
X105502492Y-107022873D02*
X105637179Y-107103685D01*
X105637179Y-107103685D02*
X105717991Y-107184498D01*
X105717991Y-107184498D02*
X105798803Y-107319185D01*
X105798803Y-107319185D02*
X105825741Y-107399997D01*
X105825741Y-107399997D02*
X105825741Y-107507746D01*
X105825741Y-107507746D02*
X105771866Y-107615496D01*
X105771866Y-107615496D02*
X105717991Y-107669371D01*
X105717991Y-107669371D02*
X105610241Y-107723246D01*
X105610241Y-107723246D02*
X105556367Y-107723246D01*
X105556367Y-107723246D02*
X105367805Y-107534684D01*
X105367805Y-107534684D02*
X105475554Y-107426934D01*
X105367805Y-108019557D02*
X104802119Y-107453872D01*
X104802119Y-107453872D02*
X105044556Y-108342806D01*
X105044556Y-108342806D02*
X104478871Y-107777120D01*
X104775182Y-108612180D02*
X104209497Y-108046494D01*
X104209497Y-108046494D02*
X104074810Y-108181181D01*
X104074810Y-108181181D02*
X104020935Y-108288931D01*
X104020935Y-108288931D02*
X104020935Y-108396680D01*
X104020935Y-108396680D02*
X104047872Y-108477493D01*
X104047872Y-108477493D02*
X104128685Y-108612180D01*
X104128685Y-108612180D02*
X104209497Y-108692992D01*
X104209497Y-108692992D02*
X104344184Y-108773804D01*
X104344184Y-108773804D02*
X104424996Y-108800741D01*
X104424996Y-108800741D02*
X104532746Y-108800741D01*
X104532746Y-108800741D02*
X104640495Y-108746867D01*
X104640495Y-108746867D02*
X104775182Y-108612180D01*
X148251494Y-132838372D02*
X148278431Y-132757560D01*
X148278431Y-132757560D02*
X148359243Y-132676748D01*
X148359243Y-132676748D02*
X148466993Y-132622873D01*
X148466993Y-132622873D02*
X148574742Y-132622873D01*
X148574742Y-132622873D02*
X148655555Y-132649810D01*
X148655555Y-132649810D02*
X148790242Y-132730623D01*
X148790242Y-132730623D02*
X148871054Y-132811435D01*
X148871054Y-132811435D02*
X148951866Y-132946122D01*
X148951866Y-132946122D02*
X148978803Y-133026934D01*
X148978803Y-133026934D02*
X148978803Y-133134684D01*
X148978803Y-133134684D02*
X148924929Y-133242433D01*
X148924929Y-133242433D02*
X148871054Y-133296308D01*
X148871054Y-133296308D02*
X148763304Y-133350183D01*
X148763304Y-133350183D02*
X148709429Y-133350183D01*
X148709429Y-133350183D02*
X148520868Y-133161621D01*
X148520868Y-133161621D02*
X148628617Y-133053871D01*
X148520868Y-133646494D02*
X147955182Y-133080809D01*
X147955182Y-133080809D02*
X147739683Y-133296308D01*
X147739683Y-133296308D02*
X147712746Y-133377120D01*
X147712746Y-133377120D02*
X147712746Y-133430995D01*
X147712746Y-133430995D02*
X147739683Y-133511807D01*
X147739683Y-133511807D02*
X147820495Y-133592619D01*
X147820495Y-133592619D02*
X147901307Y-133619557D01*
X147901307Y-133619557D02*
X147955182Y-133619557D01*
X147955182Y-133619557D02*
X148035994Y-133592619D01*
X148035994Y-133592619D02*
X148251494Y-133377120D01*
X147281747Y-133754244D02*
X147227872Y-133808119D01*
X147227872Y-133808119D02*
X147200935Y-133888931D01*
X147200935Y-133888931D02*
X147200935Y-133942806D01*
X147200935Y-133942806D02*
X147227872Y-134023618D01*
X147227872Y-134023618D02*
X147308685Y-134158305D01*
X147308685Y-134158305D02*
X147443372Y-134292992D01*
X147443372Y-134292992D02*
X147578059Y-134373804D01*
X147578059Y-134373804D02*
X147658871Y-134400741D01*
X147658871Y-134400741D02*
X147712746Y-134400741D01*
X147712746Y-134400741D02*
X147793558Y-134373804D01*
X147793558Y-134373804D02*
X147847433Y-134319929D01*
X147847433Y-134319929D02*
X147874370Y-134239117D01*
X147874370Y-134239117D02*
X147874370Y-134185242D01*
X147874370Y-134185242D02*
X147847433Y-134104430D01*
X147847433Y-134104430D02*
X147766620Y-133969743D01*
X147766620Y-133969743D02*
X147631933Y-133835056D01*
X147631933Y-133835056D02*
X147497246Y-133754244D01*
X147497246Y-133754244D02*
X147416434Y-133727306D01*
X147416434Y-133727306D02*
X147362559Y-133727306D01*
X147362559Y-133727306D02*
X147281747Y-133754244D01*
X128190868Y-106714998D02*
X128217805Y-106634185D01*
X128217805Y-106634185D02*
X128298618Y-106553373D01*
X128298618Y-106553373D02*
X128406367Y-106499498D01*
X128406367Y-106499498D02*
X128514117Y-106499498D01*
X128514117Y-106499498D02*
X128594929Y-106526436D01*
X128594929Y-106526436D02*
X128729616Y-106607248D01*
X128729616Y-106607248D02*
X128810428Y-106688060D01*
X128810428Y-106688060D02*
X128891241Y-106822747D01*
X128891241Y-106822747D02*
X128918178Y-106903560D01*
X128918178Y-106903560D02*
X128918178Y-107011309D01*
X128918178Y-107011309D02*
X128864303Y-107119059D01*
X128864303Y-107119059D02*
X128810428Y-107172934D01*
X128810428Y-107172934D02*
X128702679Y-107226808D01*
X128702679Y-107226808D02*
X128648804Y-107226808D01*
X128648804Y-107226808D02*
X128460242Y-107038247D01*
X128460242Y-107038247D02*
X128567992Y-106930497D01*
X128460242Y-107523120D02*
X127894557Y-106957434D01*
X127894557Y-106957434D02*
X127679057Y-107172934D01*
X127679057Y-107172934D02*
X127652120Y-107253746D01*
X127652120Y-107253746D02*
X127652120Y-107307621D01*
X127652120Y-107307621D02*
X127679057Y-107388433D01*
X127679057Y-107388433D02*
X127759870Y-107469245D01*
X127759870Y-107469245D02*
X127840682Y-107496182D01*
X127840682Y-107496182D02*
X127894557Y-107496182D01*
X127894557Y-107496182D02*
X127975369Y-107469245D01*
X127975369Y-107469245D02*
X128190868Y-107253746D01*
X127409683Y-107550057D02*
X127355809Y-107550057D01*
X127355809Y-107550057D02*
X127274996Y-107576995D01*
X127274996Y-107576995D02*
X127140309Y-107711682D01*
X127140309Y-107711682D02*
X127113372Y-107792494D01*
X127113372Y-107792494D02*
X127113372Y-107846369D01*
X127113372Y-107846369D02*
X127140309Y-107927181D01*
X127140309Y-107927181D02*
X127194184Y-107981056D01*
X127194184Y-107981056D02*
X127301934Y-108034930D01*
X127301934Y-108034930D02*
X127948431Y-108034930D01*
X127948431Y-108034930D02*
X127598245Y-108385117D01*
X126843998Y-108007993D02*
X126466874Y-108385117D01*
X126466874Y-108385117D02*
X127274996Y-108708366D01*
X148927585Y-106078406D02*
X149304709Y-106832653D01*
X149304709Y-106832653D02*
X148550462Y-106455529D01*
X148442712Y-107102027D02*
X148388838Y-107209776D01*
X148388838Y-107209776D02*
X148388838Y-107263651D01*
X148388838Y-107263651D02*
X148415775Y-107344463D01*
X148415775Y-107344463D02*
X148496587Y-107425276D01*
X148496587Y-107425276D02*
X148577399Y-107452213D01*
X148577399Y-107452213D02*
X148631274Y-107452213D01*
X148631274Y-107452213D02*
X148712086Y-107425276D01*
X148712086Y-107425276D02*
X148927586Y-107209776D01*
X148927586Y-107209776D02*
X148361900Y-106644091D01*
X148361900Y-106644091D02*
X148173338Y-106832653D01*
X148173338Y-106832653D02*
X148146401Y-106913465D01*
X148146401Y-106913465D02*
X148146401Y-106967340D01*
X148146401Y-106967340D02*
X148173338Y-107048152D01*
X148173338Y-107048152D02*
X148227213Y-107102027D01*
X148227213Y-107102027D02*
X148308025Y-107128964D01*
X148308025Y-107128964D02*
X148361900Y-107128964D01*
X148361900Y-107128964D02*
X148442712Y-107102027D01*
X148442712Y-107102027D02*
X148631274Y-106913465D01*
X147796215Y-107209776D02*
X148254151Y-107667712D01*
X148254151Y-107667712D02*
X148281088Y-107748524D01*
X148281088Y-107748524D02*
X148281088Y-107802399D01*
X148281088Y-107802399D02*
X148254151Y-107883211D01*
X148254151Y-107883211D02*
X148146401Y-107990961D01*
X148146401Y-107990961D02*
X148065589Y-108017898D01*
X148065589Y-108017898D02*
X148011714Y-108017898D01*
X148011714Y-108017898D02*
X147930902Y-107990961D01*
X147930902Y-107990961D02*
X147472966Y-107533025D01*
X147769277Y-108314210D02*
X147715403Y-108421959D01*
X147715403Y-108421959D02*
X147580716Y-108556646D01*
X147580716Y-108556646D02*
X147499903Y-108583584D01*
X147499903Y-108583584D02*
X147446029Y-108583584D01*
X147446029Y-108583584D02*
X147365216Y-108556646D01*
X147365216Y-108556646D02*
X147311342Y-108502771D01*
X147311342Y-108502771D02*
X147284404Y-108421959D01*
X147284404Y-108421959D02*
X147284404Y-108368084D01*
X147284404Y-108368084D02*
X147311342Y-108287272D01*
X147311342Y-108287272D02*
X147392154Y-108152585D01*
X147392154Y-108152585D02*
X147419091Y-108071773D01*
X147419091Y-108071773D02*
X147419091Y-108017898D01*
X147419091Y-108017898D02*
X147392154Y-107937086D01*
X147392154Y-107937086D02*
X147338279Y-107883211D01*
X147338279Y-107883211D02*
X147257467Y-107856274D01*
X147257467Y-107856274D02*
X147203592Y-107856274D01*
X147203592Y-107856274D02*
X147122780Y-107883211D01*
X147122780Y-107883211D02*
X146988093Y-108017898D01*
X146988093Y-108017898D02*
X146934218Y-108125648D01*
X143198431Y-107211435D02*
X143225368Y-107130623D01*
X143225368Y-107130623D02*
X143306180Y-107049811D01*
X143306180Y-107049811D02*
X143413930Y-106995936D01*
X143413930Y-106995936D02*
X143521680Y-106995936D01*
X143521680Y-106995936D02*
X143602492Y-107022873D01*
X143602492Y-107022873D02*
X143737179Y-107103685D01*
X143737179Y-107103685D02*
X143817991Y-107184498D01*
X143817991Y-107184498D02*
X143898803Y-107319185D01*
X143898803Y-107319185D02*
X143925741Y-107399997D01*
X143925741Y-107399997D02*
X143925741Y-107507746D01*
X143925741Y-107507746D02*
X143871866Y-107615496D01*
X143871866Y-107615496D02*
X143817991Y-107669371D01*
X143817991Y-107669371D02*
X143710241Y-107723246D01*
X143710241Y-107723246D02*
X143656367Y-107723246D01*
X143656367Y-107723246D02*
X143467805Y-107534684D01*
X143467805Y-107534684D02*
X143575554Y-107426934D01*
X143467805Y-108019557D02*
X142902119Y-107453872D01*
X142902119Y-107453872D02*
X143144556Y-108342806D01*
X143144556Y-108342806D02*
X142578871Y-107777120D01*
X142875182Y-108612180D02*
X142309497Y-108046494D01*
X142309497Y-108046494D02*
X142174810Y-108181181D01*
X142174810Y-108181181D02*
X142120935Y-108288931D01*
X142120935Y-108288931D02*
X142120935Y-108396680D01*
X142120935Y-108396680D02*
X142147872Y-108477493D01*
X142147872Y-108477493D02*
X142228685Y-108612180D01*
X142228685Y-108612180D02*
X142309497Y-108692992D01*
X142309497Y-108692992D02*
X142444184Y-108773804D01*
X142444184Y-108773804D02*
X142524996Y-108800741D01*
X142524996Y-108800741D02*
X142632746Y-108800741D01*
X142632746Y-108800741D02*
X142740495Y-108746867D01*
X142740495Y-108746867D02*
X142875182Y-108612180D01*
D12*
%TO.C,U1*%
X149500000Y-110225000D02*
X149200000Y-110225000D01*
X147100000Y-110225000D02*
X146700000Y-110225000D01*
X144500000Y-110225000D02*
X144100000Y-110225000D01*
X142000000Y-110225000D02*
X141600000Y-110225000D01*
X139400000Y-110225000D02*
X139000000Y-110225000D01*
X136900000Y-110225000D02*
X136500000Y-110225000D01*
X134400000Y-110225000D02*
X134000000Y-110225000D01*
X131800000Y-110225000D02*
X131400000Y-110225000D01*
X129300000Y-110225000D02*
X128900000Y-110225000D01*
X126700000Y-110225000D02*
X126300000Y-110225000D01*
X124200000Y-110225000D02*
X123800000Y-110225000D01*
X121700000Y-110225000D02*
X121300000Y-110225000D01*
X119100000Y-110225000D02*
X118700000Y-110225000D01*
X116600000Y-110225000D02*
X116200000Y-110225000D01*
X114000000Y-110225000D02*
X113600000Y-110225000D01*
X111500000Y-110225000D02*
X111100000Y-110225000D01*
X108900000Y-110225000D02*
X108500000Y-110225000D01*
X106400000Y-110225000D02*
X106000000Y-110225000D01*
X103900000Y-110225000D02*
X103500000Y-110225000D01*
X101300000Y-110225000D02*
X100900000Y-110225000D01*
X98500000Y-110225000D02*
X98500000Y-117025000D01*
X98500000Y-119625000D02*
X98500000Y-119225000D01*
X98500000Y-122225000D02*
X98500000Y-121825000D01*
X98500000Y-124425000D02*
X98500000Y-131225000D01*
X146833000Y-128218000D02*
X149500000Y-128218000D01*
X149500000Y-131225000D02*
X149500000Y-110225000D01*
X149500000Y-131225000D02*
X149200000Y-131225000D01*
X147100000Y-131225000D02*
X146700000Y-131225000D01*
X146833000Y-131225000D02*
X146833000Y-128218000D01*
X144500000Y-131225000D02*
X144100000Y-131225000D01*
X142000000Y-131225000D02*
X141600000Y-131225000D01*
X139400000Y-131225000D02*
X139000000Y-131225000D01*
X136900000Y-131225000D02*
X136500000Y-131225000D01*
X134400000Y-131225000D02*
X134000000Y-131225000D01*
X131800000Y-131225000D02*
X131400000Y-131225000D01*
X129300000Y-131225000D02*
X128900000Y-131225000D01*
X126700000Y-131225000D02*
X126300000Y-131225000D01*
X124200000Y-131225000D02*
X123800000Y-131225000D01*
X121700000Y-131225000D02*
X121300000Y-131225000D01*
X119100000Y-131225000D02*
X118700000Y-131225000D01*
X116600000Y-131225000D02*
X116200000Y-131225000D01*
X114000000Y-131225000D02*
X113600000Y-131225000D01*
X111500000Y-131225000D02*
X111100000Y-131225000D01*
X108900000Y-131225000D02*
X108500000Y-131225000D01*
X106400000Y-131225000D02*
X106000000Y-131225000D01*
X103900000Y-131225000D02*
X103500000Y-131225000D01*
X101300000Y-131225000D02*
X100900000Y-131225000D01*
%TD*%
%LPC*%
D13*
%TO.C,J1*%
X139000000Y-94500000D03*
X135500000Y-99500000D03*
X132000000Y-94500000D03*
X128500000Y-99500000D03*
X125000000Y-94500000D03*
X121500000Y-99500000D03*
%TD*%
D14*
%TO.C,H3*%
X65000000Y-130000000D03*
%TD*%
D13*
%TO.C,J3*%
X89750000Y-94500000D03*
X86250000Y-99500000D03*
X82750000Y-94500000D03*
X79250000Y-99500000D03*
X75750000Y-94500000D03*
X72250000Y-99500000D03*
%TD*%
%TO.C,J2*%
X114500000Y-94500000D03*
X111000000Y-99500000D03*
X107500000Y-94500000D03*
X104000000Y-99500000D03*
X100500000Y-94500000D03*
X97000000Y-99500000D03*
%TD*%
D14*
%TO.C,H1*%
X145500000Y-95000000D03*
%TD*%
%TO.C,H2*%
X65000000Y-95000000D03*
%TD*%
D15*
%TO.C,U1*%
X99200000Y-118185000D03*
X99200000Y-120725000D03*
X99200000Y-123265000D03*
D16*
X148130000Y-110935000D03*
X145590000Y-110935000D03*
X143050000Y-110935000D03*
X140510000Y-110935000D03*
X137970000Y-110935000D03*
X135430000Y-110935000D03*
X132890000Y-110935000D03*
X130350000Y-110935000D03*
X127810000Y-110935000D03*
X125270000Y-110935000D03*
X122730000Y-110935000D03*
X120190000Y-110935000D03*
X117650000Y-110935000D03*
X115110000Y-110935000D03*
X112570000Y-110935000D03*
X110030000Y-110935000D03*
X107490000Y-110935000D03*
X104950000Y-110935000D03*
X102410000Y-110935000D03*
X99870000Y-110935000D03*
X99870000Y-130515000D03*
X102410000Y-130515000D03*
X104950000Y-130515000D03*
X107490000Y-130515000D03*
X110030000Y-130515000D03*
X112570000Y-130515000D03*
X115110000Y-130515000D03*
X117650000Y-130515000D03*
X120190000Y-130515000D03*
X122730000Y-130515000D03*
X125270000Y-130515000D03*
X127810000Y-130515000D03*
X130350000Y-130515000D03*
X132890000Y-130515000D03*
X135430000Y-130515000D03*
X137970000Y-130515000D03*
X140510000Y-130515000D03*
X143050000Y-130515000D03*
X145590000Y-130515000D03*
X148130000Y-130515000D03*
D17*
X148000000Y-118000000D03*
D18*
X144970000Y-118300000D03*
X144970000Y-123150000D03*
D17*
X148000000Y-123450000D03*
%TD*%
%LPD*%
M02*
