M48
; DRILL file {KiCad 7.0.8-7.0.8~ubuntu22.04.1} date Fr 03 Nov 2023 21:58:55 CET
; FORMAT={-:-/ absolute / metric / decimal}
; #@! TF.CreationDate,2023-11-03T21:58:55+01:00
; #@! TF.GenerationSoftware,Kicad,Pcbnew,7.0.8-7.0.8~ubuntu22.04.1
; #@! TF.FileFunction,Plated,1,4,PTH
FMAT,2
METRIC
; #@! TA.AperFunction,Plated,PTH,ViaDrill
T1C0.300
; #@! TA.AperFunction,Plated,PTH,ViaDrill
T2C0.600
; #@! TA.AperFunction,Plated,PTH,ComponentDrill
T3C1.200
; #@! TA.AperFunction,Plated,PTH,ViaDrill
T4C1.400
%
G90
G05
T1
X71.2Y-103.7
X71.871Y-131.349
X72.6Y-126.45
X77.05Y-124.85
X78.204Y-134.25
X80.75Y-123.25
X80.95Y-124.15
X81.85Y-124.95
X82.1Y-122.5
X82.118Y-134.071
X83.05Y-121.75
X83.35Y-123.45
X84.9Y-123.1
X88.4Y-128.1
X88.5Y-126.0
X88.797Y-130.434
X89.175Y-126.475
X93.675Y-124.875
X93.77Y-130.75
X96.0Y-123.2
X96.6Y-120.4
X96.9Y-123.4
X98.475Y-124.975
X98.7Y-134.1
X100.71Y-124.971
X102.5Y-123.5
X104.0Y-123.5
X105.0Y-126.2
X105.445Y-133.186
X105.744Y-126.294
X110.2Y-124.7
X113.9Y-123.1
X114.1Y-124.0
X115.0Y-124.8
X116.2Y-121.6
X116.5Y-123.3
X118.6Y-96.2
X119.407Y-121.26
X120.0Y-120.8
X121.4Y-126.1
X123.2Y-127.9
X123.468Y-124.945
X123.645Y-125.674
X125.5Y-114.7
X125.548Y-125.893
X125.6Y-116.8
X125.6Y-118.7
X125.7Y-117.6
X126.081Y-125.36
X126.1Y-119.5
X126.5Y-116.2
X127.0Y-114.6
X127.4Y-115.3
X128.1Y-117.8
X128.3Y-102.9
X128.973Y-123.513
X129.1Y-116.1
X129.4Y-133.0
X129.5Y-114.5
X130.0Y-115.3
X130.1Y-102.4
X130.2Y-101.4
X130.4Y-133.0
X130.7Y-118.4
X131.273Y-122.906
X131.4Y-101.4
X131.4Y-117.3
X131.596Y-116.05
X132.1Y-114.6
X132.5Y-115.5
X133.4Y-102.8
X133.4Y-122.3
X133.5Y-133.0
X133.65Y-100.75
X134.3Y-116.1
X134.6Y-133.0
X134.7Y-102.9
X134.7Y-114.6
X135.0Y-115.5
X135.7Y-117.8
X136.0Y-102.5
X136.0Y-122.3
X136.9Y-116.1
X137.3Y-118.0
X137.307Y-118.807
X138.6Y-114.6
X138.7Y-117.1
X138.9Y-115.5
X138.9Y-133.0
X139.8Y-102.9
X139.8Y-122.4
X140.0Y-133.0
X141.1Y-114.6
X141.2Y-117.1
X141.45Y-115.65
X142.0Y-118.8
X142.3Y-116.8
X142.4Y-122.4
X142.8Y-119.3
X143.4Y-122.7
X143.6Y-114.6
X143.7Y-117.2
X144.0Y-100.4
X144.4Y-102.2
X144.9Y-103.0
X144.9Y-116.7
X145.506Y-132.95
X145.9Y-115.5
X146.2Y-114.6
X146.975Y-122.239
X147.2Y-133.1
X147.352Y-119.296
X148.2Y-114.9
X148.4Y-115.9
T2
X69.8Y-132.0
X74.95Y-118.75
X76.5Y-117.0
X77.55Y-118.75
X81.621Y-119.046
X84.15Y-118.65
X85.5Y-117.5
X91.575Y-118.775
X94.175Y-118.775
X96.348Y-118.152
X101.8Y-118.3
X103.5Y-118.0
X105.2Y-128.15
X105.3Y-117.8
X105.4Y-120.7
X108.1Y-118.6
X109.496Y-116.549
X110.7Y-118.6
X114.7Y-118.5
X117.3Y-118.5
X117.705Y-128.025
X119.6Y-107.5
X120.875Y-118.559
X132.9Y-124.1
X137.2Y-113.6
X142.6Y-104.5
X143.0Y-124.9
T3
X72.25Y-99.5
X75.75Y-94.5
X79.25Y-99.5
X82.75Y-94.5
X86.25Y-99.5
X89.75Y-94.5
X97.0Y-99.5
X100.5Y-94.5
X104.0Y-99.5
X107.5Y-94.5
X111.0Y-99.5
X114.5Y-94.5
X121.5Y-99.5
X125.0Y-94.5
X128.5Y-99.5
X132.0Y-94.5
X135.5Y-99.5
X139.0Y-94.5
T4
X73.7Y-108.0
X86.7Y-108.1
X88.4Y-114.1
X88.5Y-97.0
X90.5Y-108.1
X100.3Y-102.9
X104.5Y-94.5
X105.1Y-107.1
X105.2Y-115.0
X118.0Y-102.5
X122.0Y-115.0
X122.7Y-105.4
T0
M30
