%TF.GenerationSoftware,KiCad,Pcbnew,7.0.8-7.0.8~ubuntu22.04.1*%
%TF.CreationDate,2023-11-03T21:58:31+01:00*%
%TF.ProjectId,door_if4_usb,646f6f72-5f69-4663-945f-7573622e6b69,rev?*%
%TF.SameCoordinates,Original*%
%TF.FileFunction,Copper,L3,Inr*%
%TF.FilePolarity,Positive*%
%FSLAX46Y46*%
G04 Gerber Fmt 4.6, Leading zero omitted, Abs format (unit mm)*
G04 Created by KiCad (PCBNEW 7.0.8-7.0.8~ubuntu22.04.1) date 2023-11-03 21:58:31*
%MOMM*%
%LPD*%
G01*
G04 APERTURE LIST*
%TA.AperFunction,ComponentPad*%
%ADD10C,2.000000*%
%TD*%
%TA.AperFunction,ViaPad*%
%ADD11C,0.600000*%
%TD*%
%TA.AperFunction,ViaPad*%
%ADD12C,1.000000*%
%TD*%
%TA.AperFunction,ViaPad*%
%ADD13C,2.000000*%
%TD*%
%TA.AperFunction,Conductor*%
%ADD14C,1.000000*%
%TD*%
%TA.AperFunction,Conductor*%
%ADD15C,0.250000*%
%TD*%
G04 APERTURE END LIST*
D10*
%TO.N,+24V*%
%TO.C,J1*%
X139000000Y-94500000D03*
%TO.N,IN1*%
X135500000Y-99500000D03*
%TO.N,IN2*%
X132000000Y-94500000D03*
%TO.N,IN3*%
X128500000Y-99500000D03*
%TO.N,IN4*%
X125000000Y-94500000D03*
%TO.N,IN5*%
X121500000Y-99500000D03*
%TD*%
%TO.N,OUT2*%
%TO.C,J3*%
X89750000Y-94500000D03*
%TO.N,OUT3*%
X86250000Y-99500000D03*
%TO.N,OUT4*%
X82750000Y-94500000D03*
%TO.N,OUT5*%
X79250000Y-99500000D03*
%TO.N,OUT6*%
X75750000Y-94500000D03*
%TO.N,GNDA*%
X72250000Y-99500000D03*
%TD*%
%TO.N,+24V*%
%TO.C,J2*%
X114500000Y-94500000D03*
%TO.N,IN6*%
X111000000Y-99500000D03*
%TO.N,IN7*%
X107500000Y-94500000D03*
%TO.N,IN8*%
X104000000Y-99500000D03*
%TO.N,OUT1*%
X100500000Y-94500000D03*
%TO.N,GNDA*%
X97000000Y-99500000D03*
%TD*%
D11*
%TO.N,GND*%
X123200000Y-127900000D03*
%TO.N,+3V3*%
X126500000Y-116200000D03*
%TO.N,GND*%
X125500000Y-114700000D03*
%TO.N,GNDA*%
X71200000Y-103700000D03*
%TO.N,GND*%
X88400000Y-128100000D03*
%TO.N,GNDA*%
X130400000Y-133000000D03*
X134600000Y-133000000D03*
X147200000Y-133100000D03*
X140000000Y-133000000D03*
%TO.N,+24V*%
X145505880Y-132950000D03*
X138900000Y-133000000D03*
X133500000Y-133000000D03*
X129400000Y-133000000D03*
D12*
X69800000Y-132000004D03*
D11*
%TO.N,+3V3*%
X121400000Y-126100000D03*
X105444905Y-133186450D03*
X105000000Y-126200000D03*
X88796752Y-130433953D03*
X88500000Y-126000000D03*
X71870567Y-131349448D03*
%TO.N,+24V*%
X130100000Y-102400000D03*
X133650000Y-100750000D03*
X134700000Y-102900000D03*
X136000000Y-102500000D03*
%TO.N,GNDA*%
X144900000Y-103000000D03*
X139800000Y-102900000D03*
X133400000Y-102800000D03*
X128300000Y-102900000D03*
%TO.N,O_LED*%
X144400000Y-102200000D03*
%TO.N,GND*%
X144000000Y-100400000D03*
%TO.N,S_OUT1*%
X120000000Y-120800000D03*
%TO.N,S_OUT2*%
X119407326Y-121259610D03*
%TO.N,S_OUT3*%
X93769987Y-130750000D03*
%TO.N,S_OUT4*%
X98700000Y-134100000D03*
%TO.N,S_OUT5*%
X78203793Y-134250000D03*
%TO.N,S_OUT6*%
X82118252Y-134071294D03*
D12*
%TO.N,GND*%
X119600000Y-107500000D03*
X142600000Y-104500000D03*
%TO.N,+3V3*%
X137200000Y-113600000D03*
%TO.N,GND*%
X143000000Y-124900000D03*
X132900000Y-124100000D03*
X117705288Y-128025000D03*
X105200000Y-128150000D03*
X105300000Y-117800000D03*
X105400000Y-120700000D03*
D11*
%TO.N,+3V3*%
X131400000Y-117300000D03*
X130700000Y-118400000D03*
X128100000Y-117800000D03*
X148400000Y-115900000D03*
X144900000Y-116700000D03*
X142300000Y-116800000D03*
X143700000Y-117200000D03*
X141200000Y-117100000D03*
X138700000Y-117100000D03*
X135700000Y-117800000D03*
X136900000Y-116100000D03*
X134300000Y-116100000D03*
X131596474Y-116050000D03*
X129100000Y-116100000D03*
%TO.N,S_IN7A*%
X126100000Y-119500000D03*
%TO.N,S_IN7B*%
X125600000Y-118700000D03*
%TO.N,S_IN8A*%
X125700000Y-117600000D03*
%TO.N,S_IN8B*%
X125600000Y-116800000D03*
%TO.N,S_IN6B*%
X127400000Y-115300000D03*
%TO.N,S_IN6A*%
X130000000Y-115300000D03*
%TO.N,S_IN5B*%
X132500000Y-115500000D03*
%TO.N,S_IN5A*%
X135000000Y-115500000D03*
%TO.N,S_IN4B*%
X147351764Y-119296473D03*
%TO.N,S_IN4A*%
X142800000Y-119300000D03*
%TO.N,S_IN3B*%
X142000000Y-118800000D03*
X137300000Y-118000000D03*
%TO.N,S_IN3A*%
X137306587Y-118806587D03*
%TO.N,S_IN2B*%
X138900000Y-115500000D03*
%TO.N,S_IN2A*%
X141450000Y-115650000D03*
%TO.N,S_IN1B*%
X145900000Y-115500000D03*
%TO.N,S_IN1A*%
X148200000Y-114900000D03*
%TO.N,GND*%
X146200000Y-114600000D03*
X143600000Y-114600000D03*
X141100000Y-114600000D03*
X138600000Y-114600000D03*
X134700000Y-114600000D03*
X132100000Y-114600000D03*
X129500000Y-114500000D03*
X127000000Y-114600000D03*
X146975000Y-122238955D03*
X143400000Y-122700000D03*
X142400000Y-122400000D03*
X139800000Y-122400000D03*
X136000000Y-122300000D03*
X133400000Y-122300000D03*
X131272622Y-122906237D03*
X128972756Y-123513468D03*
%TO.N,IN5*%
X130200000Y-101400000D03*
X131400000Y-101400000D03*
%TO.N,IN6*%
X118600000Y-96200000D03*
%TO.N,IN8*%
X126080771Y-125359739D03*
X123468368Y-124944806D03*
%TO.N,IN7*%
X123644510Y-125673832D03*
X125547842Y-125892668D03*
%TO.N,+24V*%
X82100000Y-122500000D03*
X84900000Y-123100000D03*
X104000000Y-123500000D03*
X102500000Y-123500000D03*
D12*
X120875000Y-118559063D03*
X109495556Y-116549500D03*
X103500000Y-118000000D03*
X76500000Y-117000000D03*
X85500000Y-117500000D03*
D13*
X104500000Y-94500000D03*
X88500000Y-97000000D03*
X118000000Y-102500000D03*
%TO.N,GNDA*%
X105100000Y-107100000D03*
X73700000Y-108000000D03*
%TO.N,+24V*%
X88400000Y-114100000D03*
%TO.N,GNDA*%
X86700000Y-108100000D03*
X90500000Y-108100000D03*
X100300000Y-102900000D03*
X122700000Y-105400000D03*
%TO.N,+24V*%
X122000000Y-115000000D03*
X105200000Y-115000000D03*
D11*
%TO.N,Net-(Q3-G1)*%
X96600000Y-120400000D03*
%TO.N,Net-(Q5-G1)*%
X80750000Y-123250000D03*
X83050000Y-121750000D03*
%TO.N,GNDA*%
X80950000Y-124150000D03*
X83350000Y-123450000D03*
%TO.N,GND*%
X72600000Y-126450000D03*
%TO.N,GNDA*%
X81850000Y-124950000D03*
X77050000Y-124850000D03*
D12*
X81620711Y-119045711D03*
X74950000Y-118750000D03*
%TO.N,+24V*%
X77550000Y-118750000D03*
X84150000Y-118650000D03*
D11*
%TO.N,Net-(Q3-G1)*%
X96000000Y-123200000D03*
%TO.N,GNDA*%
X96900000Y-123400000D03*
X100710500Y-124970945D03*
%TO.N,GND*%
X89175000Y-126475000D03*
%TO.N,GNDA*%
X98475000Y-124975000D03*
X93675000Y-124875000D03*
D12*
X96347655Y-118152345D03*
X91575000Y-118775000D03*
%TO.N,+24V*%
X94175000Y-118775000D03*
X101800000Y-118300000D03*
X117300000Y-118500000D03*
X110700000Y-118600000D03*
%TO.N,GNDA*%
X108100000Y-118600000D03*
X114700000Y-118500000D03*
D11*
X110200000Y-124700000D03*
X115000000Y-124800000D03*
%TO.N,GND*%
X105744071Y-126294137D03*
%TO.N,GNDA*%
X116500000Y-123300000D03*
X114100000Y-124000000D03*
%TO.N,Net-(Q1-G1)*%
X116200000Y-121600000D03*
X113900000Y-123100000D03*
%TD*%
D14*
%TO.N,GNDA*%
X107550000Y-132250000D02*
X107700000Y-132400000D01*
X105840928Y-132250000D02*
X107550000Y-132250000D01*
X107700000Y-132400000D02*
X126800000Y-132400000D01*
X105827378Y-132236450D02*
X105840928Y-132250000D01*
X128500000Y-134100000D02*
X130300000Y-134100000D01*
X68600000Y-132600000D02*
X69600000Y-133600000D01*
X74950000Y-118750000D02*
X71650000Y-122050000D01*
X105040372Y-132236450D02*
X105827378Y-132236450D01*
X105026822Y-132250000D02*
X105040372Y-132236450D01*
X104850000Y-132250000D02*
X105026822Y-132250000D01*
X104250000Y-132850000D02*
X104850000Y-132250000D01*
X77350000Y-132850000D02*
X104250000Y-132850000D01*
X76600000Y-133600000D02*
X77350000Y-132850000D01*
X69600000Y-133600000D02*
X76600000Y-133600000D01*
X68600000Y-130000000D02*
X68600000Y-132600000D01*
X126800000Y-132400000D02*
X128500000Y-134100000D01*
X71650000Y-126950000D02*
X68600000Y-130000000D01*
X71650000Y-122050000D02*
X71650000Y-126950000D01*
X130300000Y-134100000D02*
X134600000Y-134100000D01*
D15*
X130400000Y-133000000D02*
X130400000Y-134000000D01*
X130400000Y-134000000D02*
X130300000Y-134100000D01*
D14*
X134600000Y-134100000D02*
X140000000Y-134100000D01*
D15*
X134600000Y-133000000D02*
X134600000Y-134100000D01*
D14*
X140000000Y-134100000D02*
X146200000Y-134100000D01*
D15*
X140000000Y-133000000D02*
X140000000Y-134100000D01*
D14*
X146200000Y-134100000D02*
X147200000Y-133100000D01*
%TO.N,+24V*%
X129300000Y-132000000D02*
X128250000Y-130950000D01*
X93297057Y-131700000D02*
X93047057Y-131450000D01*
X87976346Y-131250000D02*
X75551346Y-131250000D01*
X70249996Y-132450000D02*
X69800000Y-132000004D01*
X102173654Y-131700000D02*
X93297057Y-131700000D01*
X75551346Y-131250000D02*
X74351346Y-132450000D01*
X128250000Y-130950000D02*
X102923654Y-130950000D01*
X102923654Y-130950000D02*
X102173654Y-131700000D01*
X138900000Y-132000000D02*
X144555880Y-132000000D01*
X74351346Y-132450000D02*
X70249996Y-132450000D01*
X88176346Y-131450000D02*
X87976346Y-131250000D01*
X144555880Y-132000000D02*
X145505880Y-132950000D01*
X93047057Y-131450000D02*
X88176346Y-131450000D01*
X133500000Y-132000000D02*
X138900000Y-132000000D01*
D15*
X138900000Y-133000000D02*
X138900000Y-132000000D01*
D14*
X129300000Y-132000000D02*
X133500000Y-132000000D01*
D15*
X133500000Y-133000000D02*
X133500000Y-132000000D01*
X129400000Y-133000000D02*
X129400000Y-132100000D01*
X129400000Y-132100000D02*
X129300000Y-132000000D01*
%TO.N,S_IN3B*%
X141200000Y-118000000D02*
X142000000Y-118800000D01*
X137300000Y-118000000D02*
X141200000Y-118000000D01*
%TD*%
%TA.AperFunction,Conductor*%
%TO.N,GND*%
G36*
X148943039Y-91019685D02*
G01*
X148988794Y-91072489D01*
X149000000Y-91124000D01*
X149000000Y-114268560D01*
X148980315Y-114335599D01*
X148927511Y-114381354D01*
X148858353Y-114391298D01*
X148794797Y-114362273D01*
X148788319Y-114356241D01*
X148702262Y-114270184D01*
X148549523Y-114174211D01*
X148379254Y-114114631D01*
X148379249Y-114114630D01*
X148200004Y-114094435D01*
X148199996Y-114094435D01*
X148020750Y-114114630D01*
X148020745Y-114114631D01*
X147850476Y-114174211D01*
X147697737Y-114270184D01*
X147570184Y-114397737D01*
X147474211Y-114550476D01*
X147414631Y-114720745D01*
X147414630Y-114720750D01*
X147394435Y-114899996D01*
X147394435Y-114900003D01*
X147414630Y-115079249D01*
X147414631Y-115079254D01*
X147474211Y-115249523D01*
X147570184Y-115402262D01*
X147630571Y-115462649D01*
X147664056Y-115523972D01*
X147659932Y-115591285D01*
X147614631Y-115720745D01*
X147614630Y-115720750D01*
X147594435Y-115899996D01*
X147594435Y-115900003D01*
X147614630Y-116079249D01*
X147614631Y-116079254D01*
X147674211Y-116249523D01*
X147770184Y-116402262D01*
X147783985Y-116416063D01*
X147817470Y-116477386D01*
X147812486Y-116547078D01*
X147770614Y-116603011D01*
X147727546Y-116623744D01*
X147710397Y-116628208D01*
X147704981Y-116629363D01*
X147655013Y-116637703D01*
X147597840Y-116657331D01*
X147593330Y-116658690D01*
X147531749Y-116674725D01*
X147531744Y-116674727D01*
X147485711Y-116695535D01*
X147480304Y-116697680D01*
X147435503Y-116713060D01*
X147435498Y-116713063D01*
X147379448Y-116743395D01*
X147375478Y-116745363D01*
X147314514Y-116772922D01*
X147275359Y-116799385D01*
X147270149Y-116802544D01*
X147231379Y-116823526D01*
X147231367Y-116823533D01*
X147178487Y-116864692D01*
X147175124Y-116867133D01*
X147117001Y-116906417D01*
X147116994Y-116906422D01*
X147085248Y-116936847D01*
X147080430Y-116941011D01*
X147048218Y-116966085D01*
X147048209Y-116966093D01*
X147000613Y-117017795D01*
X146997900Y-117020564D01*
X146944882Y-117071378D01*
X146944880Y-117071380D01*
X146920681Y-117104098D01*
X146916448Y-117109223D01*
X146891022Y-117136845D01*
X146850797Y-117198412D01*
X146848741Y-117201367D01*
X146803124Y-117263047D01*
X146803120Y-117263054D01*
X146786268Y-117296475D01*
X146782811Y-117302472D01*
X146764076Y-117331149D01*
X146733219Y-117401496D01*
X146731805Y-117404497D01*
X146723611Y-117420750D01*
X146695790Y-117475931D01*
X146685792Y-117508573D01*
X146683288Y-117515323D01*
X146670845Y-117543691D01*
X146670845Y-117543692D01*
X146651178Y-117621347D01*
X146650358Y-117624279D01*
X146625984Y-117703876D01*
X146625983Y-117703879D01*
X146622063Y-117734485D01*
X146620668Y-117741830D01*
X146613867Y-117768688D01*
X146613864Y-117768705D01*
X146606867Y-117853154D01*
X146595702Y-117940344D01*
X146595701Y-117940344D01*
X146596872Y-117967900D01*
X146596716Y-117975655D01*
X146595021Y-117996123D01*
X146594700Y-118000000D01*
X146599550Y-118058538D01*
X146601955Y-118087567D01*
X146605819Y-118178523D01*
X146605820Y-118178534D01*
X146606756Y-118182875D01*
X146609958Y-118197736D01*
X146610939Y-118202284D01*
X146612118Y-118210225D01*
X146612537Y-118215266D01*
X146613865Y-118231301D01*
X146613865Y-118231304D01*
X146613866Y-118231305D01*
X146636205Y-118319520D01*
X146642445Y-118348474D01*
X146656046Y-118411582D01*
X146663883Y-118431084D01*
X146666458Y-118438987D01*
X146670844Y-118456303D01*
X146708655Y-118542504D01*
X146744934Y-118632787D01*
X146744936Y-118632791D01*
X146746329Y-118635053D01*
X146746625Y-118636140D01*
X146747305Y-118637488D01*
X146747030Y-118637626D01*
X146764712Y-118702461D01*
X146743733Y-118769106D01*
X146728420Y-118787737D01*
X146721950Y-118794207D01*
X146625975Y-118946949D01*
X146566395Y-119117218D01*
X146566394Y-119117223D01*
X146546199Y-119296469D01*
X146546199Y-119296476D01*
X146566394Y-119475722D01*
X146566395Y-119475727D01*
X146625975Y-119645996D01*
X146704008Y-119770184D01*
X146721948Y-119798735D01*
X146849502Y-119926289D01*
X146926264Y-119974522D01*
X146990095Y-120014630D01*
X147002242Y-120022262D01*
X147150704Y-120074211D01*
X147172509Y-120081841D01*
X147172514Y-120081842D01*
X147351760Y-120102038D01*
X147351764Y-120102038D01*
X147351768Y-120102038D01*
X147531013Y-120081842D01*
X147531016Y-120081841D01*
X147531019Y-120081841D01*
X147701286Y-120022262D01*
X147854026Y-119926289D01*
X147981580Y-119798735D01*
X148077553Y-119645995D01*
X148137132Y-119475728D01*
X148137132Y-119475727D01*
X148139432Y-119469155D01*
X148141834Y-119469995D01*
X148170189Y-119419272D01*
X148231841Y-119386397D01*
X148236051Y-119385601D01*
X148237529Y-119385346D01*
X148237541Y-119385346D01*
X148289615Y-119371786D01*
X148295017Y-119370634D01*
X148344981Y-119362298D01*
X148402186Y-119342658D01*
X148406663Y-119341309D01*
X148468249Y-119325275D01*
X148514297Y-119304459D01*
X148519681Y-119302322D01*
X148564503Y-119286936D01*
X148620554Y-119256601D01*
X148624527Y-119254632D01*
X148633156Y-119250730D01*
X148685486Y-119227077D01*
X148724647Y-119200608D01*
X148729820Y-119197469D01*
X148768626Y-119176470D01*
X148799837Y-119152177D01*
X148864830Y-119126534D01*
X148933370Y-119140100D01*
X148983696Y-119188568D01*
X149000000Y-119250030D01*
X149000000Y-122197899D01*
X148980315Y-122264938D01*
X148927511Y-122310693D01*
X148858353Y-122320637D01*
X148798100Y-122294375D01*
X148787080Y-122285477D01*
X148787073Y-122285472D01*
X148784311Y-122283929D01*
X148768643Y-122273542D01*
X148768634Y-122273535D01*
X148768628Y-122273532D01*
X148768626Y-122273530D01*
X148674837Y-122222774D01*
X148578954Y-122169210D01*
X148578953Y-122169209D01*
X148578952Y-122169209D01*
X148576381Y-122168047D01*
X148569284Y-122164898D01*
X148569188Y-122165119D01*
X148564506Y-122163065D01*
X148460723Y-122127436D01*
X148432284Y-122117388D01*
X148354171Y-122089789D01*
X148354170Y-122089788D01*
X148354168Y-122089788D01*
X148354160Y-122089786D01*
X148353612Y-122089692D01*
X148348889Y-122088691D01*
X148344989Y-122087703D01*
X148233675Y-122069128D01*
X148119209Y-122049500D01*
X148119200Y-122049500D01*
X148116049Y-122049500D01*
X147883951Y-122049500D01*
X147883950Y-122049500D01*
X147827533Y-122058913D01*
X147822587Y-122059535D01*
X147820099Y-122059747D01*
X147762469Y-122064652D01*
X147762461Y-122064653D01*
X147710397Y-122078208D01*
X147704981Y-122079363D01*
X147655013Y-122087703D01*
X147597840Y-122107331D01*
X147593330Y-122108690D01*
X147531749Y-122124725D01*
X147531744Y-122124727D01*
X147485711Y-122145535D01*
X147480304Y-122147680D01*
X147435503Y-122163060D01*
X147435498Y-122163063D01*
X147379448Y-122193395D01*
X147375478Y-122195363D01*
X147314514Y-122222922D01*
X147275359Y-122249385D01*
X147270149Y-122252544D01*
X147231379Y-122273526D01*
X147231367Y-122273533D01*
X147178487Y-122314692D01*
X147175124Y-122317133D01*
X147117001Y-122356417D01*
X147116994Y-122356422D01*
X147085248Y-122386847D01*
X147080430Y-122391011D01*
X147048218Y-122416085D01*
X147048209Y-122416093D01*
X147000613Y-122467795D01*
X146997900Y-122470564D01*
X146944882Y-122521378D01*
X146944880Y-122521380D01*
X146920681Y-122554098D01*
X146916448Y-122559223D01*
X146891022Y-122586845D01*
X146850797Y-122648412D01*
X146848741Y-122651367D01*
X146803124Y-122713047D01*
X146803120Y-122713054D01*
X146786268Y-122746475D01*
X146782811Y-122752472D01*
X146764076Y-122781149D01*
X146746954Y-122820184D01*
X146733666Y-122850478D01*
X146733219Y-122851496D01*
X146731803Y-122854503D01*
X146695790Y-122925931D01*
X146685792Y-122958573D01*
X146683288Y-122965323D01*
X146670845Y-122993691D01*
X146670845Y-122993692D01*
X146651178Y-123071347D01*
X146650358Y-123074279D01*
X146625984Y-123153876D01*
X146625983Y-123153879D01*
X146622063Y-123184485D01*
X146620668Y-123191830D01*
X146613867Y-123218688D01*
X146613864Y-123218705D01*
X146606867Y-123303154D01*
X146595702Y-123390344D01*
X146595701Y-123390344D01*
X146596872Y-123417900D01*
X146596716Y-123425655D01*
X146594700Y-123449996D01*
X146594700Y-123450000D01*
X146598655Y-123497737D01*
X146601955Y-123537567D01*
X146605819Y-123628523D01*
X146605820Y-123628534D01*
X146607586Y-123636727D01*
X146610549Y-123650478D01*
X146610939Y-123652284D01*
X146612120Y-123660233D01*
X146613865Y-123681301D01*
X146613865Y-123681304D01*
X146613866Y-123681305D01*
X146636205Y-123769520D01*
X146642671Y-123799521D01*
X146656046Y-123861582D01*
X146663883Y-123881084D01*
X146666458Y-123888987D01*
X146670844Y-123906303D01*
X146708655Y-123992504D01*
X146744934Y-124082787D01*
X146744935Y-124082788D01*
X146754232Y-124097888D01*
X146758218Y-124105495D01*
X146764076Y-124118850D01*
X146817275Y-124200277D01*
X146869930Y-124285794D01*
X146876543Y-124293308D01*
X146887263Y-124307402D01*
X146889738Y-124311189D01*
X146891021Y-124313153D01*
X146959027Y-124387028D01*
X147027436Y-124464755D01*
X147032564Y-124468895D01*
X147045882Y-124481377D01*
X147048216Y-124483913D01*
X147129933Y-124547515D01*
X147212920Y-124614523D01*
X147212922Y-124614524D01*
X147215678Y-124616064D01*
X147231360Y-124626460D01*
X147231367Y-124626465D01*
X147231371Y-124626467D01*
X147231374Y-124626470D01*
X147313188Y-124670745D01*
X147325162Y-124677225D01*
X147421046Y-124730790D01*
X147423849Y-124732058D01*
X147430695Y-124735097D01*
X147430794Y-124734873D01*
X147435490Y-124736932D01*
X147435497Y-124736936D01*
X147539276Y-124772563D01*
X147645829Y-124810211D01*
X147646398Y-124810308D01*
X147651129Y-124811312D01*
X147655007Y-124812294D01*
X147655019Y-124812298D01*
X147766324Y-124830871D01*
X147880791Y-124850499D01*
X147880800Y-124850500D01*
X148116044Y-124850500D01*
X148116049Y-124850500D01*
X148149073Y-124844988D01*
X148172469Y-124841085D01*
X148177407Y-124840463D01*
X148237541Y-124835346D01*
X148289615Y-124821786D01*
X148295017Y-124820634D01*
X148344981Y-124812298D01*
X148402186Y-124792658D01*
X148406663Y-124791309D01*
X148468249Y-124775275D01*
X148474249Y-124772563D01*
X148489760Y-124765551D01*
X148514297Y-124754459D01*
X148519681Y-124752322D01*
X148564503Y-124736936D01*
X148620554Y-124706601D01*
X148624527Y-124704632D01*
X148633156Y-124700730D01*
X148685486Y-124677077D01*
X148724647Y-124650608D01*
X148729820Y-124647469D01*
X148768626Y-124626470D01*
X148799837Y-124602177D01*
X148864830Y-124576534D01*
X148933370Y-124590100D01*
X148983696Y-124638568D01*
X149000000Y-124700030D01*
X149000000Y-128876000D01*
X148980315Y-128943039D01*
X148927511Y-128988794D01*
X148876000Y-129000000D01*
X71314282Y-129000000D01*
X71247243Y-128980315D01*
X71201488Y-128927511D01*
X71191544Y-128858353D01*
X71220569Y-128794797D01*
X71226601Y-128788319D01*
X72348487Y-127666433D01*
X72413053Y-127605059D01*
X72448097Y-127554709D01*
X72450924Y-127550957D01*
X72489698Y-127503407D01*
X72505607Y-127472948D01*
X72509667Y-127466248D01*
X72529295Y-127438049D01*
X72553492Y-127381660D01*
X72555498Y-127377435D01*
X72583909Y-127323049D01*
X72593357Y-127290022D01*
X72595988Y-127282633D01*
X72609540Y-127251058D01*
X72621895Y-127190930D01*
X72622999Y-127186429D01*
X72639886Y-127127418D01*
X72642494Y-127093157D01*
X72643585Y-127085389D01*
X72650500Y-127051743D01*
X72650500Y-126990398D01*
X72650679Y-126985688D01*
X72650703Y-126985368D01*
X72655337Y-126924524D01*
X72650997Y-126890442D01*
X72650500Y-126882603D01*
X72650500Y-126000003D01*
X87694435Y-126000003D01*
X87714630Y-126179249D01*
X87714631Y-126179254D01*
X87774211Y-126349523D01*
X87870184Y-126502262D01*
X87997738Y-126629816D01*
X88150478Y-126725789D01*
X88161984Y-126729815D01*
X88320745Y-126785368D01*
X88320750Y-126785369D01*
X88499996Y-126805565D01*
X88500000Y-126805565D01*
X88500004Y-126805565D01*
X88679249Y-126785369D01*
X88679252Y-126785368D01*
X88679255Y-126785368D01*
X88849522Y-126725789D01*
X89002262Y-126629816D01*
X89129816Y-126502262D01*
X89225789Y-126349522D01*
X89278108Y-126200003D01*
X104194435Y-126200003D01*
X104214630Y-126379249D01*
X104214631Y-126379254D01*
X104274211Y-126549523D01*
X104324662Y-126629815D01*
X104370184Y-126702262D01*
X104497738Y-126829816D01*
X104581748Y-126882603D01*
X104648464Y-126924524D01*
X104650478Y-126925789D01*
X104820745Y-126985368D01*
X104820750Y-126985369D01*
X104999996Y-127005565D01*
X105000000Y-127005565D01*
X105000004Y-127005565D01*
X105179249Y-126985369D01*
X105179252Y-126985368D01*
X105179255Y-126985368D01*
X105349522Y-126925789D01*
X105502262Y-126829816D01*
X105629816Y-126702262D01*
X105725789Y-126549522D01*
X105785368Y-126379255D01*
X105793887Y-126303647D01*
X105805565Y-126200003D01*
X105805565Y-126199996D01*
X105794299Y-126100003D01*
X120594435Y-126100003D01*
X120614630Y-126279249D01*
X120614631Y-126279254D01*
X120674211Y-126449523D01*
X120720055Y-126522483D01*
X120770184Y-126602262D01*
X120897738Y-126729816D01*
X121050478Y-126825789D01*
X121061984Y-126829815D01*
X121220745Y-126885368D01*
X121220750Y-126885369D01*
X121399996Y-126905565D01*
X121400000Y-126905565D01*
X121400004Y-126905565D01*
X121579249Y-126885369D01*
X121579252Y-126885368D01*
X121579255Y-126885368D01*
X121749522Y-126825789D01*
X121902262Y-126729816D01*
X122029816Y-126602262D01*
X122125789Y-126449522D01*
X122185368Y-126279255D01*
X122189544Y-126242191D01*
X122205565Y-126100003D01*
X122205565Y-126099996D01*
X122185369Y-125920750D01*
X122185368Y-125920745D01*
X122175542Y-125892664D01*
X122125789Y-125750478D01*
X122116295Y-125735369D01*
X122062955Y-125650478D01*
X122029816Y-125597738D01*
X121902262Y-125470184D01*
X121749523Y-125374211D01*
X121579254Y-125314631D01*
X121579249Y-125314630D01*
X121400004Y-125294435D01*
X121399996Y-125294435D01*
X121220750Y-125314630D01*
X121220745Y-125314631D01*
X121050476Y-125374211D01*
X120897737Y-125470184D01*
X120770184Y-125597737D01*
X120674211Y-125750476D01*
X120614631Y-125920745D01*
X120614630Y-125920750D01*
X120594435Y-126099996D01*
X120594435Y-126100003D01*
X105794299Y-126100003D01*
X105785369Y-126020750D01*
X105785368Y-126020745D01*
X105740552Y-125892668D01*
X105725789Y-125850478D01*
X105707106Y-125820745D01*
X105662955Y-125750478D01*
X105629816Y-125697738D01*
X105502262Y-125570184D01*
X105349523Y-125474211D01*
X105179254Y-125414631D01*
X105179249Y-125414630D01*
X105000004Y-125394435D01*
X104999996Y-125394435D01*
X104820750Y-125414630D01*
X104820745Y-125414631D01*
X104650476Y-125474211D01*
X104497737Y-125570184D01*
X104370184Y-125697737D01*
X104274211Y-125850476D01*
X104214631Y-126020745D01*
X104214630Y-126020750D01*
X104194435Y-126199996D01*
X104194435Y-126200003D01*
X89278108Y-126200003D01*
X89285368Y-126179255D01*
X89291353Y-126126136D01*
X89305565Y-126000003D01*
X89305565Y-125999996D01*
X89285369Y-125820750D01*
X89285368Y-125820745D01*
X89271308Y-125780565D01*
X89225789Y-125650478D01*
X89216295Y-125635369D01*
X89158348Y-125543146D01*
X89129816Y-125497738D01*
X89002262Y-125370184D01*
X88985633Y-125359735D01*
X88849523Y-125274211D01*
X88679254Y-125214631D01*
X88679249Y-125214630D01*
X88500004Y-125194435D01*
X88499996Y-125194435D01*
X88320750Y-125214630D01*
X88320745Y-125214631D01*
X88150476Y-125274211D01*
X87997737Y-125370184D01*
X87870184Y-125497737D01*
X87774211Y-125650476D01*
X87714631Y-125820745D01*
X87714630Y-125820750D01*
X87694435Y-125999996D01*
X87694435Y-126000003D01*
X72650500Y-126000003D01*
X72650500Y-124850003D01*
X76244435Y-124850003D01*
X76264630Y-125029249D01*
X76264631Y-125029254D01*
X76324211Y-125199523D01*
X76402754Y-125324522D01*
X76420184Y-125352262D01*
X76547738Y-125479816D01*
X76599874Y-125512575D01*
X76691557Y-125570184D01*
X76700478Y-125575789D01*
X76785573Y-125605565D01*
X76870745Y-125635368D01*
X76870750Y-125635369D01*
X77049996Y-125655565D01*
X77050000Y-125655565D01*
X77050004Y-125655565D01*
X77229249Y-125635369D01*
X77229252Y-125635368D01*
X77229255Y-125635368D01*
X77399522Y-125575789D01*
X77552262Y-125479816D01*
X77679816Y-125352262D01*
X77775789Y-125199522D01*
X77835368Y-125029255D01*
X77837513Y-125010217D01*
X77855565Y-124850003D01*
X77855565Y-124849996D01*
X77835369Y-124670750D01*
X77835368Y-124670745D01*
X77775789Y-124500478D01*
X77775188Y-124499522D01*
X77713058Y-124400642D01*
X77679816Y-124347738D01*
X77552262Y-124220184D01*
X77522635Y-124201568D01*
X77399523Y-124124211D01*
X77229254Y-124064631D01*
X77229249Y-124064630D01*
X77050004Y-124044435D01*
X77049996Y-124044435D01*
X76870750Y-124064630D01*
X76870745Y-124064631D01*
X76700476Y-124124211D01*
X76547737Y-124220184D01*
X76420184Y-124347737D01*
X76324211Y-124500476D01*
X76264631Y-124670745D01*
X76264630Y-124670750D01*
X76244435Y-124849996D01*
X76244435Y-124850003D01*
X72650500Y-124850003D01*
X72650500Y-123250003D01*
X79944435Y-123250003D01*
X79964630Y-123429249D01*
X79964631Y-123429254D01*
X80024211Y-123599523D01*
X80120184Y-123752262D01*
X80154649Y-123786727D01*
X80188134Y-123848050D01*
X80184010Y-123915361D01*
X80164633Y-123970738D01*
X80164630Y-123970750D01*
X80144435Y-124149996D01*
X80144435Y-124150003D01*
X80164630Y-124329249D01*
X80164631Y-124329254D01*
X80224211Y-124499523D01*
X80303978Y-124626470D01*
X80320184Y-124652262D01*
X80447738Y-124779816D01*
X80531438Y-124832408D01*
X80571334Y-124857477D01*
X80600478Y-124875789D01*
X80770745Y-124935368D01*
X80770750Y-124935369D01*
X80948018Y-124955342D01*
X81012432Y-124982408D01*
X81051987Y-125040003D01*
X81057355Y-125064678D01*
X81064630Y-125129250D01*
X81064631Y-125129254D01*
X81124211Y-125299523D01*
X81181317Y-125390406D01*
X81220184Y-125452262D01*
X81347738Y-125579816D01*
X81436148Y-125635368D01*
X81475935Y-125660368D01*
X81500478Y-125675789D01*
X81608016Y-125713418D01*
X81670745Y-125735368D01*
X81670750Y-125735369D01*
X81849996Y-125755565D01*
X81850000Y-125755565D01*
X81850004Y-125755565D01*
X82029249Y-125735369D01*
X82029252Y-125735368D01*
X82029255Y-125735368D01*
X82199522Y-125675789D01*
X82352262Y-125579816D01*
X82479816Y-125452262D01*
X82575789Y-125299522D01*
X82635368Y-125129255D01*
X82635658Y-125126683D01*
X82655565Y-124950003D01*
X82655565Y-124949996D01*
X82647115Y-124875003D01*
X92869435Y-124875003D01*
X92889630Y-125054249D01*
X92889631Y-125054254D01*
X92949211Y-125224523D01*
X93034175Y-125359742D01*
X93045184Y-125377262D01*
X93172738Y-125504816D01*
X93227132Y-125538994D01*
X93325431Y-125600760D01*
X93325478Y-125600789D01*
X93424299Y-125635368D01*
X93495745Y-125660368D01*
X93495750Y-125660369D01*
X93674996Y-125680565D01*
X93675000Y-125680565D01*
X93675004Y-125680565D01*
X93854249Y-125660369D01*
X93854252Y-125660368D01*
X93854255Y-125660368D01*
X94024522Y-125600789D01*
X94177262Y-125504816D01*
X94304816Y-125377262D01*
X94400789Y-125224522D01*
X94460368Y-125054255D01*
X94460901Y-125049523D01*
X94469298Y-124975003D01*
X97669435Y-124975003D01*
X97689630Y-125154249D01*
X97689631Y-125154254D01*
X97749211Y-125324523D01*
X97825125Y-125445338D01*
X97845184Y-125477262D01*
X97972738Y-125604816D01*
X98061148Y-125660368D01*
X98120620Y-125697737D01*
X98125478Y-125700789D01*
X98284159Y-125756314D01*
X98295745Y-125760368D01*
X98295750Y-125760369D01*
X98474996Y-125780565D01*
X98475000Y-125780565D01*
X98475004Y-125780565D01*
X98654249Y-125760369D01*
X98654252Y-125760368D01*
X98654255Y-125760368D01*
X98824522Y-125700789D01*
X98977262Y-125604816D01*
X99104816Y-125477262D01*
X99200789Y-125324522D01*
X99260368Y-125154255D01*
X99260901Y-125149523D01*
X99280565Y-124975003D01*
X99280565Y-124974996D01*
X99280109Y-124970948D01*
X99904935Y-124970948D01*
X99925130Y-125150194D01*
X99925131Y-125150199D01*
X99984711Y-125320468D01*
X100063173Y-125445338D01*
X100080684Y-125473207D01*
X100208238Y-125600761D01*
X100215884Y-125605565D01*
X100327642Y-125675788D01*
X100360978Y-125696734D01*
X100514564Y-125750476D01*
X100531245Y-125756313D01*
X100531250Y-125756314D01*
X100710496Y-125776510D01*
X100710500Y-125776510D01*
X100710504Y-125776510D01*
X100889749Y-125756314D01*
X100889752Y-125756313D01*
X100889755Y-125756313D01*
X101060022Y-125696734D01*
X101212762Y-125600761D01*
X101340316Y-125473207D01*
X101436289Y-125320467D01*
X101495868Y-125150200D01*
X101495869Y-125150194D01*
X101516065Y-124970948D01*
X101516065Y-124970941D01*
X101495869Y-124791695D01*
X101495868Y-124791690D01*
X101463785Y-124700003D01*
X109394435Y-124700003D01*
X109414630Y-124879249D01*
X109414631Y-124879254D01*
X109474211Y-125049523D01*
X109540019Y-125154255D01*
X109570184Y-125202262D01*
X109697738Y-125329816D01*
X109733461Y-125352262D01*
X109832721Y-125414632D01*
X109850478Y-125425789D01*
X110004878Y-125479816D01*
X110020745Y-125485368D01*
X110020750Y-125485369D01*
X110199996Y-125505565D01*
X110200000Y-125505565D01*
X110200004Y-125505565D01*
X110379249Y-125485369D01*
X110379252Y-125485368D01*
X110379255Y-125485368D01*
X110549522Y-125425789D01*
X110702262Y-125329816D01*
X110829816Y-125202262D01*
X110925789Y-125049522D01*
X110985368Y-124879255D01*
X110985847Y-124875003D01*
X111005565Y-124700003D01*
X111005565Y-124699996D01*
X110985369Y-124520750D01*
X110985368Y-124520745D01*
X110981939Y-124510946D01*
X110925789Y-124350478D01*
X110925188Y-124349522D01*
X110882268Y-124281215D01*
X110829816Y-124197738D01*
X110702262Y-124070184D01*
X110693426Y-124064632D01*
X110549523Y-123974211D01*
X110379254Y-123914631D01*
X110379249Y-123914630D01*
X110200004Y-123894435D01*
X110199996Y-123894435D01*
X110020750Y-123914630D01*
X110020745Y-123914631D01*
X109850476Y-123974211D01*
X109697737Y-124070184D01*
X109570184Y-124197737D01*
X109474211Y-124350476D01*
X109414631Y-124520745D01*
X109414630Y-124520750D01*
X109394435Y-124699996D01*
X109394435Y-124700003D01*
X101463785Y-124700003D01*
X101453549Y-124670750D01*
X101436289Y-124621423D01*
X101431953Y-124614523D01*
X101373029Y-124520745D01*
X101340316Y-124468683D01*
X101212762Y-124341129D01*
X101190360Y-124327053D01*
X101060023Y-124245156D01*
X100889754Y-124185576D01*
X100889749Y-124185575D01*
X100710504Y-124165380D01*
X100710496Y-124165380D01*
X100531250Y-124185575D01*
X100531245Y-124185576D01*
X100360976Y-124245156D01*
X100208237Y-124341129D01*
X100080684Y-124468682D01*
X99984711Y-124621421D01*
X99925131Y-124791690D01*
X99925130Y-124791695D01*
X99904935Y-124970941D01*
X99904935Y-124970948D01*
X99280109Y-124970948D01*
X99260369Y-124795750D01*
X99260368Y-124795745D01*
X99245923Y-124754463D01*
X99200789Y-124625478D01*
X99185080Y-124600478D01*
X99155986Y-124554174D01*
X99104816Y-124472738D01*
X98977262Y-124345184D01*
X98952424Y-124329577D01*
X98824523Y-124249211D01*
X98654254Y-124189631D01*
X98654249Y-124189630D01*
X98475004Y-124169435D01*
X98474996Y-124169435D01*
X98295750Y-124189630D01*
X98295745Y-124189631D01*
X98125476Y-124249211D01*
X97972737Y-124345184D01*
X97845184Y-124472737D01*
X97749211Y-124625476D01*
X97689631Y-124795745D01*
X97689630Y-124795750D01*
X97669435Y-124974996D01*
X97669435Y-124975003D01*
X94469298Y-124975003D01*
X94480565Y-124875003D01*
X94480565Y-124874996D01*
X94460369Y-124695750D01*
X94460368Y-124695745D01*
X94436127Y-124626468D01*
X94400789Y-124525478D01*
X94386201Y-124502262D01*
X94341285Y-124430778D01*
X94304816Y-124372738D01*
X94177262Y-124245184D01*
X94160294Y-124234522D01*
X94024523Y-124149211D01*
X93854254Y-124089631D01*
X93854249Y-124089630D01*
X93675004Y-124069435D01*
X93674996Y-124069435D01*
X93495750Y-124089630D01*
X93495745Y-124089631D01*
X93325476Y-124149211D01*
X93172737Y-124245184D01*
X93045184Y-124372737D01*
X92949211Y-124525476D01*
X92889631Y-124695745D01*
X92889630Y-124695750D01*
X92869435Y-124874996D01*
X92869435Y-124875003D01*
X82647115Y-124875003D01*
X82635369Y-124770750D01*
X82635368Y-124770745D01*
X82582882Y-124620750D01*
X82575789Y-124600478D01*
X82572525Y-124595284D01*
X82528662Y-124525476D01*
X82479816Y-124447738D01*
X82352262Y-124320184D01*
X82326130Y-124303764D01*
X82199523Y-124224211D01*
X82029254Y-124164631D01*
X82029250Y-124164630D01*
X81851980Y-124144657D01*
X81787566Y-124117590D01*
X81748011Y-124059995D01*
X81742644Y-124035320D01*
X81735369Y-123970749D01*
X81735368Y-123970745D01*
X81729176Y-123953049D01*
X81675789Y-123800478D01*
X81675188Y-123799522D01*
X81607516Y-123691822D01*
X81579816Y-123647738D01*
X81545349Y-123613271D01*
X81511864Y-123551948D01*
X81515988Y-123484635D01*
X81535368Y-123429255D01*
X81536210Y-123421788D01*
X81548904Y-123309120D01*
X81575970Y-123244706D01*
X81633565Y-123205151D01*
X81703402Y-123203013D01*
X81738097Y-123218010D01*
X81750475Y-123225788D01*
X81920745Y-123285368D01*
X81920750Y-123285369D01*
X82099996Y-123305565D01*
X82100000Y-123305565D01*
X82100004Y-123305565D01*
X82279249Y-123285369D01*
X82279252Y-123285368D01*
X82279255Y-123285368D01*
X82279256Y-123285367D01*
X82279259Y-123285367D01*
X82324735Y-123269453D01*
X82388358Y-123247190D01*
X82458136Y-123243628D01*
X82518764Y-123278357D01*
X82550991Y-123340350D01*
X82552534Y-123378114D01*
X82550068Y-123400003D01*
X82544436Y-123449996D01*
X82544435Y-123450003D01*
X82564630Y-123629249D01*
X82564631Y-123629254D01*
X82624211Y-123799523D01*
X82703549Y-123925788D01*
X82720184Y-123952262D01*
X82847738Y-124079816D01*
X82933903Y-124133957D01*
X82991557Y-124170184D01*
X83000478Y-124175789D01*
X83085573Y-124205565D01*
X83170745Y-124235368D01*
X83170750Y-124235369D01*
X83349996Y-124255565D01*
X83350000Y-124255565D01*
X83350004Y-124255565D01*
X83529249Y-124235369D01*
X83529252Y-124235368D01*
X83529255Y-124235368D01*
X83699522Y-124175789D01*
X83852262Y-124079816D01*
X83979816Y-123952262D01*
X84075789Y-123799522D01*
X84112132Y-123695660D01*
X84152854Y-123638884D01*
X84217807Y-123613136D01*
X84286368Y-123626592D01*
X84316855Y-123648933D01*
X84397738Y-123729816D01*
X84488080Y-123786582D01*
X84542450Y-123820745D01*
X84550478Y-123825789D01*
X84652766Y-123861581D01*
X84720745Y-123885368D01*
X84720750Y-123885369D01*
X84899996Y-123905565D01*
X84900000Y-123905565D01*
X84900004Y-123905565D01*
X85079249Y-123885369D01*
X85079252Y-123885368D01*
X85079255Y-123885368D01*
X85249522Y-123825789D01*
X85402262Y-123729816D01*
X85529816Y-123602262D01*
X85625789Y-123449522D01*
X85685368Y-123279255D01*
X85685369Y-123279249D01*
X85694298Y-123200003D01*
X95194435Y-123200003D01*
X95214630Y-123379249D01*
X95214631Y-123379254D01*
X95274211Y-123549523D01*
X95337646Y-123650478D01*
X95370184Y-123702262D01*
X95497738Y-123829816D01*
X95585482Y-123884949D01*
X95643088Y-123921146D01*
X95650478Y-123925789D01*
X95778969Y-123970750D01*
X95820745Y-123985368D01*
X95820750Y-123985369D01*
X95999996Y-124005565D01*
X96000000Y-124005565D01*
X96000004Y-124005565D01*
X96179249Y-123985369D01*
X96179250Y-123985368D01*
X96179255Y-123985368D01*
X96234635Y-123965988D01*
X96304413Y-123962426D01*
X96363271Y-123995349D01*
X96397738Y-124029816D01*
X96482041Y-124082787D01*
X96547966Y-124124211D01*
X96550478Y-124125789D01*
X96675211Y-124169435D01*
X96720745Y-124185368D01*
X96720750Y-124185369D01*
X96899996Y-124205565D01*
X96900000Y-124205565D01*
X96900004Y-124205565D01*
X97079249Y-124185369D01*
X97079252Y-124185368D01*
X97079255Y-124185368D01*
X97249522Y-124125789D01*
X97402262Y-124029816D01*
X97529816Y-123902262D01*
X97625789Y-123749522D01*
X97685368Y-123579255D01*
X97688718Y-123549522D01*
X97694298Y-123500003D01*
X101694435Y-123500003D01*
X101714630Y-123679249D01*
X101714631Y-123679254D01*
X101774211Y-123849523D01*
X101859079Y-123984588D01*
X101870184Y-124002262D01*
X101997738Y-124129816D01*
X102054960Y-124165771D01*
X102147966Y-124224211D01*
X102150478Y-124225789D01*
X102242346Y-124257935D01*
X102320745Y-124285368D01*
X102320750Y-124285369D01*
X102499996Y-124305565D01*
X102500000Y-124305565D01*
X102500004Y-124305565D01*
X102679249Y-124285369D01*
X102679252Y-124285368D01*
X102679255Y-124285368D01*
X102849522Y-124225789D01*
X103002262Y-124129816D01*
X103129816Y-124002262D01*
X103145007Y-123978084D01*
X103197339Y-123931796D01*
X103266393Y-123921146D01*
X103330242Y-123949521D01*
X103354990Y-123978082D01*
X103370184Y-124002262D01*
X103497738Y-124129816D01*
X103554960Y-124165771D01*
X103647966Y-124224211D01*
X103650478Y-124225789D01*
X103742346Y-124257935D01*
X103820745Y-124285368D01*
X103820750Y-124285369D01*
X103999996Y-124305565D01*
X104000000Y-124305565D01*
X104000004Y-124305565D01*
X104179249Y-124285369D01*
X104179252Y-124285368D01*
X104179255Y-124285368D01*
X104349522Y-124225789D01*
X104502262Y-124129816D01*
X104629816Y-124002262D01*
X104725789Y-123849522D01*
X104785368Y-123679255D01*
X104785369Y-123679249D01*
X104805565Y-123500003D01*
X104805565Y-123499996D01*
X104785369Y-123320750D01*
X104785368Y-123320745D01*
X104758436Y-123243778D01*
X104725789Y-123150478D01*
X104707106Y-123120745D01*
X104694073Y-123100003D01*
X113094435Y-123100003D01*
X113114630Y-123279249D01*
X113114631Y-123279254D01*
X113174211Y-123449523D01*
X113270184Y-123602262D01*
X113304649Y-123636727D01*
X113338134Y-123698050D01*
X113334010Y-123765361D01*
X113314633Y-123820738D01*
X113314630Y-123820750D01*
X113294435Y-123999996D01*
X113294435Y-124000003D01*
X113314630Y-124179249D01*
X113314631Y-124179254D01*
X113374211Y-124349523D01*
X113458656Y-124483916D01*
X113470184Y-124502262D01*
X113597738Y-124629816D01*
X113750478Y-124725789D01*
X113904878Y-124779816D01*
X113920745Y-124785368D01*
X113920750Y-124785369D01*
X114098018Y-124805342D01*
X114162432Y-124832408D01*
X114201987Y-124890003D01*
X114207355Y-124914678D01*
X114214630Y-124979250D01*
X114214631Y-124979254D01*
X114274211Y-125149523D01*
X114321337Y-125224523D01*
X114370184Y-125302262D01*
X114497738Y-125429816D01*
X114586148Y-125485368D01*
X114605833Y-125497737D01*
X114650478Y-125525789D01*
X114804878Y-125579816D01*
X114820745Y-125585368D01*
X114820750Y-125585369D01*
X114999996Y-125605565D01*
X115000000Y-125605565D01*
X115000004Y-125605565D01*
X115179249Y-125585369D01*
X115179252Y-125585368D01*
X115179255Y-125585368D01*
X115349522Y-125525789D01*
X115502262Y-125429816D01*
X115629816Y-125302262D01*
X115725789Y-125149522D01*
X115785368Y-124979255D01*
X115785847Y-124975003D01*
X115789249Y-124944809D01*
X122662803Y-124944809D01*
X122682998Y-125124055D01*
X122682999Y-125124060D01*
X122742579Y-125294329D01*
X122837465Y-125445338D01*
X122856465Y-125512575D01*
X122855691Y-125525193D01*
X122838945Y-125673827D01*
X122838945Y-125673835D01*
X122859140Y-125853081D01*
X122859141Y-125853086D01*
X122918721Y-126023355D01*
X122970910Y-126106413D01*
X123014694Y-126176094D01*
X123142248Y-126303648D01*
X123294988Y-126399621D01*
X123437597Y-126449522D01*
X123465255Y-126459200D01*
X123465260Y-126459201D01*
X123644506Y-126479397D01*
X123644510Y-126479397D01*
X123644514Y-126479397D01*
X123823759Y-126459201D01*
X123823762Y-126459200D01*
X123823765Y-126459200D01*
X123994032Y-126399621D01*
X124146772Y-126303648D01*
X124274326Y-126176094D01*
X124370299Y-126023354D01*
X124416027Y-125892671D01*
X124742277Y-125892671D01*
X124762472Y-126071917D01*
X124762473Y-126071922D01*
X124822053Y-126242191D01*
X124889494Y-126349522D01*
X124918026Y-126394930D01*
X125045580Y-126522484D01*
X125198320Y-126618457D01*
X125368587Y-126678036D01*
X125368592Y-126678037D01*
X125547838Y-126698233D01*
X125547842Y-126698233D01*
X125547846Y-126698233D01*
X125727091Y-126678037D01*
X125727094Y-126678036D01*
X125727097Y-126678036D01*
X125897364Y-126618457D01*
X126050104Y-126522484D01*
X126177658Y-126394930D01*
X126273631Y-126242190D01*
X126294516Y-126182501D01*
X126335237Y-126125725D01*
X126370604Y-126106413D01*
X126430293Y-126085528D01*
X126583033Y-125989555D01*
X126710587Y-125862001D01*
X126806560Y-125709261D01*
X126866139Y-125538994D01*
X126869990Y-125504815D01*
X126886336Y-125359742D01*
X126886336Y-125359735D01*
X126866140Y-125180489D01*
X126866139Y-125180484D01*
X126825617Y-125064678D01*
X126806560Y-125010217D01*
X126789086Y-124982408D01*
X126765461Y-124944808D01*
X126710587Y-124857477D01*
X126583033Y-124729923D01*
X126499165Y-124677225D01*
X126430294Y-124633950D01*
X126260025Y-124574370D01*
X126260020Y-124574369D01*
X126080775Y-124554174D01*
X126080767Y-124554174D01*
X125901521Y-124574369D01*
X125901516Y-124574370D01*
X125731247Y-124633950D01*
X125578508Y-124729923D01*
X125450955Y-124857476D01*
X125354983Y-125010214D01*
X125354982Y-125010215D01*
X125334095Y-125069907D01*
X125293373Y-125126683D01*
X125258010Y-125145992D01*
X125198318Y-125166879D01*
X125198317Y-125166880D01*
X125045579Y-125262852D01*
X124918026Y-125390405D01*
X124822053Y-125543144D01*
X124762473Y-125713413D01*
X124762472Y-125713418D01*
X124742277Y-125892664D01*
X124742277Y-125892671D01*
X124416027Y-125892671D01*
X124429878Y-125853087D01*
X124430172Y-125850478D01*
X124450075Y-125673835D01*
X124450075Y-125673828D01*
X124429879Y-125494582D01*
X124429878Y-125494577D01*
X124424713Y-125479816D01*
X124370299Y-125324310D01*
X124275411Y-125173297D01*
X124256412Y-125106063D01*
X124257186Y-125093443D01*
X124273933Y-124944808D01*
X124273933Y-124944802D01*
X124253737Y-124765556D01*
X124253736Y-124765551D01*
X124232739Y-124705544D01*
X124194157Y-124595284D01*
X124181016Y-124574371D01*
X124117156Y-124472738D01*
X124098184Y-124442544D01*
X123970630Y-124314990D01*
X123951429Y-124302925D01*
X123817891Y-124219017D01*
X123647622Y-124159437D01*
X123647617Y-124159436D01*
X123468372Y-124139241D01*
X123468364Y-124139241D01*
X123289118Y-124159436D01*
X123289113Y-124159437D01*
X123118844Y-124219017D01*
X122966105Y-124314990D01*
X122838552Y-124442543D01*
X122742579Y-124595282D01*
X122682999Y-124765551D01*
X122682998Y-124765556D01*
X122662803Y-124944802D01*
X122662803Y-124944809D01*
X115789249Y-124944809D01*
X115805565Y-124800003D01*
X115805565Y-124799996D01*
X115785369Y-124620750D01*
X115785368Y-124620745D01*
X115758366Y-124543579D01*
X115725789Y-124450478D01*
X115724067Y-124447738D01*
X115662955Y-124350478D01*
X115629816Y-124297738D01*
X115502262Y-124170184D01*
X115495229Y-124165765D01*
X115349523Y-124074211D01*
X115179254Y-124014631D01*
X115179250Y-124014630D01*
X115001980Y-123994657D01*
X114937566Y-123967590D01*
X114898011Y-123909995D01*
X114892644Y-123885320D01*
X114885369Y-123820749D01*
X114885368Y-123820745D01*
X114880620Y-123807176D01*
X114825789Y-123650478D01*
X114825188Y-123649522D01*
X114774065Y-123568160D01*
X114729816Y-123497738D01*
X114695349Y-123463271D01*
X114661864Y-123401948D01*
X114665988Y-123334635D01*
X114685368Y-123279255D01*
X114685369Y-123279249D01*
X114705565Y-123100003D01*
X114705565Y-123099996D01*
X114685369Y-122920750D01*
X114685368Y-122920745D01*
X114677872Y-122899322D01*
X114625789Y-122750478D01*
X114625215Y-122749565D01*
X114562607Y-122649924D01*
X114529816Y-122597738D01*
X114402262Y-122470184D01*
X114393426Y-122464632D01*
X114249523Y-122374211D01*
X114079254Y-122314631D01*
X114079249Y-122314630D01*
X113900004Y-122294435D01*
X113899996Y-122294435D01*
X113720750Y-122314630D01*
X113720745Y-122314631D01*
X113550476Y-122374211D01*
X113397737Y-122470184D01*
X113270184Y-122597737D01*
X113174211Y-122750476D01*
X113114631Y-122920745D01*
X113114630Y-122920750D01*
X113094435Y-123099996D01*
X113094435Y-123100003D01*
X104694073Y-123100003D01*
X104676068Y-123071347D01*
X104629816Y-122997738D01*
X104502262Y-122870184D01*
X104468400Y-122848907D01*
X104349523Y-122774211D01*
X104179254Y-122714631D01*
X104179249Y-122714630D01*
X104000004Y-122694435D01*
X103999996Y-122694435D01*
X103820750Y-122714630D01*
X103820745Y-122714631D01*
X103650476Y-122774211D01*
X103497737Y-122870184D01*
X103370184Y-122997737D01*
X103354994Y-123021913D01*
X103302659Y-123068204D01*
X103233605Y-123078852D01*
X103169757Y-123050477D01*
X103145006Y-123021913D01*
X103138473Y-123011516D01*
X103129816Y-122997738D01*
X103002262Y-122870184D01*
X102968400Y-122848907D01*
X102849523Y-122774211D01*
X102679254Y-122714631D01*
X102679249Y-122714630D01*
X102500004Y-122694435D01*
X102499996Y-122694435D01*
X102320750Y-122714630D01*
X102320745Y-122714631D01*
X102150476Y-122774211D01*
X101997737Y-122870184D01*
X101870184Y-122997737D01*
X101774211Y-123150476D01*
X101714631Y-123320745D01*
X101714630Y-123320750D01*
X101694435Y-123499996D01*
X101694435Y-123500003D01*
X97694298Y-123500003D01*
X97705565Y-123400003D01*
X97705565Y-123399996D01*
X97685369Y-123220750D01*
X97685368Y-123220745D01*
X97668476Y-123172470D01*
X97625789Y-123050478D01*
X97607840Y-123021913D01*
X97582421Y-122981459D01*
X97529816Y-122897738D01*
X97402262Y-122770184D01*
X97369447Y-122749565D01*
X97249523Y-122674211D01*
X97079254Y-122614631D01*
X97079249Y-122614630D01*
X96900004Y-122594435D01*
X96899996Y-122594435D01*
X96720750Y-122614630D01*
X96720738Y-122614633D01*
X96665361Y-122634010D01*
X96595582Y-122637571D01*
X96536727Y-122604649D01*
X96502262Y-122570184D01*
X96349523Y-122474211D01*
X96179254Y-122414631D01*
X96179249Y-122414630D01*
X96000004Y-122394435D01*
X95999996Y-122394435D01*
X95820750Y-122414630D01*
X95820745Y-122414631D01*
X95650476Y-122474211D01*
X95497737Y-122570184D01*
X95370184Y-122697737D01*
X95274211Y-122850476D01*
X95214631Y-123020745D01*
X95214630Y-123020750D01*
X95194435Y-123199996D01*
X95194435Y-123200003D01*
X85694298Y-123200003D01*
X85705565Y-123100003D01*
X85705565Y-123099996D01*
X85685369Y-122920750D01*
X85685368Y-122920745D01*
X85677872Y-122899322D01*
X85625789Y-122750478D01*
X85625215Y-122749565D01*
X85562607Y-122649924D01*
X85529816Y-122597738D01*
X85402262Y-122470184D01*
X85393426Y-122464632D01*
X85249523Y-122374211D01*
X85079254Y-122314631D01*
X85079249Y-122314630D01*
X84900004Y-122294435D01*
X84899996Y-122294435D01*
X84720750Y-122314630D01*
X84720745Y-122314631D01*
X84550476Y-122374211D01*
X84397737Y-122470184D01*
X84270184Y-122597737D01*
X84174209Y-122750479D01*
X84137866Y-122854341D01*
X84097144Y-122911116D01*
X84032191Y-122936863D01*
X83963630Y-122923406D01*
X83933144Y-122901066D01*
X83852262Y-122820184D01*
X83699523Y-122724211D01*
X83529253Y-122664631D01*
X83516544Y-122663199D01*
X83452131Y-122636130D01*
X83412578Y-122578534D01*
X83410443Y-122508697D01*
X83446403Y-122448791D01*
X83464454Y-122434988D01*
X83552262Y-122379816D01*
X83679816Y-122252262D01*
X83775789Y-122099522D01*
X83835368Y-121929255D01*
X83835368Y-121929252D01*
X83835370Y-121929245D01*
X83855565Y-121750003D01*
X83855565Y-121749996D01*
X83838665Y-121600003D01*
X115394435Y-121600003D01*
X115414630Y-121779249D01*
X115414631Y-121779254D01*
X115474211Y-121949523D01*
X115561035Y-122087702D01*
X115570184Y-122102262D01*
X115697738Y-122229816D01*
X115776542Y-122279332D01*
X115842450Y-122320745D01*
X115850478Y-122325789D01*
X116004878Y-122379816D01*
X116020745Y-122385368D01*
X116020750Y-122385369D01*
X116033449Y-122386800D01*
X116097864Y-122413866D01*
X116137419Y-122471460D01*
X116139558Y-122541297D01*
X116103600Y-122601204D01*
X116085540Y-122615013D01*
X115997740Y-122670182D01*
X115997737Y-122670184D01*
X115870184Y-122797737D01*
X115774211Y-122950476D01*
X115714631Y-123120745D01*
X115714630Y-123120750D01*
X115694435Y-123299996D01*
X115694435Y-123300003D01*
X115714630Y-123479249D01*
X115714631Y-123479254D01*
X115774211Y-123649523D01*
X115849610Y-123769519D01*
X115870184Y-123802262D01*
X115997738Y-123929816D01*
X116062884Y-123970750D01*
X116148176Y-124024343D01*
X116150478Y-124025789D01*
X116320745Y-124085368D01*
X116320750Y-124085369D01*
X116499996Y-124105565D01*
X116500000Y-124105565D01*
X116500004Y-124105565D01*
X116679249Y-124085369D01*
X116679252Y-124085368D01*
X116679255Y-124085368D01*
X116849522Y-124025789D01*
X117002262Y-123929816D01*
X117129816Y-123802262D01*
X117225789Y-123649522D01*
X117285368Y-123479255D01*
X117287169Y-123463271D01*
X117305565Y-123300003D01*
X117305565Y-123299996D01*
X117288665Y-123150003D01*
X143714723Y-123150003D01*
X143716688Y-123172470D01*
X143716862Y-123180660D01*
X143715709Y-123206324D01*
X143715710Y-123206328D01*
X143726641Y-123287031D01*
X143726966Y-123289949D01*
X143733792Y-123367972D01*
X143733795Y-123367987D01*
X143740482Y-123392941D01*
X143742034Y-123400670D01*
X143745924Y-123429381D01*
X143745926Y-123429392D01*
X143770075Y-123503713D01*
X143770997Y-123506825D01*
X143790423Y-123579324D01*
X143790427Y-123579336D01*
X143802736Y-123605732D01*
X143805512Y-123612779D01*
X143815483Y-123643464D01*
X143850970Y-123709411D01*
X143852558Y-123712576D01*
X143882898Y-123777639D01*
X143898889Y-123800476D01*
X143901490Y-123804191D01*
X143905303Y-123810378D01*
X143922146Y-123841678D01*
X143922152Y-123841687D01*
X143966792Y-123897663D01*
X143969106Y-123900758D01*
X143995171Y-123937981D01*
X144008402Y-123956877D01*
X144008405Y-123956880D01*
X144033646Y-123982121D01*
X144038283Y-123987309D01*
X144062492Y-124017666D01*
X144113959Y-124062632D01*
X144117008Y-124065483D01*
X144163116Y-124111592D01*
X144163122Y-124111597D01*
X144163123Y-124111598D01*
X144171681Y-124117590D01*
X144195055Y-124133957D01*
X144200290Y-124138057D01*
X144232004Y-124165765D01*
X144232013Y-124165771D01*
X144287849Y-124199131D01*
X144291613Y-124201568D01*
X144342359Y-124237101D01*
X144342364Y-124237104D01*
X144364917Y-124247620D01*
X144380677Y-124254969D01*
X144386271Y-124257935D01*
X144423349Y-124280088D01*
X144425236Y-124281215D01*
X144436302Y-124285368D01*
X144483083Y-124302925D01*
X144487503Y-124304782D01*
X144540670Y-124329575D01*
X144540674Y-124329577D01*
X144571069Y-124337720D01*
X144584677Y-124341366D01*
X144590413Y-124343207D01*
X144607240Y-124349522D01*
X144635976Y-124360307D01*
X144693545Y-124370754D01*
X144698509Y-124371868D01*
X144701756Y-124372738D01*
X144752023Y-124386207D01*
X144800689Y-124390464D01*
X144806306Y-124391218D01*
X144857453Y-124400500D01*
X144912691Y-124400500D01*
X144918092Y-124400735D01*
X144946548Y-124403225D01*
X144969998Y-124405277D01*
X144970000Y-124405277D01*
X145022992Y-124400640D01*
X145026121Y-124400500D01*
X145026155Y-124400500D01*
X145080172Y-124395638D01*
X145187977Y-124386207D01*
X145188000Y-124386200D01*
X145188475Y-124386117D01*
X145193713Y-124385419D01*
X145194188Y-124385377D01*
X145297997Y-124356726D01*
X145399330Y-124329575D01*
X145399337Y-124329571D01*
X145406254Y-124327053D01*
X145410948Y-124325554D01*
X145411170Y-124325493D01*
X145411181Y-124325487D01*
X145411183Y-124325487D01*
X145505454Y-124280088D01*
X145597639Y-124237102D01*
X145597644Y-124237097D01*
X145602327Y-124234395D01*
X145602400Y-124234522D01*
X145613164Y-124228218D01*
X145613973Y-124227829D01*
X145696156Y-124168118D01*
X145776877Y-124111598D01*
X145777747Y-124110727D01*
X145792550Y-124098084D01*
X145796078Y-124095522D01*
X145801710Y-124089632D01*
X145864131Y-124024343D01*
X145931592Y-123956883D01*
X145931592Y-123956882D01*
X145931598Y-123956877D01*
X145934285Y-123953039D01*
X145946239Y-123938465D01*
X145951629Y-123932828D01*
X145951628Y-123932828D01*
X145951632Y-123932825D01*
X146004164Y-123853241D01*
X146057102Y-123777639D01*
X146060543Y-123770259D01*
X146069432Y-123754364D01*
X146075635Y-123744968D01*
X146111889Y-123660146D01*
X146149575Y-123579330D01*
X146152570Y-123568148D01*
X146158325Y-123551505D01*
X146164103Y-123537988D01*
X146183936Y-123451092D01*
X146206207Y-123367977D01*
X146207887Y-123348766D01*
X146209206Y-123340377D01*
X146210517Y-123334634D01*
X146214191Y-123318537D01*
X146218050Y-123232602D01*
X146225277Y-123150000D01*
X146223310Y-123127528D01*
X146223137Y-123119334D01*
X146224290Y-123093670D01*
X146213353Y-123012939D01*
X146213034Y-123010067D01*
X146206207Y-122932023D01*
X146199515Y-122907053D01*
X146197963Y-122899322D01*
X146197748Y-122897737D01*
X146194075Y-122870613D01*
X146170396Y-122797738D01*
X146169921Y-122796276D01*
X146168998Y-122793161D01*
X146149576Y-122720673D01*
X146149574Y-122720669D01*
X146137266Y-122694274D01*
X146134488Y-122687222D01*
X146124519Y-122656541D01*
X146124517Y-122656537D01*
X146124517Y-122656536D01*
X146104955Y-122620184D01*
X146089027Y-122590583D01*
X146087432Y-122587405D01*
X146083295Y-122578534D01*
X146057102Y-122522362D01*
X146038512Y-122495813D01*
X146034698Y-122489625D01*
X146032817Y-122486130D01*
X146017852Y-122458319D01*
X145973192Y-122402318D01*
X145970896Y-122399247D01*
X145931598Y-122343123D01*
X145906353Y-122317878D01*
X145901715Y-122312689D01*
X145877508Y-122282334D01*
X145869866Y-122275657D01*
X145826039Y-122237366D01*
X145822990Y-122234515D01*
X145776878Y-122188402D01*
X145744940Y-122166039D01*
X145739705Y-122161939D01*
X145726585Y-122150476D01*
X145707996Y-122134235D01*
X145707994Y-122134233D01*
X145707992Y-122134232D01*
X145652149Y-122100868D01*
X145648386Y-122098431D01*
X145597641Y-122062899D01*
X145559333Y-122045035D01*
X145553735Y-122042067D01*
X145514769Y-122018787D01*
X145514767Y-122018786D01*
X145456928Y-121997079D01*
X145452515Y-121995226D01*
X145399330Y-121970425D01*
X145355321Y-121958632D01*
X145349581Y-121956790D01*
X145304025Y-121939692D01*
X145246456Y-121929245D01*
X145241480Y-121928128D01*
X145187977Y-121913793D01*
X145139327Y-121909536D01*
X145133659Y-121908775D01*
X145082551Y-121899500D01*
X145082547Y-121899500D01*
X145027309Y-121899500D01*
X145021907Y-121899264D01*
X144993451Y-121896774D01*
X144970002Y-121894723D01*
X144969997Y-121894723D01*
X144917050Y-121899355D01*
X144913862Y-121899499D01*
X144913851Y-121899500D01*
X144913845Y-121899500D01*
X144867671Y-121903655D01*
X144859826Y-121904361D01*
X144752020Y-121913793D01*
X144751468Y-121913891D01*
X144746275Y-121914581D01*
X144745812Y-121914622D01*
X144745809Y-121914623D01*
X144642002Y-121943273D01*
X144540659Y-121970428D01*
X144533739Y-121972946D01*
X144529050Y-121974444D01*
X144528849Y-121974499D01*
X144528832Y-121974505D01*
X144434528Y-122019919D01*
X144342358Y-122062899D01*
X144337670Y-122065606D01*
X144337598Y-122065481D01*
X144326871Y-122071764D01*
X144326030Y-122072168D01*
X144243831Y-122131889D01*
X144163123Y-122188401D01*
X144162241Y-122189284D01*
X144147461Y-122201906D01*
X144143928Y-122204472D01*
X144143916Y-122204483D01*
X144112477Y-122237366D01*
X144075868Y-122275656D01*
X144057149Y-122294375D01*
X144008403Y-122343120D01*
X144008402Y-122343121D01*
X144005711Y-122346965D01*
X143993773Y-122361521D01*
X143988368Y-122367174D01*
X143970373Y-122394435D01*
X143935828Y-122446768D01*
X143887505Y-122515782D01*
X143882898Y-122522362D01*
X143882891Y-122522374D01*
X143879457Y-122529738D01*
X143870572Y-122545628D01*
X143864362Y-122555035D01*
X143864362Y-122555036D01*
X143843157Y-122604649D01*
X143828108Y-122639858D01*
X143820331Y-122656536D01*
X143790425Y-122720669D01*
X143790424Y-122720671D01*
X143787425Y-122731860D01*
X143781681Y-122748475D01*
X143775899Y-122762005D01*
X143775896Y-122762016D01*
X143756063Y-122848907D01*
X143733793Y-122932022D01*
X143733793Y-122932023D01*
X143732112Y-122951226D01*
X143730793Y-122959619D01*
X143729492Y-122965323D01*
X143725809Y-122981459D01*
X143725809Y-122981464D01*
X143721949Y-123067397D01*
X143714723Y-123149996D01*
X143714723Y-123150003D01*
X117288665Y-123150003D01*
X117285369Y-123120750D01*
X117285368Y-123120745D01*
X117266096Y-123065670D01*
X117225789Y-122950478D01*
X117224067Y-122947738D01*
X117162955Y-122850478D01*
X117129816Y-122797738D01*
X117002262Y-122670184D01*
X116993426Y-122664632D01*
X116849523Y-122574211D01*
X116679253Y-122514631D01*
X116666544Y-122513199D01*
X116602131Y-122486130D01*
X116562578Y-122428534D01*
X116560443Y-122358697D01*
X116596403Y-122298791D01*
X116614454Y-122284988D01*
X116702262Y-122229816D01*
X116829816Y-122102262D01*
X116925789Y-121949522D01*
X116985368Y-121779255D01*
X116985369Y-121779249D01*
X117005565Y-121600003D01*
X117005565Y-121599996D01*
X116985369Y-121420750D01*
X116985368Y-121420745D01*
X116928985Y-121259613D01*
X118601761Y-121259613D01*
X118621956Y-121438859D01*
X118621957Y-121438864D01*
X118681537Y-121609133D01*
X118769386Y-121748943D01*
X118777510Y-121761872D01*
X118905064Y-121889426D01*
X118985062Y-121939692D01*
X119040456Y-121974499D01*
X119057804Y-121985399D01*
X119219752Y-122042067D01*
X119228071Y-122044978D01*
X119228076Y-122044979D01*
X119407322Y-122065175D01*
X119407326Y-122065175D01*
X119407330Y-122065175D01*
X119586575Y-122044979D01*
X119586578Y-122044978D01*
X119586581Y-122044978D01*
X119756848Y-121985399D01*
X119909588Y-121889426D01*
X120037142Y-121761872D01*
X120116167Y-121636103D01*
X120168501Y-121589814D01*
X120180202Y-121585036D01*
X120349522Y-121525789D01*
X120502262Y-121429816D01*
X120629816Y-121302262D01*
X120725789Y-121149522D01*
X120785368Y-120979255D01*
X120787016Y-120964630D01*
X120805565Y-120800003D01*
X120805565Y-120799996D01*
X120785369Y-120620750D01*
X120785368Y-120620745D01*
X120725788Y-120450476D01*
X120629815Y-120297737D01*
X120502262Y-120170184D01*
X120349523Y-120074211D01*
X120179254Y-120014631D01*
X120179249Y-120014630D01*
X120000004Y-119994435D01*
X119999996Y-119994435D01*
X119820750Y-120014630D01*
X119820745Y-120014631D01*
X119650476Y-120074211D01*
X119497737Y-120170184D01*
X119370184Y-120297737D01*
X119370182Y-120297740D01*
X119291157Y-120423506D01*
X119238822Y-120469797D01*
X119227119Y-120474575D01*
X119057803Y-120533821D01*
X118905063Y-120629794D01*
X118777510Y-120757347D01*
X118681537Y-120910086D01*
X118621957Y-121080355D01*
X118621956Y-121080360D01*
X118601761Y-121259606D01*
X118601761Y-121259613D01*
X116928985Y-121259613D01*
X116925788Y-121250476D01*
X116862354Y-121149522D01*
X116829816Y-121097738D01*
X116702262Y-120970184D01*
X116693426Y-120964632D01*
X116549523Y-120874211D01*
X116379254Y-120814631D01*
X116379249Y-120814630D01*
X116200004Y-120794435D01*
X116199996Y-120794435D01*
X116020750Y-120814630D01*
X116020745Y-120814631D01*
X115850476Y-120874211D01*
X115697737Y-120970184D01*
X115570184Y-121097737D01*
X115474211Y-121250476D01*
X115414631Y-121420745D01*
X115414630Y-121420750D01*
X115394435Y-121599996D01*
X115394435Y-121600003D01*
X83838665Y-121600003D01*
X83835369Y-121570750D01*
X83835368Y-121570745D01*
X83782882Y-121420750D01*
X83775789Y-121400478D01*
X83772310Y-121394942D01*
X83714076Y-121302262D01*
X83679816Y-121247738D01*
X83552262Y-121120184D01*
X83399523Y-121024211D01*
X83229254Y-120964631D01*
X83229249Y-120964630D01*
X83050004Y-120944435D01*
X83049996Y-120944435D01*
X82870750Y-120964630D01*
X82870745Y-120964631D01*
X82700476Y-121024211D01*
X82547737Y-121120184D01*
X82420184Y-121247737D01*
X82324210Y-121400478D01*
X82264630Y-121570750D01*
X82262689Y-121587982D01*
X82235622Y-121652396D01*
X82178026Y-121691950D01*
X82125587Y-121697317D01*
X82100000Y-121694435D01*
X82099998Y-121694435D01*
X82099996Y-121694435D01*
X81920750Y-121714630D01*
X81920745Y-121714631D01*
X81750476Y-121774211D01*
X81597737Y-121870184D01*
X81470184Y-121997737D01*
X81374211Y-122150476D01*
X81314631Y-122320745D01*
X81314630Y-122320749D01*
X81301095Y-122440880D01*
X81274028Y-122505294D01*
X81216433Y-122544849D01*
X81146596Y-122546986D01*
X81111904Y-122531990D01*
X81099525Y-122524212D01*
X80929254Y-122464631D01*
X80929249Y-122464630D01*
X80750004Y-122444435D01*
X80749996Y-122444435D01*
X80570750Y-122464630D01*
X80570745Y-122464631D01*
X80400476Y-122524211D01*
X80247737Y-122620184D01*
X80120184Y-122747737D01*
X80024211Y-122900476D01*
X79964631Y-123070745D01*
X79964630Y-123070750D01*
X79944435Y-123249996D01*
X79944435Y-123250003D01*
X72650500Y-123250003D01*
X72650500Y-122515782D01*
X72670185Y-122448743D01*
X72686814Y-122428106D01*
X74714916Y-120400003D01*
X95794435Y-120400003D01*
X95814630Y-120579249D01*
X95814631Y-120579254D01*
X95874211Y-120749523D01*
X95915122Y-120814632D01*
X95970184Y-120902262D01*
X96097738Y-121029816D01*
X96178170Y-121080355D01*
X96241557Y-121120184D01*
X96250478Y-121125789D01*
X96318306Y-121149523D01*
X96420745Y-121185368D01*
X96420750Y-121185369D01*
X96599996Y-121205565D01*
X96600000Y-121205565D01*
X96600004Y-121205565D01*
X96779249Y-121185369D01*
X96779252Y-121185368D01*
X96779255Y-121185368D01*
X96949522Y-121125789D01*
X97102262Y-121029816D01*
X97229816Y-120902262D01*
X97325789Y-120749522D01*
X97385368Y-120579255D01*
X97390487Y-120533821D01*
X97405565Y-120400003D01*
X97405565Y-120399996D01*
X97385369Y-120220750D01*
X97385368Y-120220745D01*
X97367676Y-120170184D01*
X97325789Y-120050478D01*
X97303265Y-120014632D01*
X97286582Y-119988080D01*
X97229816Y-119897738D01*
X97102262Y-119770184D01*
X97047897Y-119736024D01*
X96949523Y-119674211D01*
X96779254Y-119614631D01*
X96779249Y-119614630D01*
X96600004Y-119594435D01*
X96599996Y-119594435D01*
X96420750Y-119614630D01*
X96420745Y-119614631D01*
X96250476Y-119674211D01*
X96097737Y-119770184D01*
X95970184Y-119897737D01*
X95874211Y-120050476D01*
X95814631Y-120220745D01*
X95814630Y-120220750D01*
X95794435Y-120399996D01*
X95794435Y-120400003D01*
X74714916Y-120400003D01*
X75620562Y-119494357D01*
X75625064Y-119490278D01*
X75627990Y-119487877D01*
X75660883Y-119460883D01*
X75690203Y-119425154D01*
X75692138Y-119422910D01*
X75693334Y-119421586D01*
X75693341Y-119421580D01*
X75693347Y-119421572D01*
X75693353Y-119421566D01*
X75722885Y-119385346D01*
X75724558Y-119383294D01*
X75785910Y-119308538D01*
X75785917Y-119308523D01*
X75786055Y-119308319D01*
X75789564Y-119303571D01*
X75789698Y-119303407D01*
X75834620Y-119217407D01*
X75878814Y-119134727D01*
X75878817Y-119134714D01*
X75881612Y-119127969D01*
X75883890Y-119123094D01*
X75883908Y-119123050D01*
X75883909Y-119123049D01*
X75909724Y-119032827D01*
X75936024Y-118946132D01*
X75936024Y-118946122D01*
X75937212Y-118940159D01*
X75937451Y-118940206D01*
X75939843Y-118927662D01*
X75939884Y-118927427D01*
X75939887Y-118927418D01*
X75945814Y-118849579D01*
X75946771Y-118837012D01*
X75949767Y-118806590D01*
X75955341Y-118750000D01*
X75955306Y-118749654D01*
X75955067Y-118728064D01*
X75955337Y-118724523D01*
X75944284Y-118637736D01*
X75940567Y-118600000D01*
X75936024Y-118553868D01*
X75936023Y-118553866D01*
X75934879Y-118550093D01*
X75930532Y-118529758D01*
X75929630Y-118522672D01*
X75917496Y-118487173D01*
X75902356Y-118442877D01*
X75878815Y-118365277D01*
X75878814Y-118365273D01*
X75875261Y-118358625D01*
X75867288Y-118340286D01*
X75865792Y-118335909D01*
X75863816Y-118330128D01*
X75822644Y-118260186D01*
X75785910Y-118191462D01*
X75782778Y-118187646D01*
X75778863Y-118182875D01*
X75767857Y-118167116D01*
X75760592Y-118154775D01*
X75760591Y-118154773D01*
X75758397Y-118152345D01*
X75711719Y-118100680D01*
X75709292Y-118097994D01*
X75707375Y-118095767D01*
X75660885Y-118039118D01*
X75655712Y-118034873D01*
X75649520Y-118029791D01*
X75636186Y-118017077D01*
X75624179Y-118003787D01*
X75624178Y-118003786D01*
X75624176Y-118003784D01*
X75624173Y-118003782D01*
X75565233Y-117960501D01*
X75562596Y-117958454D01*
X75508541Y-117914092D01*
X75508539Y-117914091D01*
X75508538Y-117914090D01*
X75492413Y-117905471D01*
X75477478Y-117896062D01*
X75460172Y-117883354D01*
X75460163Y-117883348D01*
X75396767Y-117854219D01*
X75393426Y-117852561D01*
X75387922Y-117849619D01*
X75334727Y-117821186D01*
X75334724Y-117821185D01*
X75309773Y-117813616D01*
X75301876Y-117810620D01*
X75275271Y-117798395D01*
X75275264Y-117798393D01*
X75210588Y-117783384D01*
X75206606Y-117782319D01*
X75146135Y-117763976D01*
X75146128Y-117763975D01*
X75116820Y-117761088D01*
X75108876Y-117759781D01*
X75077050Y-117752396D01*
X75077052Y-117752396D01*
X75014030Y-117750799D01*
X75009524Y-117750520D01*
X74950002Y-117744659D01*
X74949995Y-117744659D01*
X74917320Y-117747876D01*
X74909670Y-117748155D01*
X74873640Y-117747243D01*
X74873639Y-117747243D01*
X74873637Y-117747243D01*
X74873635Y-117747243D01*
X74873625Y-117747244D01*
X74814917Y-117757766D01*
X74810057Y-117758440D01*
X74753870Y-117763975D01*
X74753862Y-117763977D01*
X74719206Y-117774490D01*
X74712142Y-117776188D01*
X74673350Y-117783141D01*
X74673341Y-117783143D01*
X74621067Y-117804023D01*
X74616067Y-117805777D01*
X74565271Y-117821186D01*
X74530360Y-117839845D01*
X74524132Y-117842743D01*
X74484385Y-117858620D01*
X74440191Y-117887746D01*
X74435299Y-117890657D01*
X74391461Y-117914090D01*
X74358246Y-117941349D01*
X74353029Y-117945192D01*
X74314485Y-117970595D01*
X74314483Y-117970596D01*
X74279449Y-118005629D01*
X74274941Y-118009715D01*
X74239116Y-118039116D01*
X74209715Y-118074941D01*
X74205627Y-118079451D01*
X70951532Y-121333546D01*
X70886946Y-121394942D01*
X70851899Y-121445294D01*
X70849062Y-121449056D01*
X70810302Y-121496592D01*
X70810299Y-121496597D01*
X70794392Y-121527047D01*
X70790324Y-121533761D01*
X70770702Y-121561954D01*
X70746509Y-121618330D01*
X70744488Y-121622584D01*
X70716091Y-121676951D01*
X70716090Y-121676952D01*
X70706640Y-121709975D01*
X70704007Y-121717371D01*
X70690459Y-121748943D01*
X70678113Y-121809019D01*
X70676990Y-121813595D01*
X70660113Y-121872577D01*
X70660113Y-121872579D01*
X70657503Y-121906841D01*
X70656414Y-121914608D01*
X70653405Y-121929255D01*
X70649500Y-121948258D01*
X70649500Y-122009597D01*
X70649321Y-122014306D01*
X70644662Y-122075474D01*
X70646485Y-122089786D01*
X70649003Y-122109560D01*
X70649500Y-122117388D01*
X70649500Y-126484217D01*
X70629815Y-126551256D01*
X70613181Y-126571898D01*
X69711681Y-127473398D01*
X69650358Y-127506883D01*
X69580666Y-127501899D01*
X69524733Y-127460027D01*
X69500316Y-127394563D01*
X69500000Y-127385717D01*
X69500000Y-117000000D01*
X75494659Y-117000000D01*
X75513975Y-117196129D01*
X75513976Y-117196132D01*
X75567078Y-117371186D01*
X75571188Y-117384733D01*
X75664086Y-117558532D01*
X75664090Y-117558539D01*
X75789116Y-117710883D01*
X75941460Y-117835909D01*
X75941467Y-117835913D01*
X76115266Y-117928811D01*
X76115269Y-117928811D01*
X76115273Y-117928814D01*
X76303868Y-117986024D01*
X76500000Y-118005341D01*
X76601380Y-117995356D01*
X76670026Y-118008375D01*
X76720736Y-118056440D01*
X76737411Y-118124291D01*
X76716638Y-118187646D01*
X76714091Y-118191457D01*
X76621188Y-118365266D01*
X76563975Y-118553870D01*
X76544659Y-118750000D01*
X76563975Y-118946129D01*
X76571559Y-118971129D01*
X76620395Y-119132121D01*
X76621188Y-119134733D01*
X76714086Y-119308532D01*
X76714090Y-119308539D01*
X76839116Y-119460883D01*
X76991460Y-119585909D01*
X76991467Y-119585913D01*
X77165266Y-119678811D01*
X77165269Y-119678811D01*
X77165273Y-119678814D01*
X77353868Y-119736024D01*
X77550000Y-119755341D01*
X77746132Y-119736024D01*
X77934727Y-119678814D01*
X77989529Y-119649522D01*
X78074239Y-119604243D01*
X78108538Y-119585910D01*
X78260883Y-119460883D01*
X78385910Y-119308538D01*
X78470906Y-119149522D01*
X78478811Y-119134733D01*
X78478812Y-119134731D01*
X78478814Y-119134727D01*
X78505817Y-119045711D01*
X80615370Y-119045711D01*
X80634686Y-119241840D01*
X80638843Y-119255544D01*
X80691404Y-119428814D01*
X80691899Y-119430444D01*
X80784797Y-119604243D01*
X80784801Y-119604250D01*
X80909827Y-119756594D01*
X81062171Y-119881620D01*
X81062178Y-119881624D01*
X81235977Y-119974522D01*
X81235980Y-119974522D01*
X81235984Y-119974525D01*
X81424579Y-120031735D01*
X81620711Y-120051052D01*
X81816843Y-120031735D01*
X82005438Y-119974525D01*
X82179249Y-119881621D01*
X82331594Y-119756594D01*
X82456621Y-119604249D01*
X82508748Y-119506726D01*
X82549522Y-119430444D01*
X82549522Y-119430443D01*
X82549525Y-119430438D01*
X82606735Y-119241843D01*
X82626052Y-119045711D01*
X82606735Y-118849579D01*
X82549525Y-118660984D01*
X82549522Y-118660980D01*
X82549522Y-118660977D01*
X82543655Y-118650000D01*
X83144659Y-118650000D01*
X83163975Y-118846129D01*
X83174024Y-118879255D01*
X83220609Y-119032826D01*
X83221188Y-119034733D01*
X83314086Y-119208532D01*
X83314090Y-119208539D01*
X83439116Y-119360883D01*
X83591460Y-119485909D01*
X83591467Y-119485913D01*
X83765266Y-119578811D01*
X83765269Y-119578811D01*
X83765273Y-119578814D01*
X83953868Y-119636024D01*
X84150000Y-119655341D01*
X84346132Y-119636024D01*
X84534727Y-119578814D01*
X84587703Y-119550498D01*
X84694886Y-119493207D01*
X84708538Y-119485910D01*
X84860883Y-119360883D01*
X84985910Y-119208538D01*
X85042295Y-119103049D01*
X85078811Y-119034733D01*
X85078811Y-119034732D01*
X85078814Y-119034727D01*
X85136024Y-118846132D01*
X85143030Y-118775000D01*
X90569659Y-118775000D01*
X90588975Y-118971129D01*
X90595211Y-118991687D01*
X90645823Y-119158532D01*
X90646188Y-119159733D01*
X90739086Y-119333532D01*
X90739090Y-119333539D01*
X90864116Y-119485883D01*
X91016460Y-119610909D01*
X91016467Y-119610913D01*
X91190266Y-119703811D01*
X91190269Y-119703811D01*
X91190273Y-119703814D01*
X91378868Y-119761024D01*
X91575000Y-119780341D01*
X91771132Y-119761024D01*
X91959727Y-119703814D01*
X92005676Y-119679254D01*
X92067899Y-119645995D01*
X92133538Y-119610910D01*
X92285883Y-119485883D01*
X92410910Y-119333538D01*
X92476471Y-119210883D01*
X92503811Y-119159733D01*
X92503811Y-119159732D01*
X92503814Y-119159727D01*
X92561024Y-118971132D01*
X92580341Y-118775000D01*
X93169659Y-118775000D01*
X93188975Y-118971129D01*
X93195211Y-118991687D01*
X93245823Y-119158532D01*
X93246188Y-119159733D01*
X93339086Y-119333532D01*
X93339090Y-119333539D01*
X93464116Y-119485883D01*
X93616460Y-119610909D01*
X93616467Y-119610913D01*
X93790266Y-119703811D01*
X93790269Y-119703811D01*
X93790273Y-119703814D01*
X93978868Y-119761024D01*
X94175000Y-119780341D01*
X94371132Y-119761024D01*
X94559727Y-119703814D01*
X94605676Y-119679254D01*
X94667899Y-119645995D01*
X94733538Y-119610910D01*
X94885883Y-119485883D01*
X95010910Y-119333538D01*
X95076471Y-119210883D01*
X95103811Y-119159733D01*
X95103811Y-119159732D01*
X95103814Y-119159727D01*
X95161024Y-118971132D01*
X95180341Y-118775000D01*
X95161024Y-118578868D01*
X95103814Y-118390273D01*
X95103811Y-118390269D01*
X95103811Y-118390266D01*
X95010913Y-118216467D01*
X95010909Y-118216460D01*
X94958291Y-118152345D01*
X95342314Y-118152345D01*
X95361630Y-118348474D01*
X95380694Y-118411318D01*
X95409215Y-118505341D01*
X95418843Y-118537078D01*
X95511741Y-118710877D01*
X95511745Y-118710884D01*
X95636771Y-118863228D01*
X95789115Y-118988254D01*
X95789122Y-118988258D01*
X95962921Y-119081156D01*
X95962924Y-119081156D01*
X95962928Y-119081159D01*
X96151523Y-119138369D01*
X96347655Y-119157686D01*
X96543787Y-119138369D01*
X96732382Y-119081159D01*
X96798701Y-119045711D01*
X96878158Y-119003240D01*
X96906193Y-118988255D01*
X97058538Y-118863228D01*
X97183565Y-118710883D01*
X97250654Y-118585368D01*
X97276466Y-118537078D01*
X97276466Y-118537077D01*
X97276469Y-118537072D01*
X97333679Y-118348477D01*
X97338453Y-118300000D01*
X100794659Y-118300000D01*
X100813975Y-118496129D01*
X100819587Y-118514630D01*
X100866774Y-118670184D01*
X100871188Y-118684733D01*
X100964086Y-118858532D01*
X100964090Y-118858539D01*
X101089116Y-119010883D01*
X101241460Y-119135909D01*
X101241467Y-119135913D01*
X101415266Y-119228811D01*
X101415269Y-119228811D01*
X101415273Y-119228814D01*
X101603868Y-119286024D01*
X101800000Y-119305341D01*
X101996132Y-119286024D01*
X102184727Y-119228814D01*
X102187981Y-119227075D01*
X102313968Y-119159733D01*
X102358538Y-119135910D01*
X102510883Y-119010883D01*
X102635910Y-118858538D01*
X102666256Y-118801763D01*
X102715217Y-118751919D01*
X102783355Y-118736457D01*
X102849035Y-118760287D01*
X102854280Y-118764362D01*
X102941460Y-118835909D01*
X102941467Y-118835913D01*
X103115266Y-118928811D01*
X103115269Y-118928811D01*
X103115273Y-118928814D01*
X103303868Y-118986024D01*
X103500000Y-119005341D01*
X103696132Y-118986024D01*
X103884727Y-118928814D01*
X103886883Y-118927662D01*
X103977447Y-118879254D01*
X104058538Y-118835910D01*
X104210883Y-118710883D01*
X104301883Y-118600000D01*
X107094659Y-118600000D01*
X107113975Y-118796129D01*
X107129143Y-118846132D01*
X107162828Y-118957176D01*
X107171188Y-118984733D01*
X107264086Y-119158532D01*
X107264090Y-119158539D01*
X107389116Y-119310883D01*
X107541460Y-119435909D01*
X107541467Y-119435913D01*
X107715266Y-119528811D01*
X107715269Y-119528811D01*
X107715273Y-119528814D01*
X107903868Y-119586024D01*
X108100000Y-119605341D01*
X108296132Y-119586024D01*
X108484727Y-119528814D01*
X108490387Y-119525789D01*
X108577447Y-119479254D01*
X108658538Y-119435910D01*
X108810883Y-119310883D01*
X108935910Y-119158538D01*
X109002085Y-119034733D01*
X109028811Y-118984733D01*
X109028811Y-118984732D01*
X109028814Y-118984727D01*
X109086024Y-118796132D01*
X109105341Y-118600000D01*
X109694659Y-118600000D01*
X109713975Y-118796129D01*
X109729143Y-118846132D01*
X109762828Y-118957176D01*
X109771188Y-118984733D01*
X109864086Y-119158532D01*
X109864090Y-119158539D01*
X109989116Y-119310883D01*
X110141460Y-119435909D01*
X110141467Y-119435913D01*
X110315266Y-119528811D01*
X110315269Y-119528811D01*
X110315273Y-119528814D01*
X110503868Y-119586024D01*
X110700000Y-119605341D01*
X110896132Y-119586024D01*
X111084727Y-119528814D01*
X111090387Y-119525789D01*
X111177447Y-119479254D01*
X111258538Y-119435910D01*
X111410883Y-119310883D01*
X111535910Y-119158538D01*
X111602085Y-119034733D01*
X111628811Y-118984733D01*
X111628811Y-118984732D01*
X111628814Y-118984727D01*
X111686024Y-118796132D01*
X111705341Y-118600000D01*
X111695492Y-118500000D01*
X113694659Y-118500000D01*
X113713975Y-118696129D01*
X113726357Y-118736947D01*
X113766774Y-118870184D01*
X113771188Y-118884733D01*
X113864086Y-119058532D01*
X113864090Y-119058539D01*
X113989116Y-119210883D01*
X114141460Y-119335909D01*
X114141467Y-119335913D01*
X114315266Y-119428811D01*
X114315269Y-119428811D01*
X114315273Y-119428814D01*
X114503868Y-119486024D01*
X114700000Y-119505341D01*
X114896132Y-119486024D01*
X115084727Y-119428814D01*
X115090387Y-119425789D01*
X115209168Y-119362299D01*
X115258538Y-119335910D01*
X115410883Y-119210883D01*
X115535910Y-119058538D01*
X115605865Y-118927662D01*
X115628811Y-118884733D01*
X115628811Y-118884732D01*
X115628814Y-118884727D01*
X115686024Y-118696132D01*
X115705341Y-118500000D01*
X116294659Y-118500000D01*
X116313975Y-118696129D01*
X116326357Y-118736947D01*
X116366774Y-118870184D01*
X116371188Y-118884733D01*
X116464086Y-119058532D01*
X116464090Y-119058539D01*
X116589116Y-119210883D01*
X116741460Y-119335909D01*
X116741467Y-119335913D01*
X116915266Y-119428811D01*
X116915269Y-119428811D01*
X116915273Y-119428814D01*
X117103868Y-119486024D01*
X117300000Y-119505341D01*
X117496132Y-119486024D01*
X117684727Y-119428814D01*
X117690387Y-119425789D01*
X117809168Y-119362299D01*
X117858538Y-119335910D01*
X118010883Y-119210883D01*
X118135910Y-119058538D01*
X118205865Y-118927662D01*
X118228811Y-118884733D01*
X118228811Y-118884732D01*
X118228814Y-118884727D01*
X118286024Y-118696132D01*
X118299524Y-118559063D01*
X119869659Y-118559063D01*
X119888975Y-118755192D01*
X119946188Y-118943796D01*
X120039086Y-119117595D01*
X120039090Y-119117602D01*
X120164116Y-119269946D01*
X120316460Y-119394972D01*
X120316467Y-119394976D01*
X120490266Y-119487874D01*
X120490269Y-119487874D01*
X120490273Y-119487877D01*
X120678868Y-119545087D01*
X120875000Y-119564404D01*
X121071132Y-119545087D01*
X121259727Y-119487877D01*
X121263402Y-119485913D01*
X121367188Y-119430438D01*
X121433538Y-119394973D01*
X121585883Y-119269946D01*
X121710910Y-119117601D01*
X121774979Y-118997737D01*
X121803811Y-118943796D01*
X121803811Y-118943795D01*
X121803814Y-118943790D01*
X121861024Y-118755195D01*
X121866460Y-118700003D01*
X124794435Y-118700003D01*
X124814630Y-118879249D01*
X124814631Y-118879254D01*
X124874211Y-119049523D01*
X124953978Y-119176470D01*
X124970184Y-119202262D01*
X125097738Y-119329816D01*
X125238224Y-119418089D01*
X125284514Y-119470423D01*
X125295471Y-119509199D01*
X125314630Y-119679249D01*
X125314631Y-119679254D01*
X125374211Y-119849523D01*
X125404507Y-119897738D01*
X125470184Y-120002262D01*
X125597738Y-120129816D01*
X125661983Y-120170184D01*
X125742450Y-120220745D01*
X125750478Y-120225789D01*
X125920745Y-120285368D01*
X125920750Y-120285369D01*
X126099996Y-120305565D01*
X126100000Y-120305565D01*
X126100004Y-120305565D01*
X126279249Y-120285369D01*
X126279252Y-120285368D01*
X126279255Y-120285368D01*
X126449522Y-120225789D01*
X126602262Y-120129816D01*
X126729816Y-120002262D01*
X126825789Y-119849522D01*
X126885368Y-119679255D01*
X126885418Y-119678811D01*
X126905565Y-119500003D01*
X126905565Y-119499996D01*
X126885369Y-119320750D01*
X126885368Y-119320745D01*
X126878919Y-119302316D01*
X126825789Y-119150478D01*
X126825188Y-119149522D01*
X126762354Y-119049522D01*
X126729816Y-118997738D01*
X126602262Y-118870184D01*
X126602260Y-118870182D01*
X126461775Y-118781909D01*
X126415485Y-118729575D01*
X126404528Y-118690799D01*
X126404211Y-118687988D01*
X126391975Y-118579381D01*
X126385369Y-118520750D01*
X126385368Y-118520745D01*
X126325788Y-118350475D01*
X126284173Y-118284247D01*
X126265172Y-118217010D01*
X126285539Y-118150175D01*
X126301482Y-118130594D01*
X126329816Y-118102262D01*
X126425789Y-117949522D01*
X126478108Y-117800003D01*
X127294435Y-117800003D01*
X127314630Y-117979249D01*
X127314631Y-117979254D01*
X127374211Y-118149523D01*
X127446938Y-118265266D01*
X127470184Y-118302262D01*
X127597738Y-118429816D01*
X127659362Y-118468537D01*
X127747748Y-118524074D01*
X127750478Y-118525789D01*
X127845570Y-118559063D01*
X127920745Y-118585368D01*
X127920750Y-118585369D01*
X128099996Y-118605565D01*
X128100000Y-118605565D01*
X128100004Y-118605565D01*
X128279249Y-118585369D01*
X128279252Y-118585368D01*
X128279255Y-118585368D01*
X128449522Y-118525789D01*
X128602262Y-118429816D01*
X128729816Y-118302262D01*
X128825789Y-118149522D01*
X128885368Y-117979255D01*
X128885984Y-117973787D01*
X128905565Y-117800003D01*
X128905565Y-117799996D01*
X128885369Y-117620750D01*
X128885368Y-117620745D01*
X128882999Y-117613975D01*
X128825789Y-117450478D01*
X128814388Y-117432334D01*
X128755367Y-117338402D01*
X128729816Y-117297738D01*
X128602262Y-117170184D01*
X128596114Y-117166321D01*
X128449523Y-117074211D01*
X128279254Y-117014631D01*
X128279249Y-117014630D01*
X128100004Y-116994435D01*
X128099996Y-116994435D01*
X127920750Y-117014630D01*
X127920745Y-117014631D01*
X127750476Y-117074211D01*
X127597737Y-117170184D01*
X127470184Y-117297737D01*
X127374211Y-117450476D01*
X127314631Y-117620745D01*
X127314630Y-117620750D01*
X127294435Y-117799996D01*
X127294435Y-117800003D01*
X126478108Y-117800003D01*
X126485368Y-117779255D01*
X126486390Y-117770184D01*
X126505565Y-117600003D01*
X126505565Y-117599996D01*
X126485369Y-117420750D01*
X126485368Y-117420745D01*
X126425788Y-117250475D01*
X126391268Y-117195538D01*
X126372267Y-117128301D01*
X126392634Y-117061466D01*
X126445902Y-117016251D01*
X126496261Y-117005565D01*
X126500004Y-117005565D01*
X126679249Y-116985369D01*
X126679252Y-116985368D01*
X126679255Y-116985368D01*
X126849522Y-116925789D01*
X127002262Y-116829816D01*
X127129816Y-116702262D01*
X127225789Y-116549522D01*
X127285368Y-116379255D01*
X127285417Y-116378827D01*
X127304056Y-116213393D01*
X127331122Y-116148979D01*
X127388717Y-116109424D01*
X127413393Y-116104056D01*
X127449365Y-116100003D01*
X128294435Y-116100003D01*
X128314630Y-116279249D01*
X128314631Y-116279254D01*
X128374211Y-116449523D01*
X128437031Y-116549500D01*
X128470184Y-116602262D01*
X128597738Y-116729816D01*
X128632907Y-116751914D01*
X128746887Y-116823533D01*
X128750478Y-116825789D01*
X128903258Y-116879249D01*
X128920745Y-116885368D01*
X128920750Y-116885369D01*
X129099996Y-116905565D01*
X129100000Y-116905565D01*
X129100004Y-116905565D01*
X129279249Y-116885369D01*
X129279252Y-116885368D01*
X129279255Y-116885368D01*
X129449522Y-116825789D01*
X129602262Y-116729816D01*
X129729816Y-116602262D01*
X129825789Y-116449522D01*
X129885368Y-116279255D01*
X129891003Y-116229249D01*
X129892644Y-116214680D01*
X129919710Y-116150265D01*
X129977304Y-116110710D01*
X130001981Y-116105342D01*
X130179249Y-116085369D01*
X130179252Y-116085368D01*
X130179255Y-116085368D01*
X130349522Y-116025789D01*
X130502262Y-115929816D01*
X130592246Y-115839831D01*
X130653565Y-115806349D01*
X130723257Y-115811333D01*
X130779191Y-115853204D01*
X130803608Y-115918668D01*
X130803144Y-115941397D01*
X130790909Y-116049994D01*
X130790909Y-116050003D01*
X130811104Y-116229249D01*
X130811105Y-116229254D01*
X130870685Y-116399523D01*
X130934299Y-116500764D01*
X130953299Y-116568001D01*
X130932931Y-116634836D01*
X130902352Y-116664803D01*
X130903182Y-116665843D01*
X130897735Y-116670186D01*
X130770184Y-116797737D01*
X130674211Y-116950476D01*
X130614631Y-117120745D01*
X130614630Y-117120750D01*
X130594435Y-117299996D01*
X130594435Y-117300003D01*
X130614741Y-117480230D01*
X130602686Y-117549052D01*
X130555337Y-117600431D01*
X130527124Y-117611783D01*
X130527317Y-117612333D01*
X130520747Y-117614631D01*
X130520745Y-117614632D01*
X130458158Y-117636531D01*
X130350478Y-117674210D01*
X130197737Y-117770184D01*
X130070184Y-117897737D01*
X129974211Y-118050476D01*
X129914631Y-118220745D01*
X129914630Y-118220750D01*
X129894435Y-118399996D01*
X129894435Y-118400003D01*
X129914630Y-118579249D01*
X129914631Y-118579254D01*
X129974211Y-118749523D01*
X130065601Y-118894968D01*
X130070184Y-118902262D01*
X130197738Y-119029816D01*
X130247281Y-119060946D01*
X130342450Y-119120745D01*
X130350478Y-119125789D01*
X130495310Y-119176468D01*
X130520745Y-119185368D01*
X130520750Y-119185369D01*
X130699996Y-119205565D01*
X130700000Y-119205565D01*
X130700004Y-119205565D01*
X130879249Y-119185369D01*
X130879252Y-119185368D01*
X130879255Y-119185368D01*
X131049522Y-119125789D01*
X131202262Y-119029816D01*
X131329816Y-118902262D01*
X131425789Y-118749522D01*
X131485368Y-118579255D01*
X131485369Y-118579249D01*
X131505565Y-118400003D01*
X131505565Y-118399997D01*
X131486458Y-118230421D01*
X131485368Y-118220745D01*
X131485367Y-118220743D01*
X131485258Y-118219771D01*
X131497312Y-118150949D01*
X131544661Y-118099569D01*
X131572875Y-118088219D01*
X131572682Y-118087668D01*
X131602326Y-118077295D01*
X131749522Y-118025789D01*
X131902262Y-117929816D01*
X132029816Y-117802262D01*
X132031235Y-117800003D01*
X134894435Y-117800003D01*
X134914630Y-117979249D01*
X134914631Y-117979254D01*
X134974211Y-118149523D01*
X135046938Y-118265266D01*
X135070184Y-118302262D01*
X135197738Y-118429816D01*
X135259362Y-118468537D01*
X135347748Y-118524074D01*
X135350478Y-118525789D01*
X135445570Y-118559063D01*
X135520745Y-118585368D01*
X135520750Y-118585369D01*
X135699996Y-118605565D01*
X135700000Y-118605565D01*
X135700004Y-118605565D01*
X135879249Y-118585369D01*
X135879252Y-118585368D01*
X135879255Y-118585368D01*
X136049522Y-118525789D01*
X136202262Y-118429816D01*
X136329816Y-118302262D01*
X136339178Y-118287361D01*
X136391510Y-118241071D01*
X136460564Y-118230421D01*
X136524413Y-118258795D01*
X136561213Y-118312378D01*
X136574210Y-118349521D01*
X136577231Y-118355794D01*
X136574489Y-118357114D01*
X136589842Y-118411318D01*
X136582890Y-118451086D01*
X136521218Y-118627332D01*
X136521217Y-118627337D01*
X136501022Y-118806583D01*
X136501022Y-118806590D01*
X136521217Y-118985836D01*
X136521218Y-118985841D01*
X136580798Y-119156110D01*
X136671208Y-119299996D01*
X136676771Y-119308849D01*
X136804325Y-119436403D01*
X136891795Y-119491364D01*
X136940341Y-119521868D01*
X136957065Y-119532376D01*
X137108510Y-119585369D01*
X137127332Y-119591955D01*
X137127337Y-119591956D01*
X137306583Y-119612152D01*
X137306587Y-119612152D01*
X137306591Y-119612152D01*
X137485836Y-119591956D01*
X137485839Y-119591955D01*
X137485842Y-119591955D01*
X137656109Y-119532376D01*
X137808849Y-119436403D01*
X137936403Y-119308849D01*
X138032376Y-119156109D01*
X138091955Y-118985842D01*
X138092698Y-118979249D01*
X138112152Y-118806590D01*
X138112152Y-118806581D01*
X138107285Y-118763382D01*
X138119340Y-118694561D01*
X138166690Y-118643182D01*
X138230505Y-118625500D01*
X140889548Y-118625500D01*
X140956587Y-118645185D01*
X140977228Y-118661818D01*
X141075696Y-118760287D01*
X141173787Y-118858378D01*
X141207272Y-118919701D01*
X141209326Y-118932174D01*
X141214630Y-118979249D01*
X141274210Y-119149521D01*
X141344629Y-119261592D01*
X141370184Y-119302262D01*
X141497738Y-119429816D01*
X141572915Y-119477053D01*
X141644237Y-119521868D01*
X141650478Y-119525789D01*
X141802006Y-119578811D01*
X141820745Y-119585368D01*
X141820750Y-119585369D01*
X141920742Y-119596634D01*
X141990799Y-119604528D01*
X142055213Y-119631594D01*
X142081909Y-119661775D01*
X142170182Y-119802260D01*
X142170184Y-119802262D01*
X142297738Y-119929816D01*
X142368887Y-119974522D01*
X142444864Y-120022262D01*
X142450478Y-120025789D01*
X142522673Y-120051051D01*
X142620745Y-120085368D01*
X142620750Y-120085369D01*
X142799996Y-120105565D01*
X142800000Y-120105565D01*
X142800004Y-120105565D01*
X142979249Y-120085369D01*
X142979252Y-120085368D01*
X142979255Y-120085368D01*
X143149522Y-120025789D01*
X143302262Y-119929816D01*
X143429816Y-119802262D01*
X143525789Y-119649522D01*
X143585368Y-119479255D01*
X143585616Y-119477053D01*
X143605565Y-119300003D01*
X143605565Y-119299996D01*
X143585369Y-119120750D01*
X143585368Y-119120745D01*
X143560326Y-119049179D01*
X143525789Y-118950478D01*
X143523056Y-118946129D01*
X143460222Y-118846129D01*
X143429816Y-118797738D01*
X143302262Y-118670184D01*
X143270418Y-118650175D01*
X143149523Y-118574211D01*
X142979254Y-118514631D01*
X142979249Y-118514630D01*
X142809199Y-118495471D01*
X142744785Y-118468405D01*
X142718090Y-118438225D01*
X142629816Y-118297738D01*
X142502262Y-118170184D01*
X142497379Y-118167116D01*
X142349521Y-118074210D01*
X142179249Y-118014630D01*
X142132174Y-118009326D01*
X142067760Y-117982259D01*
X142058378Y-117973787D01*
X141844573Y-117759982D01*
X141811088Y-117698659D01*
X141816072Y-117628967D01*
X141827259Y-117606330D01*
X141829813Y-117602264D01*
X141829816Y-117602262D01*
X141838344Y-117588688D01*
X141890676Y-117542400D01*
X141959730Y-117531750D01*
X141984292Y-117537621D01*
X142120737Y-117585366D01*
X142120743Y-117585367D01*
X142120745Y-117585368D01*
X142120746Y-117585368D01*
X142120750Y-117585369D01*
X142299996Y-117605565D01*
X142300000Y-117605565D01*
X142300004Y-117605565D01*
X142479249Y-117585369D01*
X142479252Y-117585368D01*
X142479255Y-117585368D01*
X142649522Y-117525789D01*
X142671439Y-117512018D01*
X142690274Y-117500183D01*
X142777223Y-117445548D01*
X142844459Y-117426548D01*
X142911294Y-117446915D01*
X142956509Y-117500183D01*
X142960236Y-117509587D01*
X142974209Y-117549519D01*
X143032838Y-117642827D01*
X143070184Y-117702262D01*
X143197738Y-117829816D01*
X143282934Y-117883348D01*
X143333730Y-117915266D01*
X143350478Y-117925789D01*
X143492987Y-117975655D01*
X143520745Y-117985368D01*
X143520750Y-117985369D01*
X143599077Y-117994193D01*
X143616200Y-117996123D01*
X143680615Y-118023189D01*
X143720170Y-118080783D01*
X143724284Y-118125821D01*
X143726059Y-118125901D01*
X143725809Y-118131462D01*
X143725809Y-118131463D01*
X143723695Y-118178523D01*
X143721949Y-118217397D01*
X143714723Y-118299996D01*
X143714723Y-118300003D01*
X143716688Y-118322470D01*
X143716862Y-118330660D01*
X143715709Y-118356324D01*
X143715710Y-118356328D01*
X143715710Y-118356330D01*
X143716922Y-118365275D01*
X143726641Y-118437031D01*
X143726966Y-118439949D01*
X143733792Y-118517972D01*
X143733795Y-118517987D01*
X143740482Y-118542941D01*
X143742034Y-118550670D01*
X143745924Y-118579381D01*
X143745926Y-118579392D01*
X143770075Y-118653713D01*
X143770997Y-118656825D01*
X143790423Y-118729324D01*
X143790427Y-118729336D01*
X143802736Y-118755732D01*
X143805512Y-118762779D01*
X143815483Y-118793464D01*
X143850970Y-118859411D01*
X143852558Y-118862576D01*
X143882898Y-118927639D01*
X143898889Y-118950476D01*
X143901490Y-118954191D01*
X143905303Y-118960378D01*
X143922146Y-118991678D01*
X143922152Y-118991687D01*
X143966792Y-119047663D01*
X143969106Y-119050758D01*
X144000296Y-119095301D01*
X144008402Y-119106877D01*
X144008405Y-119106880D01*
X144033646Y-119132121D01*
X144038283Y-119137309D01*
X144062492Y-119167666D01*
X144113959Y-119212632D01*
X144117008Y-119215483D01*
X144163116Y-119261592D01*
X144163122Y-119261597D01*
X144163123Y-119261598D01*
X144174802Y-119269775D01*
X144195055Y-119283957D01*
X144200290Y-119288057D01*
X144232004Y-119315765D01*
X144232013Y-119315771D01*
X144287849Y-119349131D01*
X144291613Y-119351568D01*
X144342359Y-119387101D01*
X144342364Y-119387104D01*
X144360310Y-119395472D01*
X144380677Y-119404969D01*
X144386271Y-119407935D01*
X144423945Y-119430444D01*
X144425236Y-119431215D01*
X144437754Y-119435913D01*
X144483083Y-119452925D01*
X144487503Y-119454782D01*
X144540670Y-119479575D01*
X144540674Y-119479577D01*
X144571069Y-119487720D01*
X144584677Y-119491366D01*
X144590413Y-119493207D01*
X144607264Y-119499531D01*
X144635976Y-119510307D01*
X144693545Y-119520754D01*
X144698511Y-119521868D01*
X144752023Y-119536207D01*
X144800689Y-119540464D01*
X144806306Y-119541218D01*
X144857453Y-119550500D01*
X144912691Y-119550500D01*
X144918092Y-119550735D01*
X144946548Y-119553225D01*
X144969998Y-119555277D01*
X144970000Y-119555277D01*
X145022992Y-119550640D01*
X145026121Y-119550500D01*
X145026155Y-119550500D01*
X145080172Y-119545638D01*
X145187977Y-119536207D01*
X145188000Y-119536200D01*
X145188475Y-119536117D01*
X145193713Y-119535419D01*
X145194188Y-119535377D01*
X145297997Y-119506726D01*
X145399330Y-119479575D01*
X145399337Y-119479571D01*
X145406254Y-119477053D01*
X145410948Y-119475554D01*
X145411170Y-119475493D01*
X145411181Y-119475487D01*
X145411183Y-119475487D01*
X145505454Y-119430088D01*
X145531188Y-119418088D01*
X145597639Y-119387102D01*
X145597644Y-119387097D01*
X145602327Y-119384395D01*
X145602400Y-119384522D01*
X145613164Y-119378218D01*
X145613973Y-119377829D01*
X145696156Y-119318118D01*
X145776877Y-119261598D01*
X145777747Y-119260727D01*
X145792550Y-119248084D01*
X145796078Y-119245522D01*
X145799596Y-119241843D01*
X145864131Y-119174343D01*
X145931592Y-119106883D01*
X145931592Y-119106882D01*
X145931598Y-119106877D01*
X145934285Y-119103039D01*
X145946239Y-119088465D01*
X145951629Y-119082828D01*
X145951628Y-119082828D01*
X145951632Y-119082825D01*
X146004164Y-119003241D01*
X146057102Y-118927639D01*
X146060543Y-118920259D01*
X146069432Y-118904364D01*
X146075635Y-118894968D01*
X146111889Y-118810146D01*
X146149575Y-118729330D01*
X146152570Y-118718148D01*
X146158325Y-118701505D01*
X146158967Y-118700003D01*
X146164103Y-118687988D01*
X146183936Y-118601092D01*
X146206207Y-118517977D01*
X146207887Y-118498766D01*
X146209206Y-118490377D01*
X146209938Y-118487171D01*
X146214191Y-118468537D01*
X146218050Y-118382602D01*
X146225277Y-118300000D01*
X146223310Y-118277528D01*
X146223137Y-118269334D01*
X146224290Y-118243670D01*
X146213353Y-118162939D01*
X146213034Y-118160067D01*
X146206207Y-118082023D01*
X146199515Y-118057053D01*
X146197963Y-118049322D01*
X146196898Y-118041460D01*
X146194075Y-118020613D01*
X146174543Y-117960501D01*
X146169921Y-117946276D01*
X146168998Y-117943161D01*
X146167914Y-117939117D01*
X146154518Y-117889117D01*
X146149576Y-117870673D01*
X146137266Y-117844274D01*
X146134488Y-117837222D01*
X146124519Y-117806541D01*
X146124517Y-117806537D01*
X146124517Y-117806536D01*
X146108186Y-117776188D01*
X146089027Y-117740583D01*
X146087432Y-117737405D01*
X146077820Y-117716792D01*
X146057102Y-117672362D01*
X146038512Y-117645813D01*
X146034698Y-117639625D01*
X146029654Y-117630251D01*
X146017852Y-117608319D01*
X145973192Y-117552318D01*
X145970896Y-117549247D01*
X145931598Y-117493123D01*
X145906353Y-117467878D01*
X145901715Y-117462689D01*
X145891977Y-117450478D01*
X145877508Y-117432334D01*
X145874626Y-117429816D01*
X145826039Y-117387366D01*
X145822990Y-117384515D01*
X145776878Y-117338402D01*
X145744940Y-117316039D01*
X145739705Y-117311939D01*
X145731225Y-117304530D01*
X145707996Y-117284235D01*
X145707994Y-117284233D01*
X145707992Y-117284232D01*
X145652148Y-117250867D01*
X145648384Y-117248429D01*
X145642527Y-117244328D01*
X145598903Y-117189750D01*
X145591712Y-117120251D01*
X145608661Y-117076781D01*
X145625787Y-117049525D01*
X145625786Y-117049525D01*
X145625789Y-117049522D01*
X145685368Y-116879255D01*
X145686734Y-116867133D01*
X145705565Y-116700003D01*
X145705565Y-116699996D01*
X145685369Y-116520750D01*
X145685366Y-116520737D01*
X145663353Y-116457828D01*
X145659791Y-116388049D01*
X145694519Y-116327422D01*
X145756512Y-116295194D01*
X145794277Y-116293653D01*
X145801218Y-116294435D01*
X145899997Y-116305565D01*
X145900000Y-116305565D01*
X145900004Y-116305565D01*
X146079249Y-116285369D01*
X146079252Y-116285368D01*
X146079255Y-116285368D01*
X146249522Y-116225789D01*
X146402262Y-116129816D01*
X146529816Y-116002262D01*
X146625789Y-115849522D01*
X146685368Y-115679255D01*
X146688664Y-115650003D01*
X146705565Y-115500003D01*
X146705565Y-115499996D01*
X146685369Y-115320750D01*
X146685368Y-115320745D01*
X146679908Y-115305140D01*
X146625789Y-115150478D01*
X146624067Y-115147738D01*
X146546809Y-115024782D01*
X146529816Y-114997738D01*
X146402262Y-114870184D01*
X146393426Y-114864632D01*
X146249523Y-114774211D01*
X146079254Y-114714631D01*
X146079249Y-114714630D01*
X145900004Y-114694435D01*
X145899996Y-114694435D01*
X145720750Y-114714630D01*
X145720745Y-114714631D01*
X145550476Y-114774211D01*
X145397737Y-114870184D01*
X145270184Y-114997737D01*
X145174211Y-115150476D01*
X145114631Y-115320745D01*
X145114630Y-115320750D01*
X145094435Y-115499996D01*
X145094435Y-115500003D01*
X145114630Y-115679249D01*
X145114632Y-115679257D01*
X145136647Y-115742172D01*
X145140208Y-115811951D01*
X145105479Y-115872578D01*
X145043486Y-115904805D01*
X145005722Y-115906346D01*
X144900004Y-115894435D01*
X144899996Y-115894435D01*
X144720750Y-115914630D01*
X144720745Y-115914631D01*
X144550476Y-115974211D01*
X144397737Y-116070184D01*
X144270184Y-116197737D01*
X144174212Y-116350475D01*
X144162990Y-116382545D01*
X144122267Y-116439320D01*
X144057313Y-116465066D01*
X144004994Y-116458630D01*
X143879254Y-116414631D01*
X143879249Y-116414630D01*
X143700004Y-116394435D01*
X143699996Y-116394435D01*
X143520750Y-116414630D01*
X143520745Y-116414631D01*
X143350476Y-116474211D01*
X143222776Y-116554451D01*
X143155539Y-116573451D01*
X143088704Y-116553083D01*
X143043490Y-116499815D01*
X143039762Y-116490410D01*
X143025790Y-116450479D01*
X142956013Y-116339431D01*
X142929816Y-116297738D01*
X142802262Y-116170184D01*
X142649523Y-116074211D01*
X142479254Y-116014631D01*
X142479250Y-116014630D01*
X142336726Y-115998572D01*
X142272312Y-115971505D01*
X142232757Y-115913910D01*
X142230620Y-115844073D01*
X142233571Y-115834391D01*
X142235367Y-115829258D01*
X142235369Y-115829249D01*
X142255565Y-115650003D01*
X142255565Y-115649996D01*
X142235369Y-115470750D01*
X142235368Y-115470745D01*
X142215733Y-115414631D01*
X142175789Y-115300478D01*
X142172131Y-115294657D01*
X142127469Y-115223578D01*
X142079816Y-115147738D01*
X141952262Y-115020184D01*
X141799523Y-114924211D01*
X141629254Y-114864631D01*
X141629249Y-114864630D01*
X141450004Y-114844435D01*
X141449996Y-114844435D01*
X141270750Y-114864630D01*
X141270745Y-114864631D01*
X141100476Y-114924211D01*
X140947737Y-115020184D01*
X140820184Y-115147737D01*
X140724211Y-115300476D01*
X140664631Y-115470745D01*
X140664630Y-115470750D01*
X140644435Y-115649996D01*
X140644435Y-115650003D01*
X140664630Y-115829249D01*
X140664631Y-115829254D01*
X140724211Y-115999523D01*
X140820184Y-116152262D01*
X140858228Y-116190306D01*
X140891713Y-116251629D01*
X140886729Y-116321321D01*
X140844857Y-116377254D01*
X140836520Y-116382980D01*
X140697739Y-116470182D01*
X140570184Y-116597737D01*
X140474211Y-116750476D01*
X140414631Y-116920745D01*
X140414630Y-116920750D01*
X140394435Y-117099996D01*
X140394435Y-117100003D01*
X140409827Y-117236617D01*
X140397772Y-117305439D01*
X140350423Y-117356818D01*
X140286607Y-117374500D01*
X139613393Y-117374500D01*
X139546354Y-117354815D01*
X139500599Y-117302011D01*
X139490173Y-117236617D01*
X139505565Y-117100003D01*
X139505565Y-117099996D01*
X139485369Y-116920750D01*
X139485368Y-116920745D01*
X139465754Y-116864692D01*
X139425789Y-116750478D01*
X139422004Y-116744455D01*
X139367261Y-116657331D01*
X139329816Y-116597738D01*
X139202262Y-116470184D01*
X139194117Y-116465066D01*
X139187360Y-116460820D01*
X139141069Y-116408485D01*
X139130422Y-116339431D01*
X139158798Y-116275583D01*
X139212377Y-116238786D01*
X139249522Y-116225789D01*
X139402262Y-116129816D01*
X139529816Y-116002262D01*
X139625789Y-115849522D01*
X139685368Y-115679255D01*
X139688664Y-115650003D01*
X139705565Y-115500003D01*
X139705565Y-115499996D01*
X139685369Y-115320750D01*
X139685368Y-115320745D01*
X139679908Y-115305140D01*
X139625789Y-115150478D01*
X139624067Y-115147738D01*
X139546809Y-115024782D01*
X139529816Y-114997738D01*
X139402262Y-114870184D01*
X139393426Y-114864632D01*
X139249523Y-114774211D01*
X139079254Y-114714631D01*
X139079249Y-114714630D01*
X138900004Y-114694435D01*
X138899996Y-114694435D01*
X138720750Y-114714630D01*
X138720745Y-114714631D01*
X138550476Y-114774211D01*
X138397737Y-114870184D01*
X138270184Y-114997737D01*
X138174211Y-115150476D01*
X138114631Y-115320745D01*
X138114630Y-115320750D01*
X138094435Y-115499996D01*
X138094435Y-115500003D01*
X138114630Y-115679249D01*
X138114631Y-115679254D01*
X138174211Y-115849523D01*
X138231940Y-115941397D01*
X138270184Y-116002262D01*
X138397738Y-116129816D01*
X138412638Y-116139178D01*
X138458929Y-116191513D01*
X138469577Y-116260566D01*
X138441202Y-116324415D01*
X138387621Y-116361213D01*
X138350480Y-116374209D01*
X138197737Y-116470184D01*
X138070184Y-116597737D01*
X137974211Y-116750476D01*
X137914631Y-116920745D01*
X137914630Y-116920750D01*
X137894435Y-117099996D01*
X137894435Y-117100004D01*
X137905389Y-117197228D01*
X137893334Y-117266050D01*
X137845985Y-117317429D01*
X137778375Y-117335053D01*
X137716197Y-117316105D01*
X137649523Y-117274211D01*
X137479254Y-117214631D01*
X137479249Y-117214630D01*
X137300004Y-117194435D01*
X137299996Y-117194435D01*
X137120750Y-117214630D01*
X137120745Y-117214631D01*
X136950476Y-117274211D01*
X136797737Y-117370184D01*
X136670185Y-117497736D01*
X136660819Y-117512642D01*
X136608482Y-117558931D01*
X136539429Y-117569577D01*
X136475581Y-117541200D01*
X136438785Y-117487618D01*
X136425790Y-117450480D01*
X136425789Y-117450478D01*
X136329816Y-117297738D01*
X136202262Y-117170184D01*
X136196114Y-117166321D01*
X136049523Y-117074211D01*
X135879254Y-117014631D01*
X135879249Y-117014630D01*
X135700004Y-116994435D01*
X135699996Y-116994435D01*
X135520750Y-117014630D01*
X135520745Y-117014631D01*
X135350476Y-117074211D01*
X135197737Y-117170184D01*
X135070184Y-117297737D01*
X134974211Y-117450476D01*
X134914631Y-117620745D01*
X134914630Y-117620750D01*
X134894435Y-117799996D01*
X134894435Y-117800003D01*
X132031235Y-117800003D01*
X132125789Y-117649522D01*
X132185368Y-117479255D01*
X132185474Y-117478314D01*
X132205565Y-117300003D01*
X132205565Y-117299996D01*
X132185369Y-117120750D01*
X132185368Y-117120745D01*
X132168027Y-117071188D01*
X132125789Y-116950478D01*
X132120123Y-116941460D01*
X132062174Y-116849235D01*
X132043174Y-116781998D01*
X132063542Y-116715163D01*
X132094124Y-116685205D01*
X132093290Y-116684159D01*
X132098730Y-116679819D01*
X132098736Y-116679816D01*
X132226290Y-116552262D01*
X132322263Y-116399522D01*
X132327974Y-116383201D01*
X132368695Y-116326424D01*
X132433647Y-116300676D01*
X132458899Y-116300933D01*
X132484652Y-116303835D01*
X132499999Y-116305565D01*
X132500000Y-116305565D01*
X132500004Y-116305565D01*
X132679249Y-116285369D01*
X132679252Y-116285368D01*
X132679255Y-116285368D01*
X132849522Y-116225789D01*
X133002262Y-116129816D01*
X133032075Y-116100003D01*
X133494435Y-116100003D01*
X133514630Y-116279249D01*
X133514631Y-116279254D01*
X133574211Y-116449523D01*
X133637031Y-116549500D01*
X133670184Y-116602262D01*
X133797738Y-116729816D01*
X133832907Y-116751914D01*
X133946887Y-116823533D01*
X133950478Y-116825789D01*
X134103258Y-116879249D01*
X134120745Y-116885368D01*
X134120750Y-116885369D01*
X134299996Y-116905565D01*
X134300000Y-116905565D01*
X134300004Y-116905565D01*
X134479249Y-116885369D01*
X134479252Y-116885368D01*
X134479255Y-116885368D01*
X134649522Y-116825789D01*
X134802262Y-116729816D01*
X134929816Y-116602262D01*
X135025789Y-116449522D01*
X135053553Y-116370174D01*
X135094274Y-116313398D01*
X135156711Y-116287907D01*
X135179255Y-116285368D01*
X135349522Y-116225789D01*
X135502262Y-116129816D01*
X135532075Y-116100003D01*
X136094435Y-116100003D01*
X136114630Y-116279249D01*
X136114631Y-116279254D01*
X136174211Y-116449523D01*
X136237031Y-116549500D01*
X136270184Y-116602262D01*
X136397738Y-116729816D01*
X136432907Y-116751914D01*
X136546887Y-116823533D01*
X136550478Y-116825789D01*
X136703258Y-116879249D01*
X136720745Y-116885368D01*
X136720750Y-116885369D01*
X136899996Y-116905565D01*
X136900000Y-116905565D01*
X136900004Y-116905565D01*
X137079249Y-116885369D01*
X137079252Y-116885368D01*
X137079255Y-116885368D01*
X137249522Y-116825789D01*
X137402262Y-116729816D01*
X137529816Y-116602262D01*
X137625789Y-116449522D01*
X137685368Y-116279255D01*
X137691002Y-116229254D01*
X137705565Y-116100003D01*
X137705565Y-116099996D01*
X137685369Y-115920750D01*
X137685368Y-115920745D01*
X137661734Y-115853204D01*
X137625789Y-115750478D01*
X137607106Y-115720745D01*
X137529815Y-115597737D01*
X137402262Y-115470184D01*
X137249523Y-115374211D01*
X137079254Y-115314631D01*
X137079249Y-115314630D01*
X136900004Y-115294435D01*
X136899996Y-115294435D01*
X136720750Y-115314630D01*
X136720745Y-115314631D01*
X136550476Y-115374211D01*
X136397737Y-115470184D01*
X136270184Y-115597737D01*
X136174211Y-115750476D01*
X136114631Y-115920745D01*
X136114630Y-115920750D01*
X136094435Y-116099996D01*
X136094435Y-116100003D01*
X135532075Y-116100003D01*
X135629816Y-116002262D01*
X135725789Y-115849522D01*
X135785368Y-115679255D01*
X135788664Y-115650003D01*
X135805565Y-115500003D01*
X135805565Y-115499996D01*
X135785369Y-115320750D01*
X135785368Y-115320745D01*
X135779908Y-115305140D01*
X135725789Y-115150478D01*
X135724067Y-115147738D01*
X135646809Y-115024782D01*
X135629816Y-114997738D01*
X135502262Y-114870184D01*
X135493426Y-114864632D01*
X135349523Y-114774211D01*
X135179254Y-114714631D01*
X135179249Y-114714630D01*
X135000004Y-114694435D01*
X134999996Y-114694435D01*
X134820750Y-114714630D01*
X134820745Y-114714631D01*
X134650476Y-114774211D01*
X134497737Y-114870184D01*
X134370184Y-114997737D01*
X134274212Y-115150475D01*
X134274211Y-115150476D01*
X134246445Y-115229827D01*
X134205723Y-115286602D01*
X134143289Y-115312091D01*
X134120750Y-115314630D01*
X133950478Y-115374210D01*
X133797737Y-115470184D01*
X133670184Y-115597737D01*
X133574211Y-115750476D01*
X133514631Y-115920745D01*
X133514630Y-115920750D01*
X133494435Y-116099996D01*
X133494435Y-116100003D01*
X133032075Y-116100003D01*
X133129816Y-116002262D01*
X133225789Y-115849522D01*
X133285368Y-115679255D01*
X133288664Y-115650003D01*
X133305565Y-115500003D01*
X133305565Y-115499996D01*
X133285369Y-115320750D01*
X133285368Y-115320745D01*
X133279908Y-115305140D01*
X133225789Y-115150478D01*
X133224067Y-115147738D01*
X133146809Y-115024782D01*
X133129816Y-114997738D01*
X133002262Y-114870184D01*
X132993426Y-114864632D01*
X132849523Y-114774211D01*
X132679254Y-114714631D01*
X132679249Y-114714630D01*
X132500004Y-114694435D01*
X132499996Y-114694435D01*
X132320750Y-114714630D01*
X132320745Y-114714631D01*
X132150476Y-114774211D01*
X131997737Y-114870184D01*
X131870184Y-114997737D01*
X131774212Y-115150475D01*
X131774210Y-115150479D01*
X131768498Y-115166803D01*
X131727775Y-115223578D01*
X131662822Y-115249323D01*
X131637577Y-115249066D01*
X131596474Y-115244435D01*
X131596472Y-115244435D01*
X131596470Y-115244435D01*
X131417224Y-115264630D01*
X131417219Y-115264631D01*
X131246950Y-115324211D01*
X131094213Y-115420183D01*
X131004230Y-115510166D01*
X130942906Y-115543650D01*
X130873215Y-115538666D01*
X130817281Y-115496794D01*
X130792865Y-115431329D01*
X130793329Y-115408600D01*
X130805565Y-115300002D01*
X130805565Y-115299996D01*
X130785369Y-115120750D01*
X130785368Y-115120745D01*
X130742326Y-114997738D01*
X130725789Y-114950478D01*
X130629816Y-114797738D01*
X130502262Y-114670184D01*
X130349523Y-114574211D01*
X130179254Y-114514631D01*
X130179249Y-114514630D01*
X130000004Y-114494435D01*
X129999996Y-114494435D01*
X129820750Y-114514630D01*
X129820745Y-114514631D01*
X129650476Y-114574211D01*
X129497737Y-114670184D01*
X129370184Y-114797737D01*
X129274211Y-114950476D01*
X129214631Y-115120745D01*
X129214630Y-115120749D01*
X129207355Y-115185321D01*
X129180288Y-115249735D01*
X129122693Y-115289290D01*
X129098019Y-115294657D01*
X128920749Y-115314630D01*
X128920745Y-115314631D01*
X128750476Y-115374211D01*
X128597737Y-115470184D01*
X128470184Y-115597737D01*
X128374211Y-115750476D01*
X128314631Y-115920745D01*
X128314630Y-115920750D01*
X128294435Y-116099996D01*
X128294435Y-116100003D01*
X127449365Y-116100003D01*
X127579249Y-116085369D01*
X127579252Y-116085368D01*
X127579255Y-116085368D01*
X127749522Y-116025789D01*
X127902262Y-115929816D01*
X128029816Y-115802262D01*
X128125789Y-115649522D01*
X128185368Y-115479255D01*
X128185416Y-115478828D01*
X128205565Y-115300003D01*
X128205565Y-115299996D01*
X128185369Y-115120750D01*
X128185368Y-115120745D01*
X128142326Y-114997738D01*
X128125789Y-114950478D01*
X128029816Y-114797738D01*
X127902262Y-114670184D01*
X127749523Y-114574211D01*
X127579254Y-114514631D01*
X127579249Y-114514630D01*
X127400004Y-114494435D01*
X127399996Y-114494435D01*
X127220750Y-114514630D01*
X127220745Y-114514631D01*
X127050476Y-114574211D01*
X126897737Y-114670184D01*
X126770184Y-114797737D01*
X126674211Y-114950476D01*
X126614631Y-115120745D01*
X126614630Y-115120749D01*
X126595943Y-115286607D01*
X126568876Y-115351021D01*
X126511281Y-115390576D01*
X126486607Y-115395943D01*
X126320749Y-115414630D01*
X126320745Y-115414631D01*
X126150476Y-115474211D01*
X125997737Y-115570184D01*
X125870184Y-115697737D01*
X125774212Y-115850474D01*
X125751800Y-115914523D01*
X125711077Y-115971298D01*
X125646124Y-115997044D01*
X125620879Y-115996787D01*
X125601988Y-115994659D01*
X125600000Y-115994435D01*
X125599999Y-115994435D01*
X125599996Y-115994435D01*
X125420750Y-116014630D01*
X125420745Y-116014631D01*
X125250476Y-116074211D01*
X125097737Y-116170184D01*
X124970184Y-116297737D01*
X124874211Y-116450476D01*
X124814631Y-116620745D01*
X124814630Y-116620750D01*
X124794435Y-116799996D01*
X124794435Y-116800003D01*
X124814630Y-116979249D01*
X124814633Y-116979262D01*
X124874209Y-117149520D01*
X124929360Y-117237293D01*
X124948360Y-117304530D01*
X124941408Y-117344216D01*
X124914632Y-117420742D01*
X124914631Y-117420746D01*
X124894435Y-117599996D01*
X124894435Y-117600003D01*
X124914630Y-117779249D01*
X124914631Y-117779254D01*
X124974211Y-117949524D01*
X125015826Y-118015752D01*
X125034827Y-118082989D01*
X125014460Y-118149824D01*
X124998516Y-118169405D01*
X124970184Y-118197736D01*
X124874211Y-118350476D01*
X124814631Y-118520745D01*
X124814630Y-118520750D01*
X124794435Y-118699996D01*
X124794435Y-118700003D01*
X121866460Y-118700003D01*
X121880341Y-118559063D01*
X121861024Y-118362931D01*
X121803814Y-118174336D01*
X121803811Y-118174332D01*
X121803811Y-118174329D01*
X121710913Y-118000530D01*
X121710909Y-118000523D01*
X121585883Y-117848179D01*
X121433539Y-117723153D01*
X121433532Y-117723149D01*
X121259733Y-117630251D01*
X121259727Y-117630249D01*
X121124134Y-117589117D01*
X121071129Y-117573038D01*
X120875000Y-117553722D01*
X120678870Y-117573038D01*
X120490266Y-117630251D01*
X120316467Y-117723149D01*
X120316460Y-117723153D01*
X120164116Y-117848179D01*
X120039090Y-118000523D01*
X120039086Y-118000530D01*
X119946188Y-118174329D01*
X119888975Y-118362933D01*
X119869659Y-118559063D01*
X118299524Y-118559063D01*
X118305341Y-118500000D01*
X118286024Y-118303868D01*
X118228814Y-118115273D01*
X118228811Y-118115269D01*
X118228811Y-118115266D01*
X118135913Y-117941467D01*
X118135909Y-117941460D01*
X118010883Y-117789116D01*
X117858539Y-117664090D01*
X117858532Y-117664086D01*
X117684733Y-117571188D01*
X117684727Y-117571186D01*
X117535071Y-117525788D01*
X117496129Y-117513975D01*
X117300000Y-117494659D01*
X117103870Y-117513975D01*
X116915266Y-117571188D01*
X116741467Y-117664086D01*
X116741460Y-117664090D01*
X116589116Y-117789116D01*
X116464090Y-117941460D01*
X116464086Y-117941467D01*
X116371188Y-118115266D01*
X116313975Y-118303870D01*
X116294659Y-118500000D01*
X115705341Y-118500000D01*
X115686024Y-118303868D01*
X115628814Y-118115273D01*
X115628811Y-118115269D01*
X115628811Y-118115266D01*
X115535913Y-117941467D01*
X115535909Y-117941460D01*
X115410883Y-117789116D01*
X115258539Y-117664090D01*
X115258532Y-117664086D01*
X115084733Y-117571188D01*
X115084727Y-117571186D01*
X114935071Y-117525788D01*
X114896129Y-117513975D01*
X114700000Y-117494659D01*
X114503870Y-117513975D01*
X114315266Y-117571188D01*
X114141467Y-117664086D01*
X114141460Y-117664090D01*
X113989116Y-117789116D01*
X113864090Y-117941460D01*
X113864086Y-117941467D01*
X113771188Y-118115266D01*
X113713975Y-118303870D01*
X113694659Y-118500000D01*
X111695492Y-118500000D01*
X111686024Y-118403868D01*
X111628814Y-118215273D01*
X111628811Y-118215269D01*
X111628811Y-118215266D01*
X111535913Y-118041467D01*
X111535909Y-118041460D01*
X111410883Y-117889116D01*
X111258539Y-117764090D01*
X111258532Y-117764086D01*
X111084733Y-117671188D01*
X111084727Y-117671186D01*
X110896132Y-117613976D01*
X110896129Y-117613975D01*
X110700000Y-117594659D01*
X110503870Y-117613975D01*
X110315266Y-117671188D01*
X110141467Y-117764086D01*
X110141460Y-117764090D01*
X109989116Y-117889116D01*
X109864090Y-118041460D01*
X109864086Y-118041467D01*
X109771188Y-118215266D01*
X109713975Y-118403870D01*
X109694659Y-118600000D01*
X109105341Y-118600000D01*
X109086024Y-118403868D01*
X109028814Y-118215273D01*
X109028811Y-118215269D01*
X109028811Y-118215266D01*
X108935913Y-118041467D01*
X108935909Y-118041460D01*
X108810883Y-117889116D01*
X108658539Y-117764090D01*
X108658532Y-117764086D01*
X108484733Y-117671188D01*
X108484727Y-117671186D01*
X108296132Y-117613976D01*
X108296129Y-117613975D01*
X108100000Y-117594659D01*
X107903870Y-117613975D01*
X107715266Y-117671188D01*
X107541467Y-117764086D01*
X107541460Y-117764090D01*
X107389116Y-117889116D01*
X107264090Y-118041460D01*
X107264086Y-118041467D01*
X107171188Y-118215266D01*
X107113975Y-118403870D01*
X107094659Y-118600000D01*
X104301883Y-118600000D01*
X104335910Y-118558538D01*
X104384087Y-118468405D01*
X104428811Y-118384733D01*
X104428811Y-118384732D01*
X104428814Y-118384727D01*
X104486024Y-118196132D01*
X104505341Y-118000000D01*
X104486024Y-117803868D01*
X104428814Y-117615273D01*
X104428811Y-117615269D01*
X104428811Y-117615266D01*
X104335913Y-117441467D01*
X104335909Y-117441460D01*
X104210883Y-117289116D01*
X104058539Y-117164090D01*
X104058532Y-117164086D01*
X103884733Y-117071188D01*
X103884727Y-117071186D01*
X103717850Y-117020564D01*
X103696129Y-117013975D01*
X103500000Y-116994659D01*
X103303870Y-117013975D01*
X103115266Y-117071188D01*
X102941467Y-117164086D01*
X102941460Y-117164090D01*
X102789116Y-117289116D01*
X102664090Y-117441460D01*
X102664085Y-117441467D01*
X102633742Y-117498237D01*
X102584780Y-117548082D01*
X102516642Y-117563542D01*
X102450962Y-117539710D01*
X102445719Y-117535637D01*
X102363154Y-117467878D01*
X102358538Y-117464090D01*
X102358536Y-117464089D01*
X102358532Y-117464086D01*
X102184733Y-117371188D01*
X102184727Y-117371186D01*
X102004225Y-117316431D01*
X101996129Y-117313975D01*
X101800000Y-117294659D01*
X101603870Y-117313975D01*
X101415266Y-117371188D01*
X101241467Y-117464086D01*
X101241460Y-117464090D01*
X101089116Y-117589116D01*
X100964090Y-117741460D01*
X100964086Y-117741467D01*
X100871188Y-117915266D01*
X100813975Y-118103870D01*
X100794659Y-118300000D01*
X97338453Y-118300000D01*
X97352996Y-118152345D01*
X97333679Y-117956213D01*
X97276469Y-117767618D01*
X97276466Y-117767614D01*
X97276466Y-117767611D01*
X97183568Y-117593812D01*
X97183564Y-117593805D01*
X97058538Y-117441461D01*
X96906194Y-117316435D01*
X96906187Y-117316431D01*
X96732388Y-117223533D01*
X96732382Y-117223531D01*
X96543787Y-117166321D01*
X96543784Y-117166320D01*
X96347655Y-117147004D01*
X96151525Y-117166320D01*
X95962921Y-117223533D01*
X95789122Y-117316431D01*
X95789115Y-117316435D01*
X95636771Y-117441461D01*
X95511745Y-117593805D01*
X95511741Y-117593812D01*
X95418843Y-117767611D01*
X95361630Y-117956215D01*
X95342314Y-118152345D01*
X94958291Y-118152345D01*
X94885883Y-118064116D01*
X94733539Y-117939090D01*
X94733532Y-117939086D01*
X94559733Y-117846188D01*
X94559727Y-117846186D01*
X94371132Y-117788976D01*
X94371129Y-117788975D01*
X94175000Y-117769659D01*
X93978870Y-117788975D01*
X93790266Y-117846188D01*
X93616467Y-117939086D01*
X93616460Y-117939090D01*
X93464116Y-118064116D01*
X93339090Y-118216460D01*
X93339086Y-118216467D01*
X93246188Y-118390266D01*
X93188975Y-118578870D01*
X93169659Y-118775000D01*
X92580341Y-118775000D01*
X92561024Y-118578868D01*
X92503814Y-118390273D01*
X92503811Y-118390269D01*
X92503811Y-118390266D01*
X92410913Y-118216467D01*
X92410909Y-118216460D01*
X92285883Y-118064116D01*
X92133539Y-117939090D01*
X92133532Y-117939086D01*
X91959733Y-117846188D01*
X91959727Y-117846186D01*
X91771132Y-117788976D01*
X91771129Y-117788975D01*
X91575000Y-117769659D01*
X91378870Y-117788975D01*
X91190266Y-117846188D01*
X91016467Y-117939086D01*
X91016460Y-117939090D01*
X90864116Y-118064116D01*
X90739090Y-118216460D01*
X90739086Y-118216467D01*
X90646188Y-118390266D01*
X90588975Y-118578870D01*
X90569659Y-118775000D01*
X85143030Y-118775000D01*
X85155341Y-118650000D01*
X85152288Y-118619001D01*
X85165307Y-118550356D01*
X85213372Y-118499646D01*
X85281223Y-118482971D01*
X85299890Y-118485232D01*
X85303858Y-118486021D01*
X85303868Y-118486024D01*
X85500000Y-118505341D01*
X85696132Y-118486024D01*
X85884727Y-118428814D01*
X85922667Y-118408535D01*
X86003617Y-118365266D01*
X86058538Y-118335910D01*
X86210883Y-118210883D01*
X86335910Y-118058538D01*
X86398486Y-117941467D01*
X86428811Y-117884733D01*
X86428811Y-117884732D01*
X86428814Y-117884727D01*
X86486024Y-117696132D01*
X86505341Y-117500000D01*
X86486024Y-117303868D01*
X86428814Y-117115273D01*
X86428811Y-117115269D01*
X86428811Y-117115266D01*
X86335913Y-116941467D01*
X86335909Y-116941460D01*
X86210883Y-116789116D01*
X86058539Y-116664090D01*
X86058532Y-116664086D01*
X85884733Y-116571188D01*
X85884727Y-116571186D01*
X85813238Y-116549500D01*
X108490215Y-116549500D01*
X108509531Y-116745629D01*
X108509532Y-116745632D01*
X108564182Y-116925789D01*
X108566744Y-116934233D01*
X108659642Y-117108032D01*
X108659646Y-117108039D01*
X108784672Y-117260383D01*
X108937016Y-117385409D01*
X108937023Y-117385413D01*
X109110822Y-117478311D01*
X109110825Y-117478311D01*
X109110829Y-117478314D01*
X109299424Y-117535524D01*
X109495556Y-117554841D01*
X109691688Y-117535524D01*
X109880283Y-117478314D01*
X109884742Y-117475931D01*
X109977130Y-117426548D01*
X110054094Y-117385410D01*
X110206439Y-117260383D01*
X110331466Y-117108038D01*
X110407337Y-116966093D01*
X110424367Y-116934233D01*
X110424367Y-116934232D01*
X110424370Y-116934227D01*
X110481580Y-116745632D01*
X110500897Y-116549500D01*
X110481580Y-116353368D01*
X110424370Y-116164773D01*
X110424367Y-116164769D01*
X110424367Y-116164766D01*
X110331469Y-115990967D01*
X110331465Y-115990960D01*
X110206439Y-115838616D01*
X110054095Y-115713590D01*
X110054088Y-115713586D01*
X109880289Y-115620688D01*
X109880283Y-115620686D01*
X109691688Y-115563476D01*
X109691685Y-115563475D01*
X109495556Y-115544159D01*
X109299426Y-115563475D01*
X109110822Y-115620688D01*
X108937023Y-115713586D01*
X108937016Y-115713590D01*
X108784672Y-115838616D01*
X108659646Y-115990960D01*
X108659642Y-115990967D01*
X108566744Y-116164766D01*
X108509531Y-116353370D01*
X108490215Y-116549500D01*
X85813238Y-116549500D01*
X85696132Y-116513976D01*
X85696129Y-116513975D01*
X85500000Y-116494659D01*
X85303870Y-116513975D01*
X85115266Y-116571188D01*
X84941467Y-116664086D01*
X84941460Y-116664090D01*
X84789116Y-116789116D01*
X84664090Y-116941460D01*
X84664086Y-116941467D01*
X84571188Y-117115266D01*
X84513975Y-117303870D01*
X84494659Y-117500000D01*
X84494659Y-117500004D01*
X84497711Y-117531000D01*
X84484691Y-117599646D01*
X84436624Y-117650355D01*
X84368773Y-117667027D01*
X84350119Y-117664769D01*
X84346131Y-117663975D01*
X84150000Y-117644659D01*
X83953870Y-117663975D01*
X83765266Y-117721188D01*
X83591467Y-117814086D01*
X83591460Y-117814090D01*
X83439116Y-117939116D01*
X83314090Y-118091460D01*
X83314086Y-118091467D01*
X83221188Y-118265266D01*
X83163975Y-118453870D01*
X83144659Y-118650000D01*
X82543655Y-118650000D01*
X82456624Y-118487178D01*
X82456620Y-118487171D01*
X82331594Y-118334827D01*
X82179250Y-118209801D01*
X82179243Y-118209797D01*
X82005444Y-118116899D01*
X82005438Y-118116897D01*
X81831447Y-118064117D01*
X81816840Y-118059686D01*
X81620711Y-118040370D01*
X81424581Y-118059686D01*
X81235977Y-118116899D01*
X81062178Y-118209797D01*
X81062171Y-118209801D01*
X80909827Y-118334827D01*
X80784801Y-118487171D01*
X80784797Y-118487178D01*
X80691899Y-118660977D01*
X80634686Y-118849581D01*
X80615370Y-119045711D01*
X78505817Y-119045711D01*
X78536024Y-118946132D01*
X78555341Y-118750000D01*
X78536024Y-118553868D01*
X78478814Y-118365273D01*
X78478811Y-118365269D01*
X78478811Y-118365266D01*
X78385913Y-118191467D01*
X78385909Y-118191460D01*
X78260883Y-118039116D01*
X78108539Y-117914090D01*
X78108532Y-117914086D01*
X77934733Y-117821188D01*
X77934727Y-117821186D01*
X77764866Y-117769659D01*
X77746129Y-117763975D01*
X77550000Y-117744659D01*
X77549999Y-117744659D01*
X77448618Y-117754643D01*
X77379972Y-117741624D01*
X77329262Y-117693558D01*
X77312589Y-117625707D01*
X77333369Y-117562339D01*
X77335900Y-117558549D01*
X77335910Y-117558538D01*
X77348211Y-117535524D01*
X77428811Y-117384733D01*
X77428811Y-117384732D01*
X77428814Y-117384727D01*
X77486024Y-117196132D01*
X77505341Y-117000000D01*
X77486024Y-116803868D01*
X77428814Y-116615273D01*
X77428811Y-116615269D01*
X77428811Y-116615266D01*
X77335913Y-116441467D01*
X77335909Y-116441460D01*
X77210883Y-116289116D01*
X77058539Y-116164090D01*
X77058532Y-116164086D01*
X76884733Y-116071188D01*
X76884727Y-116071186D01*
X76698295Y-116014632D01*
X76696129Y-116013975D01*
X76500000Y-115994659D01*
X76303870Y-116013975D01*
X76115266Y-116071188D01*
X75941467Y-116164086D01*
X75941460Y-116164090D01*
X75789116Y-116289116D01*
X75664090Y-116441460D01*
X75664086Y-116441467D01*
X75571188Y-116615266D01*
X75513975Y-116803870D01*
X75494659Y-117000000D01*
X69500000Y-117000000D01*
X69500000Y-114100005D01*
X86894357Y-114100005D01*
X86914890Y-114347812D01*
X86914892Y-114347824D01*
X86975936Y-114588881D01*
X87075826Y-114816606D01*
X87211833Y-115024782D01*
X87211836Y-115024785D01*
X87380256Y-115207738D01*
X87576491Y-115360474D01*
X87576493Y-115360475D01*
X87786658Y-115474211D01*
X87795190Y-115478828D01*
X88030386Y-115559571D01*
X88275665Y-115600500D01*
X88524335Y-115600500D01*
X88769614Y-115559571D01*
X89004810Y-115478828D01*
X89223509Y-115360474D01*
X89419744Y-115207738D01*
X89588164Y-115024785D01*
X89604354Y-115000005D01*
X103694357Y-115000005D01*
X103714890Y-115247812D01*
X103714892Y-115247824D01*
X103775936Y-115488881D01*
X103875826Y-115716606D01*
X104011833Y-115924782D01*
X104011836Y-115924785D01*
X104180256Y-116107738D01*
X104376491Y-116260474D01*
X104376493Y-116260475D01*
X104592281Y-116377254D01*
X104595190Y-116378828D01*
X104830386Y-116459571D01*
X105075665Y-116500500D01*
X105324335Y-116500500D01*
X105569614Y-116459571D01*
X105804810Y-116378828D01*
X106023509Y-116260474D01*
X106219744Y-116107738D01*
X106388164Y-115924785D01*
X106524173Y-115716607D01*
X106624063Y-115488881D01*
X106685108Y-115247821D01*
X106687117Y-115223578D01*
X106705643Y-115000005D01*
X120494357Y-115000005D01*
X120514890Y-115247812D01*
X120514892Y-115247824D01*
X120575936Y-115488881D01*
X120675826Y-115716606D01*
X120811833Y-115924782D01*
X120811836Y-115924785D01*
X120980256Y-116107738D01*
X121176491Y-116260474D01*
X121176493Y-116260475D01*
X121392281Y-116377254D01*
X121395190Y-116378828D01*
X121630386Y-116459571D01*
X121875665Y-116500500D01*
X122124335Y-116500500D01*
X122369614Y-116459571D01*
X122604810Y-116378828D01*
X122823509Y-116260474D01*
X123019744Y-116107738D01*
X123188164Y-115924785D01*
X123324173Y-115716607D01*
X123424063Y-115488881D01*
X123485108Y-115247821D01*
X123487117Y-115223578D01*
X123505643Y-115000005D01*
X123505643Y-114999994D01*
X123485109Y-114752187D01*
X123485107Y-114752175D01*
X123424063Y-114511118D01*
X123324173Y-114283393D01*
X123188166Y-114075217D01*
X123166557Y-114051744D01*
X123019744Y-113892262D01*
X122823509Y-113739526D01*
X122823507Y-113739525D01*
X122823506Y-113739524D01*
X122604811Y-113621172D01*
X122604802Y-113621169D01*
X122543139Y-113600000D01*
X136194659Y-113600000D01*
X136213975Y-113796129D01*
X136271188Y-113984733D01*
X136364086Y-114158532D01*
X136364090Y-114158539D01*
X136489116Y-114310883D01*
X136641460Y-114435909D01*
X136641467Y-114435913D01*
X136815266Y-114528811D01*
X136815269Y-114528811D01*
X136815273Y-114528814D01*
X137003868Y-114586024D01*
X137200000Y-114605341D01*
X137396132Y-114586024D01*
X137584727Y-114528814D01*
X137611264Y-114514630D01*
X137758532Y-114435913D01*
X137758538Y-114435910D01*
X137910883Y-114310883D01*
X138035910Y-114158538D01*
X138128814Y-113984727D01*
X138186024Y-113796132D01*
X138205341Y-113600000D01*
X138186024Y-113403868D01*
X138128814Y-113215273D01*
X138128811Y-113215269D01*
X138128811Y-113215266D01*
X138035913Y-113041467D01*
X138035909Y-113041460D01*
X137910883Y-112889116D01*
X137758539Y-112764090D01*
X137758532Y-112764086D01*
X137584733Y-112671188D01*
X137584727Y-112671186D01*
X137396132Y-112613976D01*
X137396129Y-112613975D01*
X137200000Y-112594659D01*
X137003870Y-112613975D01*
X136815266Y-112671188D01*
X136641467Y-112764086D01*
X136641460Y-112764090D01*
X136489116Y-112889116D01*
X136364090Y-113041460D01*
X136364086Y-113041467D01*
X136271188Y-113215266D01*
X136213975Y-113403870D01*
X136194659Y-113600000D01*
X122543139Y-113600000D01*
X122369616Y-113540429D01*
X122124335Y-113499500D01*
X121875665Y-113499500D01*
X121630383Y-113540429D01*
X121395197Y-113621169D01*
X121395188Y-113621172D01*
X121176493Y-113739524D01*
X120980257Y-113892261D01*
X120811833Y-114075217D01*
X120675826Y-114283393D01*
X120575936Y-114511118D01*
X120514892Y-114752175D01*
X120514890Y-114752187D01*
X120494357Y-114999994D01*
X120494357Y-115000005D01*
X106705643Y-115000005D01*
X106705643Y-114999994D01*
X106685109Y-114752187D01*
X106685107Y-114752175D01*
X106624063Y-114511118D01*
X106524173Y-114283393D01*
X106388166Y-114075217D01*
X106366557Y-114051744D01*
X106219744Y-113892262D01*
X106023509Y-113739526D01*
X106023507Y-113739525D01*
X106023506Y-113739524D01*
X105804811Y-113621172D01*
X105804802Y-113621169D01*
X105569616Y-113540429D01*
X105324335Y-113499500D01*
X105075665Y-113499500D01*
X104830383Y-113540429D01*
X104595197Y-113621169D01*
X104595188Y-113621172D01*
X104376493Y-113739524D01*
X104180257Y-113892261D01*
X104011833Y-114075217D01*
X103875826Y-114283393D01*
X103775936Y-114511118D01*
X103714892Y-114752175D01*
X103714890Y-114752187D01*
X103694357Y-114999994D01*
X103694357Y-115000005D01*
X89604354Y-115000005D01*
X89724173Y-114816607D01*
X89824063Y-114588881D01*
X89885108Y-114347821D01*
X89899494Y-114174211D01*
X89905643Y-114100005D01*
X89905643Y-114099994D01*
X89885109Y-113852187D01*
X89885107Y-113852175D01*
X89824063Y-113611118D01*
X89724173Y-113383393D01*
X89588166Y-113175217D01*
X89465040Y-113041467D01*
X89419744Y-112992262D01*
X89223509Y-112839526D01*
X89223507Y-112839525D01*
X89223506Y-112839524D01*
X89004811Y-112721172D01*
X89004802Y-112721169D01*
X88769616Y-112640429D01*
X88524335Y-112599500D01*
X88275665Y-112599500D01*
X88030383Y-112640429D01*
X87795197Y-112721169D01*
X87795188Y-112721172D01*
X87576493Y-112839524D01*
X87380257Y-112992261D01*
X87211833Y-113175217D01*
X87075826Y-113383393D01*
X86975936Y-113611118D01*
X86914892Y-113852175D01*
X86914890Y-113852187D01*
X86894357Y-114099994D01*
X86894357Y-114100005D01*
X69500000Y-114100005D01*
X69500000Y-108000005D01*
X72194357Y-108000005D01*
X72214890Y-108247812D01*
X72214892Y-108247824D01*
X72275936Y-108488881D01*
X72375826Y-108716606D01*
X72511833Y-108924782D01*
X72511836Y-108924785D01*
X72680256Y-109107738D01*
X72876491Y-109260474D01*
X73095190Y-109378828D01*
X73330386Y-109459571D01*
X73575665Y-109500500D01*
X73824335Y-109500500D01*
X74069614Y-109459571D01*
X74304810Y-109378828D01*
X74523509Y-109260474D01*
X74719744Y-109107738D01*
X74888164Y-108924785D01*
X75024173Y-108716607D01*
X75124063Y-108488881D01*
X75185108Y-108247821D01*
X75185109Y-108247812D01*
X75197357Y-108100005D01*
X85194357Y-108100005D01*
X85214890Y-108347812D01*
X85214892Y-108347824D01*
X85275936Y-108588881D01*
X85375826Y-108816606D01*
X85511833Y-109024782D01*
X85511836Y-109024785D01*
X85680256Y-109207738D01*
X85876491Y-109360474D01*
X86095190Y-109478828D01*
X86330386Y-109559571D01*
X86575665Y-109600500D01*
X86824335Y-109600500D01*
X87069614Y-109559571D01*
X87304810Y-109478828D01*
X87523509Y-109360474D01*
X87719744Y-109207738D01*
X87888164Y-109024785D01*
X88024173Y-108816607D01*
X88124063Y-108588881D01*
X88185108Y-108347821D01*
X88193394Y-108247824D01*
X88205643Y-108100005D01*
X88994357Y-108100005D01*
X89014890Y-108347812D01*
X89014892Y-108347824D01*
X89075936Y-108588881D01*
X89175826Y-108816606D01*
X89311833Y-109024782D01*
X89311836Y-109024785D01*
X89480256Y-109207738D01*
X89676491Y-109360474D01*
X89895190Y-109478828D01*
X90130386Y-109559571D01*
X90375665Y-109600500D01*
X90624335Y-109600500D01*
X90869614Y-109559571D01*
X91104810Y-109478828D01*
X91323509Y-109360474D01*
X91519744Y-109207738D01*
X91688164Y-109024785D01*
X91824173Y-108816607D01*
X91924063Y-108588881D01*
X91985108Y-108347821D01*
X91993394Y-108247824D01*
X92005643Y-108100005D01*
X92005643Y-108099994D01*
X91985109Y-107852187D01*
X91985107Y-107852175D01*
X91924063Y-107611118D01*
X91824173Y-107383393D01*
X91688166Y-107175217D01*
X91618928Y-107100005D01*
X103594357Y-107100005D01*
X103614890Y-107347812D01*
X103614892Y-107347824D01*
X103675936Y-107588881D01*
X103775826Y-107816606D01*
X103911833Y-108024782D01*
X103911836Y-108024785D01*
X104080256Y-108207738D01*
X104276491Y-108360474D01*
X104495190Y-108478828D01*
X104730386Y-108559571D01*
X104975665Y-108600500D01*
X105224335Y-108600500D01*
X105469614Y-108559571D01*
X105704810Y-108478828D01*
X105923509Y-108360474D01*
X106119744Y-108207738D01*
X106288164Y-108024785D01*
X106424173Y-107816607D01*
X106524063Y-107588881D01*
X106585108Y-107347821D01*
X106590447Y-107283393D01*
X106605643Y-107100005D01*
X106605643Y-107099994D01*
X106585109Y-106852187D01*
X106585107Y-106852175D01*
X106524063Y-106611118D01*
X106424173Y-106383393D01*
X106288166Y-106175217D01*
X106266557Y-106151744D01*
X106119744Y-105992262D01*
X105923509Y-105839526D01*
X105923507Y-105839525D01*
X105923506Y-105839524D01*
X105704811Y-105721172D01*
X105704802Y-105721169D01*
X105469616Y-105640429D01*
X105224335Y-105599500D01*
X104975665Y-105599500D01*
X104730383Y-105640429D01*
X104495197Y-105721169D01*
X104495188Y-105721172D01*
X104276493Y-105839524D01*
X104080257Y-105992261D01*
X103911833Y-106175217D01*
X103775826Y-106383393D01*
X103675936Y-106611118D01*
X103614892Y-106852175D01*
X103614890Y-106852187D01*
X103594357Y-107099994D01*
X103594357Y-107100005D01*
X91618928Y-107100005D01*
X91519744Y-106992262D01*
X91323509Y-106839526D01*
X91323507Y-106839525D01*
X91323506Y-106839524D01*
X91104811Y-106721172D01*
X91104802Y-106721169D01*
X90869616Y-106640429D01*
X90624335Y-106599500D01*
X90375665Y-106599500D01*
X90130383Y-106640429D01*
X89895197Y-106721169D01*
X89895188Y-106721172D01*
X89676493Y-106839524D01*
X89480257Y-106992261D01*
X89311833Y-107175217D01*
X89175826Y-107383393D01*
X89075936Y-107611118D01*
X89014892Y-107852175D01*
X89014890Y-107852187D01*
X88994357Y-108099994D01*
X88994357Y-108100005D01*
X88205643Y-108100005D01*
X88205643Y-108099994D01*
X88185109Y-107852187D01*
X88185107Y-107852175D01*
X88124063Y-107611118D01*
X88024173Y-107383393D01*
X87888166Y-107175217D01*
X87818928Y-107100005D01*
X87719744Y-106992262D01*
X87523509Y-106839526D01*
X87523507Y-106839525D01*
X87523506Y-106839524D01*
X87304811Y-106721172D01*
X87304802Y-106721169D01*
X87069616Y-106640429D01*
X86824335Y-106599500D01*
X86575665Y-106599500D01*
X86330383Y-106640429D01*
X86095197Y-106721169D01*
X86095188Y-106721172D01*
X85876493Y-106839524D01*
X85680257Y-106992261D01*
X85511833Y-107175217D01*
X85375826Y-107383393D01*
X85275936Y-107611118D01*
X85214892Y-107852175D01*
X85214890Y-107852187D01*
X85194357Y-108099994D01*
X85194357Y-108100005D01*
X75197357Y-108100005D01*
X75205643Y-108000005D01*
X75205643Y-107999994D01*
X75185109Y-107752187D01*
X75185107Y-107752175D01*
X75124063Y-107511118D01*
X75024173Y-107283393D01*
X74888166Y-107075217D01*
X74811800Y-106992262D01*
X74719744Y-106892262D01*
X74523509Y-106739526D01*
X74523507Y-106739525D01*
X74523506Y-106739524D01*
X74304811Y-106621172D01*
X74304802Y-106621169D01*
X74069616Y-106540429D01*
X73824335Y-106499500D01*
X73575665Y-106499500D01*
X73330383Y-106540429D01*
X73095197Y-106621169D01*
X73095188Y-106621172D01*
X72876493Y-106739524D01*
X72680257Y-106892261D01*
X72511833Y-107075217D01*
X72375826Y-107283393D01*
X72275936Y-107511118D01*
X72214892Y-107752175D01*
X72214890Y-107752187D01*
X72194357Y-107999994D01*
X72194357Y-108000005D01*
X69500000Y-108000005D01*
X69500000Y-105400005D01*
X121194357Y-105400005D01*
X121214890Y-105647812D01*
X121214892Y-105647824D01*
X121275936Y-105888881D01*
X121375826Y-106116606D01*
X121511833Y-106324782D01*
X121511836Y-106324785D01*
X121680256Y-106507738D01*
X121876491Y-106660474D01*
X122095190Y-106778828D01*
X122330386Y-106859571D01*
X122575665Y-106900500D01*
X122824335Y-106900500D01*
X123069614Y-106859571D01*
X123304810Y-106778828D01*
X123523509Y-106660474D01*
X123719744Y-106507738D01*
X123888164Y-106324785D01*
X124024173Y-106116607D01*
X124124063Y-105888881D01*
X124185108Y-105647821D01*
X124205643Y-105400000D01*
X124185108Y-105152179D01*
X124124063Y-104911119D01*
X124024173Y-104683393D01*
X123907993Y-104505565D01*
X123888166Y-104475217D01*
X123781705Y-104359570D01*
X123719744Y-104292262D01*
X123523509Y-104139526D01*
X123523507Y-104139525D01*
X123523506Y-104139524D01*
X123304811Y-104021172D01*
X123304802Y-104021169D01*
X123069616Y-103940429D01*
X122824335Y-103899500D01*
X122575665Y-103899500D01*
X122330383Y-103940429D01*
X122095197Y-104021169D01*
X122095188Y-104021172D01*
X121876493Y-104139524D01*
X121680257Y-104292261D01*
X121511833Y-104475217D01*
X121375826Y-104683393D01*
X121275936Y-104911118D01*
X121214892Y-105152175D01*
X121214890Y-105152187D01*
X121194357Y-105399994D01*
X121194357Y-105400005D01*
X69500000Y-105400005D01*
X69500000Y-103700003D01*
X70394435Y-103700003D01*
X70414630Y-103879249D01*
X70414631Y-103879254D01*
X70474211Y-104049523D01*
X70530763Y-104139524D01*
X70570184Y-104202262D01*
X70697738Y-104329816D01*
X70850478Y-104425789D01*
X70991735Y-104475217D01*
X71020745Y-104485368D01*
X71020750Y-104485369D01*
X71199996Y-104505565D01*
X71200000Y-104505565D01*
X71200004Y-104505565D01*
X71379249Y-104485369D01*
X71379252Y-104485368D01*
X71379255Y-104485368D01*
X71549522Y-104425789D01*
X71702262Y-104329816D01*
X71829816Y-104202262D01*
X71925789Y-104049522D01*
X71985368Y-103879255D01*
X71985416Y-103878828D01*
X72005565Y-103700003D01*
X72005565Y-103699996D01*
X71985369Y-103520750D01*
X71985368Y-103520745D01*
X71925789Y-103350478D01*
X71925188Y-103349522D01*
X71858649Y-103243626D01*
X71829816Y-103197738D01*
X71702262Y-103070184D01*
X71638017Y-103029816D01*
X71549523Y-102974211D01*
X71379254Y-102914631D01*
X71379249Y-102914630D01*
X71249442Y-102900005D01*
X98794357Y-102900005D01*
X98814890Y-103147812D01*
X98814892Y-103147824D01*
X98875936Y-103388881D01*
X98975826Y-103616606D01*
X99111833Y-103824782D01*
X99111836Y-103824785D01*
X99280256Y-104007738D01*
X99476491Y-104160474D01*
X99695190Y-104278828D01*
X99930386Y-104359571D01*
X100175665Y-104400500D01*
X100424335Y-104400500D01*
X100669614Y-104359571D01*
X100904810Y-104278828D01*
X101123509Y-104160474D01*
X101319744Y-104007738D01*
X101488164Y-103824785D01*
X101624173Y-103616607D01*
X101724063Y-103388881D01*
X101785108Y-103147821D01*
X101786934Y-103125788D01*
X101805643Y-102900005D01*
X101805643Y-102899994D01*
X101785109Y-102652187D01*
X101785107Y-102652175D01*
X101746572Y-102500005D01*
X116494357Y-102500005D01*
X116514890Y-102747812D01*
X116514892Y-102747824D01*
X116575936Y-102988881D01*
X116675826Y-103216606D01*
X116811833Y-103424782D01*
X116811836Y-103424785D01*
X116980256Y-103607738D01*
X117176491Y-103760474D01*
X117395190Y-103878828D01*
X117630386Y-103959571D01*
X117875665Y-104000500D01*
X118124335Y-104000500D01*
X118369614Y-103959571D01*
X118604810Y-103878828D01*
X118823509Y-103760474D01*
X119019744Y-103607738D01*
X119188164Y-103424785D01*
X119324173Y-103216607D01*
X119424063Y-102988881D01*
X119446570Y-102900003D01*
X127494435Y-102900003D01*
X127514630Y-103079249D01*
X127514631Y-103079254D01*
X127574211Y-103249523D01*
X127637646Y-103350478D01*
X127670184Y-103402262D01*
X127797738Y-103529816D01*
X127950478Y-103625789D01*
X127961984Y-103629815D01*
X128120745Y-103685368D01*
X128120750Y-103685369D01*
X128299996Y-103705565D01*
X128300000Y-103705565D01*
X128300004Y-103705565D01*
X128479249Y-103685369D01*
X128479252Y-103685368D01*
X128479255Y-103685368D01*
X128649522Y-103625789D01*
X128802262Y-103529816D01*
X128929816Y-103402262D01*
X129025789Y-103249522D01*
X129085368Y-103079255D01*
X129086390Y-103070184D01*
X129105565Y-102900003D01*
X129105565Y-102899996D01*
X129085369Y-102720750D01*
X129085368Y-102720745D01*
X129025789Y-102550478D01*
X129025188Y-102549522D01*
X128962955Y-102450478D01*
X128931239Y-102400003D01*
X129294435Y-102400003D01*
X129314630Y-102579249D01*
X129314631Y-102579254D01*
X129374211Y-102749523D01*
X129424662Y-102829815D01*
X129470184Y-102902262D01*
X129597738Y-103029816D01*
X129750478Y-103125789D01*
X129818306Y-103149523D01*
X129920745Y-103185368D01*
X129920750Y-103185369D01*
X130099996Y-103205565D01*
X130100000Y-103205565D01*
X130100004Y-103205565D01*
X130279249Y-103185369D01*
X130279252Y-103185368D01*
X130279255Y-103185368D01*
X130449522Y-103125789D01*
X130602262Y-103029816D01*
X130729816Y-102902262D01*
X130794070Y-102800003D01*
X132594435Y-102800003D01*
X132614630Y-102979249D01*
X132614631Y-102979254D01*
X132674211Y-103149523D01*
X132733580Y-103244007D01*
X132770184Y-103302262D01*
X132897738Y-103429816D01*
X132988080Y-103486582D01*
X133042450Y-103520745D01*
X133050478Y-103525789D01*
X133061984Y-103529815D01*
X133220745Y-103585368D01*
X133220750Y-103585369D01*
X133399996Y-103605565D01*
X133400000Y-103605565D01*
X133400004Y-103605565D01*
X133579249Y-103585369D01*
X133579252Y-103585368D01*
X133579255Y-103585368D01*
X133749522Y-103525789D01*
X133902262Y-103429816D01*
X133912319Y-103419759D01*
X133973642Y-103386274D01*
X134043334Y-103391258D01*
X134087681Y-103419759D01*
X134197738Y-103529816D01*
X134350478Y-103625789D01*
X134361984Y-103629815D01*
X134520745Y-103685368D01*
X134520750Y-103685369D01*
X134699996Y-103705565D01*
X134700000Y-103705565D01*
X134700004Y-103705565D01*
X134879249Y-103685369D01*
X134879252Y-103685368D01*
X134879255Y-103685368D01*
X135049522Y-103625789D01*
X135202262Y-103529816D01*
X135329816Y-103402262D01*
X135425789Y-103249522D01*
X135425790Y-103249517D01*
X135426548Y-103247945D01*
X135427312Y-103247098D01*
X135429494Y-103243626D01*
X135430101Y-103244007D01*
X135473364Y-103196080D01*
X135540789Y-103177760D01*
X135604246Y-103196740D01*
X135650476Y-103225788D01*
X135650478Y-103225789D01*
X135718306Y-103249523D01*
X135820745Y-103285368D01*
X135820750Y-103285369D01*
X135999996Y-103305565D01*
X136000000Y-103305565D01*
X136000004Y-103305565D01*
X136179249Y-103285369D01*
X136179252Y-103285368D01*
X136179255Y-103285368D01*
X136349522Y-103225789D01*
X136502262Y-103129816D01*
X136629816Y-103002262D01*
X136694070Y-102900003D01*
X138994435Y-102900003D01*
X139014630Y-103079249D01*
X139014631Y-103079254D01*
X139074211Y-103249523D01*
X139137646Y-103350478D01*
X139170184Y-103402262D01*
X139297738Y-103529816D01*
X139450478Y-103625789D01*
X139461984Y-103629815D01*
X139620745Y-103685368D01*
X139620750Y-103685369D01*
X139799996Y-103705565D01*
X139800000Y-103705565D01*
X139800004Y-103705565D01*
X139979249Y-103685369D01*
X139979252Y-103685368D01*
X139979255Y-103685368D01*
X140149522Y-103625789D01*
X140302262Y-103529816D01*
X140429816Y-103402262D01*
X140525789Y-103249522D01*
X140585368Y-103079255D01*
X140586390Y-103070184D01*
X140605565Y-102900003D01*
X140605565Y-102899996D01*
X140585369Y-102720750D01*
X140585368Y-102720745D01*
X140525789Y-102550478D01*
X140525188Y-102549522D01*
X140462955Y-102450478D01*
X140429816Y-102397738D01*
X140302262Y-102270184D01*
X140273601Y-102252175D01*
X140190570Y-102200003D01*
X143594435Y-102200003D01*
X143614630Y-102379249D01*
X143614631Y-102379254D01*
X143674211Y-102549523D01*
X143737646Y-102650478D01*
X143770184Y-102702262D01*
X143897738Y-102829816D01*
X144038224Y-102918089D01*
X144084514Y-102970423D01*
X144095471Y-103009199D01*
X144114630Y-103179249D01*
X144114631Y-103179254D01*
X144174211Y-103349523D01*
X144218344Y-103419759D01*
X144270184Y-103502262D01*
X144397738Y-103629816D01*
X144550478Y-103725789D01*
X144649602Y-103760474D01*
X144720745Y-103785368D01*
X144720750Y-103785369D01*
X144899996Y-103805565D01*
X144900000Y-103805565D01*
X144900004Y-103805565D01*
X145079249Y-103785369D01*
X145079252Y-103785368D01*
X145079255Y-103785368D01*
X145249522Y-103725789D01*
X145402262Y-103629816D01*
X145529816Y-103502262D01*
X145625789Y-103349522D01*
X145685368Y-103179255D01*
X145685369Y-103179249D01*
X145705565Y-103000003D01*
X145705565Y-102999996D01*
X145685369Y-102820750D01*
X145685368Y-102820745D01*
X145643909Y-102702262D01*
X145625789Y-102650478D01*
X145607106Y-102620745D01*
X145562955Y-102550478D01*
X145529816Y-102497738D01*
X145402262Y-102370184D01*
X145402260Y-102370182D01*
X145261775Y-102281909D01*
X145215485Y-102229575D01*
X145204528Y-102190799D01*
X145204328Y-102189028D01*
X145185368Y-102020745D01*
X145125789Y-101850478D01*
X145029816Y-101697738D01*
X144902262Y-101570184D01*
X144878996Y-101555565D01*
X144749523Y-101474211D01*
X144579254Y-101414631D01*
X144579249Y-101414630D01*
X144400004Y-101394435D01*
X144399996Y-101394435D01*
X144220750Y-101414630D01*
X144220745Y-101414631D01*
X144050476Y-101474211D01*
X143897737Y-101570184D01*
X143770184Y-101697737D01*
X143674211Y-101850476D01*
X143614631Y-102020745D01*
X143614630Y-102020750D01*
X143594435Y-102199996D01*
X143594435Y-102200003D01*
X140190570Y-102200003D01*
X140149523Y-102174211D01*
X139979254Y-102114631D01*
X139979249Y-102114630D01*
X139800004Y-102094435D01*
X139799996Y-102094435D01*
X139620750Y-102114630D01*
X139620745Y-102114631D01*
X139450476Y-102174211D01*
X139297737Y-102270184D01*
X139170184Y-102397737D01*
X139074211Y-102550476D01*
X139014631Y-102720745D01*
X139014630Y-102720750D01*
X138994435Y-102899996D01*
X138994435Y-102900003D01*
X136694070Y-102900003D01*
X136725789Y-102849522D01*
X136785368Y-102679255D01*
X136788419Y-102652175D01*
X136805565Y-102500003D01*
X136805565Y-102499996D01*
X136785369Y-102320750D01*
X136785368Y-102320745D01*
X136781167Y-102308739D01*
X136725789Y-102150478D01*
X136717727Y-102137648D01*
X136662955Y-102050478D01*
X136629816Y-101997738D01*
X136502262Y-101870184D01*
X136426111Y-101822335D01*
X136349523Y-101774211D01*
X136179254Y-101714631D01*
X136179249Y-101714630D01*
X136000004Y-101694435D01*
X135999996Y-101694435D01*
X135820750Y-101714630D01*
X135820745Y-101714631D01*
X135650476Y-101774211D01*
X135497737Y-101870184D01*
X135370184Y-101997737D01*
X135274210Y-102150478D01*
X135273446Y-102152066D01*
X135272679Y-102152915D01*
X135270506Y-102156374D01*
X135269900Y-102155993D01*
X135226624Y-102203927D01*
X135159197Y-102222240D01*
X135095752Y-102203259D01*
X135049524Y-102174211D01*
X134879254Y-102114631D01*
X134879249Y-102114630D01*
X134700004Y-102094435D01*
X134699996Y-102094435D01*
X134520750Y-102114630D01*
X134520745Y-102114631D01*
X134350476Y-102174211D01*
X134197734Y-102270186D01*
X134197732Y-102270187D01*
X134187677Y-102280243D01*
X134126353Y-102313726D01*
X134056662Y-102308739D01*
X134012318Y-102280240D01*
X133902262Y-102170184D01*
X133749523Y-102074211D01*
X133579254Y-102014631D01*
X133579249Y-102014630D01*
X133400004Y-101994435D01*
X133399996Y-101994435D01*
X133220750Y-102014630D01*
X133220745Y-102014631D01*
X133050476Y-102074211D01*
X132897737Y-102170184D01*
X132770184Y-102297737D01*
X132674211Y-102450476D01*
X132614631Y-102620745D01*
X132614630Y-102620750D01*
X132594435Y-102799996D01*
X132594435Y-102800003D01*
X130794070Y-102800003D01*
X130825789Y-102749522D01*
X130885368Y-102579255D01*
X130885369Y-102579249D01*
X130905565Y-102400003D01*
X130905565Y-102399996D01*
X130889549Y-102257849D01*
X130901603Y-102189028D01*
X130948953Y-102137648D01*
X131016563Y-102120024D01*
X131053724Y-102126925D01*
X131220737Y-102185366D01*
X131220743Y-102185367D01*
X131220745Y-102185368D01*
X131220746Y-102185368D01*
X131220750Y-102185369D01*
X131399996Y-102205565D01*
X131400000Y-102205565D01*
X131400004Y-102205565D01*
X131579249Y-102185369D01*
X131579252Y-102185368D01*
X131579255Y-102185368D01*
X131749522Y-102125789D01*
X131902262Y-102029816D01*
X132029816Y-101902262D01*
X132125789Y-101749522D01*
X132185368Y-101579255D01*
X132185823Y-101575217D01*
X132205565Y-101400003D01*
X132205565Y-101399996D01*
X132185369Y-101220750D01*
X132185368Y-101220745D01*
X132150525Y-101121169D01*
X132125789Y-101050478D01*
X132029816Y-100897738D01*
X131902262Y-100770184D01*
X131870144Y-100750003D01*
X132844435Y-100750003D01*
X132864630Y-100929249D01*
X132864631Y-100929254D01*
X132924211Y-101099523D01*
X133000384Y-101220750D01*
X133020184Y-101252262D01*
X133147738Y-101379816D01*
X133238080Y-101436582D01*
X133297966Y-101474211D01*
X133300478Y-101475789D01*
X133430167Y-101521169D01*
X133470745Y-101535368D01*
X133470750Y-101535369D01*
X133649996Y-101555565D01*
X133650000Y-101555565D01*
X133650004Y-101555565D01*
X133829249Y-101535369D01*
X133829252Y-101535368D01*
X133829255Y-101535368D01*
X133999522Y-101475789D01*
X134152262Y-101379816D01*
X134279816Y-101252262D01*
X134375789Y-101099522D01*
X134435368Y-100929255D01*
X134441050Y-100878830D01*
X134447519Y-100821413D01*
X134474585Y-100756999D01*
X134532180Y-100717444D01*
X134602017Y-100715306D01*
X134646898Y-100737441D01*
X134676491Y-100760474D01*
X134895190Y-100878828D01*
X135130386Y-100959571D01*
X135375665Y-101000500D01*
X135624335Y-101000500D01*
X135869614Y-100959571D01*
X136104810Y-100878828D01*
X136323509Y-100760474D01*
X136519744Y-100607738D01*
X136688164Y-100424785D01*
X136824173Y-100216607D01*
X136924063Y-99988881D01*
X136985108Y-99747821D01*
X137005643Y-99500000D01*
X136985108Y-99252179D01*
X136924063Y-99011119D01*
X136824173Y-98783393D01*
X136688166Y-98575217D01*
X136581705Y-98459570D01*
X136519744Y-98392262D01*
X136323509Y-98239526D01*
X136323507Y-98239525D01*
X136323506Y-98239524D01*
X136104811Y-98121172D01*
X136104802Y-98121169D01*
X135869616Y-98040429D01*
X135624335Y-97999500D01*
X135375665Y-97999500D01*
X135130383Y-98040429D01*
X134895197Y-98121169D01*
X134895188Y-98121172D01*
X134676493Y-98239524D01*
X134480257Y-98392261D01*
X134311833Y-98575217D01*
X134175826Y-98783393D01*
X134075936Y-99011118D01*
X134014892Y-99252175D01*
X134014890Y-99252187D01*
X133994357Y-99499994D01*
X133994357Y-99500005D01*
X134014890Y-99747812D01*
X134014892Y-99747821D01*
X134036535Y-99833286D01*
X134033910Y-99903107D01*
X133993954Y-99960424D01*
X133929353Y-99987041D01*
X133875376Y-99980769D01*
X133829260Y-99964633D01*
X133829249Y-99964630D01*
X133650004Y-99944435D01*
X133649996Y-99944435D01*
X133470750Y-99964630D01*
X133470745Y-99964631D01*
X133300476Y-100024211D01*
X133147737Y-100120184D01*
X133020184Y-100247737D01*
X132924211Y-100400476D01*
X132864631Y-100570745D01*
X132864630Y-100570750D01*
X132844435Y-100749996D01*
X132844435Y-100750003D01*
X131870144Y-100750003D01*
X131749523Y-100674211D01*
X131579254Y-100614631D01*
X131579249Y-100614630D01*
X131400004Y-100594435D01*
X131399996Y-100594435D01*
X131220750Y-100614630D01*
X131220745Y-100614631D01*
X131050476Y-100674211D01*
X130897737Y-100770184D01*
X130887681Y-100780241D01*
X130826358Y-100813726D01*
X130756666Y-100808742D01*
X130712319Y-100780241D01*
X130702262Y-100770184D01*
X130549523Y-100674211D01*
X130379254Y-100614631D01*
X130379249Y-100614630D01*
X130200004Y-100594435D01*
X130199996Y-100594435D01*
X130020750Y-100614630D01*
X130020745Y-100614631D01*
X129850476Y-100674211D01*
X129706350Y-100764772D01*
X129668131Y-100775571D01*
X129656232Y-100809405D01*
X129643268Y-100824654D01*
X129570183Y-100897739D01*
X129474211Y-101050476D01*
X129414631Y-101220745D01*
X129414630Y-101220750D01*
X129394435Y-101399996D01*
X129394435Y-101400003D01*
X129414630Y-101579249D01*
X129414631Y-101579254D01*
X129474211Y-101749523D01*
X129477715Y-101755099D01*
X129496715Y-101822335D01*
X129476347Y-101889171D01*
X129470491Y-101897249D01*
X129374211Y-102050476D01*
X129314631Y-102220745D01*
X129314630Y-102220750D01*
X129294435Y-102399996D01*
X129294435Y-102400003D01*
X128931239Y-102400003D01*
X128929816Y-102397738D01*
X128802262Y-102270184D01*
X128773601Y-102252175D01*
X128649523Y-102174211D01*
X128479254Y-102114631D01*
X128479249Y-102114630D01*
X128300004Y-102094435D01*
X128299996Y-102094435D01*
X128120750Y-102114630D01*
X128120745Y-102114631D01*
X127950476Y-102174211D01*
X127797737Y-102270184D01*
X127670184Y-102397737D01*
X127574211Y-102550476D01*
X127514631Y-102720745D01*
X127514630Y-102720750D01*
X127494435Y-102899996D01*
X127494435Y-102900003D01*
X119446570Y-102900003D01*
X119485108Y-102747821D01*
X119490790Y-102679249D01*
X119505643Y-102500005D01*
X119505643Y-102499994D01*
X119485109Y-102252187D01*
X119485107Y-102252175D01*
X119424063Y-102011118D01*
X119324173Y-101783393D01*
X119188166Y-101575217D01*
X119138411Y-101521169D01*
X119019744Y-101392262D01*
X118823509Y-101239526D01*
X118823507Y-101239525D01*
X118823506Y-101239524D01*
X118604811Y-101121172D01*
X118604802Y-101121169D01*
X118369616Y-101040429D01*
X118124335Y-100999500D01*
X117875665Y-100999500D01*
X117630383Y-101040429D01*
X117395197Y-101121169D01*
X117395188Y-101121172D01*
X117176493Y-101239524D01*
X116980257Y-101392261D01*
X116811833Y-101575217D01*
X116675826Y-101783393D01*
X116575936Y-102011118D01*
X116514892Y-102252175D01*
X116514890Y-102252187D01*
X116494357Y-102499994D01*
X116494357Y-102500005D01*
X101746572Y-102500005D01*
X101724063Y-102411118D01*
X101624173Y-102183393D01*
X101488166Y-101975217D01*
X101466557Y-101951744D01*
X101319744Y-101792262D01*
X101123509Y-101639526D01*
X101123507Y-101639525D01*
X101123506Y-101639524D01*
X100904811Y-101521172D01*
X100904802Y-101521169D01*
X100669616Y-101440429D01*
X100424335Y-101399500D01*
X100175665Y-101399500D01*
X99930383Y-101440429D01*
X99695197Y-101521169D01*
X99695188Y-101521172D01*
X99476493Y-101639524D01*
X99280257Y-101792261D01*
X99111833Y-101975217D01*
X98975826Y-102183393D01*
X98875936Y-102411118D01*
X98814892Y-102652175D01*
X98814890Y-102652187D01*
X98794357Y-102899994D01*
X98794357Y-102900005D01*
X71249442Y-102900005D01*
X71200004Y-102894435D01*
X71199996Y-102894435D01*
X71020750Y-102914630D01*
X71020745Y-102914631D01*
X70850476Y-102974211D01*
X70697737Y-103070184D01*
X70570184Y-103197737D01*
X70474211Y-103350476D01*
X70414631Y-103520745D01*
X70414630Y-103520750D01*
X70394435Y-103699996D01*
X70394435Y-103700003D01*
X69500000Y-103700003D01*
X69500000Y-99500005D01*
X70744357Y-99500005D01*
X70764890Y-99747812D01*
X70764892Y-99747824D01*
X70825936Y-99988881D01*
X70925826Y-100216606D01*
X71061833Y-100424782D01*
X71061836Y-100424785D01*
X71230256Y-100607738D01*
X71426491Y-100760474D01*
X71645190Y-100878828D01*
X71880386Y-100959571D01*
X72125665Y-101000500D01*
X72374335Y-101000500D01*
X72619614Y-100959571D01*
X72854810Y-100878828D01*
X73073509Y-100760474D01*
X73269744Y-100607738D01*
X73438164Y-100424785D01*
X73574173Y-100216607D01*
X73674063Y-99988881D01*
X73735108Y-99747821D01*
X73755643Y-99500005D01*
X77744357Y-99500005D01*
X77764890Y-99747812D01*
X77764892Y-99747824D01*
X77825936Y-99988881D01*
X77925826Y-100216606D01*
X78061833Y-100424782D01*
X78061836Y-100424785D01*
X78230256Y-100607738D01*
X78426491Y-100760474D01*
X78645190Y-100878828D01*
X78880386Y-100959571D01*
X79125665Y-101000500D01*
X79374335Y-101000500D01*
X79619614Y-100959571D01*
X79854810Y-100878828D01*
X80073509Y-100760474D01*
X80269744Y-100607738D01*
X80438164Y-100424785D01*
X80574173Y-100216607D01*
X80674063Y-99988881D01*
X80735108Y-99747821D01*
X80755643Y-99500005D01*
X84744357Y-99500005D01*
X84764890Y-99747812D01*
X84764892Y-99747824D01*
X84825936Y-99988881D01*
X84925826Y-100216606D01*
X85061833Y-100424782D01*
X85061836Y-100424785D01*
X85230256Y-100607738D01*
X85426491Y-100760474D01*
X85645190Y-100878828D01*
X85880386Y-100959571D01*
X86125665Y-101000500D01*
X86374335Y-101000500D01*
X86619614Y-100959571D01*
X86854810Y-100878828D01*
X87073509Y-100760474D01*
X87269744Y-100607738D01*
X87438164Y-100424785D01*
X87574173Y-100216607D01*
X87674063Y-99988881D01*
X87735108Y-99747821D01*
X87755643Y-99500005D01*
X95494357Y-99500005D01*
X95514890Y-99747812D01*
X95514892Y-99747824D01*
X95575936Y-99988881D01*
X95675826Y-100216606D01*
X95811833Y-100424782D01*
X95811836Y-100424785D01*
X95980256Y-100607738D01*
X96176491Y-100760474D01*
X96395190Y-100878828D01*
X96630386Y-100959571D01*
X96875665Y-101000500D01*
X97124335Y-101000500D01*
X97369614Y-100959571D01*
X97604810Y-100878828D01*
X97823509Y-100760474D01*
X98019744Y-100607738D01*
X98188164Y-100424785D01*
X98324173Y-100216607D01*
X98424063Y-99988881D01*
X98485108Y-99747821D01*
X98505643Y-99500005D01*
X102494357Y-99500005D01*
X102514890Y-99747812D01*
X102514892Y-99747824D01*
X102575936Y-99988881D01*
X102675826Y-100216606D01*
X102811833Y-100424782D01*
X102811836Y-100424785D01*
X102980256Y-100607738D01*
X103176491Y-100760474D01*
X103395190Y-100878828D01*
X103630386Y-100959571D01*
X103875665Y-101000500D01*
X104124335Y-101000500D01*
X104369614Y-100959571D01*
X104604810Y-100878828D01*
X104823509Y-100760474D01*
X105019744Y-100607738D01*
X105188164Y-100424785D01*
X105324173Y-100216607D01*
X105424063Y-99988881D01*
X105485108Y-99747821D01*
X105505643Y-99500005D01*
X109494357Y-99500005D01*
X109514890Y-99747812D01*
X109514892Y-99747824D01*
X109575936Y-99988881D01*
X109675826Y-100216606D01*
X109811833Y-100424782D01*
X109811836Y-100424785D01*
X109980256Y-100607738D01*
X110176491Y-100760474D01*
X110395190Y-100878828D01*
X110630386Y-100959571D01*
X110875665Y-101000500D01*
X111124335Y-101000500D01*
X111369614Y-100959571D01*
X111604810Y-100878828D01*
X111823509Y-100760474D01*
X112019744Y-100607738D01*
X112188164Y-100424785D01*
X112324173Y-100216607D01*
X112424063Y-99988881D01*
X112485108Y-99747821D01*
X112505643Y-99500005D01*
X119994357Y-99500005D01*
X120014890Y-99747812D01*
X120014892Y-99747824D01*
X120075936Y-99988881D01*
X120175826Y-100216606D01*
X120311833Y-100424782D01*
X120311836Y-100424785D01*
X120480256Y-100607738D01*
X120676491Y-100760474D01*
X120895190Y-100878828D01*
X121130386Y-100959571D01*
X121375665Y-101000500D01*
X121624335Y-101000500D01*
X121869614Y-100959571D01*
X122104810Y-100878828D01*
X122323509Y-100760474D01*
X122519744Y-100607738D01*
X122688164Y-100424785D01*
X122824173Y-100216607D01*
X122924063Y-99988881D01*
X122985108Y-99747821D01*
X123005643Y-99500005D01*
X126994357Y-99500005D01*
X127014890Y-99747812D01*
X127014892Y-99747824D01*
X127075936Y-99988881D01*
X127175826Y-100216606D01*
X127311833Y-100424782D01*
X127311836Y-100424785D01*
X127480256Y-100607738D01*
X127676491Y-100760474D01*
X127895190Y-100878828D01*
X128130386Y-100959571D01*
X128375665Y-101000500D01*
X128624335Y-101000500D01*
X128869614Y-100959571D01*
X129104810Y-100878828D01*
X129323509Y-100760474D01*
X129479425Y-100639118D01*
X129527561Y-100620127D01*
X129547498Y-100577623D01*
X129549118Y-100575828D01*
X129688164Y-100424785D01*
X129824173Y-100216607D01*
X129924063Y-99988881D01*
X129985108Y-99747821D01*
X130005643Y-99500000D01*
X129985108Y-99252179D01*
X129924063Y-99011119D01*
X129824173Y-98783393D01*
X129688166Y-98575217D01*
X129581705Y-98459570D01*
X129519744Y-98392262D01*
X129323509Y-98239526D01*
X129323507Y-98239525D01*
X129323506Y-98239524D01*
X129104811Y-98121172D01*
X129104802Y-98121169D01*
X128869616Y-98040429D01*
X128624335Y-97999500D01*
X128375665Y-97999500D01*
X128130383Y-98040429D01*
X127895197Y-98121169D01*
X127895188Y-98121172D01*
X127676493Y-98239524D01*
X127480257Y-98392261D01*
X127311833Y-98575217D01*
X127175826Y-98783393D01*
X127075936Y-99011118D01*
X127014892Y-99252175D01*
X127014890Y-99252187D01*
X126994357Y-99499994D01*
X126994357Y-99500005D01*
X123005643Y-99500005D01*
X123005643Y-99500000D01*
X122985108Y-99252179D01*
X122924063Y-99011119D01*
X122824173Y-98783393D01*
X122688166Y-98575217D01*
X122581705Y-98459570D01*
X122519744Y-98392262D01*
X122323509Y-98239526D01*
X122323507Y-98239525D01*
X122323506Y-98239524D01*
X122104811Y-98121172D01*
X122104802Y-98121169D01*
X121869616Y-98040429D01*
X121624335Y-97999500D01*
X121375665Y-97999500D01*
X121130383Y-98040429D01*
X120895197Y-98121169D01*
X120895188Y-98121172D01*
X120676493Y-98239524D01*
X120480257Y-98392261D01*
X120311833Y-98575217D01*
X120175826Y-98783393D01*
X120075936Y-99011118D01*
X120014892Y-99252175D01*
X120014890Y-99252187D01*
X119994357Y-99499994D01*
X119994357Y-99500005D01*
X112505643Y-99500005D01*
X112505643Y-99500000D01*
X112485108Y-99252179D01*
X112424063Y-99011119D01*
X112324173Y-98783393D01*
X112188166Y-98575217D01*
X112081705Y-98459570D01*
X112019744Y-98392262D01*
X111823509Y-98239526D01*
X111823507Y-98239525D01*
X111823506Y-98239524D01*
X111604811Y-98121172D01*
X111604802Y-98121169D01*
X111369616Y-98040429D01*
X111124335Y-97999500D01*
X110875665Y-97999500D01*
X110630383Y-98040429D01*
X110395197Y-98121169D01*
X110395188Y-98121172D01*
X110176493Y-98239524D01*
X109980257Y-98392261D01*
X109811833Y-98575217D01*
X109675826Y-98783393D01*
X109575936Y-99011118D01*
X109514892Y-99252175D01*
X109514890Y-99252187D01*
X109494357Y-99499994D01*
X109494357Y-99500005D01*
X105505643Y-99500005D01*
X105505643Y-99500000D01*
X105485108Y-99252179D01*
X105424063Y-99011119D01*
X105324173Y-98783393D01*
X105188166Y-98575217D01*
X105081705Y-98459570D01*
X105019744Y-98392262D01*
X104823509Y-98239526D01*
X104823507Y-98239525D01*
X104823506Y-98239524D01*
X104604811Y-98121172D01*
X104604802Y-98121169D01*
X104369616Y-98040429D01*
X104124335Y-97999500D01*
X103875665Y-97999500D01*
X103630383Y-98040429D01*
X103395197Y-98121169D01*
X103395188Y-98121172D01*
X103176493Y-98239524D01*
X102980257Y-98392261D01*
X102811833Y-98575217D01*
X102675826Y-98783393D01*
X102575936Y-99011118D01*
X102514892Y-99252175D01*
X102514890Y-99252187D01*
X102494357Y-99499994D01*
X102494357Y-99500005D01*
X98505643Y-99500005D01*
X98505643Y-99500000D01*
X98485108Y-99252179D01*
X98424063Y-99011119D01*
X98324173Y-98783393D01*
X98188166Y-98575217D01*
X98081705Y-98459570D01*
X98019744Y-98392262D01*
X97823509Y-98239526D01*
X97823507Y-98239525D01*
X97823506Y-98239524D01*
X97604811Y-98121172D01*
X97604802Y-98121169D01*
X97369616Y-98040429D01*
X97124335Y-97999500D01*
X96875665Y-97999500D01*
X96630383Y-98040429D01*
X96395197Y-98121169D01*
X96395188Y-98121172D01*
X96176493Y-98239524D01*
X95980257Y-98392261D01*
X95811833Y-98575217D01*
X95675826Y-98783393D01*
X95575936Y-99011118D01*
X95514892Y-99252175D01*
X95514890Y-99252187D01*
X95494357Y-99499994D01*
X95494357Y-99500005D01*
X87755643Y-99500005D01*
X87755643Y-99500000D01*
X87735108Y-99252179D01*
X87674063Y-99011119D01*
X87574173Y-98783393D01*
X87438166Y-98575217D01*
X87331705Y-98459570D01*
X87269744Y-98392262D01*
X87073509Y-98239526D01*
X87073507Y-98239525D01*
X87073506Y-98239524D01*
X86854811Y-98121172D01*
X86854802Y-98121169D01*
X86619616Y-98040429D01*
X86374335Y-97999500D01*
X86125665Y-97999500D01*
X85880383Y-98040429D01*
X85645197Y-98121169D01*
X85645188Y-98121172D01*
X85426493Y-98239524D01*
X85230257Y-98392261D01*
X85061833Y-98575217D01*
X84925826Y-98783393D01*
X84825936Y-99011118D01*
X84764892Y-99252175D01*
X84764890Y-99252187D01*
X84744357Y-99499994D01*
X84744357Y-99500005D01*
X80755643Y-99500005D01*
X80755643Y-99500000D01*
X80735108Y-99252179D01*
X80674063Y-99011119D01*
X80574173Y-98783393D01*
X80438166Y-98575217D01*
X80331705Y-98459570D01*
X80269744Y-98392262D01*
X80073509Y-98239526D01*
X80073507Y-98239525D01*
X80073506Y-98239524D01*
X79854811Y-98121172D01*
X79854802Y-98121169D01*
X79619616Y-98040429D01*
X79374335Y-97999500D01*
X79125665Y-97999500D01*
X78880383Y-98040429D01*
X78645197Y-98121169D01*
X78645188Y-98121172D01*
X78426493Y-98239524D01*
X78230257Y-98392261D01*
X78061833Y-98575217D01*
X77925826Y-98783393D01*
X77825936Y-99011118D01*
X77764892Y-99252175D01*
X77764890Y-99252187D01*
X77744357Y-99499994D01*
X77744357Y-99500005D01*
X73755643Y-99500005D01*
X73755643Y-99500000D01*
X73735108Y-99252179D01*
X73674063Y-99011119D01*
X73574173Y-98783393D01*
X73438166Y-98575217D01*
X73331705Y-98459570D01*
X73269744Y-98392262D01*
X73073509Y-98239526D01*
X73073507Y-98239525D01*
X73073506Y-98239524D01*
X72854811Y-98121172D01*
X72854802Y-98121169D01*
X72619616Y-98040429D01*
X72374335Y-97999500D01*
X72125665Y-97999500D01*
X71880383Y-98040429D01*
X71645197Y-98121169D01*
X71645188Y-98121172D01*
X71426493Y-98239524D01*
X71230257Y-98392261D01*
X71061833Y-98575217D01*
X70925826Y-98783393D01*
X70825936Y-99011118D01*
X70764892Y-99252175D01*
X70764890Y-99252187D01*
X70744357Y-99499994D01*
X70744357Y-99500005D01*
X69500000Y-99500005D01*
X69500000Y-97000005D01*
X86994357Y-97000005D01*
X87014890Y-97247812D01*
X87014892Y-97247824D01*
X87075936Y-97488881D01*
X87175826Y-97716606D01*
X87311833Y-97924782D01*
X87311836Y-97924785D01*
X87480256Y-98107738D01*
X87676491Y-98260474D01*
X87895190Y-98378828D01*
X88130386Y-98459571D01*
X88375665Y-98500500D01*
X88624335Y-98500500D01*
X88869614Y-98459571D01*
X89104810Y-98378828D01*
X89323509Y-98260474D01*
X89519744Y-98107738D01*
X89688164Y-97924785D01*
X89824173Y-97716607D01*
X89924063Y-97488881D01*
X89985108Y-97247821D01*
X90005643Y-97000000D01*
X89991541Y-96829816D01*
X89985109Y-96752187D01*
X89985107Y-96752175D01*
X89924063Y-96511118D01*
X89865995Y-96378739D01*
X89824173Y-96283393D01*
X89769692Y-96200003D01*
X117794435Y-96200003D01*
X117814630Y-96379249D01*
X117814631Y-96379254D01*
X117874211Y-96549523D01*
X117917265Y-96618042D01*
X117970184Y-96702262D01*
X118097738Y-96829816D01*
X118250478Y-96925789D01*
X118420745Y-96985368D01*
X118420750Y-96985369D01*
X118599996Y-97005565D01*
X118600000Y-97005565D01*
X118600004Y-97005565D01*
X118779249Y-96985369D01*
X118779252Y-96985368D01*
X118779255Y-96985368D01*
X118949522Y-96925789D01*
X119102262Y-96829816D01*
X119229816Y-96702262D01*
X119325789Y-96549522D01*
X119385368Y-96379255D01*
X119395670Y-96287820D01*
X119405565Y-96200003D01*
X119405565Y-96199996D01*
X119385369Y-96020750D01*
X119385368Y-96020745D01*
X119340410Y-95892262D01*
X119325789Y-95850478D01*
X119324476Y-95848389D01*
X119229815Y-95697737D01*
X119102262Y-95570184D01*
X118949523Y-95474211D01*
X118779254Y-95414631D01*
X118779249Y-95414630D01*
X118600004Y-95394435D01*
X118599996Y-95394435D01*
X118420750Y-95414630D01*
X118420745Y-95414631D01*
X118250476Y-95474211D01*
X118097737Y-95570184D01*
X117970184Y-95697737D01*
X117874211Y-95850476D01*
X117814631Y-96020745D01*
X117814630Y-96020750D01*
X117794435Y-96199996D01*
X117794435Y-96200003D01*
X89769692Y-96200003D01*
X89764672Y-96192320D01*
X89744486Y-96125432D01*
X89763666Y-96058246D01*
X89816124Y-96012096D01*
X89868482Y-96000500D01*
X89874335Y-96000500D01*
X90119614Y-95959571D01*
X90354810Y-95878828D01*
X90573509Y-95760474D01*
X90769744Y-95607738D01*
X90938164Y-95424785D01*
X91074173Y-95216607D01*
X91174063Y-94988881D01*
X91235108Y-94747821D01*
X91250000Y-94568100D01*
X91255643Y-94500005D01*
X98994357Y-94500005D01*
X99014890Y-94747812D01*
X99014892Y-94747824D01*
X99075936Y-94988881D01*
X99175826Y-95216606D01*
X99311833Y-95424782D01*
X99311836Y-95424785D01*
X99480256Y-95607738D01*
X99676491Y-95760474D01*
X99676493Y-95760475D01*
X99838945Y-95848390D01*
X99895190Y-95878828D01*
X100130386Y-95959571D01*
X100375665Y-96000500D01*
X100624335Y-96000500D01*
X100869614Y-95959571D01*
X101104810Y-95878828D01*
X101323509Y-95760474D01*
X101519744Y-95607738D01*
X101688164Y-95424785D01*
X101824173Y-95216607D01*
X101924063Y-94988881D01*
X101985108Y-94747821D01*
X102000000Y-94568100D01*
X102005643Y-94500005D01*
X102994357Y-94500005D01*
X103014890Y-94747812D01*
X103014892Y-94747824D01*
X103075936Y-94988881D01*
X103175826Y-95216606D01*
X103311833Y-95424782D01*
X103311836Y-95424785D01*
X103480256Y-95607738D01*
X103676491Y-95760474D01*
X103676493Y-95760475D01*
X103838945Y-95848390D01*
X103895190Y-95878828D01*
X104130386Y-95959571D01*
X104375665Y-96000500D01*
X104624335Y-96000500D01*
X104869614Y-95959571D01*
X105104810Y-95878828D01*
X105323509Y-95760474D01*
X105519744Y-95607738D01*
X105688164Y-95424785D01*
X105824173Y-95216607D01*
X105886444Y-95074644D01*
X105931400Y-95021158D01*
X105998136Y-95000468D01*
X106065464Y-95019143D01*
X106112007Y-95071253D01*
X106113556Y-95074644D01*
X106175826Y-95216606D01*
X106311833Y-95424782D01*
X106311836Y-95424785D01*
X106480256Y-95607738D01*
X106676491Y-95760474D01*
X106676493Y-95760475D01*
X106838945Y-95848390D01*
X106895190Y-95878828D01*
X107130386Y-95959571D01*
X107375665Y-96000500D01*
X107624335Y-96000500D01*
X107869614Y-95959571D01*
X108104810Y-95878828D01*
X108323509Y-95760474D01*
X108519744Y-95607738D01*
X108688164Y-95424785D01*
X108824173Y-95216607D01*
X108924063Y-94988881D01*
X108985108Y-94747821D01*
X109000000Y-94568100D01*
X109005643Y-94500005D01*
X112994357Y-94500005D01*
X113014890Y-94747812D01*
X113014892Y-94747824D01*
X113075936Y-94988881D01*
X113175826Y-95216606D01*
X113311833Y-95424782D01*
X113311836Y-95424785D01*
X113480256Y-95607738D01*
X113676491Y-95760474D01*
X113676493Y-95760475D01*
X113838945Y-95848390D01*
X113895190Y-95878828D01*
X114130386Y-95959571D01*
X114375665Y-96000500D01*
X114624335Y-96000500D01*
X114869614Y-95959571D01*
X115104810Y-95878828D01*
X115323509Y-95760474D01*
X115519744Y-95607738D01*
X115688164Y-95424785D01*
X115824173Y-95216607D01*
X115924063Y-94988881D01*
X115985108Y-94747821D01*
X116000000Y-94568100D01*
X116005643Y-94500005D01*
X123494357Y-94500005D01*
X123514890Y-94747812D01*
X123514892Y-94747824D01*
X123575936Y-94988881D01*
X123675826Y-95216606D01*
X123811833Y-95424782D01*
X123811836Y-95424785D01*
X123980256Y-95607738D01*
X124176491Y-95760474D01*
X124176493Y-95760475D01*
X124338945Y-95848390D01*
X124395190Y-95878828D01*
X124630386Y-95959571D01*
X124875665Y-96000500D01*
X125124335Y-96000500D01*
X125369614Y-95959571D01*
X125604810Y-95878828D01*
X125823509Y-95760474D01*
X126019744Y-95607738D01*
X126188164Y-95424785D01*
X126324173Y-95216607D01*
X126424063Y-94988881D01*
X126485108Y-94747821D01*
X126500000Y-94568100D01*
X126505643Y-94500005D01*
X130494357Y-94500005D01*
X130514890Y-94747812D01*
X130514892Y-94747824D01*
X130575936Y-94988881D01*
X130675826Y-95216606D01*
X130811833Y-95424782D01*
X130811836Y-95424785D01*
X130980256Y-95607738D01*
X131176491Y-95760474D01*
X131176493Y-95760475D01*
X131338945Y-95848390D01*
X131395190Y-95878828D01*
X131630386Y-95959571D01*
X131875665Y-96000500D01*
X132124335Y-96000500D01*
X132369614Y-95959571D01*
X132604810Y-95878828D01*
X132823509Y-95760474D01*
X133019744Y-95607738D01*
X133188164Y-95424785D01*
X133324173Y-95216607D01*
X133424063Y-94988881D01*
X133485108Y-94747821D01*
X133500000Y-94568100D01*
X133505643Y-94500005D01*
X137494357Y-94500005D01*
X137514890Y-94747812D01*
X137514892Y-94747824D01*
X137575936Y-94988881D01*
X137675826Y-95216606D01*
X137811833Y-95424782D01*
X137811836Y-95424785D01*
X137980256Y-95607738D01*
X138176491Y-95760474D01*
X138176493Y-95760475D01*
X138338945Y-95848390D01*
X138395190Y-95878828D01*
X138630386Y-95959571D01*
X138875665Y-96000500D01*
X139124335Y-96000500D01*
X139369614Y-95959571D01*
X139604810Y-95878828D01*
X139823509Y-95760474D01*
X140019744Y-95607738D01*
X140188164Y-95424785D01*
X140324173Y-95216607D01*
X140389462Y-95067763D01*
X143645787Y-95067763D01*
X143675413Y-95337013D01*
X143675415Y-95337024D01*
X143743926Y-95599082D01*
X143743928Y-95599088D01*
X143849870Y-95848390D01*
X143917723Y-95959571D01*
X143990979Y-96079605D01*
X143990986Y-96079615D01*
X144164253Y-96287819D01*
X144164259Y-96287824D01*
X144365998Y-96468582D01*
X144591910Y-96618044D01*
X144837176Y-96733020D01*
X144837183Y-96733022D01*
X144837185Y-96733023D01*
X145096557Y-96811057D01*
X145096564Y-96811058D01*
X145096569Y-96811060D01*
X145364561Y-96850500D01*
X145364566Y-96850500D01*
X145567636Y-96850500D01*
X145619133Y-96846730D01*
X145770156Y-96835677D01*
X145882758Y-96810593D01*
X146034546Y-96776782D01*
X146034548Y-96776781D01*
X146034553Y-96776780D01*
X146287558Y-96680014D01*
X146523777Y-96547441D01*
X146738177Y-96381888D01*
X146926186Y-96186881D01*
X147083799Y-95966579D01*
X147157787Y-95822669D01*
X147207649Y-95725690D01*
X147207651Y-95725684D01*
X147207656Y-95725675D01*
X147295118Y-95469305D01*
X147344319Y-95202933D01*
X147354212Y-94932235D01*
X147324586Y-94662982D01*
X147256072Y-94400912D01*
X147150130Y-94151610D01*
X147009018Y-93920390D01*
X146919747Y-93813119D01*
X146835746Y-93712180D01*
X146835740Y-93712175D01*
X146634002Y-93531418D01*
X146408092Y-93381957D01*
X146408090Y-93381956D01*
X146162824Y-93266980D01*
X146162819Y-93266978D01*
X146162814Y-93266976D01*
X145903442Y-93188942D01*
X145903428Y-93188939D01*
X145787791Y-93171921D01*
X145635439Y-93149500D01*
X145432369Y-93149500D01*
X145432364Y-93149500D01*
X145229844Y-93164323D01*
X145229831Y-93164325D01*
X144965453Y-93223217D01*
X144965446Y-93223220D01*
X144712439Y-93319987D01*
X144476226Y-93452557D01*
X144261822Y-93618112D01*
X144073822Y-93813109D01*
X144073816Y-93813116D01*
X143916202Y-94033419D01*
X143916199Y-94033424D01*
X143792350Y-94274309D01*
X143792343Y-94274327D01*
X143704884Y-94530685D01*
X143704881Y-94530699D01*
X143655681Y-94797068D01*
X143655680Y-94797075D01*
X143645787Y-95067763D01*
X140389462Y-95067763D01*
X140424063Y-94988881D01*
X140485108Y-94747821D01*
X140500000Y-94568100D01*
X140505643Y-94500005D01*
X140505643Y-94499994D01*
X140485109Y-94252187D01*
X140485107Y-94252175D01*
X140424063Y-94011118D01*
X140324173Y-93783393D01*
X140188166Y-93575217D01*
X140075249Y-93452557D01*
X140019744Y-93392262D01*
X139823509Y-93239526D01*
X139823507Y-93239525D01*
X139823506Y-93239524D01*
X139604811Y-93121172D01*
X139604802Y-93121169D01*
X139369616Y-93040429D01*
X139124335Y-92999500D01*
X138875665Y-92999500D01*
X138630383Y-93040429D01*
X138395197Y-93121169D01*
X138395188Y-93121172D01*
X138176493Y-93239524D01*
X137980257Y-93392261D01*
X137811833Y-93575217D01*
X137675826Y-93783393D01*
X137575936Y-94011118D01*
X137514892Y-94252175D01*
X137514890Y-94252187D01*
X137494357Y-94499994D01*
X137494357Y-94500005D01*
X133505643Y-94500005D01*
X133505643Y-94499994D01*
X133485109Y-94252187D01*
X133485107Y-94252175D01*
X133424063Y-94011118D01*
X133324173Y-93783393D01*
X133188166Y-93575217D01*
X133075249Y-93452557D01*
X133019744Y-93392262D01*
X132823509Y-93239526D01*
X132823507Y-93239525D01*
X132823506Y-93239524D01*
X132604811Y-93121172D01*
X132604802Y-93121169D01*
X132369616Y-93040429D01*
X132124335Y-92999500D01*
X131875665Y-92999500D01*
X131630383Y-93040429D01*
X131395197Y-93121169D01*
X131395188Y-93121172D01*
X131176493Y-93239524D01*
X130980257Y-93392261D01*
X130811833Y-93575217D01*
X130675826Y-93783393D01*
X130575936Y-94011118D01*
X130514892Y-94252175D01*
X130514890Y-94252187D01*
X130494357Y-94499994D01*
X130494357Y-94500005D01*
X126505643Y-94500005D01*
X126505643Y-94499994D01*
X126485109Y-94252187D01*
X126485107Y-94252175D01*
X126424063Y-94011118D01*
X126324173Y-93783393D01*
X126188166Y-93575217D01*
X126075249Y-93452557D01*
X126019744Y-93392262D01*
X125823509Y-93239526D01*
X125823507Y-93239525D01*
X125823506Y-93239524D01*
X125604811Y-93121172D01*
X125604802Y-93121169D01*
X125369616Y-93040429D01*
X125124335Y-92999500D01*
X124875665Y-92999500D01*
X124630383Y-93040429D01*
X124395197Y-93121169D01*
X124395188Y-93121172D01*
X124176493Y-93239524D01*
X123980257Y-93392261D01*
X123811833Y-93575217D01*
X123675826Y-93783393D01*
X123575936Y-94011118D01*
X123514892Y-94252175D01*
X123514890Y-94252187D01*
X123494357Y-94499994D01*
X123494357Y-94500005D01*
X116005643Y-94500005D01*
X116005643Y-94499994D01*
X115985109Y-94252187D01*
X115985107Y-94252175D01*
X115924063Y-94011118D01*
X115824173Y-93783393D01*
X115688166Y-93575217D01*
X115575249Y-93452557D01*
X115519744Y-93392262D01*
X115323509Y-93239526D01*
X115323507Y-93239525D01*
X115323506Y-93239524D01*
X115104811Y-93121172D01*
X115104802Y-93121169D01*
X114869616Y-93040429D01*
X114624335Y-92999500D01*
X114375665Y-92999500D01*
X114130383Y-93040429D01*
X113895197Y-93121169D01*
X113895188Y-93121172D01*
X113676493Y-93239524D01*
X113480257Y-93392261D01*
X113311833Y-93575217D01*
X113175826Y-93783393D01*
X113075936Y-94011118D01*
X113014892Y-94252175D01*
X113014890Y-94252187D01*
X112994357Y-94499994D01*
X112994357Y-94500005D01*
X109005643Y-94500005D01*
X109005643Y-94499994D01*
X108985109Y-94252187D01*
X108985107Y-94252175D01*
X108924063Y-94011118D01*
X108824173Y-93783393D01*
X108688166Y-93575217D01*
X108575249Y-93452557D01*
X108519744Y-93392262D01*
X108323509Y-93239526D01*
X108323507Y-93239525D01*
X108323506Y-93239524D01*
X108104811Y-93121172D01*
X108104802Y-93121169D01*
X107869616Y-93040429D01*
X107624335Y-92999500D01*
X107375665Y-92999500D01*
X107130383Y-93040429D01*
X106895197Y-93121169D01*
X106895188Y-93121172D01*
X106676493Y-93239524D01*
X106480257Y-93392261D01*
X106311833Y-93575217D01*
X106175826Y-93783393D01*
X106113556Y-93925355D01*
X106068600Y-93978841D01*
X106001864Y-93999531D01*
X105934536Y-93980856D01*
X105887993Y-93928746D01*
X105886444Y-93925355D01*
X105824173Y-93783393D01*
X105688166Y-93575217D01*
X105575249Y-93452557D01*
X105519744Y-93392262D01*
X105323509Y-93239526D01*
X105323507Y-93239525D01*
X105323506Y-93239524D01*
X105104811Y-93121172D01*
X105104802Y-93121169D01*
X104869616Y-93040429D01*
X104624335Y-92999500D01*
X104375665Y-92999500D01*
X104130383Y-93040429D01*
X103895197Y-93121169D01*
X103895188Y-93121172D01*
X103676493Y-93239524D01*
X103480257Y-93392261D01*
X103311833Y-93575217D01*
X103175826Y-93783393D01*
X103075936Y-94011118D01*
X103014892Y-94252175D01*
X103014890Y-94252187D01*
X102994357Y-94499994D01*
X102994357Y-94500005D01*
X102005643Y-94500005D01*
X102005643Y-94499994D01*
X101985109Y-94252187D01*
X101985107Y-94252175D01*
X101924063Y-94011118D01*
X101824173Y-93783393D01*
X101688166Y-93575217D01*
X101575249Y-93452557D01*
X101519744Y-93392262D01*
X101323509Y-93239526D01*
X101323507Y-93239525D01*
X101323506Y-93239524D01*
X101104811Y-93121172D01*
X101104802Y-93121169D01*
X100869616Y-93040429D01*
X100624335Y-92999500D01*
X100375665Y-92999500D01*
X100130383Y-93040429D01*
X99895197Y-93121169D01*
X99895188Y-93121172D01*
X99676493Y-93239524D01*
X99480257Y-93392261D01*
X99311833Y-93575217D01*
X99175826Y-93783393D01*
X99075936Y-94011118D01*
X99014892Y-94252175D01*
X99014890Y-94252187D01*
X98994357Y-94499994D01*
X98994357Y-94500005D01*
X91255643Y-94500005D01*
X91255643Y-94499994D01*
X91235109Y-94252187D01*
X91235107Y-94252175D01*
X91174063Y-94011118D01*
X91074173Y-93783393D01*
X90938166Y-93575217D01*
X90825249Y-93452557D01*
X90769744Y-93392262D01*
X90573509Y-93239526D01*
X90573507Y-93239525D01*
X90573506Y-93239524D01*
X90354811Y-93121172D01*
X90354802Y-93121169D01*
X90119616Y-93040429D01*
X89874335Y-92999500D01*
X89625665Y-92999500D01*
X89380383Y-93040429D01*
X89145197Y-93121169D01*
X89145188Y-93121172D01*
X88926493Y-93239524D01*
X88730257Y-93392261D01*
X88561833Y-93575217D01*
X88425826Y-93783393D01*
X88325936Y-94011118D01*
X88264892Y-94252175D01*
X88264890Y-94252187D01*
X88244357Y-94499994D01*
X88244357Y-94500005D01*
X88264890Y-94747812D01*
X88264892Y-94747824D01*
X88325936Y-94988881D01*
X88419825Y-95202924D01*
X88425827Y-95216607D01*
X88485327Y-95307679D01*
X88505514Y-95374568D01*
X88486334Y-95441754D01*
X88433876Y-95487904D01*
X88381518Y-95499500D01*
X88375665Y-95499500D01*
X88130383Y-95540429D01*
X87895197Y-95621169D01*
X87895188Y-95621172D01*
X87676493Y-95739524D01*
X87480257Y-95892261D01*
X87311833Y-96075217D01*
X87175826Y-96283393D01*
X87075936Y-96511118D01*
X87014892Y-96752175D01*
X87014890Y-96752187D01*
X86994357Y-96999994D01*
X86994357Y-97000005D01*
X69500000Y-97000005D01*
X69500000Y-94500005D01*
X74244357Y-94500005D01*
X74264890Y-94747812D01*
X74264892Y-94747824D01*
X74325936Y-94988881D01*
X74425826Y-95216606D01*
X74561833Y-95424782D01*
X74561836Y-95424785D01*
X74730256Y-95607738D01*
X74926491Y-95760474D01*
X74926493Y-95760475D01*
X75088945Y-95848390D01*
X75145190Y-95878828D01*
X75380386Y-95959571D01*
X75625665Y-96000500D01*
X75874335Y-96000500D01*
X76119614Y-95959571D01*
X76354810Y-95878828D01*
X76573509Y-95760474D01*
X76769744Y-95607738D01*
X76938164Y-95424785D01*
X77074173Y-95216607D01*
X77174063Y-94988881D01*
X77235108Y-94747821D01*
X77250000Y-94568100D01*
X77255643Y-94500005D01*
X81244357Y-94500005D01*
X81264890Y-94747812D01*
X81264892Y-94747824D01*
X81325936Y-94988881D01*
X81425826Y-95216606D01*
X81561833Y-95424782D01*
X81561836Y-95424785D01*
X81730256Y-95607738D01*
X81926491Y-95760474D01*
X81926493Y-95760475D01*
X82088945Y-95848390D01*
X82145190Y-95878828D01*
X82380386Y-95959571D01*
X82625665Y-96000500D01*
X82874335Y-96000500D01*
X83119614Y-95959571D01*
X83354810Y-95878828D01*
X83573509Y-95760474D01*
X83769744Y-95607738D01*
X83938164Y-95424785D01*
X84074173Y-95216607D01*
X84174063Y-94988881D01*
X84235108Y-94747821D01*
X84250000Y-94568100D01*
X84255643Y-94500005D01*
X84255643Y-94499994D01*
X84235109Y-94252187D01*
X84235107Y-94252175D01*
X84174063Y-94011118D01*
X84074173Y-93783393D01*
X83938166Y-93575217D01*
X83825249Y-93452557D01*
X83769744Y-93392262D01*
X83573509Y-93239526D01*
X83573507Y-93239525D01*
X83573506Y-93239524D01*
X83354811Y-93121172D01*
X83354802Y-93121169D01*
X83119616Y-93040429D01*
X82874335Y-92999500D01*
X82625665Y-92999500D01*
X82380383Y-93040429D01*
X82145197Y-93121169D01*
X82145188Y-93121172D01*
X81926493Y-93239524D01*
X81730257Y-93392261D01*
X81561833Y-93575217D01*
X81425826Y-93783393D01*
X81325936Y-94011118D01*
X81264892Y-94252175D01*
X81264890Y-94252187D01*
X81244357Y-94499994D01*
X81244357Y-94500005D01*
X77255643Y-94500005D01*
X77255643Y-94499994D01*
X77235109Y-94252187D01*
X77235107Y-94252175D01*
X77174063Y-94011118D01*
X77074173Y-93783393D01*
X76938166Y-93575217D01*
X76825249Y-93452557D01*
X76769744Y-93392262D01*
X76573509Y-93239526D01*
X76573507Y-93239525D01*
X76573506Y-93239524D01*
X76354811Y-93121172D01*
X76354802Y-93121169D01*
X76119616Y-93040429D01*
X75874335Y-92999500D01*
X75625665Y-92999500D01*
X75380383Y-93040429D01*
X75145197Y-93121169D01*
X75145188Y-93121172D01*
X74926493Y-93239524D01*
X74730257Y-93392261D01*
X74561833Y-93575217D01*
X74425826Y-93783393D01*
X74325936Y-94011118D01*
X74264892Y-94252175D01*
X74264890Y-94252187D01*
X74244357Y-94499994D01*
X74244357Y-94500005D01*
X69500000Y-94500005D01*
X69500000Y-91124000D01*
X69519685Y-91056961D01*
X69572489Y-91011206D01*
X69624000Y-91000000D01*
X148876000Y-91000000D01*
X148943039Y-91019685D01*
G37*
%TD.AperFunction*%
%TD*%
M02*
