%TF.GenerationSoftware,KiCad,Pcbnew,7.0.8-7.0.8~ubuntu22.04.1*%
%TF.CreationDate,2023-11-05T23:52:12+01:00*%
%TF.ProjectId,door_if4_usb,646f6f72-5f69-4663-945f-7573622e6b69,rev?*%
%TF.SameCoordinates,Original*%
%TF.FileFunction,Legend,Bot*%
%TF.FilePolarity,Positive*%
%FSLAX46Y46*%
G04 Gerber Fmt 4.6, Leading zero omitted, Abs format (unit mm)*
G04 Created by KiCad (PCBNEW 7.0.8-7.0.8~ubuntu22.04.1) date 2023-11-05 23:52:12*
%MOMM*%
%LPD*%
G01*
G04 APERTURE LIST*
%ADD10C,0.100000*%
%ADD11C,0.125000*%
%ADD12C,0.120000*%
%ADD13C,2.000000*%
%ADD14C,3.200000*%
%ADD15R,3.500000X1.700000*%
%ADD16R,1.700000X3.500000*%
%ADD17O,1.800000X1.800000*%
%ADD18O,1.500000X1.500000*%
G04 APERTURE END LIST*
D10*
X123726109Y-120344047D02*
X124130871Y-120344047D01*
X124130871Y-120344047D02*
X124178490Y-120367857D01*
X124178490Y-120367857D02*
X124202300Y-120391666D01*
X124202300Y-120391666D02*
X124226109Y-120439285D01*
X124226109Y-120439285D02*
X124226109Y-120534523D01*
X124226109Y-120534523D02*
X124202300Y-120582142D01*
X124202300Y-120582142D02*
X124178490Y-120605952D01*
X124178490Y-120605952D02*
X124130871Y-120629761D01*
X124130871Y-120629761D02*
X123726109Y-120629761D01*
X124226109Y-121129762D02*
X124226109Y-120844048D01*
X124226109Y-120986905D02*
X123726109Y-120986905D01*
X123726109Y-120986905D02*
X123797538Y-120939286D01*
X123797538Y-120939286D02*
X123845157Y-120891667D01*
X123845157Y-120891667D02*
X123868966Y-120844048D01*
D11*
X120433143Y-107072350D02*
X120449979Y-107021842D01*
X120449979Y-107021842D02*
X120500486Y-106971335D01*
X120500486Y-106971335D02*
X120567830Y-106937663D01*
X120567830Y-106937663D02*
X120635173Y-106937663D01*
X120635173Y-106937663D02*
X120685681Y-106954499D01*
X120685681Y-106954499D02*
X120769860Y-107005006D01*
X120769860Y-107005006D02*
X120820368Y-107055514D01*
X120820368Y-107055514D02*
X120870876Y-107139693D01*
X120870876Y-107139693D02*
X120887712Y-107190201D01*
X120887712Y-107190201D02*
X120887712Y-107257544D01*
X120887712Y-107257544D02*
X120854040Y-107324888D01*
X120854040Y-107324888D02*
X120820368Y-107358560D01*
X120820368Y-107358560D02*
X120753025Y-107392231D01*
X120753025Y-107392231D02*
X120719353Y-107392231D01*
X120719353Y-107392231D02*
X120601502Y-107274380D01*
X120601502Y-107274380D02*
X120668845Y-107207037D01*
X120601502Y-107577426D02*
X120247948Y-107223873D01*
X120247948Y-107223873D02*
X120113261Y-107358560D01*
X120113261Y-107358560D02*
X120096425Y-107409067D01*
X120096425Y-107409067D02*
X120096425Y-107442739D01*
X120096425Y-107442739D02*
X120113261Y-107493247D01*
X120113261Y-107493247D02*
X120163769Y-107543754D01*
X120163769Y-107543754D02*
X120214276Y-107560590D01*
X120214276Y-107560590D02*
X120247948Y-107560590D01*
X120247948Y-107560590D02*
X120298456Y-107543754D01*
X120298456Y-107543754D02*
X120433143Y-107409067D01*
X119944902Y-107594262D02*
X119911231Y-107594262D01*
X119911231Y-107594262D02*
X119860723Y-107611098D01*
X119860723Y-107611098D02*
X119776544Y-107695277D01*
X119776544Y-107695277D02*
X119759708Y-107745785D01*
X119759708Y-107745785D02*
X119759708Y-107779457D01*
X119759708Y-107779457D02*
X119776544Y-107829964D01*
X119776544Y-107829964D02*
X119810215Y-107863636D01*
X119810215Y-107863636D02*
X119877559Y-107897308D01*
X119877559Y-107897308D02*
X120281620Y-107897308D01*
X120281620Y-107897308D02*
X120062754Y-108116174D01*
X119608185Y-107930979D02*
X119574514Y-107930979D01*
X119574514Y-107930979D02*
X119524006Y-107947815D01*
X119524006Y-107947815D02*
X119439827Y-108031994D01*
X119439827Y-108031994D02*
X119422991Y-108082502D01*
X119422991Y-108082502D02*
X119422991Y-108116174D01*
X119422991Y-108116174D02*
X119439827Y-108166681D01*
X119439827Y-108166681D02*
X119473498Y-108200353D01*
X119473498Y-108200353D02*
X119540842Y-108234025D01*
X119540842Y-108234025D02*
X119944903Y-108234025D01*
X119944903Y-108234025D02*
X119726036Y-108452891D01*
X130441621Y-133077872D02*
X130458456Y-133027365D01*
X130458456Y-133027365D02*
X130508964Y-132976857D01*
X130508964Y-132976857D02*
X130576308Y-132943185D01*
X130576308Y-132943185D02*
X130643651Y-132943185D01*
X130643651Y-132943185D02*
X130694159Y-132960021D01*
X130694159Y-132960021D02*
X130778338Y-133010529D01*
X130778338Y-133010529D02*
X130828846Y-133061036D01*
X130828846Y-133061036D02*
X130879353Y-133145216D01*
X130879353Y-133145216D02*
X130896189Y-133195723D01*
X130896189Y-133195723D02*
X130896189Y-133263067D01*
X130896189Y-133263067D02*
X130862517Y-133330410D01*
X130862517Y-133330410D02*
X130828846Y-133364082D01*
X130828846Y-133364082D02*
X130761502Y-133397754D01*
X130761502Y-133397754D02*
X130727830Y-133397754D01*
X130727830Y-133397754D02*
X130609979Y-133279903D01*
X130609979Y-133279903D02*
X130677323Y-133212559D01*
X130609979Y-133582948D02*
X130256426Y-133229395D01*
X130256426Y-133229395D02*
X130407949Y-133784979D01*
X130407949Y-133784979D02*
X130054395Y-133431426D01*
X130239590Y-133953338D02*
X129886036Y-133599785D01*
X129886036Y-133599785D02*
X129801857Y-133683964D01*
X129801857Y-133683964D02*
X129768185Y-133751308D01*
X129768185Y-133751308D02*
X129768185Y-133818651D01*
X129768185Y-133818651D02*
X129785021Y-133869159D01*
X129785021Y-133869159D02*
X129835529Y-133953338D01*
X129835529Y-133953338D02*
X129886036Y-134003846D01*
X129886036Y-134003846D02*
X129970216Y-134054353D01*
X129970216Y-134054353D02*
X130020723Y-134071189D01*
X130020723Y-134071189D02*
X130088067Y-134071189D01*
X130088067Y-134071189D02*
X130155410Y-134037517D01*
X130155410Y-134037517D02*
X130239590Y-133953338D01*
X112813143Y-107072350D02*
X112829979Y-107021842D01*
X112829979Y-107021842D02*
X112880486Y-106971335D01*
X112880486Y-106971335D02*
X112947830Y-106937663D01*
X112947830Y-106937663D02*
X113015173Y-106937663D01*
X113015173Y-106937663D02*
X113065681Y-106954499D01*
X113065681Y-106954499D02*
X113149860Y-107005006D01*
X113149860Y-107005006D02*
X113200368Y-107055514D01*
X113200368Y-107055514D02*
X113250876Y-107139693D01*
X113250876Y-107139693D02*
X113267712Y-107190201D01*
X113267712Y-107190201D02*
X113267712Y-107257544D01*
X113267712Y-107257544D02*
X113234040Y-107324888D01*
X113234040Y-107324888D02*
X113200368Y-107358560D01*
X113200368Y-107358560D02*
X113133025Y-107392231D01*
X113133025Y-107392231D02*
X113099353Y-107392231D01*
X113099353Y-107392231D02*
X112981502Y-107274380D01*
X112981502Y-107274380D02*
X113048845Y-107207037D01*
X112981502Y-107577426D02*
X112627948Y-107223873D01*
X112627948Y-107223873D02*
X112493261Y-107358560D01*
X112493261Y-107358560D02*
X112476425Y-107409067D01*
X112476425Y-107409067D02*
X112476425Y-107442739D01*
X112476425Y-107442739D02*
X112493261Y-107493247D01*
X112493261Y-107493247D02*
X112543769Y-107543754D01*
X112543769Y-107543754D02*
X112594276Y-107560590D01*
X112594276Y-107560590D02*
X112627948Y-107560590D01*
X112627948Y-107560590D02*
X112678456Y-107543754D01*
X112678456Y-107543754D02*
X112813143Y-107409067D01*
X112324902Y-107594262D02*
X112291231Y-107594262D01*
X112291231Y-107594262D02*
X112240723Y-107611098D01*
X112240723Y-107611098D02*
X112156544Y-107695277D01*
X112156544Y-107695277D02*
X112139708Y-107745785D01*
X112139708Y-107745785D02*
X112139708Y-107779457D01*
X112139708Y-107779457D02*
X112156544Y-107829964D01*
X112156544Y-107829964D02*
X112190215Y-107863636D01*
X112190215Y-107863636D02*
X112257559Y-107897308D01*
X112257559Y-107897308D02*
X112661620Y-107897308D01*
X112661620Y-107897308D02*
X112442754Y-108116174D01*
X111870334Y-107981487D02*
X111836662Y-108015158D01*
X111836662Y-108015158D02*
X111819827Y-108065666D01*
X111819827Y-108065666D02*
X111819827Y-108099338D01*
X111819827Y-108099338D02*
X111836662Y-108149845D01*
X111836662Y-108149845D02*
X111887170Y-108234025D01*
X111887170Y-108234025D02*
X111971349Y-108318204D01*
X111971349Y-108318204D02*
X112055529Y-108368712D01*
X112055529Y-108368712D02*
X112106036Y-108385548D01*
X112106036Y-108385548D02*
X112139708Y-108385548D01*
X112139708Y-108385548D02*
X112190216Y-108368712D01*
X112190216Y-108368712D02*
X112223888Y-108335040D01*
X112223888Y-108335040D02*
X112240723Y-108284532D01*
X112240723Y-108284532D02*
X112240723Y-108250861D01*
X112240723Y-108250861D02*
X112223888Y-108200353D01*
X112223888Y-108200353D02*
X112173380Y-108116174D01*
X112173380Y-108116174D02*
X112089201Y-108031994D01*
X112089201Y-108031994D02*
X112005021Y-107981487D01*
X112005021Y-107981487D02*
X111954514Y-107964651D01*
X111954514Y-107964651D02*
X111920842Y-107964651D01*
X111920842Y-107964651D02*
X111870334Y-107981487D01*
X143141621Y-133077872D02*
X143158456Y-133027365D01*
X143158456Y-133027365D02*
X143208964Y-132976857D01*
X143208964Y-132976857D02*
X143276308Y-132943185D01*
X143276308Y-132943185D02*
X143343651Y-132943185D01*
X143343651Y-132943185D02*
X143394159Y-132960021D01*
X143394159Y-132960021D02*
X143478338Y-133010529D01*
X143478338Y-133010529D02*
X143528846Y-133061036D01*
X143528846Y-133061036D02*
X143579353Y-133145216D01*
X143579353Y-133145216D02*
X143596189Y-133195723D01*
X143596189Y-133195723D02*
X143596189Y-133263067D01*
X143596189Y-133263067D02*
X143562517Y-133330410D01*
X143562517Y-133330410D02*
X143528846Y-133364082D01*
X143528846Y-133364082D02*
X143461502Y-133397754D01*
X143461502Y-133397754D02*
X143427830Y-133397754D01*
X143427830Y-133397754D02*
X143309979Y-133279903D01*
X143309979Y-133279903D02*
X143377323Y-133212559D01*
X143309979Y-133582948D02*
X142956426Y-133229395D01*
X142956426Y-133229395D02*
X143107949Y-133784979D01*
X143107949Y-133784979D02*
X142754395Y-133431426D01*
X142939590Y-133953338D02*
X142586036Y-133599785D01*
X142586036Y-133599785D02*
X142501857Y-133683964D01*
X142501857Y-133683964D02*
X142468185Y-133751308D01*
X142468185Y-133751308D02*
X142468185Y-133818651D01*
X142468185Y-133818651D02*
X142485021Y-133869159D01*
X142485021Y-133869159D02*
X142535529Y-133953338D01*
X142535529Y-133953338D02*
X142586036Y-134003846D01*
X142586036Y-134003846D02*
X142670216Y-134054353D01*
X142670216Y-134054353D02*
X142720723Y-134071189D01*
X142720723Y-134071189D02*
X142788067Y-134071189D01*
X142788067Y-134071189D02*
X142855410Y-134037517D01*
X142855410Y-134037517D02*
X142939590Y-133953338D01*
X112813143Y-133326350D02*
X112829979Y-133275842D01*
X112829979Y-133275842D02*
X112880486Y-133225335D01*
X112880486Y-133225335D02*
X112947830Y-133191663D01*
X112947830Y-133191663D02*
X113015173Y-133191663D01*
X113015173Y-133191663D02*
X113065681Y-133208499D01*
X113065681Y-133208499D02*
X113149860Y-133259006D01*
X113149860Y-133259006D02*
X113200368Y-133309514D01*
X113200368Y-133309514D02*
X113250876Y-133393693D01*
X113250876Y-133393693D02*
X113267712Y-133444201D01*
X113267712Y-133444201D02*
X113267712Y-133511544D01*
X113267712Y-133511544D02*
X113234040Y-133578888D01*
X113234040Y-133578888D02*
X113200368Y-133612560D01*
X113200368Y-133612560D02*
X113133025Y-133646231D01*
X113133025Y-133646231D02*
X113099353Y-133646231D01*
X113099353Y-133646231D02*
X112981502Y-133528380D01*
X112981502Y-133528380D02*
X113048845Y-133461037D01*
X112981502Y-133831426D02*
X112627948Y-133477873D01*
X112627948Y-133477873D02*
X112493261Y-133612560D01*
X112493261Y-133612560D02*
X112476425Y-133663067D01*
X112476425Y-133663067D02*
X112476425Y-133696739D01*
X112476425Y-133696739D02*
X112493261Y-133747247D01*
X112493261Y-133747247D02*
X112543769Y-133797754D01*
X112543769Y-133797754D02*
X112594276Y-133814590D01*
X112594276Y-133814590D02*
X112627948Y-133814590D01*
X112627948Y-133814590D02*
X112678456Y-133797754D01*
X112678456Y-133797754D02*
X112813143Y-133663067D01*
X112442754Y-134370174D02*
X112644784Y-134168144D01*
X112543769Y-134269159D02*
X112190215Y-133915605D01*
X112190215Y-133915605D02*
X112274395Y-133932441D01*
X112274395Y-133932441D02*
X112341738Y-133932441D01*
X112341738Y-133932441D02*
X112392246Y-133915605D01*
X112106036Y-134706891D02*
X112308067Y-134504861D01*
X112207052Y-134605876D02*
X111853498Y-134252323D01*
X111853498Y-134252323D02*
X111937678Y-134269158D01*
X111937678Y-134269158D02*
X112005021Y-134269158D01*
X112005021Y-134269158D02*
X112055529Y-134252323D01*
X123149920Y-107623007D02*
X123099413Y-107336798D01*
X123351951Y-107420977D02*
X122998397Y-107067424D01*
X122998397Y-107067424D02*
X122863710Y-107202111D01*
X122863710Y-107202111D02*
X122846874Y-107252618D01*
X122846874Y-107252618D02*
X122846874Y-107286290D01*
X122846874Y-107286290D02*
X122863710Y-107336798D01*
X122863710Y-107336798D02*
X122914218Y-107387305D01*
X122914218Y-107387305D02*
X122964726Y-107404141D01*
X122964726Y-107404141D02*
X122998397Y-107404141D01*
X122998397Y-107404141D02*
X123048905Y-107387305D01*
X123048905Y-107387305D02*
X123183592Y-107252618D01*
X122644844Y-107420977D02*
X122931054Y-107707187D01*
X122931054Y-107707187D02*
X122947890Y-107757694D01*
X122947890Y-107757694D02*
X122947890Y-107791366D01*
X122947890Y-107791366D02*
X122931054Y-107841874D01*
X122931054Y-107841874D02*
X122863710Y-107909217D01*
X122863710Y-107909217D02*
X122813203Y-107926053D01*
X122813203Y-107926053D02*
X122779531Y-107926053D01*
X122779531Y-107926053D02*
X122729023Y-107909217D01*
X122729023Y-107909217D02*
X122442813Y-107623007D01*
X122628008Y-108144920D02*
X122274454Y-107791367D01*
X122274454Y-107791367D02*
X122425977Y-108346950D01*
X122425977Y-108346950D02*
X122072424Y-107993397D01*
X102653143Y-107072350D02*
X102669979Y-107021842D01*
X102669979Y-107021842D02*
X102720486Y-106971335D01*
X102720486Y-106971335D02*
X102787830Y-106937663D01*
X102787830Y-106937663D02*
X102855173Y-106937663D01*
X102855173Y-106937663D02*
X102905681Y-106954499D01*
X102905681Y-106954499D02*
X102989860Y-107005006D01*
X102989860Y-107005006D02*
X103040368Y-107055514D01*
X103040368Y-107055514D02*
X103090876Y-107139693D01*
X103090876Y-107139693D02*
X103107712Y-107190201D01*
X103107712Y-107190201D02*
X103107712Y-107257544D01*
X103107712Y-107257544D02*
X103074040Y-107324888D01*
X103074040Y-107324888D02*
X103040368Y-107358560D01*
X103040368Y-107358560D02*
X102973025Y-107392231D01*
X102973025Y-107392231D02*
X102939353Y-107392231D01*
X102939353Y-107392231D02*
X102821502Y-107274380D01*
X102821502Y-107274380D02*
X102888845Y-107207037D01*
X102821502Y-107577426D02*
X102467948Y-107223873D01*
X102467948Y-107223873D02*
X102333261Y-107358560D01*
X102333261Y-107358560D02*
X102316425Y-107409067D01*
X102316425Y-107409067D02*
X102316425Y-107442739D01*
X102316425Y-107442739D02*
X102333261Y-107493247D01*
X102333261Y-107493247D02*
X102383769Y-107543754D01*
X102383769Y-107543754D02*
X102434276Y-107560590D01*
X102434276Y-107560590D02*
X102467948Y-107560590D01*
X102467948Y-107560590D02*
X102518456Y-107543754D01*
X102518456Y-107543754D02*
X102653143Y-107409067D01*
X102282754Y-108116174D02*
X102484784Y-107914144D01*
X102383769Y-108015159D02*
X102030215Y-107661605D01*
X102030215Y-107661605D02*
X102114395Y-107678441D01*
X102114395Y-107678441D02*
X102181738Y-107678441D01*
X102181738Y-107678441D02*
X102232246Y-107661605D01*
X101811349Y-107880471D02*
X101575647Y-108116174D01*
X101575647Y-108116174D02*
X102080723Y-108318204D01*
X140584784Y-133194708D02*
X140601620Y-133144201D01*
X140601620Y-133144201D02*
X140652128Y-133093693D01*
X140652128Y-133093693D02*
X140719471Y-133060021D01*
X140719471Y-133060021D02*
X140786815Y-133060021D01*
X140786815Y-133060021D02*
X140837322Y-133076857D01*
X140837322Y-133076857D02*
X140921502Y-133127365D01*
X140921502Y-133127365D02*
X140972009Y-133177872D01*
X140972009Y-133177872D02*
X141022517Y-133262052D01*
X141022517Y-133262052D02*
X141039353Y-133312559D01*
X141039353Y-133312559D02*
X141039353Y-133379903D01*
X141039353Y-133379903D02*
X141005681Y-133447246D01*
X141005681Y-133447246D02*
X140972009Y-133480918D01*
X140972009Y-133480918D02*
X140904666Y-133514590D01*
X140904666Y-133514590D02*
X140870994Y-133514590D01*
X140870994Y-133514590D02*
X140753143Y-133396739D01*
X140753143Y-133396739D02*
X140820487Y-133329395D01*
X140753143Y-133699785D02*
X140399590Y-133346231D01*
X140399590Y-133346231D02*
X140264903Y-133480918D01*
X140264903Y-133480918D02*
X140248067Y-133531426D01*
X140248067Y-133531426D02*
X140248067Y-133565098D01*
X140248067Y-133565098D02*
X140264903Y-133615605D01*
X140264903Y-133615605D02*
X140315410Y-133666113D01*
X140315410Y-133666113D02*
X140365918Y-133682949D01*
X140365918Y-133682949D02*
X140399590Y-133682949D01*
X140399590Y-133682949D02*
X140450097Y-133666113D01*
X140450097Y-133666113D02*
X140584784Y-133531426D01*
X140096544Y-133716621D02*
X140062872Y-133716621D01*
X140062872Y-133716621D02*
X140012365Y-133733456D01*
X140012365Y-133733456D02*
X139928185Y-133817636D01*
X139928185Y-133817636D02*
X139911349Y-133868143D01*
X139911349Y-133868143D02*
X139911349Y-133901815D01*
X139911349Y-133901815D02*
X139928185Y-133952323D01*
X139928185Y-133952323D02*
X139961857Y-133985995D01*
X139961857Y-133985995D02*
X140029200Y-134019666D01*
X140029200Y-134019666D02*
X140433261Y-134019666D01*
X140433261Y-134019666D02*
X140214395Y-134238533D01*
X122804784Y-133094708D02*
X122821620Y-133044201D01*
X122821620Y-133044201D02*
X122872128Y-132993693D01*
X122872128Y-132993693D02*
X122939471Y-132960021D01*
X122939471Y-132960021D02*
X123006815Y-132960021D01*
X123006815Y-132960021D02*
X123057322Y-132976857D01*
X123057322Y-132976857D02*
X123141502Y-133027365D01*
X123141502Y-133027365D02*
X123192009Y-133077872D01*
X123192009Y-133077872D02*
X123242517Y-133162052D01*
X123242517Y-133162052D02*
X123259353Y-133212559D01*
X123259353Y-133212559D02*
X123259353Y-133279903D01*
X123259353Y-133279903D02*
X123225681Y-133347246D01*
X123225681Y-133347246D02*
X123192009Y-133380918D01*
X123192009Y-133380918D02*
X123124666Y-133414590D01*
X123124666Y-133414590D02*
X123090994Y-133414590D01*
X123090994Y-133414590D02*
X122973143Y-133296739D01*
X122973143Y-133296739D02*
X123040487Y-133229395D01*
X122973143Y-133599785D02*
X122619590Y-133246231D01*
X122619590Y-133246231D02*
X122484903Y-133380918D01*
X122484903Y-133380918D02*
X122468067Y-133431426D01*
X122468067Y-133431426D02*
X122468067Y-133465098D01*
X122468067Y-133465098D02*
X122484903Y-133515605D01*
X122484903Y-133515605D02*
X122535410Y-133566113D01*
X122535410Y-133566113D02*
X122585918Y-133582949D01*
X122585918Y-133582949D02*
X122619590Y-133582949D01*
X122619590Y-133582949D02*
X122670097Y-133566113D01*
X122670097Y-133566113D02*
X122804784Y-133431426D01*
X122367052Y-133801815D02*
X122383887Y-133751308D01*
X122383887Y-133751308D02*
X122383887Y-133717636D01*
X122383887Y-133717636D02*
X122367052Y-133667128D01*
X122367052Y-133667128D02*
X122350216Y-133650292D01*
X122350216Y-133650292D02*
X122299708Y-133633456D01*
X122299708Y-133633456D02*
X122266036Y-133633456D01*
X122266036Y-133633456D02*
X122215529Y-133650292D01*
X122215529Y-133650292D02*
X122148185Y-133717636D01*
X122148185Y-133717636D02*
X122131349Y-133768143D01*
X122131349Y-133768143D02*
X122131349Y-133801815D01*
X122131349Y-133801815D02*
X122148185Y-133852323D01*
X122148185Y-133852323D02*
X122165021Y-133869159D01*
X122165021Y-133869159D02*
X122215529Y-133885995D01*
X122215529Y-133885995D02*
X122249200Y-133885995D01*
X122249200Y-133885995D02*
X122299708Y-133869159D01*
X122299708Y-133869159D02*
X122367052Y-133801815D01*
X122367052Y-133801815D02*
X122417559Y-133784979D01*
X122417559Y-133784979D02*
X122451231Y-133784979D01*
X122451231Y-133784979D02*
X122501739Y-133801815D01*
X122501739Y-133801815D02*
X122569082Y-133869159D01*
X122569082Y-133869159D02*
X122585918Y-133919666D01*
X122585918Y-133919666D02*
X122585918Y-133953338D01*
X122585918Y-133953338D02*
X122569082Y-134003846D01*
X122569082Y-134003846D02*
X122501739Y-134071189D01*
X122501739Y-134071189D02*
X122451231Y-134088025D01*
X122451231Y-134088025D02*
X122417559Y-134088025D01*
X122417559Y-134088025D02*
X122367052Y-134071189D01*
X122367052Y-134071189D02*
X122299708Y-134003846D01*
X122299708Y-134003846D02*
X122282872Y-133953338D01*
X122282872Y-133953338D02*
X122282872Y-133919666D01*
X122282872Y-133919666D02*
X122299708Y-133869159D01*
X145674784Y-133194708D02*
X145691620Y-133144201D01*
X145691620Y-133144201D02*
X145742128Y-133093693D01*
X145742128Y-133093693D02*
X145809471Y-133060021D01*
X145809471Y-133060021D02*
X145876815Y-133060021D01*
X145876815Y-133060021D02*
X145927322Y-133076857D01*
X145927322Y-133076857D02*
X146011502Y-133127365D01*
X146011502Y-133127365D02*
X146062009Y-133177872D01*
X146062009Y-133177872D02*
X146112517Y-133262052D01*
X146112517Y-133262052D02*
X146129353Y-133312559D01*
X146129353Y-133312559D02*
X146129353Y-133379903D01*
X146129353Y-133379903D02*
X146095681Y-133447246D01*
X146095681Y-133447246D02*
X146062009Y-133480918D01*
X146062009Y-133480918D02*
X145994666Y-133514590D01*
X145994666Y-133514590D02*
X145960994Y-133514590D01*
X145960994Y-133514590D02*
X145843143Y-133396739D01*
X145843143Y-133396739D02*
X145910487Y-133329395D01*
X145843143Y-133699785D02*
X145489590Y-133346231D01*
X145489590Y-133346231D02*
X145354903Y-133480918D01*
X145354903Y-133480918D02*
X145338067Y-133531426D01*
X145338067Y-133531426D02*
X145338067Y-133565098D01*
X145338067Y-133565098D02*
X145354903Y-133615605D01*
X145354903Y-133615605D02*
X145405410Y-133666113D01*
X145405410Y-133666113D02*
X145455918Y-133682949D01*
X145455918Y-133682949D02*
X145489590Y-133682949D01*
X145489590Y-133682949D02*
X145540097Y-133666113D01*
X145540097Y-133666113D02*
X145674784Y-133531426D01*
X145304395Y-134238533D02*
X145506426Y-134036502D01*
X145405410Y-134137517D02*
X145051857Y-133783964D01*
X145051857Y-133783964D02*
X145136036Y-133800800D01*
X145136036Y-133800800D02*
X145203380Y-133800800D01*
X145203380Y-133800800D02*
X145253887Y-133783964D01*
X98001000Y-125294048D02*
X98024809Y-125365476D01*
X98024809Y-125365476D02*
X98024809Y-125484524D01*
X98024809Y-125484524D02*
X98001000Y-125532143D01*
X98001000Y-125532143D02*
X97977190Y-125555952D01*
X97977190Y-125555952D02*
X97929571Y-125579762D01*
X97929571Y-125579762D02*
X97881952Y-125579762D01*
X97881952Y-125579762D02*
X97834333Y-125555952D01*
X97834333Y-125555952D02*
X97810523Y-125532143D01*
X97810523Y-125532143D02*
X97786714Y-125484524D01*
X97786714Y-125484524D02*
X97762904Y-125389286D01*
X97762904Y-125389286D02*
X97739095Y-125341667D01*
X97739095Y-125341667D02*
X97715285Y-125317857D01*
X97715285Y-125317857D02*
X97667666Y-125294048D01*
X97667666Y-125294048D02*
X97620047Y-125294048D01*
X97620047Y-125294048D02*
X97572428Y-125317857D01*
X97572428Y-125317857D02*
X97548619Y-125341667D01*
X97548619Y-125341667D02*
X97524809Y-125389286D01*
X97524809Y-125389286D02*
X97524809Y-125508333D01*
X97524809Y-125508333D02*
X97548619Y-125579762D01*
X97524809Y-125746428D02*
X98024809Y-125865476D01*
X98024809Y-125865476D02*
X97667666Y-125960714D01*
X97667666Y-125960714D02*
X98024809Y-126055952D01*
X98024809Y-126055952D02*
X97524809Y-126175000D01*
X97977190Y-126651190D02*
X98001000Y-126627381D01*
X98001000Y-126627381D02*
X98024809Y-126555952D01*
X98024809Y-126555952D02*
X98024809Y-126508333D01*
X98024809Y-126508333D02*
X98001000Y-126436905D01*
X98001000Y-126436905D02*
X97953380Y-126389286D01*
X97953380Y-126389286D02*
X97905761Y-126365476D01*
X97905761Y-126365476D02*
X97810523Y-126341667D01*
X97810523Y-126341667D02*
X97739095Y-126341667D01*
X97739095Y-126341667D02*
X97643857Y-126365476D01*
X97643857Y-126365476D02*
X97596238Y-126389286D01*
X97596238Y-126389286D02*
X97548619Y-126436905D01*
X97548619Y-126436905D02*
X97524809Y-126508333D01*
X97524809Y-126508333D02*
X97524809Y-126555952D01*
X97524809Y-126555952D02*
X97548619Y-126627381D01*
X97548619Y-126627381D02*
X97572428Y-126651190D01*
X98024809Y-127103571D02*
X98024809Y-126865476D01*
X98024809Y-126865476D02*
X97524809Y-126865476D01*
X98024809Y-127270238D02*
X97524809Y-127270238D01*
X98024809Y-127555952D02*
X97739095Y-127341667D01*
X97524809Y-127555952D02*
X97810523Y-127270238D01*
X135504784Y-133094708D02*
X135521620Y-133044201D01*
X135521620Y-133044201D02*
X135572128Y-132993693D01*
X135572128Y-132993693D02*
X135639471Y-132960021D01*
X135639471Y-132960021D02*
X135706815Y-132960021D01*
X135706815Y-132960021D02*
X135757322Y-132976857D01*
X135757322Y-132976857D02*
X135841502Y-133027365D01*
X135841502Y-133027365D02*
X135892009Y-133077872D01*
X135892009Y-133077872D02*
X135942517Y-133162052D01*
X135942517Y-133162052D02*
X135959353Y-133212559D01*
X135959353Y-133212559D02*
X135959353Y-133279903D01*
X135959353Y-133279903D02*
X135925681Y-133347246D01*
X135925681Y-133347246D02*
X135892009Y-133380918D01*
X135892009Y-133380918D02*
X135824666Y-133414590D01*
X135824666Y-133414590D02*
X135790994Y-133414590D01*
X135790994Y-133414590D02*
X135673143Y-133296739D01*
X135673143Y-133296739D02*
X135740487Y-133229395D01*
X135673143Y-133599785D02*
X135319590Y-133246231D01*
X135319590Y-133246231D02*
X135184903Y-133380918D01*
X135184903Y-133380918D02*
X135168067Y-133431426D01*
X135168067Y-133431426D02*
X135168067Y-133465098D01*
X135168067Y-133465098D02*
X135184903Y-133515605D01*
X135184903Y-133515605D02*
X135235410Y-133566113D01*
X135235410Y-133566113D02*
X135285918Y-133582949D01*
X135285918Y-133582949D02*
X135319590Y-133582949D01*
X135319590Y-133582949D02*
X135370097Y-133566113D01*
X135370097Y-133566113D02*
X135504784Y-133431426D01*
X134932365Y-133869159D02*
X135168067Y-134104861D01*
X134881857Y-133650292D02*
X135218574Y-133818651D01*
X135218574Y-133818651D02*
X134999708Y-134037517D01*
X138044784Y-133094708D02*
X138061620Y-133044201D01*
X138061620Y-133044201D02*
X138112128Y-132993693D01*
X138112128Y-132993693D02*
X138179471Y-132960021D01*
X138179471Y-132960021D02*
X138246815Y-132960021D01*
X138246815Y-132960021D02*
X138297322Y-132976857D01*
X138297322Y-132976857D02*
X138381502Y-133027365D01*
X138381502Y-133027365D02*
X138432009Y-133077872D01*
X138432009Y-133077872D02*
X138482517Y-133162052D01*
X138482517Y-133162052D02*
X138499353Y-133212559D01*
X138499353Y-133212559D02*
X138499353Y-133279903D01*
X138499353Y-133279903D02*
X138465681Y-133347246D01*
X138465681Y-133347246D02*
X138432009Y-133380918D01*
X138432009Y-133380918D02*
X138364666Y-133414590D01*
X138364666Y-133414590D02*
X138330994Y-133414590D01*
X138330994Y-133414590D02*
X138213143Y-133296739D01*
X138213143Y-133296739D02*
X138280487Y-133229395D01*
X138213143Y-133599785D02*
X137859590Y-133246231D01*
X137859590Y-133246231D02*
X137724903Y-133380918D01*
X137724903Y-133380918D02*
X137708067Y-133431426D01*
X137708067Y-133431426D02*
X137708067Y-133465098D01*
X137708067Y-133465098D02*
X137724903Y-133515605D01*
X137724903Y-133515605D02*
X137775410Y-133566113D01*
X137775410Y-133566113D02*
X137825918Y-133582949D01*
X137825918Y-133582949D02*
X137859590Y-133582949D01*
X137859590Y-133582949D02*
X137910097Y-133566113D01*
X137910097Y-133566113D02*
X138044784Y-133431426D01*
X137539708Y-133566113D02*
X137320842Y-133784979D01*
X137320842Y-133784979D02*
X137573380Y-133801815D01*
X137573380Y-133801815D02*
X137522872Y-133852323D01*
X137522872Y-133852323D02*
X137506036Y-133902830D01*
X137506036Y-133902830D02*
X137506036Y-133936502D01*
X137506036Y-133936502D02*
X137522872Y-133987010D01*
X137522872Y-133987010D02*
X137607052Y-134071189D01*
X137607052Y-134071189D02*
X137657559Y-134088025D01*
X137657559Y-134088025D02*
X137691231Y-134088025D01*
X137691231Y-134088025D02*
X137741739Y-134071189D01*
X137741739Y-134071189D02*
X137842754Y-133970174D01*
X137842754Y-133970174D02*
X137859590Y-133919666D01*
X137859590Y-133919666D02*
X137859590Y-133885995D01*
X132964784Y-133094708D02*
X132981620Y-133044201D01*
X132981620Y-133044201D02*
X133032128Y-132993693D01*
X133032128Y-132993693D02*
X133099471Y-132960021D01*
X133099471Y-132960021D02*
X133166815Y-132960021D01*
X133166815Y-132960021D02*
X133217322Y-132976857D01*
X133217322Y-132976857D02*
X133301502Y-133027365D01*
X133301502Y-133027365D02*
X133352009Y-133077872D01*
X133352009Y-133077872D02*
X133402517Y-133162052D01*
X133402517Y-133162052D02*
X133419353Y-133212559D01*
X133419353Y-133212559D02*
X133419353Y-133279903D01*
X133419353Y-133279903D02*
X133385681Y-133347246D01*
X133385681Y-133347246D02*
X133352009Y-133380918D01*
X133352009Y-133380918D02*
X133284666Y-133414590D01*
X133284666Y-133414590D02*
X133250994Y-133414590D01*
X133250994Y-133414590D02*
X133133143Y-133296739D01*
X133133143Y-133296739D02*
X133200487Y-133229395D01*
X133133143Y-133599785D02*
X132779590Y-133246231D01*
X132779590Y-133246231D02*
X132644903Y-133380918D01*
X132644903Y-133380918D02*
X132628067Y-133431426D01*
X132628067Y-133431426D02*
X132628067Y-133465098D01*
X132628067Y-133465098D02*
X132644903Y-133515605D01*
X132644903Y-133515605D02*
X132695410Y-133566113D01*
X132695410Y-133566113D02*
X132745918Y-133582949D01*
X132745918Y-133582949D02*
X132779590Y-133582949D01*
X132779590Y-133582949D02*
X132830097Y-133566113D01*
X132830097Y-133566113D02*
X132964784Y-133431426D01*
X132257678Y-133768143D02*
X132426036Y-133599785D01*
X132426036Y-133599785D02*
X132611231Y-133751308D01*
X132611231Y-133751308D02*
X132577559Y-133751308D01*
X132577559Y-133751308D02*
X132527052Y-133768143D01*
X132527052Y-133768143D02*
X132442872Y-133852323D01*
X132442872Y-133852323D02*
X132426036Y-133902830D01*
X132426036Y-133902830D02*
X132426036Y-133936502D01*
X132426036Y-133936502D02*
X132442872Y-133987010D01*
X132442872Y-133987010D02*
X132527052Y-134071189D01*
X132527052Y-134071189D02*
X132577559Y-134088025D01*
X132577559Y-134088025D02*
X132611231Y-134088025D01*
X132611231Y-134088025D02*
X132661739Y-134071189D01*
X132661739Y-134071189D02*
X132745918Y-133987010D01*
X132745918Y-133987010D02*
X132762754Y-133936502D01*
X132762754Y-133936502D02*
X132762754Y-133902830D01*
X107733143Y-133180350D02*
X107749979Y-133129842D01*
X107749979Y-133129842D02*
X107800486Y-133079335D01*
X107800486Y-133079335D02*
X107867830Y-133045663D01*
X107867830Y-133045663D02*
X107935173Y-133045663D01*
X107935173Y-133045663D02*
X107985681Y-133062499D01*
X107985681Y-133062499D02*
X108069860Y-133113006D01*
X108069860Y-133113006D02*
X108120368Y-133163514D01*
X108120368Y-133163514D02*
X108170876Y-133247693D01*
X108170876Y-133247693D02*
X108187712Y-133298201D01*
X108187712Y-133298201D02*
X108187712Y-133365544D01*
X108187712Y-133365544D02*
X108154040Y-133432888D01*
X108154040Y-133432888D02*
X108120368Y-133466560D01*
X108120368Y-133466560D02*
X108053025Y-133500231D01*
X108053025Y-133500231D02*
X108019353Y-133500231D01*
X108019353Y-133500231D02*
X107901502Y-133382380D01*
X107901502Y-133382380D02*
X107968845Y-133315037D01*
X107901502Y-133685426D02*
X107547948Y-133331873D01*
X107547948Y-133331873D02*
X107413261Y-133466560D01*
X107413261Y-133466560D02*
X107396425Y-133517067D01*
X107396425Y-133517067D02*
X107396425Y-133550739D01*
X107396425Y-133550739D02*
X107413261Y-133601247D01*
X107413261Y-133601247D02*
X107463769Y-133651754D01*
X107463769Y-133651754D02*
X107514276Y-133668590D01*
X107514276Y-133668590D02*
X107547948Y-133668590D01*
X107547948Y-133668590D02*
X107598456Y-133651754D01*
X107598456Y-133651754D02*
X107733143Y-133517067D01*
X107362754Y-134224174D02*
X107564784Y-134022144D01*
X107463769Y-134123159D02*
X107110215Y-133769605D01*
X107110215Y-133769605D02*
X107194395Y-133786441D01*
X107194395Y-133786441D02*
X107261738Y-133786441D01*
X107261738Y-133786441D02*
X107312246Y-133769605D01*
X106891349Y-133988471D02*
X106672483Y-134207338D01*
X106672483Y-134207338D02*
X106925021Y-134224174D01*
X106925021Y-134224174D02*
X106874514Y-134274681D01*
X106874514Y-134274681D02*
X106857678Y-134325189D01*
X106857678Y-134325189D02*
X106857678Y-134358861D01*
X106857678Y-134358861D02*
X106874514Y-134409368D01*
X106874514Y-134409368D02*
X106958693Y-134493548D01*
X106958693Y-134493548D02*
X107009201Y-134510384D01*
X107009201Y-134510384D02*
X107042872Y-134510384D01*
X107042872Y-134510384D02*
X107093380Y-134493548D01*
X107093380Y-134493548D02*
X107194395Y-134392532D01*
X107194395Y-134392532D02*
X107211231Y-134342025D01*
X107211231Y-134342025D02*
X107211231Y-134308353D01*
X133387143Y-107072350D02*
X133403979Y-107021842D01*
X133403979Y-107021842D02*
X133454486Y-106971335D01*
X133454486Y-106971335D02*
X133521830Y-106937663D01*
X133521830Y-106937663D02*
X133589173Y-106937663D01*
X133589173Y-106937663D02*
X133639681Y-106954499D01*
X133639681Y-106954499D02*
X133723860Y-107005006D01*
X133723860Y-107005006D02*
X133774368Y-107055514D01*
X133774368Y-107055514D02*
X133824876Y-107139693D01*
X133824876Y-107139693D02*
X133841712Y-107190201D01*
X133841712Y-107190201D02*
X133841712Y-107257544D01*
X133841712Y-107257544D02*
X133808040Y-107324888D01*
X133808040Y-107324888D02*
X133774368Y-107358560D01*
X133774368Y-107358560D02*
X133707025Y-107392231D01*
X133707025Y-107392231D02*
X133673353Y-107392231D01*
X133673353Y-107392231D02*
X133555502Y-107274380D01*
X133555502Y-107274380D02*
X133622845Y-107207037D01*
X133555502Y-107577426D02*
X133201948Y-107223873D01*
X133201948Y-107223873D02*
X133067261Y-107358560D01*
X133067261Y-107358560D02*
X133050425Y-107409067D01*
X133050425Y-107409067D02*
X133050425Y-107442739D01*
X133050425Y-107442739D02*
X133067261Y-107493247D01*
X133067261Y-107493247D02*
X133117769Y-107543754D01*
X133117769Y-107543754D02*
X133168276Y-107560590D01*
X133168276Y-107560590D02*
X133201948Y-107560590D01*
X133201948Y-107560590D02*
X133252456Y-107543754D01*
X133252456Y-107543754D02*
X133387143Y-107409067D01*
X132898902Y-107594262D02*
X132865231Y-107594262D01*
X132865231Y-107594262D02*
X132814723Y-107611098D01*
X132814723Y-107611098D02*
X132730544Y-107695277D01*
X132730544Y-107695277D02*
X132713708Y-107745785D01*
X132713708Y-107745785D02*
X132713708Y-107779457D01*
X132713708Y-107779457D02*
X132730544Y-107829964D01*
X132730544Y-107829964D02*
X132764215Y-107863636D01*
X132764215Y-107863636D02*
X132831559Y-107897308D01*
X132831559Y-107897308D02*
X133235620Y-107897308D01*
X133235620Y-107897308D02*
X133016754Y-108116174D01*
X132612693Y-108116174D02*
X132629529Y-108065666D01*
X132629529Y-108065666D02*
X132629529Y-108031994D01*
X132629529Y-108031994D02*
X132612693Y-107981487D01*
X132612693Y-107981487D02*
X132595857Y-107964651D01*
X132595857Y-107964651D02*
X132545349Y-107947815D01*
X132545349Y-107947815D02*
X132511678Y-107947815D01*
X132511678Y-107947815D02*
X132461170Y-107964651D01*
X132461170Y-107964651D02*
X132393827Y-108031994D01*
X132393827Y-108031994D02*
X132376991Y-108082502D01*
X132376991Y-108082502D02*
X132376991Y-108116174D01*
X132376991Y-108116174D02*
X132393827Y-108166681D01*
X132393827Y-108166681D02*
X132410662Y-108183517D01*
X132410662Y-108183517D02*
X132461170Y-108200353D01*
X132461170Y-108200353D02*
X132494842Y-108200353D01*
X132494842Y-108200353D02*
X132545349Y-108183517D01*
X132545349Y-108183517D02*
X132612693Y-108116174D01*
X132612693Y-108116174D02*
X132663201Y-108099338D01*
X132663201Y-108099338D02*
X132696872Y-108099338D01*
X132696872Y-108099338D02*
X132747380Y-108116174D01*
X132747380Y-108116174D02*
X132814723Y-108183517D01*
X132814723Y-108183517D02*
X132831559Y-108234025D01*
X132831559Y-108234025D02*
X132831559Y-108267697D01*
X132831559Y-108267697D02*
X132814723Y-108318204D01*
X132814723Y-108318204D02*
X132747380Y-108385548D01*
X132747380Y-108385548D02*
X132696872Y-108402384D01*
X132696872Y-108402384D02*
X132663201Y-108402384D01*
X132663201Y-108402384D02*
X132612693Y-108385548D01*
X132612693Y-108385548D02*
X132545349Y-108318204D01*
X132545349Y-108318204D02*
X132528514Y-108267697D01*
X132528514Y-108267697D02*
X132528514Y-108234025D01*
X132528514Y-108234025D02*
X132545349Y-108183517D01*
X100113143Y-133180350D02*
X100129979Y-133129842D01*
X100129979Y-133129842D02*
X100180486Y-133079335D01*
X100180486Y-133079335D02*
X100247830Y-133045663D01*
X100247830Y-133045663D02*
X100315173Y-133045663D01*
X100315173Y-133045663D02*
X100365681Y-133062499D01*
X100365681Y-133062499D02*
X100449860Y-133113006D01*
X100449860Y-133113006D02*
X100500368Y-133163514D01*
X100500368Y-133163514D02*
X100550876Y-133247693D01*
X100550876Y-133247693D02*
X100567712Y-133298201D01*
X100567712Y-133298201D02*
X100567712Y-133365544D01*
X100567712Y-133365544D02*
X100534040Y-133432888D01*
X100534040Y-133432888D02*
X100500368Y-133466560D01*
X100500368Y-133466560D02*
X100433025Y-133500231D01*
X100433025Y-133500231D02*
X100399353Y-133500231D01*
X100399353Y-133500231D02*
X100281502Y-133382380D01*
X100281502Y-133382380D02*
X100348845Y-133315037D01*
X100281502Y-133685426D02*
X99927948Y-133331873D01*
X99927948Y-133331873D02*
X99793261Y-133466560D01*
X99793261Y-133466560D02*
X99776425Y-133517067D01*
X99776425Y-133517067D02*
X99776425Y-133550739D01*
X99776425Y-133550739D02*
X99793261Y-133601247D01*
X99793261Y-133601247D02*
X99843769Y-133651754D01*
X99843769Y-133651754D02*
X99894276Y-133668590D01*
X99894276Y-133668590D02*
X99927948Y-133668590D01*
X99927948Y-133668590D02*
X99978456Y-133651754D01*
X99978456Y-133651754D02*
X100113143Y-133517067D01*
X99742754Y-134224174D02*
X99944784Y-134022144D01*
X99843769Y-134123159D02*
X99490215Y-133769605D01*
X99490215Y-133769605D02*
X99574395Y-133786441D01*
X99574395Y-133786441D02*
X99641738Y-133786441D01*
X99641738Y-133786441D02*
X99692246Y-133769605D01*
X99069319Y-134190502D02*
X99237678Y-134022143D01*
X99237678Y-134022143D02*
X99422872Y-134173666D01*
X99422872Y-134173666D02*
X99389201Y-134173666D01*
X99389201Y-134173666D02*
X99338693Y-134190502D01*
X99338693Y-134190502D02*
X99254514Y-134274681D01*
X99254514Y-134274681D02*
X99237678Y-134325189D01*
X99237678Y-134325189D02*
X99237678Y-134358861D01*
X99237678Y-134358861D02*
X99254514Y-134409368D01*
X99254514Y-134409368D02*
X99338693Y-134493548D01*
X99338693Y-134493548D02*
X99389201Y-134510384D01*
X99389201Y-134510384D02*
X99422872Y-134510384D01*
X99422872Y-134510384D02*
X99473380Y-134493548D01*
X99473380Y-134493548D02*
X99557559Y-134409368D01*
X99557559Y-134409368D02*
X99574395Y-134358861D01*
X99574395Y-134358861D02*
X99574395Y-134325189D01*
X102653143Y-133226350D02*
X102669979Y-133175842D01*
X102669979Y-133175842D02*
X102720486Y-133125335D01*
X102720486Y-133125335D02*
X102787830Y-133091663D01*
X102787830Y-133091663D02*
X102855173Y-133091663D01*
X102855173Y-133091663D02*
X102905681Y-133108499D01*
X102905681Y-133108499D02*
X102989860Y-133159006D01*
X102989860Y-133159006D02*
X103040368Y-133209514D01*
X103040368Y-133209514D02*
X103090876Y-133293693D01*
X103090876Y-133293693D02*
X103107712Y-133344201D01*
X103107712Y-133344201D02*
X103107712Y-133411544D01*
X103107712Y-133411544D02*
X103074040Y-133478888D01*
X103074040Y-133478888D02*
X103040368Y-133512560D01*
X103040368Y-133512560D02*
X102973025Y-133546231D01*
X102973025Y-133546231D02*
X102939353Y-133546231D01*
X102939353Y-133546231D02*
X102821502Y-133428380D01*
X102821502Y-133428380D02*
X102888845Y-133361037D01*
X102821502Y-133731426D02*
X102467948Y-133377873D01*
X102467948Y-133377873D02*
X102333261Y-133512560D01*
X102333261Y-133512560D02*
X102316425Y-133563067D01*
X102316425Y-133563067D02*
X102316425Y-133596739D01*
X102316425Y-133596739D02*
X102333261Y-133647247D01*
X102333261Y-133647247D02*
X102383769Y-133697754D01*
X102383769Y-133697754D02*
X102434276Y-133714590D01*
X102434276Y-133714590D02*
X102467948Y-133714590D01*
X102467948Y-133714590D02*
X102518456Y-133697754D01*
X102518456Y-133697754D02*
X102653143Y-133563067D01*
X102282754Y-134270174D02*
X102484784Y-134068144D01*
X102383769Y-134169159D02*
X102030215Y-133815605D01*
X102030215Y-133815605D02*
X102114395Y-133832441D01*
X102114395Y-133832441D02*
X102181738Y-133832441D01*
X102181738Y-133832441D02*
X102232246Y-133815605D01*
X101744006Y-134337517D02*
X101979708Y-134573219D01*
X101693498Y-134118651D02*
X102030216Y-134287010D01*
X102030216Y-134287010D02*
X101811349Y-134505876D01*
X141922965Y-105912856D02*
X141704099Y-106131722D01*
X141704099Y-106131722D02*
X141956637Y-106148558D01*
X141956637Y-106148558D02*
X141906129Y-106199066D01*
X141906129Y-106199066D02*
X141889293Y-106249573D01*
X141889293Y-106249573D02*
X141889293Y-106283245D01*
X141889293Y-106283245D02*
X141906129Y-106333753D01*
X141906129Y-106333753D02*
X141990309Y-106417932D01*
X141990309Y-106417932D02*
X142040816Y-106434768D01*
X142040816Y-106434768D02*
X142074488Y-106434768D01*
X142074488Y-106434768D02*
X142124996Y-106417932D01*
X142124996Y-106417932D02*
X142226011Y-106316917D01*
X142226011Y-106316917D02*
X142242847Y-106266409D01*
X142242847Y-106266409D02*
X142242847Y-106232737D01*
X141603084Y-106232737D02*
X141838786Y-106704141D01*
X141838786Y-106704141D02*
X141367382Y-106468439D01*
X141283203Y-106552618D02*
X141064336Y-106771485D01*
X141064336Y-106771485D02*
X141316874Y-106788321D01*
X141316874Y-106788321D02*
X141266367Y-106838828D01*
X141266367Y-106838828D02*
X141249531Y-106889336D01*
X141249531Y-106889336D02*
X141249531Y-106923008D01*
X141249531Y-106923008D02*
X141266367Y-106973515D01*
X141266367Y-106973515D02*
X141350546Y-107057695D01*
X141350546Y-107057695D02*
X141401054Y-107074530D01*
X141401054Y-107074530D02*
X141434725Y-107074530D01*
X141434725Y-107074530D02*
X141485233Y-107057695D01*
X141485233Y-107057695D02*
X141586248Y-106956679D01*
X141586248Y-106956679D02*
X141603084Y-106906172D01*
X141603084Y-106906172D02*
X141603084Y-106872500D01*
X141384218Y-107226053D02*
X141114844Y-107495427D01*
X140811799Y-107360740D02*
X140693948Y-107478591D01*
X140828635Y-107714293D02*
X140996993Y-107545934D01*
X140996993Y-107545934D02*
X140643440Y-107192381D01*
X140643440Y-107192381D02*
X140475081Y-107360740D01*
X140677112Y-107865816D02*
X140323558Y-107512263D01*
X140323558Y-107512263D02*
X140475081Y-108067847D01*
X140475081Y-108067847D02*
X140121528Y-107714293D01*
X125374784Y-132994708D02*
X125391620Y-132944201D01*
X125391620Y-132944201D02*
X125442128Y-132893693D01*
X125442128Y-132893693D02*
X125509471Y-132860021D01*
X125509471Y-132860021D02*
X125576815Y-132860021D01*
X125576815Y-132860021D02*
X125627322Y-132876857D01*
X125627322Y-132876857D02*
X125711502Y-132927365D01*
X125711502Y-132927365D02*
X125762009Y-132977872D01*
X125762009Y-132977872D02*
X125812517Y-133062052D01*
X125812517Y-133062052D02*
X125829353Y-133112559D01*
X125829353Y-133112559D02*
X125829353Y-133179903D01*
X125829353Y-133179903D02*
X125795681Y-133247246D01*
X125795681Y-133247246D02*
X125762009Y-133280918D01*
X125762009Y-133280918D02*
X125694666Y-133314590D01*
X125694666Y-133314590D02*
X125660994Y-133314590D01*
X125660994Y-133314590D02*
X125543143Y-133196739D01*
X125543143Y-133196739D02*
X125610487Y-133129395D01*
X125543143Y-133499785D02*
X125189590Y-133146231D01*
X125189590Y-133146231D02*
X125054903Y-133280918D01*
X125054903Y-133280918D02*
X125038067Y-133331426D01*
X125038067Y-133331426D02*
X125038067Y-133365098D01*
X125038067Y-133365098D02*
X125054903Y-133415605D01*
X125054903Y-133415605D02*
X125105410Y-133466113D01*
X125105410Y-133466113D02*
X125155918Y-133482949D01*
X125155918Y-133482949D02*
X125189590Y-133482949D01*
X125189590Y-133482949D02*
X125240097Y-133466113D01*
X125240097Y-133466113D02*
X125374784Y-133331426D01*
X124869708Y-133466113D02*
X124634006Y-133701815D01*
X124634006Y-133701815D02*
X125139082Y-133903846D01*
X115343143Y-107072350D02*
X115359979Y-107021842D01*
X115359979Y-107021842D02*
X115410486Y-106971335D01*
X115410486Y-106971335D02*
X115477830Y-106937663D01*
X115477830Y-106937663D02*
X115545173Y-106937663D01*
X115545173Y-106937663D02*
X115595681Y-106954499D01*
X115595681Y-106954499D02*
X115679860Y-107005006D01*
X115679860Y-107005006D02*
X115730368Y-107055514D01*
X115730368Y-107055514D02*
X115780876Y-107139693D01*
X115780876Y-107139693D02*
X115797712Y-107190201D01*
X115797712Y-107190201D02*
X115797712Y-107257544D01*
X115797712Y-107257544D02*
X115764040Y-107324888D01*
X115764040Y-107324888D02*
X115730368Y-107358560D01*
X115730368Y-107358560D02*
X115663025Y-107392231D01*
X115663025Y-107392231D02*
X115629353Y-107392231D01*
X115629353Y-107392231D02*
X115511502Y-107274380D01*
X115511502Y-107274380D02*
X115578845Y-107207037D01*
X115511502Y-107577426D02*
X115157948Y-107223873D01*
X115157948Y-107223873D02*
X115023261Y-107358560D01*
X115023261Y-107358560D02*
X115006425Y-107409067D01*
X115006425Y-107409067D02*
X115006425Y-107442739D01*
X115006425Y-107442739D02*
X115023261Y-107493247D01*
X115023261Y-107493247D02*
X115073769Y-107543754D01*
X115073769Y-107543754D02*
X115124276Y-107560590D01*
X115124276Y-107560590D02*
X115157948Y-107560590D01*
X115157948Y-107560590D02*
X115208456Y-107543754D01*
X115208456Y-107543754D02*
X115343143Y-107409067D01*
X114854902Y-107594262D02*
X114821231Y-107594262D01*
X114821231Y-107594262D02*
X114770723Y-107611098D01*
X114770723Y-107611098D02*
X114686544Y-107695277D01*
X114686544Y-107695277D02*
X114669708Y-107745785D01*
X114669708Y-107745785D02*
X114669708Y-107779457D01*
X114669708Y-107779457D02*
X114686544Y-107829964D01*
X114686544Y-107829964D02*
X114720215Y-107863636D01*
X114720215Y-107863636D02*
X114787559Y-107897308D01*
X114787559Y-107897308D02*
X115191620Y-107897308D01*
X115191620Y-107897308D02*
X114972754Y-108116174D01*
X114636036Y-108452891D02*
X114838067Y-108250861D01*
X114737052Y-108351876D02*
X114383498Y-107998323D01*
X114383498Y-107998323D02*
X114467678Y-108015158D01*
X114467678Y-108015158D02*
X114535021Y-108015158D01*
X114535021Y-108015158D02*
X114585529Y-107998323D01*
X105041621Y-133077872D02*
X105058456Y-133027365D01*
X105058456Y-133027365D02*
X105108964Y-132976857D01*
X105108964Y-132976857D02*
X105176308Y-132943185D01*
X105176308Y-132943185D02*
X105243651Y-132943185D01*
X105243651Y-132943185D02*
X105294159Y-132960021D01*
X105294159Y-132960021D02*
X105378338Y-133010529D01*
X105378338Y-133010529D02*
X105428846Y-133061036D01*
X105428846Y-133061036D02*
X105479353Y-133145216D01*
X105479353Y-133145216D02*
X105496189Y-133195723D01*
X105496189Y-133195723D02*
X105496189Y-133263067D01*
X105496189Y-133263067D02*
X105462517Y-133330410D01*
X105462517Y-133330410D02*
X105428846Y-133364082D01*
X105428846Y-133364082D02*
X105361502Y-133397754D01*
X105361502Y-133397754D02*
X105327830Y-133397754D01*
X105327830Y-133397754D02*
X105209979Y-133279903D01*
X105209979Y-133279903D02*
X105277323Y-133212559D01*
X105209979Y-133582948D02*
X104856426Y-133229395D01*
X104856426Y-133229395D02*
X105007949Y-133784979D01*
X105007949Y-133784979D02*
X104654395Y-133431426D01*
X104839590Y-133953338D02*
X104486036Y-133599785D01*
X104486036Y-133599785D02*
X104401857Y-133683964D01*
X104401857Y-133683964D02*
X104368185Y-133751308D01*
X104368185Y-133751308D02*
X104368185Y-133818651D01*
X104368185Y-133818651D02*
X104385021Y-133869159D01*
X104385021Y-133869159D02*
X104435529Y-133953338D01*
X104435529Y-133953338D02*
X104486036Y-134003846D01*
X104486036Y-134003846D02*
X104570216Y-134054353D01*
X104570216Y-134054353D02*
X104620723Y-134071189D01*
X104620723Y-134071189D02*
X104688067Y-134071189D01*
X104688067Y-134071189D02*
X104755410Y-134037517D01*
X104755410Y-134037517D02*
X104839590Y-133953338D01*
X137770131Y-105570766D02*
X137601772Y-105739125D01*
X137904818Y-105638110D02*
X137433414Y-105402407D01*
X137433414Y-105402407D02*
X137669116Y-105873812D01*
X137551265Y-105991663D02*
X137197712Y-105638109D01*
X137197712Y-105638109D02*
X137113532Y-105722289D01*
X137113532Y-105722289D02*
X137079860Y-105789632D01*
X137079860Y-105789632D02*
X137079860Y-105856976D01*
X137079860Y-105856976D02*
X137096696Y-105907483D01*
X137096696Y-105907483D02*
X137147204Y-105991663D01*
X137147204Y-105991663D02*
X137197712Y-106042170D01*
X137197712Y-106042170D02*
X137281891Y-106092678D01*
X137281891Y-106092678D02*
X137332399Y-106109514D01*
X137332399Y-106109514D02*
X137399742Y-106109514D01*
X137399742Y-106109514D02*
X137467086Y-106075842D01*
X137467086Y-106075842D02*
X137551265Y-105991663D01*
X136962009Y-106513575D02*
X136995681Y-106513575D01*
X136995681Y-106513575D02*
X137063025Y-106479903D01*
X137063025Y-106479903D02*
X137096696Y-106446231D01*
X137096696Y-106446231D02*
X137130368Y-106378888D01*
X137130368Y-106378888D02*
X137130368Y-106311544D01*
X137130368Y-106311544D02*
X137113532Y-106261037D01*
X137113532Y-106261037D02*
X137063025Y-106176857D01*
X137063025Y-106176857D02*
X137012517Y-106126350D01*
X137012517Y-106126350D02*
X136928338Y-106075842D01*
X136928338Y-106075842D02*
X136877830Y-106059006D01*
X136877830Y-106059006D02*
X136810486Y-106059006D01*
X136810486Y-106059006D02*
X136743143Y-106092678D01*
X136743143Y-106092678D02*
X136709471Y-106126350D01*
X136709471Y-106126350D02*
X136675799Y-106193693D01*
X136675799Y-106193693D02*
X136675799Y-106227365D01*
X136962009Y-106648262D02*
X136692635Y-106917636D01*
X136271739Y-106564082D02*
X136507441Y-107035487D01*
X136507441Y-107035487D02*
X136036036Y-106799784D01*
X136069708Y-107473219D02*
X136019201Y-107187009D01*
X136271739Y-107271189D02*
X135918186Y-106917635D01*
X135918186Y-106917635D02*
X135783499Y-107052322D01*
X135783499Y-107052322D02*
X135766663Y-107102830D01*
X135766663Y-107102830D02*
X135766663Y-107136502D01*
X135766663Y-107136502D02*
X135783499Y-107187009D01*
X135783499Y-107187009D02*
X135834006Y-107237517D01*
X135834006Y-107237517D02*
X135884514Y-107254353D01*
X135884514Y-107254353D02*
X135918186Y-107254353D01*
X135918186Y-107254353D02*
X135968693Y-107237517D01*
X135968693Y-107237517D02*
X136103380Y-107102830D01*
X135732991Y-107439547D02*
X135615140Y-107557399D01*
X135749827Y-107793101D02*
X135918186Y-107624742D01*
X135918186Y-107624742D02*
X135564632Y-107271189D01*
X135564632Y-107271189D02*
X135396273Y-107439547D01*
X135295258Y-107877280D02*
X135413109Y-107759429D01*
X135598304Y-107944624D02*
X135244751Y-107591070D01*
X135244751Y-107591070D02*
X135076392Y-107759429D01*
X110273143Y-107072350D02*
X110289979Y-107021842D01*
X110289979Y-107021842D02*
X110340486Y-106971335D01*
X110340486Y-106971335D02*
X110407830Y-106937663D01*
X110407830Y-106937663D02*
X110475173Y-106937663D01*
X110475173Y-106937663D02*
X110525681Y-106954499D01*
X110525681Y-106954499D02*
X110609860Y-107005006D01*
X110609860Y-107005006D02*
X110660368Y-107055514D01*
X110660368Y-107055514D02*
X110710876Y-107139693D01*
X110710876Y-107139693D02*
X110727712Y-107190201D01*
X110727712Y-107190201D02*
X110727712Y-107257544D01*
X110727712Y-107257544D02*
X110694040Y-107324888D01*
X110694040Y-107324888D02*
X110660368Y-107358560D01*
X110660368Y-107358560D02*
X110593025Y-107392231D01*
X110593025Y-107392231D02*
X110559353Y-107392231D01*
X110559353Y-107392231D02*
X110441502Y-107274380D01*
X110441502Y-107274380D02*
X110508845Y-107207037D01*
X110441502Y-107577426D02*
X110087948Y-107223873D01*
X110087948Y-107223873D02*
X109953261Y-107358560D01*
X109953261Y-107358560D02*
X109936425Y-107409067D01*
X109936425Y-107409067D02*
X109936425Y-107442739D01*
X109936425Y-107442739D02*
X109953261Y-107493247D01*
X109953261Y-107493247D02*
X110003769Y-107543754D01*
X110003769Y-107543754D02*
X110054276Y-107560590D01*
X110054276Y-107560590D02*
X110087948Y-107560590D01*
X110087948Y-107560590D02*
X110138456Y-107543754D01*
X110138456Y-107543754D02*
X110273143Y-107409067D01*
X109902754Y-108116174D02*
X110104784Y-107914144D01*
X110003769Y-108015159D02*
X109650215Y-107661605D01*
X109650215Y-107661605D02*
X109734395Y-107678441D01*
X109734395Y-107678441D02*
X109801738Y-107678441D01*
X109801738Y-107678441D02*
X109852246Y-107661605D01*
X109734395Y-108284532D02*
X109667052Y-108351876D01*
X109667052Y-108351876D02*
X109616544Y-108368712D01*
X109616544Y-108368712D02*
X109582872Y-108368712D01*
X109582872Y-108368712D02*
X109498693Y-108351876D01*
X109498693Y-108351876D02*
X109414514Y-108301368D01*
X109414514Y-108301368D02*
X109279827Y-108166681D01*
X109279827Y-108166681D02*
X109262991Y-108116174D01*
X109262991Y-108116174D02*
X109262991Y-108082502D01*
X109262991Y-108082502D02*
X109279827Y-108031994D01*
X109279827Y-108031994D02*
X109347170Y-107964651D01*
X109347170Y-107964651D02*
X109397678Y-107947815D01*
X109397678Y-107947815D02*
X109431349Y-107947815D01*
X109431349Y-107947815D02*
X109481857Y-107964651D01*
X109481857Y-107964651D02*
X109566036Y-108048830D01*
X109566036Y-108048830D02*
X109582872Y-108099338D01*
X109582872Y-108099338D02*
X109582872Y-108133010D01*
X109582872Y-108133010D02*
X109566036Y-108183517D01*
X109566036Y-108183517D02*
X109498693Y-108250861D01*
X109498693Y-108250861D02*
X109448185Y-108267697D01*
X109448185Y-108267697D02*
X109414514Y-108267697D01*
X109414514Y-108267697D02*
X109364006Y-108250861D01*
X125513143Y-107072350D02*
X125529979Y-107021842D01*
X125529979Y-107021842D02*
X125580486Y-106971335D01*
X125580486Y-106971335D02*
X125647830Y-106937663D01*
X125647830Y-106937663D02*
X125715173Y-106937663D01*
X125715173Y-106937663D02*
X125765681Y-106954499D01*
X125765681Y-106954499D02*
X125849860Y-107005006D01*
X125849860Y-107005006D02*
X125900368Y-107055514D01*
X125900368Y-107055514D02*
X125950876Y-107139693D01*
X125950876Y-107139693D02*
X125967712Y-107190201D01*
X125967712Y-107190201D02*
X125967712Y-107257544D01*
X125967712Y-107257544D02*
X125934040Y-107324888D01*
X125934040Y-107324888D02*
X125900368Y-107358560D01*
X125900368Y-107358560D02*
X125833025Y-107392231D01*
X125833025Y-107392231D02*
X125799353Y-107392231D01*
X125799353Y-107392231D02*
X125681502Y-107274380D01*
X125681502Y-107274380D02*
X125748845Y-107207037D01*
X125681502Y-107577426D02*
X125327948Y-107223873D01*
X125327948Y-107223873D02*
X125193261Y-107358560D01*
X125193261Y-107358560D02*
X125176425Y-107409067D01*
X125176425Y-107409067D02*
X125176425Y-107442739D01*
X125176425Y-107442739D02*
X125193261Y-107493247D01*
X125193261Y-107493247D02*
X125243769Y-107543754D01*
X125243769Y-107543754D02*
X125294276Y-107560590D01*
X125294276Y-107560590D02*
X125327948Y-107560590D01*
X125327948Y-107560590D02*
X125378456Y-107543754D01*
X125378456Y-107543754D02*
X125513143Y-107409067D01*
X125024902Y-107594262D02*
X124991231Y-107594262D01*
X124991231Y-107594262D02*
X124940723Y-107611098D01*
X124940723Y-107611098D02*
X124856544Y-107695277D01*
X124856544Y-107695277D02*
X124839708Y-107745785D01*
X124839708Y-107745785D02*
X124839708Y-107779457D01*
X124839708Y-107779457D02*
X124856544Y-107829964D01*
X124856544Y-107829964D02*
X124890215Y-107863636D01*
X124890215Y-107863636D02*
X124957559Y-107897308D01*
X124957559Y-107897308D02*
X125361620Y-107897308D01*
X125361620Y-107897308D02*
X125142754Y-108116174D01*
X124486155Y-108065666D02*
X124553498Y-107998323D01*
X124553498Y-107998323D02*
X124604006Y-107981487D01*
X124604006Y-107981487D02*
X124637678Y-107981487D01*
X124637678Y-107981487D02*
X124721857Y-107998323D01*
X124721857Y-107998323D02*
X124806036Y-108048830D01*
X124806036Y-108048830D02*
X124940723Y-108183517D01*
X124940723Y-108183517D02*
X124957559Y-108234025D01*
X124957559Y-108234025D02*
X124957559Y-108267697D01*
X124957559Y-108267697D02*
X124940723Y-108318204D01*
X124940723Y-108318204D02*
X124873380Y-108385548D01*
X124873380Y-108385548D02*
X124822872Y-108402384D01*
X124822872Y-108402384D02*
X124789201Y-108402384D01*
X124789201Y-108402384D02*
X124738693Y-108385548D01*
X124738693Y-108385548D02*
X124654514Y-108301368D01*
X124654514Y-108301368D02*
X124637678Y-108250861D01*
X124637678Y-108250861D02*
X124637678Y-108217189D01*
X124637678Y-108217189D02*
X124654514Y-108166681D01*
X124654514Y-108166681D02*
X124721857Y-108099338D01*
X124721857Y-108099338D02*
X124772365Y-108082502D01*
X124772365Y-108082502D02*
X124806036Y-108082502D01*
X124806036Y-108082502D02*
X124856544Y-108099338D01*
X120264784Y-133094708D02*
X120281620Y-133044201D01*
X120281620Y-133044201D02*
X120332128Y-132993693D01*
X120332128Y-132993693D02*
X120399471Y-132960021D01*
X120399471Y-132960021D02*
X120466815Y-132960021D01*
X120466815Y-132960021D02*
X120517322Y-132976857D01*
X120517322Y-132976857D02*
X120601502Y-133027365D01*
X120601502Y-133027365D02*
X120652009Y-133077872D01*
X120652009Y-133077872D02*
X120702517Y-133162052D01*
X120702517Y-133162052D02*
X120719353Y-133212559D01*
X120719353Y-133212559D02*
X120719353Y-133279903D01*
X120719353Y-133279903D02*
X120685681Y-133347246D01*
X120685681Y-133347246D02*
X120652009Y-133380918D01*
X120652009Y-133380918D02*
X120584666Y-133414590D01*
X120584666Y-133414590D02*
X120550994Y-133414590D01*
X120550994Y-133414590D02*
X120433143Y-133296739D01*
X120433143Y-133296739D02*
X120500487Y-133229395D01*
X120433143Y-133599785D02*
X120079590Y-133246231D01*
X120079590Y-133246231D02*
X119944903Y-133380918D01*
X119944903Y-133380918D02*
X119928067Y-133431426D01*
X119928067Y-133431426D02*
X119928067Y-133465098D01*
X119928067Y-133465098D02*
X119944903Y-133515605D01*
X119944903Y-133515605D02*
X119995410Y-133566113D01*
X119995410Y-133566113D02*
X120045918Y-133582949D01*
X120045918Y-133582949D02*
X120079590Y-133582949D01*
X120079590Y-133582949D02*
X120130097Y-133566113D01*
X120130097Y-133566113D02*
X120264784Y-133431426D01*
X120062754Y-133970174D02*
X119995410Y-134037517D01*
X119995410Y-134037517D02*
X119944903Y-134054353D01*
X119944903Y-134054353D02*
X119911231Y-134054353D01*
X119911231Y-134054353D02*
X119827052Y-134037517D01*
X119827052Y-134037517D02*
X119742872Y-133987010D01*
X119742872Y-133987010D02*
X119608185Y-133852323D01*
X119608185Y-133852323D02*
X119591349Y-133801815D01*
X119591349Y-133801815D02*
X119591349Y-133768143D01*
X119591349Y-133768143D02*
X119608185Y-133717636D01*
X119608185Y-133717636D02*
X119675529Y-133650292D01*
X119675529Y-133650292D02*
X119726036Y-133633456D01*
X119726036Y-133633456D02*
X119759708Y-133633456D01*
X119759708Y-133633456D02*
X119810216Y-133650292D01*
X119810216Y-133650292D02*
X119894395Y-133734472D01*
X119894395Y-133734472D02*
X119911231Y-133784979D01*
X119911231Y-133784979D02*
X119911231Y-133818651D01*
X119911231Y-133818651D02*
X119894395Y-133869159D01*
X119894395Y-133869159D02*
X119827052Y-133936502D01*
X119827052Y-133936502D02*
X119776544Y-133953338D01*
X119776544Y-133953338D02*
X119742872Y-133953338D01*
X119742872Y-133953338D02*
X119692365Y-133936502D01*
X131030876Y-107106022D02*
X130862517Y-107274380D01*
X131165563Y-107173365D02*
X130694158Y-106937663D01*
X130694158Y-106937663D02*
X130929860Y-107409067D01*
X130290097Y-107375395D02*
X130306933Y-107324888D01*
X130306933Y-107324888D02*
X130357441Y-107274380D01*
X130357441Y-107274380D02*
X130424784Y-107240708D01*
X130424784Y-107240708D02*
X130492128Y-107240708D01*
X130492128Y-107240708D02*
X130542636Y-107257544D01*
X130542636Y-107257544D02*
X130626815Y-107308052D01*
X130626815Y-107308052D02*
X130677323Y-107358559D01*
X130677323Y-107358559D02*
X130727830Y-107442739D01*
X130727830Y-107442739D02*
X130744666Y-107493246D01*
X130744666Y-107493246D02*
X130744666Y-107560590D01*
X130744666Y-107560590D02*
X130710994Y-107627933D01*
X130710994Y-107627933D02*
X130677323Y-107661605D01*
X130677323Y-107661605D02*
X130609979Y-107695277D01*
X130609979Y-107695277D02*
X130576307Y-107695277D01*
X130576307Y-107695277D02*
X130458456Y-107577426D01*
X130458456Y-107577426D02*
X130525800Y-107510082D01*
X130458456Y-107880471D02*
X130104903Y-107526918D01*
X130104903Y-107526918D02*
X130256426Y-108082502D01*
X130256426Y-108082502D02*
X129902872Y-107728949D01*
X130088067Y-108250861D02*
X129734513Y-107897308D01*
X129734513Y-107897308D02*
X129650334Y-107981487D01*
X129650334Y-107981487D02*
X129616662Y-108048831D01*
X129616662Y-108048831D02*
X129616662Y-108116174D01*
X129616662Y-108116174D02*
X129633498Y-108166682D01*
X129633498Y-108166682D02*
X129684006Y-108250861D01*
X129684006Y-108250861D02*
X129734513Y-108301369D01*
X129734513Y-108301369D02*
X129818693Y-108351876D01*
X129818693Y-108351876D02*
X129869200Y-108368712D01*
X129869200Y-108368712D02*
X129936544Y-108368712D01*
X129936544Y-108368712D02*
X130003887Y-108335040D01*
X130003887Y-108335040D02*
X130088067Y-108250861D01*
X115353143Y-133180350D02*
X115369979Y-133129842D01*
X115369979Y-133129842D02*
X115420486Y-133079335D01*
X115420486Y-133079335D02*
X115487830Y-133045663D01*
X115487830Y-133045663D02*
X115555173Y-133045663D01*
X115555173Y-133045663D02*
X115605681Y-133062499D01*
X115605681Y-133062499D02*
X115689860Y-133113006D01*
X115689860Y-133113006D02*
X115740368Y-133163514D01*
X115740368Y-133163514D02*
X115790876Y-133247693D01*
X115790876Y-133247693D02*
X115807712Y-133298201D01*
X115807712Y-133298201D02*
X115807712Y-133365544D01*
X115807712Y-133365544D02*
X115774040Y-133432888D01*
X115774040Y-133432888D02*
X115740368Y-133466560D01*
X115740368Y-133466560D02*
X115673025Y-133500231D01*
X115673025Y-133500231D02*
X115639353Y-133500231D01*
X115639353Y-133500231D02*
X115521502Y-133382380D01*
X115521502Y-133382380D02*
X115588845Y-133315037D01*
X115521502Y-133685426D02*
X115167948Y-133331873D01*
X115167948Y-133331873D02*
X115033261Y-133466560D01*
X115033261Y-133466560D02*
X115016425Y-133517067D01*
X115016425Y-133517067D02*
X115016425Y-133550739D01*
X115016425Y-133550739D02*
X115033261Y-133601247D01*
X115033261Y-133601247D02*
X115083769Y-133651754D01*
X115083769Y-133651754D02*
X115134276Y-133668590D01*
X115134276Y-133668590D02*
X115167948Y-133668590D01*
X115167948Y-133668590D02*
X115218456Y-133651754D01*
X115218456Y-133651754D02*
X115353143Y-133517067D01*
X114982754Y-134224174D02*
X115184784Y-134022144D01*
X115083769Y-134123159D02*
X114730215Y-133769605D01*
X114730215Y-133769605D02*
X114814395Y-133786441D01*
X114814395Y-133786441D02*
X114881738Y-133786441D01*
X114881738Y-133786441D02*
X114932246Y-133769605D01*
X114410334Y-134089487D02*
X114376662Y-134123158D01*
X114376662Y-134123158D02*
X114359827Y-134173666D01*
X114359827Y-134173666D02*
X114359827Y-134207338D01*
X114359827Y-134207338D02*
X114376662Y-134257845D01*
X114376662Y-134257845D02*
X114427170Y-134342025D01*
X114427170Y-134342025D02*
X114511349Y-134426204D01*
X114511349Y-134426204D02*
X114595529Y-134476712D01*
X114595529Y-134476712D02*
X114646036Y-134493548D01*
X114646036Y-134493548D02*
X114679708Y-134493548D01*
X114679708Y-134493548D02*
X114730216Y-134476712D01*
X114730216Y-134476712D02*
X114763888Y-134443040D01*
X114763888Y-134443040D02*
X114780723Y-134392532D01*
X114780723Y-134392532D02*
X114780723Y-134358861D01*
X114780723Y-134358861D02*
X114763888Y-134308353D01*
X114763888Y-134308353D02*
X114713380Y-134224174D01*
X114713380Y-134224174D02*
X114629201Y-134139994D01*
X114629201Y-134139994D02*
X114545021Y-134089487D01*
X114545021Y-134089487D02*
X114494514Y-134072651D01*
X114494514Y-134072651D02*
X114460842Y-134072651D01*
X114460842Y-134072651D02*
X114410334Y-134089487D01*
X117741621Y-107477872D02*
X117758456Y-107427365D01*
X117758456Y-107427365D02*
X117808964Y-107376857D01*
X117808964Y-107376857D02*
X117876308Y-107343185D01*
X117876308Y-107343185D02*
X117943651Y-107343185D01*
X117943651Y-107343185D02*
X117994159Y-107360021D01*
X117994159Y-107360021D02*
X118078338Y-107410529D01*
X118078338Y-107410529D02*
X118128846Y-107461036D01*
X118128846Y-107461036D02*
X118179353Y-107545216D01*
X118179353Y-107545216D02*
X118196189Y-107595723D01*
X118196189Y-107595723D02*
X118196189Y-107663067D01*
X118196189Y-107663067D02*
X118162517Y-107730410D01*
X118162517Y-107730410D02*
X118128846Y-107764082D01*
X118128846Y-107764082D02*
X118061502Y-107797754D01*
X118061502Y-107797754D02*
X118027830Y-107797754D01*
X118027830Y-107797754D02*
X117909979Y-107679903D01*
X117909979Y-107679903D02*
X117977323Y-107612559D01*
X117909979Y-107982948D02*
X117556426Y-107629395D01*
X117556426Y-107629395D02*
X117707949Y-108184979D01*
X117707949Y-108184979D02*
X117354395Y-107831426D01*
X117539590Y-108353338D02*
X117186036Y-107999785D01*
X117186036Y-107999785D02*
X117101857Y-108083964D01*
X117101857Y-108083964D02*
X117068185Y-108151308D01*
X117068185Y-108151308D02*
X117068185Y-108218651D01*
X117068185Y-108218651D02*
X117085021Y-108269159D01*
X117085021Y-108269159D02*
X117135529Y-108353338D01*
X117135529Y-108353338D02*
X117186036Y-108403846D01*
X117186036Y-108403846D02*
X117270216Y-108454353D01*
X117270216Y-108454353D02*
X117320723Y-108471189D01*
X117320723Y-108471189D02*
X117388067Y-108471189D01*
X117388067Y-108471189D02*
X117455410Y-108437517D01*
X117455410Y-108437517D02*
X117539590Y-108353338D01*
X100113143Y-107072350D02*
X100129979Y-107021842D01*
X100129979Y-107021842D02*
X100180486Y-106971335D01*
X100180486Y-106971335D02*
X100247830Y-106937663D01*
X100247830Y-106937663D02*
X100315173Y-106937663D01*
X100315173Y-106937663D02*
X100365681Y-106954499D01*
X100365681Y-106954499D02*
X100449860Y-107005006D01*
X100449860Y-107005006D02*
X100500368Y-107055514D01*
X100500368Y-107055514D02*
X100550876Y-107139693D01*
X100550876Y-107139693D02*
X100567712Y-107190201D01*
X100567712Y-107190201D02*
X100567712Y-107257544D01*
X100567712Y-107257544D02*
X100534040Y-107324888D01*
X100534040Y-107324888D02*
X100500368Y-107358560D01*
X100500368Y-107358560D02*
X100433025Y-107392231D01*
X100433025Y-107392231D02*
X100399353Y-107392231D01*
X100399353Y-107392231D02*
X100281502Y-107274380D01*
X100281502Y-107274380D02*
X100348845Y-107207037D01*
X100281502Y-107577426D02*
X99927948Y-107223873D01*
X99927948Y-107223873D02*
X99793261Y-107358560D01*
X99793261Y-107358560D02*
X99776425Y-107409067D01*
X99776425Y-107409067D02*
X99776425Y-107442739D01*
X99776425Y-107442739D02*
X99793261Y-107493247D01*
X99793261Y-107493247D02*
X99843769Y-107543754D01*
X99843769Y-107543754D02*
X99894276Y-107560590D01*
X99894276Y-107560590D02*
X99927948Y-107560590D01*
X99927948Y-107560590D02*
X99978456Y-107543754D01*
X99978456Y-107543754D02*
X100113143Y-107409067D01*
X99742754Y-108116174D02*
X99944784Y-107914144D01*
X99843769Y-108015159D02*
X99490215Y-107661605D01*
X99490215Y-107661605D02*
X99574395Y-107678441D01*
X99574395Y-107678441D02*
X99641738Y-107678441D01*
X99641738Y-107678441D02*
X99692246Y-107661605D01*
X99086155Y-108065666D02*
X99153498Y-107998323D01*
X99153498Y-107998323D02*
X99204006Y-107981487D01*
X99204006Y-107981487D02*
X99237678Y-107981487D01*
X99237678Y-107981487D02*
X99321857Y-107998323D01*
X99321857Y-107998323D02*
X99406036Y-108048830D01*
X99406036Y-108048830D02*
X99540723Y-108183517D01*
X99540723Y-108183517D02*
X99557559Y-108234025D01*
X99557559Y-108234025D02*
X99557559Y-108267697D01*
X99557559Y-108267697D02*
X99540723Y-108318204D01*
X99540723Y-108318204D02*
X99473380Y-108385548D01*
X99473380Y-108385548D02*
X99422872Y-108402384D01*
X99422872Y-108402384D02*
X99389201Y-108402384D01*
X99389201Y-108402384D02*
X99338693Y-108385548D01*
X99338693Y-108385548D02*
X99254514Y-108301368D01*
X99254514Y-108301368D02*
X99237678Y-108250861D01*
X99237678Y-108250861D02*
X99237678Y-108217189D01*
X99237678Y-108217189D02*
X99254514Y-108166681D01*
X99254514Y-108166681D02*
X99321857Y-108099338D01*
X99321857Y-108099338D02*
X99372365Y-108082502D01*
X99372365Y-108082502D02*
X99406036Y-108082502D01*
X99406036Y-108082502D02*
X99456544Y-108099338D01*
X98001000Y-114065476D02*
X98024809Y-114136904D01*
X98024809Y-114136904D02*
X98024809Y-114255952D01*
X98024809Y-114255952D02*
X98001000Y-114303571D01*
X98001000Y-114303571D02*
X97977190Y-114327380D01*
X97977190Y-114327380D02*
X97929571Y-114351190D01*
X97929571Y-114351190D02*
X97881952Y-114351190D01*
X97881952Y-114351190D02*
X97834333Y-114327380D01*
X97834333Y-114327380D02*
X97810523Y-114303571D01*
X97810523Y-114303571D02*
X97786714Y-114255952D01*
X97786714Y-114255952D02*
X97762904Y-114160714D01*
X97762904Y-114160714D02*
X97739095Y-114113095D01*
X97739095Y-114113095D02*
X97715285Y-114089285D01*
X97715285Y-114089285D02*
X97667666Y-114065476D01*
X97667666Y-114065476D02*
X97620047Y-114065476D01*
X97620047Y-114065476D02*
X97572428Y-114089285D01*
X97572428Y-114089285D02*
X97548619Y-114113095D01*
X97548619Y-114113095D02*
X97524809Y-114160714D01*
X97524809Y-114160714D02*
X97524809Y-114279761D01*
X97524809Y-114279761D02*
X97548619Y-114351190D01*
X97524809Y-114517856D02*
X98024809Y-114636904D01*
X98024809Y-114636904D02*
X97667666Y-114732142D01*
X97667666Y-114732142D02*
X98024809Y-114827380D01*
X98024809Y-114827380D02*
X97524809Y-114946428D01*
X98024809Y-115136904D02*
X97524809Y-115136904D01*
X97524809Y-115136904D02*
X97524809Y-115255952D01*
X97524809Y-115255952D02*
X97548619Y-115327380D01*
X97548619Y-115327380D02*
X97596238Y-115374999D01*
X97596238Y-115374999D02*
X97643857Y-115398809D01*
X97643857Y-115398809D02*
X97739095Y-115422618D01*
X97739095Y-115422618D02*
X97810523Y-115422618D01*
X97810523Y-115422618D02*
X97905761Y-115398809D01*
X97905761Y-115398809D02*
X97953380Y-115374999D01*
X97953380Y-115374999D02*
X98001000Y-115327380D01*
X98001000Y-115327380D02*
X98024809Y-115255952D01*
X98024809Y-115255952D02*
X98024809Y-115136904D01*
X98024809Y-115636904D02*
X97524809Y-115636904D01*
X97524809Y-115970237D02*
X97524809Y-116065475D01*
X97524809Y-116065475D02*
X97548619Y-116113094D01*
X97548619Y-116113094D02*
X97596238Y-116160713D01*
X97596238Y-116160713D02*
X97691476Y-116184523D01*
X97691476Y-116184523D02*
X97858142Y-116184523D01*
X97858142Y-116184523D02*
X97953380Y-116160713D01*
X97953380Y-116160713D02*
X98001000Y-116113094D01*
X98001000Y-116113094D02*
X98024809Y-116065475D01*
X98024809Y-116065475D02*
X98024809Y-115970237D01*
X98024809Y-115970237D02*
X98001000Y-115922618D01*
X98001000Y-115922618D02*
X97953380Y-115874999D01*
X97953380Y-115874999D02*
X97858142Y-115851190D01*
X97858142Y-115851190D02*
X97691476Y-115851190D01*
X97691476Y-115851190D02*
X97596238Y-115874999D01*
X97596238Y-115874999D02*
X97548619Y-115922618D01*
X97548619Y-115922618D02*
X97524809Y-115970237D01*
X138143142Y-107192679D02*
X137924276Y-107411545D01*
X137924276Y-107411545D02*
X138176814Y-107428381D01*
X138176814Y-107428381D02*
X138126306Y-107478888D01*
X138126306Y-107478888D02*
X138109471Y-107529396D01*
X138109471Y-107529396D02*
X138109471Y-107563068D01*
X138109471Y-107563068D02*
X138126306Y-107613575D01*
X138126306Y-107613575D02*
X138210486Y-107697755D01*
X138210486Y-107697755D02*
X138260994Y-107714591D01*
X138260994Y-107714591D02*
X138294665Y-107714591D01*
X138294665Y-107714591D02*
X138345173Y-107697755D01*
X138345173Y-107697755D02*
X138446188Y-107596740D01*
X138446188Y-107596740D02*
X138463024Y-107546232D01*
X138463024Y-107546232D02*
X138463024Y-107512560D01*
X137823261Y-107512560D02*
X138058963Y-107983964D01*
X138058963Y-107983964D02*
X137587559Y-107748262D01*
X137503380Y-107832441D02*
X137284513Y-108051308D01*
X137284513Y-108051308D02*
X137537051Y-108068143D01*
X137537051Y-108068143D02*
X137486544Y-108118651D01*
X137486544Y-108118651D02*
X137469708Y-108169159D01*
X137469708Y-108169159D02*
X137469708Y-108202830D01*
X137469708Y-108202830D02*
X137486544Y-108253338D01*
X137486544Y-108253338D02*
X137570723Y-108337517D01*
X137570723Y-108337517D02*
X137621231Y-108354353D01*
X137621231Y-108354353D02*
X137654903Y-108354353D01*
X137654903Y-108354353D02*
X137705410Y-108337517D01*
X137705410Y-108337517D02*
X137806426Y-108236502D01*
X137806426Y-108236502D02*
X137823261Y-108185995D01*
X137823261Y-108185995D02*
X137823261Y-108152323D01*
X110273143Y-133326350D02*
X110289979Y-133275842D01*
X110289979Y-133275842D02*
X110340486Y-133225335D01*
X110340486Y-133225335D02*
X110407830Y-133191663D01*
X110407830Y-133191663D02*
X110475173Y-133191663D01*
X110475173Y-133191663D02*
X110525681Y-133208499D01*
X110525681Y-133208499D02*
X110609860Y-133259006D01*
X110609860Y-133259006D02*
X110660368Y-133309514D01*
X110660368Y-133309514D02*
X110710876Y-133393693D01*
X110710876Y-133393693D02*
X110727712Y-133444201D01*
X110727712Y-133444201D02*
X110727712Y-133511544D01*
X110727712Y-133511544D02*
X110694040Y-133578888D01*
X110694040Y-133578888D02*
X110660368Y-133612560D01*
X110660368Y-133612560D02*
X110593025Y-133646231D01*
X110593025Y-133646231D02*
X110559353Y-133646231D01*
X110559353Y-133646231D02*
X110441502Y-133528380D01*
X110441502Y-133528380D02*
X110508845Y-133461037D01*
X110441502Y-133831426D02*
X110087948Y-133477873D01*
X110087948Y-133477873D02*
X109953261Y-133612560D01*
X109953261Y-133612560D02*
X109936425Y-133663067D01*
X109936425Y-133663067D02*
X109936425Y-133696739D01*
X109936425Y-133696739D02*
X109953261Y-133747247D01*
X109953261Y-133747247D02*
X110003769Y-133797754D01*
X110003769Y-133797754D02*
X110054276Y-133814590D01*
X110054276Y-133814590D02*
X110087948Y-133814590D01*
X110087948Y-133814590D02*
X110138456Y-133797754D01*
X110138456Y-133797754D02*
X110273143Y-133663067D01*
X109902754Y-134370174D02*
X110104784Y-134168144D01*
X110003769Y-134269159D02*
X109650215Y-133915605D01*
X109650215Y-133915605D02*
X109734395Y-133932441D01*
X109734395Y-133932441D02*
X109801738Y-133932441D01*
X109801738Y-133932441D02*
X109852246Y-133915605D01*
X109448185Y-134184979D02*
X109414514Y-134184979D01*
X109414514Y-134184979D02*
X109364006Y-134201815D01*
X109364006Y-134201815D02*
X109279827Y-134285994D01*
X109279827Y-134285994D02*
X109262991Y-134336502D01*
X109262991Y-134336502D02*
X109262991Y-134370174D01*
X109262991Y-134370174D02*
X109279827Y-134420681D01*
X109279827Y-134420681D02*
X109313498Y-134454353D01*
X109313498Y-134454353D02*
X109380842Y-134488025D01*
X109380842Y-134488025D02*
X109784903Y-134488025D01*
X109784903Y-134488025D02*
X109566036Y-134706891D01*
X107733143Y-107072350D02*
X107749979Y-107021842D01*
X107749979Y-107021842D02*
X107800486Y-106971335D01*
X107800486Y-106971335D02*
X107867830Y-106937663D01*
X107867830Y-106937663D02*
X107935173Y-106937663D01*
X107935173Y-106937663D02*
X107985681Y-106954499D01*
X107985681Y-106954499D02*
X108069860Y-107005006D01*
X108069860Y-107005006D02*
X108120368Y-107055514D01*
X108120368Y-107055514D02*
X108170876Y-107139693D01*
X108170876Y-107139693D02*
X108187712Y-107190201D01*
X108187712Y-107190201D02*
X108187712Y-107257544D01*
X108187712Y-107257544D02*
X108154040Y-107324888D01*
X108154040Y-107324888D02*
X108120368Y-107358560D01*
X108120368Y-107358560D02*
X108053025Y-107392231D01*
X108053025Y-107392231D02*
X108019353Y-107392231D01*
X108019353Y-107392231D02*
X107901502Y-107274380D01*
X107901502Y-107274380D02*
X107968845Y-107207037D01*
X107901502Y-107577426D02*
X107547948Y-107223873D01*
X107547948Y-107223873D02*
X107413261Y-107358560D01*
X107413261Y-107358560D02*
X107396425Y-107409067D01*
X107396425Y-107409067D02*
X107396425Y-107442739D01*
X107396425Y-107442739D02*
X107413261Y-107493247D01*
X107413261Y-107493247D02*
X107463769Y-107543754D01*
X107463769Y-107543754D02*
X107514276Y-107560590D01*
X107514276Y-107560590D02*
X107547948Y-107560590D01*
X107547948Y-107560590D02*
X107598456Y-107543754D01*
X107598456Y-107543754D02*
X107733143Y-107409067D01*
X107362754Y-108116174D02*
X107564784Y-107914144D01*
X107463769Y-108015159D02*
X107110215Y-107661605D01*
X107110215Y-107661605D02*
X107194395Y-107678441D01*
X107194395Y-107678441D02*
X107261738Y-107678441D01*
X107261738Y-107678441D02*
X107312246Y-107661605D01*
X106958693Y-108116174D02*
X106975529Y-108065666D01*
X106975529Y-108065666D02*
X106975529Y-108031994D01*
X106975529Y-108031994D02*
X106958693Y-107981487D01*
X106958693Y-107981487D02*
X106941857Y-107964651D01*
X106941857Y-107964651D02*
X106891349Y-107947815D01*
X106891349Y-107947815D02*
X106857678Y-107947815D01*
X106857678Y-107947815D02*
X106807170Y-107964651D01*
X106807170Y-107964651D02*
X106739827Y-108031994D01*
X106739827Y-108031994D02*
X106722991Y-108082502D01*
X106722991Y-108082502D02*
X106722991Y-108116174D01*
X106722991Y-108116174D02*
X106739827Y-108166681D01*
X106739827Y-108166681D02*
X106756662Y-108183517D01*
X106756662Y-108183517D02*
X106807170Y-108200353D01*
X106807170Y-108200353D02*
X106840842Y-108200353D01*
X106840842Y-108200353D02*
X106891349Y-108183517D01*
X106891349Y-108183517D02*
X106958693Y-108116174D01*
X106958693Y-108116174D02*
X107009201Y-108099338D01*
X107009201Y-108099338D02*
X107042872Y-108099338D01*
X107042872Y-108099338D02*
X107093380Y-108116174D01*
X107093380Y-108116174D02*
X107160723Y-108183517D01*
X107160723Y-108183517D02*
X107177559Y-108234025D01*
X107177559Y-108234025D02*
X107177559Y-108267697D01*
X107177559Y-108267697D02*
X107160723Y-108318204D01*
X107160723Y-108318204D02*
X107093380Y-108385548D01*
X107093380Y-108385548D02*
X107042872Y-108402384D01*
X107042872Y-108402384D02*
X107009201Y-108402384D01*
X107009201Y-108402384D02*
X106958693Y-108385548D01*
X106958693Y-108385548D02*
X106891349Y-108318204D01*
X106891349Y-108318204D02*
X106874514Y-108267697D01*
X106874514Y-108267697D02*
X106874514Y-108234025D01*
X106874514Y-108234025D02*
X106891349Y-108183517D01*
X127884784Y-133094708D02*
X127901620Y-133044201D01*
X127901620Y-133044201D02*
X127952128Y-132993693D01*
X127952128Y-132993693D02*
X128019471Y-132960021D01*
X128019471Y-132960021D02*
X128086815Y-132960021D01*
X128086815Y-132960021D02*
X128137322Y-132976857D01*
X128137322Y-132976857D02*
X128221502Y-133027365D01*
X128221502Y-133027365D02*
X128272009Y-133077872D01*
X128272009Y-133077872D02*
X128322517Y-133162052D01*
X128322517Y-133162052D02*
X128339353Y-133212559D01*
X128339353Y-133212559D02*
X128339353Y-133279903D01*
X128339353Y-133279903D02*
X128305681Y-133347246D01*
X128305681Y-133347246D02*
X128272009Y-133380918D01*
X128272009Y-133380918D02*
X128204666Y-133414590D01*
X128204666Y-133414590D02*
X128170994Y-133414590D01*
X128170994Y-133414590D02*
X128053143Y-133296739D01*
X128053143Y-133296739D02*
X128120487Y-133229395D01*
X128053143Y-133599785D02*
X127699590Y-133246231D01*
X127699590Y-133246231D02*
X127564903Y-133380918D01*
X127564903Y-133380918D02*
X127548067Y-133431426D01*
X127548067Y-133431426D02*
X127548067Y-133465098D01*
X127548067Y-133465098D02*
X127564903Y-133515605D01*
X127564903Y-133515605D02*
X127615410Y-133566113D01*
X127615410Y-133566113D02*
X127665918Y-133582949D01*
X127665918Y-133582949D02*
X127699590Y-133582949D01*
X127699590Y-133582949D02*
X127750097Y-133566113D01*
X127750097Y-133566113D02*
X127884784Y-133431426D01*
X127194513Y-133751308D02*
X127261857Y-133683964D01*
X127261857Y-133683964D02*
X127312365Y-133667128D01*
X127312365Y-133667128D02*
X127346036Y-133667128D01*
X127346036Y-133667128D02*
X127430216Y-133683964D01*
X127430216Y-133683964D02*
X127514395Y-133734472D01*
X127514395Y-133734472D02*
X127649082Y-133869159D01*
X127649082Y-133869159D02*
X127665918Y-133919666D01*
X127665918Y-133919666D02*
X127665918Y-133953338D01*
X127665918Y-133953338D02*
X127649082Y-134003846D01*
X127649082Y-134003846D02*
X127581739Y-134071189D01*
X127581739Y-134071189D02*
X127531231Y-134088025D01*
X127531231Y-134088025D02*
X127497559Y-134088025D01*
X127497559Y-134088025D02*
X127447052Y-134071189D01*
X127447052Y-134071189D02*
X127362872Y-133987010D01*
X127362872Y-133987010D02*
X127346036Y-133936502D01*
X127346036Y-133936502D02*
X127346036Y-133902830D01*
X127346036Y-133902830D02*
X127362872Y-133852323D01*
X127362872Y-133852323D02*
X127430216Y-133784979D01*
X127430216Y-133784979D02*
X127480723Y-133768143D01*
X127480723Y-133768143D02*
X127514395Y-133768143D01*
X127514395Y-133768143D02*
X127564903Y-133784979D01*
X117741621Y-133077872D02*
X117758456Y-133027365D01*
X117758456Y-133027365D02*
X117808964Y-132976857D01*
X117808964Y-132976857D02*
X117876308Y-132943185D01*
X117876308Y-132943185D02*
X117943651Y-132943185D01*
X117943651Y-132943185D02*
X117994159Y-132960021D01*
X117994159Y-132960021D02*
X118078338Y-133010529D01*
X118078338Y-133010529D02*
X118128846Y-133061036D01*
X118128846Y-133061036D02*
X118179353Y-133145216D01*
X118179353Y-133145216D02*
X118196189Y-133195723D01*
X118196189Y-133195723D02*
X118196189Y-133263067D01*
X118196189Y-133263067D02*
X118162517Y-133330410D01*
X118162517Y-133330410D02*
X118128846Y-133364082D01*
X118128846Y-133364082D02*
X118061502Y-133397754D01*
X118061502Y-133397754D02*
X118027830Y-133397754D01*
X118027830Y-133397754D02*
X117909979Y-133279903D01*
X117909979Y-133279903D02*
X117977323Y-133212559D01*
X117909979Y-133582948D02*
X117556426Y-133229395D01*
X117556426Y-133229395D02*
X117707949Y-133784979D01*
X117707949Y-133784979D02*
X117354395Y-133431426D01*
X117539590Y-133953338D02*
X117186036Y-133599785D01*
X117186036Y-133599785D02*
X117101857Y-133683964D01*
X117101857Y-133683964D02*
X117068185Y-133751308D01*
X117068185Y-133751308D02*
X117068185Y-133818651D01*
X117068185Y-133818651D02*
X117085021Y-133869159D01*
X117085021Y-133869159D02*
X117135529Y-133953338D01*
X117135529Y-133953338D02*
X117186036Y-134003846D01*
X117186036Y-134003846D02*
X117270216Y-134054353D01*
X117270216Y-134054353D02*
X117320723Y-134071189D01*
X117320723Y-134071189D02*
X117388067Y-134071189D01*
X117388067Y-134071189D02*
X117455410Y-134037517D01*
X117455410Y-134037517D02*
X117539590Y-133953338D01*
X146001501Y-106724320D02*
X146237204Y-107195724D01*
X146237204Y-107195724D02*
X145765799Y-106960022D01*
X146001502Y-107397754D02*
X145967830Y-107465098D01*
X145967830Y-107465098D02*
X145883651Y-107549277D01*
X145883651Y-107549277D02*
X145833143Y-107566113D01*
X145833143Y-107566113D02*
X145799471Y-107566113D01*
X145799471Y-107566113D02*
X145748964Y-107549277D01*
X145748964Y-107549277D02*
X145715292Y-107515605D01*
X145715292Y-107515605D02*
X145698456Y-107465098D01*
X145698456Y-107465098D02*
X145698456Y-107431426D01*
X145698456Y-107431426D02*
X145715292Y-107380918D01*
X145715292Y-107380918D02*
X145765799Y-107296739D01*
X145765799Y-107296739D02*
X145782635Y-107246231D01*
X145782635Y-107246231D02*
X145782635Y-107212560D01*
X145782635Y-107212560D02*
X145765799Y-107162052D01*
X145765799Y-107162052D02*
X145732128Y-107128380D01*
X145732128Y-107128380D02*
X145681620Y-107111544D01*
X145681620Y-107111544D02*
X145647948Y-107111544D01*
X145647948Y-107111544D02*
X145597441Y-107128380D01*
X145597441Y-107128380D02*
X145513261Y-107212560D01*
X145513261Y-107212560D02*
X145479589Y-107279903D01*
X145429082Y-107667128D02*
X145597441Y-107835487D01*
X145361739Y-107364082D02*
X145429082Y-107667128D01*
X145429082Y-107667128D02*
X145126036Y-107599784D01*
X145361739Y-108037517D02*
X145328067Y-108104860D01*
X145328067Y-108104860D02*
X145243888Y-108189040D01*
X145243888Y-108189040D02*
X145193380Y-108205876D01*
X145193380Y-108205876D02*
X145159708Y-108205876D01*
X145159708Y-108205876D02*
X145109201Y-108189040D01*
X145109201Y-108189040D02*
X145075529Y-108155368D01*
X145075529Y-108155368D02*
X145058693Y-108104860D01*
X145058693Y-108104860D02*
X145058693Y-108071189D01*
X145058693Y-108071189D02*
X145075529Y-108020681D01*
X145075529Y-108020681D02*
X145126037Y-107936502D01*
X145126037Y-107936502D02*
X145142873Y-107885994D01*
X145142873Y-107885994D02*
X145142873Y-107852322D01*
X145142873Y-107852322D02*
X145126037Y-107801815D01*
X145126037Y-107801815D02*
X145092365Y-107768143D01*
X145092365Y-107768143D02*
X145041857Y-107751307D01*
X145041857Y-107751307D02*
X145008186Y-107751307D01*
X145008186Y-107751307D02*
X144957678Y-107768143D01*
X144957678Y-107768143D02*
X144873499Y-107852322D01*
X144873499Y-107852322D02*
X144839827Y-107919666D01*
X105041621Y-107477872D02*
X105058456Y-107427365D01*
X105058456Y-107427365D02*
X105108964Y-107376857D01*
X105108964Y-107376857D02*
X105176308Y-107343185D01*
X105176308Y-107343185D02*
X105243651Y-107343185D01*
X105243651Y-107343185D02*
X105294159Y-107360021D01*
X105294159Y-107360021D02*
X105378338Y-107410529D01*
X105378338Y-107410529D02*
X105428846Y-107461036D01*
X105428846Y-107461036D02*
X105479353Y-107545216D01*
X105479353Y-107545216D02*
X105496189Y-107595723D01*
X105496189Y-107595723D02*
X105496189Y-107663067D01*
X105496189Y-107663067D02*
X105462517Y-107730410D01*
X105462517Y-107730410D02*
X105428846Y-107764082D01*
X105428846Y-107764082D02*
X105361502Y-107797754D01*
X105361502Y-107797754D02*
X105327830Y-107797754D01*
X105327830Y-107797754D02*
X105209979Y-107679903D01*
X105209979Y-107679903D02*
X105277323Y-107612559D01*
X105209979Y-107982948D02*
X104856426Y-107629395D01*
X104856426Y-107629395D02*
X105007949Y-108184979D01*
X105007949Y-108184979D02*
X104654395Y-107831426D01*
X104839590Y-108353338D02*
X104486036Y-107999785D01*
X104486036Y-107999785D02*
X104401857Y-108083964D01*
X104401857Y-108083964D02*
X104368185Y-108151308D01*
X104368185Y-108151308D02*
X104368185Y-108218651D01*
X104368185Y-108218651D02*
X104385021Y-108269159D01*
X104385021Y-108269159D02*
X104435529Y-108353338D01*
X104435529Y-108353338D02*
X104486036Y-108403846D01*
X104486036Y-108403846D02*
X104570216Y-108454353D01*
X104570216Y-108454353D02*
X104620723Y-108471189D01*
X104620723Y-108471189D02*
X104688067Y-108471189D01*
X104688067Y-108471189D02*
X104755410Y-108437517D01*
X104755410Y-108437517D02*
X104839590Y-108353338D01*
X148204784Y-133094708D02*
X148221620Y-133044201D01*
X148221620Y-133044201D02*
X148272128Y-132993693D01*
X148272128Y-132993693D02*
X148339471Y-132960021D01*
X148339471Y-132960021D02*
X148406815Y-132960021D01*
X148406815Y-132960021D02*
X148457322Y-132976857D01*
X148457322Y-132976857D02*
X148541502Y-133027365D01*
X148541502Y-133027365D02*
X148592009Y-133077872D01*
X148592009Y-133077872D02*
X148642517Y-133162052D01*
X148642517Y-133162052D02*
X148659353Y-133212559D01*
X148659353Y-133212559D02*
X148659353Y-133279903D01*
X148659353Y-133279903D02*
X148625681Y-133347246D01*
X148625681Y-133347246D02*
X148592009Y-133380918D01*
X148592009Y-133380918D02*
X148524666Y-133414590D01*
X148524666Y-133414590D02*
X148490994Y-133414590D01*
X148490994Y-133414590D02*
X148373143Y-133296739D01*
X148373143Y-133296739D02*
X148440487Y-133229395D01*
X148373143Y-133599785D02*
X148019590Y-133246231D01*
X148019590Y-133246231D02*
X147884903Y-133380918D01*
X147884903Y-133380918D02*
X147868067Y-133431426D01*
X147868067Y-133431426D02*
X147868067Y-133465098D01*
X147868067Y-133465098D02*
X147884903Y-133515605D01*
X147884903Y-133515605D02*
X147935410Y-133566113D01*
X147935410Y-133566113D02*
X147985918Y-133582949D01*
X147985918Y-133582949D02*
X148019590Y-133582949D01*
X148019590Y-133582949D02*
X148070097Y-133566113D01*
X148070097Y-133566113D02*
X148204784Y-133431426D01*
X147598693Y-133667128D02*
X147565021Y-133700800D01*
X147565021Y-133700800D02*
X147548185Y-133751308D01*
X147548185Y-133751308D02*
X147548185Y-133784979D01*
X147548185Y-133784979D02*
X147565021Y-133835487D01*
X147565021Y-133835487D02*
X147615529Y-133919666D01*
X147615529Y-133919666D02*
X147699708Y-134003846D01*
X147699708Y-134003846D02*
X147783887Y-134054353D01*
X147783887Y-134054353D02*
X147834395Y-134071189D01*
X147834395Y-134071189D02*
X147868067Y-134071189D01*
X147868067Y-134071189D02*
X147918574Y-134054353D01*
X147918574Y-134054353D02*
X147952246Y-134020682D01*
X147952246Y-134020682D02*
X147969082Y-133970174D01*
X147969082Y-133970174D02*
X147969082Y-133936502D01*
X147969082Y-133936502D02*
X147952246Y-133885995D01*
X147952246Y-133885995D02*
X147901739Y-133801815D01*
X147901739Y-133801815D02*
X147817559Y-133717636D01*
X147817559Y-133717636D02*
X147733380Y-133667128D01*
X147733380Y-133667128D02*
X147682872Y-133650292D01*
X147682872Y-133650292D02*
X147649200Y-133650292D01*
X147649200Y-133650292D02*
X147598693Y-133667128D01*
X128043143Y-107072350D02*
X128059979Y-107021842D01*
X128059979Y-107021842D02*
X128110486Y-106971335D01*
X128110486Y-106971335D02*
X128177830Y-106937663D01*
X128177830Y-106937663D02*
X128245173Y-106937663D01*
X128245173Y-106937663D02*
X128295681Y-106954499D01*
X128295681Y-106954499D02*
X128379860Y-107005006D01*
X128379860Y-107005006D02*
X128430368Y-107055514D01*
X128430368Y-107055514D02*
X128480876Y-107139693D01*
X128480876Y-107139693D02*
X128497712Y-107190201D01*
X128497712Y-107190201D02*
X128497712Y-107257544D01*
X128497712Y-107257544D02*
X128464040Y-107324888D01*
X128464040Y-107324888D02*
X128430368Y-107358560D01*
X128430368Y-107358560D02*
X128363025Y-107392231D01*
X128363025Y-107392231D02*
X128329353Y-107392231D01*
X128329353Y-107392231D02*
X128211502Y-107274380D01*
X128211502Y-107274380D02*
X128278845Y-107207037D01*
X128211502Y-107577426D02*
X127857948Y-107223873D01*
X127857948Y-107223873D02*
X127723261Y-107358560D01*
X127723261Y-107358560D02*
X127706425Y-107409067D01*
X127706425Y-107409067D02*
X127706425Y-107442739D01*
X127706425Y-107442739D02*
X127723261Y-107493247D01*
X127723261Y-107493247D02*
X127773769Y-107543754D01*
X127773769Y-107543754D02*
X127824276Y-107560590D01*
X127824276Y-107560590D02*
X127857948Y-107560590D01*
X127857948Y-107560590D02*
X127908456Y-107543754D01*
X127908456Y-107543754D02*
X128043143Y-107409067D01*
X127554902Y-107594262D02*
X127521231Y-107594262D01*
X127521231Y-107594262D02*
X127470723Y-107611098D01*
X127470723Y-107611098D02*
X127386544Y-107695277D01*
X127386544Y-107695277D02*
X127369708Y-107745785D01*
X127369708Y-107745785D02*
X127369708Y-107779457D01*
X127369708Y-107779457D02*
X127386544Y-107829964D01*
X127386544Y-107829964D02*
X127420215Y-107863636D01*
X127420215Y-107863636D02*
X127487559Y-107897308D01*
X127487559Y-107897308D02*
X127891620Y-107897308D01*
X127891620Y-107897308D02*
X127672754Y-108116174D01*
X127201349Y-107880471D02*
X126965647Y-108116174D01*
X126965647Y-108116174D02*
X127470723Y-108318204D01*
X148653591Y-106582230D02*
X148889293Y-107053634D01*
X148889293Y-107053634D02*
X148417889Y-106817932D01*
X148350546Y-107221993D02*
X148316874Y-107289336D01*
X148316874Y-107289336D02*
X148316874Y-107323008D01*
X148316874Y-107323008D02*
X148333710Y-107373516D01*
X148333710Y-107373516D02*
X148384217Y-107424023D01*
X148384217Y-107424023D02*
X148434725Y-107440859D01*
X148434725Y-107440859D02*
X148468397Y-107440859D01*
X148468397Y-107440859D02*
X148518904Y-107424023D01*
X148518904Y-107424023D02*
X148653591Y-107289336D01*
X148653591Y-107289336D02*
X148300038Y-106935783D01*
X148300038Y-106935783D02*
X148182187Y-107053634D01*
X148182187Y-107053634D02*
X148165351Y-107104142D01*
X148165351Y-107104142D02*
X148165351Y-107137813D01*
X148165351Y-107137813D02*
X148182187Y-107188321D01*
X148182187Y-107188321D02*
X148215859Y-107221993D01*
X148215859Y-107221993D02*
X148266366Y-107238829D01*
X148266366Y-107238829D02*
X148300038Y-107238829D01*
X148300038Y-107238829D02*
X148350546Y-107221993D01*
X148350546Y-107221993D02*
X148468397Y-107104142D01*
X147946485Y-107289336D02*
X148232695Y-107575546D01*
X148232695Y-107575546D02*
X148249530Y-107626054D01*
X148249530Y-107626054D02*
X148249530Y-107659725D01*
X148249530Y-107659725D02*
X148232695Y-107710233D01*
X148232695Y-107710233D02*
X148165351Y-107777577D01*
X148165351Y-107777577D02*
X148114843Y-107794412D01*
X148114843Y-107794412D02*
X148081172Y-107794412D01*
X148081172Y-107794412D02*
X148030664Y-107777577D01*
X148030664Y-107777577D02*
X147744454Y-107491367D01*
X147929648Y-107979607D02*
X147895977Y-108046951D01*
X147895977Y-108046951D02*
X147811797Y-108131130D01*
X147811797Y-108131130D02*
X147761290Y-108147966D01*
X147761290Y-108147966D02*
X147727618Y-108147966D01*
X147727618Y-108147966D02*
X147677110Y-108131130D01*
X147677110Y-108131130D02*
X147643439Y-108097459D01*
X147643439Y-108097459D02*
X147626603Y-108046951D01*
X147626603Y-108046951D02*
X147626603Y-108013279D01*
X147626603Y-108013279D02*
X147643439Y-107962772D01*
X147643439Y-107962772D02*
X147693946Y-107878592D01*
X147693946Y-107878592D02*
X147710782Y-107828085D01*
X147710782Y-107828085D02*
X147710782Y-107794413D01*
X147710782Y-107794413D02*
X147693946Y-107743905D01*
X147693946Y-107743905D02*
X147660274Y-107710233D01*
X147660274Y-107710233D02*
X147609767Y-107693398D01*
X147609767Y-107693398D02*
X147576095Y-107693398D01*
X147576095Y-107693398D02*
X147525587Y-107710233D01*
X147525587Y-107710233D02*
X147441408Y-107794413D01*
X147441408Y-107794413D02*
X147407736Y-107861756D01*
X143141621Y-107477872D02*
X143158456Y-107427365D01*
X143158456Y-107427365D02*
X143208964Y-107376857D01*
X143208964Y-107376857D02*
X143276308Y-107343185D01*
X143276308Y-107343185D02*
X143343651Y-107343185D01*
X143343651Y-107343185D02*
X143394159Y-107360021D01*
X143394159Y-107360021D02*
X143478338Y-107410529D01*
X143478338Y-107410529D02*
X143528846Y-107461036D01*
X143528846Y-107461036D02*
X143579353Y-107545216D01*
X143579353Y-107545216D02*
X143596189Y-107595723D01*
X143596189Y-107595723D02*
X143596189Y-107663067D01*
X143596189Y-107663067D02*
X143562517Y-107730410D01*
X143562517Y-107730410D02*
X143528846Y-107764082D01*
X143528846Y-107764082D02*
X143461502Y-107797754D01*
X143461502Y-107797754D02*
X143427830Y-107797754D01*
X143427830Y-107797754D02*
X143309979Y-107679903D01*
X143309979Y-107679903D02*
X143377323Y-107612559D01*
X143309979Y-107982948D02*
X142956426Y-107629395D01*
X142956426Y-107629395D02*
X143107949Y-108184979D01*
X143107949Y-108184979D02*
X142754395Y-107831426D01*
X142939590Y-108353338D02*
X142586036Y-107999785D01*
X142586036Y-107999785D02*
X142501857Y-108083964D01*
X142501857Y-108083964D02*
X142468185Y-108151308D01*
X142468185Y-108151308D02*
X142468185Y-108218651D01*
X142468185Y-108218651D02*
X142485021Y-108269159D01*
X142485021Y-108269159D02*
X142535529Y-108353338D01*
X142535529Y-108353338D02*
X142586036Y-108403846D01*
X142586036Y-108403846D02*
X142670216Y-108454353D01*
X142670216Y-108454353D02*
X142720723Y-108471189D01*
X142720723Y-108471189D02*
X142788067Y-108471189D01*
X142788067Y-108471189D02*
X142855410Y-108437517D01*
X142855410Y-108437517D02*
X142939590Y-108353338D01*
D12*
%TO.C,U1*%
X149500000Y-110225000D02*
X149200000Y-110225000D01*
X147100000Y-110225000D02*
X146700000Y-110225000D01*
X144500000Y-110225000D02*
X144100000Y-110225000D01*
X142000000Y-110225000D02*
X141600000Y-110225000D01*
X139400000Y-110225000D02*
X139000000Y-110225000D01*
X136900000Y-110225000D02*
X136500000Y-110225000D01*
X134400000Y-110225000D02*
X134000000Y-110225000D01*
X131800000Y-110225000D02*
X131400000Y-110225000D01*
X129300000Y-110225000D02*
X128900000Y-110225000D01*
X126700000Y-110225000D02*
X126300000Y-110225000D01*
X124200000Y-110225000D02*
X123800000Y-110225000D01*
X121700000Y-110225000D02*
X121300000Y-110225000D01*
X119100000Y-110225000D02*
X118700000Y-110225000D01*
X116600000Y-110225000D02*
X116200000Y-110225000D01*
X114000000Y-110225000D02*
X113600000Y-110225000D01*
X111500000Y-110225000D02*
X111100000Y-110225000D01*
X108900000Y-110225000D02*
X108500000Y-110225000D01*
X106400000Y-110225000D02*
X106000000Y-110225000D01*
X103900000Y-110225000D02*
X103500000Y-110225000D01*
X101300000Y-110225000D02*
X100900000Y-110225000D01*
X98500000Y-110225000D02*
X98500000Y-117025000D01*
X98500000Y-119625000D02*
X98500000Y-119225000D01*
X98500000Y-122225000D02*
X98500000Y-121825000D01*
X98500000Y-124425000D02*
X98500000Y-131225000D01*
X146833000Y-128218000D02*
X149500000Y-128218000D01*
X149500000Y-131225000D02*
X149500000Y-110225000D01*
X149500000Y-131225000D02*
X149200000Y-131225000D01*
X147100000Y-131225000D02*
X146700000Y-131225000D01*
X146833000Y-131225000D02*
X146833000Y-128218000D01*
X144500000Y-131225000D02*
X144100000Y-131225000D01*
X142000000Y-131225000D02*
X141600000Y-131225000D01*
X139400000Y-131225000D02*
X139000000Y-131225000D01*
X136900000Y-131225000D02*
X136500000Y-131225000D01*
X134400000Y-131225000D02*
X134000000Y-131225000D01*
X131800000Y-131225000D02*
X131400000Y-131225000D01*
X129300000Y-131225000D02*
X128900000Y-131225000D01*
X126700000Y-131225000D02*
X126300000Y-131225000D01*
X124200000Y-131225000D02*
X123800000Y-131225000D01*
X121700000Y-131225000D02*
X121300000Y-131225000D01*
X119100000Y-131225000D02*
X118700000Y-131225000D01*
X116600000Y-131225000D02*
X116200000Y-131225000D01*
X114000000Y-131225000D02*
X113600000Y-131225000D01*
X111500000Y-131225000D02*
X111100000Y-131225000D01*
X108900000Y-131225000D02*
X108500000Y-131225000D01*
X106400000Y-131225000D02*
X106000000Y-131225000D01*
X103900000Y-131225000D02*
X103500000Y-131225000D01*
X101300000Y-131225000D02*
X100900000Y-131225000D01*
%TD*%
%LPC*%
D13*
%TO.C,J1*%
X139000000Y-94500000D03*
X135500000Y-99500000D03*
X132000000Y-94500000D03*
X128500000Y-99500000D03*
X125000000Y-94500000D03*
X121500000Y-99500000D03*
%TD*%
D14*
%TO.C,H3*%
X65000000Y-130000000D03*
%TD*%
D13*
%TO.C,J3*%
X89750000Y-94500000D03*
X86250000Y-99500000D03*
X82750000Y-94500000D03*
X79250000Y-99500000D03*
X75750000Y-94500000D03*
X72250000Y-99500000D03*
%TD*%
%TO.C,J2*%
X114500000Y-94500000D03*
X111000000Y-99500000D03*
X107500000Y-94500000D03*
X104000000Y-99500000D03*
X100500000Y-94500000D03*
X97000000Y-99500000D03*
%TD*%
D14*
%TO.C,H1*%
X145500000Y-95000000D03*
%TD*%
%TO.C,H2*%
X65000000Y-95000000D03*
%TD*%
D15*
%TO.C,U1*%
X99200000Y-118185000D03*
X99200000Y-120725000D03*
X99200000Y-123265000D03*
D16*
X148130000Y-110935000D03*
X145590000Y-110935000D03*
X143050000Y-110935000D03*
X140510000Y-110935000D03*
X137970000Y-110935000D03*
X135430000Y-110935000D03*
X132890000Y-110935000D03*
X130350000Y-110935000D03*
X127810000Y-110935000D03*
X125270000Y-110935000D03*
X122730000Y-110935000D03*
X120190000Y-110935000D03*
X117650000Y-110935000D03*
X115110000Y-110935000D03*
X112570000Y-110935000D03*
X110030000Y-110935000D03*
X107490000Y-110935000D03*
X104950000Y-110935000D03*
X102410000Y-110935000D03*
X99870000Y-110935000D03*
X99870000Y-130515000D03*
X102410000Y-130515000D03*
X104950000Y-130515000D03*
X107490000Y-130515000D03*
X110030000Y-130515000D03*
X112570000Y-130515000D03*
X115110000Y-130515000D03*
X117650000Y-130515000D03*
X120190000Y-130515000D03*
X122730000Y-130515000D03*
X125270000Y-130515000D03*
X127810000Y-130515000D03*
X130350000Y-130515000D03*
X132890000Y-130515000D03*
X135430000Y-130515000D03*
X137970000Y-130515000D03*
X140510000Y-130515000D03*
X143050000Y-130515000D03*
X145590000Y-130515000D03*
X148130000Y-130515000D03*
D17*
X148000000Y-118000000D03*
D18*
X144970000Y-118300000D03*
X144970000Y-123150000D03*
D17*
X148000000Y-123450000D03*
%TD*%
%LPD*%
M02*
