%TF.GenerationSoftware,KiCad,Pcbnew,5.1.6-c6e7f7d~87~ubuntu18.04.1*%
%TF.CreationDate,2022-03-05T00:13:30+01:00*%
%TF.ProjectId,door_ext_photorelay,646f6f72-5f65-4787-945f-70686f746f72,rev?*%
%TF.SameCoordinates,Original*%
%TF.FileFunction,Legend,Top*%
%TF.FilePolarity,Positive*%
%FSLAX46Y46*%
G04 Gerber Fmt 4.6, Leading zero omitted, Abs format (unit mm)*
G04 Created by KiCad (PCBNEW 5.1.6-c6e7f7d~87~ubuntu18.04.1) date 2022-03-05 00:13:30*
%MOMM*%
%LPD*%
G01*
G04 APERTURE LIST*
%ADD10C,0.150000*%
%ADD11C,0.120000*%
%ADD12C,0.152400*%
%ADD13C,0.050800*%
%ADD14C,0.066040*%
%ADD15C,0.304800*%
%ADD16C,0.088900*%
%ADD17C,0.100000*%
G04 APERTURE END LIST*
D10*
X135833333Y-77452380D02*
X136500000Y-77452380D01*
X135833333Y-78452380D01*
X136500000Y-78452380D01*
X136833333Y-78166666D02*
X137309523Y-78166666D01*
X136738095Y-78452380D02*
X137071428Y-77452380D01*
X137404761Y-78452380D01*
X137738095Y-78452380D02*
X137738095Y-77452380D01*
X138071428Y-78166666D01*
X138404761Y-77452380D01*
X138404761Y-78452380D01*
X140071428Y-78452380D02*
X140071428Y-77452380D01*
X140071428Y-78404761D02*
X139976190Y-78452380D01*
X139785714Y-78452380D01*
X139690476Y-78404761D01*
X139642857Y-78357142D01*
X139595238Y-78261904D01*
X139595238Y-77976190D01*
X139642857Y-77880952D01*
X139690476Y-77833333D01*
X139785714Y-77785714D01*
X139976190Y-77785714D01*
X140071428Y-77833333D01*
X140690476Y-78452380D02*
X140595238Y-78404761D01*
X140547619Y-78357142D01*
X140500000Y-78261904D01*
X140500000Y-77976190D01*
X140547619Y-77880952D01*
X140595238Y-77833333D01*
X140690476Y-77785714D01*
X140833333Y-77785714D01*
X140928571Y-77833333D01*
X140976190Y-77880952D01*
X141023809Y-77976190D01*
X141023809Y-78261904D01*
X140976190Y-78357142D01*
X140928571Y-78404761D01*
X140833333Y-78452380D01*
X140690476Y-78452380D01*
X141595238Y-78452380D02*
X141500000Y-78404761D01*
X141452380Y-78357142D01*
X141404761Y-78261904D01*
X141404761Y-77976190D01*
X141452380Y-77880952D01*
X141500000Y-77833333D01*
X141595238Y-77785714D01*
X141738095Y-77785714D01*
X141833333Y-77833333D01*
X141880952Y-77880952D01*
X141928571Y-77976190D01*
X141928571Y-78261904D01*
X141880952Y-78357142D01*
X141833333Y-78404761D01*
X141738095Y-78452380D01*
X141595238Y-78452380D01*
X142357142Y-78452380D02*
X142357142Y-77785714D01*
X142357142Y-77976190D02*
X142404761Y-77880952D01*
X142452380Y-77833333D01*
X142547619Y-77785714D01*
X142642857Y-77785714D01*
X142738095Y-78547619D02*
X143500000Y-78547619D01*
X144119047Y-78404761D02*
X144023809Y-78452380D01*
X143833333Y-78452380D01*
X143738095Y-78404761D01*
X143690476Y-78309523D01*
X143690476Y-77928571D01*
X143738095Y-77833333D01*
X143833333Y-77785714D01*
X144023809Y-77785714D01*
X144119047Y-77833333D01*
X144166666Y-77928571D01*
X144166666Y-78023809D01*
X143690476Y-78119047D01*
X144500000Y-78452380D02*
X145023809Y-77785714D01*
X144500000Y-77785714D02*
X145023809Y-78452380D01*
X145261904Y-77785714D02*
X145642857Y-77785714D01*
X145404761Y-77452380D02*
X145404761Y-78309523D01*
X145452380Y-78404761D01*
X145547619Y-78452380D01*
X145642857Y-78452380D01*
X145738095Y-78547619D02*
X146500000Y-78547619D01*
X146738095Y-77785714D02*
X146738095Y-78785714D01*
X146738095Y-77833333D02*
X146833333Y-77785714D01*
X147023809Y-77785714D01*
X147119047Y-77833333D01*
X147166666Y-77880952D01*
X147214285Y-77976190D01*
X147214285Y-78261904D01*
X147166666Y-78357142D01*
X147119047Y-78404761D01*
X147023809Y-78452380D01*
X146833333Y-78452380D01*
X146738095Y-78404761D01*
X147642857Y-78452380D02*
X147642857Y-77452380D01*
X148071428Y-78452380D02*
X148071428Y-77928571D01*
X148023809Y-77833333D01*
X147928571Y-77785714D01*
X147785714Y-77785714D01*
X147690476Y-77833333D01*
X147642857Y-77880952D01*
X148690476Y-78452380D02*
X148595238Y-78404761D01*
X148547619Y-78357142D01*
X148500000Y-78261904D01*
X148500000Y-77976190D01*
X148547619Y-77880952D01*
X148595238Y-77833333D01*
X148690476Y-77785714D01*
X148833333Y-77785714D01*
X148928571Y-77833333D01*
X148976190Y-77880952D01*
X149023809Y-77976190D01*
X149023809Y-78261904D01*
X148976190Y-78357142D01*
X148928571Y-78404761D01*
X148833333Y-78452380D01*
X148690476Y-78452380D01*
X149309523Y-77785714D02*
X149690476Y-77785714D01*
X149452380Y-77452380D02*
X149452380Y-78309523D01*
X149500000Y-78404761D01*
X149595238Y-78452380D01*
X149690476Y-78452380D01*
X150166666Y-78452380D02*
X150071428Y-78404761D01*
X150023809Y-78357142D01*
X149976190Y-78261904D01*
X149976190Y-77976190D01*
X150023809Y-77880952D01*
X150071428Y-77833333D01*
X150166666Y-77785714D01*
X150309523Y-77785714D01*
X150404761Y-77833333D01*
X150452380Y-77880952D01*
X150500000Y-77976190D01*
X150500000Y-78261904D01*
X150452380Y-78357142D01*
X150404761Y-78404761D01*
X150309523Y-78452380D01*
X150166666Y-78452380D01*
X150928571Y-78452380D02*
X150928571Y-77785714D01*
X150928571Y-77976190D02*
X150976190Y-77880952D01*
X151023809Y-77833333D01*
X151119047Y-77785714D01*
X151214285Y-77785714D01*
X151928571Y-78404761D02*
X151833333Y-78452380D01*
X151642857Y-78452380D01*
X151547619Y-78404761D01*
X151500000Y-78309523D01*
X151500000Y-77928571D01*
X151547619Y-77833333D01*
X151642857Y-77785714D01*
X151833333Y-77785714D01*
X151928571Y-77833333D01*
X151976190Y-77928571D01*
X151976190Y-78023809D01*
X151500000Y-78119047D01*
X152547619Y-78452380D02*
X152452380Y-78404761D01*
X152404761Y-78309523D01*
X152404761Y-77452380D01*
X153357142Y-78452380D02*
X153357142Y-77928571D01*
X153309523Y-77833333D01*
X153214285Y-77785714D01*
X153023809Y-77785714D01*
X152928571Y-77833333D01*
X153357142Y-78404761D02*
X153261904Y-78452380D01*
X153023809Y-78452380D01*
X152928571Y-78404761D01*
X152880952Y-78309523D01*
X152880952Y-78214285D01*
X152928571Y-78119047D01*
X153023809Y-78071428D01*
X153261904Y-78071428D01*
X153357142Y-78023809D01*
X153738095Y-77785714D02*
X153976190Y-78452380D01*
X154214285Y-77785714D02*
X153976190Y-78452380D01*
X153880952Y-78690476D01*
X153833333Y-78738095D01*
X153738095Y-78785714D01*
X155309523Y-77547619D02*
X155357142Y-77500000D01*
X155452380Y-77452380D01*
X155690476Y-77452380D01*
X155785714Y-77500000D01*
X155833333Y-77547619D01*
X155880952Y-77642857D01*
X155880952Y-77738095D01*
X155833333Y-77880952D01*
X155261904Y-78452380D01*
X155880952Y-78452380D01*
X156499999Y-77452380D02*
X156595238Y-77452380D01*
X156690476Y-77500000D01*
X156738095Y-77547619D01*
X156785714Y-77642857D01*
X156833333Y-77833333D01*
X156833333Y-78071428D01*
X156785714Y-78261904D01*
X156738095Y-78357142D01*
X156690476Y-78404761D01*
X156595238Y-78452380D01*
X156499999Y-78452380D01*
X156404761Y-78404761D01*
X156357142Y-78357142D01*
X156309523Y-78261904D01*
X156261904Y-78071428D01*
X156261904Y-77833333D01*
X156309523Y-77642857D01*
X156357142Y-77547619D01*
X156404761Y-77500000D01*
X156499999Y-77452380D01*
X157214285Y-77547619D02*
X157261904Y-77500000D01*
X157357142Y-77452380D01*
X157595238Y-77452380D01*
X157690476Y-77500000D01*
X157738095Y-77547619D01*
X157785714Y-77642857D01*
X157785714Y-77738095D01*
X157738095Y-77880952D01*
X157166666Y-78452380D01*
X157785714Y-78452380D01*
X158166666Y-77547619D02*
X158214285Y-77500000D01*
X158309523Y-77452380D01*
X158547619Y-77452380D01*
X158642857Y-77500000D01*
X158690476Y-77547619D01*
X158738095Y-77642857D01*
X158738095Y-77738095D01*
X158690476Y-77880952D01*
X158119047Y-78452380D01*
X158738095Y-78452380D01*
X159357142Y-77452380D02*
X159452380Y-77452380D01*
X159547619Y-77500000D01*
X159595238Y-77547619D01*
X159642857Y-77642857D01*
X159690476Y-77833333D01*
X159690476Y-78071428D01*
X159642857Y-78261904D01*
X159595238Y-78357142D01*
X159547619Y-78404761D01*
X159452380Y-78452380D01*
X159357142Y-78452380D01*
X159261904Y-78404761D01*
X159214285Y-78357142D01*
X159166666Y-78261904D01*
X159119047Y-78071428D01*
X159119047Y-77833333D01*
X159166666Y-77642857D01*
X159214285Y-77547619D01*
X159261904Y-77500000D01*
X159357142Y-77452380D01*
X160023809Y-77452380D02*
X160642857Y-77452380D01*
X160309523Y-77833333D01*
X160452380Y-77833333D01*
X160547619Y-77880952D01*
X160595238Y-77928571D01*
X160642857Y-78023809D01*
X160642857Y-78261904D01*
X160595238Y-78357142D01*
X160547619Y-78404761D01*
X160452380Y-78452380D01*
X160166666Y-78452380D01*
X160071428Y-78404761D01*
X160023809Y-78357142D01*
X161261904Y-77452380D02*
X161357142Y-77452380D01*
X161452380Y-77500000D01*
X161499999Y-77547619D01*
X161547619Y-77642857D01*
X161595238Y-77833333D01*
X161595238Y-78071428D01*
X161547619Y-78261904D01*
X161499999Y-78357142D01*
X161452380Y-78404761D01*
X161357142Y-78452380D01*
X161261904Y-78452380D01*
X161166666Y-78404761D01*
X161119047Y-78357142D01*
X161071428Y-78261904D01*
X161023809Y-78071428D01*
X161023809Y-77833333D01*
X161071428Y-77642857D01*
X161119047Y-77547619D01*
X161166666Y-77500000D01*
X161261904Y-77452380D01*
X162452380Y-77785714D02*
X162452380Y-78452380D01*
X162214285Y-77404761D02*
X161976190Y-78119047D01*
X162595238Y-78119047D01*
X164309523Y-78357142D02*
X164261904Y-78404761D01*
X164119047Y-78452380D01*
X164023809Y-78452380D01*
X163880952Y-78404761D01*
X163785714Y-78309523D01*
X163738095Y-78214285D01*
X163690476Y-78023809D01*
X163690476Y-77880952D01*
X163738095Y-77690476D01*
X163785714Y-77595238D01*
X163880952Y-77500000D01*
X164023809Y-77452380D01*
X164119047Y-77452380D01*
X164261904Y-77500000D01*
X164309523Y-77547619D01*
X164738095Y-78452380D02*
X164738095Y-77452380D01*
X165166666Y-78452380D02*
X165166666Y-77928571D01*
X165119047Y-77833333D01*
X165023809Y-77785714D01*
X164880952Y-77785714D01*
X164785714Y-77833333D01*
X164738095Y-77880952D01*
X165642857Y-78452380D02*
X165642857Y-77785714D01*
X165642857Y-77976190D02*
X165690476Y-77880952D01*
X165738095Y-77833333D01*
X165833333Y-77785714D01*
X165928571Y-77785714D01*
X166261904Y-78452380D02*
X166261904Y-77785714D01*
X166261904Y-77452380D02*
X166214285Y-77500000D01*
X166261904Y-77547619D01*
X166309523Y-77500000D01*
X166261904Y-77452380D01*
X166261904Y-77547619D01*
X166690476Y-78404761D02*
X166785714Y-78452380D01*
X166976190Y-78452380D01*
X167071428Y-78404761D01*
X167119047Y-78309523D01*
X167119047Y-78261904D01*
X167071428Y-78166666D01*
X166976190Y-78119047D01*
X166833333Y-78119047D01*
X166738095Y-78071428D01*
X166690476Y-77976190D01*
X166690476Y-77928571D01*
X166738095Y-77833333D01*
X166833333Y-77785714D01*
X166976190Y-77785714D01*
X167071428Y-77833333D01*
X168119047Y-78357142D02*
X168071428Y-78404761D01*
X167928571Y-78452380D01*
X167833333Y-78452380D01*
X167690476Y-78404761D01*
X167595238Y-78309523D01*
X167547619Y-78214285D01*
X167499999Y-78023809D01*
X167499999Y-77880952D01*
X167547619Y-77690476D01*
X167595238Y-77595238D01*
X167690476Y-77500000D01*
X167833333Y-77452380D01*
X167928571Y-77452380D01*
X168071428Y-77500000D01*
X168119047Y-77547619D01*
D11*
%TO.C,C1*%
X140671267Y-65590000D02*
X140328733Y-65590000D01*
X140671267Y-66610000D02*
X140328733Y-66610000D01*
%TO.C,C2*%
X140671267Y-52610000D02*
X140328733Y-52610000D01*
X140671267Y-51590000D02*
X140328733Y-51590000D01*
%TO.C,C3*%
X140671267Y-44590000D02*
X140328733Y-44590000D01*
X140671267Y-45610000D02*
X140328733Y-45610000D01*
%TO.C,C4*%
X140671267Y-59610000D02*
X140328733Y-59610000D01*
X140671267Y-58590000D02*
X140328733Y-58590000D01*
%TO.C,J1*%
X125070000Y-53270000D02*
X126400000Y-53270000D01*
X125070000Y-54600000D02*
X125070000Y-53270000D01*
X127670000Y-53270000D02*
X130270000Y-53270000D01*
X127670000Y-55870000D02*
X127670000Y-53270000D01*
X125070000Y-55870000D02*
X127670000Y-55870000D01*
X130270000Y-53270000D02*
X130270000Y-63550000D01*
X125070000Y-55870000D02*
X125070000Y-63550000D01*
X125070000Y-63550000D02*
X130270000Y-63550000D01*
D12*
%TO.C,J2*%
X163415000Y-33855000D02*
X167860000Y-33855000D01*
X163415000Y-33855000D02*
X163415000Y-33982000D01*
X162145000Y-33982000D02*
X163415000Y-33982000D01*
X162145000Y-33982000D02*
X162145000Y-33855000D01*
X159732000Y-33855000D02*
X162145000Y-33855000D01*
X153128000Y-34363000D02*
X154652000Y-34363000D01*
X153128000Y-34871000D02*
X153128000Y-34363000D01*
X154652000Y-34363000D02*
X155160000Y-34363000D01*
X154652000Y-34871000D02*
X154652000Y-34363000D01*
X159732000Y-34871000D02*
X159732000Y-33855000D01*
D13*
X166844000Y-34871000D02*
X159732000Y-34871000D01*
X166844000Y-41729000D02*
X166844000Y-34871000D01*
X148556000Y-41729000D02*
X166844000Y-41729000D01*
X148556000Y-34871000D02*
X148556000Y-41729000D01*
X153128000Y-34871000D02*
X148556000Y-34871000D01*
D12*
X155668000Y-34871000D02*
X155668000Y-33855000D01*
D13*
X154652000Y-34871000D02*
X155668000Y-34871000D01*
D12*
X152620000Y-34363000D02*
X153128000Y-34363000D01*
X152620000Y-34363000D02*
X152239000Y-33855000D01*
X155541000Y-33855000D02*
X155160000Y-34363000D01*
X153128000Y-35125000D02*
X154652000Y-35125000D01*
X153128000Y-35125000D02*
X153128000Y-34871000D01*
X154652000Y-35125000D02*
X155668000Y-35125000D01*
X154652000Y-35125000D02*
X154652000Y-34871000D01*
X155668000Y-33855000D02*
X159732000Y-33855000D01*
X155541000Y-33855000D02*
X155668000Y-33855000D01*
X165320000Y-42745000D02*
X158335000Y-42745000D01*
X165320000Y-42999000D02*
X165320000Y-42745000D01*
X166590000Y-42999000D02*
X166590000Y-42745000D01*
X165320000Y-42999000D02*
X166590000Y-42999000D01*
X158335000Y-42999000D02*
X158335000Y-42745000D01*
X157065000Y-42745000D02*
X150080000Y-42745000D01*
X157065000Y-42999000D02*
X157065000Y-42745000D01*
X157065000Y-42999000D02*
X158335000Y-42999000D01*
X148810000Y-42745000D02*
X147540000Y-42745000D01*
X150080000Y-42745000D02*
X150080000Y-42999000D01*
X148810000Y-42999000D02*
X150080000Y-42999000D01*
X148810000Y-42745000D02*
X148810000Y-42999000D01*
X155668000Y-35125000D02*
X155668000Y-34871000D01*
X155668000Y-35887000D02*
X155668000Y-35125000D01*
X159732000Y-35125000D02*
X159732000Y-34871000D01*
X159732000Y-35125000D02*
X166590000Y-35125000D01*
X159732000Y-35125000D02*
X159732000Y-35887000D01*
X155668000Y-35887000D02*
X159732000Y-35887000D01*
X148810000Y-35125000D02*
X153128000Y-35125000D01*
X167860000Y-42745000D02*
X167860000Y-33855000D01*
X147540000Y-33855000D02*
X147540000Y-42745000D01*
X147540000Y-33855000D02*
X152239000Y-33855000D01*
X167860000Y-42745000D02*
X166590000Y-42745000D01*
X166590000Y-41475000D02*
X166590000Y-35125000D01*
X148810000Y-35125000D02*
X148810000Y-41475000D01*
X166590000Y-41475000D02*
X148810000Y-41475000D01*
D14*
X155414000Y-36776000D02*
X155414000Y-37284000D01*
X155414000Y-37284000D02*
X154906000Y-37284000D01*
X154906000Y-36776000D02*
X154906000Y-37284000D01*
X155414000Y-36776000D02*
X154906000Y-36776000D01*
X152874000Y-36776000D02*
X152874000Y-37284000D01*
X152874000Y-37284000D02*
X152366000Y-37284000D01*
X152366000Y-36776000D02*
X152366000Y-37284000D01*
X152874000Y-36776000D02*
X152366000Y-36776000D01*
X157954000Y-36776000D02*
X157954000Y-37284000D01*
X157954000Y-37284000D02*
X157446000Y-37284000D01*
X157446000Y-36776000D02*
X157446000Y-37284000D01*
X157954000Y-36776000D02*
X157446000Y-36776000D01*
X163034000Y-36776000D02*
X163034000Y-37284000D01*
X163034000Y-37284000D02*
X162526000Y-37284000D01*
X162526000Y-36776000D02*
X162526000Y-37284000D01*
X163034000Y-36776000D02*
X162526000Y-36776000D01*
X160494000Y-36776000D02*
X160494000Y-37284000D01*
X160494000Y-37284000D02*
X159986000Y-37284000D01*
X159986000Y-36776000D02*
X159986000Y-37284000D01*
X160494000Y-36776000D02*
X159986000Y-36776000D01*
X155414000Y-39316000D02*
X155414000Y-39824000D01*
X155414000Y-39824000D02*
X154906000Y-39824000D01*
X154906000Y-39316000D02*
X154906000Y-39824000D01*
X155414000Y-39316000D02*
X154906000Y-39316000D01*
X152874000Y-39316000D02*
X152874000Y-39824000D01*
X152874000Y-39824000D02*
X152366000Y-39824000D01*
X152366000Y-39316000D02*
X152366000Y-39824000D01*
X152874000Y-39316000D02*
X152366000Y-39316000D01*
X157954000Y-39316000D02*
X157954000Y-39824000D01*
X157954000Y-39824000D02*
X157446000Y-39824000D01*
X157446000Y-39316000D02*
X157446000Y-39824000D01*
X157954000Y-39316000D02*
X157446000Y-39316000D01*
X163034000Y-39316000D02*
X163034000Y-39824000D01*
X163034000Y-39824000D02*
X162526000Y-39824000D01*
X162526000Y-39316000D02*
X162526000Y-39824000D01*
X163034000Y-39316000D02*
X162526000Y-39316000D01*
X160494000Y-39316000D02*
X160494000Y-39824000D01*
X160494000Y-39824000D02*
X159986000Y-39824000D01*
X159986000Y-39316000D02*
X159986000Y-39824000D01*
X160494000Y-39316000D02*
X159986000Y-39316000D01*
D10*
%TO.C,J3*%
X169750000Y-42750000D02*
X181000000Y-42750000D01*
X169750000Y-46250000D02*
X181000000Y-46250000D01*
X169750000Y-49750000D02*
X181000000Y-49750000D01*
X169750000Y-56750000D02*
X181000000Y-56750000D01*
D15*
X177499680Y-69499740D02*
X177997520Y-68999360D01*
X177499680Y-69499740D02*
X177997520Y-69997580D01*
X179747580Y-69499740D02*
X177499680Y-69499740D01*
X169750000Y-71500000D02*
X169750000Y-42000000D01*
X181000000Y-71500000D02*
X169750000Y-71500000D01*
X181000000Y-42000000D02*
X169750000Y-42000000D01*
X181000000Y-71500000D02*
X181000000Y-42000000D01*
D10*
X169750000Y-67250000D02*
X181000000Y-67250000D01*
X169750000Y-63750000D02*
X181000000Y-63750000D01*
X169750000Y-60250000D02*
X181000000Y-60250000D01*
X169750000Y-53250000D02*
X181000000Y-53250000D01*
X169750000Y-70750000D02*
X181000000Y-70750000D01*
D11*
%TO.C,R1*%
X133910000Y-47428733D02*
X133910000Y-47771267D01*
X132890000Y-47428733D02*
X132890000Y-47771267D01*
%TO.C,R2*%
X132890000Y-53428733D02*
X132890000Y-53771267D01*
X133910000Y-53428733D02*
X133910000Y-53771267D01*
%TO.C,R3*%
X133910000Y-60428733D02*
X133910000Y-60771267D01*
X132890000Y-60428733D02*
X132890000Y-60771267D01*
%TO.C,R4*%
X133910000Y-67428733D02*
X133910000Y-67771267D01*
X132890000Y-67428733D02*
X132890000Y-67771267D01*
%TO.C,R5*%
X154510000Y-64971267D02*
X154510000Y-64628733D01*
X153490000Y-64971267D02*
X153490000Y-64628733D01*
%TO.C,R6*%
X154310000Y-57971267D02*
X154310000Y-57628733D01*
X153290000Y-57971267D02*
X153290000Y-57628733D01*
%TO.C,R7*%
X154410000Y-51071267D02*
X154410000Y-50728733D01*
X153390000Y-51071267D02*
X153390000Y-50728733D01*
%TO.C,RV1*%
X148440000Y-45980000D02*
X149020000Y-45980000D01*
X146140000Y-45980000D02*
X146660000Y-45980000D01*
X143780000Y-45980000D02*
X144361000Y-45980000D01*
X147640000Y-51220000D02*
X149020000Y-51220000D01*
X143780000Y-51220000D02*
X145160000Y-51220000D01*
X149020000Y-51220000D02*
X149020000Y-45980000D01*
X143780000Y-51220000D02*
X143780000Y-45980000D01*
%TO.C,RV2*%
X143780000Y-58220000D02*
X143780000Y-52980000D01*
X149020000Y-58220000D02*
X149020000Y-52980000D01*
X143780000Y-58220000D02*
X145160000Y-58220000D01*
X147640000Y-58220000D02*
X149020000Y-58220000D01*
X143780000Y-52980000D02*
X144361000Y-52980000D01*
X146140000Y-52980000D02*
X146660000Y-52980000D01*
X148440000Y-52980000D02*
X149020000Y-52980000D01*
%TO.C,RV3*%
X148440000Y-59980000D02*
X149020000Y-59980000D01*
X146140000Y-59980000D02*
X146660000Y-59980000D01*
X143780000Y-59980000D02*
X144361000Y-59980000D01*
X147640000Y-65220000D02*
X149020000Y-65220000D01*
X143780000Y-65220000D02*
X145160000Y-65220000D01*
X149020000Y-65220000D02*
X149020000Y-59980000D01*
X143780000Y-65220000D02*
X143780000Y-59980000D01*
%TO.C,RV4*%
X143780000Y-73220000D02*
X143780000Y-67980000D01*
X149020000Y-73220000D02*
X149020000Y-67980000D01*
X143780000Y-73220000D02*
X145160000Y-73220000D01*
X147640000Y-73220000D02*
X149020000Y-73220000D01*
X143780000Y-67980000D02*
X144361000Y-67980000D01*
X146140000Y-67980000D02*
X146660000Y-67980000D01*
X148440000Y-67980000D02*
X149020000Y-67980000D01*
%TO.C,U1*%
X138400000Y-46040000D02*
X134950000Y-46040000D01*
X138400000Y-46040000D02*
X140350000Y-46040000D01*
X138400000Y-51160000D02*
X136450000Y-51160000D01*
X138400000Y-51160000D02*
X140350000Y-51160000D01*
%TO.C,U2*%
X138400000Y-58160000D02*
X140350000Y-58160000D01*
X138400000Y-58160000D02*
X136450000Y-58160000D01*
X138400000Y-53040000D02*
X140350000Y-53040000D01*
X138400000Y-53040000D02*
X134950000Y-53040000D01*
%TO.C,U3*%
X138400000Y-60040000D02*
X134950000Y-60040000D01*
X138400000Y-60040000D02*
X140350000Y-60040000D01*
X138400000Y-65160000D02*
X136450000Y-65160000D01*
X138400000Y-65160000D02*
X140350000Y-65160000D01*
%TO.C,U4*%
X138400000Y-67040000D02*
X134950000Y-67040000D01*
X138400000Y-67040000D02*
X140350000Y-67040000D01*
X138400000Y-72160000D02*
X136450000Y-72160000D01*
X138400000Y-72160000D02*
X140350000Y-72160000D01*
%TO.C,U6*%
X167235000Y-64340000D02*
X154765000Y-64340000D01*
X167235000Y-69660000D02*
X167235000Y-64340000D01*
X154765000Y-69660000D02*
X167235000Y-69660000D01*
X154765000Y-64340000D02*
X154765000Y-69660000D01*
X163535000Y-64400000D02*
X162000000Y-64400000D01*
X163535000Y-69600000D02*
X163535000Y-64400000D01*
X158465000Y-69600000D02*
X163535000Y-69600000D01*
X158465000Y-64400000D02*
X158465000Y-69600000D01*
X160000000Y-64400000D02*
X158465000Y-64400000D01*
X162000000Y-64400000D02*
G75*
G02*
X160000000Y-64400000I-1000000J0D01*
G01*
%TO.C,U7*%
X167235000Y-57340000D02*
X154765000Y-57340000D01*
X167235000Y-62660000D02*
X167235000Y-57340000D01*
X154765000Y-62660000D02*
X167235000Y-62660000D01*
X154765000Y-57340000D02*
X154765000Y-62660000D01*
X163535000Y-57400000D02*
X162000000Y-57400000D01*
X163535000Y-62600000D02*
X163535000Y-57400000D01*
X158465000Y-62600000D02*
X163535000Y-62600000D01*
X158465000Y-57400000D02*
X158465000Y-62600000D01*
X160000000Y-57400000D02*
X158465000Y-57400000D01*
X162000000Y-57400000D02*
G75*
G02*
X160000000Y-57400000I-1000000J0D01*
G01*
%TO.C,U8*%
X162000000Y-50400000D02*
G75*
G02*
X160000000Y-50400000I-1000000J0D01*
G01*
X160000000Y-50400000D02*
X158465000Y-50400000D01*
X158465000Y-50400000D02*
X158465000Y-55600000D01*
X158465000Y-55600000D02*
X163535000Y-55600000D01*
X163535000Y-55600000D02*
X163535000Y-50400000D01*
X163535000Y-50400000D02*
X162000000Y-50400000D01*
X154765000Y-50340000D02*
X154765000Y-55660000D01*
X154765000Y-55660000D02*
X167235000Y-55660000D01*
X167235000Y-55660000D02*
X167235000Y-50340000D01*
X167235000Y-50340000D02*
X154765000Y-50340000D01*
%TO.C,C1*%
D10*
X142833333Y-66357142D02*
X142785714Y-66404761D01*
X142642857Y-66452380D01*
X142547619Y-66452380D01*
X142404761Y-66404761D01*
X142309523Y-66309523D01*
X142261904Y-66214285D01*
X142214285Y-66023809D01*
X142214285Y-65880952D01*
X142261904Y-65690476D01*
X142309523Y-65595238D01*
X142404761Y-65500000D01*
X142547619Y-65452380D01*
X142642857Y-65452380D01*
X142785714Y-65500000D01*
X142833333Y-65547619D01*
X143785714Y-66452380D02*
X143214285Y-66452380D01*
X143500000Y-66452380D02*
X143500000Y-65452380D01*
X143404761Y-65595238D01*
X143309523Y-65690476D01*
X143214285Y-65738095D01*
%TO.C,C2*%
X142833333Y-52357142D02*
X142785714Y-52404761D01*
X142642857Y-52452380D01*
X142547619Y-52452380D01*
X142404761Y-52404761D01*
X142309523Y-52309523D01*
X142261904Y-52214285D01*
X142214285Y-52023809D01*
X142214285Y-51880952D01*
X142261904Y-51690476D01*
X142309523Y-51595238D01*
X142404761Y-51500000D01*
X142547619Y-51452380D01*
X142642857Y-51452380D01*
X142785714Y-51500000D01*
X142833333Y-51547619D01*
X143214285Y-51547619D02*
X143261904Y-51500000D01*
X143357142Y-51452380D01*
X143595238Y-51452380D01*
X143690476Y-51500000D01*
X143738095Y-51547619D01*
X143785714Y-51642857D01*
X143785714Y-51738095D01*
X143738095Y-51880952D01*
X143166666Y-52452380D01*
X143785714Y-52452380D01*
%TO.C,C3*%
X142833333Y-45357142D02*
X142785714Y-45404761D01*
X142642857Y-45452380D01*
X142547619Y-45452380D01*
X142404761Y-45404761D01*
X142309523Y-45309523D01*
X142261904Y-45214285D01*
X142214285Y-45023809D01*
X142214285Y-44880952D01*
X142261904Y-44690476D01*
X142309523Y-44595238D01*
X142404761Y-44500000D01*
X142547619Y-44452380D01*
X142642857Y-44452380D01*
X142785714Y-44500000D01*
X142833333Y-44547619D01*
X143166666Y-44452380D02*
X143785714Y-44452380D01*
X143452380Y-44833333D01*
X143595238Y-44833333D01*
X143690476Y-44880952D01*
X143738095Y-44928571D01*
X143785714Y-45023809D01*
X143785714Y-45261904D01*
X143738095Y-45357142D01*
X143690476Y-45404761D01*
X143595238Y-45452380D01*
X143309523Y-45452380D01*
X143214285Y-45404761D01*
X143166666Y-45357142D01*
%TO.C,C4*%
X142833333Y-59357142D02*
X142785714Y-59404761D01*
X142642857Y-59452380D01*
X142547619Y-59452380D01*
X142404761Y-59404761D01*
X142309523Y-59309523D01*
X142261904Y-59214285D01*
X142214285Y-59023809D01*
X142214285Y-58880952D01*
X142261904Y-58690476D01*
X142309523Y-58595238D01*
X142404761Y-58500000D01*
X142547619Y-58452380D01*
X142642857Y-58452380D01*
X142785714Y-58500000D01*
X142833333Y-58547619D01*
X143690476Y-58785714D02*
X143690476Y-59452380D01*
X143452380Y-58404761D02*
X143214285Y-59119047D01*
X143833333Y-59119047D01*
%TO.C,J1*%
X127336666Y-51722380D02*
X127336666Y-52436666D01*
X127289047Y-52579523D01*
X127193809Y-52674761D01*
X127050952Y-52722380D01*
X126955714Y-52722380D01*
X128336666Y-52722380D02*
X127765238Y-52722380D01*
X128050952Y-52722380D02*
X128050952Y-51722380D01*
X127955714Y-51865238D01*
X127860476Y-51960476D01*
X127765238Y-52008095D01*
%TO.C,J2*%
D16*
X157022666Y-34175523D02*
X157022666Y-35082666D01*
X156962190Y-35264095D01*
X156841238Y-35385047D01*
X156659809Y-35445523D01*
X156538857Y-35445523D01*
X157566952Y-34296476D02*
X157627428Y-34236000D01*
X157748380Y-34175523D01*
X158050761Y-34175523D01*
X158171714Y-34236000D01*
X158232190Y-34296476D01*
X158292666Y-34417428D01*
X158292666Y-34538380D01*
X158232190Y-34719809D01*
X157506476Y-35445523D01*
X158292666Y-35445523D01*
D17*
X152785714Y-42961904D02*
X153052380Y-43761904D01*
X153319047Y-42961904D01*
X153547619Y-43533333D02*
X153928571Y-43533333D01*
X153471428Y-43761904D02*
X153738095Y-42961904D01*
X154004761Y-43761904D01*
X154652380Y-43761904D02*
X154271428Y-43761904D01*
X154271428Y-42961904D01*
X154919047Y-42961904D02*
X154919047Y-43609523D01*
X154957142Y-43685714D01*
X154995238Y-43723809D01*
X155071428Y-43761904D01*
X155223809Y-43761904D01*
X155300000Y-43723809D01*
X155338095Y-43685714D01*
X155376190Y-43609523D01*
X155376190Y-42961904D01*
X155757142Y-43342857D02*
X156023809Y-43342857D01*
X156138095Y-43761904D02*
X155757142Y-43761904D01*
X155757142Y-42961904D01*
X156138095Y-42961904D01*
D16*
X165047857Y-37604523D02*
X164322142Y-37604523D01*
X164685000Y-37604523D02*
X164685000Y-36334523D01*
X164564047Y-36515952D01*
X164443095Y-36636904D01*
X164322142Y-36697380D01*
X164322142Y-38995476D02*
X164382619Y-38935000D01*
X164503571Y-38874523D01*
X164805952Y-38874523D01*
X164926904Y-38935000D01*
X164987380Y-38995476D01*
X165047857Y-39116428D01*
X165047857Y-39237380D01*
X164987380Y-39418809D01*
X164261666Y-40144523D01*
X165047857Y-40144523D01*
%TO.C,J3*%
D17*
X168561904Y-70016666D02*
X169133333Y-70016666D01*
X169247619Y-70054761D01*
X169323809Y-70130952D01*
X169361904Y-70245238D01*
X169361904Y-70321428D01*
X168561904Y-69711904D02*
X168561904Y-69216666D01*
X168866666Y-69483333D01*
X168866666Y-69369047D01*
X168904761Y-69292857D01*
X168942857Y-69254761D01*
X169019047Y-69216666D01*
X169209523Y-69216666D01*
X169285714Y-69254761D01*
X169323809Y-69292857D01*
X169361904Y-69369047D01*
X169361904Y-69597619D01*
X169323809Y-69673809D01*
X169285714Y-69711904D01*
%TO.C,R1*%
D10*
X132452380Y-47166666D02*
X131976190Y-47500000D01*
X132452380Y-47738095D02*
X131452380Y-47738095D01*
X131452380Y-47357142D01*
X131500000Y-47261904D01*
X131547619Y-47214285D01*
X131642857Y-47166666D01*
X131785714Y-47166666D01*
X131880952Y-47214285D01*
X131928571Y-47261904D01*
X131976190Y-47357142D01*
X131976190Y-47738095D01*
X132452380Y-46214285D02*
X132452380Y-46785714D01*
X132452380Y-46500000D02*
X131452380Y-46500000D01*
X131595238Y-46595238D01*
X131690476Y-46690476D01*
X131738095Y-46785714D01*
%TO.C,R2*%
X132452380Y-53166666D02*
X131976190Y-53500000D01*
X132452380Y-53738095D02*
X131452380Y-53738095D01*
X131452380Y-53357142D01*
X131500000Y-53261904D01*
X131547619Y-53214285D01*
X131642857Y-53166666D01*
X131785714Y-53166666D01*
X131880952Y-53214285D01*
X131928571Y-53261904D01*
X131976190Y-53357142D01*
X131976190Y-53738095D01*
X131547619Y-52785714D02*
X131500000Y-52738095D01*
X131452380Y-52642857D01*
X131452380Y-52404761D01*
X131500000Y-52309523D01*
X131547619Y-52261904D01*
X131642857Y-52214285D01*
X131738095Y-52214285D01*
X131880952Y-52261904D01*
X132452380Y-52833333D01*
X132452380Y-52214285D01*
%TO.C,R3*%
X132452380Y-60166666D02*
X131976190Y-60500000D01*
X132452380Y-60738095D02*
X131452380Y-60738095D01*
X131452380Y-60357142D01*
X131500000Y-60261904D01*
X131547619Y-60214285D01*
X131642857Y-60166666D01*
X131785714Y-60166666D01*
X131880952Y-60214285D01*
X131928571Y-60261904D01*
X131976190Y-60357142D01*
X131976190Y-60738095D01*
X131452380Y-59833333D02*
X131452380Y-59214285D01*
X131833333Y-59547619D01*
X131833333Y-59404761D01*
X131880952Y-59309523D01*
X131928571Y-59261904D01*
X132023809Y-59214285D01*
X132261904Y-59214285D01*
X132357142Y-59261904D01*
X132404761Y-59309523D01*
X132452380Y-59404761D01*
X132452380Y-59690476D01*
X132404761Y-59785714D01*
X132357142Y-59833333D01*
%TO.C,R4*%
X132452380Y-67166666D02*
X131976190Y-67500000D01*
X132452380Y-67738095D02*
X131452380Y-67738095D01*
X131452380Y-67357142D01*
X131500000Y-67261904D01*
X131547619Y-67214285D01*
X131642857Y-67166666D01*
X131785714Y-67166666D01*
X131880952Y-67214285D01*
X131928571Y-67261904D01*
X131976190Y-67357142D01*
X131976190Y-67738095D01*
X131785714Y-66309523D02*
X132452380Y-66309523D01*
X131404761Y-66547619D02*
X132119047Y-66785714D01*
X132119047Y-66166666D01*
%TO.C,R5*%
X153022380Y-64966666D02*
X152546190Y-65300000D01*
X153022380Y-65538095D02*
X152022380Y-65538095D01*
X152022380Y-65157142D01*
X152070000Y-65061904D01*
X152117619Y-65014285D01*
X152212857Y-64966666D01*
X152355714Y-64966666D01*
X152450952Y-65014285D01*
X152498571Y-65061904D01*
X152546190Y-65157142D01*
X152546190Y-65538095D01*
X152022380Y-64061904D02*
X152022380Y-64538095D01*
X152498571Y-64585714D01*
X152450952Y-64538095D01*
X152403333Y-64442857D01*
X152403333Y-64204761D01*
X152450952Y-64109523D01*
X152498571Y-64061904D01*
X152593809Y-64014285D01*
X152831904Y-64014285D01*
X152927142Y-64061904D01*
X152974761Y-64109523D01*
X153022380Y-64204761D01*
X153022380Y-64442857D01*
X152974761Y-64538095D01*
X152927142Y-64585714D01*
%TO.C,R6*%
X152822380Y-57966666D02*
X152346190Y-58300000D01*
X152822380Y-58538095D02*
X151822380Y-58538095D01*
X151822380Y-58157142D01*
X151870000Y-58061904D01*
X151917619Y-58014285D01*
X152012857Y-57966666D01*
X152155714Y-57966666D01*
X152250952Y-58014285D01*
X152298571Y-58061904D01*
X152346190Y-58157142D01*
X152346190Y-58538095D01*
X151822380Y-57109523D02*
X151822380Y-57300000D01*
X151870000Y-57395238D01*
X151917619Y-57442857D01*
X152060476Y-57538095D01*
X152250952Y-57585714D01*
X152631904Y-57585714D01*
X152727142Y-57538095D01*
X152774761Y-57490476D01*
X152822380Y-57395238D01*
X152822380Y-57204761D01*
X152774761Y-57109523D01*
X152727142Y-57061904D01*
X152631904Y-57014285D01*
X152393809Y-57014285D01*
X152298571Y-57061904D01*
X152250952Y-57109523D01*
X152203333Y-57204761D01*
X152203333Y-57395238D01*
X152250952Y-57490476D01*
X152298571Y-57538095D01*
X152393809Y-57585714D01*
%TO.C,R7*%
X152922380Y-51066666D02*
X152446190Y-51400000D01*
X152922380Y-51638095D02*
X151922380Y-51638095D01*
X151922380Y-51257142D01*
X151970000Y-51161904D01*
X152017619Y-51114285D01*
X152112857Y-51066666D01*
X152255714Y-51066666D01*
X152350952Y-51114285D01*
X152398571Y-51161904D01*
X152446190Y-51257142D01*
X152446190Y-51638095D01*
X151922380Y-50733333D02*
X151922380Y-50066666D01*
X152922380Y-50495238D01*
%TO.C,RV1*%
X150452380Y-49195238D02*
X149976190Y-49528571D01*
X150452380Y-49766666D02*
X149452380Y-49766666D01*
X149452380Y-49385714D01*
X149500000Y-49290476D01*
X149547619Y-49242857D01*
X149642857Y-49195238D01*
X149785714Y-49195238D01*
X149880952Y-49242857D01*
X149928571Y-49290476D01*
X149976190Y-49385714D01*
X149976190Y-49766666D01*
X149452380Y-48909523D02*
X150452380Y-48576190D01*
X149452380Y-48242857D01*
X150452380Y-47385714D02*
X150452380Y-47957142D01*
X150452380Y-47671428D02*
X149452380Y-47671428D01*
X149595238Y-47766666D01*
X149690476Y-47861904D01*
X149738095Y-47957142D01*
%TO.C,RV2*%
X150452380Y-56195238D02*
X149976190Y-56528571D01*
X150452380Y-56766666D02*
X149452380Y-56766666D01*
X149452380Y-56385714D01*
X149500000Y-56290476D01*
X149547619Y-56242857D01*
X149642857Y-56195238D01*
X149785714Y-56195238D01*
X149880952Y-56242857D01*
X149928571Y-56290476D01*
X149976190Y-56385714D01*
X149976190Y-56766666D01*
X149452380Y-55909523D02*
X150452380Y-55576190D01*
X149452380Y-55242857D01*
X149547619Y-54957142D02*
X149500000Y-54909523D01*
X149452380Y-54814285D01*
X149452380Y-54576190D01*
X149500000Y-54480952D01*
X149547619Y-54433333D01*
X149642857Y-54385714D01*
X149738095Y-54385714D01*
X149880952Y-54433333D01*
X150452380Y-55004761D01*
X150452380Y-54385714D01*
%TO.C,RV3*%
X150452380Y-63595238D02*
X149976190Y-63928571D01*
X150452380Y-64166666D02*
X149452380Y-64166666D01*
X149452380Y-63785714D01*
X149500000Y-63690476D01*
X149547619Y-63642857D01*
X149642857Y-63595238D01*
X149785714Y-63595238D01*
X149880952Y-63642857D01*
X149928571Y-63690476D01*
X149976190Y-63785714D01*
X149976190Y-64166666D01*
X149452380Y-63309523D02*
X150452380Y-62976190D01*
X149452380Y-62642857D01*
X149452380Y-62404761D02*
X149452380Y-61785714D01*
X149833333Y-62119047D01*
X149833333Y-61976190D01*
X149880952Y-61880952D01*
X149928571Y-61833333D01*
X150023809Y-61785714D01*
X150261904Y-61785714D01*
X150357142Y-61833333D01*
X150404761Y-61880952D01*
X150452380Y-61976190D01*
X150452380Y-62261904D01*
X150404761Y-62357142D01*
X150357142Y-62404761D01*
%TO.C,RV4*%
X150452380Y-71195238D02*
X149976190Y-71528571D01*
X150452380Y-71766666D02*
X149452380Y-71766666D01*
X149452380Y-71385714D01*
X149500000Y-71290476D01*
X149547619Y-71242857D01*
X149642857Y-71195238D01*
X149785714Y-71195238D01*
X149880952Y-71242857D01*
X149928571Y-71290476D01*
X149976190Y-71385714D01*
X149976190Y-71766666D01*
X149452380Y-70909523D02*
X150452380Y-70576190D01*
X149452380Y-70242857D01*
X149785714Y-69480952D02*
X150452380Y-69480952D01*
X149404761Y-69719047D02*
X150119047Y-69957142D01*
X150119047Y-69338095D01*
%TO.C,U1*%
X135238095Y-44652380D02*
X135238095Y-45461904D01*
X135285714Y-45557142D01*
X135333333Y-45604761D01*
X135428571Y-45652380D01*
X135619047Y-45652380D01*
X135714285Y-45604761D01*
X135761904Y-45557142D01*
X135809523Y-45461904D01*
X135809523Y-44652380D01*
X136809523Y-45652380D02*
X136238095Y-45652380D01*
X136523809Y-45652380D02*
X136523809Y-44652380D01*
X136428571Y-44795238D01*
X136333333Y-44890476D01*
X136238095Y-44938095D01*
%TO.C,U2*%
X135238095Y-51652380D02*
X135238095Y-52461904D01*
X135285714Y-52557142D01*
X135333333Y-52604761D01*
X135428571Y-52652380D01*
X135619047Y-52652380D01*
X135714285Y-52604761D01*
X135761904Y-52557142D01*
X135809523Y-52461904D01*
X135809523Y-51652380D01*
X136238095Y-51747619D02*
X136285714Y-51700000D01*
X136380952Y-51652380D01*
X136619047Y-51652380D01*
X136714285Y-51700000D01*
X136761904Y-51747619D01*
X136809523Y-51842857D01*
X136809523Y-51938095D01*
X136761904Y-52080952D01*
X136190476Y-52652380D01*
X136809523Y-52652380D01*
%TO.C,U3*%
X135238095Y-58652380D02*
X135238095Y-59461904D01*
X135285714Y-59557142D01*
X135333333Y-59604761D01*
X135428571Y-59652380D01*
X135619047Y-59652380D01*
X135714285Y-59604761D01*
X135761904Y-59557142D01*
X135809523Y-59461904D01*
X135809523Y-58652380D01*
X136190476Y-58652380D02*
X136809523Y-58652380D01*
X136476190Y-59033333D01*
X136619047Y-59033333D01*
X136714285Y-59080952D01*
X136761904Y-59128571D01*
X136809523Y-59223809D01*
X136809523Y-59461904D01*
X136761904Y-59557142D01*
X136714285Y-59604761D01*
X136619047Y-59652380D01*
X136333333Y-59652380D01*
X136238095Y-59604761D01*
X136190476Y-59557142D01*
%TO.C,U4*%
X135238095Y-65652380D02*
X135238095Y-66461904D01*
X135285714Y-66557142D01*
X135333333Y-66604761D01*
X135428571Y-66652380D01*
X135619047Y-66652380D01*
X135714285Y-66604761D01*
X135761904Y-66557142D01*
X135809523Y-66461904D01*
X135809523Y-65652380D01*
X136714285Y-65985714D02*
X136714285Y-66652380D01*
X136476190Y-65604761D02*
X136238095Y-66319047D01*
X136857142Y-66319047D01*
%TO.C,U6*%
X160238095Y-62852380D02*
X160238095Y-63661904D01*
X160285714Y-63757142D01*
X160333333Y-63804761D01*
X160428571Y-63852380D01*
X160619047Y-63852380D01*
X160714285Y-63804761D01*
X160761904Y-63757142D01*
X160809523Y-63661904D01*
X160809523Y-62852380D01*
X161714285Y-62852380D02*
X161523809Y-62852380D01*
X161428571Y-62900000D01*
X161380952Y-62947619D01*
X161285714Y-63090476D01*
X161238095Y-63280952D01*
X161238095Y-63661904D01*
X161285714Y-63757142D01*
X161333333Y-63804761D01*
X161428571Y-63852380D01*
X161619047Y-63852380D01*
X161714285Y-63804761D01*
X161761904Y-63757142D01*
X161809523Y-63661904D01*
X161809523Y-63423809D01*
X161761904Y-63328571D01*
X161714285Y-63280952D01*
X161619047Y-63233333D01*
X161428571Y-63233333D01*
X161333333Y-63280952D01*
X161285714Y-63328571D01*
X161238095Y-63423809D01*
%TO.C,U7*%
X160238095Y-55852380D02*
X160238095Y-56661904D01*
X160285714Y-56757142D01*
X160333333Y-56804761D01*
X160428571Y-56852380D01*
X160619047Y-56852380D01*
X160714285Y-56804761D01*
X160761904Y-56757142D01*
X160809523Y-56661904D01*
X160809523Y-55852380D01*
X161190476Y-55852380D02*
X161857142Y-55852380D01*
X161428571Y-56852380D01*
%TO.C,U8*%
X160238095Y-48852380D02*
X160238095Y-49661904D01*
X160285714Y-49757142D01*
X160333333Y-49804761D01*
X160428571Y-49852380D01*
X160619047Y-49852380D01*
X160714285Y-49804761D01*
X160761904Y-49757142D01*
X160809523Y-49661904D01*
X160809523Y-48852380D01*
X161428571Y-49280952D02*
X161333333Y-49233333D01*
X161285714Y-49185714D01*
X161238095Y-49090476D01*
X161238095Y-49042857D01*
X161285714Y-48947619D01*
X161333333Y-48900000D01*
X161428571Y-48852380D01*
X161619047Y-48852380D01*
X161714285Y-48900000D01*
X161761904Y-48947619D01*
X161809523Y-49042857D01*
X161809523Y-49090476D01*
X161761904Y-49185714D01*
X161714285Y-49233333D01*
X161619047Y-49280952D01*
X161428571Y-49280952D01*
X161333333Y-49328571D01*
X161285714Y-49376190D01*
X161238095Y-49471428D01*
X161238095Y-49661904D01*
X161285714Y-49757142D01*
X161333333Y-49804761D01*
X161428571Y-49852380D01*
X161619047Y-49852380D01*
X161714285Y-49804761D01*
X161761904Y-49757142D01*
X161809523Y-49661904D01*
X161809523Y-49471428D01*
X161761904Y-49376190D01*
X161714285Y-49328571D01*
X161619047Y-49280952D01*
%TD*%
M02*
