%TF.GenerationSoftware,KiCad,Pcbnew,7.0.5-7.0.5~ubuntu22.04.1*%
%TF.CreationDate,2023-07-07T22:55:56+02:00*%
%TF.ProjectId,door_if3_usb_machine,646f6f72-5f69-4663-935f-7573625f6d61,rev?*%
%TF.SameCoordinates,Original*%
%TF.FileFunction,Copper,L1,Top*%
%TF.FilePolarity,Positive*%
%FSLAX46Y46*%
G04 Gerber Fmt 4.6, Leading zero omitted, Abs format (unit mm)*
G04 Created by KiCad (PCBNEW 7.0.5-7.0.5~ubuntu22.04.1) date 2023-07-07 22:55:56*
%MOMM*%
%LPD*%
G01*
G04 APERTURE LIST*
G04 Aperture macros list*
%AMRoundRect*
0 Rectangle with rounded corners*
0 $1 Rounding radius*
0 $2 $3 $4 $5 $6 $7 $8 $9 X,Y pos of 4 corners*
0 Add a 4 corners polygon primitive as box body*
4,1,4,$2,$3,$4,$5,$6,$7,$8,$9,$2,$3,0*
0 Add four circle primitives for the rounded corners*
1,1,$1+$1,$2,$3*
1,1,$1+$1,$4,$5*
1,1,$1+$1,$6,$7*
1,1,$1+$1,$8,$9*
0 Add four rect primitives between the rounded corners*
20,1,$1+$1,$2,$3,$4,$5,0*
20,1,$1+$1,$4,$5,$6,$7,0*
20,1,$1+$1,$6,$7,$8,$9,0*
20,1,$1+$1,$8,$9,$2,$3,0*%
G04 Aperture macros list end*
%TA.AperFunction,ComponentPad*%
%ADD10C,2.500000*%
%TD*%
%TA.AperFunction,SMDPad,CuDef*%
%ADD11RoundRect,0.237500X0.250000X0.237500X-0.250000X0.237500X-0.250000X-0.237500X0.250000X-0.237500X0*%
%TD*%
%TA.AperFunction,SMDPad,CuDef*%
%ADD12RoundRect,0.250000X0.900000X-1.500000X0.900000X1.500000X-0.900000X1.500000X-0.900000X-1.500000X0*%
%TD*%
%TA.AperFunction,SMDPad,CuDef*%
%ADD13RoundRect,0.237500X-0.250000X-0.237500X0.250000X-0.237500X0.250000X0.237500X-0.250000X0.237500X0*%
%TD*%
%TA.AperFunction,ComponentPad*%
%ADD14C,1.422400*%
%TD*%
%TA.AperFunction,SMDPad,CuDef*%
%ADD15RoundRect,0.250000X1.500000X0.900000X-1.500000X0.900000X-1.500000X-0.900000X1.500000X-0.900000X0*%
%TD*%
%TA.AperFunction,SMDPad,CuDef*%
%ADD16R,1.000000X1.500000*%
%TD*%
%TA.AperFunction,SMDPad,CuDef*%
%ADD17RoundRect,0.150000X0.725000X0.150000X-0.725000X0.150000X-0.725000X-0.150000X0.725000X-0.150000X0*%
%TD*%
%TA.AperFunction,SMDPad,CuDef*%
%ADD18R,0.800000X1.300000*%
%TD*%
%TA.AperFunction,SMDPad,CuDef*%
%ADD19RoundRect,0.237500X0.237500X-0.250000X0.237500X0.250000X-0.237500X0.250000X-0.237500X-0.250000X0*%
%TD*%
%TA.AperFunction,SMDPad,CuDef*%
%ADD20RoundRect,0.237500X-0.237500X0.250000X-0.237500X-0.250000X0.237500X-0.250000X0.237500X0.250000X0*%
%TD*%
%TA.AperFunction,SMDPad,CuDef*%
%ADD21RoundRect,0.150000X-0.150000X0.725000X-0.150000X-0.725000X0.150000X-0.725000X0.150000X0.725000X0*%
%TD*%
%TA.AperFunction,SMDPad,CuDef*%
%ADD22RoundRect,0.237500X0.287500X0.237500X-0.287500X0.237500X-0.287500X-0.237500X0.287500X-0.237500X0*%
%TD*%
%TA.AperFunction,SMDPad,CuDef*%
%ADD23RoundRect,0.237500X0.300000X0.237500X-0.300000X0.237500X-0.300000X-0.237500X0.300000X-0.237500X0*%
%TD*%
%TA.AperFunction,SMDPad,CuDef*%
%ADD24RoundRect,0.250000X-0.900000X1.500000X-0.900000X-1.500000X0.900000X-1.500000X0.900000X1.500000X0*%
%TD*%
%TA.AperFunction,SMDPad,CuDef*%
%ADD25RoundRect,0.150000X0.150000X-0.725000X0.150000X0.725000X-0.150000X0.725000X-0.150000X-0.725000X0*%
%TD*%
%TA.AperFunction,SMDPad,CuDef*%
%ADD26R,3.500000X1.700000*%
%TD*%
%TA.AperFunction,SMDPad,CuDef*%
%ADD27R,1.700000X3.500000*%
%TD*%
%TA.AperFunction,ViaPad*%
%ADD28C,0.600000*%
%TD*%
%TA.AperFunction,ViaPad*%
%ADD29C,1.000000*%
%TD*%
%TA.AperFunction,Conductor*%
%ADD30C,0.250000*%
%TD*%
%TA.AperFunction,Conductor*%
%ADD31C,1.000000*%
%TD*%
%TA.AperFunction,Conductor*%
%ADD32C,0.150000*%
%TD*%
G04 APERTURE END LIST*
D10*
%TO.P,J3,1,Pin_1*%
%TO.N,+24V*%
X114000000Y-93670000D03*
%TO.P,J3,2,Pin_2*%
%TO.N,OUT1*%
X114000000Y-89860000D03*
%TO.P,J3,3,Pin_3*%
%TO.N,OUT2*%
X114000000Y-86050000D03*
%TO.P,J3,4,Pin_4*%
%TO.N,OUT3*%
X114000000Y-82240000D03*
%TO.P,J3,5,Pin_5*%
%TO.N,unconnected-(J3-Pin_5-Pad5)*%
X114000000Y-78430000D03*
%TO.P,J3,6,Pin_6*%
%TO.N,unconnected-(J3-Pin_6-Pad6)*%
X114000000Y-74620000D03*
%TO.P,J3,7,Pin_7*%
%TO.N,unconnected-(J3-Pin_7-Pad7)*%
X114000000Y-70810000D03*
%TO.P,J3,8,Pin_8*%
%TO.N,GNDA*%
X114000000Y-67000000D03*
%TD*%
%TO.P,J1,1,Pin_1*%
%TO.N,+24V*%
X114000000Y-134000000D03*
%TO.P,J1,2,Pin_2*%
%TO.N,IN1*%
X114000000Y-130190000D03*
%TO.P,J1,3,Pin_3*%
%TO.N,IN2*%
X114000000Y-126380000D03*
%TO.P,J1,4,Pin_4*%
%TO.N,unconnected-(J1-Pin_4-Pad4)*%
X114000000Y-122570000D03*
%TO.P,J1,5,Pin_5*%
%TO.N,OUT4*%
X114000000Y-118760000D03*
%TO.P,J1,6,Pin_6*%
%TO.N,OUT5*%
X114000000Y-114950000D03*
%TO.P,J1,7,Pin_7*%
%TO.N,OUT6*%
X114000000Y-111140000D03*
%TO.P,J1,8,Pin_8*%
%TO.N,GNDA*%
X114000000Y-107330000D03*
%TD*%
D11*
%TO.P,R3,1*%
%TO.N,S_OUT4*%
X140912500Y-65800000D03*
%TO.P,R3,2*%
%TO.N,Net-(R3-Pad2)*%
X139087500Y-65800000D03*
%TD*%
%TO.P,R22,1*%
%TO.N,Net-(R22-Pad1)*%
X137662500Y-92750000D03*
%TO.P,R22,2*%
%TO.N,Net-(JP17-C)*%
X135837500Y-92750000D03*
%TD*%
D12*
%TO.P,D8,1,K*%
%TO.N,+24V*%
X121000000Y-125700000D03*
%TO.P,D8,2,A*%
%TO.N,OUT4*%
X121000000Y-120300000D03*
%TD*%
D13*
%TO.P,R26,1*%
%TO.N,GNDA*%
X131087500Y-101000000D03*
%TO.P,R26,2*%
%TO.N,Net-(JP18-A)*%
X132912500Y-101000000D03*
%TD*%
D14*
%TO.P,J2,1,Pin_1*%
%TO.N,+3V3*%
X162540000Y-131000000D03*
%TO.P,J2,2,Pin_2*%
%TO.N,SPI_CS*%
X162540000Y-133540000D03*
%TO.P,J2,3,Pin_3*%
%TO.N,SPI_MOSI*%
X160000000Y-131000000D03*
%TO.P,J2,4,Pin_4*%
%TO.N,SPI_MISO*%
X160000000Y-133540000D03*
%TO.P,J2,5,Pin_5*%
%TO.N,SPI_CLK*%
X157460000Y-131000000D03*
%TO.P,J2,6,Pin_6*%
%TO.N,I2C_SCL*%
X157460000Y-133540000D03*
%TO.P,J2,7,Pin_7*%
%TO.N,I2C_SDA*%
X154920000Y-131000000D03*
%TO.P,J2,8,Pin_8*%
%TO.N,UART_RX*%
X154920000Y-133540000D03*
%TO.P,J2,9,Pin_9*%
%TO.N,UART_TX*%
X152380000Y-131000000D03*
%TO.P,J2,10,Pin_10*%
%TO.N,GND*%
X152380000Y-133540000D03*
%TD*%
D15*
%TO.P,D12,1,K*%
%TO.N,+24V*%
X126500000Y-108900000D03*
%TO.P,D12,2,A*%
%TO.N,OUT6*%
X121100000Y-108900000D03*
%TD*%
D13*
%TO.P,R1,1*%
%TO.N,Net-(D1-A)*%
X141837500Y-134750000D03*
%TO.P,R1,2*%
%TO.N,O_LED*%
X143662500Y-134750000D03*
%TD*%
D16*
%TO.P,JP1,1,A*%
%TO.N,+24V*%
X122300000Y-74000000D03*
%TO.P,JP1,2,C*%
%TO.N,Net-(JP1-C)*%
X123600000Y-74000000D03*
%TO.P,JP1,3,B*%
%TO.N,Net-(JP1-B)*%
X124900000Y-74000000D03*
%TD*%
D11*
%TO.P,R4,1*%
%TO.N,Net-(R4-Pad1)*%
X130412500Y-69800000D03*
%TO.P,R4,2*%
%TO.N,Net-(JP1-C)*%
X128587500Y-69800000D03*
%TD*%
D17*
%TO.P,Q1,1,S1*%
%TO.N,GNDA*%
X131825000Y-98905000D03*
%TO.P,Q1,2,G1*%
%TO.N,Net-(JP18-A)*%
X131825000Y-97635000D03*
%TO.P,Q1,3,S2*%
%TO.N,+24V*%
X131825000Y-96365000D03*
%TO.P,Q1,4,G2*%
%TO.N,Net-(JP17-B)*%
X131825000Y-95095000D03*
%TO.P,Q1,5,D*%
%TO.N,OUT1*%
X126675000Y-95095000D03*
%TO.P,Q1,6,D*%
X126675000Y-96365000D03*
%TO.P,Q1,7,D*%
X126675000Y-97635000D03*
%TO.P,Q1,8,D*%
X126675000Y-98905000D03*
%TD*%
D13*
%TO.P,R15,1*%
%TO.N,GNDA*%
X132087500Y-103750000D03*
%TO.P,R15,2*%
%TO.N,Net-(JP8-A)*%
X133912500Y-103750000D03*
%TD*%
%TO.P,R16,1*%
%TO.N,Net-(JP5-B)*%
X135787500Y-109800000D03*
%TO.P,R16,2*%
%TO.N,+24V*%
X137612500Y-109800000D03*
%TD*%
D17*
%TO.P,Q2,1,S1*%
%TO.N,GNDA*%
X131825000Y-90655000D03*
%TO.P,Q2,2,G1*%
%TO.N,Net-(JP20-A)*%
X131825000Y-89385000D03*
%TO.P,Q2,3,S2*%
%TO.N,+24V*%
X131825000Y-88115000D03*
%TO.P,Q2,4,G2*%
%TO.N,Net-(JP19-B)*%
X131825000Y-86845000D03*
%TO.P,Q2,5,D*%
%TO.N,OUT2*%
X126675000Y-86845000D03*
%TO.P,Q2,6,D*%
X126675000Y-88115000D03*
%TO.P,Q2,7,D*%
X126675000Y-89385000D03*
%TO.P,Q2,8,D*%
X126675000Y-90655000D03*
%TD*%
D18*
%TO.P,U2,1*%
%TO.N,Net-(R10-Pad2)*%
X137880000Y-124800000D03*
%TO.P,U2,2*%
%TO.N,GND*%
X139160000Y-124800000D03*
%TO.P,U2,3*%
%TO.N,Net-(R11-Pad2)*%
X140420000Y-124800000D03*
%TO.P,U2,4*%
%TO.N,GND*%
X141690000Y-124800000D03*
%TO.P,U2,5*%
%TO.N,Net-(R24-Pad1)*%
X142970000Y-124800000D03*
%TO.P,U2,6*%
%TO.N,Net-(JP10-C)*%
X144240000Y-124800000D03*
%TO.P,U2,7*%
%TO.N,Net-(R25-Pad1)*%
X145500000Y-124800000D03*
%TO.P,U2,8*%
%TO.N,Net-(JP12-C)*%
X146780000Y-124800000D03*
%TO.P,U2,9*%
%TO.N,GND*%
X146780000Y-118500000D03*
%TO.P,U2,10*%
%TO.N,S_IN2*%
X145500000Y-118500000D03*
%TO.P,U2,11*%
%TO.N,GND*%
X144240000Y-118500000D03*
%TO.P,U2,12*%
%TO.N,S_IN1*%
X142970000Y-118500000D03*
%TO.P,U2,13*%
%TO.N,Net-(JP8-C)*%
X141690000Y-118500000D03*
%TO.P,U2,14*%
%TO.N,Net-(R13-Pad1)*%
X140420000Y-118500000D03*
%TO.P,U2,15*%
%TO.N,Net-(JP6-C)*%
X139160000Y-118500000D03*
%TO.P,U2,16*%
%TO.N,Net-(R12-Pad1)*%
X137880000Y-118500000D03*
%TD*%
D19*
%TO.P,R27,1*%
%TO.N,GNDA*%
X139750000Y-91662500D03*
%TO.P,R27,2*%
%TO.N,Net-(JP20-A)*%
X139750000Y-89837500D03*
%TD*%
D20*
%TO.P,R24,1*%
%TO.N,Net-(R24-Pad1)*%
X142900000Y-127887500D03*
%TO.P,R24,2*%
%TO.N,Net-(JP9-C)*%
X142900000Y-129712500D03*
%TD*%
D16*
%TO.P,JP8,1,A*%
%TO.N,Net-(JP8-A)*%
X136000000Y-106250000D03*
%TO.P,JP8,2,C*%
%TO.N,Net-(JP8-C)*%
X137300000Y-106250000D03*
%TO.P,JP8,3,B*%
%TO.N,GNDA*%
X138600000Y-106250000D03*
%TD*%
D20*
%TO.P,R25,1*%
%TO.N,Net-(R25-Pad1)*%
X145500000Y-127887500D03*
%TO.P,R25,2*%
%TO.N,Net-(JP11-C)*%
X145500000Y-129712500D03*
%TD*%
D11*
%TO.P,R17,1*%
%TO.N,Net-(JP7-B)*%
X127662500Y-102500000D03*
%TO.P,R17,2*%
%TO.N,+24V*%
X125837500Y-102500000D03*
%TD*%
D13*
%TO.P,R23,1*%
%TO.N,Net-(R23-Pad1)*%
X134087500Y-84500000D03*
%TO.P,R23,2*%
%TO.N,Net-(JP19-C)*%
X135912500Y-84500000D03*
%TD*%
D11*
%TO.P,R5,1*%
%TO.N,Net-(R5-Pad1)*%
X135112500Y-123500000D03*
%TO.P,R5,2*%
%TO.N,Net-(JP3-C)*%
X133287500Y-123500000D03*
%TD*%
D12*
%TO.P,D2,1,K*%
%TO.N,+24V*%
X121750000Y-103700000D03*
%TO.P,D2,2,A*%
%TO.N,OUT1*%
X121750000Y-98300000D03*
%TD*%
D15*
%TO.P,D10,1,K*%
%TO.N,+24V*%
X126500000Y-115700000D03*
%TO.P,D10,2,A*%
%TO.N,OUT5*%
X121100000Y-115700000D03*
%TD*%
D21*
%TO.P,Q5,1,S1*%
%TO.N,GNDA*%
X133805000Y-114525000D03*
%TO.P,Q5,2,G1*%
%TO.N,Net-(JP6-A)*%
X132535000Y-114525000D03*
%TO.P,Q5,3,S2*%
%TO.N,+24V*%
X131265000Y-114525000D03*
%TO.P,Q5,4,G2*%
%TO.N,Net-(JP5-B)*%
X129995000Y-114525000D03*
%TO.P,Q5,5,D*%
%TO.N,OUT5*%
X129995000Y-119675000D03*
%TO.P,Q5,6,D*%
X131265000Y-119675000D03*
%TO.P,Q5,7,D*%
X132535000Y-119675000D03*
%TO.P,Q5,8,D*%
X133805000Y-119675000D03*
%TD*%
D16*
%TO.P,JP18,1,A*%
%TO.N,Net-(JP18-A)*%
X134900000Y-99000000D03*
%TO.P,JP18,2,C*%
%TO.N,Net-(JP18-C)*%
X136200000Y-99000000D03*
%TO.P,JP18,3,B*%
%TO.N,GNDA*%
X137500000Y-99000000D03*
%TD*%
D11*
%TO.P,R18,1*%
%TO.N,S_OUT1*%
X140912500Y-67500000D03*
%TO.P,R18,2*%
%TO.N,Net-(R18-Pad2)*%
X139087500Y-67500000D03*
%TD*%
D19*
%TO.P,R14,1*%
%TO.N,GNDA*%
X140400000Y-115412500D03*
%TO.P,R14,2*%
%TO.N,Net-(JP6-A)*%
X140400000Y-113587500D03*
%TD*%
D11*
%TO.P,R11,1*%
%TO.N,S_OUT6*%
X152612500Y-123200000D03*
%TO.P,R11,2*%
%TO.N,Net-(R11-Pad2)*%
X150787500Y-123200000D03*
%TD*%
D21*
%TO.P,Q3,1,S1*%
%TO.N,GNDA*%
X128805000Y-76825000D03*
%TO.P,Q3,2,G1*%
%TO.N,Net-(JP2-A)*%
X127535000Y-76825000D03*
%TO.P,Q3,3,S2*%
%TO.N,+24V*%
X126265000Y-76825000D03*
%TO.P,Q3,4,G2*%
%TO.N,Net-(JP1-B)*%
X124995000Y-76825000D03*
%TO.P,Q3,5,D*%
%TO.N,OUT3*%
X124995000Y-81975000D03*
%TO.P,Q3,6,D*%
X126265000Y-81975000D03*
%TO.P,Q3,7,D*%
X127535000Y-81975000D03*
%TO.P,Q3,8,D*%
X128805000Y-81975000D03*
%TD*%
D11*
%TO.P,R2,1*%
%TO.N,S_OUT3*%
X140912500Y-71100000D03*
%TO.P,R2,2*%
%TO.N,Net-(R2-Pad2)*%
X139087500Y-71100000D03*
%TD*%
D20*
%TO.P,R8,1*%
%TO.N,Net-(JP1-B)*%
X119600000Y-72687500D03*
%TO.P,R8,2*%
%TO.N,+24V*%
X119600000Y-74512500D03*
%TD*%
D16*
%TO.P,JP5,1,A*%
%TO.N,+24V*%
X138400000Y-112442500D03*
%TO.P,JP5,2,C*%
%TO.N,Net-(JP5-C)*%
X137100000Y-112442500D03*
%TO.P,JP5,3,B*%
%TO.N,Net-(JP5-B)*%
X135800000Y-112442500D03*
%TD*%
%TO.P,JP19,1,A*%
%TO.N,+24V*%
X137550000Y-86750000D03*
%TO.P,JP19,2,C*%
%TO.N,Net-(JP19-C)*%
X136250000Y-86750000D03*
%TO.P,JP19,3,B*%
%TO.N,Net-(JP19-B)*%
X134950000Y-86750000D03*
%TD*%
D22*
%TO.P,D1,1,K*%
%TO.N,GND*%
X143625000Y-136750000D03*
%TO.P,D1,2,A*%
%TO.N,Net-(D1-A)*%
X141875000Y-136750000D03*
%TD*%
D20*
%TO.P,R10,1*%
%TO.N,S_OUT5*%
X149000000Y-117687500D03*
%TO.P,R10,2*%
%TO.N,Net-(R10-Pad2)*%
X149000000Y-119512500D03*
%TD*%
D19*
%TO.P,R9,1*%
%TO.N,Net-(JP3-B)*%
X131700000Y-124012500D03*
%TO.P,R9,2*%
%TO.N,+24V*%
X131700000Y-122187500D03*
%TD*%
D11*
%TO.P,R20,1*%
%TO.N,+3V3*%
X157912500Y-118400000D03*
%TO.P,R20,2*%
%TO.N,S_IN1*%
X156087500Y-118400000D03*
%TD*%
D23*
%TO.P,C1,1*%
%TO.N,+24V*%
X112362500Y-99400000D03*
%TO.P,C1,2*%
%TO.N,GNDA*%
X110637500Y-99400000D03*
%TD*%
D24*
%TO.P,D6,1,K*%
%TO.N,+24V*%
X121500000Y-77900000D03*
%TO.P,D6,2,A*%
%TO.N,OUT3*%
X121500000Y-83300000D03*
%TD*%
D16*
%TO.P,JP3,1,A*%
%TO.N,+24V*%
X134600000Y-126142500D03*
%TO.P,JP3,2,C*%
%TO.N,Net-(JP3-C)*%
X133300000Y-126142500D03*
%TO.P,JP3,3,B*%
%TO.N,Net-(JP3-B)*%
X132000000Y-126142500D03*
%TD*%
D18*
%TO.P,U4,1*%
%TO.N,Net-(R18-Pad2)*%
X141100000Y-74100000D03*
%TO.P,U4,2*%
%TO.N,GND*%
X139820000Y-74100000D03*
%TO.P,U4,3*%
%TO.N,Net-(R19-Pad2)*%
X138560000Y-74100000D03*
%TO.P,U4,4*%
%TO.N,GND*%
X137290000Y-74100000D03*
%TO.P,U4,5*%
%TO.N,Net-(R2-Pad2)*%
X136010000Y-74100000D03*
%TO.P,U4,6*%
%TO.N,GND*%
X134740000Y-74100000D03*
%TO.P,U4,7*%
%TO.N,Net-(R3-Pad2)*%
X133480000Y-74100000D03*
%TO.P,U4,8*%
%TO.N,GND*%
X132200000Y-74100000D03*
%TO.P,U4,9*%
%TO.N,Net-(JP4-C)*%
X132200000Y-80400000D03*
%TO.P,U4,10*%
%TO.N,Net-(R5-Pad1)*%
X133480000Y-80400000D03*
%TO.P,U4,11*%
%TO.N,Net-(JP2-C)*%
X134740000Y-80400000D03*
%TO.P,U4,12*%
%TO.N,Net-(R4-Pad1)*%
X136010000Y-80400000D03*
%TO.P,U4,13*%
%TO.N,Net-(JP20-C)*%
X137290000Y-80400000D03*
%TO.P,U4,14*%
%TO.N,Net-(R23-Pad1)*%
X138560000Y-80400000D03*
%TO.P,U4,15*%
%TO.N,Net-(JP18-C)*%
X139820000Y-80400000D03*
%TO.P,U4,16*%
%TO.N,Net-(R22-Pad1)*%
X141100000Y-80400000D03*
%TD*%
D19*
%TO.P,R13,1*%
%TO.N,Net-(R13-Pad1)*%
X139200000Y-110212500D03*
%TO.P,R13,2*%
%TO.N,Net-(JP7-C)*%
X139200000Y-108387500D03*
%TD*%
D16*
%TO.P,JP20,1,A*%
%TO.N,Net-(JP20-A)*%
X134950000Y-90500000D03*
%TO.P,JP20,2,C*%
%TO.N,Net-(JP20-C)*%
X136250000Y-90500000D03*
%TO.P,JP20,3,B*%
%TO.N,GNDA*%
X137550000Y-90500000D03*
%TD*%
D25*
%TO.P,Q4,1,S1*%
%TO.N,GNDA*%
X125995000Y-128075000D03*
%TO.P,Q4,2,G1*%
%TO.N,Net-(JP4-A)*%
X127265000Y-128075000D03*
%TO.P,Q4,3,S2*%
%TO.N,+24V*%
X128535000Y-128075000D03*
%TO.P,Q4,4,G2*%
%TO.N,Net-(JP3-B)*%
X129805000Y-128075000D03*
%TO.P,Q4,5,D*%
%TO.N,OUT4*%
X129805000Y-122925000D03*
%TO.P,Q4,6,D*%
X128535000Y-122925000D03*
%TO.P,Q4,7,D*%
X127265000Y-122925000D03*
%TO.P,Q4,8,D*%
X125995000Y-122925000D03*
%TD*%
D11*
%TO.P,R19,1*%
%TO.N,S_OUT2*%
X140912500Y-69250000D03*
%TO.P,R19,2*%
%TO.N,Net-(R19-Pad2)*%
X139087500Y-69250000D03*
%TD*%
D16*
%TO.P,JP4,1,A*%
%TO.N,Net-(JP4-A)*%
X132000000Y-129200000D03*
%TO.P,JP4,2,C*%
%TO.N,Net-(JP4-C)*%
X133300000Y-129200000D03*
%TO.P,JP4,3,B*%
%TO.N,GNDA*%
X134600000Y-129200000D03*
%TD*%
D21*
%TO.P,Q6,1,S1*%
%TO.N,GNDA*%
X133805000Y-106525000D03*
%TO.P,Q6,2,G1*%
%TO.N,Net-(JP8-A)*%
X132535000Y-106525000D03*
%TO.P,Q6,3,S2*%
%TO.N,+24V*%
X131265000Y-106525000D03*
%TO.P,Q6,4,G2*%
%TO.N,Net-(JP7-B)*%
X129995000Y-106525000D03*
%TO.P,Q6,5,D*%
%TO.N,OUT6*%
X129995000Y-111675000D03*
%TO.P,Q6,6,D*%
X131265000Y-111675000D03*
%TO.P,Q6,7,D*%
X132535000Y-111675000D03*
%TO.P,Q6,8,D*%
X133805000Y-111675000D03*
%TD*%
D19*
%TO.P,R12,1*%
%TO.N,Net-(R12-Pad1)*%
X135800000Y-119612500D03*
%TO.P,R12,2*%
%TO.N,Net-(JP5-C)*%
X135800000Y-117787500D03*
%TD*%
D16*
%TO.P,JP12,1,A*%
%TO.N,GNDA*%
X138100000Y-136100000D03*
%TO.P,JP12,2,C*%
%TO.N,Net-(JP12-C)*%
X136800000Y-136100000D03*
%TO.P,JP12,3,B*%
%TO.N,IN2*%
X135500000Y-136100000D03*
%TD*%
%TO.P,JP7,1,A*%
%TO.N,+24V*%
X138550000Y-102750000D03*
%TO.P,JP7,2,C*%
%TO.N,Net-(JP7-C)*%
X137250000Y-102750000D03*
%TO.P,JP7,3,B*%
%TO.N,Net-(JP7-B)*%
X135950000Y-102750000D03*
%TD*%
D11*
%TO.P,R6,1*%
%TO.N,GNDA*%
X129312500Y-71700000D03*
%TO.P,R6,2*%
%TO.N,Net-(JP2-A)*%
X127487500Y-71700000D03*
%TD*%
D16*
%TO.P,JP9,1,A*%
%TO.N,+24V*%
X131900000Y-133400000D03*
%TO.P,JP9,2,C*%
%TO.N,Net-(JP9-C)*%
X130600000Y-133400000D03*
%TO.P,JP9,3,B*%
%TO.N,IN1*%
X129300000Y-133400000D03*
%TD*%
D11*
%TO.P,R21,1*%
%TO.N,+3V3*%
X157912500Y-120200000D03*
%TO.P,R21,2*%
%TO.N,S_IN2*%
X156087500Y-120200000D03*
%TD*%
D16*
%TO.P,JP17,1,A*%
%TO.N,+24V*%
X137500000Y-95000000D03*
%TO.P,JP17,2,C*%
%TO.N,Net-(JP17-C)*%
X136200000Y-95000000D03*
%TO.P,JP17,3,B*%
%TO.N,Net-(JP17-B)*%
X134900000Y-95000000D03*
%TD*%
%TO.P,JP2,1,A*%
%TO.N,Net-(JP2-A)*%
X127100000Y-74000000D03*
%TO.P,JP2,2,C*%
%TO.N,Net-(JP2-C)*%
X128400000Y-74000000D03*
%TO.P,JP2,3,B*%
%TO.N,GNDA*%
X129700000Y-74000000D03*
%TD*%
%TO.P,JP6,1,A*%
%TO.N,Net-(JP6-A)*%
X135800000Y-115400000D03*
%TO.P,JP6,2,C*%
%TO.N,Net-(JP6-C)*%
X137100000Y-115400000D03*
%TO.P,JP6,3,B*%
%TO.N,GNDA*%
X138400000Y-115400000D03*
%TD*%
D11*
%TO.P,R28,1*%
%TO.N,Net-(JP17-B)*%
X132412500Y-93000000D03*
%TO.P,R28,2*%
%TO.N,+24V*%
X130587500Y-93000000D03*
%TD*%
D16*
%TO.P,JP11,1,A*%
%TO.N,+24V*%
X138100000Y-133400000D03*
%TO.P,JP11,2,C*%
%TO.N,Net-(JP11-C)*%
X136800000Y-133400000D03*
%TO.P,JP11,3,B*%
%TO.N,IN2*%
X135500000Y-133400000D03*
%TD*%
D24*
%TO.P,D4,1,K*%
%TO.N,+24V*%
X121750000Y-88050000D03*
%TO.P,D4,2,A*%
%TO.N,OUT2*%
X121750000Y-93450000D03*
%TD*%
D11*
%TO.P,R29,1*%
%TO.N,Net-(JP19-B)*%
X132412500Y-84500000D03*
%TO.P,R29,2*%
%TO.N,+24V*%
X130587500Y-84500000D03*
%TD*%
D26*
%TO.P,U1,1,GPIO0*%
%TO.N,UART_TX*%
X145935000Y-64870000D03*
%TO.P,U1,2,GPIO1*%
%TO.N,UART_RX*%
X145935000Y-67410000D03*
%TO.P,U1,3,GND*%
%TO.N,GND*%
X145935000Y-69950000D03*
%TO.P,U1,4,GPIO2*%
%TO.N,unconnected-(U1-GPIO2-Pad4)*%
X145935000Y-72490000D03*
%TO.P,U1,5,GPIO3*%
%TO.N,unconnected-(U1-GPIO3-Pad5)*%
X145935000Y-75030000D03*
%TO.P,U1,6,GPIO4*%
%TO.N,S_OUT1*%
X145935000Y-77570000D03*
%TO.P,U1,7,GPIO5*%
%TO.N,S_OUT2*%
X145935000Y-80110000D03*
%TO.P,U1,8,GND*%
%TO.N,GND*%
X145935000Y-82650000D03*
%TO.P,U1,9,GPIO6*%
%TO.N,S_OUT3*%
X145935000Y-85190000D03*
%TO.P,U1,10,GPIO7*%
%TO.N,S_OUT4*%
X145935000Y-87730000D03*
%TO.P,U1,11,GPIO8*%
%TO.N,S_OUT5*%
X145935000Y-90270000D03*
%TO.P,U1,12,GPIO9*%
%TO.N,S_OUT6*%
X145935000Y-92810000D03*
%TO.P,U1,13,GND*%
%TO.N,GND*%
X145935000Y-95350000D03*
%TO.P,U1,14,GPIO10*%
%TO.N,unconnected-(U1-GPIO10-Pad14)*%
X145935000Y-97890000D03*
%TO.P,U1,15,GPIO11*%
%TO.N,unconnected-(U1-GPIO11-Pad15)*%
X145935000Y-100430000D03*
%TO.P,U1,16,GPIO12*%
%TO.N,unconnected-(U1-GPIO12-Pad16)*%
X145935000Y-102970000D03*
%TO.P,U1,17,GPIO13*%
%TO.N,unconnected-(U1-GPIO13-Pad17)*%
X145935000Y-105510000D03*
%TO.P,U1,18,GND*%
%TO.N,GND*%
X145935000Y-108050000D03*
%TO.P,U1,19,GPIO14*%
%TO.N,S_IN1*%
X145935000Y-110590000D03*
%TO.P,U1,20,GPIO15*%
%TO.N,S_IN2*%
X145935000Y-113130000D03*
%TO.P,U1,21,GPIO16*%
%TO.N,SPI_MISO*%
X165515000Y-113130000D03*
%TO.P,U1,22,GPIO17*%
%TO.N,SPI_CS*%
X165515000Y-110590000D03*
%TO.P,U1,23,GND*%
%TO.N,GND*%
X165515000Y-108050000D03*
%TO.P,U1,24,GPIO18*%
%TO.N,SPI_CLK*%
X165515000Y-105510000D03*
%TO.P,U1,25,GPIO19*%
%TO.N,SPI_MOSI*%
X165515000Y-102970000D03*
%TO.P,U1,26,GPIO20*%
%TO.N,I2C_SDA*%
X165515000Y-100430000D03*
%TO.P,U1,27,GPIO21*%
%TO.N,I2C_SCL*%
X165515000Y-97890000D03*
%TO.P,U1,28,GND*%
%TO.N,GND*%
X165515000Y-95350000D03*
%TO.P,U1,29,GPIO22*%
%TO.N,O_LED*%
X165515000Y-92810000D03*
%TO.P,U1,30,RUN*%
%TO.N,unconnected-(U1-RUN-Pad30)*%
X165515000Y-90270000D03*
%TO.P,U1,31,GPIO26_ADC0*%
%TO.N,unconnected-(U1-GPIO26_ADC0-Pad31)*%
X165515000Y-87730000D03*
%TO.P,U1,32,GPIO27_ADC1*%
%TO.N,unconnected-(U1-GPIO27_ADC1-Pad32)*%
X165515000Y-85190000D03*
%TO.P,U1,33,AGND*%
%TO.N,unconnected-(U1-AGND-Pad33)*%
X165515000Y-82650000D03*
%TO.P,U1,34,GPIO28_ADC2*%
%TO.N,unconnected-(U1-GPIO28_ADC2-Pad34)*%
X165515000Y-80110000D03*
%TO.P,U1,35,ADC_VREF*%
%TO.N,unconnected-(U1-ADC_VREF-Pad35)*%
X165515000Y-77570000D03*
%TO.P,U1,36,3V3*%
%TO.N,+3V3*%
X165515000Y-75030000D03*
%TO.P,U1,37,3V3_EN*%
%TO.N,unconnected-(U1-3V3_EN-Pad37)*%
X165515000Y-72490000D03*
%TO.P,U1,38,GND*%
%TO.N,GND*%
X165515000Y-69950000D03*
%TO.P,U1,39,VSYS*%
%TO.N,unconnected-(U1-VSYS-Pad39)*%
X165515000Y-67410000D03*
%TO.P,U1,40,VBUS*%
%TO.N,unconnected-(U1-VBUS-Pad40)*%
X165515000Y-64870000D03*
D27*
%TO.P,U1,41,SWCLK*%
%TO.N,unconnected-(U1-SWCLK-Pad41)*%
X153185000Y-113800000D03*
%TO.P,U1,42,GND*%
%TO.N,GND*%
X155725000Y-113800000D03*
%TO.P,U1,43,SWDIO*%
%TO.N,unconnected-(U1-SWDIO-Pad43)*%
X158265000Y-113800000D03*
%TD*%
D20*
%TO.P,R7,1*%
%TO.N,GNDA*%
X136800000Y-127887500D03*
%TO.P,R7,2*%
%TO.N,Net-(JP4-A)*%
X136800000Y-129712500D03*
%TD*%
D16*
%TO.P,JP10,1,A*%
%TO.N,GNDA*%
X131900000Y-136100000D03*
%TO.P,JP10,2,C*%
%TO.N,Net-(JP10-C)*%
X130600000Y-136100000D03*
%TO.P,JP10,3,B*%
%TO.N,IN1*%
X129300000Y-136100000D03*
%TD*%
D28*
%TO.N,+24V*%
X130700000Y-126600000D03*
X134200000Y-131400000D03*
X139000000Y-132500000D03*
D29*
X116750000Y-99250000D03*
D28*
X131900000Y-132100000D03*
X131600000Y-127400000D03*
X130600000Y-131400000D03*
D29*
X114250000Y-101500000D03*
D28*
%TO.N,GNDA*%
X138000000Y-127800000D03*
D29*
X133500000Y-90750000D03*
D28*
X110600000Y-98200000D03*
D29*
X133250000Y-99000000D03*
D28*
X132900000Y-135900000D03*
X138600000Y-90200000D03*
D29*
X133658075Y-116124994D03*
D28*
X130000000Y-75400000D03*
X138289490Y-114217002D03*
X138600000Y-98900000D03*
X138800000Y-91800000D03*
X128800000Y-78400000D03*
D29*
X124500000Y-128250000D03*
D28*
X132250000Y-105000000D03*
X138800000Y-106281587D03*
D29*
X133750000Y-108250000D03*
D28*
X139200000Y-136100000D03*
X135800000Y-128800000D03*
X140625000Y-115496818D03*
X130125000Y-71200000D03*
X130100000Y-101000000D03*
%TO.N,GND*%
X148400000Y-82600000D03*
X155600000Y-111500000D03*
X134700000Y-75300000D03*
X148300000Y-108000000D03*
X146800000Y-117400000D03*
X162900000Y-95400000D03*
X148400000Y-69900000D03*
X139250000Y-123750000D03*
X141750000Y-123750000D03*
X132200000Y-75300000D03*
X139800000Y-75200000D03*
X163100000Y-70000000D03*
X167900000Y-107500000D03*
X144750000Y-136750000D03*
X148300000Y-95300000D03*
X137300000Y-75300000D03*
X144300000Y-117400000D03*
D29*
%TO.N,OUT1*%
X123850000Y-97200000D03*
%TO.N,OUT2*%
X124250000Y-93850000D03*
D28*
%TO.N,IN1*%
X122000000Y-129400000D03*
X117700000Y-129200000D03*
X119900000Y-129300000D03*
X116000000Y-129500000D03*
%TO.N,IN2*%
X119571752Y-133871752D03*
X118700000Y-131100000D03*
D29*
%TO.N,OUT3*%
X117700000Y-81800000D03*
%TO.N,OUT4*%
X119460000Y-118760000D03*
%TO.N,OUT5*%
X118200000Y-114950000D03*
%TO.N,OUT6*%
X118860000Y-111140000D03*
%TO.N,+3V3*%
X176200000Y-123800000D03*
X170300000Y-123900000D03*
D28*
X162793745Y-125825500D03*
X162900000Y-128700000D03*
%TO.N,SPI_CS*%
X165100000Y-127873502D03*
X165100000Y-129200000D03*
%TO.N,SPI_MISO*%
X161400000Y-127474001D03*
X161400000Y-128900000D03*
%TO.N,Net-(JP1-C)*%
X125700000Y-72300000D03*
X123900000Y-75300000D03*
%TO.N,Net-(JP4-C)*%
X142200000Y-116400000D03*
X142300000Y-82500000D03*
X136100000Y-82300000D03*
X140200000Y-120200000D03*
%TO.N,Net-(JP5-C)*%
X136700000Y-113800000D03*
X136800000Y-116800000D03*
%TO.N,Net-(JP8-C)*%
X139700000Y-117000000D03*
X140876194Y-117231568D03*
%TO.N,Net-(JP6-A)*%
X140200000Y-112300000D03*
X138900000Y-113642002D03*
%TO.N,Net-(JP7-B)*%
X129000000Y-105500000D03*
X129000000Y-103250000D03*
%TO.N,S_IN1*%
X152200000Y-116400000D03*
X150700000Y-115900000D03*
%TO.N,S_IN2*%
X152206587Y-117393413D03*
X150800000Y-116900000D03*
%TO.N,Net-(R2-Pad2)*%
X139000000Y-72400000D03*
X137100000Y-72400000D03*
%TO.N,Net-(R5-Pad1)*%
X141625000Y-117189214D03*
X136600000Y-81700000D03*
X141193413Y-119593413D03*
X141700000Y-81700000D03*
%TO.N,S_OUT5*%
X148800000Y-92000000D03*
X148800000Y-111500000D03*
X148800000Y-93800000D03*
X148900000Y-115900000D03*
%TO.N,S_OUT2*%
X143500000Y-79750000D03*
X143500000Y-77750000D03*
%TO.N,Net-(R22-Pad1)*%
X140400000Y-84400000D03*
X139100000Y-84600000D03*
%TO.N,Net-(R23-Pad1)*%
X138000000Y-83200000D03*
X136700000Y-83200000D03*
%TD*%
D30*
%TO.N,IN2*%
X123100000Y-137400000D02*
X119571752Y-133871752D01*
X134200000Y-137400000D02*
X123100000Y-137400000D01*
X135500000Y-136100000D02*
X134200000Y-137400000D01*
D31*
%TO.N,+24V*%
X121000000Y-128500000D02*
X121000000Y-131100000D01*
X121000000Y-131100000D02*
X118100000Y-134000000D01*
X118100000Y-134000000D02*
X114000000Y-134000000D01*
%TO.N,OUT3*%
X121500000Y-83300000D02*
X120000000Y-81800000D01*
X120000000Y-81800000D02*
X114440000Y-81800000D01*
X114440000Y-81800000D02*
X114000000Y-82240000D01*
%TO.N,+24V*%
X121750000Y-103250000D02*
X121750000Y-103700000D01*
X109000000Y-129000000D02*
X109000000Y-120750000D01*
D30*
X130351980Y-126051980D02*
X128535000Y-127868959D01*
D31*
X121750000Y-88050000D02*
X125100000Y-84700000D01*
X125100000Y-84700000D02*
X128900000Y-84700000D01*
D30*
X124225000Y-129225000D02*
X123500000Y-128500000D01*
X131825000Y-88115000D02*
X136685000Y-88115000D01*
D31*
X131265000Y-106525000D02*
X131265000Y-105515000D01*
X109000000Y-116500000D02*
X109000000Y-115100000D01*
D30*
X138050000Y-101250000D02*
X135000000Y-101250000D01*
D31*
X113022031Y-113040000D02*
X110962031Y-115100000D01*
D30*
X129250000Y-102000000D02*
X129000000Y-101750000D01*
X126325000Y-129225000D02*
X124225000Y-129225000D01*
X137612500Y-109800000D02*
X137612500Y-110402970D01*
D31*
X130800000Y-108300000D02*
X131265000Y-107835000D01*
X109000000Y-115100000D02*
X109000000Y-111250000D01*
X131265000Y-114525000D02*
X131265000Y-116635000D01*
X128535000Y-127338629D02*
X128535000Y-128075000D01*
D30*
X134600000Y-127142500D02*
X134442500Y-127300000D01*
X130700000Y-126600000D02*
X130700000Y-126400000D01*
X132600000Y-131400000D02*
X131900000Y-132100000D01*
D31*
X113300000Y-99400000D02*
X114300000Y-98400000D01*
D30*
X130600000Y-131400000D02*
X128500000Y-131400000D01*
D31*
X117250000Y-98750000D02*
X121750000Y-103250000D01*
X126500000Y-115700000D02*
X123840000Y-113040000D01*
D30*
X122300000Y-74000000D02*
X122300000Y-77100000D01*
X130700000Y-126400000D02*
X130351980Y-126051980D01*
D31*
X130150000Y-104400000D02*
X127200000Y-104400000D01*
D30*
X135000000Y-101250000D02*
X134250000Y-102000000D01*
X134300000Y-109200000D02*
X131700000Y-109200000D01*
D31*
X131265000Y-105515000D02*
X130150000Y-104400000D01*
X121000000Y-125700000D02*
X121000000Y-128500000D01*
D30*
X131825000Y-96365000D02*
X137135000Y-96365000D01*
D31*
X131265000Y-116635000D02*
X131000000Y-116900000D01*
D30*
X138550000Y-101750000D02*
X138050000Y-101250000D01*
D31*
X110750000Y-130750000D02*
X109000000Y-129000000D01*
D30*
X131900000Y-133400000D02*
X131900000Y-132100000D01*
X138100000Y-133400000D02*
X139000000Y-132500000D01*
X128500000Y-131400000D02*
X126325000Y-129225000D01*
D31*
X109000000Y-120750000D02*
X109000000Y-116500000D01*
D30*
X134442500Y-127300000D02*
X131700000Y-127300000D01*
X138550000Y-102750000D02*
X138550000Y-101750000D01*
D31*
X131825000Y-88115000D02*
X129815000Y-88115000D01*
X114000000Y-134000000D02*
X110750000Y-130750000D01*
X127700000Y-116900000D02*
X131000000Y-116900000D01*
D30*
X130950000Y-125453959D02*
X130351980Y-126051980D01*
D31*
X126500000Y-108900000D02*
X130200000Y-108900000D01*
D30*
X131825000Y-88115000D02*
X131115000Y-88115000D01*
X131115000Y-88115000D02*
X130587500Y-87587500D01*
X136685000Y-88115000D02*
X137550000Y-87250000D01*
D31*
X112000000Y-101500000D02*
X114250000Y-101500000D01*
D30*
X131700000Y-109200000D02*
X130800000Y-108300000D01*
X122300000Y-77100000D02*
X121500000Y-77900000D01*
D31*
X110962031Y-115100000D02*
X109000000Y-115100000D01*
D30*
X136712500Y-108900000D02*
X134600000Y-108900000D01*
D31*
X131825000Y-96365000D02*
X130065000Y-96365000D01*
D30*
X129815000Y-88115000D02*
X129800000Y-88100000D01*
D31*
X112362500Y-99400000D02*
X113300000Y-99400000D01*
D30*
X134200000Y-131400000D02*
X132600000Y-131400000D01*
D31*
X114000000Y-95500000D02*
X117250000Y-98750000D01*
X123840000Y-113040000D02*
X113022031Y-113040000D01*
D30*
X128535000Y-127868959D02*
X128535000Y-128075000D01*
X129000000Y-101750000D02*
X129000000Y-101500000D01*
D31*
X126500000Y-115700000D02*
X127700000Y-116900000D01*
X117250000Y-98750000D02*
X116750000Y-99250000D01*
D30*
X137612500Y-109800000D02*
X136712500Y-108900000D01*
X137500000Y-96000000D02*
X137500000Y-95000000D01*
X123500000Y-128500000D02*
X121000000Y-128500000D01*
X137135000Y-96365000D02*
X137500000Y-96000000D01*
X120112500Y-74000000D02*
X122300000Y-74000000D01*
D31*
X109000000Y-111250000D02*
X109000000Y-104500000D01*
D30*
X131700000Y-122187500D02*
X130950000Y-122937500D01*
X134250000Y-102000000D02*
X129250000Y-102000000D01*
X119600000Y-74512500D02*
X120112500Y-74000000D01*
D31*
X121000000Y-125700000D02*
X126896371Y-125700000D01*
D30*
X131700000Y-127300000D02*
X131600000Y-127400000D01*
X130950000Y-122937500D02*
X130950000Y-125453959D01*
X130587500Y-87587500D02*
X130587500Y-84500000D01*
X130065000Y-96365000D02*
X130000000Y-96300000D01*
D31*
X130200000Y-108900000D02*
X130800000Y-108300000D01*
D30*
X137550000Y-87250000D02*
X137550000Y-86750000D01*
X137612500Y-110402970D02*
X138400000Y-111190470D01*
X134600000Y-126142500D02*
X134600000Y-127142500D01*
D31*
X114000000Y-93670000D02*
X114000000Y-95500000D01*
D30*
X134600000Y-108900000D02*
X134300000Y-109200000D01*
D31*
X131265000Y-107835000D02*
X131265000Y-106525000D01*
X109000000Y-104500000D02*
X112000000Y-101500000D01*
D30*
X138400000Y-111190470D02*
X138400000Y-112442500D01*
D31*
X126896371Y-125700000D02*
X128535000Y-127338629D01*
D30*
%TO.N,GNDA*%
X137500000Y-99000000D02*
X138500000Y-99000000D01*
X134600000Y-129200000D02*
X135400000Y-129200000D01*
X140400000Y-115412500D02*
X140540682Y-115412500D01*
X129700000Y-74000000D02*
X129700000Y-75100000D01*
X138768413Y-106250000D02*
X138800000Y-106281587D01*
D31*
X125995000Y-128075000D02*
X124675000Y-128075000D01*
D30*
X131087500Y-101000000D02*
X130100000Y-101000000D01*
X138400000Y-114327512D02*
X138289490Y-114217002D01*
X138600000Y-106250000D02*
X138768413Y-106250000D01*
D31*
X133805000Y-114525000D02*
X133658075Y-114671925D01*
X110637500Y-98237500D02*
X110600000Y-98200000D01*
D30*
X138400000Y-115400000D02*
X138400000Y-114327512D01*
X135400000Y-129200000D02*
X135800000Y-128800000D01*
D31*
X110637500Y-99400000D02*
X110637500Y-98237500D01*
X124675000Y-128075000D02*
X124500000Y-128250000D01*
X133805000Y-106525000D02*
X133805000Y-108195000D01*
D30*
X139750000Y-91662500D02*
X138937500Y-91662500D01*
X129312500Y-71700000D02*
X129625000Y-71700000D01*
X137912500Y-127887500D02*
X138000000Y-127800000D01*
D31*
X133658075Y-114671925D02*
X133658075Y-116124994D01*
D30*
X131900000Y-136100000D02*
X132700000Y-136100000D01*
D31*
X133155000Y-98905000D02*
X133250000Y-99000000D01*
D30*
X129625000Y-71700000D02*
X130125000Y-71200000D01*
X138300000Y-90500000D02*
X138600000Y-90200000D01*
X132087500Y-103750000D02*
X132087500Y-104837500D01*
X138100000Y-136100000D02*
X139200000Y-136100000D01*
X129700000Y-75100000D02*
X130000000Y-75400000D01*
X137550000Y-90500000D02*
X138300000Y-90500000D01*
X138937500Y-91662500D02*
X138800000Y-91800000D01*
X138500000Y-99000000D02*
X138600000Y-98900000D01*
D31*
X131825000Y-90655000D02*
X133405000Y-90655000D01*
D30*
X128805000Y-76825000D02*
X128805000Y-78395000D01*
X132700000Y-136100000D02*
X132900000Y-135900000D01*
X136800000Y-127887500D02*
X137912500Y-127887500D01*
D31*
X133805000Y-108195000D02*
X133750000Y-108250000D01*
X133405000Y-90655000D02*
X133500000Y-90750000D01*
X131825000Y-98905000D02*
X133155000Y-98905000D01*
D30*
X132087500Y-104837500D02*
X132250000Y-105000000D01*
X128805000Y-78395000D02*
X128800000Y-78400000D01*
X140540682Y-115412500D02*
X140625000Y-115496818D01*
%TO.N,GND*%
X137290000Y-74100000D02*
X137290000Y-75290000D01*
X146835000Y-82650000D02*
X148350000Y-82650000D01*
X164615000Y-95350000D02*
X162950000Y-95350000D01*
X141690000Y-124800000D02*
X141690000Y-123810000D01*
X155725000Y-111625000D02*
X155600000Y-111500000D01*
X134740000Y-74100000D02*
X134740000Y-75260000D01*
X139820000Y-75180000D02*
X139800000Y-75200000D01*
X132200000Y-74100000D02*
X132200000Y-75300000D01*
X146780000Y-117420000D02*
X146800000Y-117400000D01*
X148350000Y-82650000D02*
X148400000Y-82600000D01*
X137290000Y-75290000D02*
X137300000Y-75300000D01*
X141690000Y-123810000D02*
X141750000Y-123750000D01*
X162950000Y-95350000D02*
X162900000Y-95400000D01*
X146835000Y-108050000D02*
X148250000Y-108050000D01*
D32*
X143625000Y-136750000D02*
X144750000Y-136750000D01*
D30*
X139820000Y-74100000D02*
X139820000Y-75180000D01*
X146780000Y-118500000D02*
X146780000Y-117420000D01*
X163150000Y-69950000D02*
X163100000Y-70000000D01*
X148250000Y-108050000D02*
X148300000Y-108000000D01*
X139160000Y-124800000D02*
X139160000Y-123840000D01*
X148250000Y-95350000D02*
X148300000Y-95300000D01*
X144240000Y-117460000D02*
X144300000Y-117400000D01*
X155725000Y-112900000D02*
X155725000Y-111625000D01*
X167350000Y-108050000D02*
X167900000Y-107500000D01*
X139160000Y-123840000D02*
X139250000Y-123750000D01*
X146835000Y-95350000D02*
X148250000Y-95350000D01*
X134740000Y-75260000D02*
X134700000Y-75300000D01*
X148350000Y-69950000D02*
X148400000Y-69900000D01*
X146835000Y-69950000D02*
X148350000Y-69950000D01*
X164615000Y-108050000D02*
X167350000Y-108050000D01*
X164615000Y-69950000D02*
X163150000Y-69950000D01*
X144240000Y-118500000D02*
X144240000Y-117460000D01*
D32*
%TO.N,Net-(D1-A)*%
X141837500Y-136712500D02*
X141875000Y-136750000D01*
X141837500Y-134750000D02*
X141837500Y-136712500D01*
D31*
%TO.N,OUT1*%
X122750000Y-98300000D02*
X123850000Y-97200000D01*
X126675000Y-97635000D02*
X126675000Y-98905000D01*
X114000000Y-89860000D02*
X114000000Y-90982994D01*
X126675000Y-96365000D02*
X126675000Y-97635000D01*
X122355000Y-98905000D02*
X121750000Y-98300000D01*
X114000000Y-90982994D02*
X121317006Y-98300000D01*
X121317006Y-98300000D02*
X121750000Y-98300000D01*
X126675000Y-98905000D02*
X122355000Y-98905000D01*
X121750000Y-98300000D02*
X122750000Y-98300000D01*
X126675000Y-95095000D02*
X126675000Y-96365000D01*
%TO.N,OUT2*%
X126675000Y-88115000D02*
X126675000Y-89385000D01*
X121750000Y-93450000D02*
X123850000Y-93450000D01*
X123850000Y-93450000D02*
X124250000Y-93850000D01*
X121400000Y-93450000D02*
X121750000Y-93450000D01*
X126675000Y-89385000D02*
X126675000Y-90655000D01*
X126675000Y-86845000D02*
X126675000Y-88115000D01*
X114000000Y-86050000D02*
X121400000Y-93450000D01*
X126675000Y-90655000D02*
X124545000Y-90655000D01*
X124545000Y-90655000D02*
X121750000Y-93450000D01*
D30*
%TO.N,IN1*%
X122400000Y-129800000D02*
X122000000Y-129400000D01*
X116000000Y-129500000D02*
X114690000Y-129500000D01*
X129300000Y-133400000D02*
X125800000Y-129900000D01*
X114690000Y-129500000D02*
X114000000Y-130190000D01*
X119900000Y-129300000D02*
X117800000Y-129300000D01*
X125800000Y-129800000D02*
X122400000Y-129800000D01*
X125800000Y-129900000D02*
X125800000Y-129800000D01*
X129300000Y-136100000D02*
X129300000Y-133400000D01*
X117800000Y-129300000D02*
X117700000Y-129200000D01*
%TO.N,IN2*%
X135500000Y-133400000D02*
X135500000Y-136100000D01*
X118700000Y-131100000D02*
X118700000Y-131080000D01*
X118700000Y-131080000D02*
X114000000Y-126380000D01*
D31*
%TO.N,OUT3*%
X126265000Y-81975000D02*
X127535000Y-81975000D01*
X123670000Y-83300000D02*
X124995000Y-81975000D01*
X124995000Y-81975000D02*
X126265000Y-81975000D01*
X127535000Y-81975000D02*
X128805000Y-81975000D01*
X121500000Y-83300000D02*
X123670000Y-83300000D01*
%TO.N,OUT4*%
X121000000Y-120300000D02*
X123370000Y-120300000D01*
X128535000Y-122925000D02*
X129805000Y-122925000D01*
X127265000Y-122925000D02*
X128535000Y-122925000D01*
X123370000Y-120300000D02*
X125995000Y-122925000D01*
X114000000Y-118760000D02*
X119460000Y-118760000D01*
X119460000Y-118760000D02*
X121000000Y-120300000D01*
X125995000Y-122925000D02*
X127265000Y-122925000D01*
%TO.N,OUT5*%
X129995000Y-119675000D02*
X131265000Y-119675000D01*
X121100000Y-115700000D02*
X125075000Y-119675000D01*
X114000000Y-114950000D02*
X120350000Y-114950000D01*
X120350000Y-114950000D02*
X121100000Y-115700000D01*
X132535000Y-119675000D02*
X133805000Y-119675000D01*
X131265000Y-119675000D02*
X132535000Y-119675000D01*
X125075000Y-119675000D02*
X129995000Y-119675000D01*
%TO.N,OUT6*%
X131265000Y-111675000D02*
X132535000Y-111675000D01*
X129995000Y-111675000D02*
X131265000Y-111675000D01*
X118860000Y-111140000D02*
X121100000Y-108900000D01*
X132535000Y-111675000D02*
X133805000Y-111675000D01*
X119395000Y-111675000D02*
X129995000Y-111675000D01*
X118860000Y-111140000D02*
X119395000Y-111675000D01*
X114000000Y-111140000D02*
X118860000Y-111140000D01*
D30*
%TO.N,+3V3*%
X162900000Y-122762500D02*
X163962500Y-121700000D01*
D31*
X176200000Y-113100000D02*
X175700000Y-112600000D01*
X172330000Y-75030000D02*
X164615000Y-75030000D01*
D30*
X162540000Y-129060000D02*
X162900000Y-128700000D01*
X162900000Y-122900000D02*
X162900000Y-122762500D01*
X157912500Y-118400000D02*
X157912500Y-120200000D01*
X160612500Y-122900000D02*
X162900000Y-122900000D01*
X162793745Y-125825500D02*
X162900000Y-125719245D01*
X162900000Y-125719245D02*
X162900000Y-122900000D01*
X162540000Y-131000000D02*
X162540000Y-129060000D01*
D31*
X175700000Y-78400000D02*
X172330000Y-75030000D01*
X175700000Y-112600000D02*
X175700000Y-78400000D01*
D30*
X168100000Y-121700000D02*
X170300000Y-123900000D01*
D31*
X176200000Y-123800000D02*
X176200000Y-113100000D01*
D30*
X163962500Y-121700000D02*
X168100000Y-121700000D01*
X157912500Y-120200000D02*
X160612500Y-122900000D01*
D32*
%TO.N,SPI_CS*%
X170034304Y-127648503D02*
X165324999Y-127648503D01*
X164615000Y-110590000D02*
X171490000Y-110590000D01*
X172700000Y-111800000D02*
X172700000Y-116682173D01*
X171490000Y-110590000D02*
X172700000Y-111800000D01*
X165100000Y-129200000D02*
X165100000Y-130980000D01*
X165324999Y-127648503D02*
X165100000Y-127873502D01*
X165100000Y-130980000D02*
X162540000Y-133540000D01*
X172749003Y-116731177D02*
X172749003Y-124933804D01*
X172700000Y-116682173D02*
X172749003Y-116731177D01*
X172749003Y-124933804D02*
X170034304Y-127648503D01*
%TO.N,SPI_MOSI*%
X173348007Y-116483067D02*
X173348007Y-126551993D01*
X164615000Y-102970000D02*
X172770000Y-102970000D01*
X173300000Y-103500000D02*
X173300000Y-116435059D01*
X164400000Y-135500000D02*
X159600000Y-135500000D01*
X172770000Y-102970000D02*
X173300000Y-103500000D01*
X173300000Y-116435059D02*
X173348007Y-116483067D01*
X158900000Y-134800000D02*
X158900000Y-132100000D01*
X173348007Y-126551993D02*
X164400000Y-135500000D01*
X159600000Y-135500000D02*
X158900000Y-134800000D01*
X158900000Y-132100000D02*
X160000000Y-131000000D01*
%TO.N,SPI_MISO*%
X161400000Y-132140000D02*
X160000000Y-133540000D01*
X169910247Y-127349002D02*
X161524999Y-127349002D01*
X172449501Y-124809749D02*
X169910247Y-127349002D01*
X168724269Y-113130000D02*
X172449501Y-116855232D01*
X164615000Y-113130000D02*
X168724269Y-113130000D01*
X172449501Y-116855232D02*
X172449501Y-124809749D01*
X161400000Y-128900000D02*
X161400000Y-132140000D01*
X161524999Y-127349002D02*
X161400000Y-127474001D01*
%TO.N,SPI_CLK*%
X172110000Y-105510000D02*
X173000000Y-106400000D01*
X170701998Y-128398002D02*
X164882744Y-128398002D01*
X164615000Y-105510000D02*
X172110000Y-105510000D01*
X164882744Y-128398002D02*
X164584742Y-128100000D01*
X173048505Y-126051495D02*
X170701998Y-128398002D01*
X173000000Y-116558616D02*
X173048505Y-116607122D01*
X164584742Y-128100000D02*
X160360000Y-128100000D01*
X173000000Y-106400000D02*
X173000000Y-116558616D01*
X160360000Y-128100000D02*
X157460000Y-131000000D01*
X173048505Y-116607122D02*
X173048505Y-126051495D01*
%TO.N,I2C_SCL*%
X157460000Y-134545788D02*
X157460000Y-133540000D01*
X173947011Y-116234957D02*
X173947011Y-126800105D01*
X173899002Y-116186947D02*
X173947011Y-116234957D01*
X164548114Y-136199002D02*
X159113214Y-136199002D01*
X159113214Y-136199002D02*
X157460000Y-134545788D01*
X171690000Y-97890000D02*
X173899002Y-100099002D01*
X164615000Y-97890000D02*
X171690000Y-97890000D01*
X173899002Y-100099002D02*
X173899002Y-116186947D01*
X173947011Y-126800105D02*
X164548114Y-136199002D01*
%TO.N,I2C_SDA*%
X164615000Y-100430000D02*
X172230000Y-100430000D01*
X156320000Y-132400000D02*
X154920000Y-131000000D01*
X158600499Y-134924057D02*
X158600499Y-132800499D01*
X173599501Y-116311003D02*
X173647509Y-116359012D01*
X158200000Y-132400000D02*
X156320000Y-132400000D01*
X158600499Y-132800499D02*
X158200000Y-132400000D01*
X164524057Y-135799501D02*
X159475943Y-135799501D01*
X172230000Y-100430000D02*
X173599501Y-101799501D01*
X173647509Y-126676049D02*
X164524057Y-135799501D01*
X173647509Y-116359012D02*
X173647509Y-126676049D01*
X159475943Y-135799501D02*
X158600499Y-134924057D01*
X173599501Y-101799501D02*
X173599501Y-116311003D01*
D30*
%TO.N,UART_RX*%
X171700000Y-124500000D02*
X169700000Y-126500000D01*
X164200000Y-115800000D02*
X170300000Y-115800000D01*
X170300000Y-115800000D02*
X171700000Y-117200000D01*
X146835000Y-67410000D02*
X147850000Y-68425000D01*
X169700000Y-126500000D02*
X154700000Y-126500000D01*
X151300000Y-132100000D02*
X153480000Y-132100000D01*
X148890686Y-68425000D02*
X161400000Y-80934315D01*
X150900000Y-131700000D02*
X151300000Y-132100000D01*
X150900000Y-130300000D02*
X150900000Y-131700000D01*
X161400000Y-113000000D02*
X164200000Y-115800000D01*
X171700000Y-117200000D02*
X171700000Y-124500000D01*
X154700000Y-126500000D02*
X150900000Y-130300000D01*
X147850000Y-68425000D02*
X148890686Y-68425000D01*
X161400000Y-80934315D02*
X161400000Y-113000000D01*
X153480000Y-132100000D02*
X154920000Y-133540000D01*
%TO.N,UART_TX*%
X169865479Y-126899501D02*
X156480499Y-126899501D01*
X172100000Y-124664980D02*
X169865479Y-126899501D01*
X163100000Y-114135020D02*
X163964980Y-115000000D01*
X163100000Y-103835020D02*
X163100000Y-114135020D01*
X146835000Y-64870000D02*
X146835000Y-65235000D01*
X156480499Y-126899501D02*
X152380000Y-131000000D01*
X163964980Y-115000000D02*
X170100000Y-115000000D01*
X172100000Y-117000000D02*
X172100000Y-124664980D01*
X161800000Y-80200000D02*
X161800000Y-102535020D01*
X146835000Y-65235000D02*
X161800000Y-80200000D01*
X161800000Y-102535020D02*
X163100000Y-103835020D01*
X170100000Y-115000000D02*
X172100000Y-117000000D01*
%TO.N,Net-(JP1-C)*%
X125700000Y-72300000D02*
X125700000Y-72100000D01*
X125700000Y-72100000D02*
X128000000Y-69800000D01*
X123600000Y-74000000D02*
X123600000Y-75000000D01*
X123600000Y-75000000D02*
X123900000Y-75300000D01*
X128000000Y-69800000D02*
X128587500Y-69800000D01*
%TO.N,Net-(JP2-C)*%
X128400000Y-74000000D02*
X128400000Y-74700000D01*
X130300000Y-78500000D02*
X130800000Y-79000000D01*
X134740000Y-80150000D02*
X134740000Y-80400000D01*
X133590000Y-79000000D02*
X134740000Y-80150000D01*
X130800000Y-79000000D02*
X133590000Y-79000000D01*
X130300000Y-76600000D02*
X130300000Y-78500000D01*
X128400000Y-74700000D02*
X130300000Y-76600000D01*
%TO.N,Net-(JP3-C)*%
X133300000Y-123512500D02*
X133287500Y-123500000D01*
X133300000Y-126142500D02*
X133300000Y-123512500D01*
%TO.N,Net-(JP4-C)*%
X142300000Y-88500000D02*
X142000000Y-88800000D01*
X140200000Y-120200000D02*
X137200000Y-120200000D01*
X142200000Y-98400000D02*
X142200000Y-116400000D01*
X133850000Y-82300000D02*
X136100000Y-82300000D01*
X135875000Y-121525000D02*
X135875000Y-126925000D01*
X135100000Y-127700000D02*
X133800000Y-127700000D01*
X142300000Y-82500000D02*
X142300000Y-88500000D01*
X141600000Y-97800000D02*
X142200000Y-98400000D01*
X132200000Y-80400000D02*
X132200000Y-80650000D01*
X133800000Y-127700000D02*
X133300000Y-128200000D01*
X142000000Y-88800000D02*
X142000000Y-97400000D01*
X135875000Y-126925000D02*
X135100000Y-127700000D01*
X133300000Y-128200000D02*
X133300000Y-129200000D01*
X132200000Y-80650000D02*
X133850000Y-82300000D01*
X142000000Y-97400000D02*
X141600000Y-97800000D01*
X137200000Y-120200000D02*
X135875000Y-121525000D01*
%TO.N,Net-(JP5-C)*%
X135800000Y-117787500D02*
X135812500Y-117787500D01*
X137100000Y-112442500D02*
X136700000Y-112842500D01*
X135812500Y-117787500D02*
X136800000Y-116800000D01*
X136700000Y-112842500D02*
X136700000Y-113800000D01*
%TO.N,Net-(JP6-C)*%
X137100000Y-115900000D02*
X139160000Y-117960000D01*
X137100000Y-115400000D02*
X137100000Y-115900000D01*
X139160000Y-117960000D02*
X139160000Y-118500000D01*
%TO.N,Net-(JP7-C)*%
X139200000Y-108387500D02*
X139500000Y-108087500D01*
X139500000Y-108087500D02*
X139500000Y-105500000D01*
X137250000Y-103250000D02*
X139500000Y-105500000D01*
X137250000Y-102750000D02*
X137250000Y-103250000D01*
%TO.N,Net-(JP8-C)*%
X141690000Y-118045374D02*
X141408840Y-117764214D01*
X137300000Y-106250000D02*
X137300000Y-108275216D01*
X141690000Y-118500000D02*
X141690000Y-118045374D01*
X138450000Y-109425216D02*
X138450000Y-110674784D01*
X138450000Y-110674784D02*
X139500000Y-111724784D01*
X141408840Y-117764214D02*
X141386827Y-117764214D01*
X139500000Y-111724784D02*
X139500000Y-116773806D01*
X139500000Y-116773806D02*
X139726194Y-117000000D01*
X141050000Y-117427387D02*
X141050000Y-117405374D01*
X141050000Y-117405374D02*
X140876194Y-117231568D01*
X141386827Y-117764214D02*
X141050000Y-117427387D01*
X137300000Y-108275216D02*
X138450000Y-109425216D01*
%TO.N,Net-(JP9-C)*%
X130600000Y-132400000D02*
X130600000Y-133400000D01*
X142900000Y-129712500D02*
X141812500Y-130800000D01*
X141812500Y-130800000D02*
X132200000Y-130800000D01*
X132200000Y-130800000D02*
X130600000Y-132400000D01*
%TO.N,Net-(JP10-C)*%
X130600000Y-136100000D02*
X130600000Y-135100000D01*
X140568628Y-131500000D02*
X140868629Y-131200000D01*
X143000000Y-131200000D02*
X144240000Y-129960000D01*
X135100000Y-131500000D02*
X140568628Y-131500000D01*
X133300000Y-133300000D02*
X135100000Y-131500000D01*
X140868629Y-131200000D02*
X143000000Y-131200000D01*
X144240000Y-129960000D02*
X144240000Y-124800000D01*
X133300000Y-134800000D02*
X133300000Y-133300000D01*
X130600000Y-135100000D02*
X130900000Y-134800000D01*
X130900000Y-134800000D02*
X133300000Y-134800000D01*
%TO.N,Net-(JP11-C)*%
X141034314Y-131600000D02*
X140734314Y-131900000D01*
X137300000Y-131900000D02*
X136800000Y-132400000D01*
X145500000Y-129712500D02*
X143612500Y-131600000D01*
X140734314Y-131900000D02*
X137300000Y-131900000D01*
X143612500Y-131600000D02*
X141034314Y-131600000D01*
X136800000Y-132400000D02*
X136800000Y-133400000D01*
%TO.N,Net-(JP12-C)*%
X141200000Y-132000000D02*
X144500000Y-132000000D01*
X138500000Y-134700000D02*
X141200000Y-132000000D01*
X136800000Y-136100000D02*
X136800000Y-135100000D01*
X137200000Y-134700000D02*
X138500000Y-134700000D01*
X136800000Y-135100000D02*
X137200000Y-134700000D01*
X144500000Y-132000000D02*
X146780000Y-129720000D01*
X146780000Y-129720000D02*
X146780000Y-124800000D01*
%TO.N,Net-(JP1-B)*%
X124900000Y-74000000D02*
X124900000Y-76730000D01*
X119787500Y-72500000D02*
X119600000Y-72687500D01*
X124900000Y-74000000D02*
X124900000Y-73000000D01*
X124900000Y-73000000D02*
X124400000Y-72500000D01*
X124400000Y-72500000D02*
X119787500Y-72500000D01*
X124900000Y-76730000D02*
X124995000Y-76825000D01*
%TO.N,Net-(JP2-A)*%
X127100000Y-72087500D02*
X127487500Y-71700000D01*
X127535000Y-76825000D02*
X127600000Y-76760000D01*
X127600000Y-74500000D02*
X127100000Y-74000000D01*
X127100000Y-74000000D02*
X127100000Y-72087500D01*
X127600000Y-76760000D02*
X127600000Y-74500000D01*
%TO.N,Net-(JP3-B)*%
X131700000Y-124012500D02*
X131700000Y-125842500D01*
X130067500Y-128075000D02*
X132000000Y-126142500D01*
X129805000Y-128075000D02*
X130067500Y-128075000D01*
X131700000Y-125842500D02*
X132000000Y-126142500D01*
%TO.N,Net-(JP4-A)*%
X132200000Y-130400000D02*
X136112500Y-130400000D01*
X132000000Y-130200000D02*
X132200000Y-130400000D01*
X131900000Y-129300000D02*
X128100000Y-129300000D01*
X128100000Y-129300000D02*
X127265000Y-128465000D01*
X136112500Y-130400000D02*
X136800000Y-129712500D01*
X132000000Y-129200000D02*
X132000000Y-130200000D01*
X132000000Y-129200000D02*
X131900000Y-129300000D01*
X127265000Y-128465000D02*
X127265000Y-128075000D01*
%TO.N,Net-(JP17-C)*%
X136200000Y-93112500D02*
X135837500Y-92750000D01*
X136200000Y-95000000D02*
X136200000Y-93112500D01*
%TO.N,Net-(JP17-B)*%
X132412500Y-93000000D02*
X132412500Y-94507500D01*
X131920000Y-95000000D02*
X134900000Y-95000000D01*
X131825000Y-95095000D02*
X131920000Y-95000000D01*
X132412500Y-94507500D02*
X131825000Y-95095000D01*
%TO.N,Net-(JP18-A)*%
X131825000Y-97635000D02*
X133535000Y-97635000D01*
X133535000Y-97635000D02*
X134900000Y-99000000D01*
X134900000Y-99012500D02*
X134900000Y-99000000D01*
X132912500Y-101000000D02*
X134900000Y-99012500D01*
%TO.N,Net-(JP18-C)*%
X136200000Y-97800000D02*
X136750000Y-97250000D01*
X141000000Y-86360000D02*
X139820000Y-85180000D01*
X139820000Y-85180000D02*
X139820000Y-80400000D01*
X141000000Y-92531371D02*
X141000000Y-86360000D01*
X136750000Y-97250000D02*
X138250000Y-97250000D01*
X141100000Y-94400000D02*
X141100000Y-92631372D01*
X141100000Y-92631372D02*
X141000000Y-92531371D01*
X138250000Y-97250000D02*
X141100000Y-94400000D01*
X136200000Y-99000000D02*
X136200000Y-97800000D01*
%TO.N,Net-(JP19-C)*%
X135912500Y-86412500D02*
X136250000Y-86750000D01*
X135912500Y-84500000D02*
X135912500Y-86412500D01*
%TO.N,Net-(JP19-B)*%
X132162500Y-86507500D02*
X131825000Y-86845000D01*
X131825000Y-86845000D02*
X131920000Y-86750000D01*
X132162500Y-84750000D02*
X132412500Y-84500000D01*
X131920000Y-86750000D02*
X134950000Y-86750000D01*
X132162500Y-86507500D02*
X132162500Y-84750000D01*
%TO.N,Net-(JP20-A)*%
X134950000Y-91500000D02*
X135012034Y-91562034D01*
X139750000Y-90037534D02*
X139750000Y-89837500D01*
X131825000Y-89385000D02*
X133835000Y-89385000D01*
X134950000Y-90500000D02*
X134950000Y-91500000D01*
X135012034Y-91562034D02*
X138225500Y-91562034D01*
X138225500Y-91562034D02*
X139750000Y-90037534D01*
X133835000Y-89385000D02*
X134950000Y-90500000D01*
%TO.N,Net-(JP20-C)*%
X138800000Y-88500000D02*
X138800000Y-85429960D01*
X136250000Y-90500000D02*
X136250000Y-89500000D01*
X137250000Y-88500000D02*
X138800000Y-88500000D01*
X136250000Y-89500000D02*
X137250000Y-88500000D01*
X138800000Y-85429960D02*
X137290000Y-83919960D01*
X137290000Y-83919960D02*
X137290000Y-80400000D01*
%TO.N,Net-(JP5-B)*%
X135800000Y-109812500D02*
X135787500Y-109800000D01*
X135800000Y-112442500D02*
X135800000Y-109812500D01*
X129995000Y-114318959D02*
X131488959Y-112825000D01*
X135417500Y-112825000D02*
X135800000Y-112442500D01*
X131488959Y-112825000D02*
X135417500Y-112825000D01*
X129995000Y-114525000D02*
X129995000Y-114318959D01*
%TO.N,Net-(JP6-A)*%
X133000000Y-116900000D02*
X132500000Y-116400000D01*
X137771171Y-113642002D02*
X137038173Y-114375000D01*
X134300000Y-116900000D02*
X133000000Y-116900000D01*
X137038173Y-114375000D02*
X135825000Y-114375000D01*
X135800000Y-114400000D02*
X135800000Y-115400000D01*
X135825000Y-114375000D02*
X135800000Y-114400000D01*
X135800000Y-115400000D02*
X134300000Y-116900000D01*
X140400000Y-113587500D02*
X140400000Y-112500000D01*
X132500000Y-116400000D02*
X132500000Y-114560000D01*
X140400000Y-112500000D02*
X140200000Y-112300000D01*
X132500000Y-114560000D02*
X132535000Y-114525000D01*
X138900000Y-113642002D02*
X137771171Y-113642002D01*
%TO.N,Net-(JP7-B)*%
X129995000Y-106495000D02*
X129000000Y-105500000D01*
X129995000Y-106525000D02*
X129995000Y-106495000D01*
X128250000Y-102500000D02*
X129000000Y-103250000D01*
X129000000Y-103250000D02*
X129500000Y-102750000D01*
X129500000Y-102750000D02*
X135950000Y-102750000D01*
X127662500Y-102500000D02*
X128250000Y-102500000D01*
%TO.N,Net-(JP8-A)*%
X134750000Y-105000000D02*
X134000000Y-105000000D01*
X133912500Y-104912500D02*
X134000000Y-105000000D01*
X136000000Y-106250000D02*
X134750000Y-105000000D01*
X133912500Y-103750000D02*
X133912500Y-104912500D01*
X134000000Y-105000000D02*
X133500000Y-105000000D01*
X132535000Y-105965000D02*
X132535000Y-106525000D01*
X133500000Y-105000000D02*
X132535000Y-105965000D01*
D32*
%TO.N,O_LED*%
X164615000Y-92810000D02*
X171910000Y-92810000D01*
X171910000Y-92810000D02*
X174199002Y-95099002D01*
X174246513Y-116110902D02*
X174246513Y-126924161D01*
X144150000Y-134750000D02*
X143662500Y-134750000D01*
X174199002Y-116063390D02*
X174246513Y-116110902D01*
X174199002Y-95099002D02*
X174199002Y-116063390D01*
X164495174Y-136675500D02*
X145775500Y-136675500D01*
X144600000Y-135200000D02*
X144150000Y-134750000D01*
X174246513Y-126924161D02*
X164495174Y-136675500D01*
X144600000Y-135500000D02*
X144600000Y-135200000D01*
X145775500Y-136675500D02*
X144600000Y-135500000D01*
D30*
%TO.N,S_IN1*%
X142970000Y-118500000D02*
X142970000Y-112945000D01*
X146835000Y-110590000D02*
X150700000Y-114455000D01*
X152200000Y-116400000D02*
X154200000Y-118400000D01*
X154200000Y-118400000D02*
X156087500Y-118400000D01*
X145325000Y-110590000D02*
X146835000Y-110590000D01*
X142970000Y-112945000D02*
X145325000Y-110590000D01*
X150700000Y-114455000D02*
X150700000Y-115900000D01*
%TO.N,S_IN2*%
X146835000Y-113130000D02*
X147030000Y-113130000D01*
X145500000Y-118500000D02*
X145500000Y-114465000D01*
X152206587Y-117406587D02*
X152206587Y-117393413D01*
X145500000Y-114465000D02*
X146835000Y-113130000D01*
X147030000Y-113130000D02*
X150800000Y-116900000D01*
X155000000Y-120200000D02*
X152206587Y-117406587D01*
X156087500Y-120200000D02*
X155000000Y-120200000D01*
%TO.N,S_OUT3*%
X146835000Y-85190000D02*
X144090000Y-85190000D01*
X142900000Y-84000000D02*
X142900000Y-78200000D01*
X142100000Y-72287500D02*
X140912500Y-71100000D01*
X142900000Y-78200000D02*
X142100000Y-77400000D01*
X142100000Y-77400000D02*
X142100000Y-72287500D01*
X144090000Y-85190000D02*
X142900000Y-84000000D01*
%TO.N,Net-(R2-Pad2)*%
X137100000Y-72400000D02*
X136010000Y-73490000D01*
X139087500Y-71100000D02*
X139087500Y-72312500D01*
X136010000Y-73490000D02*
X136010000Y-74100000D01*
X139087500Y-72312500D02*
X139000000Y-72400000D01*
%TO.N,S_OUT4*%
X150300000Y-70400000D02*
X150300000Y-87100000D01*
X143937500Y-68825000D02*
X148725000Y-68825000D01*
X150300000Y-87100000D02*
X149670000Y-87730000D01*
X148725000Y-68825000D02*
X150300000Y-70400000D01*
X149670000Y-87730000D02*
X146835000Y-87730000D01*
X140912500Y-65800000D02*
X143937500Y-68825000D01*
%TO.N,Net-(R3-Pad2)*%
X133480000Y-74100000D02*
X133480000Y-73220000D01*
X137600000Y-66600000D02*
X138400000Y-65800000D01*
X138400000Y-65800000D02*
X139087500Y-65800000D01*
X137600000Y-69100000D02*
X137600000Y-66600000D01*
X133480000Y-73220000D02*
X137600000Y-69100000D01*
%TO.N,Net-(R4-Pad1)*%
X130700000Y-70087500D02*
X130700000Y-78300000D01*
X131000000Y-78600000D02*
X135200000Y-78600000D01*
X136010000Y-79410000D02*
X136010000Y-80400000D01*
X130700000Y-78300000D02*
X131000000Y-78600000D01*
X130412500Y-69800000D02*
X130700000Y-70087500D01*
X135200000Y-78600000D02*
X136010000Y-79410000D01*
%TO.N,Net-(R5-Pad1)*%
X141550000Y-112959531D02*
X141550000Y-114215470D01*
X133480000Y-80650000D02*
X134530000Y-81700000D01*
X141500000Y-81900000D02*
X141500000Y-97334315D01*
X141200000Y-112609530D02*
X141550000Y-112959531D01*
X141625000Y-114290470D02*
X141625000Y-117189214D01*
X134530000Y-81700000D02*
X136600000Y-81700000D01*
X135112500Y-121721815D02*
X137240902Y-119593413D01*
X141200000Y-97634315D02*
X141200000Y-112609530D01*
X141550000Y-114215470D02*
X141625000Y-114290470D01*
X141500000Y-97334315D02*
X141200000Y-97634315D01*
X137240902Y-119593413D02*
X141193413Y-119593413D01*
X135112500Y-123500000D02*
X135112500Y-121721815D01*
X133480000Y-80400000D02*
X133480000Y-80650000D01*
X141700000Y-81700000D02*
X141500000Y-81900000D01*
%TO.N,S_OUT5*%
X149000000Y-116000000D02*
X148900000Y-115900000D01*
X148565000Y-92000000D02*
X146835000Y-90270000D01*
X148800000Y-111500000D02*
X148875000Y-111425000D01*
X148875000Y-93875000D02*
X148800000Y-93800000D01*
X148800000Y-92000000D02*
X148565000Y-92000000D01*
X149000000Y-117687500D02*
X149000000Y-116000000D01*
X148875000Y-111425000D02*
X148875000Y-93875000D01*
%TO.N,Net-(R10-Pad2)*%
X137880000Y-123900000D02*
X140580000Y-121200000D01*
X137880000Y-124800000D02*
X137880000Y-123900000D01*
X147312500Y-121200000D02*
X149000000Y-119512500D01*
X140580000Y-121200000D02*
X147312500Y-121200000D01*
%TO.N,Net-(R12-Pad1)*%
X136912500Y-118500000D02*
X137880000Y-118500000D01*
X135800000Y-119612500D02*
X136912500Y-118500000D01*
%TO.N,Net-(R13-Pad1)*%
X140800000Y-111812500D02*
X139200000Y-110212500D01*
X140800000Y-112775216D02*
X140800000Y-111812500D01*
X140301194Y-116723590D02*
X141200000Y-115824784D01*
X141150000Y-113125216D02*
X140800000Y-112775216D01*
X140849784Y-114350000D02*
X141150000Y-114049784D01*
X140420000Y-118500000D02*
X140301194Y-118381194D01*
X140849784Y-114650000D02*
X140849784Y-114350000D01*
X140301194Y-118381194D02*
X140301194Y-116723590D01*
X141200000Y-115824784D02*
X141200000Y-115258645D01*
X141200000Y-115258645D02*
X141150000Y-115208645D01*
X141150000Y-115208645D02*
X141150000Y-114950216D01*
X141150000Y-114950216D02*
X140849784Y-114650000D01*
X141150000Y-114049784D02*
X141150000Y-113125216D01*
%TO.N,S_OUT6*%
X147025000Y-93000000D02*
X146835000Y-92810000D01*
X151500000Y-94250000D02*
X150250000Y-93000000D01*
X152612500Y-123200000D02*
X152612500Y-118612500D01*
X150250000Y-93000000D02*
X147025000Y-93000000D01*
X151500000Y-117500000D02*
X151500000Y-94250000D01*
X152612500Y-118612500D02*
X151500000Y-117500000D01*
%TO.N,Net-(R11-Pad2)*%
X149337500Y-121750000D02*
X150787500Y-123200000D01*
X140420000Y-124800000D02*
X140420000Y-123580000D01*
X140420000Y-123580000D02*
X142250000Y-121750000D01*
X142250000Y-121750000D02*
X149337500Y-121750000D01*
%TO.N,S_OUT1*%
X144570000Y-77570000D02*
X143250000Y-76250000D01*
X146835000Y-77570000D02*
X144570000Y-77570000D01*
X143250000Y-76250000D02*
X143250000Y-69837500D01*
X143250000Y-69837500D02*
X140912500Y-67500000D01*
%TO.N,Net-(R18-Pad2)*%
X139850000Y-72600000D02*
X141100000Y-73850000D01*
X141100000Y-73850000D02*
X141100000Y-74100000D01*
X139087500Y-67500000D02*
X139850000Y-68262500D01*
X139850000Y-68262500D02*
X139850000Y-72600000D01*
%TO.N,S_OUT2*%
X142750000Y-71087500D02*
X140912500Y-69250000D01*
X143500000Y-77750000D02*
X142750000Y-77000000D01*
X143860000Y-80110000D02*
X143500000Y-79750000D01*
X142750000Y-77000000D02*
X142750000Y-71087500D01*
X146835000Y-80110000D02*
X143860000Y-80110000D01*
%TO.N,Net-(R19-Pad2)*%
X137800000Y-72400000D02*
X138560000Y-73160000D01*
X137800000Y-70537500D02*
X137800000Y-72400000D01*
X138560000Y-73160000D02*
X138560000Y-74100000D01*
X139087500Y-69250000D02*
X137800000Y-70537500D01*
%TO.N,Net-(R22-Pad1)*%
X137662500Y-92750000D02*
X137987500Y-92425000D01*
X140400000Y-84400000D02*
X141100000Y-83700000D01*
X139350000Y-87850705D02*
X139350000Y-85414980D01*
X140600000Y-89100705D02*
X139350000Y-87850705D01*
X141100000Y-83700000D02*
X141100000Y-80400000D01*
X140199784Y-92425000D02*
X140600000Y-92024784D01*
X140600000Y-92024784D02*
X140600000Y-89100705D01*
X139100000Y-85164980D02*
X139100000Y-84600000D01*
X137987500Y-92425000D02*
X140199784Y-92425000D01*
X139350000Y-85414980D02*
X139100000Y-85164980D01*
%TO.N,Net-(R23-Pad1)*%
X138560000Y-82640000D02*
X138000000Y-83200000D01*
X135387500Y-83200000D02*
X134087500Y-84500000D01*
X136700000Y-83200000D02*
X135387500Y-83200000D01*
X138560000Y-80400000D02*
X138560000Y-82640000D01*
%TO.N,Net-(R24-Pad1)*%
X142970000Y-124800000D02*
X142970000Y-127817500D01*
X142970000Y-127817500D02*
X142900000Y-127887500D01*
%TO.N,Net-(R25-Pad1)*%
X145500000Y-124800000D02*
X145500000Y-127887500D01*
%TD*%
%TA.AperFunction,Conductor*%
%TO.N,OUT2*%
G36*
X116015677Y-84269685D02*
G01*
X116036319Y-84286319D01*
X116134615Y-84384615D01*
X116165594Y-84436300D01*
X116199767Y-84548953D01*
X116199768Y-84548954D01*
X116297315Y-84731450D01*
X116297317Y-84731452D01*
X116428589Y-84891410D01*
X116525209Y-84970702D01*
X116588550Y-85022685D01*
X116771046Y-85120232D01*
X116883700Y-85154404D01*
X116935383Y-85185383D01*
X118500000Y-86750000D01*
X120126000Y-86750000D01*
X120193039Y-86769685D01*
X120238794Y-86822489D01*
X120250000Y-86874000D01*
X120249999Y-89499999D01*
X120391843Y-89641843D01*
X120421203Y-89688569D01*
X120442699Y-89750000D01*
X120447207Y-89762882D01*
X120527850Y-89872150D01*
X120637118Y-89952793D01*
X120679845Y-89967744D01*
X120765299Y-89997646D01*
X120795730Y-90000500D01*
X120795734Y-90000500D01*
X122704270Y-90000500D01*
X122734699Y-89997646D01*
X122734701Y-89997646D01*
X122798790Y-89975219D01*
X122862882Y-89952793D01*
X122972150Y-89872150D01*
X123025127Y-89800367D01*
X123080775Y-89758116D01*
X123124898Y-89750000D01*
X123500000Y-89750000D01*
X123500000Y-87874000D01*
X123519685Y-87806961D01*
X123572489Y-87761206D01*
X123624000Y-87750000D01*
X125500000Y-87750000D01*
X125500000Y-86374000D01*
X125519685Y-86306961D01*
X125572489Y-86261206D01*
X125624000Y-86250000D01*
X127626000Y-86250000D01*
X127693039Y-86269685D01*
X127738794Y-86322489D01*
X127750000Y-86374000D01*
X127750000Y-93126000D01*
X127730315Y-93193039D01*
X127677511Y-93238794D01*
X127626000Y-93250000D01*
X124750000Y-93250000D01*
X124750000Y-95126000D01*
X124730315Y-95193039D01*
X124677511Y-95238794D01*
X124626000Y-95250000D01*
X121051362Y-95250000D01*
X120984323Y-95230315D01*
X120963681Y-95213681D01*
X119036319Y-93286319D01*
X119002834Y-93224996D01*
X119000000Y-93198638D01*
X119000000Y-91250000D01*
X115500000Y-87750000D01*
X112374000Y-87750000D01*
X112306961Y-87730315D01*
X112261206Y-87677511D01*
X112250000Y-87626000D01*
X112250000Y-84374000D01*
X112269685Y-84306961D01*
X112322489Y-84261206D01*
X112374000Y-84250000D01*
X115948638Y-84250000D01*
X116015677Y-84269685D01*
G37*
%TD.AperFunction*%
%TD*%
%TA.AperFunction,Conductor*%
%TO.N,+24V*%
G36*
X124442457Y-75919685D02*
G01*
X124488212Y-75972489D01*
X124498156Y-76041647D01*
X124498123Y-76041877D01*
X124494499Y-76066744D01*
X124494500Y-77583260D01*
X124504426Y-77651391D01*
X124555803Y-77756485D01*
X124638514Y-77839196D01*
X124638515Y-77839196D01*
X124638517Y-77839198D01*
X124743607Y-77890573D01*
X124777673Y-77895536D01*
X124811739Y-77900500D01*
X124811740Y-77900500D01*
X125178261Y-77900500D01*
X125200970Y-77897190D01*
X125246393Y-77890573D01*
X125351483Y-77839198D01*
X125434198Y-77756483D01*
X125485573Y-77651393D01*
X125495500Y-77583260D01*
X125495500Y-76066740D01*
X125491877Y-76041875D01*
X125501691Y-75972700D01*
X125547347Y-75919810D01*
X125614350Y-75900000D01*
X126876000Y-75900000D01*
X126943039Y-75919685D01*
X126988794Y-75972489D01*
X127000000Y-76024000D01*
X127000000Y-78900000D01*
X128715693Y-78900000D01*
X128722684Y-78900500D01*
X128728039Y-78900500D01*
X128877316Y-78900500D01*
X128884307Y-78900000D01*
X130188312Y-78900000D01*
X130255351Y-78919685D01*
X130275993Y-78936319D01*
X130364599Y-79024925D01*
X130398084Y-79086248D01*
X130400917Y-79112069D01*
X130493203Y-100430205D01*
X130473809Y-100497329D01*
X130421203Y-100543312D01*
X130352088Y-100553555D01*
X130317687Y-100543534D01*
X130310047Y-100540044D01*
X130171963Y-100499500D01*
X130171961Y-100499500D01*
X130028039Y-100499500D01*
X130028036Y-100499500D01*
X129889949Y-100540045D01*
X129768873Y-100617856D01*
X129674623Y-100726626D01*
X129674622Y-100726628D01*
X129614834Y-100857543D01*
X129594353Y-100999999D01*
X129614834Y-101142456D01*
X129674622Y-101273371D01*
X129674623Y-101273373D01*
X129768872Y-101382143D01*
X129889947Y-101459953D01*
X129889950Y-101459954D01*
X129889949Y-101459954D01*
X130028036Y-101500499D01*
X130028038Y-101500500D01*
X130028039Y-101500500D01*
X130171962Y-101500500D01*
X130171962Y-101500499D01*
X130279121Y-101469035D01*
X130310050Y-101459954D01*
X130310050Y-101459953D01*
X130310053Y-101459953D01*
X130310054Y-101459951D01*
X130318118Y-101456270D01*
X130319065Y-101458345D01*
X130374106Y-101442178D01*
X130441147Y-101461855D01*
X130486908Y-101514653D01*
X130498119Y-101565641D01*
X130499461Y-101875463D01*
X130480067Y-101942587D01*
X130427462Y-101988570D01*
X130375462Y-102000000D01*
X128325735Y-102000000D01*
X128258696Y-101980315D01*
X128232439Y-101955702D01*
X128232282Y-101955860D01*
X128227401Y-101950979D01*
X128225964Y-101949632D01*
X128225710Y-101949288D01*
X128119476Y-101870884D01*
X127994848Y-101827274D01*
X127994849Y-101827274D01*
X127965260Y-101824500D01*
X127965256Y-101824500D01*
X127359744Y-101824500D01*
X127359740Y-101824500D01*
X127330150Y-101827274D01*
X127205523Y-101870884D01*
X127099289Y-101949288D01*
X127099288Y-101949289D01*
X127020884Y-102055523D01*
X126977274Y-102180150D01*
X126974500Y-102209739D01*
X126974500Y-102790260D01*
X126977274Y-102819849D01*
X127020884Y-102944476D01*
X127099288Y-103050710D01*
X127099289Y-103050711D01*
X127205523Y-103129115D01*
X127205524Y-103129115D01*
X127205525Y-103129116D01*
X127330151Y-103172725D01*
X127330150Y-103172725D01*
X127359740Y-103175500D01*
X127876000Y-103175500D01*
X127943039Y-103195185D01*
X127988794Y-103247989D01*
X128000000Y-103299500D01*
X128000000Y-106126000D01*
X127980315Y-106193039D01*
X127927511Y-106238794D01*
X127876000Y-106250000D01*
X118624000Y-106250000D01*
X118556961Y-106230315D01*
X118511206Y-106177511D01*
X118500000Y-106126000D01*
X118500000Y-103500000D01*
X112786319Y-97786319D01*
X112752834Y-97724996D01*
X112750000Y-97698638D01*
X112750000Y-93049362D01*
X112769685Y-92982323D01*
X112822489Y-92936568D01*
X112891647Y-92926624D01*
X112955203Y-92955649D01*
X112961681Y-92961681D01*
X120750000Y-100750000D01*
X128250000Y-100750000D01*
X128168807Y-83009416D01*
X128188185Y-82942289D01*
X128240779Y-82896293D01*
X128309891Y-82886033D01*
X128373579Y-82914766D01*
X128380487Y-82921169D01*
X128448514Y-82989196D01*
X128448515Y-82989196D01*
X128448517Y-82989198D01*
X128553607Y-83040573D01*
X128587673Y-83045536D01*
X128621739Y-83050500D01*
X128621740Y-83050500D01*
X128988261Y-83050500D01*
X129010971Y-83047190D01*
X129056393Y-83040573D01*
X129161483Y-82989198D01*
X129244198Y-82906483D01*
X129295573Y-82801393D01*
X129305500Y-82733260D01*
X129305500Y-82513442D01*
X129325185Y-82446404D01*
X129336686Y-82431215D01*
X129385734Y-82375852D01*
X129464790Y-82225225D01*
X129505500Y-82060056D01*
X129505500Y-81889944D01*
X129464790Y-81724775D01*
X129459818Y-81715301D01*
X129385735Y-81574149D01*
X129385733Y-81574147D01*
X129336684Y-81518780D01*
X129306963Y-81455547D01*
X129305500Y-81436554D01*
X129305500Y-81216739D01*
X129295573Y-81148608D01*
X129284670Y-81126305D01*
X129244198Y-81043517D01*
X129244196Y-81043515D01*
X129244196Y-81043514D01*
X129161485Y-80960803D01*
X129056391Y-80909426D01*
X128988261Y-80899500D01*
X128988260Y-80899500D01*
X128621740Y-80899500D01*
X128621739Y-80899500D01*
X128553608Y-80909426D01*
X128448516Y-80960802D01*
X128371066Y-81038252D01*
X128309742Y-81071736D01*
X128240051Y-81066752D01*
X128184117Y-81024880D01*
X128159701Y-80959415D01*
X128159387Y-80951180D01*
X128156866Y-80400197D01*
X128156865Y-80400196D01*
X119823997Y-80400002D01*
X119756958Y-80380316D01*
X119711204Y-80327511D01*
X119700000Y-80276002D01*
X119700000Y-76024000D01*
X119719685Y-75956961D01*
X119772489Y-75911206D01*
X119824000Y-75900000D01*
X124375418Y-75900000D01*
X124442457Y-75919685D01*
G37*
%TD.AperFunction*%
%TD*%
%TA.AperFunction,Conductor*%
%TO.N,OUT6*%
G36*
X124193039Y-106769685D02*
G01*
X124238794Y-106822489D01*
X124250000Y-106873999D01*
X124250000Y-109750000D01*
X124426807Y-109750000D01*
X124493846Y-109769685D01*
X124539601Y-109822489D01*
X124550264Y-109862420D01*
X124551351Y-109874000D01*
X124552354Y-109884703D01*
X124597206Y-110012880D01*
X124597207Y-110012882D01*
X124677850Y-110122150D01*
X124787118Y-110202793D01*
X124808372Y-110210230D01*
X124915299Y-110247646D01*
X124945730Y-110250500D01*
X124945734Y-110250500D01*
X128054270Y-110250500D01*
X128084699Y-110247646D01*
X128084701Y-110247646D01*
X128148790Y-110225219D01*
X128212882Y-110202793D01*
X128322150Y-110122150D01*
X128402793Y-110012882D01*
X128447646Y-109884699D01*
X128449735Y-109862422D01*
X128475591Y-109797515D01*
X128532436Y-109756890D01*
X128573193Y-109750000D01*
X134876000Y-109750000D01*
X134943039Y-109769685D01*
X134988794Y-109822489D01*
X135000000Y-109874000D01*
X135000000Y-112375500D01*
X134980315Y-112442539D01*
X134927511Y-112488294D01*
X134876000Y-112499500D01*
X131505881Y-112499500D01*
X131500477Y-112499264D01*
X131495836Y-112498858D01*
X131460153Y-112495735D01*
X131460031Y-112495768D01*
X131460005Y-112495775D01*
X131427913Y-112500000D01*
X124329449Y-112500000D01*
X124262410Y-112480315D01*
X124258951Y-112478009D01*
X124258291Y-112477554D01*
X124256819Y-112476535D01*
X124253854Y-112474351D01*
X124205060Y-112436123D01*
X124205055Y-112436120D01*
X124195813Y-112431961D01*
X124176266Y-112420936D01*
X124174657Y-112419826D01*
X124167930Y-112415182D01*
X124109941Y-112393189D01*
X124106490Y-112391759D01*
X124049930Y-112366304D01*
X124039946Y-112364474D01*
X124018343Y-112358451D01*
X124008874Y-112354860D01*
X124008870Y-112354859D01*
X123947313Y-112347384D01*
X123943612Y-112346821D01*
X123882608Y-112335642D01*
X123882603Y-112335642D01*
X123820697Y-112339387D01*
X123816952Y-112339500D01*
X113045079Y-112339500D01*
X113041334Y-112339387D01*
X112979427Y-112335642D01*
X112979420Y-112335642D01*
X112918417Y-112346821D01*
X112914716Y-112347384D01*
X112853159Y-112354859D01*
X112853152Y-112354861D01*
X112843678Y-112358454D01*
X112822080Y-112364475D01*
X112812099Y-112366305D01*
X112812094Y-112366306D01*
X112755536Y-112391761D01*
X112752077Y-112393193D01*
X112694101Y-112415181D01*
X112694097Y-112415184D01*
X112685754Y-112420942D01*
X112666219Y-112431960D01*
X112656979Y-112436119D01*
X112656971Y-112436123D01*
X112608183Y-112474345D01*
X112605243Y-112476512D01*
X112603172Y-112477945D01*
X112536850Y-112499926D01*
X112532581Y-112500000D01*
X112513272Y-112500000D01*
X112446233Y-112480315D01*
X112400478Y-112427511D01*
X112390534Y-112358353D01*
X112417673Y-112297027D01*
X114079370Y-110285500D01*
X114947174Y-109235000D01*
X116119417Y-109235000D01*
X116139699Y-109440932D01*
X116166494Y-109529263D01*
X116199768Y-109638954D01*
X116297315Y-109821450D01*
X116297317Y-109821452D01*
X116428589Y-109981410D01*
X116525209Y-110060702D01*
X116588550Y-110112685D01*
X116771046Y-110210232D01*
X116969066Y-110270300D01*
X116969065Y-110270300D01*
X117007647Y-110274100D01*
X117123392Y-110285500D01*
X117123395Y-110285500D01*
X117226605Y-110285500D01*
X117226608Y-110285500D01*
X117380934Y-110270300D01*
X117578954Y-110210232D01*
X117761450Y-110112685D01*
X117921410Y-109981410D01*
X118052685Y-109821450D01*
X118150232Y-109638954D01*
X118210300Y-109440934D01*
X118230583Y-109235000D01*
X118210300Y-109029066D01*
X118150232Y-108831046D01*
X118052685Y-108648550D01*
X117980060Y-108560056D01*
X117921410Y-108488589D01*
X117785675Y-108377196D01*
X117761450Y-108357315D01*
X117578954Y-108259768D01*
X117380934Y-108199700D01*
X117380932Y-108199699D01*
X117380934Y-108199699D01*
X117261805Y-108187966D01*
X117226608Y-108184500D01*
X117123392Y-108184500D01*
X117085298Y-108188251D01*
X116969067Y-108199699D01*
X116771043Y-108259769D01*
X116660898Y-108318643D01*
X116588550Y-108357315D01*
X116588548Y-108357316D01*
X116588547Y-108357317D01*
X116428589Y-108488589D01*
X116298746Y-108646806D01*
X116297315Y-108648550D01*
X116280564Y-108679889D01*
X116199769Y-108831043D01*
X116139699Y-109029067D01*
X116119417Y-109235000D01*
X114947174Y-109235000D01*
X116962803Y-106795027D01*
X117020676Y-106755879D01*
X117058403Y-106750000D01*
X124126000Y-106750000D01*
X124193039Y-106769685D01*
G37*
%TD.AperFunction*%
%TD*%
%TA.AperFunction,Conductor*%
%TO.N,OUT1*%
G36*
X115225020Y-88269685D02*
G01*
X115245662Y-88286319D01*
X115963682Y-89004339D01*
X115997166Y-89065660D01*
X116000000Y-89092018D01*
X115999999Y-91249999D01*
X116126564Y-91376564D01*
X116160049Y-91437887D01*
X116157544Y-91500238D01*
X116139700Y-91559064D01*
X116139699Y-91559066D01*
X116119417Y-91765000D01*
X116139699Y-91970932D01*
X116148517Y-92000000D01*
X116199768Y-92168954D01*
X116297315Y-92351450D01*
X116297317Y-92351452D01*
X116428589Y-92511410D01*
X116525209Y-92590702D01*
X116588550Y-92642685D01*
X116771046Y-92740232D01*
X116969066Y-92800300D01*
X116969065Y-92800300D01*
X116991697Y-92802529D01*
X117123392Y-92815500D01*
X117123395Y-92815500D01*
X117226605Y-92815500D01*
X117226608Y-92815500D01*
X117380934Y-92800300D01*
X117439758Y-92782455D01*
X117509625Y-92781832D01*
X117563434Y-92813435D01*
X120500000Y-95750000D01*
X125250000Y-95750000D01*
X125250000Y-94124000D01*
X125269685Y-94056961D01*
X125322489Y-94011206D01*
X125374000Y-94000000D01*
X127876000Y-94000000D01*
X127943039Y-94019685D01*
X127988794Y-94072489D01*
X128000000Y-94124000D01*
X128000000Y-100420500D01*
X127980315Y-100487539D01*
X127927511Y-100533294D01*
X127876000Y-100544500D01*
X120886482Y-100544500D01*
X120819443Y-100524815D01*
X120798801Y-100508181D01*
X115091789Y-94801168D01*
X115058304Y-94739845D01*
X115063288Y-94670153D01*
X115088237Y-94629508D01*
X115148571Y-94563969D01*
X115280049Y-94362728D01*
X115376610Y-94142591D01*
X115435620Y-93909563D01*
X115455471Y-93670000D01*
X115435620Y-93430437D01*
X115376610Y-93197409D01*
X115280049Y-92977272D01*
X115148571Y-92776031D01*
X114985764Y-92599175D01*
X114985759Y-92599171D01*
X114985757Y-92599169D01*
X114796075Y-92451533D01*
X114796069Y-92451529D01*
X114584657Y-92337118D01*
X114584652Y-92337116D01*
X114357300Y-92259066D01*
X114120183Y-92219498D01*
X114115081Y-92219076D01*
X114115258Y-92216933D01*
X114056961Y-92199815D01*
X114011206Y-92147011D01*
X114000000Y-92095500D01*
X114000000Y-92000000D01*
X112374000Y-92000000D01*
X112306961Y-91980315D01*
X112261206Y-91927511D01*
X112250000Y-91876000D01*
X112250000Y-88374000D01*
X112269685Y-88306961D01*
X112322489Y-88261206D01*
X112374000Y-88250000D01*
X115157981Y-88250000D01*
X115225020Y-88269685D01*
G37*
%TD.AperFunction*%
%TD*%
%TA.AperFunction,Conductor*%
%TO.N,OUT5*%
G36*
X123565520Y-113760185D02*
G01*
X123586162Y-113776819D01*
X124513181Y-114703838D01*
X124546666Y-114765161D01*
X124549500Y-114791519D01*
X124549500Y-116654269D01*
X124552353Y-116684699D01*
X124552353Y-116684701D01*
X124594054Y-116803872D01*
X124597207Y-116812882D01*
X124677850Y-116922150D01*
X124787118Y-117002793D01*
X124829845Y-117017743D01*
X124915299Y-117047646D01*
X124945730Y-117050500D01*
X124945734Y-117050500D01*
X125376000Y-117050500D01*
X125443039Y-117070185D01*
X125488794Y-117122989D01*
X125500000Y-117174500D01*
X125500000Y-117500000D01*
X127297475Y-117500000D01*
X127364514Y-117519685D01*
X127367916Y-117521951D01*
X127370729Y-117523892D01*
X127372070Y-117524818D01*
X127430044Y-117546804D01*
X127430057Y-117546809D01*
X127433508Y-117548238D01*
X127463093Y-117561553D01*
X127490063Y-117573692D01*
X127490064Y-117573692D01*
X127490068Y-117573694D01*
X127500030Y-117575519D01*
X127521651Y-117581546D01*
X127521667Y-117581552D01*
X127531128Y-117585140D01*
X127547871Y-117587173D01*
X127592689Y-117592615D01*
X127596386Y-117593177D01*
X127657394Y-117604357D01*
X127657395Y-117604356D01*
X127657396Y-117604357D01*
X127719293Y-117600613D01*
X127723037Y-117600500D01*
X130976952Y-117600500D01*
X130980697Y-117600613D01*
X130988042Y-117601057D01*
X131042606Y-117604358D01*
X131080314Y-117597447D01*
X131103621Y-117593177D01*
X131107325Y-117592613D01*
X131125170Y-117590446D01*
X131168872Y-117585140D01*
X131178335Y-117581550D01*
X131199961Y-117575522D01*
X131200893Y-117575351D01*
X131209932Y-117573695D01*
X131266512Y-117548229D01*
X131269942Y-117546809D01*
X131327930Y-117524818D01*
X131332078Y-117521954D01*
X131398433Y-117500068D01*
X131402525Y-117500000D01*
X134626000Y-117500000D01*
X134693039Y-117519685D01*
X134738794Y-117572489D01*
X134750000Y-117624000D01*
X134750000Y-120626000D01*
X134730315Y-120693039D01*
X134677511Y-120738794D01*
X134626000Y-120750000D01*
X125544024Y-120750000D01*
X125476985Y-120730315D01*
X125465831Y-120722238D01*
X125347384Y-120626000D01*
X121500000Y-117500000D01*
X120615895Y-117500000D01*
X120548856Y-117480315D01*
X120536512Y-117471259D01*
X120413655Y-117368878D01*
X120413625Y-117368853D01*
X120413621Y-117368850D01*
X120413608Y-117368839D01*
X120408607Y-117364927D01*
X120404751Y-117362098D01*
X120393706Y-117353995D01*
X120393700Y-117353991D01*
X120330047Y-117322512D01*
X120330041Y-117322509D01*
X120263009Y-117302826D01*
X120263005Y-117302825D01*
X120263004Y-117302825D01*
X120205106Y-117294500D01*
X120205102Y-117294500D01*
X118306643Y-117294500D01*
X118239604Y-117274815D01*
X118193849Y-117222011D01*
X118183905Y-117152853D01*
X118187983Y-117134504D01*
X118197561Y-117102929D01*
X118210300Y-117060934D01*
X118230583Y-116855000D01*
X118210300Y-116649066D01*
X118150232Y-116451046D01*
X118052685Y-116268550D01*
X118000702Y-116205209D01*
X117921410Y-116108589D01*
X117761452Y-115977317D01*
X117761453Y-115977317D01*
X117761450Y-115977315D01*
X117578954Y-115879768D01*
X117380934Y-115819700D01*
X117380932Y-115819699D01*
X117380934Y-115819699D01*
X117261805Y-115807966D01*
X117226608Y-115804500D01*
X117123392Y-115804500D01*
X117085298Y-115808251D01*
X116969067Y-115819699D01*
X116771043Y-115879769D01*
X116660898Y-115938643D01*
X116588550Y-115977315D01*
X116588548Y-115977316D01*
X116588547Y-115977317D01*
X116428589Y-116108589D01*
X116297317Y-116268547D01*
X116199769Y-116451043D01*
X116139699Y-116649067D01*
X116119417Y-116854999D01*
X116139699Y-117060934D01*
X116139700Y-117060936D01*
X116162017Y-117134504D01*
X116162641Y-117204371D01*
X116125393Y-117263484D01*
X116062099Y-117293075D01*
X116043357Y-117294500D01*
X112623999Y-117294500D01*
X112556960Y-117274815D01*
X112511205Y-117222011D01*
X112500000Y-117170504D01*
X112500000Y-114604046D01*
X112519684Y-114537011D01*
X112536313Y-114516374D01*
X113275869Y-113776818D01*
X113337192Y-113743334D01*
X113363550Y-113740500D01*
X123498481Y-113740500D01*
X123565520Y-113760185D01*
G37*
%TD.AperFunction*%
%TD*%
%TA.AperFunction,Conductor*%
%TO.N,OUT4*%
G36*
X116353756Y-117519685D02*
G01*
X116382570Y-117545335D01*
X116427843Y-117600500D01*
X116428590Y-117601410D01*
X116588550Y-117732685D01*
X116771046Y-117830232D01*
X116969066Y-117890300D01*
X116969065Y-117890300D01*
X117007647Y-117894100D01*
X117123392Y-117905500D01*
X117123395Y-117905500D01*
X117226605Y-117905500D01*
X117226608Y-117905500D01*
X117380934Y-117890300D01*
X117578954Y-117830232D01*
X117761450Y-117732685D01*
X117921410Y-117601410D01*
X117946083Y-117571345D01*
X117967430Y-117545335D01*
X118025175Y-117506001D01*
X118063283Y-117500000D01*
X120205106Y-117500000D01*
X120272145Y-117519685D01*
X120284489Y-117528741D01*
X124750000Y-121250000D01*
X130876000Y-121250000D01*
X130943039Y-121269685D01*
X130988794Y-121322489D01*
X131000000Y-121374000D01*
X131000000Y-122375810D01*
X130980315Y-122442849D01*
X130963681Y-122463491D01*
X130731803Y-122695370D01*
X130727814Y-122699025D01*
X130696805Y-122725045D01*
X130676562Y-122760106D01*
X130673656Y-122764666D01*
X130650446Y-122797813D01*
X130648206Y-122802617D01*
X130641229Y-122819461D01*
X130639410Y-122824459D01*
X130632383Y-122864311D01*
X130631212Y-122869591D01*
X130620735Y-122908691D01*
X130624264Y-122949013D01*
X130624500Y-122954420D01*
X130624500Y-123876000D01*
X130604815Y-123943039D01*
X130552011Y-123988794D01*
X130500500Y-124000000D01*
X124794894Y-124000000D01*
X124727855Y-123980315D01*
X124715511Y-123971259D01*
X123250000Y-122750000D01*
X118812000Y-122750000D01*
X118744961Y-122730315D01*
X118712800Y-122700400D01*
X117250000Y-120750000D01*
X112624000Y-120750000D01*
X112556961Y-120730315D01*
X112511206Y-120677511D01*
X112500000Y-120626000D01*
X112500000Y-117624000D01*
X112519685Y-117556961D01*
X112572489Y-117511206D01*
X112624000Y-117500000D01*
X116286717Y-117500000D01*
X116353756Y-117519685D01*
G37*
%TD.AperFunction*%
%TD*%
M02*
