%TF.GenerationSoftware,KiCad,Pcbnew,7.0.5-7.0.5~ubuntu22.04.1*%
%TF.CreationDate,2023-07-07T22:55:56+02:00*%
%TF.ProjectId,door_if3_usb_machine,646f6f72-5f69-4663-935f-7573625f6d61,rev?*%
%TF.SameCoordinates,Original*%
%TF.FileFunction,Soldermask,Top*%
%TF.FilePolarity,Negative*%
%FSLAX46Y46*%
G04 Gerber Fmt 4.6, Leading zero omitted, Abs format (unit mm)*
G04 Created by KiCad (PCBNEW 7.0.5-7.0.5~ubuntu22.04.1) date 2023-07-07 22:55:56*
%MOMM*%
%LPD*%
G01*
G04 APERTURE LIST*
G04 Aperture macros list*
%AMRoundRect*
0 Rectangle with rounded corners*
0 $1 Rounding radius*
0 $2 $3 $4 $5 $6 $7 $8 $9 X,Y pos of 4 corners*
0 Add a 4 corners polygon primitive as box body*
4,1,4,$2,$3,$4,$5,$6,$7,$8,$9,$2,$3,0*
0 Add four circle primitives for the rounded corners*
1,1,$1+$1,$2,$3*
1,1,$1+$1,$4,$5*
1,1,$1+$1,$6,$7*
1,1,$1+$1,$8,$9*
0 Add four rect primitives between the rounded corners*
20,1,$1+$1,$2,$3,$4,$5,0*
20,1,$1+$1,$4,$5,$6,$7,0*
20,1,$1+$1,$6,$7,$8,$9,0*
20,1,$1+$1,$8,$9,$2,$3,0*%
G04 Aperture macros list end*
%ADD10C,1.600000*%
%ADD11C,2.500000*%
%ADD12RoundRect,0.237500X0.250000X0.237500X-0.250000X0.237500X-0.250000X-0.237500X0.250000X-0.237500X0*%
%ADD13RoundRect,0.250000X0.900000X-1.500000X0.900000X1.500000X-0.900000X1.500000X-0.900000X-1.500000X0*%
%ADD14RoundRect,0.237500X-0.250000X-0.237500X0.250000X-0.237500X0.250000X0.237500X-0.250000X0.237500X0*%
%ADD15C,3.200000*%
%ADD16C,1.422400*%
%ADD17RoundRect,0.250000X1.500000X0.900000X-1.500000X0.900000X-1.500000X-0.900000X1.500000X-0.900000X0*%
%ADD18R,1.000000X1.500000*%
%ADD19RoundRect,0.150000X0.725000X0.150000X-0.725000X0.150000X-0.725000X-0.150000X0.725000X-0.150000X0*%
%ADD20R,0.800000X1.300000*%
%ADD21RoundRect,0.237500X0.237500X-0.250000X0.237500X0.250000X-0.237500X0.250000X-0.237500X-0.250000X0*%
%ADD22RoundRect,0.237500X-0.237500X0.250000X-0.237500X-0.250000X0.237500X-0.250000X0.237500X0.250000X0*%
%ADD23RoundRect,0.150000X-0.150000X0.725000X-0.150000X-0.725000X0.150000X-0.725000X0.150000X0.725000X0*%
%ADD24RoundRect,0.237500X0.287500X0.237500X-0.287500X0.237500X-0.287500X-0.237500X0.287500X-0.237500X0*%
%ADD25RoundRect,0.237500X0.300000X0.237500X-0.300000X0.237500X-0.300000X-0.237500X0.300000X-0.237500X0*%
%ADD26RoundRect,0.250000X-0.900000X1.500000X-0.900000X-1.500000X0.900000X-1.500000X0.900000X1.500000X0*%
%ADD27RoundRect,0.150000X0.150000X-0.725000X0.150000X0.725000X-0.150000X0.725000X-0.150000X-0.725000X0*%
%ADD28O,1.800000X1.800000*%
%ADD29O,1.500000X1.500000*%
%ADD30R,3.500000X1.700000*%
%ADD31R,1.700000X3.500000*%
G04 APERTURE END LIST*
D10*
%TO.C,J3*%
X117175000Y-91765000D03*
X117175000Y-84145000D03*
X117175000Y-76525000D03*
X117175000Y-68905000D03*
X110825000Y-87955000D03*
X110825000Y-72715000D03*
D11*
X114000000Y-93670000D03*
X114000000Y-89860000D03*
X114000000Y-86050000D03*
X114000000Y-82240000D03*
X114000000Y-78430000D03*
X114000000Y-74620000D03*
X114000000Y-70810000D03*
X114000000Y-67000000D03*
%TD*%
D10*
%TO.C,J1*%
X117175000Y-132095000D03*
X117175000Y-124475000D03*
X117175000Y-116855000D03*
X117175000Y-109235000D03*
X110825000Y-128285000D03*
X110825000Y-113045000D03*
D11*
X114000000Y-134000000D03*
X114000000Y-130190000D03*
X114000000Y-126380000D03*
X114000000Y-122570000D03*
X114000000Y-118760000D03*
X114000000Y-114950000D03*
X114000000Y-111140000D03*
X114000000Y-107330000D03*
%TD*%
D12*
%TO.C,R3*%
X140912500Y-65800000D03*
X139087500Y-65800000D03*
%TD*%
%TO.C,R22*%
X137662500Y-92750000D03*
X135837500Y-92750000D03*
%TD*%
D13*
%TO.C,D8*%
X121000000Y-125700000D03*
X121000000Y-120300000D03*
%TD*%
D14*
%TO.C,R26*%
X131087500Y-101000000D03*
X132912500Y-101000000D03*
%TD*%
D15*
%TO.C,H4*%
X173000000Y-133000000D03*
%TD*%
D16*
%TO.C,J2*%
X162540000Y-131000000D03*
X162540000Y-133540000D03*
X160000000Y-131000000D03*
X160000000Y-133540000D03*
X157460000Y-131000000D03*
X157460000Y-133540000D03*
X154920000Y-131000000D03*
X154920000Y-133540000D03*
X152380000Y-131000000D03*
X152380000Y-133540000D03*
%TD*%
D17*
%TO.C,D12*%
X126500000Y-108900000D03*
X121100000Y-108900000D03*
%TD*%
D14*
%TO.C,R1*%
X141837500Y-134750000D03*
X143662500Y-134750000D03*
%TD*%
D18*
%TO.C,JP1*%
X122300000Y-74000000D03*
X123600000Y-74000000D03*
X124900000Y-74000000D03*
%TD*%
D12*
%TO.C,R4*%
X130412500Y-69800000D03*
X128587500Y-69800000D03*
%TD*%
D19*
%TO.C,Q1*%
X131825000Y-98905000D03*
X131825000Y-97635000D03*
X131825000Y-96365000D03*
X131825000Y-95095000D03*
X126675000Y-95095000D03*
X126675000Y-96365000D03*
X126675000Y-97635000D03*
X126675000Y-98905000D03*
%TD*%
D14*
%TO.C,R15*%
X132087500Y-103750000D03*
X133912500Y-103750000D03*
%TD*%
%TO.C,R16*%
X135787500Y-109800000D03*
X137612500Y-109800000D03*
%TD*%
D19*
%TO.C,Q2*%
X131825000Y-90655000D03*
X131825000Y-89385000D03*
X131825000Y-88115000D03*
X131825000Y-86845000D03*
X126675000Y-86845000D03*
X126675000Y-88115000D03*
X126675000Y-89385000D03*
X126675000Y-90655000D03*
%TD*%
D15*
%TO.C,H1*%
X124000000Y-69000000D03*
%TD*%
D20*
%TO.C,U2*%
X137880000Y-124800000D03*
X139160000Y-124800000D03*
X140420000Y-124800000D03*
X141690000Y-124800000D03*
X142970000Y-124800000D03*
X144240000Y-124800000D03*
X145500000Y-124800000D03*
X146780000Y-124800000D03*
X146780000Y-118500000D03*
X145500000Y-118500000D03*
X144240000Y-118500000D03*
X142970000Y-118500000D03*
X141690000Y-118500000D03*
X140420000Y-118500000D03*
X139160000Y-118500000D03*
X137880000Y-118500000D03*
%TD*%
D21*
%TO.C,R27*%
X139750000Y-91662500D03*
X139750000Y-89837500D03*
%TD*%
D22*
%TO.C,R24*%
X142900000Y-127887500D03*
X142900000Y-129712500D03*
%TD*%
D18*
%TO.C,JP8*%
X136000000Y-106250000D03*
X137300000Y-106250000D03*
X138600000Y-106250000D03*
%TD*%
D22*
%TO.C,R25*%
X145500000Y-127887500D03*
X145500000Y-129712500D03*
%TD*%
D12*
%TO.C,R17*%
X127662500Y-102500000D03*
X125837500Y-102500000D03*
%TD*%
D14*
%TO.C,R23*%
X134087500Y-84500000D03*
X135912500Y-84500000D03*
%TD*%
D12*
%TO.C,R5*%
X135112500Y-123500000D03*
X133287500Y-123500000D03*
%TD*%
D13*
%TO.C,D2*%
X121750000Y-103700000D03*
X121750000Y-98300000D03*
%TD*%
D17*
%TO.C,D10*%
X126500000Y-115700000D03*
X121100000Y-115700000D03*
%TD*%
D23*
%TO.C,Q5*%
X133805000Y-114525000D03*
X132535000Y-114525000D03*
X131265000Y-114525000D03*
X129995000Y-114525000D03*
X129995000Y-119675000D03*
X131265000Y-119675000D03*
X132535000Y-119675000D03*
X133805000Y-119675000D03*
%TD*%
D18*
%TO.C,JP18*%
X134900000Y-99000000D03*
X136200000Y-99000000D03*
X137500000Y-99000000D03*
%TD*%
D12*
%TO.C,R18*%
X140912500Y-67500000D03*
X139087500Y-67500000D03*
%TD*%
D21*
%TO.C,R14*%
X140400000Y-115412500D03*
X140400000Y-113587500D03*
%TD*%
D12*
%TO.C,R11*%
X152612500Y-123200000D03*
X150787500Y-123200000D03*
%TD*%
D23*
%TO.C,Q3*%
X128805000Y-76825000D03*
X127535000Y-76825000D03*
X126265000Y-76825000D03*
X124995000Y-76825000D03*
X124995000Y-81975000D03*
X126265000Y-81975000D03*
X127535000Y-81975000D03*
X128805000Y-81975000D03*
%TD*%
D15*
%TO.C,H2*%
X124000000Y-133000000D03*
%TD*%
D12*
%TO.C,R2*%
X140912500Y-71100000D03*
X139087500Y-71100000D03*
%TD*%
D22*
%TO.C,R8*%
X119600000Y-72687500D03*
X119600000Y-74512500D03*
%TD*%
D18*
%TO.C,JP5*%
X138400000Y-112442500D03*
X137100000Y-112442500D03*
X135800000Y-112442500D03*
%TD*%
%TO.C,JP19*%
X137550000Y-86750000D03*
X136250000Y-86750000D03*
X134950000Y-86750000D03*
%TD*%
D24*
%TO.C,D1*%
X143625000Y-136750000D03*
X141875000Y-136750000D03*
%TD*%
D22*
%TO.C,R10*%
X149000000Y-117687500D03*
X149000000Y-119512500D03*
%TD*%
D21*
%TO.C,R9*%
X131700000Y-124012500D03*
X131700000Y-122187500D03*
%TD*%
D12*
%TO.C,R20*%
X157912500Y-118400000D03*
X156087500Y-118400000D03*
%TD*%
D25*
%TO.C,C1*%
X112362500Y-99400000D03*
X110637500Y-99400000D03*
%TD*%
D26*
%TO.C,D6*%
X121500000Y-77900000D03*
X121500000Y-83300000D03*
%TD*%
D15*
%TO.C,H3*%
X173000000Y-68000000D03*
%TD*%
D18*
%TO.C,JP3*%
X134600000Y-126142500D03*
X133300000Y-126142500D03*
X132000000Y-126142500D03*
%TD*%
D20*
%TO.C,U4*%
X141100000Y-74100000D03*
X139820000Y-74100000D03*
X138560000Y-74100000D03*
X137290000Y-74100000D03*
X136010000Y-74100000D03*
X134740000Y-74100000D03*
X133480000Y-74100000D03*
X132200000Y-74100000D03*
X132200000Y-80400000D03*
X133480000Y-80400000D03*
X134740000Y-80400000D03*
X136010000Y-80400000D03*
X137290000Y-80400000D03*
X138560000Y-80400000D03*
X139820000Y-80400000D03*
X141100000Y-80400000D03*
%TD*%
D21*
%TO.C,R13*%
X139200000Y-110212500D03*
X139200000Y-108387500D03*
%TD*%
D18*
%TO.C,JP20*%
X134950000Y-90500000D03*
X136250000Y-90500000D03*
X137550000Y-90500000D03*
%TD*%
D27*
%TO.C,Q4*%
X125995000Y-128075000D03*
X127265000Y-128075000D03*
X128535000Y-128075000D03*
X129805000Y-128075000D03*
X129805000Y-122925000D03*
X128535000Y-122925000D03*
X127265000Y-122925000D03*
X125995000Y-122925000D03*
%TD*%
D12*
%TO.C,R19*%
X140912500Y-69250000D03*
X139087500Y-69250000D03*
%TD*%
D18*
%TO.C,JP4*%
X132000000Y-129200000D03*
X133300000Y-129200000D03*
X134600000Y-129200000D03*
%TD*%
D23*
%TO.C,Q6*%
X133805000Y-106525000D03*
X132535000Y-106525000D03*
X131265000Y-106525000D03*
X129995000Y-106525000D03*
X129995000Y-111675000D03*
X131265000Y-111675000D03*
X132535000Y-111675000D03*
X133805000Y-111675000D03*
%TD*%
D21*
%TO.C,R12*%
X135800000Y-119612500D03*
X135800000Y-117787500D03*
%TD*%
D18*
%TO.C,JP12*%
X138100000Y-136100000D03*
X136800000Y-136100000D03*
X135500000Y-136100000D03*
%TD*%
%TO.C,JP7*%
X138550000Y-102750000D03*
X137250000Y-102750000D03*
X135950000Y-102750000D03*
%TD*%
D12*
%TO.C,R6*%
X129312500Y-71700000D03*
X127487500Y-71700000D03*
%TD*%
D18*
%TO.C,JP9*%
X131900000Y-133400000D03*
X130600000Y-133400000D03*
X129300000Y-133400000D03*
%TD*%
D12*
%TO.C,R21*%
X157912500Y-120200000D03*
X156087500Y-120200000D03*
%TD*%
D18*
%TO.C,JP17*%
X137500000Y-95000000D03*
X136200000Y-95000000D03*
X134900000Y-95000000D03*
%TD*%
%TO.C,JP2*%
X127100000Y-74000000D03*
X128400000Y-74000000D03*
X129700000Y-74000000D03*
%TD*%
%TO.C,JP6*%
X135800000Y-115400000D03*
X137100000Y-115400000D03*
X138400000Y-115400000D03*
%TD*%
D12*
%TO.C,R28*%
X132412500Y-93000000D03*
X130587500Y-93000000D03*
%TD*%
D18*
%TO.C,JP11*%
X138100000Y-133400000D03*
X136800000Y-133400000D03*
X135500000Y-133400000D03*
%TD*%
D26*
%TO.C,D4*%
X121750000Y-88050000D03*
X121750000Y-93450000D03*
%TD*%
D12*
%TO.C,R29*%
X132412500Y-84500000D03*
X130587500Y-84500000D03*
%TD*%
D28*
%TO.C,U1*%
X153000000Y-65000000D03*
D29*
X153300000Y-68030000D03*
X158150000Y-68030000D03*
D28*
X158450000Y-65000000D03*
D30*
X145935000Y-64870000D03*
X145935000Y-67410000D03*
X145935000Y-69950000D03*
X145935000Y-72490000D03*
X145935000Y-75030000D03*
X145935000Y-77570000D03*
X145935000Y-80110000D03*
X145935000Y-82650000D03*
X145935000Y-85190000D03*
X145935000Y-87730000D03*
X145935000Y-90270000D03*
X145935000Y-92810000D03*
X145935000Y-95350000D03*
X145935000Y-97890000D03*
X145935000Y-100430000D03*
X145935000Y-102970000D03*
X145935000Y-105510000D03*
X145935000Y-108050000D03*
X145935000Y-110590000D03*
X145935000Y-113130000D03*
X165515000Y-113130000D03*
X165515000Y-110590000D03*
X165515000Y-108050000D03*
X165515000Y-105510000D03*
X165515000Y-102970000D03*
X165515000Y-100430000D03*
X165515000Y-97890000D03*
X165515000Y-95350000D03*
X165515000Y-92810000D03*
X165515000Y-90270000D03*
X165515000Y-87730000D03*
X165515000Y-85190000D03*
X165515000Y-82650000D03*
X165515000Y-80110000D03*
X165515000Y-77570000D03*
X165515000Y-75030000D03*
X165515000Y-72490000D03*
X165515000Y-69950000D03*
X165515000Y-67410000D03*
X165515000Y-64870000D03*
D31*
X153185000Y-113800000D03*
X155725000Y-113800000D03*
X158265000Y-113800000D03*
%TD*%
D22*
%TO.C,R7*%
X136800000Y-127887500D03*
X136800000Y-129712500D03*
%TD*%
D18*
%TO.C,JP10*%
X131900000Y-136100000D03*
X130600000Y-136100000D03*
X129300000Y-136100000D03*
%TD*%
M02*
