%TF.GenerationSoftware,KiCad,Pcbnew,7.0.5-7.0.5~ubuntu22.04.1*%
%TF.CreationDate,2023-07-07T22:55:56+02:00*%
%TF.ProjectId,door_if3_usb_machine,646f6f72-5f69-4663-935f-7573625f6d61,rev?*%
%TF.SameCoordinates,Original*%
%TF.FileFunction,Copper,L2,Bot*%
%TF.FilePolarity,Positive*%
%FSLAX46Y46*%
G04 Gerber Fmt 4.6, Leading zero omitted, Abs format (unit mm)*
G04 Created by KiCad (PCBNEW 7.0.5-7.0.5~ubuntu22.04.1) date 2023-07-07 22:55:56*
%MOMM*%
%LPD*%
G01*
G04 APERTURE LIST*
G04 Aperture macros list*
%AMRoundRect*
0 Rectangle with rounded corners*
0 $1 Rounding radius*
0 $2 $3 $4 $5 $6 $7 $8 $9 X,Y pos of 4 corners*
0 Add a 4 corners polygon primitive as box body*
4,1,4,$2,$3,$4,$5,$6,$7,$8,$9,$2,$3,0*
0 Add four circle primitives for the rounded corners*
1,1,$1+$1,$2,$3*
1,1,$1+$1,$4,$5*
1,1,$1+$1,$6,$7*
1,1,$1+$1,$8,$9*
0 Add four rect primitives between the rounded corners*
20,1,$1+$1,$2,$3,$4,$5,0*
20,1,$1+$1,$4,$5,$6,$7,0*
20,1,$1+$1,$6,$7,$8,$9,0*
20,1,$1+$1,$8,$9,$2,$3,0*%
G04 Aperture macros list end*
%TA.AperFunction,ComponentPad*%
%ADD10C,2.500000*%
%TD*%
%TA.AperFunction,ComponentPad*%
%ADD11C,1.422400*%
%TD*%
%TA.AperFunction,SMDPad,CuDef*%
%ADD12RoundRect,0.250000X-1.500000X-0.900000X1.500000X-0.900000X1.500000X0.900000X-1.500000X0.900000X0*%
%TD*%
%TA.AperFunction,SMDPad,CuDef*%
%ADD13RoundRect,0.250000X-0.900000X1.500000X-0.900000X-1.500000X0.900000X-1.500000X0.900000X1.500000X0*%
%TD*%
%TA.AperFunction,SMDPad,CuDef*%
%ADD14RoundRect,0.250000X0.900000X-1.500000X0.900000X1.500000X-0.900000X1.500000X-0.900000X-1.500000X0*%
%TD*%
%TA.AperFunction,ViaPad*%
%ADD15C,0.600000*%
%TD*%
%TA.AperFunction,ViaPad*%
%ADD16C,1.000000*%
%TD*%
%TA.AperFunction,Conductor*%
%ADD17C,0.250000*%
%TD*%
%TA.AperFunction,Conductor*%
%ADD18C,1.000000*%
%TD*%
%TA.AperFunction,Conductor*%
%ADD19C,0.150000*%
%TD*%
G04 APERTURE END LIST*
D10*
%TO.P,J3,1,Pin_1*%
%TO.N,+24V*%
X114000000Y-93670000D03*
%TO.P,J3,2,Pin_2*%
%TO.N,OUT1*%
X114000000Y-89860000D03*
%TO.P,J3,3,Pin_3*%
%TO.N,OUT2*%
X114000000Y-86050000D03*
%TO.P,J3,4,Pin_4*%
%TO.N,OUT3*%
X114000000Y-82240000D03*
%TO.P,J3,5,Pin_5*%
%TO.N,unconnected-(J3-Pin_5-Pad5)*%
X114000000Y-78430000D03*
%TO.P,J3,6,Pin_6*%
%TO.N,unconnected-(J3-Pin_6-Pad6)*%
X114000000Y-74620000D03*
%TO.P,J3,7,Pin_7*%
%TO.N,unconnected-(J3-Pin_7-Pad7)*%
X114000000Y-70810000D03*
%TO.P,J3,8,Pin_8*%
%TO.N,GNDA*%
X114000000Y-67000000D03*
%TD*%
%TO.P,J1,1,Pin_1*%
%TO.N,+24V*%
X114000000Y-134000000D03*
%TO.P,J1,2,Pin_2*%
%TO.N,IN1*%
X114000000Y-130190000D03*
%TO.P,J1,3,Pin_3*%
%TO.N,IN2*%
X114000000Y-126380000D03*
%TO.P,J1,4,Pin_4*%
%TO.N,unconnected-(J1-Pin_4-Pad4)*%
X114000000Y-122570000D03*
%TO.P,J1,5,Pin_5*%
%TO.N,OUT4*%
X114000000Y-118760000D03*
%TO.P,J1,6,Pin_6*%
%TO.N,OUT5*%
X114000000Y-114950000D03*
%TO.P,J1,7,Pin_7*%
%TO.N,OUT6*%
X114000000Y-111140000D03*
%TO.P,J1,8,Pin_8*%
%TO.N,GNDA*%
X114000000Y-107330000D03*
%TD*%
D11*
%TO.P,J2,1,Pin_1*%
%TO.N,+3V3*%
X162540000Y-131000000D03*
%TO.P,J2,2,Pin_2*%
%TO.N,SPI_CS*%
X162540000Y-133540000D03*
%TO.P,J2,3,Pin_3*%
%TO.N,SPI_MOSI*%
X160000000Y-131000000D03*
%TO.P,J2,4,Pin_4*%
%TO.N,SPI_MISO*%
X160000000Y-133540000D03*
%TO.P,J2,5,Pin_5*%
%TO.N,SPI_CLK*%
X157460000Y-131000000D03*
%TO.P,J2,6,Pin_6*%
%TO.N,I2C_SCL*%
X157460000Y-133540000D03*
%TO.P,J2,7,Pin_7*%
%TO.N,I2C_SDA*%
X154920000Y-131000000D03*
%TO.P,J2,8,Pin_8*%
%TO.N,UART_RX*%
X154920000Y-133540000D03*
%TO.P,J2,9,Pin_9*%
%TO.N,UART_TX*%
X152380000Y-131000000D03*
%TO.P,J2,10,Pin_10*%
%TO.N,GND*%
X152380000Y-133540000D03*
%TD*%
D12*
%TO.P,D13,1,K*%
%TO.N,OUT6*%
X121100000Y-108100000D03*
%TO.P,D13,2,A*%
%TO.N,GNDA*%
X126500000Y-108100000D03*
%TD*%
D13*
%TO.P,D3,1,K*%
%TO.N,OUT1*%
X121250000Y-98300000D03*
%TO.P,D3,2,A*%
%TO.N,GNDA*%
X121250000Y-103700000D03*
%TD*%
%TO.P,D9,1,K*%
%TO.N,OUT4*%
X121800000Y-120300000D03*
%TO.P,D9,2,A*%
%TO.N,GNDA*%
X121800000Y-125700000D03*
%TD*%
D14*
%TO.P,D7,1,K*%
%TO.N,OUT3*%
X120700000Y-83300000D03*
%TO.P,D7,2,A*%
%TO.N,GNDA*%
X120700000Y-77900000D03*
%TD*%
D12*
%TO.P,D11,1,K*%
%TO.N,OUT5*%
X121100000Y-114900000D03*
%TO.P,D11,2,A*%
%TO.N,GNDA*%
X126500000Y-114900000D03*
%TD*%
D14*
%TO.P,D5,1,K*%
%TO.N,OUT2*%
X121250000Y-93450000D03*
%TO.P,D5,2,A*%
%TO.N,GNDA*%
X121250000Y-88050000D03*
%TD*%
D15*
%TO.N,+24V*%
X130700000Y-126600000D03*
X134200000Y-131400000D03*
X139000000Y-132500000D03*
D16*
X116750000Y-99250000D03*
D15*
X131900000Y-132100000D03*
X131600000Y-127400000D03*
X130600000Y-131400000D03*
D16*
X114250000Y-101500000D03*
D15*
%TO.N,GNDA*%
X138000000Y-127800000D03*
D16*
X133500000Y-90750000D03*
D15*
X110600000Y-98200000D03*
D16*
X133250000Y-99000000D03*
D15*
X132900000Y-135900000D03*
X138600000Y-90200000D03*
D16*
X133658075Y-116124994D03*
D15*
X130000000Y-75400000D03*
X138289490Y-114217002D03*
X138600000Y-98900000D03*
X138800000Y-91800000D03*
X128800000Y-78400000D03*
D16*
X124500000Y-128250000D03*
D15*
X132250000Y-105000000D03*
X138800000Y-106281587D03*
D16*
X133750000Y-108250000D03*
D15*
X139200000Y-136100000D03*
X135800000Y-128800000D03*
X140625000Y-115496818D03*
X130125000Y-71200000D03*
X130100000Y-101000000D03*
%TO.N,GND*%
X148400000Y-82600000D03*
X155600000Y-111500000D03*
X134700000Y-75300000D03*
X148300000Y-108000000D03*
X146800000Y-117400000D03*
X162900000Y-95400000D03*
X148400000Y-69900000D03*
X139250000Y-123750000D03*
X141750000Y-123750000D03*
X132200000Y-75300000D03*
X139800000Y-75200000D03*
X163100000Y-70000000D03*
X167900000Y-107500000D03*
X144750000Y-136750000D03*
X148300000Y-95300000D03*
X137300000Y-75300000D03*
X144300000Y-117400000D03*
D16*
%TO.N,OUT1*%
X123850000Y-97200000D03*
%TO.N,OUT2*%
X124250000Y-93850000D03*
D15*
%TO.N,IN1*%
X122000000Y-129400000D03*
X117700000Y-129200000D03*
X119900000Y-129300000D03*
X116000000Y-129500000D03*
%TO.N,IN2*%
X119571752Y-133871752D03*
X118700000Y-131100000D03*
D16*
%TO.N,OUT3*%
X117700000Y-81800000D03*
%TO.N,OUT4*%
X119460000Y-118760000D03*
%TO.N,OUT5*%
X118200000Y-114950000D03*
%TO.N,OUT6*%
X118860000Y-111140000D03*
%TO.N,+3V3*%
X176200000Y-123800000D03*
X170300000Y-123900000D03*
D15*
X162793745Y-125825500D03*
X162900000Y-128700000D03*
%TO.N,SPI_CS*%
X165100000Y-127873502D03*
X165100000Y-129200000D03*
%TO.N,SPI_MISO*%
X161400000Y-127474001D03*
X161400000Y-128900000D03*
%TO.N,Net-(JP1-C)*%
X125700000Y-72300000D03*
X123900000Y-75300000D03*
%TO.N,Net-(JP4-C)*%
X142200000Y-116400000D03*
X142300000Y-82500000D03*
X136100000Y-82300000D03*
X140200000Y-120200000D03*
%TO.N,Net-(JP5-C)*%
X136700000Y-113800000D03*
X136800000Y-116800000D03*
%TO.N,Net-(JP8-C)*%
X139700000Y-117000000D03*
X140876194Y-117231568D03*
%TO.N,Net-(JP6-A)*%
X140200000Y-112300000D03*
X138900000Y-113642002D03*
%TO.N,Net-(JP7-B)*%
X129000000Y-105500000D03*
X129000000Y-103250000D03*
%TO.N,S_IN1*%
X152200000Y-116400000D03*
X150700000Y-115900000D03*
%TO.N,S_IN2*%
X152206587Y-117393413D03*
X150800000Y-116900000D03*
%TO.N,Net-(R2-Pad2)*%
X139000000Y-72400000D03*
X137100000Y-72400000D03*
%TO.N,Net-(R5-Pad1)*%
X141625000Y-117189214D03*
X136600000Y-81700000D03*
X141193413Y-119593413D03*
X141700000Y-81700000D03*
%TO.N,S_OUT5*%
X148800000Y-92000000D03*
X148800000Y-111500000D03*
X148800000Y-93800000D03*
X148900000Y-115900000D03*
%TO.N,S_OUT2*%
X143500000Y-79750000D03*
X143500000Y-77750000D03*
%TO.N,Net-(R22-Pad1)*%
X140400000Y-84400000D03*
X139100000Y-84600000D03*
%TO.N,Net-(R23-Pad1)*%
X138000000Y-83200000D03*
X136700000Y-83200000D03*
%TD*%
D17*
%TO.N,IN2*%
X119571752Y-131971752D02*
X119571752Y-133871752D01*
X118700000Y-131100000D02*
X119571752Y-131971752D01*
D18*
%TO.N,OUT3*%
X120700000Y-83300000D02*
X119200000Y-83300000D01*
X119200000Y-83300000D02*
X117700000Y-81800000D01*
%TO.N,+24V*%
X116500000Y-99250000D02*
X114250000Y-101500000D01*
D17*
X131500000Y-127400000D02*
X130700000Y-126600000D01*
X137900000Y-131400000D02*
X134200000Y-131400000D01*
X131900000Y-132100000D02*
X131300000Y-132100000D01*
X131300000Y-132100000D02*
X130600000Y-131400000D01*
X131600000Y-127400000D02*
X131500000Y-127400000D01*
X139000000Y-132500000D02*
X137900000Y-131400000D01*
D18*
X116750000Y-99250000D02*
X116500000Y-99250000D01*
%TO.N,OUT1*%
X123850000Y-97200000D02*
X122350000Y-97200000D01*
X122350000Y-97200000D02*
X121250000Y-98300000D01*
%TO.N,OUT2*%
X124250000Y-93850000D02*
X121650000Y-93850000D01*
X121650000Y-93850000D02*
X121250000Y-93450000D01*
D17*
%TO.N,IN1*%
X120000000Y-129400000D02*
X119900000Y-129300000D01*
X122000000Y-129400000D02*
X120000000Y-129400000D01*
X116300000Y-129200000D02*
X116000000Y-129500000D01*
X117700000Y-129200000D02*
X116300000Y-129200000D01*
D18*
%TO.N,OUT4*%
X120260000Y-118760000D02*
X121800000Y-120300000D01*
X119460000Y-118760000D02*
X120260000Y-118760000D01*
%TO.N,OUT5*%
X121050000Y-114950000D02*
X121100000Y-114900000D01*
X118200000Y-114950000D02*
X121050000Y-114950000D01*
%TO.N,OUT6*%
X118860000Y-110340000D02*
X121100000Y-108100000D01*
X118860000Y-111140000D02*
X118860000Y-110340000D01*
%TO.N,+3V3*%
X176100000Y-123900000D02*
X176200000Y-123800000D01*
D17*
X162900000Y-128700000D02*
X162900000Y-125931755D01*
D18*
X170300000Y-123900000D02*
X176100000Y-123900000D01*
D17*
X162900000Y-125931755D02*
X162793745Y-125825500D01*
D19*
%TO.N,SPI_CS*%
X165100000Y-129200000D02*
X165100000Y-127873502D01*
%TO.N,SPI_MISO*%
X161400000Y-128900000D02*
X161400000Y-127474001D01*
D17*
%TO.N,Net-(JP1-C)*%
X123900000Y-74100000D02*
X125700000Y-72300000D01*
X123900000Y-75300000D02*
X123900000Y-74100000D01*
%TO.N,Net-(JP4-C)*%
X142100000Y-82300000D02*
X142300000Y-82500000D01*
X142200000Y-116400000D02*
X142200000Y-119399999D01*
X136100000Y-82300000D02*
X142100000Y-82300000D01*
X142200000Y-119399999D02*
X141399999Y-120200000D01*
X141399999Y-120200000D02*
X140200000Y-120200000D01*
%TO.N,Net-(JP5-C)*%
X136800000Y-116800000D02*
X136800000Y-113900000D01*
X136800000Y-113900000D02*
X136700000Y-113800000D01*
%TO.N,Net-(JP8-C)*%
X140644626Y-117000000D02*
X139726194Y-117000000D01*
X140876194Y-117231568D02*
X140644626Y-117000000D01*
%TO.N,Net-(JP6-A)*%
X140200000Y-112342002D02*
X138900000Y-113642002D01*
X140200000Y-112300000D02*
X140200000Y-112342002D01*
%TO.N,Net-(JP7-B)*%
X129000000Y-105500000D02*
X129000000Y-103250000D01*
%TO.N,S_IN1*%
X151700000Y-115900000D02*
X152200000Y-116400000D01*
X150700000Y-115900000D02*
X151700000Y-115900000D01*
%TO.N,S_IN2*%
X151713174Y-116900000D02*
X152206587Y-117393413D01*
X150800000Y-116900000D02*
X151713174Y-116900000D01*
%TO.N,Net-(R2-Pad2)*%
X139000000Y-72400000D02*
X137100000Y-72400000D01*
%TO.N,Net-(R5-Pad1)*%
X141625000Y-119161826D02*
X141193413Y-119593413D01*
X141625000Y-117189214D02*
X141625000Y-119161826D01*
X136600000Y-81700000D02*
X141700000Y-81700000D01*
%TO.N,S_OUT5*%
X148900000Y-111600000D02*
X148800000Y-111500000D01*
X148900000Y-115900000D02*
X148900000Y-111600000D01*
X148800000Y-93800000D02*
X148800000Y-92000000D01*
%TO.N,S_OUT2*%
X143500000Y-79750000D02*
X143500000Y-77750000D01*
%TO.N,Net-(R22-Pad1)*%
X140200000Y-84600000D02*
X140400000Y-84400000D01*
X139100000Y-84600000D02*
X140200000Y-84600000D01*
%TO.N,Net-(R23-Pad1)*%
X138000000Y-83200000D02*
X136700000Y-83200000D01*
%TD*%
%TA.AperFunction,Conductor*%
%TO.N,GNDA*%
G36*
X135743039Y-63519685D02*
G01*
X135788794Y-63572489D01*
X135800000Y-63624000D01*
X135800000Y-68648638D01*
X135780315Y-68715677D01*
X135763681Y-68736319D01*
X132336319Y-72163681D01*
X132274996Y-72197166D01*
X132248638Y-72200000D01*
X130500000Y-72200000D01*
X130500000Y-78000000D01*
X141676000Y-78000000D01*
X141743039Y-78019685D01*
X141788794Y-78072489D01*
X141800000Y-78124000D01*
X141800000Y-81075500D01*
X141780315Y-81142539D01*
X141727511Y-81188294D01*
X141676000Y-81199500D01*
X141628036Y-81199500D01*
X141489949Y-81240045D01*
X141368873Y-81317856D01*
X141368872Y-81317856D01*
X141368872Y-81317857D01*
X141356873Y-81331703D01*
X141298097Y-81369477D01*
X141263162Y-81374500D01*
X137036838Y-81374500D01*
X136969799Y-81354815D01*
X136943127Y-81331704D01*
X136931128Y-81317857D01*
X136810053Y-81240047D01*
X136810051Y-81240046D01*
X136810049Y-81240045D01*
X136810050Y-81240045D01*
X136671963Y-81199500D01*
X136671961Y-81199500D01*
X136528039Y-81199500D01*
X136528036Y-81199500D01*
X136389949Y-81240045D01*
X136268873Y-81317856D01*
X136174623Y-81426626D01*
X136174622Y-81426628D01*
X136114834Y-81557543D01*
X136093680Y-81704676D01*
X136064655Y-81768232D01*
X136005877Y-81806006D01*
X135889949Y-81840045D01*
X135768873Y-81917856D01*
X135674623Y-82026626D01*
X135674622Y-82026628D01*
X135614834Y-82157543D01*
X135594353Y-82299999D01*
X135614834Y-82442456D01*
X135622318Y-82458843D01*
X135674623Y-82573373D01*
X135768872Y-82682143D01*
X135889947Y-82759953D01*
X135889950Y-82759954D01*
X135889949Y-82759954D01*
X136028036Y-82800499D01*
X136028038Y-82800500D01*
X136139275Y-82800500D01*
X136206314Y-82820185D01*
X136252069Y-82872989D01*
X136262013Y-82942147D01*
X136252069Y-82976011D01*
X136214835Y-83057541D01*
X136194353Y-83200000D01*
X136214834Y-83342456D01*
X136240470Y-83398589D01*
X136274623Y-83473373D01*
X136368872Y-83582143D01*
X136489947Y-83659953D01*
X136489950Y-83659954D01*
X136489949Y-83659954D01*
X136628036Y-83700499D01*
X136628038Y-83700500D01*
X136628039Y-83700500D01*
X136771962Y-83700500D01*
X136771962Y-83700499D01*
X136910053Y-83659953D01*
X137031128Y-83582143D01*
X137043126Y-83568296D01*
X137101903Y-83530523D01*
X137136838Y-83525500D01*
X137563162Y-83525500D01*
X137630201Y-83545185D01*
X137656872Y-83568295D01*
X137668872Y-83582143D01*
X137789947Y-83659953D01*
X137789950Y-83659954D01*
X137789949Y-83659954D01*
X137928036Y-83700499D01*
X137928038Y-83700500D01*
X137928039Y-83700500D01*
X138071962Y-83700500D01*
X138071962Y-83700499D01*
X138210053Y-83659953D01*
X138331128Y-83582143D01*
X138425377Y-83473373D01*
X138485165Y-83342457D01*
X138505647Y-83200000D01*
X138485165Y-83057543D01*
X138425377Y-82926627D01*
X138342256Y-82830700D01*
X138313233Y-82767147D01*
X138323177Y-82697989D01*
X138368931Y-82645185D01*
X138435971Y-82625500D01*
X141676000Y-82625500D01*
X141743039Y-82645185D01*
X141788794Y-82697989D01*
X141800000Y-82749499D01*
X141800000Y-83500000D01*
X141800000Y-102900000D01*
X141791128Y-105357543D01*
X141752168Y-116149265D01*
X141740964Y-116200328D01*
X141714835Y-116257542D01*
X141714834Y-116257543D01*
X141699369Y-116365112D01*
X141694353Y-116400000D01*
X141714488Y-116540047D01*
X141715498Y-116547067D01*
X141705554Y-116616226D01*
X141659799Y-116669029D01*
X141592760Y-116688714D01*
X141553036Y-116688714D01*
X141414949Y-116729259D01*
X141286411Y-116811866D01*
X141284658Y-116809139D01*
X141235518Y-116831566D01*
X141166362Y-116821606D01*
X141150862Y-116813140D01*
X141086244Y-116771613D01*
X140948157Y-116731068D01*
X140948155Y-116731068D01*
X140867139Y-116731068D01*
X140800100Y-116711383D01*
X140796043Y-116708661D01*
X140784310Y-116700446D01*
X140784308Y-116700445D01*
X140784306Y-116700444D01*
X140779487Y-116698197D01*
X140762681Y-116691235D01*
X140757669Y-116689411D01*
X140717816Y-116682383D01*
X140712536Y-116681212D01*
X140673434Y-116670735D01*
X140638518Y-116673790D01*
X140633107Y-116674264D01*
X140627704Y-116674500D01*
X140136838Y-116674500D01*
X140069799Y-116654815D01*
X140043127Y-116631704D01*
X140031128Y-116617857D01*
X139910053Y-116540047D01*
X139910051Y-116540046D01*
X139910049Y-116540045D01*
X139910050Y-116540045D01*
X139771963Y-116499500D01*
X139771961Y-116499500D01*
X139628039Y-116499500D01*
X139628036Y-116499500D01*
X139489949Y-116540045D01*
X139368873Y-116617856D01*
X139274623Y-116726626D01*
X139274622Y-116726628D01*
X139214834Y-116857543D01*
X139194353Y-116999999D01*
X139214834Y-117142456D01*
X139268038Y-117258954D01*
X139274623Y-117273373D01*
X139368872Y-117382143D01*
X139489947Y-117459953D01*
X139489950Y-117459954D01*
X139489949Y-117459954D01*
X139628036Y-117500499D01*
X139628038Y-117500500D01*
X139628039Y-117500500D01*
X139771962Y-117500500D01*
X139771962Y-117500499D01*
X139910053Y-117459953D01*
X140031128Y-117382143D01*
X140043126Y-117368296D01*
X140101903Y-117330523D01*
X140136838Y-117325500D01*
X140289179Y-117325500D01*
X140356218Y-117345185D01*
X140401972Y-117397987D01*
X140450817Y-117504941D01*
X140545066Y-117613711D01*
X140666141Y-117691521D01*
X140666144Y-117691522D01*
X140666143Y-117691522D01*
X140804230Y-117732067D01*
X140804232Y-117732068D01*
X140804233Y-117732068D01*
X140948156Y-117732068D01*
X140948156Y-117732067D01*
X141086247Y-117691521D01*
X141108459Y-117677245D01*
X141175498Y-117657560D01*
X141242538Y-117677243D01*
X141288294Y-117730047D01*
X141299500Y-117781560D01*
X141299500Y-118968913D01*
X141279815Y-119035952D01*
X141227011Y-119081707D01*
X141175500Y-119092913D01*
X141121449Y-119092913D01*
X140983362Y-119133458D01*
X140862286Y-119211269D01*
X140768036Y-119320039D01*
X140768035Y-119320041D01*
X140708247Y-119450956D01*
X140687766Y-119593413D01*
X140700626Y-119682863D01*
X140690682Y-119752021D01*
X140644927Y-119804825D01*
X140577887Y-119824509D01*
X140510848Y-119804824D01*
X140410051Y-119740046D01*
X140410050Y-119740045D01*
X140271963Y-119699500D01*
X140271961Y-119699500D01*
X140128039Y-119699500D01*
X140128036Y-119699500D01*
X139989949Y-119740045D01*
X139868873Y-119817856D01*
X139774623Y-119926626D01*
X139774622Y-119926628D01*
X139714834Y-120057543D01*
X139694353Y-120199999D01*
X139714834Y-120342456D01*
X139739551Y-120396577D01*
X139750298Y-120420110D01*
X139752298Y-120424488D01*
X139762242Y-120493646D01*
X139733217Y-120557202D01*
X139674440Y-120594977D01*
X139639504Y-120600000D01*
X136500000Y-120600000D01*
X136500000Y-126750000D01*
X143000000Y-126750000D01*
X143000000Y-123124000D01*
X143019685Y-123056961D01*
X143072489Y-123011206D01*
X143124000Y-123000000D01*
X147876000Y-123000000D01*
X147943039Y-123019685D01*
X147988794Y-123072489D01*
X148000000Y-123124000D01*
X148000000Y-132176000D01*
X147980315Y-132243039D01*
X147927511Y-132288794D01*
X147876000Y-132300000D01*
X139900000Y-132300000D01*
X139900000Y-137376000D01*
X139880315Y-137443039D01*
X139827511Y-137488794D01*
X139776000Y-137500000D01*
X108624000Y-137500000D01*
X108556961Y-137480315D01*
X108511206Y-137427511D01*
X108500000Y-137376000D01*
X108500000Y-134000005D01*
X112544529Y-134000005D01*
X112564379Y-134239559D01*
X112623389Y-134472589D01*
X112719951Y-134692729D01*
X112813343Y-134835674D01*
X112851429Y-134893969D01*
X113014236Y-135070825D01*
X113014239Y-135070827D01*
X113014242Y-135070830D01*
X113203924Y-135218466D01*
X113203930Y-135218470D01*
X113203933Y-135218472D01*
X113415344Y-135332882D01*
X113415347Y-135332883D01*
X113642699Y-135410933D01*
X113642701Y-135410933D01*
X113642703Y-135410934D01*
X113879808Y-135450500D01*
X113879809Y-135450500D01*
X114120191Y-135450500D01*
X114120192Y-135450500D01*
X114357297Y-135410934D01*
X114584656Y-135332882D01*
X114796067Y-135218472D01*
X114985764Y-135070825D01*
X115148571Y-134893969D01*
X115280049Y-134692728D01*
X115376610Y-134472591D01*
X115435620Y-134239563D01*
X115455471Y-134000000D01*
X115452701Y-133966575D01*
X115435620Y-133760440D01*
X115435620Y-133760437D01*
X115376610Y-133527409D01*
X115280049Y-133307272D01*
X115148571Y-133106031D01*
X114985764Y-132929175D01*
X114985759Y-132929171D01*
X114985757Y-132929169D01*
X114796075Y-132781533D01*
X114796069Y-132781529D01*
X114584657Y-132667118D01*
X114584652Y-132667116D01*
X114357300Y-132589066D01*
X114179468Y-132559391D01*
X114120192Y-132549500D01*
X113879808Y-132549500D01*
X113832386Y-132557413D01*
X113642699Y-132589066D01*
X113415347Y-132667116D01*
X113415342Y-132667118D01*
X113203930Y-132781529D01*
X113203924Y-132781533D01*
X113014242Y-132929169D01*
X113014239Y-132929172D01*
X112851430Y-133106029D01*
X112851427Y-133106033D01*
X112719951Y-133307270D01*
X112623389Y-133527410D01*
X112564379Y-133760440D01*
X112544529Y-133999994D01*
X112544529Y-134000005D01*
X108500000Y-134000005D01*
X108500000Y-132095000D01*
X116119417Y-132095000D01*
X116120557Y-132106578D01*
X116139699Y-132300932D01*
X116139700Y-132300934D01*
X116199768Y-132498954D01*
X116297315Y-132681450D01*
X116297317Y-132681452D01*
X116428589Y-132841410D01*
X116525209Y-132920702D01*
X116588550Y-132972685D01*
X116771046Y-133070232D01*
X116969066Y-133130300D01*
X116969065Y-133130300D01*
X117007647Y-133134100D01*
X117123392Y-133145500D01*
X117123395Y-133145500D01*
X117226605Y-133145500D01*
X117226608Y-133145500D01*
X117380934Y-133130300D01*
X117578954Y-133070232D01*
X117761450Y-132972685D01*
X117921410Y-132841410D01*
X118052685Y-132681450D01*
X118150232Y-132498954D01*
X118210300Y-132300934D01*
X118230583Y-132095000D01*
X118210300Y-131889066D01*
X118150232Y-131691046D01*
X118052685Y-131508550D01*
X117963600Y-131399999D01*
X117921410Y-131348589D01*
X117792086Y-131242457D01*
X117761450Y-131217315D01*
X117578954Y-131119768D01*
X117513787Y-131100000D01*
X118194353Y-131100000D01*
X118195615Y-131108779D01*
X118214834Y-131242456D01*
X118250242Y-131319987D01*
X118274623Y-131373373D01*
X118368872Y-131482143D01*
X118489947Y-131559953D01*
X118489950Y-131559954D01*
X118489949Y-131559954D01*
X118597107Y-131591417D01*
X118624633Y-131599500D01*
X118628036Y-131600499D01*
X118628038Y-131600500D01*
X118628039Y-131600500D01*
X118688812Y-131600500D01*
X118755851Y-131620185D01*
X118776493Y-131636819D01*
X119209933Y-132070259D01*
X119243418Y-132131582D01*
X119246252Y-132157940D01*
X119246252Y-133436864D01*
X119226567Y-133503903D01*
X119215965Y-133518066D01*
X119146377Y-133598374D01*
X119146374Y-133598380D01*
X119086586Y-133729295D01*
X119066105Y-133871751D01*
X119086586Y-134014208D01*
X119116455Y-134079610D01*
X119146375Y-134145125D01*
X119240624Y-134253895D01*
X119361699Y-134331705D01*
X119361702Y-134331706D01*
X119361701Y-134331706D01*
X119499788Y-134372251D01*
X119499790Y-134372252D01*
X119499791Y-134372252D01*
X119643714Y-134372252D01*
X119643714Y-134372251D01*
X119781805Y-134331705D01*
X119902880Y-134253895D01*
X119997129Y-134145125D01*
X120056917Y-134014209D01*
X120077399Y-133871752D01*
X120056917Y-133729295D01*
X119997129Y-133598379D01*
X119927537Y-133518065D01*
X119898513Y-133454511D01*
X119897251Y-133436877D01*
X119897251Y-133067763D01*
X122145787Y-133067763D01*
X122175413Y-133337013D01*
X122175415Y-133337024D01*
X122243926Y-133599082D01*
X122243928Y-133599088D01*
X122349870Y-133848390D01*
X122364128Y-133871752D01*
X122490979Y-134079605D01*
X122490986Y-134079615D01*
X122664253Y-134287819D01*
X122664259Y-134287824D01*
X122713235Y-134331706D01*
X122865998Y-134468582D01*
X123091910Y-134618044D01*
X123337176Y-134733020D01*
X123337183Y-134733022D01*
X123337185Y-134733023D01*
X123596557Y-134811057D01*
X123596564Y-134811058D01*
X123596569Y-134811060D01*
X123864561Y-134850500D01*
X123864566Y-134850500D01*
X124067629Y-134850500D01*
X124067631Y-134850500D01*
X124067636Y-134850499D01*
X124067648Y-134850499D01*
X124105191Y-134847750D01*
X124270156Y-134835677D01*
X124382758Y-134810593D01*
X124534546Y-134776782D01*
X124534548Y-134776781D01*
X124534553Y-134776780D01*
X124787558Y-134680014D01*
X125023777Y-134547441D01*
X125238177Y-134381888D01*
X125426186Y-134186881D01*
X125583799Y-133966579D01*
X125657787Y-133822669D01*
X125707649Y-133725690D01*
X125707651Y-133725684D01*
X125707656Y-133725675D01*
X125795118Y-133469305D01*
X125844319Y-133202933D01*
X125854212Y-132932235D01*
X125824586Y-132662982D01*
X125756072Y-132400912D01*
X125650130Y-132151610D01*
X125509018Y-131920390D01*
X125493071Y-131901228D01*
X125335746Y-131712180D01*
X125335740Y-131712175D01*
X125134002Y-131531418D01*
X124935364Y-131400000D01*
X130094353Y-131400000D01*
X130095615Y-131408779D01*
X130114834Y-131542456D01*
X130157929Y-131636819D01*
X130174623Y-131673373D01*
X130268872Y-131782143D01*
X130389947Y-131859953D01*
X130389950Y-131859954D01*
X130389949Y-131859954D01*
X130528036Y-131900499D01*
X130528038Y-131900500D01*
X130528039Y-131900500D01*
X130588812Y-131900500D01*
X130655851Y-131920185D01*
X130676492Y-131936818D01*
X130871255Y-132131582D01*
X131057868Y-132318195D01*
X131061523Y-132322184D01*
X131087541Y-132353190D01*
X131087542Y-132353191D01*
X131087545Y-132353194D01*
X131116387Y-132369845D01*
X131122604Y-132373435D01*
X131127154Y-132376333D01*
X131160316Y-132399553D01*
X131160318Y-132399553D01*
X131160319Y-132399554D01*
X131165168Y-132401815D01*
X131181947Y-132408765D01*
X131186952Y-132410587D01*
X131186953Y-132410587D01*
X131186955Y-132410588D01*
X131226829Y-132417618D01*
X131232092Y-132418786D01*
X131243907Y-132421951D01*
X131271193Y-132429263D01*
X131311510Y-132425735D01*
X131316912Y-132425500D01*
X131463162Y-132425500D01*
X131530201Y-132445185D01*
X131556872Y-132468295D01*
X131568872Y-132482143D01*
X131689947Y-132559953D01*
X131689950Y-132559954D01*
X131689949Y-132559954D01*
X131828036Y-132600499D01*
X131828038Y-132600500D01*
X131828039Y-132600500D01*
X131971962Y-132600500D01*
X131971962Y-132600499D01*
X132110053Y-132559953D01*
X132231128Y-132482143D01*
X132325377Y-132373373D01*
X132385165Y-132242457D01*
X132405647Y-132100000D01*
X132385165Y-131957543D01*
X132325377Y-131826627D01*
X132231128Y-131717857D01*
X132110053Y-131640047D01*
X132110051Y-131640046D01*
X132110049Y-131640045D01*
X132110050Y-131640045D01*
X131971963Y-131599500D01*
X131971961Y-131599500D01*
X131828039Y-131599500D01*
X131828036Y-131599500D01*
X131689949Y-131640045D01*
X131568872Y-131717856D01*
X131567564Y-131719367D01*
X131565882Y-131720447D01*
X131562172Y-131723663D01*
X131561709Y-131723129D01*
X131508786Y-131757140D01*
X131438916Y-131757140D01*
X131386171Y-131725844D01*
X131141966Y-131481639D01*
X131108481Y-131420316D01*
X131107235Y-131408732D01*
X131106909Y-131408779D01*
X131105647Y-131400000D01*
X133694353Y-131400000D01*
X133714834Y-131542456D01*
X133757929Y-131636819D01*
X133774623Y-131673373D01*
X133868872Y-131782143D01*
X133989947Y-131859953D01*
X133989950Y-131859954D01*
X133989949Y-131859954D01*
X134128036Y-131900499D01*
X134128038Y-131900500D01*
X134128039Y-131900500D01*
X134271962Y-131900500D01*
X134271962Y-131900499D01*
X134410053Y-131859953D01*
X134531128Y-131782143D01*
X134543126Y-131768296D01*
X134601903Y-131730523D01*
X134636838Y-131725500D01*
X137713812Y-131725500D01*
X137780851Y-131745185D01*
X137801493Y-131761819D01*
X138458034Y-132418360D01*
X138491519Y-132479683D01*
X138492764Y-132491268D01*
X138493091Y-132491222D01*
X138514834Y-132642456D01*
X138574622Y-132773371D01*
X138574623Y-132773373D01*
X138668872Y-132882143D01*
X138789947Y-132959953D01*
X138789950Y-132959954D01*
X138789949Y-132959954D01*
X138928036Y-133000499D01*
X138928038Y-133000500D01*
X138928039Y-133000500D01*
X139071962Y-133000500D01*
X139071962Y-133000499D01*
X139210053Y-132959953D01*
X139331128Y-132882143D01*
X139425377Y-132773373D01*
X139485165Y-132642457D01*
X139505647Y-132500000D01*
X139485165Y-132357543D01*
X139425377Y-132226627D01*
X139331128Y-132117857D01*
X139210053Y-132040047D01*
X139210051Y-132040046D01*
X139210049Y-132040045D01*
X139210050Y-132040045D01*
X139071963Y-131999500D01*
X139071961Y-131999500D01*
X139011188Y-131999500D01*
X138944149Y-131979815D01*
X138923507Y-131963181D01*
X138559826Y-131599500D01*
X138142119Y-131181793D01*
X138138474Y-131177814D01*
X138112456Y-131146807D01*
X138112455Y-131146806D01*
X138100014Y-131139623D01*
X138077392Y-131126561D01*
X138072831Y-131123655D01*
X138051585Y-131108779D01*
X138039684Y-131100446D01*
X138039681Y-131100445D01*
X138034861Y-131098197D01*
X138018055Y-131091235D01*
X138013043Y-131089411D01*
X137973190Y-131082383D01*
X137967910Y-131081212D01*
X137928808Y-131070735D01*
X137893892Y-131073790D01*
X137888481Y-131074264D01*
X137883078Y-131074500D01*
X134636838Y-131074500D01*
X134569799Y-131054815D01*
X134543127Y-131031704D01*
X134531128Y-131017857D01*
X134410053Y-130940047D01*
X134410051Y-130940046D01*
X134410049Y-130940045D01*
X134410050Y-130940045D01*
X134271963Y-130899500D01*
X134271961Y-130899500D01*
X134128039Y-130899500D01*
X134128036Y-130899500D01*
X133989949Y-130940045D01*
X133868873Y-131017856D01*
X133774623Y-131126626D01*
X133774622Y-131126628D01*
X133714834Y-131257543D01*
X133694353Y-131400000D01*
X131105647Y-131400000D01*
X131101818Y-131373373D01*
X131085165Y-131257543D01*
X131025377Y-131126627D01*
X130931128Y-131017857D01*
X130810053Y-130940047D01*
X130810051Y-130940046D01*
X130810049Y-130940045D01*
X130810050Y-130940045D01*
X130671963Y-130899500D01*
X130671961Y-130899500D01*
X130528039Y-130899500D01*
X130528036Y-130899500D01*
X130389949Y-130940045D01*
X130268873Y-131017856D01*
X130174623Y-131126626D01*
X130174622Y-131126628D01*
X130114834Y-131257543D01*
X130098181Y-131373373D01*
X130094353Y-131400000D01*
X124935364Y-131400000D01*
X124908092Y-131381957D01*
X124889781Y-131373373D01*
X124662824Y-131266980D01*
X124662819Y-131266978D01*
X124662814Y-131266976D01*
X124403442Y-131188942D01*
X124403428Y-131188939D01*
X124287791Y-131171921D01*
X124135439Y-131149500D01*
X123932369Y-131149500D01*
X123932351Y-131149500D01*
X123729844Y-131164323D01*
X123729831Y-131164325D01*
X123465453Y-131223217D01*
X123465446Y-131223220D01*
X123212439Y-131319987D01*
X122976226Y-131452557D01*
X122761822Y-131618112D01*
X122573822Y-131813109D01*
X122573816Y-131813116D01*
X122416202Y-132033419D01*
X122416199Y-132033424D01*
X122292350Y-132274309D01*
X122292343Y-132274327D01*
X122204884Y-132530685D01*
X122204881Y-132530699D01*
X122194100Y-132589066D01*
X122160058Y-132773373D01*
X122155681Y-132797068D01*
X122155680Y-132797075D01*
X122145787Y-133067763D01*
X119897251Y-133067763D01*
X119897251Y-131988675D01*
X119897487Y-131983268D01*
X119899739Y-131957543D01*
X119901016Y-131942946D01*
X119890528Y-131903808D01*
X119889371Y-131898585D01*
X119882340Y-131858707D01*
X119882339Y-131858706D01*
X119882339Y-131858703D01*
X119880516Y-131853694D01*
X119873572Y-131836928D01*
X119871306Y-131832071D01*
X119871306Y-131832068D01*
X119867495Y-131826626D01*
X119848092Y-131798915D01*
X119845185Y-131794351D01*
X119824948Y-131759300D01*
X119824947Y-131759299D01*
X119824946Y-131759297D01*
X119793929Y-131733270D01*
X119789945Y-131729619D01*
X119241966Y-131181639D01*
X119208481Y-131120316D01*
X119207235Y-131108732D01*
X119206909Y-131108779D01*
X119204124Y-131089411D01*
X119185165Y-130957543D01*
X119125377Y-130826627D01*
X119031128Y-130717857D01*
X118910053Y-130640047D01*
X118910051Y-130640046D01*
X118910049Y-130640045D01*
X118910050Y-130640045D01*
X118771963Y-130599500D01*
X118771961Y-130599500D01*
X118628039Y-130599500D01*
X118628036Y-130599500D01*
X118489949Y-130640045D01*
X118368873Y-130717856D01*
X118274623Y-130826626D01*
X118274622Y-130826628D01*
X118214834Y-130957543D01*
X118198560Y-131070736D01*
X118194353Y-131100000D01*
X117513787Y-131100000D01*
X117380934Y-131059700D01*
X117380932Y-131059699D01*
X117380934Y-131059699D01*
X117261805Y-131047966D01*
X117226608Y-131044500D01*
X117123392Y-131044500D01*
X117085298Y-131048251D01*
X116969067Y-131059699D01*
X116771043Y-131119769D01*
X116687690Y-131164323D01*
X116588550Y-131217315D01*
X116588548Y-131217316D01*
X116588547Y-131217317D01*
X116428589Y-131348589D01*
X116297317Y-131508547D01*
X116297315Y-131508550D01*
X116289654Y-131522883D01*
X116199769Y-131691043D01*
X116139699Y-131889067D01*
X116124829Y-132040047D01*
X116119417Y-132095000D01*
X108500000Y-132095000D01*
X108500000Y-130190005D01*
X112544529Y-130190005D01*
X112564379Y-130429559D01*
X112623389Y-130662589D01*
X112719951Y-130882729D01*
X112849628Y-131081212D01*
X112851429Y-131083969D01*
X113014236Y-131260825D01*
X113014239Y-131260827D01*
X113014242Y-131260830D01*
X113203924Y-131408466D01*
X113203930Y-131408470D01*
X113203933Y-131408472D01*
X113415344Y-131522882D01*
X113415347Y-131522883D01*
X113642699Y-131600933D01*
X113642701Y-131600933D01*
X113642703Y-131600934D01*
X113879808Y-131640500D01*
X113879809Y-131640500D01*
X114120191Y-131640500D01*
X114120192Y-131640500D01*
X114357297Y-131600934D01*
X114584656Y-131522882D01*
X114796067Y-131408472D01*
X114830134Y-131381957D01*
X114873005Y-131348589D01*
X114985764Y-131260825D01*
X115148571Y-131083969D01*
X115280049Y-130882728D01*
X115376610Y-130662591D01*
X115435620Y-130429563D01*
X115455471Y-130190000D01*
X115436053Y-129955662D01*
X115450134Y-129887227D01*
X115498979Y-129837268D01*
X115567080Y-129821647D01*
X115632815Y-129845324D01*
X115653341Y-129864220D01*
X115668869Y-129882140D01*
X115668872Y-129882143D01*
X115789947Y-129959953D01*
X115789950Y-129959954D01*
X115789949Y-129959954D01*
X115928036Y-130000499D01*
X115928038Y-130000500D01*
X115928039Y-130000500D01*
X116071962Y-130000500D01*
X116071962Y-130000499D01*
X116210053Y-129959953D01*
X116331128Y-129882143D01*
X116425377Y-129773373D01*
X116485165Y-129642457D01*
X116486689Y-129631852D01*
X116515716Y-129568297D01*
X116574494Y-129530523D01*
X116609428Y-129525500D01*
X117263162Y-129525500D01*
X117330201Y-129545185D01*
X117356872Y-129568295D01*
X117368872Y-129582143D01*
X117489947Y-129659953D01*
X117489950Y-129659954D01*
X117489949Y-129659954D01*
X117628036Y-129700499D01*
X117628038Y-129700500D01*
X117628039Y-129700500D01*
X117771962Y-129700500D01*
X117771962Y-129700499D01*
X117910053Y-129659953D01*
X118031128Y-129582143D01*
X118125377Y-129473373D01*
X118185165Y-129342457D01*
X118191269Y-129300000D01*
X119394353Y-129300000D01*
X119414834Y-129442456D01*
X119460504Y-129542457D01*
X119474623Y-129573373D01*
X119568872Y-129682143D01*
X119689947Y-129759953D01*
X119689950Y-129759954D01*
X119689949Y-129759954D01*
X119828036Y-129800499D01*
X119828038Y-129800500D01*
X119828039Y-129800500D01*
X119971962Y-129800500D01*
X119971962Y-129800499D01*
X120110050Y-129759954D01*
X120110051Y-129759954D01*
X120133032Y-129745185D01*
X120200071Y-129725500D01*
X121563162Y-129725500D01*
X121630201Y-129745185D01*
X121656872Y-129768295D01*
X121668872Y-129782143D01*
X121789947Y-129859953D01*
X121789950Y-129859954D01*
X121789949Y-129859954D01*
X121928036Y-129900499D01*
X121928038Y-129900500D01*
X121928039Y-129900500D01*
X122071962Y-129900500D01*
X122071962Y-129900499D01*
X122210053Y-129859953D01*
X122331128Y-129782143D01*
X122425377Y-129673373D01*
X122485165Y-129542457D01*
X122505647Y-129400000D01*
X122485165Y-129257543D01*
X122425377Y-129126627D01*
X122331128Y-129017857D01*
X122210053Y-128940047D01*
X122210051Y-128940046D01*
X122210049Y-128940045D01*
X122210050Y-128940045D01*
X122071963Y-128899500D01*
X122071961Y-128899500D01*
X121928039Y-128899500D01*
X121928036Y-128899500D01*
X121789949Y-128940045D01*
X121668873Y-129017856D01*
X121668872Y-129017856D01*
X121668872Y-129017857D01*
X121656873Y-129031703D01*
X121598097Y-129069477D01*
X121563162Y-129074500D01*
X120423488Y-129074500D01*
X120356449Y-129054815D01*
X120329775Y-129031703D01*
X120325376Y-129026626D01*
X120231128Y-128917857D01*
X120110053Y-128840047D01*
X120110051Y-128840046D01*
X120110049Y-128840045D01*
X120110050Y-128840045D01*
X119971963Y-128799500D01*
X119971961Y-128799500D01*
X119828039Y-128799500D01*
X119828036Y-128799500D01*
X119689949Y-128840045D01*
X119568873Y-128917856D01*
X119474623Y-129026626D01*
X119474622Y-129026628D01*
X119414834Y-129157543D01*
X119394353Y-129300000D01*
X118191269Y-129300000D01*
X118205647Y-129200000D01*
X118185165Y-129057543D01*
X118125377Y-128926627D01*
X118031128Y-128817857D01*
X117910053Y-128740047D01*
X117910051Y-128740046D01*
X117910049Y-128740045D01*
X117910050Y-128740045D01*
X117771963Y-128699500D01*
X117771961Y-128699500D01*
X117628039Y-128699500D01*
X117628036Y-128699500D01*
X117489949Y-128740045D01*
X117368873Y-128817856D01*
X117368872Y-128817856D01*
X117368872Y-128817857D01*
X117356873Y-128831703D01*
X117298097Y-128869477D01*
X117263162Y-128874500D01*
X116316922Y-128874500D01*
X116311518Y-128874264D01*
X116306107Y-128873790D01*
X116271192Y-128870735D01*
X116271191Y-128870735D01*
X116232091Y-128881212D01*
X116226811Y-128882383D01*
X116186959Y-128889410D01*
X116181961Y-128891229D01*
X116165117Y-128898206D01*
X116160313Y-128900446D01*
X116127166Y-128923656D01*
X116122606Y-128926562D01*
X116087548Y-128946804D01*
X116087540Y-128946810D01*
X116080494Y-128955208D01*
X116022322Y-128993909D01*
X115985507Y-128999500D01*
X115928036Y-128999500D01*
X115789949Y-129040045D01*
X115668873Y-129117856D01*
X115574623Y-129226626D01*
X115574622Y-129226628D01*
X115514834Y-129357543D01*
X115502795Y-129441280D01*
X115473770Y-129504836D01*
X115414991Y-129542610D01*
X115345122Y-129542610D01*
X115286344Y-129504835D01*
X115276249Y-129491455D01*
X115178902Y-129342456D01*
X115148571Y-129296031D01*
X114985764Y-129119175D01*
X114985759Y-129119171D01*
X114985757Y-129119169D01*
X114796075Y-128971533D01*
X114796069Y-128971529D01*
X114584657Y-128857118D01*
X114584652Y-128857116D01*
X114357300Y-128779066D01*
X114179468Y-128749391D01*
X114120192Y-128739500D01*
X113879808Y-128739500D01*
X113832386Y-128747413D01*
X113642699Y-128779066D01*
X113415347Y-128857116D01*
X113415342Y-128857118D01*
X113203930Y-128971529D01*
X113203924Y-128971533D01*
X113014242Y-129119169D01*
X113014239Y-129119172D01*
X112851430Y-129296029D01*
X112851427Y-129296033D01*
X112719951Y-129497270D01*
X112623389Y-129717410D01*
X112564379Y-129950440D01*
X112544529Y-130189994D01*
X112544529Y-130190005D01*
X108500000Y-130190005D01*
X108500000Y-128285000D01*
X109769417Y-128285000D01*
X109789699Y-128490932D01*
X109789700Y-128490934D01*
X109849768Y-128688954D01*
X109947315Y-128871450D01*
X109962056Y-128889412D01*
X110078589Y-129031410D01*
X110175209Y-129110702D01*
X110238550Y-129162685D01*
X110421046Y-129260232D01*
X110619066Y-129320300D01*
X110619065Y-129320300D01*
X110657647Y-129324100D01*
X110773392Y-129335500D01*
X110773395Y-129335500D01*
X110876605Y-129335500D01*
X110876608Y-129335500D01*
X111030934Y-129320300D01*
X111228954Y-129260232D01*
X111411450Y-129162685D01*
X111571410Y-129031410D01*
X111702685Y-128871450D01*
X111800232Y-128688954D01*
X111860300Y-128490934D01*
X111880583Y-128285000D01*
X111860300Y-128079066D01*
X111800232Y-127881046D01*
X111702685Y-127698550D01*
X111620549Y-127598466D01*
X111571410Y-127538589D01*
X111411452Y-127407317D01*
X111411453Y-127407317D01*
X111411450Y-127407315D01*
X111228954Y-127309768D01*
X111030934Y-127249700D01*
X111030932Y-127249699D01*
X111030934Y-127249699D01*
X110911805Y-127237966D01*
X110876608Y-127234500D01*
X110773392Y-127234500D01*
X110735298Y-127238251D01*
X110619067Y-127249699D01*
X110421043Y-127309769D01*
X110340745Y-127352690D01*
X110238550Y-127407315D01*
X110238548Y-127407316D01*
X110238547Y-127407317D01*
X110078589Y-127538589D01*
X109947317Y-127698547D01*
X109947315Y-127698550D01*
X109939654Y-127712883D01*
X109849769Y-127881043D01*
X109789699Y-128079067D01*
X109769417Y-128285000D01*
X108500000Y-128285000D01*
X108500000Y-126380005D01*
X112544529Y-126380005D01*
X112564379Y-126619559D01*
X112623389Y-126852589D01*
X112719951Y-127072729D01*
X112835760Y-127249986D01*
X112851429Y-127273969D01*
X113014236Y-127450825D01*
X113014239Y-127450827D01*
X113014242Y-127450830D01*
X113203924Y-127598466D01*
X113203930Y-127598470D01*
X113203933Y-127598472D01*
X113415344Y-127712882D01*
X113415347Y-127712883D01*
X113642699Y-127790933D01*
X113642701Y-127790933D01*
X113642703Y-127790934D01*
X113879808Y-127830500D01*
X113879809Y-127830500D01*
X114120191Y-127830500D01*
X114120192Y-127830500D01*
X114357297Y-127790934D01*
X114584656Y-127712882D01*
X114796067Y-127598472D01*
X114985764Y-127450825D01*
X115148571Y-127273969D01*
X115280049Y-127072728D01*
X115376610Y-126852591D01*
X115435620Y-126619563D01*
X115455471Y-126380000D01*
X115451048Y-126326628D01*
X115435620Y-126140440D01*
X115435620Y-126140437D01*
X115387395Y-125950000D01*
X120150001Y-125950000D01*
X120150001Y-127249986D01*
X120160494Y-127352697D01*
X120215641Y-127519119D01*
X120215643Y-127519124D01*
X120307684Y-127668345D01*
X120431654Y-127792315D01*
X120580875Y-127884356D01*
X120580880Y-127884358D01*
X120747302Y-127939505D01*
X120747309Y-127939506D01*
X120850019Y-127949999D01*
X121549999Y-127949999D01*
X121549999Y-127949998D01*
X121550000Y-125950000D01*
X122050000Y-125950000D01*
X122050000Y-127949999D01*
X122749972Y-127949999D01*
X122749986Y-127949998D01*
X122852697Y-127939505D01*
X123019119Y-127884358D01*
X123019124Y-127884356D01*
X123168345Y-127792315D01*
X123292315Y-127668345D01*
X123384356Y-127519124D01*
X123384358Y-127519119D01*
X123439505Y-127352697D01*
X123439506Y-127352690D01*
X123449999Y-127249986D01*
X123450000Y-127249973D01*
X123450000Y-126600000D01*
X130194353Y-126600000D01*
X130195615Y-126608779D01*
X130214834Y-126742456D01*
X130265131Y-126852589D01*
X130274623Y-126873373D01*
X130368872Y-126982143D01*
X130489947Y-127059953D01*
X130489950Y-127059954D01*
X130489949Y-127059954D01*
X130628036Y-127100499D01*
X130628038Y-127100500D01*
X130628039Y-127100500D01*
X130688812Y-127100500D01*
X130755851Y-127120185D01*
X130776493Y-127136819D01*
X131074350Y-127434676D01*
X131107835Y-127495999D01*
X131109407Y-127504708D01*
X131114834Y-127542454D01*
X131114835Y-127542458D01*
X131140416Y-127598472D01*
X131174623Y-127673373D01*
X131268872Y-127782143D01*
X131389947Y-127859953D01*
X131389950Y-127859954D01*
X131389949Y-127859954D01*
X131528036Y-127900499D01*
X131528038Y-127900500D01*
X131528039Y-127900500D01*
X131671962Y-127900500D01*
X131671962Y-127900499D01*
X131810053Y-127859953D01*
X131931128Y-127782143D01*
X132025377Y-127673373D01*
X132085165Y-127542457D01*
X132105647Y-127400000D01*
X132085165Y-127257543D01*
X132025377Y-127126627D01*
X131931128Y-127017857D01*
X131810053Y-126940047D01*
X131810051Y-126940046D01*
X131810049Y-126940045D01*
X131810050Y-126940045D01*
X131671963Y-126899500D01*
X131671961Y-126899500D01*
X131528039Y-126899500D01*
X131519171Y-126899500D01*
X131519171Y-126897708D01*
X131460670Y-126889293D01*
X131424510Y-126864184D01*
X131241966Y-126681639D01*
X131208481Y-126620316D01*
X131207235Y-126608732D01*
X131206909Y-126608779D01*
X131185165Y-126457543D01*
X131125377Y-126326628D01*
X131125376Y-126326626D01*
X131031128Y-126217857D01*
X130910053Y-126140047D01*
X130910051Y-126140046D01*
X130910049Y-126140045D01*
X130910050Y-126140045D01*
X130771963Y-126099500D01*
X130771961Y-126099500D01*
X130628039Y-126099500D01*
X130628036Y-126099500D01*
X130489949Y-126140045D01*
X130368873Y-126217856D01*
X130274623Y-126326626D01*
X130274622Y-126326628D01*
X130214834Y-126457543D01*
X130194353Y-126599999D01*
X130194353Y-126600000D01*
X123450000Y-126600000D01*
X123450000Y-125950000D01*
X122050000Y-125950000D01*
X121550000Y-125950000D01*
X120150001Y-125950000D01*
X115387395Y-125950000D01*
X115376610Y-125907409D01*
X115280049Y-125687272D01*
X115148571Y-125486031D01*
X114985764Y-125309175D01*
X114985759Y-125309171D01*
X114985757Y-125309169D01*
X114796075Y-125161533D01*
X114796069Y-125161529D01*
X114584657Y-125047118D01*
X114584652Y-125047116D01*
X114357300Y-124969066D01*
X114179468Y-124939391D01*
X114120192Y-124929500D01*
X113879808Y-124929500D01*
X113832386Y-124937413D01*
X113642699Y-124969066D01*
X113415347Y-125047116D01*
X113415342Y-125047118D01*
X113203930Y-125161529D01*
X113203924Y-125161533D01*
X113014242Y-125309169D01*
X113014239Y-125309172D01*
X112851430Y-125486029D01*
X112851427Y-125486033D01*
X112719951Y-125687270D01*
X112623389Y-125907410D01*
X112564379Y-126140440D01*
X112544529Y-126379994D01*
X112544529Y-126380005D01*
X108500000Y-126380005D01*
X108500000Y-124475000D01*
X116119417Y-124475000D01*
X116139699Y-124680932D01*
X116139700Y-124680934D01*
X116199768Y-124878954D01*
X116297315Y-125061450D01*
X116297317Y-125061452D01*
X116428589Y-125221410D01*
X116525209Y-125300702D01*
X116588550Y-125352685D01*
X116771046Y-125450232D01*
X116969066Y-125510300D01*
X116969065Y-125510300D01*
X117007647Y-125514100D01*
X117123392Y-125525500D01*
X117123395Y-125525500D01*
X117226605Y-125525500D01*
X117226608Y-125525500D01*
X117380934Y-125510300D01*
X117578954Y-125450232D01*
X117579388Y-125450000D01*
X120150000Y-125450000D01*
X121550000Y-125450000D01*
X121550000Y-123450000D01*
X122050000Y-123450000D01*
X122050000Y-125450000D01*
X123449999Y-125450000D01*
X123449999Y-124150028D01*
X123449998Y-124150013D01*
X123439505Y-124047302D01*
X123384358Y-123880880D01*
X123384356Y-123880875D01*
X123292315Y-123731654D01*
X123168345Y-123607684D01*
X123019124Y-123515643D01*
X123019119Y-123515641D01*
X122852697Y-123460494D01*
X122852690Y-123460493D01*
X122749986Y-123450000D01*
X122050000Y-123450000D01*
X121550000Y-123450000D01*
X120850028Y-123450000D01*
X120850012Y-123450001D01*
X120747302Y-123460494D01*
X120580880Y-123515641D01*
X120580875Y-123515643D01*
X120431654Y-123607684D01*
X120307684Y-123731654D01*
X120215643Y-123880875D01*
X120215641Y-123880880D01*
X120160494Y-124047302D01*
X120160493Y-124047309D01*
X120150000Y-124150013D01*
X120150000Y-125450000D01*
X117579388Y-125450000D01*
X117761450Y-125352685D01*
X117921410Y-125221410D01*
X118052685Y-125061450D01*
X118150232Y-124878954D01*
X118210300Y-124680934D01*
X118230583Y-124475000D01*
X118210300Y-124269066D01*
X118150232Y-124071046D01*
X118052685Y-123888550D01*
X117923925Y-123731654D01*
X117921410Y-123728589D01*
X117803677Y-123631969D01*
X117761450Y-123597315D01*
X117578954Y-123499768D01*
X117380934Y-123439700D01*
X117380932Y-123439699D01*
X117380934Y-123439699D01*
X117261805Y-123427966D01*
X117226608Y-123424500D01*
X117123392Y-123424500D01*
X117085298Y-123428251D01*
X116969067Y-123439699D01*
X116771043Y-123499769D01*
X116660898Y-123558643D01*
X116588550Y-123597315D01*
X116588548Y-123597316D01*
X116588547Y-123597317D01*
X116428589Y-123728589D01*
X116297317Y-123888547D01*
X116297315Y-123888550D01*
X116289654Y-123902883D01*
X116199769Y-124071043D01*
X116139699Y-124269067D01*
X116119417Y-124475000D01*
X108500000Y-124475000D01*
X108500000Y-122570005D01*
X112544529Y-122570005D01*
X112564379Y-122809559D01*
X112623389Y-123042589D01*
X112719951Y-123262729D01*
X112842303Y-123450001D01*
X112851429Y-123463969D01*
X113014236Y-123640825D01*
X113014239Y-123640827D01*
X113014242Y-123640830D01*
X113203924Y-123788466D01*
X113203930Y-123788470D01*
X113203933Y-123788472D01*
X113415344Y-123902882D01*
X113415347Y-123902883D01*
X113642699Y-123980933D01*
X113642701Y-123980933D01*
X113642703Y-123980934D01*
X113879808Y-124020500D01*
X113879809Y-124020500D01*
X114120191Y-124020500D01*
X114120192Y-124020500D01*
X114357297Y-123980934D01*
X114584656Y-123902882D01*
X114796067Y-123788472D01*
X114985764Y-123640825D01*
X115148571Y-123463969D01*
X115280049Y-123262728D01*
X115376610Y-123042591D01*
X115435620Y-122809563D01*
X115455471Y-122570000D01*
X115435620Y-122330437D01*
X115376610Y-122097409D01*
X115280049Y-121877272D01*
X115265020Y-121854269D01*
X115148572Y-121676033D01*
X115148571Y-121676031D01*
X114985764Y-121499175D01*
X114985759Y-121499171D01*
X114985757Y-121499169D01*
X114796075Y-121351533D01*
X114796069Y-121351529D01*
X114584657Y-121237118D01*
X114584652Y-121237116D01*
X114357300Y-121159066D01*
X114179468Y-121129391D01*
X114120192Y-121119500D01*
X113879808Y-121119500D01*
X113832387Y-121127413D01*
X113642699Y-121159066D01*
X113415347Y-121237116D01*
X113415342Y-121237118D01*
X113203930Y-121351529D01*
X113203924Y-121351533D01*
X113014242Y-121499169D01*
X113014239Y-121499172D01*
X112851430Y-121676029D01*
X112851427Y-121676033D01*
X112719951Y-121877270D01*
X112623389Y-122097410D01*
X112564379Y-122330440D01*
X112544529Y-122569994D01*
X112544529Y-122570005D01*
X108500000Y-122570005D01*
X108500000Y-118760005D01*
X112544529Y-118760005D01*
X112564379Y-118999559D01*
X112623389Y-119232589D01*
X112719951Y-119452729D01*
X112824306Y-119612454D01*
X112851429Y-119653969D01*
X113014236Y-119830825D01*
X113014239Y-119830827D01*
X113014242Y-119830830D01*
X113203924Y-119978466D01*
X113203930Y-119978470D01*
X113203933Y-119978472D01*
X113415344Y-120092882D01*
X113415347Y-120092883D01*
X113642699Y-120170933D01*
X113642701Y-120170933D01*
X113642703Y-120170934D01*
X113879808Y-120210500D01*
X113879809Y-120210500D01*
X114120191Y-120210500D01*
X114120192Y-120210500D01*
X114357297Y-120170934D01*
X114584656Y-120092882D01*
X114796067Y-119978472D01*
X114985764Y-119830825D01*
X115148571Y-119653969D01*
X115280049Y-119452728D01*
X115376610Y-119232591D01*
X115435620Y-118999563D01*
X115455471Y-118760000D01*
X115455471Y-118759999D01*
X118754355Y-118759999D01*
X118759048Y-118798646D01*
X118759500Y-118806126D01*
X118759500Y-118845058D01*
X118768816Y-118882855D01*
X118770166Y-118890223D01*
X118774859Y-118928869D01*
X118774861Y-118928876D01*
X118788665Y-118965276D01*
X118790894Y-118972429D01*
X118800209Y-119010221D01*
X118800210Y-119010226D01*
X118818299Y-119044693D01*
X118821374Y-119051524D01*
X118835182Y-119087931D01*
X118835183Y-119087933D01*
X118857300Y-119119974D01*
X118861177Y-119126387D01*
X118879263Y-119160848D01*
X118879265Y-119160851D01*
X118905075Y-119189986D01*
X118909695Y-119195882D01*
X118931814Y-119227925D01*
X118931821Y-119227933D01*
X118960955Y-119253743D01*
X118966255Y-119259042D01*
X118992073Y-119288185D01*
X119024111Y-119310299D01*
X119030005Y-119314916D01*
X119035788Y-119320039D01*
X119059145Y-119340732D01*
X119059151Y-119340736D01*
X119093614Y-119358823D01*
X119100018Y-119362694D01*
X119132070Y-119384818D01*
X119168484Y-119398627D01*
X119175283Y-119401687D01*
X119209775Y-119419790D01*
X119209777Y-119419790D01*
X119209778Y-119419791D01*
X119216914Y-119421549D01*
X119247590Y-119429110D01*
X119254712Y-119431329D01*
X119291128Y-119445140D01*
X119310572Y-119447500D01*
X119329773Y-119449832D01*
X119337140Y-119451181D01*
X119361369Y-119457153D01*
X119374943Y-119460500D01*
X119374944Y-119460500D01*
X119417628Y-119460500D01*
X119918481Y-119460500D01*
X119985520Y-119480185D01*
X120006162Y-119496819D01*
X120413180Y-119903837D01*
X120446665Y-119965160D01*
X120449499Y-119991518D01*
X120449499Y-121854269D01*
X120452353Y-121884699D01*
X120452353Y-121884701D01*
X120497206Y-122012880D01*
X120497207Y-122012882D01*
X120577850Y-122122150D01*
X120687118Y-122202793D01*
X120729845Y-122217744D01*
X120815299Y-122247646D01*
X120845730Y-122250500D01*
X120845734Y-122250500D01*
X122754270Y-122250500D01*
X122784699Y-122247646D01*
X122784701Y-122247646D01*
X122848790Y-122225219D01*
X122912882Y-122202793D01*
X123022150Y-122122150D01*
X123102793Y-122012882D01*
X123125219Y-121948790D01*
X123147646Y-121884701D01*
X123147646Y-121884699D01*
X123150500Y-121854269D01*
X123150500Y-118745730D01*
X123147646Y-118715300D01*
X123147646Y-118715298D01*
X123102793Y-118587119D01*
X123102792Y-118587117D01*
X123076299Y-118551220D01*
X123022150Y-118477850D01*
X122912882Y-118397207D01*
X122912880Y-118397206D01*
X122784700Y-118352353D01*
X122754270Y-118349500D01*
X122754266Y-118349500D01*
X120891519Y-118349500D01*
X120824480Y-118329815D01*
X120803838Y-118313181D01*
X120771598Y-118280941D01*
X120769064Y-118278250D01*
X120727929Y-118231817D01*
X120727928Y-118231816D01*
X120727924Y-118231812D01*
X120676896Y-118196591D01*
X120673887Y-118194377D01*
X120646506Y-118172926D01*
X120625060Y-118156124D01*
X120625055Y-118156120D01*
X120615813Y-118151961D01*
X120596266Y-118140936D01*
X120587931Y-118135183D01*
X120587932Y-118135183D01*
X120587930Y-118135182D01*
X120529941Y-118113189D01*
X120526490Y-118111759D01*
X120469930Y-118086304D01*
X120459946Y-118084474D01*
X120438343Y-118078451D01*
X120428874Y-118074860D01*
X120428870Y-118074859D01*
X120367313Y-118067384D01*
X120363612Y-118066821D01*
X120302608Y-118055642D01*
X120302603Y-118055642D01*
X120240697Y-118059387D01*
X120236952Y-118059500D01*
X119545056Y-118059500D01*
X119374944Y-118059500D01*
X119364363Y-118062107D01*
X119337143Y-118068816D01*
X119329776Y-118070166D01*
X119291126Y-118074860D01*
X119254725Y-118088664D01*
X119247576Y-118090891D01*
X119209775Y-118100210D01*
X119209770Y-118100212D01*
X119175296Y-118118303D01*
X119168467Y-118121377D01*
X119132071Y-118135180D01*
X119132069Y-118135181D01*
X119100027Y-118157299D01*
X119093617Y-118161174D01*
X119059149Y-118179265D01*
X119030005Y-118205082D01*
X119024110Y-118209700D01*
X118992072Y-118231815D01*
X118992071Y-118231816D01*
X118966253Y-118260957D01*
X118960957Y-118266253D01*
X118931816Y-118292071D01*
X118931815Y-118292072D01*
X118909700Y-118324110D01*
X118905082Y-118330005D01*
X118879265Y-118359149D01*
X118861174Y-118393617D01*
X118857299Y-118400027D01*
X118835181Y-118432069D01*
X118835180Y-118432071D01*
X118821377Y-118468467D01*
X118818303Y-118475296D01*
X118800212Y-118509770D01*
X118800210Y-118509775D01*
X118790891Y-118547576D01*
X118788664Y-118554725D01*
X118774860Y-118591126D01*
X118770166Y-118629776D01*
X118768816Y-118637143D01*
X118759500Y-118674945D01*
X118759500Y-118713872D01*
X118759048Y-118721352D01*
X118754355Y-118759999D01*
X115455471Y-118759999D01*
X115452268Y-118721352D01*
X115435620Y-118520440D01*
X115435620Y-118520437D01*
X115376610Y-118287409D01*
X115280049Y-118067272D01*
X115279754Y-118066821D01*
X115214309Y-117966651D01*
X115148571Y-117866031D01*
X114985764Y-117689175D01*
X114985759Y-117689171D01*
X114985757Y-117689169D01*
X114796075Y-117541533D01*
X114796069Y-117541529D01*
X114584657Y-117427118D01*
X114584652Y-117427116D01*
X114357300Y-117349066D01*
X114179468Y-117319391D01*
X114120192Y-117309500D01*
X113879808Y-117309500D01*
X113832386Y-117317413D01*
X113642699Y-117349066D01*
X113415347Y-117427116D01*
X113415342Y-117427118D01*
X113203930Y-117541529D01*
X113203924Y-117541533D01*
X113014242Y-117689169D01*
X113014239Y-117689172D01*
X113014236Y-117689174D01*
X113014236Y-117689175D01*
X112978294Y-117728217D01*
X112851430Y-117866029D01*
X112851427Y-117866033D01*
X112719951Y-118067270D01*
X112623389Y-118287410D01*
X112564379Y-118520440D01*
X112544529Y-118759994D01*
X112544529Y-118760005D01*
X108500000Y-118760005D01*
X108500000Y-116855000D01*
X116119417Y-116855000D01*
X116121632Y-116877497D01*
X116139699Y-117060932D01*
X116199769Y-117258956D01*
X116206502Y-117271554D01*
X116297315Y-117441450D01*
X116297317Y-117441452D01*
X116428589Y-117601410D01*
X116497009Y-117657560D01*
X116588550Y-117732685D01*
X116771046Y-117830232D01*
X116969066Y-117890300D01*
X116969065Y-117890300D01*
X117007647Y-117894100D01*
X117123392Y-117905500D01*
X117123395Y-117905500D01*
X117226605Y-117905500D01*
X117226608Y-117905500D01*
X117380934Y-117890300D01*
X117578954Y-117830232D01*
X117761450Y-117732685D01*
X117921410Y-117601410D01*
X118052685Y-117441450D01*
X118150232Y-117258954D01*
X118210300Y-117060934D01*
X118230583Y-116855000D01*
X118210300Y-116649066D01*
X118150232Y-116451046D01*
X118052685Y-116268550D01*
X117954791Y-116149265D01*
X117921410Y-116108589D01*
X117761452Y-115977317D01*
X117761453Y-115977317D01*
X117761450Y-115977315D01*
X117578954Y-115879768D01*
X117380934Y-115819700D01*
X117380932Y-115819699D01*
X117380934Y-115819699D01*
X117261805Y-115807966D01*
X117226608Y-115804500D01*
X117123392Y-115804500D01*
X117085298Y-115808251D01*
X116969067Y-115819699D01*
X116771043Y-115879769D01*
X116734130Y-115899500D01*
X116588550Y-115977315D01*
X116588548Y-115977316D01*
X116588547Y-115977317D01*
X116428589Y-116108589D01*
X116306348Y-116257543D01*
X116297315Y-116268550D01*
X116289654Y-116282883D01*
X116199769Y-116451043D01*
X116139699Y-116649067D01*
X116123934Y-116809139D01*
X116119417Y-116855000D01*
X108500000Y-116855000D01*
X108500000Y-114950005D01*
X112544529Y-114950005D01*
X112564379Y-115189559D01*
X112623389Y-115422589D01*
X112719951Y-115642729D01*
X112835573Y-115819700D01*
X112851429Y-115843969D01*
X113014236Y-116020825D01*
X113014239Y-116020827D01*
X113014242Y-116020830D01*
X113203924Y-116168466D01*
X113203930Y-116168470D01*
X113203933Y-116168472D01*
X113415344Y-116282882D01*
X113415347Y-116282883D01*
X113642699Y-116360933D01*
X113642701Y-116360933D01*
X113642703Y-116360934D01*
X113879808Y-116400500D01*
X113879809Y-116400500D01*
X114120191Y-116400500D01*
X114120192Y-116400500D01*
X114357297Y-116360934D01*
X114584656Y-116282882D01*
X114796067Y-116168472D01*
X114849830Y-116126627D01*
X114873005Y-116108589D01*
X114985764Y-116020825D01*
X115148571Y-115843969D01*
X115280049Y-115642728D01*
X115376610Y-115422591D01*
X115435620Y-115189563D01*
X115455471Y-114950000D01*
X115455471Y-114949999D01*
X117494355Y-114949999D01*
X117499048Y-114988646D01*
X117499500Y-114996126D01*
X117499500Y-115035058D01*
X117508816Y-115072855D01*
X117510166Y-115080223D01*
X117514859Y-115118869D01*
X117514861Y-115118876D01*
X117528665Y-115155276D01*
X117530894Y-115162429D01*
X117540209Y-115200221D01*
X117540210Y-115200226D01*
X117558299Y-115234693D01*
X117561374Y-115241524D01*
X117575182Y-115277931D01*
X117575183Y-115277933D01*
X117597300Y-115309974D01*
X117601177Y-115316387D01*
X117619263Y-115350848D01*
X117619265Y-115350851D01*
X117645075Y-115379986D01*
X117649695Y-115385882D01*
X117671814Y-115417925D01*
X117671821Y-115417933D01*
X117700955Y-115443743D01*
X117706255Y-115449042D01*
X117732073Y-115478185D01*
X117764111Y-115500299D01*
X117770005Y-115504916D01*
X117782685Y-115516150D01*
X117799145Y-115530732D01*
X117799151Y-115530736D01*
X117833614Y-115548823D01*
X117840018Y-115552694D01*
X117872070Y-115574818D01*
X117908484Y-115588627D01*
X117915283Y-115591687D01*
X117949775Y-115609790D01*
X117949777Y-115609790D01*
X117949778Y-115609791D01*
X117956914Y-115611549D01*
X117987590Y-115619110D01*
X117994712Y-115621329D01*
X118031128Y-115635140D01*
X118050572Y-115637500D01*
X118069773Y-115639832D01*
X118077140Y-115641181D01*
X118101369Y-115647153D01*
X118114943Y-115650500D01*
X118114944Y-115650500D01*
X118157628Y-115650500D01*
X119025500Y-115650500D01*
X119092539Y-115670185D01*
X119138294Y-115722989D01*
X119149500Y-115774500D01*
X119149500Y-115854269D01*
X119152353Y-115884699D01*
X119152353Y-115884701D01*
X119184762Y-115977317D01*
X119197207Y-116012882D01*
X119277850Y-116122150D01*
X119387118Y-116202793D01*
X119429845Y-116217743D01*
X119515299Y-116247646D01*
X119545730Y-116250500D01*
X119545734Y-116250500D01*
X122654270Y-116250500D01*
X122684699Y-116247646D01*
X122684701Y-116247646D01*
X122748790Y-116225219D01*
X122812882Y-116202793D01*
X122922150Y-116122150D01*
X123002793Y-116012882D01*
X123042467Y-115899500D01*
X123047646Y-115884701D01*
X123047646Y-115884699D01*
X123050500Y-115854269D01*
X123050500Y-115150000D01*
X124250001Y-115150000D01*
X124250001Y-115849986D01*
X124260494Y-115952697D01*
X124315641Y-116119119D01*
X124315643Y-116119124D01*
X124407684Y-116268345D01*
X124531654Y-116392315D01*
X124680875Y-116484356D01*
X124680880Y-116484358D01*
X124847302Y-116539505D01*
X124847309Y-116539506D01*
X124950019Y-116549999D01*
X126249999Y-116549999D01*
X126250000Y-116549998D01*
X126250000Y-115150000D01*
X126750000Y-115150000D01*
X126750000Y-116549999D01*
X128049972Y-116549999D01*
X128049986Y-116549998D01*
X128152697Y-116539505D01*
X128319119Y-116484358D01*
X128319124Y-116484356D01*
X128468345Y-116392315D01*
X128592315Y-116268345D01*
X128684356Y-116119124D01*
X128684358Y-116119119D01*
X128739505Y-115952697D01*
X128739506Y-115952690D01*
X128749999Y-115849986D01*
X128750000Y-115849973D01*
X128750000Y-115150000D01*
X126750000Y-115150000D01*
X126250000Y-115150000D01*
X124250001Y-115150000D01*
X123050500Y-115150000D01*
X123050500Y-114649999D01*
X124249999Y-114649999D01*
X124250000Y-114650000D01*
X126249999Y-114650000D01*
X126249999Y-113250000D01*
X126750000Y-113250000D01*
X126750000Y-114650000D01*
X128749999Y-114650000D01*
X128749999Y-113950028D01*
X128749998Y-113950013D01*
X128739505Y-113847302D01*
X128723831Y-113800000D01*
X136194353Y-113800000D01*
X136214834Y-113942456D01*
X136250353Y-114020230D01*
X136274623Y-114073373D01*
X136368872Y-114182143D01*
X136417540Y-114213419D01*
X136463294Y-114266221D01*
X136474500Y-114317734D01*
X136474500Y-116365112D01*
X136454815Y-116432151D01*
X136444213Y-116446314D01*
X136374625Y-116526622D01*
X136374622Y-116526628D01*
X136314834Y-116657543D01*
X136294353Y-116800000D01*
X136314834Y-116942456D01*
X136341114Y-116999999D01*
X136374623Y-117073373D01*
X136468872Y-117182143D01*
X136589947Y-117259953D01*
X136589950Y-117259954D01*
X136589949Y-117259954D01*
X136728036Y-117300499D01*
X136728038Y-117300500D01*
X136728039Y-117300500D01*
X136871962Y-117300500D01*
X136871962Y-117300499D01*
X137010053Y-117259953D01*
X137131128Y-117182143D01*
X137225377Y-117073373D01*
X137285165Y-116942457D01*
X137305647Y-116800000D01*
X137285165Y-116657543D01*
X137225377Y-116526627D01*
X137225375Y-116526625D01*
X137225374Y-116526622D01*
X137155787Y-116446314D01*
X137126762Y-116382758D01*
X137125500Y-116365112D01*
X137125500Y-114100077D01*
X137136706Y-114048565D01*
X137185165Y-113942457D01*
X137205647Y-113800000D01*
X137185165Y-113657543D01*
X137178068Y-113642002D01*
X138394353Y-113642002D01*
X138414834Y-113784458D01*
X138443538Y-113847309D01*
X138474623Y-113915375D01*
X138568872Y-114024145D01*
X138689947Y-114101955D01*
X138689950Y-114101956D01*
X138689949Y-114101956D01*
X138828036Y-114142501D01*
X138828038Y-114142502D01*
X138828039Y-114142502D01*
X138971962Y-114142502D01*
X138971962Y-114142501D01*
X139110053Y-114101955D01*
X139231128Y-114024145D01*
X139325377Y-113915375D01*
X139385165Y-113784459D01*
X139405647Y-113642002D01*
X139405646Y-113642001D01*
X139406909Y-113633223D01*
X139409873Y-113633649D01*
X139425332Y-113581003D01*
X139441966Y-113560361D01*
X140165509Y-112836819D01*
X140226832Y-112803334D01*
X140253190Y-112800500D01*
X140271962Y-112800500D01*
X140271962Y-112800499D01*
X140410053Y-112759953D01*
X140531128Y-112682143D01*
X140625377Y-112573373D01*
X140685165Y-112442457D01*
X140705647Y-112300000D01*
X140685165Y-112157543D01*
X140625377Y-112026627D01*
X140531128Y-111917857D01*
X140410053Y-111840047D01*
X140410051Y-111840046D01*
X140410049Y-111840045D01*
X140410050Y-111840045D01*
X140271963Y-111799500D01*
X140271961Y-111799500D01*
X140128039Y-111799500D01*
X140128036Y-111799500D01*
X139989949Y-111840045D01*
X139868873Y-111917856D01*
X139774623Y-112026626D01*
X139774622Y-112026628D01*
X139714834Y-112157543D01*
X139694353Y-112300000D01*
X139694353Y-112300002D01*
X139696496Y-112314910D01*
X139686551Y-112384068D01*
X139661439Y-112420235D01*
X138976493Y-113105183D01*
X138915170Y-113138668D01*
X138888812Y-113141502D01*
X138828036Y-113141502D01*
X138689949Y-113182047D01*
X138568873Y-113259858D01*
X138474623Y-113368628D01*
X138474622Y-113368630D01*
X138414834Y-113499545D01*
X138394353Y-113642002D01*
X137178068Y-113642002D01*
X137125377Y-113526627D01*
X137031128Y-113417857D01*
X136910053Y-113340047D01*
X136910051Y-113340046D01*
X136910049Y-113340045D01*
X136910050Y-113340045D01*
X136771963Y-113299500D01*
X136771961Y-113299500D01*
X136628039Y-113299500D01*
X136628036Y-113299500D01*
X136489949Y-113340045D01*
X136368873Y-113417856D01*
X136274623Y-113526626D01*
X136274622Y-113526628D01*
X136214834Y-113657543D01*
X136194353Y-113800000D01*
X128723831Y-113800000D01*
X128684358Y-113680880D01*
X128684356Y-113680875D01*
X128592315Y-113531654D01*
X128468345Y-113407684D01*
X128319124Y-113315643D01*
X128319119Y-113315641D01*
X128152697Y-113260494D01*
X128152690Y-113260493D01*
X128049986Y-113250000D01*
X126750000Y-113250000D01*
X126249999Y-113250000D01*
X124950028Y-113250000D01*
X124950012Y-113250001D01*
X124847302Y-113260494D01*
X124680880Y-113315641D01*
X124680875Y-113315643D01*
X124531654Y-113407684D01*
X124407684Y-113531654D01*
X124315643Y-113680875D01*
X124315641Y-113680880D01*
X124260494Y-113847302D01*
X124260493Y-113847309D01*
X124250000Y-113950013D01*
X124250000Y-113950026D01*
X124249999Y-114649999D01*
X123050500Y-114649999D01*
X123050500Y-113945730D01*
X123047646Y-113915300D01*
X123047646Y-113915298D01*
X123014006Y-113819163D01*
X123002793Y-113787118D01*
X122922150Y-113677850D01*
X122812882Y-113597207D01*
X122812880Y-113597206D01*
X122684700Y-113552353D01*
X122654270Y-113549500D01*
X122654266Y-113549500D01*
X119545734Y-113549500D01*
X119545730Y-113549500D01*
X119515300Y-113552353D01*
X119515298Y-113552353D01*
X119387119Y-113597206D01*
X119387117Y-113597207D01*
X119277850Y-113677850D01*
X119197207Y-113787117D01*
X119197206Y-113787119D01*
X119152353Y-113915298D01*
X119152353Y-113915300D01*
X119149500Y-113945730D01*
X119149500Y-114125500D01*
X119129815Y-114192539D01*
X119077011Y-114238294D01*
X119025500Y-114249500D01*
X118285056Y-114249500D01*
X118114944Y-114249500D01*
X118104363Y-114252107D01*
X118077143Y-114258816D01*
X118069776Y-114260166D01*
X118031126Y-114264860D01*
X117994725Y-114278664D01*
X117987576Y-114280891D01*
X117949775Y-114290210D01*
X117949770Y-114290212D01*
X117915296Y-114308303D01*
X117908467Y-114311377D01*
X117872071Y-114325180D01*
X117872069Y-114325181D01*
X117840027Y-114347299D01*
X117833617Y-114351174D01*
X117799149Y-114369265D01*
X117770005Y-114395082D01*
X117764110Y-114399700D01*
X117732072Y-114421815D01*
X117732071Y-114421816D01*
X117706253Y-114450957D01*
X117700957Y-114456253D01*
X117671816Y-114482071D01*
X117671815Y-114482072D01*
X117649700Y-114514110D01*
X117645082Y-114520005D01*
X117619265Y-114549149D01*
X117601174Y-114583617D01*
X117597299Y-114590027D01*
X117575181Y-114622069D01*
X117575180Y-114622071D01*
X117561377Y-114658467D01*
X117558303Y-114665296D01*
X117540212Y-114699770D01*
X117540210Y-114699775D01*
X117530891Y-114737576D01*
X117528664Y-114744725D01*
X117514860Y-114781126D01*
X117510166Y-114819776D01*
X117508816Y-114827143D01*
X117499500Y-114864945D01*
X117499500Y-114903872D01*
X117499048Y-114911352D01*
X117494355Y-114949999D01*
X115455471Y-114949999D01*
X115452268Y-114911352D01*
X115435620Y-114710440D01*
X115435620Y-114710437D01*
X115376610Y-114477409D01*
X115280049Y-114257272D01*
X115275314Y-114250025D01*
X115177348Y-114100077D01*
X115148571Y-114056031D01*
X114985764Y-113879175D01*
X114985759Y-113879171D01*
X114985757Y-113879169D01*
X114796075Y-113731533D01*
X114796069Y-113731529D01*
X114584657Y-113617118D01*
X114584652Y-113617116D01*
X114357300Y-113539066D01*
X114179468Y-113509391D01*
X114120192Y-113499500D01*
X113879808Y-113499500D01*
X113832387Y-113507413D01*
X113642699Y-113539066D01*
X113415347Y-113617116D01*
X113415342Y-113617118D01*
X113203930Y-113731529D01*
X113203924Y-113731533D01*
X113014242Y-113879169D01*
X113014239Y-113879172D01*
X112851430Y-114056029D01*
X112851427Y-114056033D01*
X112719951Y-114257270D01*
X112623389Y-114477410D01*
X112564379Y-114710440D01*
X112544529Y-114949994D01*
X112544529Y-114950005D01*
X108500000Y-114950005D01*
X108500000Y-113044999D01*
X109769417Y-113044999D01*
X109789699Y-113250932D01*
X109792600Y-113260494D01*
X109849768Y-113448954D01*
X109947315Y-113631450D01*
X109947317Y-113631452D01*
X110078589Y-113791410D01*
X110175209Y-113870702D01*
X110238550Y-113922685D01*
X110421046Y-114020232D01*
X110619066Y-114080300D01*
X110619065Y-114080300D01*
X110657647Y-114084100D01*
X110773392Y-114095500D01*
X110773395Y-114095500D01*
X110876605Y-114095500D01*
X110876608Y-114095500D01*
X111030934Y-114080300D01*
X111228954Y-114020232D01*
X111411450Y-113922685D01*
X111571410Y-113791410D01*
X111702685Y-113631450D01*
X111800232Y-113448954D01*
X111860300Y-113250934D01*
X111880583Y-113045000D01*
X111860300Y-112839066D01*
X111800232Y-112641046D01*
X111702685Y-112458550D01*
X111620549Y-112358466D01*
X111571410Y-112298589D01*
X111411452Y-112167317D01*
X111411453Y-112167317D01*
X111411450Y-112167315D01*
X111228954Y-112069768D01*
X111030934Y-112009700D01*
X111030932Y-112009699D01*
X111030934Y-112009699D01*
X110911805Y-111997966D01*
X110876608Y-111994500D01*
X110773392Y-111994500D01*
X110735298Y-111998251D01*
X110619067Y-112009699D01*
X110421043Y-112069769D01*
X110310898Y-112128643D01*
X110238550Y-112167315D01*
X110238548Y-112167316D01*
X110238547Y-112167317D01*
X110078589Y-112298589D01*
X109960522Y-112442457D01*
X109947315Y-112458550D01*
X109939654Y-112472883D01*
X109849769Y-112641043D01*
X109789699Y-112839067D01*
X109769417Y-113044999D01*
X108500000Y-113044999D01*
X108500000Y-111140005D01*
X112544529Y-111140005D01*
X112564379Y-111379559D01*
X112623389Y-111612589D01*
X112719951Y-111832729D01*
X112846632Y-112026627D01*
X112851429Y-112033969D01*
X113014236Y-112210825D01*
X113014239Y-112210827D01*
X113014242Y-112210830D01*
X113203924Y-112358466D01*
X113203930Y-112358470D01*
X113203933Y-112358472D01*
X113415344Y-112472882D01*
X113415347Y-112472883D01*
X113642699Y-112550933D01*
X113642701Y-112550933D01*
X113642703Y-112550934D01*
X113879808Y-112590500D01*
X113879809Y-112590500D01*
X114120191Y-112590500D01*
X114120192Y-112590500D01*
X114357297Y-112550934D01*
X114584656Y-112472882D01*
X114796067Y-112358472D01*
X114852036Y-112314910D01*
X114873005Y-112298589D01*
X114985764Y-112210825D01*
X115148571Y-112033969D01*
X115280049Y-111832728D01*
X115376610Y-111612591D01*
X115435620Y-111379563D01*
X115455471Y-111140000D01*
X115455471Y-111139999D01*
X118154355Y-111139999D01*
X118174859Y-111308869D01*
X118174860Y-111308874D01*
X118235182Y-111467931D01*
X118297475Y-111558177D01*
X118331817Y-111607929D01*
X118437505Y-111701560D01*
X118459150Y-111720736D01*
X118609222Y-111799500D01*
X118609775Y-111799790D01*
X118774944Y-111840500D01*
X118945056Y-111840500D01*
X119110225Y-111799790D01*
X119189692Y-111758081D01*
X119260849Y-111720736D01*
X119260850Y-111720734D01*
X119260852Y-111720734D01*
X119388183Y-111607929D01*
X119484818Y-111467930D01*
X119545140Y-111308872D01*
X119565645Y-111140000D01*
X119560951Y-111101345D01*
X119560500Y-111093888D01*
X119560500Y-110681519D01*
X119580185Y-110614479D01*
X119596819Y-110593838D01*
X120703838Y-109486819D01*
X120765161Y-109453334D01*
X120791519Y-109450500D01*
X122654270Y-109450500D01*
X122684699Y-109447646D01*
X122684701Y-109447646D01*
X122748790Y-109425219D01*
X122812882Y-109402793D01*
X122922150Y-109322150D01*
X123002793Y-109212882D01*
X123043636Y-109096160D01*
X123047646Y-109084701D01*
X123047646Y-109084699D01*
X123050500Y-109054269D01*
X123050500Y-108350000D01*
X124250001Y-108350000D01*
X124250001Y-109049986D01*
X124260494Y-109152697D01*
X124315641Y-109319119D01*
X124315643Y-109319124D01*
X124407684Y-109468345D01*
X124531654Y-109592315D01*
X124680875Y-109684356D01*
X124680880Y-109684358D01*
X124847302Y-109739505D01*
X124847309Y-109739506D01*
X124950019Y-109749999D01*
X126249999Y-109749999D01*
X126250000Y-109749998D01*
X126250000Y-108350000D01*
X126750000Y-108350000D01*
X126750000Y-109749999D01*
X128049972Y-109749999D01*
X128049986Y-109749998D01*
X128152697Y-109739505D01*
X128319119Y-109684358D01*
X128319124Y-109684356D01*
X128468345Y-109592315D01*
X128592315Y-109468345D01*
X128684356Y-109319124D01*
X128684358Y-109319119D01*
X128739505Y-109152697D01*
X128739506Y-109152690D01*
X128749999Y-109049986D01*
X128750000Y-109049973D01*
X128750000Y-108350000D01*
X126750000Y-108350000D01*
X126250000Y-108350000D01*
X124250001Y-108350000D01*
X123050500Y-108350000D01*
X123050500Y-107849999D01*
X124249999Y-107849999D01*
X124250000Y-107850000D01*
X126249999Y-107850000D01*
X126249999Y-106450000D01*
X126750000Y-106450000D01*
X126750000Y-107850000D01*
X128749999Y-107850000D01*
X128749999Y-107150028D01*
X128749998Y-107150013D01*
X128739505Y-107047302D01*
X128684358Y-106880880D01*
X128684356Y-106880875D01*
X128592315Y-106731654D01*
X128468345Y-106607684D01*
X128319124Y-106515643D01*
X128319119Y-106515641D01*
X128152697Y-106460494D01*
X128152690Y-106460493D01*
X128049986Y-106450000D01*
X126750000Y-106450000D01*
X126249999Y-106450000D01*
X124950028Y-106450000D01*
X124950012Y-106450001D01*
X124847302Y-106460494D01*
X124680880Y-106515641D01*
X124680875Y-106515643D01*
X124531654Y-106607684D01*
X124407684Y-106731654D01*
X124315643Y-106880875D01*
X124315641Y-106880880D01*
X124260494Y-107047302D01*
X124260493Y-107047309D01*
X124250000Y-107150013D01*
X124250000Y-107150026D01*
X124249999Y-107849999D01*
X123050500Y-107849999D01*
X123050500Y-107145730D01*
X123047646Y-107115300D01*
X123047646Y-107115298D01*
X123002793Y-106987119D01*
X123002792Y-106987117D01*
X122922150Y-106877850D01*
X122812882Y-106797207D01*
X122812880Y-106797206D01*
X122684700Y-106752353D01*
X122654270Y-106749500D01*
X122654266Y-106749500D01*
X119545734Y-106749500D01*
X119545730Y-106749500D01*
X119515300Y-106752353D01*
X119515298Y-106752353D01*
X119387119Y-106797206D01*
X119387117Y-106797207D01*
X119277850Y-106877850D01*
X119197207Y-106987117D01*
X119197206Y-106987119D01*
X119152353Y-107115298D01*
X119152353Y-107115300D01*
X119149500Y-107145730D01*
X119149500Y-109008479D01*
X119129815Y-109075518D01*
X119113181Y-109096160D01*
X118380966Y-109828375D01*
X118378240Y-109830942D01*
X118331818Y-109872068D01*
X118296586Y-109923109D01*
X118294368Y-109926124D01*
X118256124Y-109974939D01*
X118256119Y-109974948D01*
X118251960Y-109984188D01*
X118240942Y-110003723D01*
X118235187Y-110012061D01*
X118235183Y-110012067D01*
X118235182Y-110012070D01*
X118235180Y-110012074D01*
X118235179Y-110012077D01*
X118213189Y-110070055D01*
X118211757Y-110073513D01*
X118186305Y-110130068D01*
X118184477Y-110140042D01*
X118178453Y-110161653D01*
X118174860Y-110171127D01*
X118174859Y-110171128D01*
X118167384Y-110232685D01*
X118166821Y-110236386D01*
X118155642Y-110297390D01*
X118155642Y-110297395D01*
X118159387Y-110359302D01*
X118159500Y-110363047D01*
X118159500Y-111093872D01*
X118159048Y-111101347D01*
X118155721Y-111128748D01*
X118154355Y-111139999D01*
X115455471Y-111139999D01*
X115452268Y-111101352D01*
X115435620Y-110900440D01*
X115435620Y-110900437D01*
X115376610Y-110667409D01*
X115280049Y-110447272D01*
X115148571Y-110246031D01*
X114985764Y-110069175D01*
X114985759Y-110069171D01*
X114985757Y-110069169D01*
X114796075Y-109921533D01*
X114796069Y-109921529D01*
X114584657Y-109807118D01*
X114584652Y-109807116D01*
X114357300Y-109729066D01*
X114179468Y-109699391D01*
X114120192Y-109689500D01*
X113879808Y-109689500D01*
X113832386Y-109697413D01*
X113642699Y-109729066D01*
X113415347Y-109807116D01*
X113415342Y-109807118D01*
X113203930Y-109921529D01*
X113203924Y-109921533D01*
X113014242Y-110069169D01*
X113014239Y-110069172D01*
X113014236Y-110069174D01*
X113014236Y-110069175D01*
X113010243Y-110073513D01*
X112851430Y-110246029D01*
X112851427Y-110246033D01*
X112719951Y-110447270D01*
X112623389Y-110667410D01*
X112564379Y-110900440D01*
X112544529Y-111139994D01*
X112544529Y-111140005D01*
X108500000Y-111140005D01*
X108500000Y-109235000D01*
X116119417Y-109235000D01*
X116139699Y-109440932D01*
X116143461Y-109453334D01*
X116199768Y-109638954D01*
X116297315Y-109821450D01*
X116297317Y-109821452D01*
X116428589Y-109981410D01*
X116525209Y-110060702D01*
X116588550Y-110112685D01*
X116771046Y-110210232D01*
X116969066Y-110270300D01*
X116969065Y-110270300D01*
X117007647Y-110274100D01*
X117123392Y-110285500D01*
X117123395Y-110285500D01*
X117226605Y-110285500D01*
X117226608Y-110285500D01*
X117380934Y-110270300D01*
X117578954Y-110210232D01*
X117761450Y-110112685D01*
X117921410Y-109981410D01*
X118052685Y-109821450D01*
X118150232Y-109638954D01*
X118210300Y-109440934D01*
X118230583Y-109235000D01*
X118210300Y-109029066D01*
X118150232Y-108831046D01*
X118052685Y-108648550D01*
X118000702Y-108585209D01*
X117921410Y-108488589D01*
X117791703Y-108382143D01*
X117761450Y-108357315D01*
X117578954Y-108259768D01*
X117380934Y-108199700D01*
X117380932Y-108199699D01*
X117380934Y-108199699D01*
X117261805Y-108187966D01*
X117226608Y-108184500D01*
X117123392Y-108184500D01*
X117085298Y-108188251D01*
X116969067Y-108199699D01*
X116771043Y-108259769D01*
X116661036Y-108318570D01*
X116588550Y-108357315D01*
X116588548Y-108357316D01*
X116588547Y-108357317D01*
X116428589Y-108488589D01*
X116297317Y-108648547D01*
X116199769Y-108831043D01*
X116139699Y-109029067D01*
X116119417Y-109235000D01*
X108500000Y-109235000D01*
X108500000Y-107330004D01*
X112245093Y-107330004D01*
X112264692Y-107591545D01*
X112264693Y-107591550D01*
X112323058Y-107847270D01*
X112418883Y-108091426D01*
X112418882Y-108091426D01*
X112550030Y-108318577D01*
X112597873Y-108378571D01*
X112597874Y-108378571D01*
X113359859Y-107616586D01*
X113419680Y-107730566D01*
X113532405Y-107857806D01*
X113672305Y-107954371D01*
X113713542Y-107970010D01*
X112950831Y-108732720D01*
X113122546Y-108849793D01*
X113122550Y-108849795D01*
X113358854Y-108963594D01*
X113358858Y-108963595D01*
X113609494Y-109040907D01*
X113609500Y-109040909D01*
X113868848Y-109079999D01*
X113868857Y-109080000D01*
X114131143Y-109080000D01*
X114131151Y-109079999D01*
X114390499Y-109040909D01*
X114390505Y-109040907D01*
X114641143Y-108963595D01*
X114877445Y-108849798D01*
X114877456Y-108849791D01*
X115049167Y-108732720D01*
X114286457Y-107970010D01*
X114327695Y-107954371D01*
X114467595Y-107857806D01*
X114580320Y-107730566D01*
X114640139Y-107616587D01*
X115402124Y-108378571D01*
X115449974Y-108318570D01*
X115581116Y-108091426D01*
X115676941Y-107847270D01*
X115735306Y-107591550D01*
X115735307Y-107591545D01*
X115754907Y-107330004D01*
X115754907Y-107329995D01*
X115735307Y-107068454D01*
X115735306Y-107068449D01*
X115676941Y-106812729D01*
X115581116Y-106568573D01*
X115581117Y-106568573D01*
X115449971Y-106341426D01*
X115402125Y-106281427D01*
X114640139Y-107043412D01*
X114580320Y-106929434D01*
X114467595Y-106802194D01*
X114327695Y-106705629D01*
X114286457Y-106689989D01*
X115049167Y-105927278D01*
X114877447Y-105810202D01*
X114877445Y-105810201D01*
X114641142Y-105696404D01*
X114641144Y-105696404D01*
X114390505Y-105619092D01*
X114390499Y-105619090D01*
X114131151Y-105580000D01*
X113868848Y-105580000D01*
X113609500Y-105619090D01*
X113609494Y-105619092D01*
X113358858Y-105696404D01*
X113358854Y-105696405D01*
X113122550Y-105810204D01*
X113122546Y-105810206D01*
X112950832Y-105927278D01*
X113713543Y-106689989D01*
X113672305Y-106705629D01*
X113532405Y-106802194D01*
X113419680Y-106929434D01*
X113359859Y-107043413D01*
X112597873Y-106281427D01*
X112550029Y-106341423D01*
X112418883Y-106568573D01*
X112323058Y-106812729D01*
X112264693Y-107068449D01*
X112264692Y-107068454D01*
X112245093Y-107329995D01*
X112245093Y-107330004D01*
X108500000Y-107330004D01*
X108500000Y-103950000D01*
X119600001Y-103950000D01*
X119600001Y-105249986D01*
X119610494Y-105352697D01*
X119665641Y-105519119D01*
X119665643Y-105519124D01*
X119757684Y-105668345D01*
X119881654Y-105792315D01*
X120030875Y-105884356D01*
X120030880Y-105884358D01*
X120197302Y-105939505D01*
X120197309Y-105939506D01*
X120300019Y-105949999D01*
X120999999Y-105949999D01*
X121000000Y-105949998D01*
X121000000Y-103950000D01*
X121500000Y-103950000D01*
X121500000Y-105949999D01*
X122199972Y-105949999D01*
X122199986Y-105949998D01*
X122302697Y-105939505D01*
X122469119Y-105884358D01*
X122469124Y-105884356D01*
X122618345Y-105792315D01*
X122742315Y-105668345D01*
X122834356Y-105519124D01*
X122834358Y-105519119D01*
X122840694Y-105499999D01*
X128494353Y-105499999D01*
X128514834Y-105642456D01*
X128574622Y-105773371D01*
X128574623Y-105773373D01*
X128668872Y-105882143D01*
X128789947Y-105959953D01*
X128789950Y-105959954D01*
X128789949Y-105959954D01*
X128928036Y-106000499D01*
X128928038Y-106000500D01*
X128928039Y-106000500D01*
X129071962Y-106000500D01*
X129071962Y-106000499D01*
X129210053Y-105959953D01*
X129331128Y-105882143D01*
X129425377Y-105773373D01*
X129485165Y-105642457D01*
X129505647Y-105500000D01*
X129485165Y-105357543D01*
X129425377Y-105226627D01*
X129425375Y-105226625D01*
X129425374Y-105226622D01*
X129355787Y-105146314D01*
X129326762Y-105082758D01*
X129325500Y-105065112D01*
X129325500Y-103684887D01*
X129345185Y-103617848D01*
X129355782Y-103603689D01*
X129425377Y-103523373D01*
X129485165Y-103392457D01*
X129505647Y-103250000D01*
X129485165Y-103107543D01*
X129425377Y-102976627D01*
X129331128Y-102867857D01*
X129210053Y-102790047D01*
X129210051Y-102790046D01*
X129210049Y-102790045D01*
X129210050Y-102790045D01*
X129071963Y-102749500D01*
X129071961Y-102749500D01*
X128928039Y-102749500D01*
X128928036Y-102749500D01*
X128789949Y-102790045D01*
X128668873Y-102867856D01*
X128574623Y-102976626D01*
X128574622Y-102976628D01*
X128514834Y-103107543D01*
X128494353Y-103250000D01*
X128514834Y-103392456D01*
X128541114Y-103450000D01*
X128574623Y-103523373D01*
X128644213Y-103603685D01*
X128673238Y-103667240D01*
X128674500Y-103684887D01*
X128674500Y-105065112D01*
X128654815Y-105132151D01*
X128644213Y-105146314D01*
X128574625Y-105226622D01*
X128574622Y-105226628D01*
X128514834Y-105357543D01*
X128494353Y-105499999D01*
X122840694Y-105499999D01*
X122889505Y-105352697D01*
X122889506Y-105352690D01*
X122899999Y-105249986D01*
X122900000Y-105249973D01*
X122900000Y-103950000D01*
X121500000Y-103950000D01*
X121000000Y-103950000D01*
X119600001Y-103950000D01*
X108500000Y-103950000D01*
X108500000Y-103450000D01*
X119600000Y-103450000D01*
X121000000Y-103450000D01*
X121499999Y-103450000D01*
X122899999Y-103450000D01*
X122899999Y-102150028D01*
X122899998Y-102150013D01*
X122889505Y-102047302D01*
X122834358Y-101880880D01*
X122834356Y-101880875D01*
X122742315Y-101731654D01*
X122618345Y-101607684D01*
X122469124Y-101515643D01*
X122469119Y-101515641D01*
X122302697Y-101460494D01*
X122302690Y-101460493D01*
X122199986Y-101450000D01*
X121500000Y-101450000D01*
X121499999Y-103450000D01*
X121000000Y-103450000D01*
X121000000Y-101450000D01*
X120300028Y-101450000D01*
X120300012Y-101450001D01*
X120197302Y-101460494D01*
X120030880Y-101515641D01*
X120030875Y-101515643D01*
X119881654Y-101607684D01*
X119757684Y-101731654D01*
X119665643Y-101880875D01*
X119665641Y-101880880D01*
X119610494Y-102047302D01*
X119610493Y-102047309D01*
X119600000Y-102150013D01*
X119600000Y-103450000D01*
X108500000Y-103450000D01*
X108500000Y-101500001D01*
X113544355Y-101500001D01*
X113551829Y-101561560D01*
X113552168Y-101565289D01*
X113555435Y-101619288D01*
X113555914Y-101627196D01*
X113558929Y-101636872D01*
X113563638Y-101658809D01*
X113564860Y-101668874D01*
X113586853Y-101726869D01*
X113588074Y-101730407D01*
X113606522Y-101789606D01*
X113611762Y-101798274D01*
X113621585Y-101818448D01*
X113625180Y-101827928D01*
X113642170Y-101852542D01*
X113660421Y-101878984D01*
X113662434Y-101882097D01*
X113694528Y-101935185D01*
X113701695Y-101942352D01*
X113716059Y-101959587D01*
X113721817Y-101967929D01*
X113768250Y-102009064D01*
X113770941Y-102011598D01*
X113814815Y-102055472D01*
X113823489Y-102060715D01*
X113841566Y-102074017D01*
X113849146Y-102080733D01*
X113849148Y-102080734D01*
X113904060Y-102109554D01*
X113907307Y-102111386D01*
X113960394Y-102143478D01*
X113970068Y-102146492D01*
X113990808Y-102155083D01*
X113999775Y-102159790D01*
X113999780Y-102159791D01*
X113999782Y-102159792D01*
X114017132Y-102164068D01*
X114060013Y-102174636D01*
X114063591Y-102175634D01*
X114122804Y-102194086D01*
X114132916Y-102194697D01*
X114155105Y-102198075D01*
X114164942Y-102200499D01*
X114164943Y-102200500D01*
X114164944Y-102200500D01*
X114226952Y-102200500D01*
X114230697Y-102200613D01*
X114238516Y-102201085D01*
X114292606Y-102204358D01*
X114302575Y-102202531D01*
X114324927Y-102200500D01*
X114335058Y-102200500D01*
X114335058Y-102200499D01*
X114395284Y-102185654D01*
X114398884Y-102184881D01*
X114459932Y-102173695D01*
X114469177Y-102169533D01*
X114490388Y-102162214D01*
X114500225Y-102159790D01*
X114555173Y-102130949D01*
X114558447Y-102129355D01*
X114615057Y-102103878D01*
X114623033Y-102097627D01*
X114641888Y-102085437D01*
X114650852Y-102080734D01*
X114697280Y-102039601D01*
X114700129Y-102037226D01*
X114715367Y-102025290D01*
X114729070Y-102011585D01*
X114731731Y-102009080D01*
X114778183Y-101967929D01*
X114783943Y-101959582D01*
X114798302Y-101942353D01*
X116753836Y-99986819D01*
X116815160Y-99953334D01*
X116827683Y-99951987D01*
X116827613Y-99951404D01*
X116835055Y-99950500D01*
X116835056Y-99950500D01*
X116872875Y-99941177D01*
X116880206Y-99939834D01*
X116918872Y-99935140D01*
X116955277Y-99921333D01*
X116962427Y-99919106D01*
X116973744Y-99916316D01*
X117000225Y-99909790D01*
X117034707Y-99891691D01*
X117041507Y-99888630D01*
X117077930Y-99874818D01*
X117107698Y-99854269D01*
X119899500Y-99854269D01*
X119902353Y-99884699D01*
X119902353Y-99884701D01*
X119938087Y-99986819D01*
X119947207Y-100012882D01*
X120027850Y-100122150D01*
X120137118Y-100202793D01*
X120179845Y-100217744D01*
X120265299Y-100247646D01*
X120295730Y-100250500D01*
X120295734Y-100250500D01*
X122204270Y-100250500D01*
X122234699Y-100247646D01*
X122234701Y-100247646D01*
X122298790Y-100225219D01*
X122362882Y-100202793D01*
X122472150Y-100122150D01*
X122552793Y-100012882D01*
X122585607Y-99919106D01*
X122597646Y-99884701D01*
X122597646Y-99884699D01*
X122600500Y-99854269D01*
X122600500Y-98024500D01*
X122620185Y-97957461D01*
X122672989Y-97911706D01*
X122724500Y-97900500D01*
X123935058Y-97900500D01*
X123944590Y-97898149D01*
X123972875Y-97891177D01*
X123980206Y-97889834D01*
X124018872Y-97885140D01*
X124055277Y-97871333D01*
X124062427Y-97869106D01*
X124073744Y-97866316D01*
X124100225Y-97859790D01*
X124134707Y-97841691D01*
X124141507Y-97838630D01*
X124177930Y-97824818D01*
X124209981Y-97802693D01*
X124216379Y-97798825D01*
X124250852Y-97780734D01*
X124280002Y-97754908D01*
X124285871Y-97750310D01*
X124317929Y-97728183D01*
X124343748Y-97699037D01*
X124349037Y-97693748D01*
X124378183Y-97667929D01*
X124400310Y-97635871D01*
X124404908Y-97630002D01*
X124430734Y-97600852D01*
X124448825Y-97566379D01*
X124452693Y-97559981D01*
X124474818Y-97527930D01*
X124488630Y-97491507D01*
X124491691Y-97484707D01*
X124509790Y-97450225D01*
X124519106Y-97412427D01*
X124521335Y-97405271D01*
X124535140Y-97368872D01*
X124539834Y-97330206D01*
X124541177Y-97322875D01*
X124550500Y-97285056D01*
X124550500Y-97246110D01*
X124550951Y-97238655D01*
X124555645Y-97200000D01*
X124550951Y-97161347D01*
X124550500Y-97153872D01*
X124550500Y-97153871D01*
X124550500Y-97114944D01*
X124541181Y-97077140D01*
X124539832Y-97069773D01*
X124535140Y-97031130D01*
X124535140Y-97031128D01*
X124521329Y-96994712D01*
X124519110Y-96987590D01*
X124509790Y-96949775D01*
X124491687Y-96915283D01*
X124488627Y-96908484D01*
X124474818Y-96872070D01*
X124452694Y-96840018D01*
X124448823Y-96833614D01*
X124430736Y-96799151D01*
X124430732Y-96799145D01*
X124416150Y-96782685D01*
X124404916Y-96770005D01*
X124400299Y-96764111D01*
X124378185Y-96732073D01*
X124359250Y-96715298D01*
X124349037Y-96706250D01*
X124343743Y-96700955D01*
X124317933Y-96671821D01*
X124317930Y-96671819D01*
X124317929Y-96671817D01*
X124317925Y-96671814D01*
X124285882Y-96649695D01*
X124279986Y-96645075D01*
X124250851Y-96619265D01*
X124250848Y-96619263D01*
X124216387Y-96601177D01*
X124209974Y-96597300D01*
X124177933Y-96575183D01*
X124177931Y-96575182D01*
X124141524Y-96561374D01*
X124134693Y-96558299D01*
X124100226Y-96540210D01*
X124100221Y-96540209D01*
X124098601Y-96539809D01*
X124062424Y-96530892D01*
X124055276Y-96528665D01*
X124018876Y-96514861D01*
X124018869Y-96514859D01*
X123980223Y-96510166D01*
X123972855Y-96508816D01*
X123935058Y-96499500D01*
X123935056Y-96499500D01*
X123892372Y-96499500D01*
X122542288Y-96499500D01*
X122475249Y-96479815D01*
X122468655Y-96475270D01*
X122362886Y-96397209D01*
X122362880Y-96397206D01*
X122234700Y-96352353D01*
X122204270Y-96349500D01*
X122204266Y-96349500D01*
X120295734Y-96349500D01*
X120295730Y-96349500D01*
X120265300Y-96352353D01*
X120265298Y-96352353D01*
X120137119Y-96397206D01*
X120137117Y-96397207D01*
X120027850Y-96477850D01*
X119947207Y-96587117D01*
X119947206Y-96587119D01*
X119902353Y-96715298D01*
X119902353Y-96715300D01*
X119899500Y-96745730D01*
X119899500Y-99854269D01*
X117107698Y-99854269D01*
X117109981Y-99852693D01*
X117116379Y-99848825D01*
X117150852Y-99830734D01*
X117180002Y-99804908D01*
X117185871Y-99800310D01*
X117217929Y-99778183D01*
X117243748Y-99749037D01*
X117249037Y-99743748D01*
X117278183Y-99717929D01*
X117300310Y-99685871D01*
X117304908Y-99680002D01*
X117330734Y-99650852D01*
X117348825Y-99616379D01*
X117352693Y-99609981D01*
X117374818Y-99577930D01*
X117388630Y-99541507D01*
X117391691Y-99534707D01*
X117409790Y-99500225D01*
X117419106Y-99462427D01*
X117421335Y-99455271D01*
X117435140Y-99418872D01*
X117439834Y-99380206D01*
X117441177Y-99372875D01*
X117450500Y-99335056D01*
X117450500Y-99296126D01*
X117450952Y-99288646D01*
X117455645Y-99250000D01*
X117450951Y-99211347D01*
X117450500Y-99203872D01*
X117450500Y-99164944D01*
X117441181Y-99127140D01*
X117439832Y-99119773D01*
X117435140Y-99081130D01*
X117435140Y-99081128D01*
X117421329Y-99044712D01*
X117419110Y-99037590D01*
X117409790Y-98999775D01*
X117391687Y-98965283D01*
X117388627Y-98958484D01*
X117374818Y-98922070D01*
X117352694Y-98890018D01*
X117348823Y-98883614D01*
X117330736Y-98849151D01*
X117330732Y-98849145D01*
X117316150Y-98832685D01*
X117304916Y-98820005D01*
X117300299Y-98814111D01*
X117278185Y-98782073D01*
X117262580Y-98768248D01*
X117249037Y-98756250D01*
X117243743Y-98750955D01*
X117217933Y-98721821D01*
X117217930Y-98721819D01*
X117217929Y-98721817D01*
X117217925Y-98721814D01*
X117185882Y-98699695D01*
X117179986Y-98695075D01*
X117150851Y-98669265D01*
X117150848Y-98669263D01*
X117116387Y-98651177D01*
X117109974Y-98647300D01*
X117077933Y-98625183D01*
X117077931Y-98625182D01*
X117041524Y-98611374D01*
X117034693Y-98608299D01*
X117000226Y-98590210D01*
X117000221Y-98590209D01*
X116998601Y-98589809D01*
X116962424Y-98580892D01*
X116955276Y-98578665D01*
X116918876Y-98564861D01*
X116918869Y-98564859D01*
X116880223Y-98560166D01*
X116872855Y-98558816D01*
X116835058Y-98549500D01*
X116835056Y-98549500D01*
X116792372Y-98549500D01*
X116523048Y-98549500D01*
X116519303Y-98549387D01*
X116457396Y-98545642D01*
X116457389Y-98545642D01*
X116396386Y-98556821D01*
X116392685Y-98557384D01*
X116331128Y-98564859D01*
X116331121Y-98564861D01*
X116321647Y-98568454D01*
X116300049Y-98574475D01*
X116290069Y-98576304D01*
X116233519Y-98601755D01*
X116230060Y-98603188D01*
X116172071Y-98625181D01*
X116172063Y-98625185D01*
X116163721Y-98630943D01*
X116144189Y-98641960D01*
X116134946Y-98646120D01*
X116086135Y-98684360D01*
X116083120Y-98686579D01*
X116032072Y-98721816D01*
X116032065Y-98721822D01*
X115990935Y-98768248D01*
X115988368Y-98770974D01*
X113770966Y-100988375D01*
X113768240Y-100990942D01*
X113721818Y-101032068D01*
X113686586Y-101083109D01*
X113684368Y-101086124D01*
X113646124Y-101134939D01*
X113646119Y-101134948D01*
X113641960Y-101144188D01*
X113630942Y-101163723D01*
X113625187Y-101172061D01*
X113625183Y-101172067D01*
X113625182Y-101172070D01*
X113625180Y-101172074D01*
X113625179Y-101172077D01*
X113603189Y-101230055D01*
X113601757Y-101233513D01*
X113576305Y-101290068D01*
X113574477Y-101300042D01*
X113568453Y-101321653D01*
X113564860Y-101331127D01*
X113564859Y-101331128D01*
X113557384Y-101392685D01*
X113556821Y-101396386D01*
X113545642Y-101457389D01*
X113545641Y-101457402D01*
X113546253Y-101467519D01*
X113545576Y-101489938D01*
X113544355Y-101499999D01*
X113544355Y-101500001D01*
X108500000Y-101500001D01*
X108500000Y-93670005D01*
X112544529Y-93670005D01*
X112564379Y-93909559D01*
X112623389Y-94142589D01*
X112719951Y-94362729D01*
X112851427Y-94563966D01*
X112851429Y-94563969D01*
X113014236Y-94740825D01*
X113014239Y-94740827D01*
X113014242Y-94740830D01*
X113203924Y-94888466D01*
X113203930Y-94888470D01*
X113203933Y-94888472D01*
X113415344Y-95002882D01*
X113419384Y-95004269D01*
X113642699Y-95080933D01*
X113642701Y-95080933D01*
X113642703Y-95080934D01*
X113879808Y-95120500D01*
X113879809Y-95120500D01*
X114120191Y-95120500D01*
X114120192Y-95120500D01*
X114357297Y-95080934D01*
X114580616Y-95004269D01*
X119899500Y-95004269D01*
X119902353Y-95034699D01*
X119902353Y-95034701D01*
X119947206Y-95162880D01*
X119947207Y-95162882D01*
X120027850Y-95272150D01*
X120137118Y-95352793D01*
X120179845Y-95367744D01*
X120265299Y-95397646D01*
X120295730Y-95400500D01*
X120295734Y-95400500D01*
X122204270Y-95400500D01*
X122234699Y-95397646D01*
X122234701Y-95397646D01*
X122298790Y-95375219D01*
X122362882Y-95352793D01*
X122472150Y-95272150D01*
X122552793Y-95162882D01*
X122581468Y-95080933D01*
X122597646Y-95034701D01*
X122597646Y-95034699D01*
X122600500Y-95004269D01*
X122600500Y-94674500D01*
X122620185Y-94607461D01*
X122672989Y-94561706D01*
X122724500Y-94550500D01*
X124335058Y-94550500D01*
X124344590Y-94548149D01*
X124372875Y-94541177D01*
X124380206Y-94539834D01*
X124418872Y-94535140D01*
X124455277Y-94521333D01*
X124462427Y-94519106D01*
X124473744Y-94516316D01*
X124500225Y-94509790D01*
X124534707Y-94491691D01*
X124541507Y-94488630D01*
X124577930Y-94474818D01*
X124609981Y-94452693D01*
X124616379Y-94448825D01*
X124650852Y-94430734D01*
X124680002Y-94404908D01*
X124685871Y-94400310D01*
X124717929Y-94378183D01*
X124743748Y-94349037D01*
X124749037Y-94343748D01*
X124778183Y-94317929D01*
X124800310Y-94285871D01*
X124804908Y-94280002D01*
X124830734Y-94250852D01*
X124848825Y-94216379D01*
X124852693Y-94209981D01*
X124874818Y-94177930D01*
X124888630Y-94141507D01*
X124891691Y-94134707D01*
X124909790Y-94100225D01*
X124919106Y-94062427D01*
X124921335Y-94055271D01*
X124935140Y-94018872D01*
X124939834Y-93980206D01*
X124941177Y-93972875D01*
X124950500Y-93935056D01*
X124950500Y-93896110D01*
X124950951Y-93888655D01*
X124955645Y-93850000D01*
X124950951Y-93811348D01*
X124950500Y-93803872D01*
X124950500Y-93764944D01*
X124941181Y-93727140D01*
X124939832Y-93719773D01*
X124935140Y-93681130D01*
X124935140Y-93681128D01*
X124921329Y-93644712D01*
X124919110Y-93637590D01*
X124909790Y-93599775D01*
X124891687Y-93565283D01*
X124888627Y-93558484D01*
X124874818Y-93522070D01*
X124852694Y-93490018D01*
X124848823Y-93483614D01*
X124830736Y-93449151D01*
X124830732Y-93449145D01*
X124814158Y-93430437D01*
X124804916Y-93420005D01*
X124800299Y-93414111D01*
X124778185Y-93382073D01*
X124778183Y-93382071D01*
X124749037Y-93356250D01*
X124743743Y-93350955D01*
X124717933Y-93321821D01*
X124717930Y-93321819D01*
X124717929Y-93321817D01*
X124717925Y-93321814D01*
X124685882Y-93299695D01*
X124679986Y-93295075D01*
X124650851Y-93269265D01*
X124650848Y-93269263D01*
X124616387Y-93251177D01*
X124609974Y-93247300D01*
X124577933Y-93225183D01*
X124577931Y-93225182D01*
X124541524Y-93211374D01*
X124534693Y-93208299D01*
X124500226Y-93190210D01*
X124500221Y-93190209D01*
X124498601Y-93189809D01*
X124462424Y-93180892D01*
X124455276Y-93178665D01*
X124418876Y-93164861D01*
X124418869Y-93164859D01*
X124380223Y-93160166D01*
X124372855Y-93158816D01*
X124335058Y-93149500D01*
X124335056Y-93149500D01*
X124292372Y-93149500D01*
X122724500Y-93149500D01*
X122657461Y-93129815D01*
X122611706Y-93077011D01*
X122600500Y-93025500D01*
X122600500Y-91895730D01*
X122597646Y-91865300D01*
X122597646Y-91865298D01*
X122552793Y-91737119D01*
X122552792Y-91737117D01*
X122472150Y-91627850D01*
X122362882Y-91547207D01*
X122362880Y-91547206D01*
X122234700Y-91502353D01*
X122204270Y-91499500D01*
X122204266Y-91499500D01*
X120295734Y-91499500D01*
X120295730Y-91499500D01*
X120265300Y-91502353D01*
X120265298Y-91502353D01*
X120137119Y-91547206D01*
X120137117Y-91547207D01*
X120027850Y-91627850D01*
X119947207Y-91737117D01*
X119947206Y-91737119D01*
X119902353Y-91865298D01*
X119902353Y-91865300D01*
X119899500Y-91895730D01*
X119899500Y-95004269D01*
X114580616Y-95004269D01*
X114584656Y-95002882D01*
X114796067Y-94888472D01*
X114985764Y-94740825D01*
X115148571Y-94563969D01*
X115280049Y-94362728D01*
X115376610Y-94142591D01*
X115435620Y-93909563D01*
X115455471Y-93670000D01*
X115453086Y-93641220D01*
X115435620Y-93430440D01*
X115435620Y-93430437D01*
X115376610Y-93197409D01*
X115280049Y-92977272D01*
X115148571Y-92776031D01*
X114985764Y-92599175D01*
X114985759Y-92599171D01*
X114985757Y-92599169D01*
X114796075Y-92451533D01*
X114796069Y-92451529D01*
X114584657Y-92337118D01*
X114584652Y-92337116D01*
X114357300Y-92259066D01*
X114179468Y-92229391D01*
X114120192Y-92219500D01*
X113879808Y-92219500D01*
X113832386Y-92227413D01*
X113642699Y-92259066D01*
X113415347Y-92337116D01*
X113415342Y-92337118D01*
X113203930Y-92451529D01*
X113203924Y-92451533D01*
X113014242Y-92599169D01*
X113014239Y-92599172D01*
X112851430Y-92776029D01*
X112851427Y-92776033D01*
X112719951Y-92977270D01*
X112623389Y-93197410D01*
X112564379Y-93430440D01*
X112544529Y-93669994D01*
X112544529Y-93670005D01*
X108500000Y-93670005D01*
X108500000Y-91765000D01*
X116119417Y-91765000D01*
X116139699Y-91970932D01*
X116139700Y-91970934D01*
X116199768Y-92168954D01*
X116297315Y-92351450D01*
X116297317Y-92351452D01*
X116428589Y-92511410D01*
X116525209Y-92590702D01*
X116588550Y-92642685D01*
X116771046Y-92740232D01*
X116969066Y-92800300D01*
X116969065Y-92800300D01*
X117007647Y-92804100D01*
X117123392Y-92815500D01*
X117123395Y-92815500D01*
X117226605Y-92815500D01*
X117226608Y-92815500D01*
X117380934Y-92800300D01*
X117578954Y-92740232D01*
X117761450Y-92642685D01*
X117921410Y-92511410D01*
X118052685Y-92351450D01*
X118150232Y-92168954D01*
X118210300Y-91970934D01*
X118230583Y-91765000D01*
X118210300Y-91559066D01*
X118150232Y-91361046D01*
X118052685Y-91178550D01*
X117970549Y-91078466D01*
X117921410Y-91018589D01*
X117761452Y-90887317D01*
X117761453Y-90887317D01*
X117761450Y-90887315D01*
X117578954Y-90789768D01*
X117380934Y-90729700D01*
X117380932Y-90729699D01*
X117380934Y-90729699D01*
X117261805Y-90717966D01*
X117226608Y-90714500D01*
X117123392Y-90714500D01*
X117085298Y-90718251D01*
X116969067Y-90729699D01*
X116771043Y-90789769D01*
X116660898Y-90848643D01*
X116588550Y-90887315D01*
X116588548Y-90887316D01*
X116588547Y-90887317D01*
X116428589Y-91018589D01*
X116297317Y-91178547D01*
X116297315Y-91178550D01*
X116289654Y-91192883D01*
X116199769Y-91361043D01*
X116139699Y-91559067D01*
X116119417Y-91765000D01*
X108500000Y-91765000D01*
X108500000Y-89860005D01*
X112544529Y-89860005D01*
X112564379Y-90099559D01*
X112623389Y-90332589D01*
X112719951Y-90552729D01*
X112835573Y-90729700D01*
X112851429Y-90753969D01*
X113014236Y-90930825D01*
X113014239Y-90930827D01*
X113014242Y-90930830D01*
X113203924Y-91078466D01*
X113203930Y-91078470D01*
X113203933Y-91078472D01*
X113415344Y-91192882D01*
X113415347Y-91192883D01*
X113642699Y-91270933D01*
X113642701Y-91270933D01*
X113642703Y-91270934D01*
X113879808Y-91310500D01*
X113879809Y-91310500D01*
X114120191Y-91310500D01*
X114120192Y-91310500D01*
X114357297Y-91270934D01*
X114584656Y-91192882D01*
X114796067Y-91078472D01*
X114985764Y-90930825D01*
X115148571Y-90753969D01*
X115280049Y-90552728D01*
X115376610Y-90332591D01*
X115435620Y-90099563D01*
X115454715Y-89869124D01*
X115455471Y-89860005D01*
X115455471Y-89859994D01*
X115435620Y-89620440D01*
X115435620Y-89620437D01*
X115376610Y-89387409D01*
X115280049Y-89167272D01*
X115148571Y-88966031D01*
X114985764Y-88789175D01*
X114985759Y-88789171D01*
X114985757Y-88789169D01*
X114796075Y-88641533D01*
X114796069Y-88641529D01*
X114584657Y-88527118D01*
X114584652Y-88527116D01*
X114357300Y-88449066D01*
X114179468Y-88419391D01*
X114120192Y-88409500D01*
X113879808Y-88409500D01*
X113832387Y-88417413D01*
X113642699Y-88449066D01*
X113415347Y-88527116D01*
X113415342Y-88527118D01*
X113203930Y-88641529D01*
X113203924Y-88641533D01*
X113014242Y-88789169D01*
X113014239Y-88789172D01*
X112851430Y-88966029D01*
X112851427Y-88966033D01*
X112719951Y-89167270D01*
X112623389Y-89387410D01*
X112564379Y-89620440D01*
X112544529Y-89859994D01*
X112544529Y-89860005D01*
X108500000Y-89860005D01*
X108500000Y-87954999D01*
X109769417Y-87954999D01*
X109789699Y-88160932D01*
X109789700Y-88160934D01*
X109849768Y-88358954D01*
X109947315Y-88541450D01*
X109947317Y-88541452D01*
X110078589Y-88701410D01*
X110175209Y-88780702D01*
X110238550Y-88832685D01*
X110421046Y-88930232D01*
X110619066Y-88990300D01*
X110619065Y-88990300D01*
X110657647Y-88994100D01*
X110773392Y-89005500D01*
X110773395Y-89005500D01*
X110876605Y-89005500D01*
X110876608Y-89005500D01*
X111030934Y-88990300D01*
X111228954Y-88930232D01*
X111411450Y-88832685D01*
X111571410Y-88701410D01*
X111702685Y-88541450D01*
X111800232Y-88358954D01*
X111818115Y-88300000D01*
X119600001Y-88300000D01*
X119600001Y-89599986D01*
X119610494Y-89702697D01*
X119665641Y-89869119D01*
X119665643Y-89869124D01*
X119757684Y-90018345D01*
X119881654Y-90142315D01*
X120030875Y-90234356D01*
X120030880Y-90234358D01*
X120197302Y-90289505D01*
X120197309Y-90289506D01*
X120300019Y-90299999D01*
X120999999Y-90299999D01*
X121000000Y-90299998D01*
X121000000Y-88300000D01*
X121500000Y-88300000D01*
X121500000Y-90299999D01*
X122199972Y-90299999D01*
X122199986Y-90299998D01*
X122302697Y-90289505D01*
X122469119Y-90234358D01*
X122469124Y-90234356D01*
X122618345Y-90142315D01*
X122742315Y-90018345D01*
X122834356Y-89869124D01*
X122834358Y-89869119D01*
X122889505Y-89702697D01*
X122889506Y-89702690D01*
X122899999Y-89599986D01*
X122900000Y-89599973D01*
X122900000Y-88300000D01*
X121500000Y-88300000D01*
X121000000Y-88300000D01*
X119600001Y-88300000D01*
X111818115Y-88300000D01*
X111860300Y-88160934D01*
X111880583Y-87955000D01*
X111865317Y-87800000D01*
X119600000Y-87800000D01*
X121000000Y-87800000D01*
X121000000Y-87799999D01*
X121499999Y-87799999D01*
X121500000Y-87800000D01*
X122899999Y-87800000D01*
X122899999Y-86500028D01*
X122899998Y-86500013D01*
X122889505Y-86397302D01*
X122834358Y-86230880D01*
X122834356Y-86230875D01*
X122742315Y-86081654D01*
X122618345Y-85957684D01*
X122469124Y-85865643D01*
X122469119Y-85865641D01*
X122302697Y-85810494D01*
X122302690Y-85810493D01*
X122199986Y-85800000D01*
X121500000Y-85800000D01*
X121499999Y-87799999D01*
X121000000Y-87799999D01*
X121000000Y-85800000D01*
X120300028Y-85800000D01*
X120300012Y-85800001D01*
X120197302Y-85810494D01*
X120030880Y-85865641D01*
X120030875Y-85865643D01*
X119881654Y-85957684D01*
X119757684Y-86081654D01*
X119665643Y-86230875D01*
X119665641Y-86230880D01*
X119610494Y-86397302D01*
X119610493Y-86397309D01*
X119600000Y-86500013D01*
X119600000Y-87800000D01*
X111865317Y-87800000D01*
X111860300Y-87749066D01*
X111800232Y-87551046D01*
X111702685Y-87368550D01*
X111620549Y-87268466D01*
X111571410Y-87208589D01*
X111411452Y-87077317D01*
X111411453Y-87077317D01*
X111411450Y-87077315D01*
X111228954Y-86979768D01*
X111030934Y-86919700D01*
X111030932Y-86919699D01*
X111030934Y-86919699D01*
X110911805Y-86907966D01*
X110876608Y-86904500D01*
X110773392Y-86904500D01*
X110735298Y-86908251D01*
X110619067Y-86919699D01*
X110421043Y-86979769D01*
X110310898Y-87038643D01*
X110238550Y-87077315D01*
X110238548Y-87077316D01*
X110238547Y-87077317D01*
X110078589Y-87208589D01*
X109947317Y-87368547D01*
X109947315Y-87368550D01*
X109939654Y-87382883D01*
X109849769Y-87551043D01*
X109789699Y-87749067D01*
X109769417Y-87954999D01*
X108500000Y-87954999D01*
X108500000Y-86050005D01*
X112544529Y-86050005D01*
X112564379Y-86289559D01*
X112623389Y-86522589D01*
X112719951Y-86742729D01*
X112835573Y-86919700D01*
X112851429Y-86943969D01*
X113014236Y-87120825D01*
X113014239Y-87120827D01*
X113014242Y-87120830D01*
X113203924Y-87268466D01*
X113203930Y-87268470D01*
X113203933Y-87268472D01*
X113415344Y-87382882D01*
X113415347Y-87382883D01*
X113642699Y-87460933D01*
X113642701Y-87460933D01*
X113642703Y-87460934D01*
X113879808Y-87500500D01*
X113879809Y-87500500D01*
X114120191Y-87500500D01*
X114120192Y-87500500D01*
X114357297Y-87460934D01*
X114584656Y-87382882D01*
X114796067Y-87268472D01*
X114985764Y-87120825D01*
X115148571Y-86943969D01*
X115280049Y-86742728D01*
X115376610Y-86522591D01*
X115435620Y-86289563D01*
X115455471Y-86050000D01*
X115447821Y-85957684D01*
X115442237Y-85890291D01*
X115435620Y-85810437D01*
X115376610Y-85577409D01*
X115280049Y-85357272D01*
X115148571Y-85156031D01*
X114985764Y-84979175D01*
X114985759Y-84979171D01*
X114985757Y-84979169D01*
X114796075Y-84831533D01*
X114796069Y-84831529D01*
X114584657Y-84717118D01*
X114584652Y-84717116D01*
X114357300Y-84639066D01*
X114179468Y-84609391D01*
X114120192Y-84599500D01*
X113879808Y-84599500D01*
X113832386Y-84607413D01*
X113642699Y-84639066D01*
X113415347Y-84717116D01*
X113415342Y-84717118D01*
X113203930Y-84831529D01*
X113203924Y-84831533D01*
X113014242Y-84979169D01*
X113014239Y-84979172D01*
X112851430Y-85156029D01*
X112851427Y-85156033D01*
X112719951Y-85357270D01*
X112623389Y-85577410D01*
X112564379Y-85810440D01*
X112544529Y-86049994D01*
X112544529Y-86050005D01*
X108500000Y-86050005D01*
X108500000Y-84144999D01*
X116119417Y-84144999D01*
X116139699Y-84350932D01*
X116139700Y-84350934D01*
X116199768Y-84548954D01*
X116297315Y-84731450D01*
X116306348Y-84742457D01*
X116428589Y-84891410D01*
X116522278Y-84968297D01*
X116588550Y-85022685D01*
X116771046Y-85120232D01*
X116969066Y-85180300D01*
X116969065Y-85180300D01*
X117007647Y-85184100D01*
X117123392Y-85195500D01*
X117123395Y-85195500D01*
X117226605Y-85195500D01*
X117226608Y-85195500D01*
X117380934Y-85180300D01*
X117578954Y-85120232D01*
X117761450Y-85022685D01*
X117921410Y-84891410D01*
X118052685Y-84731450D01*
X118150232Y-84548954D01*
X118210300Y-84350934D01*
X118230583Y-84145000D01*
X118210300Y-83939066D01*
X118150232Y-83741046D01*
X118052685Y-83558550D01*
X118000702Y-83495209D01*
X117921410Y-83398589D01*
X117761452Y-83267317D01*
X117761453Y-83267317D01*
X117761450Y-83267315D01*
X117578954Y-83169768D01*
X117380934Y-83109700D01*
X117380932Y-83109699D01*
X117380934Y-83109699D01*
X117261805Y-83097966D01*
X117226608Y-83094500D01*
X117123392Y-83094500D01*
X117085298Y-83098251D01*
X116969067Y-83109699D01*
X116771043Y-83169769D01*
X116714486Y-83200000D01*
X116588550Y-83267315D01*
X116588548Y-83267316D01*
X116588547Y-83267317D01*
X116428589Y-83398589D01*
X116308283Y-83545185D01*
X116297315Y-83558550D01*
X116289654Y-83572883D01*
X116199769Y-83741043D01*
X116139699Y-83939067D01*
X116119417Y-84144999D01*
X108500000Y-84144999D01*
X108500000Y-82240005D01*
X112544529Y-82240005D01*
X112564379Y-82479559D01*
X112623389Y-82712589D01*
X112719951Y-82932729D01*
X112835573Y-83109700D01*
X112851429Y-83133969D01*
X113014236Y-83310825D01*
X113014239Y-83310827D01*
X113014242Y-83310830D01*
X113203924Y-83458466D01*
X113203930Y-83458470D01*
X113203933Y-83458472D01*
X113415344Y-83572882D01*
X113415347Y-83572883D01*
X113642699Y-83650933D01*
X113642701Y-83650933D01*
X113642703Y-83650934D01*
X113879808Y-83690500D01*
X113879809Y-83690500D01*
X114120191Y-83690500D01*
X114120192Y-83690500D01*
X114357297Y-83650934D01*
X114584656Y-83572882D01*
X114796067Y-83458472D01*
X114985764Y-83310825D01*
X115148571Y-83133969D01*
X115280049Y-82932728D01*
X115376610Y-82712591D01*
X115435620Y-82479563D01*
X115449537Y-82311615D01*
X115455471Y-82240005D01*
X115455471Y-82239994D01*
X115436407Y-82009932D01*
X115435620Y-82000437D01*
X115384863Y-81800000D01*
X116994355Y-81800000D01*
X116995576Y-81810061D01*
X116996253Y-81832481D01*
X116995641Y-81842597D01*
X116995642Y-81842607D01*
X117006821Y-81903610D01*
X117007384Y-81907312D01*
X117014859Y-81968870D01*
X117014860Y-81968874D01*
X117018451Y-81978343D01*
X117024474Y-81999946D01*
X117026304Y-82009930D01*
X117051759Y-82066490D01*
X117053189Y-82069941D01*
X117075182Y-82127930D01*
X117075183Y-82127931D01*
X117080936Y-82136266D01*
X117091961Y-82155813D01*
X117096120Y-82165055D01*
X117096124Y-82165060D01*
X117134371Y-82213878D01*
X117136591Y-82216896D01*
X117171812Y-82267924D01*
X117171816Y-82267928D01*
X117171817Y-82267929D01*
X117218250Y-82309064D01*
X117220941Y-82311598D01*
X118688399Y-83779056D01*
X118690935Y-83781750D01*
X118732071Y-83828183D01*
X118763431Y-83849829D01*
X118783110Y-83863413D01*
X118786127Y-83865633D01*
X118834938Y-83903874D01*
X118834943Y-83903877D01*
X118844174Y-83908031D01*
X118863727Y-83919059D01*
X118872070Y-83924818D01*
X118912227Y-83940047D01*
X118930057Y-83946809D01*
X118933512Y-83948239D01*
X118963093Y-83961553D01*
X118990063Y-83973692D01*
X118990064Y-83973692D01*
X118990068Y-83973694D01*
X119000030Y-83975519D01*
X119021651Y-83981546D01*
X119031125Y-83985139D01*
X119031128Y-83985140D01*
X119047871Y-83987173D01*
X119092689Y-83992615D01*
X119096386Y-83993177D01*
X119157394Y-84004357D01*
X119157395Y-84004356D01*
X119157396Y-84004357D01*
X119219293Y-84000613D01*
X119223037Y-84000500D01*
X119225500Y-84000500D01*
X119292539Y-84020185D01*
X119338294Y-84072989D01*
X119349500Y-84124500D01*
X119349500Y-84854269D01*
X119352353Y-84884699D01*
X119352353Y-84884701D01*
X119397206Y-85012880D01*
X119397207Y-85012882D01*
X119477850Y-85122150D01*
X119587118Y-85202793D01*
X119629845Y-85217744D01*
X119715299Y-85247646D01*
X119745730Y-85250500D01*
X119745734Y-85250500D01*
X121654270Y-85250500D01*
X121684699Y-85247646D01*
X121684701Y-85247646D01*
X121748790Y-85225219D01*
X121812882Y-85202793D01*
X121922150Y-85122150D01*
X122002793Y-85012882D01*
X122032052Y-84929264D01*
X122047646Y-84884701D01*
X122047646Y-84884699D01*
X122050500Y-84854269D01*
X122050500Y-84600000D01*
X138594353Y-84600000D01*
X138614834Y-84742456D01*
X138632959Y-84782143D01*
X138674623Y-84873373D01*
X138768872Y-84982143D01*
X138889947Y-85059953D01*
X138889950Y-85059954D01*
X138889949Y-85059954D01*
X139028036Y-85100499D01*
X139028038Y-85100500D01*
X139028039Y-85100500D01*
X139171962Y-85100500D01*
X139171962Y-85100499D01*
X139310053Y-85059953D01*
X139431128Y-84982143D01*
X139443126Y-84968296D01*
X139501903Y-84930523D01*
X139536838Y-84925500D01*
X140183078Y-84925500D01*
X140188481Y-84925735D01*
X140228807Y-84929264D01*
X140267940Y-84918777D01*
X140273162Y-84917619D01*
X140313045Y-84910588D01*
X140313050Y-84910584D01*
X140320212Y-84907979D01*
X140362625Y-84900500D01*
X140471962Y-84900500D01*
X140471962Y-84900499D01*
X140610053Y-84859953D01*
X140731128Y-84782143D01*
X140825377Y-84673373D01*
X140885165Y-84542457D01*
X140905647Y-84400000D01*
X140885165Y-84257543D01*
X140825377Y-84126627D01*
X140731128Y-84017857D01*
X140610053Y-83940047D01*
X140610051Y-83940046D01*
X140610049Y-83940045D01*
X140610050Y-83940045D01*
X140471963Y-83899500D01*
X140471961Y-83899500D01*
X140328039Y-83899500D01*
X140328036Y-83899500D01*
X140189949Y-83940045D01*
X140068873Y-84017856D01*
X139974623Y-84126626D01*
X139974622Y-84126628D01*
X139940195Y-84202012D01*
X139894440Y-84254816D01*
X139827401Y-84274500D01*
X139536838Y-84274500D01*
X139469799Y-84254815D01*
X139443127Y-84231704D01*
X139431128Y-84217857D01*
X139310053Y-84140047D01*
X139310051Y-84140046D01*
X139310049Y-84140045D01*
X139310050Y-84140045D01*
X139171963Y-84099500D01*
X139171961Y-84099500D01*
X139028039Y-84099500D01*
X139028036Y-84099500D01*
X138889949Y-84140045D01*
X138768873Y-84217856D01*
X138674623Y-84326626D01*
X138674622Y-84326628D01*
X138614834Y-84457543D01*
X138594353Y-84600000D01*
X122050500Y-84600000D01*
X122050500Y-81745730D01*
X122047646Y-81715300D01*
X122047646Y-81715298D01*
X122002793Y-81587119D01*
X122002792Y-81587117D01*
X121989862Y-81569597D01*
X121922150Y-81477850D01*
X121812882Y-81397207D01*
X121812880Y-81397206D01*
X121684700Y-81352353D01*
X121654270Y-81349500D01*
X121654266Y-81349500D01*
X119745734Y-81349500D01*
X119745730Y-81349500D01*
X119715300Y-81352353D01*
X119715298Y-81352353D01*
X119587119Y-81397206D01*
X119587117Y-81397207D01*
X119477850Y-81477850D01*
X119397207Y-81587117D01*
X119397206Y-81587119D01*
X119352353Y-81715298D01*
X119352353Y-81715300D01*
X119349500Y-81745730D01*
X119349500Y-82159481D01*
X119329815Y-82226520D01*
X119277011Y-82272275D01*
X119207853Y-82282219D01*
X119144297Y-82253194D01*
X119137819Y-82247162D01*
X118248307Y-81357650D01*
X118233940Y-81340412D01*
X118228183Y-81332071D01*
X118228180Y-81332068D01*
X118181769Y-81290951D01*
X118179041Y-81288384D01*
X118165368Y-81274710D01*
X118150147Y-81262785D01*
X118147270Y-81260388D01*
X118100851Y-81219265D01*
X118091886Y-81214560D01*
X118073038Y-81202375D01*
X118065057Y-81196122D01*
X118065055Y-81196121D01*
X118065054Y-81196120D01*
X118008494Y-81170665D01*
X118005133Y-81169028D01*
X117992985Y-81162652D01*
X117950227Y-81140210D01*
X117950223Y-81140209D01*
X117940388Y-81137785D01*
X117919183Y-81130468D01*
X117909932Y-81126305D01*
X117909930Y-81126304D01*
X117909929Y-81126304D01*
X117848914Y-81115122D01*
X117845254Y-81114336D01*
X117785058Y-81099500D01*
X117785056Y-81099500D01*
X117774927Y-81099500D01*
X117752576Y-81097469D01*
X117742607Y-81095642D01*
X117742603Y-81095642D01*
X117680697Y-81099387D01*
X117676952Y-81099500D01*
X117614940Y-81099500D01*
X117605093Y-81101927D01*
X117582923Y-81105301D01*
X117572801Y-81105914D01*
X117513603Y-81124360D01*
X117509997Y-81125365D01*
X117449775Y-81140209D01*
X117449772Y-81140210D01*
X117440796Y-81144921D01*
X117420071Y-81153506D01*
X117410392Y-81156522D01*
X117357309Y-81188611D01*
X117354049Y-81190450D01*
X117299148Y-81219266D01*
X117291551Y-81225995D01*
X117273494Y-81239280D01*
X117264821Y-81244523D01*
X117264810Y-81244532D01*
X117220965Y-81288377D01*
X117218239Y-81290942D01*
X117171820Y-81332067D01*
X117171818Y-81332069D01*
X117166056Y-81340416D01*
X117151697Y-81357645D01*
X117144530Y-81364812D01*
X117144525Y-81364818D01*
X117112447Y-81417881D01*
X117110414Y-81421025D01*
X117075184Y-81472065D01*
X117075180Y-81472073D01*
X117071584Y-81481554D01*
X117061767Y-81501716D01*
X117056521Y-81510393D01*
X117038073Y-81569597D01*
X117036852Y-81573136D01*
X117014860Y-81631127D01*
X117014858Y-81631134D01*
X117013636Y-81641197D01*
X117008929Y-81663129D01*
X117005913Y-81672806D01*
X117002168Y-81734709D01*
X117001829Y-81738437D01*
X116994355Y-81799997D01*
X116994355Y-81800000D01*
X115384863Y-81800000D01*
X115376610Y-81767409D01*
X115280049Y-81547272D01*
X115243989Y-81492079D01*
X115148572Y-81346033D01*
X115148571Y-81346031D01*
X114985764Y-81169175D01*
X114985759Y-81169171D01*
X114985757Y-81169169D01*
X114796075Y-81021533D01*
X114796069Y-81021529D01*
X114584657Y-80907118D01*
X114584652Y-80907116D01*
X114357300Y-80829066D01*
X114179468Y-80799391D01*
X114120192Y-80789500D01*
X113879808Y-80789500D01*
X113832387Y-80797413D01*
X113642699Y-80829066D01*
X113415347Y-80907116D01*
X113415342Y-80907118D01*
X113203930Y-81021529D01*
X113203924Y-81021533D01*
X113014242Y-81169169D01*
X113014239Y-81169172D01*
X113014236Y-81169174D01*
X113014236Y-81169175D01*
X112989430Y-81196122D01*
X112851430Y-81346029D01*
X112851427Y-81346033D01*
X112719951Y-81547270D01*
X112623389Y-81767410D01*
X112564379Y-82000440D01*
X112544529Y-82239994D01*
X112544529Y-82240005D01*
X108500000Y-82240005D01*
X108500000Y-78430005D01*
X112544529Y-78430005D01*
X112564379Y-78669559D01*
X112623389Y-78902589D01*
X112719951Y-79122729D01*
X112851427Y-79323966D01*
X112851429Y-79323969D01*
X113014236Y-79500825D01*
X113014239Y-79500827D01*
X113014242Y-79500830D01*
X113203924Y-79648466D01*
X113203930Y-79648470D01*
X113203933Y-79648472D01*
X113415344Y-79762882D01*
X113415347Y-79762883D01*
X113642699Y-79840933D01*
X113642701Y-79840933D01*
X113642703Y-79840934D01*
X113879808Y-79880500D01*
X113879809Y-79880500D01*
X114120191Y-79880500D01*
X114120192Y-79880500D01*
X114357297Y-79840934D01*
X114584656Y-79762882D01*
X114796067Y-79648472D01*
X114985764Y-79500825D01*
X115148571Y-79323969D01*
X115280049Y-79122728D01*
X115376610Y-78902591D01*
X115435620Y-78669563D01*
X115455471Y-78430000D01*
X115435620Y-78190437D01*
X115425380Y-78150000D01*
X119050001Y-78150000D01*
X119050001Y-79449986D01*
X119060494Y-79552697D01*
X119115641Y-79719119D01*
X119115643Y-79719124D01*
X119207684Y-79868345D01*
X119331654Y-79992315D01*
X119480875Y-80084356D01*
X119480880Y-80084358D01*
X119647302Y-80139505D01*
X119647309Y-80139506D01*
X119750019Y-80149999D01*
X120449999Y-80149999D01*
X120450000Y-80149998D01*
X120949999Y-80149998D01*
X120950000Y-80149999D01*
X121649972Y-80149999D01*
X121649986Y-80149998D01*
X121752697Y-80139505D01*
X121919119Y-80084358D01*
X121919124Y-80084356D01*
X122068345Y-79992315D01*
X122192315Y-79868345D01*
X122284356Y-79719124D01*
X122284358Y-79719119D01*
X122339505Y-79552697D01*
X122339506Y-79552690D01*
X122349999Y-79449986D01*
X122350000Y-79449973D01*
X122350000Y-78150000D01*
X120950000Y-78150000D01*
X120949999Y-80149998D01*
X120450000Y-80149998D01*
X120450000Y-78150000D01*
X119050001Y-78150000D01*
X115425380Y-78150000D01*
X115376610Y-77957409D01*
X115280049Y-77737272D01*
X115223031Y-77650000D01*
X119049999Y-77650000D01*
X120450000Y-77650000D01*
X120450000Y-75650000D01*
X120950000Y-75650000D01*
X120950000Y-77650000D01*
X122349999Y-77650000D01*
X122349999Y-76350028D01*
X122349998Y-76350013D01*
X122339505Y-76247302D01*
X122284358Y-76080880D01*
X122284356Y-76080875D01*
X122192315Y-75931654D01*
X122068345Y-75807684D01*
X121919124Y-75715643D01*
X121919119Y-75715641D01*
X121752697Y-75660494D01*
X121752690Y-75660493D01*
X121649986Y-75650000D01*
X120950000Y-75650000D01*
X120450000Y-75650000D01*
X119750028Y-75650000D01*
X119750012Y-75650001D01*
X119647302Y-75660494D01*
X119480880Y-75715641D01*
X119480875Y-75715643D01*
X119331654Y-75807684D01*
X119207684Y-75931654D01*
X119115643Y-76080875D01*
X119115641Y-76080880D01*
X119060494Y-76247302D01*
X119060493Y-76247309D01*
X119050000Y-76350013D01*
X119050000Y-76350026D01*
X119049999Y-77650000D01*
X115223031Y-77650000D01*
X115148571Y-77536031D01*
X114985764Y-77359175D01*
X114985759Y-77359171D01*
X114985757Y-77359169D01*
X114796075Y-77211533D01*
X114796069Y-77211529D01*
X114584657Y-77097118D01*
X114584652Y-77097116D01*
X114357300Y-77019066D01*
X114179468Y-76989391D01*
X114120192Y-76979500D01*
X113879808Y-76979500D01*
X113832386Y-76987413D01*
X113642699Y-77019066D01*
X113415347Y-77097116D01*
X113415342Y-77097118D01*
X113203930Y-77211529D01*
X113203924Y-77211533D01*
X113014242Y-77359169D01*
X113014239Y-77359172D01*
X112851430Y-77536029D01*
X112851427Y-77536033D01*
X112719951Y-77737270D01*
X112623389Y-77957410D01*
X112564379Y-78190440D01*
X112544529Y-78429994D01*
X112544529Y-78430005D01*
X108500000Y-78430005D01*
X108500000Y-76525000D01*
X116119417Y-76525000D01*
X116139699Y-76730932D01*
X116139700Y-76730934D01*
X116199768Y-76928954D01*
X116297315Y-77111450D01*
X116297317Y-77111452D01*
X116428589Y-77271410D01*
X116451299Y-77290047D01*
X116588550Y-77402685D01*
X116771046Y-77500232D01*
X116969066Y-77560300D01*
X116969065Y-77560300D01*
X117007647Y-77564100D01*
X117123392Y-77575500D01*
X117123395Y-77575500D01*
X117226605Y-77575500D01*
X117226608Y-77575500D01*
X117380934Y-77560300D01*
X117578954Y-77500232D01*
X117761450Y-77402685D01*
X117921410Y-77271410D01*
X118052685Y-77111450D01*
X118150232Y-76928954D01*
X118210300Y-76730934D01*
X118230583Y-76525000D01*
X118210300Y-76319066D01*
X118150232Y-76121046D01*
X118052685Y-75938550D01*
X117945287Y-75807684D01*
X117921410Y-75778589D01*
X117803677Y-75681969D01*
X117761450Y-75647315D01*
X117578954Y-75549768D01*
X117380934Y-75489700D01*
X117380932Y-75489699D01*
X117380934Y-75489699D01*
X117261805Y-75477966D01*
X117226608Y-75474500D01*
X117123392Y-75474500D01*
X117085298Y-75478251D01*
X116969067Y-75489699D01*
X116771043Y-75549769D01*
X116710477Y-75582143D01*
X116588550Y-75647315D01*
X116588548Y-75647316D01*
X116588547Y-75647317D01*
X116428589Y-75778589D01*
X116302974Y-75931654D01*
X116297315Y-75938550D01*
X116289654Y-75952883D01*
X116199769Y-76121043D01*
X116139699Y-76319067D01*
X116119417Y-76525000D01*
X108500000Y-76525000D01*
X108500000Y-74620005D01*
X112544529Y-74620005D01*
X112564379Y-74859559D01*
X112623389Y-75092589D01*
X112719951Y-75312729D01*
X112835573Y-75489700D01*
X112851429Y-75513969D01*
X113014236Y-75690825D01*
X113014239Y-75690827D01*
X113014242Y-75690830D01*
X113203924Y-75838466D01*
X113203930Y-75838470D01*
X113203933Y-75838472D01*
X113415344Y-75952882D01*
X113415347Y-75952883D01*
X113642699Y-76030933D01*
X113642701Y-76030933D01*
X113642703Y-76030934D01*
X113879808Y-76070500D01*
X113879809Y-76070500D01*
X114120191Y-76070500D01*
X114120192Y-76070500D01*
X114357297Y-76030934D01*
X114584656Y-75952882D01*
X114796067Y-75838472D01*
X114835624Y-75807684D01*
X114896948Y-75759953D01*
X114985764Y-75690825D01*
X115148571Y-75513969D01*
X115280049Y-75312728D01*
X115285632Y-75300000D01*
X123394353Y-75300000D01*
X123414834Y-75442456D01*
X123436410Y-75489699D01*
X123474623Y-75573373D01*
X123568872Y-75682143D01*
X123689947Y-75759953D01*
X123689950Y-75759954D01*
X123689949Y-75759954D01*
X123828036Y-75800499D01*
X123828038Y-75800500D01*
X123828039Y-75800500D01*
X123971962Y-75800500D01*
X123971962Y-75800499D01*
X124110053Y-75759953D01*
X124231128Y-75682143D01*
X124325377Y-75573373D01*
X124385165Y-75442457D01*
X124405647Y-75300000D01*
X124385165Y-75157543D01*
X124325377Y-75026627D01*
X124325375Y-75026625D01*
X124325374Y-75026622D01*
X124255787Y-74946314D01*
X124226762Y-74882758D01*
X124225500Y-74865112D01*
X124225500Y-74286188D01*
X124245185Y-74219149D01*
X124261819Y-74198507D01*
X125623508Y-72836819D01*
X125684831Y-72803334D01*
X125711189Y-72800500D01*
X125771962Y-72800500D01*
X125771962Y-72800499D01*
X125910053Y-72759953D01*
X126031128Y-72682143D01*
X126125377Y-72573373D01*
X126185165Y-72442457D01*
X126205647Y-72300000D01*
X126185165Y-72157543D01*
X126125377Y-72026627D01*
X126031128Y-71917857D01*
X125910053Y-71840047D01*
X125910051Y-71840046D01*
X125910049Y-71840045D01*
X125910050Y-71840045D01*
X125771963Y-71799500D01*
X125771961Y-71799500D01*
X125628039Y-71799500D01*
X125628036Y-71799500D01*
X125489949Y-71840045D01*
X125368873Y-71917856D01*
X125274623Y-72026626D01*
X125274622Y-72026628D01*
X125214834Y-72157543D01*
X125193091Y-72308778D01*
X125190126Y-72308351D01*
X125174668Y-72360996D01*
X125158034Y-72381638D01*
X123681803Y-73857870D01*
X123677814Y-73861525D01*
X123646805Y-73887545D01*
X123626562Y-73922606D01*
X123623656Y-73927166D01*
X123600446Y-73960313D01*
X123598206Y-73965117D01*
X123591229Y-73981961D01*
X123589410Y-73986959D01*
X123582383Y-74026811D01*
X123581212Y-74032091D01*
X123570735Y-74071191D01*
X123574264Y-74111513D01*
X123574500Y-74116920D01*
X123574500Y-74865112D01*
X123554815Y-74932151D01*
X123544213Y-74946314D01*
X123474625Y-75026622D01*
X123474622Y-75026628D01*
X123414834Y-75157543D01*
X123394353Y-75300000D01*
X115285632Y-75300000D01*
X115376610Y-75092591D01*
X115435620Y-74859563D01*
X115444442Y-74753090D01*
X115455471Y-74620005D01*
X115455471Y-74619994D01*
X115435620Y-74380440D01*
X115435620Y-74380437D01*
X115376610Y-74147409D01*
X115280049Y-73927272D01*
X115148571Y-73726031D01*
X114985764Y-73549175D01*
X114985759Y-73549171D01*
X114985757Y-73549169D01*
X114796075Y-73401533D01*
X114796069Y-73401529D01*
X114584657Y-73287118D01*
X114584652Y-73287116D01*
X114357300Y-73209066D01*
X114179468Y-73179391D01*
X114120192Y-73169500D01*
X113879808Y-73169500D01*
X113832386Y-73177413D01*
X113642699Y-73209066D01*
X113415347Y-73287116D01*
X113415342Y-73287118D01*
X113203930Y-73401529D01*
X113203924Y-73401533D01*
X113014242Y-73549169D01*
X113014239Y-73549172D01*
X112851430Y-73726029D01*
X112851427Y-73726033D01*
X112719951Y-73927270D01*
X112623389Y-74147410D01*
X112564379Y-74380440D01*
X112544529Y-74619994D01*
X112544529Y-74620005D01*
X108500000Y-74620005D01*
X108500000Y-72714999D01*
X109769417Y-72714999D01*
X109789699Y-72920932D01*
X109789700Y-72920934D01*
X109849768Y-73118954D01*
X109947315Y-73301450D01*
X109947317Y-73301452D01*
X110078589Y-73461410D01*
X110175209Y-73540702D01*
X110238550Y-73592685D01*
X110421046Y-73690232D01*
X110619066Y-73750300D01*
X110619065Y-73750300D01*
X110657647Y-73754100D01*
X110773392Y-73765500D01*
X110773395Y-73765500D01*
X110876605Y-73765500D01*
X110876608Y-73765500D01*
X111030934Y-73750300D01*
X111228954Y-73690232D01*
X111411450Y-73592685D01*
X111571410Y-73461410D01*
X111702685Y-73301450D01*
X111800232Y-73118954D01*
X111860300Y-72920934D01*
X111880583Y-72715000D01*
X111860300Y-72509066D01*
X111800232Y-72311046D01*
X111702685Y-72128550D01*
X111620549Y-72028466D01*
X111571410Y-71968589D01*
X111414779Y-71840047D01*
X111411450Y-71837315D01*
X111228954Y-71739768D01*
X111030934Y-71679700D01*
X111030932Y-71679699D01*
X111030934Y-71679699D01*
X110911805Y-71667966D01*
X110876608Y-71664500D01*
X110773392Y-71664500D01*
X110735298Y-71668251D01*
X110619067Y-71679699D01*
X110421043Y-71739769D01*
X110310898Y-71798643D01*
X110238550Y-71837315D01*
X110238548Y-71837316D01*
X110238547Y-71837317D01*
X110078589Y-71968589D01*
X109991672Y-72074500D01*
X109947315Y-72128550D01*
X109939654Y-72142883D01*
X109849769Y-72311043D01*
X109789699Y-72509067D01*
X109769417Y-72714999D01*
X108500000Y-72714999D01*
X108500000Y-70810005D01*
X112544529Y-70810005D01*
X112564379Y-71049559D01*
X112623389Y-71282589D01*
X112719951Y-71502729D01*
X112835573Y-71679700D01*
X112851429Y-71703969D01*
X113014236Y-71880825D01*
X113014239Y-71880827D01*
X113014242Y-71880830D01*
X113203924Y-72028466D01*
X113203930Y-72028470D01*
X113203933Y-72028472D01*
X113415344Y-72142882D01*
X113415347Y-72142883D01*
X113642699Y-72220933D01*
X113642701Y-72220933D01*
X113642703Y-72220934D01*
X113879808Y-72260500D01*
X113879809Y-72260500D01*
X114120191Y-72260500D01*
X114120192Y-72260500D01*
X114357297Y-72220934D01*
X114584656Y-72142882D01*
X114796067Y-72028472D01*
X114798438Y-72026627D01*
X114873005Y-71968589D01*
X114985764Y-71880825D01*
X115148571Y-71703969D01*
X115280049Y-71502728D01*
X115376610Y-71282591D01*
X115435620Y-71049563D01*
X115452115Y-70850499D01*
X115455471Y-70810005D01*
X115455471Y-70809994D01*
X115435620Y-70570440D01*
X115435620Y-70570437D01*
X115376610Y-70337409D01*
X115280049Y-70117272D01*
X115255446Y-70079615D01*
X115181593Y-69966575D01*
X115148571Y-69916031D01*
X114985764Y-69739175D01*
X114985759Y-69739171D01*
X114985757Y-69739169D01*
X114796075Y-69591533D01*
X114796069Y-69591529D01*
X114584657Y-69477118D01*
X114584652Y-69477116D01*
X114357300Y-69399066D01*
X114179468Y-69369391D01*
X114120192Y-69359500D01*
X113879808Y-69359500D01*
X113832386Y-69367413D01*
X113642699Y-69399066D01*
X113415347Y-69477116D01*
X113415342Y-69477118D01*
X113203930Y-69591529D01*
X113203924Y-69591533D01*
X113014242Y-69739169D01*
X113014239Y-69739172D01*
X112851430Y-69916029D01*
X112851427Y-69916033D01*
X112719951Y-70117270D01*
X112623389Y-70337410D01*
X112564379Y-70570440D01*
X112544529Y-70809994D01*
X112544529Y-70810005D01*
X108500000Y-70810005D01*
X108500000Y-68904999D01*
X116119417Y-68904999D01*
X116139699Y-69110932D01*
X116139700Y-69110934D01*
X116199768Y-69308954D01*
X116297315Y-69491450D01*
X116297317Y-69491452D01*
X116428589Y-69651410D01*
X116519079Y-69725672D01*
X116588550Y-69782685D01*
X116771046Y-69880232D01*
X116969066Y-69940300D01*
X116969065Y-69940300D01*
X117007647Y-69944100D01*
X117123392Y-69955500D01*
X117123395Y-69955500D01*
X117226605Y-69955500D01*
X117226608Y-69955500D01*
X117380934Y-69940300D01*
X117578954Y-69880232D01*
X117761450Y-69782685D01*
X117921410Y-69651410D01*
X118052685Y-69491450D01*
X118150232Y-69308954D01*
X118210300Y-69110934D01*
X118214552Y-69067763D01*
X122145787Y-69067763D01*
X122175413Y-69337013D01*
X122175415Y-69337024D01*
X122243926Y-69599082D01*
X122243928Y-69599088D01*
X122349870Y-69848390D01*
X122405962Y-69940300D01*
X122490979Y-70079605D01*
X122490986Y-70079615D01*
X122664253Y-70287819D01*
X122664259Y-70287824D01*
X122719601Y-70337410D01*
X122865998Y-70468582D01*
X123091910Y-70618044D01*
X123337176Y-70733020D01*
X123337183Y-70733022D01*
X123337185Y-70733023D01*
X123596557Y-70811057D01*
X123596564Y-70811058D01*
X123596569Y-70811060D01*
X123864561Y-70850500D01*
X123864566Y-70850500D01*
X124067629Y-70850500D01*
X124067631Y-70850500D01*
X124067636Y-70850499D01*
X124067648Y-70850499D01*
X124105191Y-70847750D01*
X124270156Y-70835677D01*
X124385451Y-70809994D01*
X124534546Y-70776782D01*
X124534548Y-70776781D01*
X124534553Y-70776780D01*
X124787558Y-70680014D01*
X125023777Y-70547441D01*
X125238177Y-70381888D01*
X125426186Y-70186881D01*
X125583799Y-69966579D01*
X125691272Y-69757543D01*
X125707649Y-69725690D01*
X125707651Y-69725684D01*
X125707656Y-69725675D01*
X125795118Y-69469305D01*
X125844319Y-69202933D01*
X125854212Y-68932235D01*
X125824586Y-68662982D01*
X125756072Y-68400912D01*
X125650130Y-68151610D01*
X125509018Y-67920390D01*
X125419747Y-67813119D01*
X125335746Y-67712180D01*
X125335740Y-67712175D01*
X125134002Y-67531418D01*
X124908092Y-67381957D01*
X124908090Y-67381956D01*
X124662824Y-67266980D01*
X124662819Y-67266978D01*
X124662814Y-67266976D01*
X124403442Y-67188942D01*
X124403428Y-67188939D01*
X124287791Y-67171921D01*
X124135439Y-67149500D01*
X123932369Y-67149500D01*
X123932351Y-67149500D01*
X123729844Y-67164323D01*
X123729831Y-67164325D01*
X123465453Y-67223217D01*
X123465446Y-67223220D01*
X123212439Y-67319987D01*
X122976226Y-67452557D01*
X122761822Y-67618112D01*
X122573822Y-67813109D01*
X122573816Y-67813116D01*
X122416202Y-68033419D01*
X122416199Y-68033424D01*
X122292350Y-68274309D01*
X122292343Y-68274327D01*
X122204884Y-68530685D01*
X122204881Y-68530699D01*
X122155681Y-68797068D01*
X122155680Y-68797075D01*
X122145787Y-69067763D01*
X118214552Y-69067763D01*
X118230583Y-68905000D01*
X118210300Y-68699066D01*
X118150232Y-68501046D01*
X118052685Y-68318550D01*
X118000702Y-68255209D01*
X117921410Y-68158589D01*
X117803677Y-68061969D01*
X117761450Y-68027315D01*
X117578954Y-67929768D01*
X117380934Y-67869700D01*
X117380932Y-67869699D01*
X117380934Y-67869699D01*
X117261805Y-67857966D01*
X117226608Y-67854500D01*
X117123392Y-67854500D01*
X117085298Y-67858251D01*
X116969067Y-67869699D01*
X116771043Y-67929769D01*
X116661036Y-67988570D01*
X116588550Y-68027315D01*
X116588548Y-68027316D01*
X116588547Y-68027317D01*
X116428589Y-68158589D01*
X116297317Y-68318547D01*
X116199769Y-68501043D01*
X116139699Y-68699067D01*
X116119417Y-68904999D01*
X108500000Y-68904999D01*
X108500000Y-67000004D01*
X112245093Y-67000004D01*
X112264692Y-67261545D01*
X112264693Y-67261550D01*
X112323058Y-67517270D01*
X112418883Y-67761426D01*
X112418882Y-67761426D01*
X112550030Y-67988577D01*
X112597873Y-68048571D01*
X113359859Y-67286585D01*
X113419680Y-67400566D01*
X113532405Y-67527806D01*
X113672305Y-67624371D01*
X113713542Y-67640010D01*
X112950831Y-68402720D01*
X113122546Y-68519793D01*
X113122550Y-68519795D01*
X113358854Y-68633594D01*
X113358858Y-68633595D01*
X113609494Y-68710907D01*
X113609500Y-68710909D01*
X113868848Y-68749999D01*
X113868857Y-68750000D01*
X114131143Y-68750000D01*
X114131151Y-68749999D01*
X114390499Y-68710909D01*
X114390505Y-68710907D01*
X114641143Y-68633595D01*
X114877445Y-68519798D01*
X114877456Y-68519791D01*
X115049167Y-68402720D01*
X114286457Y-67640010D01*
X114327695Y-67624371D01*
X114467595Y-67527806D01*
X114580320Y-67400566D01*
X114640140Y-67286586D01*
X115402124Y-68048571D01*
X115449974Y-67988570D01*
X115581116Y-67761426D01*
X115676941Y-67517270D01*
X115735306Y-67261550D01*
X115735307Y-67261545D01*
X115754907Y-67000004D01*
X115754907Y-66999995D01*
X115735307Y-66738454D01*
X115735306Y-66738449D01*
X115676941Y-66482729D01*
X115581116Y-66238573D01*
X115581117Y-66238573D01*
X115449971Y-66011426D01*
X115402125Y-65951427D01*
X114640139Y-66713412D01*
X114580320Y-66599434D01*
X114467595Y-66472194D01*
X114327695Y-66375629D01*
X114286457Y-66359989D01*
X115049167Y-65597278D01*
X114877447Y-65480202D01*
X114877445Y-65480201D01*
X114641142Y-65366404D01*
X114641144Y-65366404D01*
X114390505Y-65289092D01*
X114390499Y-65289090D01*
X114131151Y-65250000D01*
X113868848Y-65250000D01*
X113609500Y-65289090D01*
X113609494Y-65289092D01*
X113358858Y-65366404D01*
X113358854Y-65366405D01*
X113122550Y-65480204D01*
X113122546Y-65480206D01*
X112950832Y-65597278D01*
X113713543Y-66359989D01*
X113672305Y-66375629D01*
X113532405Y-66472194D01*
X113419680Y-66599434D01*
X113359860Y-66713412D01*
X112597874Y-65951428D01*
X112550027Y-66011426D01*
X112418883Y-66238573D01*
X112323058Y-66482729D01*
X112264693Y-66738449D01*
X112264692Y-66738454D01*
X112245093Y-66999995D01*
X112245093Y-67000004D01*
X108500000Y-67000004D01*
X108500000Y-63624000D01*
X108519685Y-63556961D01*
X108572489Y-63511206D01*
X108624000Y-63500000D01*
X135676000Y-63500000D01*
X135743039Y-63519685D01*
G37*
%TD.AperFunction*%
%TD*%
%TA.AperFunction,Conductor*%
%TO.N,GND*%
G36*
X177443039Y-63519685D02*
G01*
X177488794Y-63572489D01*
X177500000Y-63624000D01*
X177500000Y-137376000D01*
X177480315Y-137443039D01*
X177427511Y-137488794D01*
X177376000Y-137500000D01*
X141124000Y-137500000D01*
X141056961Y-137480315D01*
X141011206Y-137427511D01*
X141000000Y-137376000D01*
X141000000Y-133540001D01*
X151164173Y-133540001D01*
X151182643Y-133751120D01*
X151182645Y-133751131D01*
X151237493Y-133955829D01*
X151237497Y-133955838D01*
X151327062Y-134147913D01*
X151364733Y-134201712D01*
X151928832Y-133637612D01*
X151929228Y-133642886D01*
X151979581Y-133771182D01*
X152065513Y-133878937D01*
X152179388Y-133956576D01*
X152284541Y-133989011D01*
X151718286Y-134555266D01*
X151772082Y-134592935D01*
X151772086Y-134592937D01*
X151964161Y-134682502D01*
X151964170Y-134682506D01*
X152168868Y-134737354D01*
X152168879Y-134737356D01*
X152379998Y-134755827D01*
X152380002Y-134755827D01*
X152591120Y-134737356D01*
X152591131Y-134737354D01*
X152795829Y-134682506D01*
X152795838Y-134682502D01*
X152987911Y-134592938D01*
X153041712Y-134555265D01*
X152474559Y-133988111D01*
X152516284Y-133981822D01*
X152640459Y-133922023D01*
X152741491Y-133828279D01*
X152810403Y-133708921D01*
X152827512Y-133633959D01*
X153395265Y-134201711D01*
X153432938Y-134147911D01*
X153522502Y-133955838D01*
X153522506Y-133955829D01*
X153577354Y-133751131D01*
X153577356Y-133751120D01*
X153595827Y-133540001D01*
X153595827Y-133540000D01*
X154003278Y-133540000D01*
X154023311Y-133730599D01*
X154023312Y-133730601D01*
X154082533Y-133912865D01*
X154082534Y-133912867D01*
X154131224Y-133997200D01*
X154178356Y-134078836D01*
X154275641Y-134186881D01*
X154288994Y-134201712D01*
X154306593Y-134221257D01*
X154398207Y-134287819D01*
X154461640Y-134333906D01*
X154528847Y-134363827D01*
X154636717Y-134411854D01*
X154824176Y-134451700D01*
X155015824Y-134451700D01*
X155203283Y-134411854D01*
X155378361Y-134333905D01*
X155533407Y-134221257D01*
X155661644Y-134078836D01*
X155757467Y-133912864D01*
X155816689Y-133730597D01*
X155836722Y-133540000D01*
X156543278Y-133540000D01*
X156563311Y-133730599D01*
X156563312Y-133730601D01*
X156622533Y-133912865D01*
X156622534Y-133912867D01*
X156671224Y-133997200D01*
X156718356Y-134078836D01*
X156815641Y-134186881D01*
X156828994Y-134201712D01*
X156846593Y-134221257D01*
X156938207Y-134287819D01*
X157001640Y-134333906D01*
X157068847Y-134363827D01*
X157176717Y-134411854D01*
X157364176Y-134451700D01*
X157555824Y-134451700D01*
X157743283Y-134411854D01*
X157918361Y-134333905D01*
X158073407Y-134221257D01*
X158201644Y-134078836D01*
X158297467Y-133912864D01*
X158356689Y-133730597D01*
X158376722Y-133540000D01*
X159083278Y-133540000D01*
X159103311Y-133730599D01*
X159103312Y-133730601D01*
X159162533Y-133912865D01*
X159162534Y-133912867D01*
X159211224Y-133997200D01*
X159258356Y-134078836D01*
X159355641Y-134186881D01*
X159368994Y-134201712D01*
X159386593Y-134221257D01*
X159478207Y-134287819D01*
X159541640Y-134333906D01*
X159608847Y-134363827D01*
X159716717Y-134411854D01*
X159904176Y-134451700D01*
X160095824Y-134451700D01*
X160283283Y-134411854D01*
X160458361Y-134333905D01*
X160613407Y-134221257D01*
X160741644Y-134078836D01*
X160837467Y-133912864D01*
X160896689Y-133730597D01*
X160916722Y-133540000D01*
X161623278Y-133540000D01*
X161643311Y-133730599D01*
X161643312Y-133730601D01*
X161702533Y-133912865D01*
X161702534Y-133912867D01*
X161751224Y-133997200D01*
X161798356Y-134078836D01*
X161895641Y-134186881D01*
X161908994Y-134201712D01*
X161926593Y-134221257D01*
X162018207Y-134287819D01*
X162081640Y-134333906D01*
X162148847Y-134363827D01*
X162256717Y-134411854D01*
X162444176Y-134451700D01*
X162635824Y-134451700D01*
X162823283Y-134411854D01*
X162998361Y-134333905D01*
X163153407Y-134221257D01*
X163281644Y-134078836D01*
X163377467Y-133912864D01*
X163436689Y-133730597D01*
X163456722Y-133540000D01*
X163436689Y-133349403D01*
X163377467Y-133167136D01*
X163320095Y-133067763D01*
X171145787Y-133067763D01*
X171175413Y-133337013D01*
X171175415Y-133337024D01*
X171243926Y-133599082D01*
X171243928Y-133599088D01*
X171349870Y-133848390D01*
X171421998Y-133966575D01*
X171490979Y-134079605D01*
X171490986Y-134079615D01*
X171664253Y-134287819D01*
X171664259Y-134287824D01*
X171865998Y-134468582D01*
X172091910Y-134618044D01*
X172337176Y-134733020D01*
X172337183Y-134733022D01*
X172337185Y-134733023D01*
X172596557Y-134811057D01*
X172596564Y-134811058D01*
X172596569Y-134811060D01*
X172864561Y-134850500D01*
X172864566Y-134850500D01*
X173067629Y-134850500D01*
X173067631Y-134850500D01*
X173067636Y-134850499D01*
X173067648Y-134850499D01*
X173105191Y-134847750D01*
X173270156Y-134835677D01*
X173382758Y-134810593D01*
X173534546Y-134776782D01*
X173534548Y-134776781D01*
X173534553Y-134776780D01*
X173787558Y-134680014D01*
X174023777Y-134547441D01*
X174238177Y-134381888D01*
X174426186Y-134186881D01*
X174583799Y-133966579D01*
X174657787Y-133822669D01*
X174707649Y-133725690D01*
X174707651Y-133725684D01*
X174707656Y-133725675D01*
X174795118Y-133469305D01*
X174844319Y-133202933D01*
X174854212Y-132932235D01*
X174824586Y-132662982D01*
X174756072Y-132400912D01*
X174650130Y-132151610D01*
X174509018Y-131920390D01*
X174501786Y-131911700D01*
X174335746Y-131712180D01*
X174335740Y-131712175D01*
X174134002Y-131531418D01*
X173908092Y-131381957D01*
X173888695Y-131372864D01*
X173662824Y-131266980D01*
X173662819Y-131266978D01*
X173662814Y-131266976D01*
X173403442Y-131188942D01*
X173403428Y-131188939D01*
X173287791Y-131171921D01*
X173135439Y-131149500D01*
X172932369Y-131149500D01*
X172932351Y-131149500D01*
X172729844Y-131164323D01*
X172729831Y-131164325D01*
X172465453Y-131223217D01*
X172465446Y-131223220D01*
X172212439Y-131319987D01*
X171976226Y-131452557D01*
X171761822Y-131618112D01*
X171573822Y-131813109D01*
X171573816Y-131813116D01*
X171416202Y-132033419D01*
X171416199Y-132033424D01*
X171292350Y-132274309D01*
X171292343Y-132274327D01*
X171204884Y-132530685D01*
X171204881Y-132530699D01*
X171184239Y-132642457D01*
X171160058Y-132773373D01*
X171155681Y-132797068D01*
X171155680Y-132797075D01*
X171145787Y-133067763D01*
X163320095Y-133067763D01*
X163281644Y-133001164D01*
X163153407Y-132858743D01*
X163035906Y-132773373D01*
X162998359Y-132746093D01*
X162863944Y-132686249D01*
X162823283Y-132668146D01*
X162823281Y-132668145D01*
X162823280Y-132668145D01*
X162635824Y-132628300D01*
X162444176Y-132628300D01*
X162256719Y-132668145D01*
X162081640Y-132746093D01*
X161926591Y-132858744D01*
X161798355Y-133001165D01*
X161702534Y-133167132D01*
X161702533Y-133167134D01*
X161643312Y-133349398D01*
X161643311Y-133349400D01*
X161623278Y-133540000D01*
X160916722Y-133540000D01*
X160896689Y-133349403D01*
X160837467Y-133167136D01*
X160741644Y-133001164D01*
X160613407Y-132858743D01*
X160495906Y-132773373D01*
X160458359Y-132746093D01*
X160323944Y-132686249D01*
X160283283Y-132668146D01*
X160283281Y-132668145D01*
X160283280Y-132668145D01*
X160095824Y-132628300D01*
X159904176Y-132628300D01*
X159716719Y-132668145D01*
X159541640Y-132746093D01*
X159386591Y-132858744D01*
X159258355Y-133001165D01*
X159162534Y-133167132D01*
X159162533Y-133167134D01*
X159103312Y-133349398D01*
X159103311Y-133349400D01*
X159083278Y-133540000D01*
X158376722Y-133540000D01*
X158356689Y-133349403D01*
X158297467Y-133167136D01*
X158201644Y-133001164D01*
X158073407Y-132858743D01*
X157955906Y-132773373D01*
X157918359Y-132746093D01*
X157783944Y-132686249D01*
X157743283Y-132668146D01*
X157743281Y-132668145D01*
X157743280Y-132668145D01*
X157555824Y-132628300D01*
X157364176Y-132628300D01*
X157176719Y-132668145D01*
X157001640Y-132746093D01*
X156846591Y-132858744D01*
X156718355Y-133001165D01*
X156622534Y-133167132D01*
X156622533Y-133167134D01*
X156563312Y-133349398D01*
X156563311Y-133349400D01*
X156543278Y-133540000D01*
X155836722Y-133540000D01*
X155816689Y-133349403D01*
X155757467Y-133167136D01*
X155661644Y-133001164D01*
X155533407Y-132858743D01*
X155415906Y-132773373D01*
X155378359Y-132746093D01*
X155243944Y-132686249D01*
X155203283Y-132668146D01*
X155203281Y-132668145D01*
X155203280Y-132668145D01*
X155015824Y-132628300D01*
X154824176Y-132628300D01*
X154636719Y-132668145D01*
X154461640Y-132746093D01*
X154306591Y-132858744D01*
X154178355Y-133001165D01*
X154082534Y-133167132D01*
X154082533Y-133167134D01*
X154023312Y-133349398D01*
X154023311Y-133349400D01*
X154003278Y-133540000D01*
X153595827Y-133540000D01*
X153595827Y-133539998D01*
X153577356Y-133328879D01*
X153577354Y-133328868D01*
X153522506Y-133124170D01*
X153522502Y-133124161D01*
X153432936Y-132932086D01*
X153432933Y-132932082D01*
X153395265Y-132878286D01*
X152831166Y-133442384D01*
X152830772Y-133437114D01*
X152780419Y-133308818D01*
X152694487Y-133201063D01*
X152580612Y-133123424D01*
X152475458Y-133090988D01*
X153041712Y-132524733D01*
X152987913Y-132487062D01*
X152795838Y-132397497D01*
X152795829Y-132397493D01*
X152591131Y-132342645D01*
X152591120Y-132342643D01*
X152380002Y-132324173D01*
X152379998Y-132324173D01*
X152168879Y-132342643D01*
X152168868Y-132342645D01*
X151964170Y-132397493D01*
X151964161Y-132397497D01*
X151772084Y-132487064D01*
X151718286Y-132524732D01*
X152285442Y-133091888D01*
X152243716Y-133098178D01*
X152119541Y-133157977D01*
X152018509Y-133251721D01*
X151949597Y-133371079D01*
X151932487Y-133446040D01*
X151364733Y-132878286D01*
X151364732Y-132878286D01*
X151327064Y-132932084D01*
X151237497Y-133124161D01*
X151237493Y-133124170D01*
X151182645Y-133328868D01*
X151182643Y-133328879D01*
X151164173Y-133539998D01*
X151164173Y-133540001D01*
X141000000Y-133540001D01*
X141000000Y-133374000D01*
X141019685Y-133306961D01*
X141072489Y-133261206D01*
X141124000Y-133250000D01*
X149000000Y-133250000D01*
X149000000Y-131000000D01*
X151463278Y-131000000D01*
X151483311Y-131190599D01*
X151483312Y-131190601D01*
X151542533Y-131372865D01*
X151542534Y-131372867D01*
X151574831Y-131428807D01*
X151638356Y-131538836D01*
X151766593Y-131681257D01*
X151827488Y-131725500D01*
X151921640Y-131793906D01*
X151988847Y-131823827D01*
X152096717Y-131871854D01*
X152284176Y-131911700D01*
X152475824Y-131911700D01*
X152663283Y-131871854D01*
X152838361Y-131793905D01*
X152993407Y-131681257D01*
X153121644Y-131538836D01*
X153217467Y-131372864D01*
X153276689Y-131190597D01*
X153296722Y-131000000D01*
X154003278Y-131000000D01*
X154023311Y-131190599D01*
X154023312Y-131190601D01*
X154082533Y-131372865D01*
X154082534Y-131372867D01*
X154114831Y-131428807D01*
X154178356Y-131538836D01*
X154306593Y-131681257D01*
X154367488Y-131725500D01*
X154461640Y-131793906D01*
X154528847Y-131823827D01*
X154636717Y-131871854D01*
X154824176Y-131911700D01*
X155015824Y-131911700D01*
X155203283Y-131871854D01*
X155378361Y-131793905D01*
X155533407Y-131681257D01*
X155661644Y-131538836D01*
X155757467Y-131372864D01*
X155816689Y-131190597D01*
X155836722Y-131000000D01*
X156543278Y-131000000D01*
X156563311Y-131190599D01*
X156563312Y-131190601D01*
X156622533Y-131372865D01*
X156622534Y-131372867D01*
X156654831Y-131428807D01*
X156718356Y-131538836D01*
X156846593Y-131681257D01*
X156907488Y-131725500D01*
X157001640Y-131793906D01*
X157068847Y-131823827D01*
X157176717Y-131871854D01*
X157364176Y-131911700D01*
X157555824Y-131911700D01*
X157743283Y-131871854D01*
X157918361Y-131793905D01*
X158073407Y-131681257D01*
X158201644Y-131538836D01*
X158297467Y-131372864D01*
X158356689Y-131190597D01*
X158376722Y-131000000D01*
X159083278Y-131000000D01*
X159103311Y-131190599D01*
X159103312Y-131190601D01*
X159162533Y-131372865D01*
X159162534Y-131372867D01*
X159194831Y-131428807D01*
X159258356Y-131538836D01*
X159386593Y-131681257D01*
X159447488Y-131725500D01*
X159541640Y-131793906D01*
X159608847Y-131823827D01*
X159716717Y-131871854D01*
X159904176Y-131911700D01*
X160095824Y-131911700D01*
X160283283Y-131871854D01*
X160458361Y-131793905D01*
X160613407Y-131681257D01*
X160741644Y-131538836D01*
X160837467Y-131372864D01*
X160896689Y-131190597D01*
X160916722Y-131000000D01*
X161623278Y-131000000D01*
X161643311Y-131190599D01*
X161643312Y-131190601D01*
X161702533Y-131372865D01*
X161702534Y-131372867D01*
X161734831Y-131428807D01*
X161798356Y-131538836D01*
X161926593Y-131681257D01*
X161987488Y-131725500D01*
X162081640Y-131793906D01*
X162148847Y-131823827D01*
X162256717Y-131871854D01*
X162444176Y-131911700D01*
X162635824Y-131911700D01*
X162823283Y-131871854D01*
X162998361Y-131793905D01*
X163153407Y-131681257D01*
X163281644Y-131538836D01*
X163377467Y-131372864D01*
X163436689Y-131190597D01*
X163456722Y-131000000D01*
X163436689Y-130809403D01*
X163377467Y-130627136D01*
X163281644Y-130461164D01*
X163153407Y-130318743D01*
X163101725Y-130281193D01*
X162998359Y-130206093D01*
X162863944Y-130146249D01*
X162823283Y-130128146D01*
X162823281Y-130128145D01*
X162823280Y-130128145D01*
X162635824Y-130088300D01*
X162444176Y-130088300D01*
X162256719Y-130128145D01*
X162081640Y-130206093D01*
X161926591Y-130318744D01*
X161798355Y-130461165D01*
X161702534Y-130627132D01*
X161702533Y-130627134D01*
X161643312Y-130809398D01*
X161643311Y-130809400D01*
X161623278Y-131000000D01*
X160916722Y-131000000D01*
X160896689Y-130809403D01*
X160837467Y-130627136D01*
X160741644Y-130461164D01*
X160613407Y-130318743D01*
X160561725Y-130281193D01*
X160458359Y-130206093D01*
X160323944Y-130146249D01*
X160283283Y-130128146D01*
X160283281Y-130128145D01*
X160283280Y-130128145D01*
X160095824Y-130088300D01*
X159904176Y-130088300D01*
X159716719Y-130128145D01*
X159541640Y-130206093D01*
X159386591Y-130318744D01*
X159258355Y-130461165D01*
X159162534Y-130627132D01*
X159162533Y-130627134D01*
X159103312Y-130809398D01*
X159103311Y-130809400D01*
X159083278Y-131000000D01*
X158376722Y-131000000D01*
X158356689Y-130809403D01*
X158297467Y-130627136D01*
X158201644Y-130461164D01*
X158073407Y-130318743D01*
X158021725Y-130281193D01*
X157918359Y-130206093D01*
X157783944Y-130146249D01*
X157743283Y-130128146D01*
X157743281Y-130128145D01*
X157743280Y-130128145D01*
X157555824Y-130088300D01*
X157364176Y-130088300D01*
X157176719Y-130128145D01*
X157001640Y-130206093D01*
X156846591Y-130318744D01*
X156718355Y-130461165D01*
X156622534Y-130627132D01*
X156622533Y-130627134D01*
X156563312Y-130809398D01*
X156563311Y-130809400D01*
X156543278Y-131000000D01*
X155836722Y-131000000D01*
X155816689Y-130809403D01*
X155757467Y-130627136D01*
X155661644Y-130461164D01*
X155533407Y-130318743D01*
X155481725Y-130281193D01*
X155378359Y-130206093D01*
X155243944Y-130146249D01*
X155203283Y-130128146D01*
X155203281Y-130128145D01*
X155203280Y-130128145D01*
X155015824Y-130088300D01*
X154824176Y-130088300D01*
X154636719Y-130128145D01*
X154461640Y-130206093D01*
X154306591Y-130318744D01*
X154178355Y-130461165D01*
X154082534Y-130627132D01*
X154082533Y-130627134D01*
X154023312Y-130809398D01*
X154023311Y-130809400D01*
X154003278Y-131000000D01*
X153296722Y-131000000D01*
X153276689Y-130809403D01*
X153217467Y-130627136D01*
X153121644Y-130461164D01*
X152993407Y-130318743D01*
X152941725Y-130281193D01*
X152838359Y-130206093D01*
X152703944Y-130146249D01*
X152663283Y-130128146D01*
X152663281Y-130128145D01*
X152663280Y-130128145D01*
X152475824Y-130088300D01*
X152284176Y-130088300D01*
X152096719Y-130128145D01*
X151921640Y-130206093D01*
X151766591Y-130318744D01*
X151638355Y-130461165D01*
X151542534Y-130627132D01*
X151542533Y-130627134D01*
X151483312Y-130809398D01*
X151483311Y-130809400D01*
X151463278Y-131000000D01*
X149000000Y-131000000D01*
X149000000Y-128900000D01*
X160894353Y-128900000D01*
X160914834Y-129042456D01*
X160928954Y-129073373D01*
X160974623Y-129173373D01*
X161068872Y-129282143D01*
X161189947Y-129359953D01*
X161189950Y-129359954D01*
X161189949Y-129359954D01*
X161328036Y-129400499D01*
X161328038Y-129400500D01*
X161328039Y-129400500D01*
X161471962Y-129400500D01*
X161471962Y-129400499D01*
X161610053Y-129359953D01*
X161731128Y-129282143D01*
X161825377Y-129173373D01*
X161885165Y-129042457D01*
X161905647Y-128900000D01*
X161885165Y-128757543D01*
X161825377Y-128626627D01*
X161731128Y-128517857D01*
X161731125Y-128517855D01*
X161724423Y-128512047D01*
X161725552Y-128510743D01*
X161686701Y-128465898D01*
X161675500Y-128414397D01*
X161675500Y-127959602D01*
X161695185Y-127892563D01*
X161725063Y-127862686D01*
X161724426Y-127861951D01*
X161731120Y-127856148D01*
X161731128Y-127856144D01*
X161825377Y-127747374D01*
X161885165Y-127616458D01*
X161905647Y-127474001D01*
X161885165Y-127331544D01*
X161825377Y-127200628D01*
X161731128Y-127091858D01*
X161610053Y-127014048D01*
X161610051Y-127014047D01*
X161610049Y-127014046D01*
X161610050Y-127014046D01*
X161471963Y-126973501D01*
X161471961Y-126973501D01*
X161328039Y-126973501D01*
X161328036Y-126973501D01*
X161189949Y-127014046D01*
X161068873Y-127091857D01*
X160974623Y-127200627D01*
X160974622Y-127200629D01*
X160914834Y-127331544D01*
X160894353Y-127474000D01*
X160914834Y-127616457D01*
X160933598Y-127657543D01*
X160974623Y-127747374D01*
X161068872Y-127856144D01*
X161068874Y-127856145D01*
X161075574Y-127861951D01*
X161074442Y-127863256D01*
X161113291Y-127908083D01*
X161124500Y-127959602D01*
X161124500Y-128414397D01*
X161104815Y-128481436D01*
X161074941Y-128511313D01*
X161075577Y-128512047D01*
X161068874Y-128517855D01*
X160974623Y-128626626D01*
X160974622Y-128626628D01*
X160914834Y-128757543D01*
X160894353Y-128900000D01*
X149000000Y-128900000D01*
X149000000Y-125825499D01*
X162288098Y-125825499D01*
X162308579Y-125967956D01*
X162361990Y-126084907D01*
X162368368Y-126098873D01*
X162462617Y-126207643D01*
X162462619Y-126207644D01*
X162462619Y-126207645D01*
X162517538Y-126242938D01*
X162563294Y-126295741D01*
X162574500Y-126347254D01*
X162574500Y-128265112D01*
X162554815Y-128332151D01*
X162544213Y-128346314D01*
X162474625Y-128426622D01*
X162474622Y-128426628D01*
X162414834Y-128557543D01*
X162394353Y-128700000D01*
X162414834Y-128842456D01*
X162453275Y-128926628D01*
X162474623Y-128973373D01*
X162568872Y-129082143D01*
X162689947Y-129159953D01*
X162689950Y-129159954D01*
X162689949Y-129159954D01*
X162765520Y-129182143D01*
X162826336Y-129200000D01*
X162828036Y-129200499D01*
X162828038Y-129200500D01*
X162828039Y-129200500D01*
X162971962Y-129200500D01*
X162971962Y-129200499D01*
X162973661Y-129200000D01*
X164594353Y-129200000D01*
X164614834Y-129342456D01*
X164674622Y-129473371D01*
X164674623Y-129473373D01*
X164768872Y-129582143D01*
X164889947Y-129659953D01*
X164889950Y-129659954D01*
X164889949Y-129659954D01*
X165028036Y-129700499D01*
X165028038Y-129700500D01*
X165028039Y-129700500D01*
X165171962Y-129700500D01*
X165171962Y-129700499D01*
X165310053Y-129659953D01*
X165431128Y-129582143D01*
X165525377Y-129473373D01*
X165585165Y-129342457D01*
X165605647Y-129200000D01*
X165585165Y-129057543D01*
X165525377Y-128926627D01*
X165431128Y-128817857D01*
X165431125Y-128817855D01*
X165424423Y-128812047D01*
X165425552Y-128810743D01*
X165386701Y-128765898D01*
X165375500Y-128714397D01*
X165375500Y-128359103D01*
X165395185Y-128292064D01*
X165425063Y-128262187D01*
X165424426Y-128261452D01*
X165431120Y-128255649D01*
X165431128Y-128255645D01*
X165525377Y-128146875D01*
X165585165Y-128015959D01*
X165605647Y-127873502D01*
X165585165Y-127731045D01*
X165525377Y-127600129D01*
X165431128Y-127491359D01*
X165310053Y-127413549D01*
X165310051Y-127413548D01*
X165310049Y-127413547D01*
X165310050Y-127413547D01*
X165171963Y-127373002D01*
X165171961Y-127373002D01*
X165028039Y-127373002D01*
X165028036Y-127373002D01*
X164889949Y-127413547D01*
X164768873Y-127491358D01*
X164674623Y-127600128D01*
X164674622Y-127600130D01*
X164614834Y-127731045D01*
X164594353Y-127873502D01*
X164614834Y-128015958D01*
X164641055Y-128073373D01*
X164674623Y-128146875D01*
X164768872Y-128255645D01*
X164768874Y-128255646D01*
X164775574Y-128261452D01*
X164774442Y-128262757D01*
X164813291Y-128307584D01*
X164824500Y-128359103D01*
X164824500Y-128714397D01*
X164804815Y-128781436D01*
X164774941Y-128811313D01*
X164775577Y-128812047D01*
X164768874Y-128817855D01*
X164674623Y-128926626D01*
X164674622Y-128926628D01*
X164614834Y-129057543D01*
X164594353Y-129200000D01*
X162973661Y-129200000D01*
X163110053Y-129159953D01*
X163231128Y-129082143D01*
X163325377Y-128973373D01*
X163385165Y-128842457D01*
X163405647Y-128700000D01*
X163385165Y-128557543D01*
X163325377Y-128426627D01*
X163325375Y-128426625D01*
X163325374Y-128426622D01*
X163255787Y-128346314D01*
X163226762Y-128282758D01*
X163225500Y-128265112D01*
X163225500Y-126111881D01*
X163236706Y-126060369D01*
X163278910Y-125967956D01*
X163299392Y-125825500D01*
X163278910Y-125683043D01*
X163219122Y-125552127D01*
X163124873Y-125443357D01*
X163003798Y-125365547D01*
X163003796Y-125365546D01*
X163003794Y-125365545D01*
X163003795Y-125365545D01*
X162865708Y-125325000D01*
X162865706Y-125325000D01*
X162721784Y-125325000D01*
X162721781Y-125325000D01*
X162583694Y-125365545D01*
X162462618Y-125443356D01*
X162368368Y-125552126D01*
X162368367Y-125552128D01*
X162308579Y-125683043D01*
X162288098Y-125825499D01*
X149000000Y-125825499D01*
X149000000Y-123900000D01*
X169594355Y-123900000D01*
X169595242Y-123907308D01*
X169599048Y-123938646D01*
X169599500Y-123946126D01*
X169599500Y-123985058D01*
X169608816Y-124022855D01*
X169610166Y-124030223D01*
X169614859Y-124068869D01*
X169614861Y-124068876D01*
X169628665Y-124105276D01*
X169630894Y-124112429D01*
X169640209Y-124150221D01*
X169640210Y-124150226D01*
X169658299Y-124184693D01*
X169661374Y-124191524D01*
X169675182Y-124227931D01*
X169675183Y-124227933D01*
X169697300Y-124259974D01*
X169701177Y-124266387D01*
X169719263Y-124300848D01*
X169719265Y-124300851D01*
X169745075Y-124329986D01*
X169749695Y-124335882D01*
X169771814Y-124367925D01*
X169771821Y-124367933D01*
X169800955Y-124393743D01*
X169806255Y-124399042D01*
X169832073Y-124428185D01*
X169864111Y-124450299D01*
X169870005Y-124454916D01*
X169879594Y-124463411D01*
X169899145Y-124480732D01*
X169899151Y-124480736D01*
X169933614Y-124498823D01*
X169940018Y-124502694D01*
X169972070Y-124524818D01*
X170008484Y-124538627D01*
X170015283Y-124541687D01*
X170049775Y-124559790D01*
X170049777Y-124559790D01*
X170049778Y-124559791D01*
X170056914Y-124561549D01*
X170087590Y-124569110D01*
X170094712Y-124571329D01*
X170131128Y-124585140D01*
X170150572Y-124587500D01*
X170169773Y-124589832D01*
X170177140Y-124591181D01*
X170201369Y-124597153D01*
X170214943Y-124600500D01*
X170214944Y-124600500D01*
X170257628Y-124600500D01*
X176076952Y-124600500D01*
X176080697Y-124600613D01*
X176088042Y-124601057D01*
X176142606Y-124604358D01*
X176180314Y-124597447D01*
X176203621Y-124593177D01*
X176207325Y-124592613D01*
X176230228Y-124589832D01*
X176268872Y-124585140D01*
X176278335Y-124581550D01*
X176299961Y-124575522D01*
X176300893Y-124575351D01*
X176309932Y-124573695D01*
X176366512Y-124548229D01*
X176369942Y-124546809D01*
X176427930Y-124524818D01*
X176436266Y-124519062D01*
X176455821Y-124508034D01*
X176465057Y-124503878D01*
X176513896Y-124465613D01*
X176516876Y-124463421D01*
X176567929Y-124428183D01*
X176609065Y-124381748D01*
X176611599Y-124379056D01*
X176679056Y-124311599D01*
X176681748Y-124309065D01*
X176728183Y-124267929D01*
X176729248Y-124266387D01*
X176736889Y-124255314D01*
X176763427Y-124216866D01*
X176765617Y-124213890D01*
X176803877Y-124165057D01*
X176808029Y-124155828D01*
X176819062Y-124136268D01*
X176819419Y-124135750D01*
X176824818Y-124127930D01*
X176846812Y-124069933D01*
X176848231Y-124066505D01*
X176873694Y-124009932D01*
X176875520Y-123999965D01*
X176881548Y-123978340D01*
X176885140Y-123968872D01*
X176892615Y-123907308D01*
X176893179Y-123903604D01*
X176897433Y-123880383D01*
X176904357Y-123842606D01*
X176903745Y-123832491D01*
X176904424Y-123810056D01*
X176904552Y-123808997D01*
X176905645Y-123800000D01*
X176898164Y-123738395D01*
X176897831Y-123734728D01*
X176894086Y-123672804D01*
X176891071Y-123663128D01*
X176886361Y-123641188D01*
X176885140Y-123631128D01*
X176863147Y-123573137D01*
X176861930Y-123569609D01*
X176843478Y-123510395D01*
X176843478Y-123510394D01*
X176838237Y-123501724D01*
X176828410Y-123481543D01*
X176824818Y-123472070D01*
X176789575Y-123421013D01*
X176787544Y-123417871D01*
X176779017Y-123403766D01*
X176755472Y-123364816D01*
X176748309Y-123357653D01*
X176733942Y-123340415D01*
X176728183Y-123332071D01*
X176681742Y-123290928D01*
X176679048Y-123288392D01*
X176635184Y-123244528D01*
X176626504Y-123239280D01*
X176608444Y-123225991D01*
X176600852Y-123219266D01*
X176600850Y-123219265D01*
X176600847Y-123219262D01*
X176545951Y-123190451D01*
X176542688Y-123188611D01*
X176489606Y-123156522D01*
X176489604Y-123156521D01*
X176479926Y-123153505D01*
X176459197Y-123144918D01*
X176450227Y-123140210D01*
X176390005Y-123125367D01*
X176386398Y-123124361D01*
X176327196Y-123105914D01*
X176317081Y-123105302D01*
X176294899Y-123101926D01*
X176293106Y-123101484D01*
X176285056Y-123099500D01*
X176285055Y-123099500D01*
X176223037Y-123099500D01*
X176219293Y-123099387D01*
X176157396Y-123095642D01*
X176157391Y-123095643D01*
X176147429Y-123097469D01*
X176125078Y-123099500D01*
X176114941Y-123099500D01*
X176054734Y-123114339D01*
X176051074Y-123115125D01*
X175990064Y-123126306D01*
X175990059Y-123126308D01*
X175980818Y-123130467D01*
X175959619Y-123137783D01*
X175949774Y-123140210D01*
X175894859Y-123169032D01*
X175891493Y-123170671D01*
X175874912Y-123178133D01*
X175851714Y-123188574D01*
X175800822Y-123199500D01*
X170385056Y-123199500D01*
X170214944Y-123199500D01*
X170204363Y-123202107D01*
X170177143Y-123208816D01*
X170169776Y-123210166D01*
X170131126Y-123214860D01*
X170094725Y-123228664D01*
X170087576Y-123230891D01*
X170049775Y-123240210D01*
X170049770Y-123240212D01*
X170015296Y-123258303D01*
X170008467Y-123261377D01*
X169972071Y-123275180D01*
X169972069Y-123275181D01*
X169940027Y-123297299D01*
X169933617Y-123301174D01*
X169899149Y-123319265D01*
X169870005Y-123345082D01*
X169864110Y-123349700D01*
X169832072Y-123371815D01*
X169832071Y-123371816D01*
X169806253Y-123400957D01*
X169800957Y-123406253D01*
X169771816Y-123432071D01*
X169771815Y-123432072D01*
X169749700Y-123464110D01*
X169745082Y-123470005D01*
X169719265Y-123499149D01*
X169701174Y-123533617D01*
X169697299Y-123540027D01*
X169675181Y-123572069D01*
X169675180Y-123572071D01*
X169661377Y-123608467D01*
X169658303Y-123615296D01*
X169640212Y-123649770D01*
X169640210Y-123649775D01*
X169630891Y-123687576D01*
X169628664Y-123694725D01*
X169614860Y-123731126D01*
X169610166Y-123769776D01*
X169608816Y-123777143D01*
X169599500Y-123814945D01*
X169599500Y-123853872D01*
X169599048Y-123861348D01*
X169594355Y-123900000D01*
X149000000Y-123900000D01*
X149000000Y-122250000D01*
X142250000Y-122250000D01*
X142250000Y-125876000D01*
X142230315Y-125943039D01*
X142177511Y-125988794D01*
X142126000Y-126000000D01*
X137374000Y-126000000D01*
X137306961Y-125980315D01*
X137261206Y-125927511D01*
X137250000Y-125876000D01*
X137250000Y-121174000D01*
X137269685Y-121106961D01*
X137322489Y-121061206D01*
X137374000Y-121050000D01*
X142850000Y-121050000D01*
X142850000Y-115999974D01*
X142832824Y-111499999D01*
X148294353Y-111499999D01*
X148314834Y-111642456D01*
X148363293Y-111748565D01*
X148374623Y-111773373D01*
X148468872Y-111882143D01*
X148517540Y-111913419D01*
X148563294Y-111966221D01*
X148574500Y-112017734D01*
X148574500Y-115465112D01*
X148554815Y-115532151D01*
X148544213Y-115546314D01*
X148474625Y-115626622D01*
X148474622Y-115626628D01*
X148414834Y-115757543D01*
X148394353Y-115899999D01*
X148414834Y-116042456D01*
X148453275Y-116126628D01*
X148474623Y-116173373D01*
X148568872Y-116282143D01*
X148689947Y-116359953D01*
X148689950Y-116359954D01*
X148689949Y-116359954D01*
X148796437Y-116391221D01*
X148826336Y-116400000D01*
X148828036Y-116400499D01*
X148828038Y-116400500D01*
X148828039Y-116400500D01*
X148971962Y-116400500D01*
X148971962Y-116400499D01*
X149079121Y-116369035D01*
X149110050Y-116359954D01*
X149110050Y-116359953D01*
X149110053Y-116359953D01*
X149231128Y-116282143D01*
X149325377Y-116173373D01*
X149385165Y-116042457D01*
X149405647Y-115900000D01*
X149405647Y-115899999D01*
X150194353Y-115899999D01*
X150214834Y-116042456D01*
X150253275Y-116126628D01*
X150274623Y-116173373D01*
X150368872Y-116282143D01*
X150368874Y-116282144D01*
X150368876Y-116282146D01*
X150443907Y-116330366D01*
X150489662Y-116383170D01*
X150499606Y-116452328D01*
X150470582Y-116515883D01*
X150374623Y-116626627D01*
X150374622Y-116626628D01*
X150314834Y-116757543D01*
X150294353Y-116900000D01*
X150314834Y-117042456D01*
X150328954Y-117073373D01*
X150374623Y-117173373D01*
X150468872Y-117282143D01*
X150589947Y-117359953D01*
X150589950Y-117359954D01*
X150589949Y-117359954D01*
X150728036Y-117400499D01*
X150728038Y-117400500D01*
X150728039Y-117400500D01*
X150871962Y-117400500D01*
X150871962Y-117400499D01*
X151010053Y-117359953D01*
X151131128Y-117282143D01*
X151143126Y-117268296D01*
X151201903Y-117230523D01*
X151236838Y-117225500D01*
X151526985Y-117225500D01*
X151594024Y-117245185D01*
X151614666Y-117261819D01*
X151664621Y-117311774D01*
X151698106Y-117373097D01*
X151699351Y-117384681D01*
X151699678Y-117384635D01*
X151721421Y-117535869D01*
X151739280Y-117574973D01*
X151781210Y-117666786D01*
X151875459Y-117775556D01*
X151996534Y-117853366D01*
X151996537Y-117853367D01*
X151996536Y-117853367D01*
X152134623Y-117893912D01*
X152134625Y-117893913D01*
X152134626Y-117893913D01*
X152278549Y-117893913D01*
X152278549Y-117893912D01*
X152416640Y-117853366D01*
X152537715Y-117775556D01*
X152631964Y-117666786D01*
X152691752Y-117535870D01*
X152712234Y-117393413D01*
X152691752Y-117250956D01*
X152631964Y-117120040D01*
X152537715Y-117011270D01*
X152537712Y-117011268D01*
X152518474Y-116998904D01*
X152472719Y-116946100D01*
X152462776Y-116876941D01*
X152491802Y-116813386D01*
X152518473Y-116790275D01*
X152531128Y-116782143D01*
X152625377Y-116673373D01*
X152685165Y-116542457D01*
X152705647Y-116400000D01*
X152685165Y-116257543D01*
X152625377Y-116126627D01*
X152531128Y-116017857D01*
X152410053Y-115940047D01*
X152410051Y-115940046D01*
X152410049Y-115940045D01*
X152410050Y-115940045D01*
X152271963Y-115899500D01*
X152271961Y-115899500D01*
X152211188Y-115899500D01*
X152144149Y-115879815D01*
X152123507Y-115863181D01*
X152057390Y-115797064D01*
X151942119Y-115681793D01*
X151938474Y-115677814D01*
X151912456Y-115646807D01*
X151912455Y-115646806D01*
X151899411Y-115639275D01*
X151877392Y-115626561D01*
X151872831Y-115623655D01*
X151859687Y-115614452D01*
X151839684Y-115600446D01*
X151839681Y-115600445D01*
X151834861Y-115598197D01*
X151818055Y-115591235D01*
X151813043Y-115589411D01*
X151773190Y-115582383D01*
X151767910Y-115581212D01*
X151728808Y-115570735D01*
X151693892Y-115573790D01*
X151688481Y-115574264D01*
X151683078Y-115574500D01*
X151136838Y-115574500D01*
X151069799Y-115554815D01*
X151043127Y-115531704D01*
X151031128Y-115517857D01*
X150910053Y-115440047D01*
X150910051Y-115440046D01*
X150910049Y-115440045D01*
X150910050Y-115440045D01*
X150771963Y-115399500D01*
X150771961Y-115399500D01*
X150628039Y-115399500D01*
X150628036Y-115399500D01*
X150489949Y-115440045D01*
X150368873Y-115517856D01*
X150274623Y-115626626D01*
X150274622Y-115626628D01*
X150214834Y-115757543D01*
X150194353Y-115899999D01*
X149405647Y-115899999D01*
X149385165Y-115757543D01*
X149325377Y-115626627D01*
X149325375Y-115626625D01*
X149325374Y-115626622D01*
X149255787Y-115546314D01*
X149226762Y-115482758D01*
X149225500Y-115465112D01*
X149225500Y-111800077D01*
X149236706Y-111748565D01*
X149285165Y-111642456D01*
X149305647Y-111500000D01*
X149285165Y-111357543D01*
X149225377Y-111226627D01*
X149131128Y-111117857D01*
X149010053Y-111040047D01*
X149010051Y-111040046D01*
X149010049Y-111040045D01*
X149010050Y-111040045D01*
X148871963Y-110999500D01*
X148871961Y-110999500D01*
X148728039Y-110999500D01*
X148728036Y-110999500D01*
X148589949Y-111040045D01*
X148468873Y-111117856D01*
X148374623Y-111226626D01*
X148374622Y-111226628D01*
X148314834Y-111357543D01*
X148294353Y-111499999D01*
X142832824Y-111499999D01*
X142800000Y-102900025D01*
X142800000Y-93799999D01*
X148294353Y-93799999D01*
X148314834Y-93942456D01*
X148374622Y-94073371D01*
X148374623Y-94073373D01*
X148468872Y-94182143D01*
X148589947Y-94259953D01*
X148589950Y-94259954D01*
X148589949Y-94259954D01*
X148728036Y-94300499D01*
X148728038Y-94300500D01*
X148728039Y-94300500D01*
X148871962Y-94300500D01*
X148871962Y-94300499D01*
X149010053Y-94259953D01*
X149131128Y-94182143D01*
X149225377Y-94073373D01*
X149285165Y-93942457D01*
X149305647Y-93800000D01*
X149285165Y-93657543D01*
X149225377Y-93526627D01*
X149225375Y-93526625D01*
X149225374Y-93526622D01*
X149155787Y-93446314D01*
X149126762Y-93382758D01*
X149125500Y-93365112D01*
X149125500Y-92434887D01*
X149145185Y-92367848D01*
X149155782Y-92353689D01*
X149225377Y-92273373D01*
X149285165Y-92142457D01*
X149305647Y-92000000D01*
X149285165Y-91857543D01*
X149225377Y-91726627D01*
X149131128Y-91617857D01*
X149010053Y-91540047D01*
X149010051Y-91540046D01*
X149010049Y-91540045D01*
X149010050Y-91540045D01*
X148871963Y-91499500D01*
X148871961Y-91499500D01*
X148728039Y-91499500D01*
X148728036Y-91499500D01*
X148589949Y-91540045D01*
X148468873Y-91617856D01*
X148374623Y-91726626D01*
X148374622Y-91726628D01*
X148314834Y-91857543D01*
X148294353Y-92000000D01*
X148314834Y-92142456D01*
X148332959Y-92182143D01*
X148374623Y-92273373D01*
X148444213Y-92353685D01*
X148473238Y-92417240D01*
X148474500Y-92434887D01*
X148474500Y-93365112D01*
X148454815Y-93432151D01*
X148444213Y-93446314D01*
X148374625Y-93526622D01*
X148374622Y-93526628D01*
X148314834Y-93657543D01*
X148294353Y-93799999D01*
X142800000Y-93799999D01*
X142800000Y-82799996D01*
X142798623Y-82773380D01*
X142790706Y-82620326D01*
X142791801Y-82596299D01*
X142805647Y-82500000D01*
X142785165Y-82357543D01*
X142785163Y-82357538D01*
X142782667Y-82349036D01*
X142783376Y-82348827D01*
X142774865Y-82314061D01*
X142642241Y-79750000D01*
X142994353Y-79750000D01*
X143014834Y-79892456D01*
X143074622Y-80023371D01*
X143074623Y-80023373D01*
X143168872Y-80132143D01*
X143289947Y-80209953D01*
X143289950Y-80209954D01*
X143289949Y-80209954D01*
X143428036Y-80250499D01*
X143428038Y-80250500D01*
X143428039Y-80250500D01*
X143571962Y-80250500D01*
X143571962Y-80250499D01*
X143710053Y-80209953D01*
X143831128Y-80132143D01*
X143925377Y-80023373D01*
X143985165Y-79892457D01*
X144005647Y-79750000D01*
X143985165Y-79607543D01*
X143925377Y-79476627D01*
X143855785Y-79396313D01*
X143826761Y-79332759D01*
X143825500Y-79315125D01*
X143825500Y-78184886D01*
X143845185Y-78117847D01*
X143855782Y-78103689D01*
X143925377Y-78023373D01*
X143985165Y-77892457D01*
X144005647Y-77750000D01*
X143985165Y-77607543D01*
X143925377Y-77476627D01*
X143831128Y-77367857D01*
X143710053Y-77290047D01*
X143710051Y-77290046D01*
X143710049Y-77290045D01*
X143710050Y-77290045D01*
X143571963Y-77249500D01*
X143571961Y-77249500D01*
X143428039Y-77249500D01*
X143428036Y-77249500D01*
X143289949Y-77290045D01*
X143168873Y-77367856D01*
X143074623Y-77476626D01*
X143074622Y-77476628D01*
X143014834Y-77607543D01*
X142994353Y-77749999D01*
X143014834Y-77892456D01*
X143074622Y-78023371D01*
X143074623Y-78023373D01*
X143144213Y-78103685D01*
X143173238Y-78167240D01*
X143174500Y-78184887D01*
X143174500Y-79315112D01*
X143154815Y-79382151D01*
X143144213Y-79396314D01*
X143074625Y-79476622D01*
X143074622Y-79476628D01*
X143014834Y-79607543D01*
X142994353Y-79750000D01*
X142642241Y-79750000D01*
X142500000Y-77000000D01*
X131624000Y-77000000D01*
X131556961Y-76980315D01*
X131511206Y-76927511D01*
X131500000Y-76876000D01*
X131500000Y-73624000D01*
X131519685Y-73556961D01*
X131572489Y-73511206D01*
X131624000Y-73500000D01*
X132400000Y-73500000D01*
X133500000Y-72400000D01*
X136594353Y-72400000D01*
X136614834Y-72542456D01*
X136674622Y-72673371D01*
X136674623Y-72673373D01*
X136768872Y-72782143D01*
X136889947Y-72859953D01*
X136889950Y-72859954D01*
X136889949Y-72859954D01*
X137028036Y-72900499D01*
X137028038Y-72900500D01*
X137028039Y-72900500D01*
X137171962Y-72900500D01*
X137171962Y-72900499D01*
X137310053Y-72859953D01*
X137431128Y-72782143D01*
X137443126Y-72768296D01*
X137501903Y-72730523D01*
X137536838Y-72725500D01*
X138563162Y-72725500D01*
X138630201Y-72745185D01*
X138656872Y-72768295D01*
X138668872Y-72782143D01*
X138789947Y-72859953D01*
X138789950Y-72859954D01*
X138789949Y-72859954D01*
X138928036Y-72900499D01*
X138928038Y-72900500D01*
X138928039Y-72900500D01*
X139071962Y-72900500D01*
X139071962Y-72900499D01*
X139210053Y-72859953D01*
X139331128Y-72782143D01*
X139425377Y-72673373D01*
X139485165Y-72542457D01*
X139505647Y-72400000D01*
X139485165Y-72257543D01*
X139425377Y-72126627D01*
X139331128Y-72017857D01*
X139210053Y-71940047D01*
X139210051Y-71940046D01*
X139210049Y-71940045D01*
X139210050Y-71940045D01*
X139071963Y-71899500D01*
X139071961Y-71899500D01*
X138928039Y-71899500D01*
X138928036Y-71899500D01*
X138789949Y-71940045D01*
X138668873Y-72017856D01*
X138668872Y-72017856D01*
X138668872Y-72017857D01*
X138656873Y-72031703D01*
X138598097Y-72069477D01*
X138563162Y-72074500D01*
X137536838Y-72074500D01*
X137469799Y-72054815D01*
X137443127Y-72031704D01*
X137431128Y-72017857D01*
X137310053Y-71940047D01*
X137310051Y-71940046D01*
X137310049Y-71940045D01*
X137310050Y-71940045D01*
X137171963Y-71899500D01*
X137171961Y-71899500D01*
X137028039Y-71899500D01*
X137028036Y-71899500D01*
X136889949Y-71940045D01*
X136768873Y-72017856D01*
X136674623Y-72126626D01*
X136674622Y-72126628D01*
X136614834Y-72257543D01*
X136594353Y-72400000D01*
X133500000Y-72400000D01*
X136700000Y-69200000D01*
X136700000Y-68080936D01*
X152295631Y-68080936D01*
X152326442Y-68282063D01*
X152326445Y-68282075D01*
X152397111Y-68472881D01*
X152397115Y-68472888D01*
X152504745Y-68645567D01*
X152504747Y-68645569D01*
X152504748Y-68645571D01*
X152644941Y-68793053D01*
X152773344Y-68882424D01*
X152811949Y-68909294D01*
X152811950Y-68909294D01*
X152811951Y-68909295D01*
X152998942Y-68989540D01*
X153198259Y-69030500D01*
X153350743Y-69030500D01*
X153502439Y-69015074D01*
X153696579Y-68954162D01*
X153696580Y-68954161D01*
X153696588Y-68954159D01*
X153874502Y-68855409D01*
X154028895Y-68722866D01*
X154153448Y-68561958D01*
X154243060Y-68379271D01*
X154294063Y-68182285D01*
X154299203Y-68080936D01*
X157145631Y-68080936D01*
X157176442Y-68282063D01*
X157176445Y-68282075D01*
X157247111Y-68472881D01*
X157247115Y-68472888D01*
X157354745Y-68645567D01*
X157354747Y-68645569D01*
X157354748Y-68645571D01*
X157494941Y-68793053D01*
X157623344Y-68882424D01*
X157661949Y-68909294D01*
X157661950Y-68909294D01*
X157661951Y-68909295D01*
X157848942Y-68989540D01*
X158048259Y-69030500D01*
X158200743Y-69030500D01*
X158352439Y-69015074D01*
X158546579Y-68954162D01*
X158546580Y-68954161D01*
X158546588Y-68954159D01*
X158724502Y-68855409D01*
X158878895Y-68722866D01*
X159003448Y-68561958D01*
X159093060Y-68379271D01*
X159144063Y-68182285D01*
X159149871Y-68067763D01*
X171145787Y-68067763D01*
X171175413Y-68337013D01*
X171175415Y-68337024D01*
X171210935Y-68472888D01*
X171243928Y-68599088D01*
X171349870Y-68848390D01*
X171490979Y-69079605D01*
X171490986Y-69079615D01*
X171664253Y-69287819D01*
X171664259Y-69287824D01*
X171865998Y-69468582D01*
X172091910Y-69618044D01*
X172337176Y-69733020D01*
X172337183Y-69733022D01*
X172337185Y-69733023D01*
X172596557Y-69811057D01*
X172596564Y-69811058D01*
X172596569Y-69811060D01*
X172864561Y-69850500D01*
X172864566Y-69850500D01*
X173067629Y-69850500D01*
X173067631Y-69850500D01*
X173067636Y-69850499D01*
X173067648Y-69850499D01*
X173105191Y-69847750D01*
X173270156Y-69835677D01*
X173382758Y-69810593D01*
X173534546Y-69776782D01*
X173534548Y-69776781D01*
X173534553Y-69776780D01*
X173787558Y-69680014D01*
X174023777Y-69547441D01*
X174238177Y-69381888D01*
X174426186Y-69186881D01*
X174583799Y-68966579D01*
X174673016Y-68793050D01*
X174707649Y-68725690D01*
X174707651Y-68725684D01*
X174707656Y-68725675D01*
X174795118Y-68469305D01*
X174844319Y-68202933D01*
X174854212Y-67932235D01*
X174824586Y-67662982D01*
X174756072Y-67400912D01*
X174650130Y-67151610D01*
X174509018Y-66920390D01*
X174419747Y-66813119D01*
X174335746Y-66712180D01*
X174335740Y-66712175D01*
X174134002Y-66531418D01*
X173908092Y-66381957D01*
X173908090Y-66381956D01*
X173662824Y-66266980D01*
X173662819Y-66266978D01*
X173662814Y-66266976D01*
X173403442Y-66188942D01*
X173403428Y-66188939D01*
X173287791Y-66171921D01*
X173135439Y-66149500D01*
X172932369Y-66149500D01*
X172932351Y-66149500D01*
X172729844Y-66164323D01*
X172729831Y-66164325D01*
X172465453Y-66223217D01*
X172465446Y-66223220D01*
X172212439Y-66319987D01*
X171976226Y-66452557D01*
X171761822Y-66618112D01*
X171573822Y-66813109D01*
X171573816Y-66813116D01*
X171416202Y-67033419D01*
X171416199Y-67033424D01*
X171292350Y-67274309D01*
X171292343Y-67274327D01*
X171204884Y-67530685D01*
X171204881Y-67530699D01*
X171155681Y-67797068D01*
X171155680Y-67797075D01*
X171145787Y-68067763D01*
X159149871Y-68067763D01*
X159154369Y-67979064D01*
X159123556Y-67777929D01*
X159052886Y-67587113D01*
X158945252Y-67414429D01*
X158805059Y-67266947D01*
X158706587Y-67198409D01*
X158638050Y-67150705D01*
X158451056Y-67070459D01*
X158251741Y-67029500D01*
X158099258Y-67029500D01*
X158099257Y-67029500D01*
X157947560Y-67044925D01*
X157753420Y-67105837D01*
X157753405Y-67105844D01*
X157575500Y-67204589D01*
X157575495Y-67204592D01*
X157421106Y-67337132D01*
X157421104Y-67337134D01*
X157296554Y-67498037D01*
X157296553Y-67498040D01*
X157206940Y-67680728D01*
X157155937Y-67877714D01*
X157145631Y-68080936D01*
X154299203Y-68080936D01*
X154304369Y-67979064D01*
X154273556Y-67777929D01*
X154202886Y-67587113D01*
X154095252Y-67414429D01*
X153955059Y-67266947D01*
X153856587Y-67198409D01*
X153788050Y-67150705D01*
X153601056Y-67070459D01*
X153401741Y-67029500D01*
X153249258Y-67029500D01*
X153249257Y-67029500D01*
X153097560Y-67044925D01*
X152903420Y-67105837D01*
X152903405Y-67105844D01*
X152725500Y-67204589D01*
X152725495Y-67204592D01*
X152571106Y-67337132D01*
X152571104Y-67337134D01*
X152446554Y-67498037D01*
X152446553Y-67498040D01*
X152356940Y-67680728D01*
X152305937Y-67877714D01*
X152295631Y-68080936D01*
X136700000Y-68080936D01*
X136700000Y-65106610D01*
X151849500Y-65106610D01*
X151888679Y-65316198D01*
X151965702Y-65515019D01*
X152077948Y-65696302D01*
X152221593Y-65853872D01*
X152391746Y-65982367D01*
X152582606Y-66077403D01*
X152582608Y-66077403D01*
X152582611Y-66077405D01*
X152787690Y-66135756D01*
X152946806Y-66150500D01*
X152946810Y-66150500D01*
X153053190Y-66150500D01*
X153053194Y-66150500D01*
X153212310Y-66135756D01*
X153417389Y-66077405D01*
X153417393Y-66077403D01*
X153417394Y-66077403D01*
X153608253Y-65982367D01*
X153608253Y-65982366D01*
X153608255Y-65982366D01*
X153778407Y-65853872D01*
X153922052Y-65696302D01*
X154034298Y-65515019D01*
X154111321Y-65316198D01*
X154150500Y-65106610D01*
X157299500Y-65106610D01*
X157338679Y-65316198D01*
X157415702Y-65515019D01*
X157527948Y-65696302D01*
X157671593Y-65853872D01*
X157841746Y-65982367D01*
X158032606Y-66077403D01*
X158032608Y-66077403D01*
X158032611Y-66077405D01*
X158237690Y-66135756D01*
X158396806Y-66150500D01*
X158396810Y-66150500D01*
X158503190Y-66150500D01*
X158503194Y-66150500D01*
X158662310Y-66135756D01*
X158867389Y-66077405D01*
X158867393Y-66077403D01*
X158867394Y-66077403D01*
X159058253Y-65982367D01*
X159058253Y-65982366D01*
X159058255Y-65982366D01*
X159228407Y-65853872D01*
X159372052Y-65696302D01*
X159484298Y-65515019D01*
X159561321Y-65316198D01*
X159600500Y-65106610D01*
X159600500Y-64893390D01*
X159561321Y-64683802D01*
X159484298Y-64484981D01*
X159372052Y-64303698D01*
X159228407Y-64146128D01*
X159228406Y-64146127D01*
X159058253Y-64017632D01*
X158867393Y-63922596D01*
X158662310Y-63864244D01*
X158662309Y-63864244D01*
X158503194Y-63849500D01*
X158396806Y-63849500D01*
X158269513Y-63861295D01*
X158237689Y-63864244D01*
X158032607Y-63922596D01*
X158032605Y-63922596D01*
X157841746Y-64017632D01*
X157671593Y-64146127D01*
X157527947Y-64303699D01*
X157415702Y-64484980D01*
X157415701Y-64484982D01*
X157338680Y-64683799D01*
X157338679Y-64683802D01*
X157299500Y-64893390D01*
X157299500Y-65106610D01*
X154150500Y-65106610D01*
X154150500Y-64893390D01*
X154111321Y-64683802D01*
X154034298Y-64484981D01*
X153922052Y-64303698D01*
X153778407Y-64146128D01*
X153778406Y-64146127D01*
X153608253Y-64017632D01*
X153417393Y-63922596D01*
X153212310Y-63864244D01*
X153212309Y-63864244D01*
X153053194Y-63849500D01*
X152946806Y-63849500D01*
X152819513Y-63861295D01*
X152787689Y-63864244D01*
X152582607Y-63922596D01*
X152582605Y-63922596D01*
X152391746Y-64017632D01*
X152221593Y-64146127D01*
X152077947Y-64303699D01*
X151965702Y-64484980D01*
X151965701Y-64484982D01*
X151888680Y-64683799D01*
X151888679Y-64683802D01*
X151849500Y-64893390D01*
X151849500Y-65106610D01*
X136700000Y-65106610D01*
X136700000Y-63623999D01*
X136719685Y-63556961D01*
X136772489Y-63511206D01*
X136824000Y-63500000D01*
X177376000Y-63500000D01*
X177443039Y-63519685D01*
G37*
%TD.AperFunction*%
%TD*%
M02*
