%TF.GenerationSoftware,KiCad,Pcbnew,7.0.5-7.0.5~ubuntu22.04.1*%
%TF.CreationDate,2023-07-07T22:55:56+02:00*%
%TF.ProjectId,door_if3_usb_machine,646f6f72-5f69-4663-935f-7573625f6d61,rev?*%
%TF.SameCoordinates,Original*%
%TF.FileFunction,Legend,Bot*%
%TF.FilePolarity,Positive*%
%FSLAX46Y46*%
G04 Gerber Fmt 4.6, Leading zero omitted, Abs format (unit mm)*
G04 Created by KiCad (PCBNEW 7.0.5-7.0.5~ubuntu22.04.1) date 2023-07-07 22:55:56*
%MOMM*%
%LPD*%
G01*
G04 APERTURE LIST*
G04 Aperture macros list*
%AMRoundRect*
0 Rectangle with rounded corners*
0 $1 Rounding radius*
0 $2 $3 $4 $5 $6 $7 $8 $9 X,Y pos of 4 corners*
0 Add a 4 corners polygon primitive as box body*
4,1,4,$2,$3,$4,$5,$6,$7,$8,$9,$2,$3,0*
0 Add four circle primitives for the rounded corners*
1,1,$1+$1,$2,$3*
1,1,$1+$1,$4,$5*
1,1,$1+$1,$6,$7*
1,1,$1+$1,$8,$9*
0 Add four rect primitives between the rounded corners*
20,1,$1+$1,$2,$3,$4,$5,0*
20,1,$1+$1,$4,$5,$6,$7,0*
20,1,$1+$1,$6,$7,$8,$9,0*
20,1,$1+$1,$8,$9,$2,$3,0*%
G04 Aperture macros list end*
%ADD10C,0.150000*%
%ADD11C,0.100000*%
%ADD12C,0.120000*%
%ADD13C,1.600000*%
%ADD14C,2.500000*%
%ADD15C,3.200000*%
%ADD16C,1.422400*%
%ADD17O,1.800000X1.800000*%
%ADD18O,1.500000X1.500000*%
%ADD19RoundRect,0.250000X-1.500000X-0.900000X1.500000X-0.900000X1.500000X0.900000X-1.500000X0.900000X0*%
%ADD20RoundRect,0.250000X-0.900000X1.500000X-0.900000X-1.500000X0.900000X-1.500000X0.900000X1.500000X0*%
%ADD21RoundRect,0.250000X0.900000X-1.500000X0.900000X1.500000X-0.900000X1.500000X-0.900000X-1.500000X0*%
G04 APERTURE END LIST*
D10*
%TO.C,D13*%
X125014285Y-111554819D02*
X125014285Y-110554819D01*
X125014285Y-110554819D02*
X124776190Y-110554819D01*
X124776190Y-110554819D02*
X124633333Y-110602438D01*
X124633333Y-110602438D02*
X124538095Y-110697676D01*
X124538095Y-110697676D02*
X124490476Y-110792914D01*
X124490476Y-110792914D02*
X124442857Y-110983390D01*
X124442857Y-110983390D02*
X124442857Y-111126247D01*
X124442857Y-111126247D02*
X124490476Y-111316723D01*
X124490476Y-111316723D02*
X124538095Y-111411961D01*
X124538095Y-111411961D02*
X124633333Y-111507200D01*
X124633333Y-111507200D02*
X124776190Y-111554819D01*
X124776190Y-111554819D02*
X125014285Y-111554819D01*
X123490476Y-111554819D02*
X124061904Y-111554819D01*
X123776190Y-111554819D02*
X123776190Y-110554819D01*
X123776190Y-110554819D02*
X123871428Y-110697676D01*
X123871428Y-110697676D02*
X123966666Y-110792914D01*
X123966666Y-110792914D02*
X124061904Y-110840533D01*
X123157142Y-110554819D02*
X122538095Y-110554819D01*
X122538095Y-110554819D02*
X122871428Y-110935771D01*
X122871428Y-110935771D02*
X122728571Y-110935771D01*
X122728571Y-110935771D02*
X122633333Y-110983390D01*
X122633333Y-110983390D02*
X122585714Y-111031009D01*
X122585714Y-111031009D02*
X122538095Y-111126247D01*
X122538095Y-111126247D02*
X122538095Y-111364342D01*
X122538095Y-111364342D02*
X122585714Y-111459580D01*
X122585714Y-111459580D02*
X122633333Y-111507200D01*
X122633333Y-111507200D02*
X122728571Y-111554819D01*
X122728571Y-111554819D02*
X123014285Y-111554819D01*
X123014285Y-111554819D02*
X123109523Y-111507200D01*
X123109523Y-111507200D02*
X123157142Y-111459580D01*
D11*
%TO.C,D3*%
X118726109Y-100630952D02*
X118226109Y-100630952D01*
X118226109Y-100630952D02*
X118226109Y-100750000D01*
X118226109Y-100750000D02*
X118249919Y-100821428D01*
X118249919Y-100821428D02*
X118297538Y-100869047D01*
X118297538Y-100869047D02*
X118345157Y-100892857D01*
X118345157Y-100892857D02*
X118440395Y-100916666D01*
X118440395Y-100916666D02*
X118511823Y-100916666D01*
X118511823Y-100916666D02*
X118607061Y-100892857D01*
X118607061Y-100892857D02*
X118654680Y-100869047D01*
X118654680Y-100869047D02*
X118702300Y-100821428D01*
X118702300Y-100821428D02*
X118726109Y-100750000D01*
X118726109Y-100750000D02*
X118726109Y-100630952D01*
X118226109Y-101083333D02*
X118226109Y-101392857D01*
X118226109Y-101392857D02*
X118416585Y-101226190D01*
X118416585Y-101226190D02*
X118416585Y-101297619D01*
X118416585Y-101297619D02*
X118440395Y-101345238D01*
X118440395Y-101345238D02*
X118464204Y-101369047D01*
X118464204Y-101369047D02*
X118511823Y-101392857D01*
X118511823Y-101392857D02*
X118630871Y-101392857D01*
X118630871Y-101392857D02*
X118678490Y-101369047D01*
X118678490Y-101369047D02*
X118702300Y-101345238D01*
X118702300Y-101345238D02*
X118726109Y-101297619D01*
X118726109Y-101297619D02*
X118726109Y-101154762D01*
X118726109Y-101154762D02*
X118702300Y-101107143D01*
X118702300Y-101107143D02*
X118678490Y-101083333D01*
D10*
%TO.C,D9*%
X119254819Y-122261905D02*
X118254819Y-122261905D01*
X118254819Y-122261905D02*
X118254819Y-122500000D01*
X118254819Y-122500000D02*
X118302438Y-122642857D01*
X118302438Y-122642857D02*
X118397676Y-122738095D01*
X118397676Y-122738095D02*
X118492914Y-122785714D01*
X118492914Y-122785714D02*
X118683390Y-122833333D01*
X118683390Y-122833333D02*
X118826247Y-122833333D01*
X118826247Y-122833333D02*
X119016723Y-122785714D01*
X119016723Y-122785714D02*
X119111961Y-122738095D01*
X119111961Y-122738095D02*
X119207200Y-122642857D01*
X119207200Y-122642857D02*
X119254819Y-122500000D01*
X119254819Y-122500000D02*
X119254819Y-122261905D01*
X119254819Y-123309524D02*
X119254819Y-123500000D01*
X119254819Y-123500000D02*
X119207200Y-123595238D01*
X119207200Y-123595238D02*
X119159580Y-123642857D01*
X119159580Y-123642857D02*
X119016723Y-123738095D01*
X119016723Y-123738095D02*
X118826247Y-123785714D01*
X118826247Y-123785714D02*
X118445295Y-123785714D01*
X118445295Y-123785714D02*
X118350057Y-123738095D01*
X118350057Y-123738095D02*
X118302438Y-123690476D01*
X118302438Y-123690476D02*
X118254819Y-123595238D01*
X118254819Y-123595238D02*
X118254819Y-123404762D01*
X118254819Y-123404762D02*
X118302438Y-123309524D01*
X118302438Y-123309524D02*
X118350057Y-123261905D01*
X118350057Y-123261905D02*
X118445295Y-123214286D01*
X118445295Y-123214286D02*
X118683390Y-123214286D01*
X118683390Y-123214286D02*
X118778628Y-123261905D01*
X118778628Y-123261905D02*
X118826247Y-123309524D01*
X118826247Y-123309524D02*
X118873866Y-123404762D01*
X118873866Y-123404762D02*
X118873866Y-123595238D01*
X118873866Y-123595238D02*
X118826247Y-123690476D01*
X118826247Y-123690476D02*
X118778628Y-123738095D01*
X118778628Y-123738095D02*
X118683390Y-123785714D01*
%TO.C,D7*%
X124154819Y-79861905D02*
X123154819Y-79861905D01*
X123154819Y-79861905D02*
X123154819Y-80100000D01*
X123154819Y-80100000D02*
X123202438Y-80242857D01*
X123202438Y-80242857D02*
X123297676Y-80338095D01*
X123297676Y-80338095D02*
X123392914Y-80385714D01*
X123392914Y-80385714D02*
X123583390Y-80433333D01*
X123583390Y-80433333D02*
X123726247Y-80433333D01*
X123726247Y-80433333D02*
X123916723Y-80385714D01*
X123916723Y-80385714D02*
X124011961Y-80338095D01*
X124011961Y-80338095D02*
X124107200Y-80242857D01*
X124107200Y-80242857D02*
X124154819Y-80100000D01*
X124154819Y-80100000D02*
X124154819Y-79861905D01*
X123154819Y-80766667D02*
X123154819Y-81433333D01*
X123154819Y-81433333D02*
X124154819Y-81004762D01*
%TO.C,D11*%
X125014285Y-118354819D02*
X125014285Y-117354819D01*
X125014285Y-117354819D02*
X124776190Y-117354819D01*
X124776190Y-117354819D02*
X124633333Y-117402438D01*
X124633333Y-117402438D02*
X124538095Y-117497676D01*
X124538095Y-117497676D02*
X124490476Y-117592914D01*
X124490476Y-117592914D02*
X124442857Y-117783390D01*
X124442857Y-117783390D02*
X124442857Y-117926247D01*
X124442857Y-117926247D02*
X124490476Y-118116723D01*
X124490476Y-118116723D02*
X124538095Y-118211961D01*
X124538095Y-118211961D02*
X124633333Y-118307200D01*
X124633333Y-118307200D02*
X124776190Y-118354819D01*
X124776190Y-118354819D02*
X125014285Y-118354819D01*
X123490476Y-118354819D02*
X124061904Y-118354819D01*
X123776190Y-118354819D02*
X123776190Y-117354819D01*
X123776190Y-117354819D02*
X123871428Y-117497676D01*
X123871428Y-117497676D02*
X123966666Y-117592914D01*
X123966666Y-117592914D02*
X124061904Y-117640533D01*
X122538095Y-118354819D02*
X123109523Y-118354819D01*
X122823809Y-118354819D02*
X122823809Y-117354819D01*
X122823809Y-117354819D02*
X122919047Y-117497676D01*
X122919047Y-117497676D02*
X123014285Y-117592914D01*
X123014285Y-117592914D02*
X123109523Y-117640533D01*
D11*
%TO.C,D5*%
X124226109Y-90380952D02*
X123726109Y-90380952D01*
X123726109Y-90380952D02*
X123726109Y-90500000D01*
X123726109Y-90500000D02*
X123749919Y-90571428D01*
X123749919Y-90571428D02*
X123797538Y-90619047D01*
X123797538Y-90619047D02*
X123845157Y-90642857D01*
X123845157Y-90642857D02*
X123940395Y-90666666D01*
X123940395Y-90666666D02*
X124011823Y-90666666D01*
X124011823Y-90666666D02*
X124107061Y-90642857D01*
X124107061Y-90642857D02*
X124154680Y-90619047D01*
X124154680Y-90619047D02*
X124202300Y-90571428D01*
X124202300Y-90571428D02*
X124226109Y-90500000D01*
X124226109Y-90500000D02*
X124226109Y-90380952D01*
X123726109Y-91119047D02*
X123726109Y-90880952D01*
X123726109Y-90880952D02*
X123964204Y-90857143D01*
X123964204Y-90857143D02*
X123940395Y-90880952D01*
X123940395Y-90880952D02*
X123916585Y-90928571D01*
X123916585Y-90928571D02*
X123916585Y-91047619D01*
X123916585Y-91047619D02*
X123940395Y-91095238D01*
X123940395Y-91095238D02*
X123964204Y-91119047D01*
X123964204Y-91119047D02*
X124011823Y-91142857D01*
X124011823Y-91142857D02*
X124130871Y-91142857D01*
X124130871Y-91142857D02*
X124178490Y-91119047D01*
X124178490Y-91119047D02*
X124202300Y-91095238D01*
X124202300Y-91095238D02*
X124226109Y-91047619D01*
X124226109Y-91047619D02*
X124226109Y-90928571D01*
X124226109Y-90928571D02*
X124202300Y-90880952D01*
X124202300Y-90880952D02*
X124178490Y-90857143D01*
D12*
%TO.C,D13*%
X119090000Y-105950000D02*
X126500000Y-105950000D01*
X119090000Y-110250000D02*
X119090000Y-105950000D01*
X119090000Y-110250000D02*
X126500000Y-110250000D01*
%TO.C,D3*%
X123400000Y-96290000D02*
X123400000Y-103700000D01*
X119100000Y-96290000D02*
X123400000Y-96290000D01*
X119100000Y-96290000D02*
X119100000Y-103700000D01*
%TO.C,D9*%
X123950000Y-118290000D02*
X123950000Y-125700000D01*
X119650000Y-118290000D02*
X123950000Y-118290000D01*
X119650000Y-118290000D02*
X119650000Y-125700000D01*
%TO.C,D7*%
X118550000Y-85310000D02*
X118550000Y-77900000D01*
X122850000Y-85310000D02*
X118550000Y-85310000D01*
X122850000Y-85310000D02*
X122850000Y-77900000D01*
%TO.C,D11*%
X119090000Y-112750000D02*
X126500000Y-112750000D01*
X119090000Y-117050000D02*
X119090000Y-112750000D01*
X119090000Y-117050000D02*
X126500000Y-117050000D01*
%TO.C,D5*%
X119100000Y-95460000D02*
X119100000Y-88050000D01*
X123400000Y-95460000D02*
X119100000Y-95460000D01*
X123400000Y-95460000D02*
X123400000Y-88050000D01*
%TD*%
%LPC*%
D13*
%TO.C,J3*%
X117175000Y-91765000D03*
X117175000Y-84145000D03*
X117175000Y-76525000D03*
X117175000Y-68905000D03*
X110825000Y-87955000D03*
X110825000Y-72715000D03*
D14*
X114000000Y-93670000D03*
X114000000Y-89860000D03*
X114000000Y-86050000D03*
X114000000Y-82240000D03*
X114000000Y-78430000D03*
X114000000Y-74620000D03*
X114000000Y-70810000D03*
X114000000Y-67000000D03*
%TD*%
D13*
%TO.C,J1*%
X117175000Y-132095000D03*
X117175000Y-124475000D03*
X117175000Y-116855000D03*
X117175000Y-109235000D03*
X110825000Y-128285000D03*
X110825000Y-113045000D03*
D14*
X114000000Y-134000000D03*
X114000000Y-130190000D03*
X114000000Y-126380000D03*
X114000000Y-122570000D03*
X114000000Y-118760000D03*
X114000000Y-114950000D03*
X114000000Y-111140000D03*
X114000000Y-107330000D03*
%TD*%
D15*
%TO.C,H4*%
X173000000Y-133000000D03*
%TD*%
D16*
%TO.C,J2*%
X162540000Y-131000000D03*
X162540000Y-133540000D03*
X160000000Y-131000000D03*
X160000000Y-133540000D03*
X157460000Y-131000000D03*
X157460000Y-133540000D03*
X154920000Y-131000000D03*
X154920000Y-133540000D03*
X152380000Y-131000000D03*
X152380000Y-133540000D03*
%TD*%
D15*
%TO.C,H1*%
X124000000Y-69000000D03*
%TD*%
%TO.C,H2*%
X124000000Y-133000000D03*
%TD*%
%TO.C,H3*%
X173000000Y-68000000D03*
%TD*%
D17*
%TO.C,U1*%
X153000000Y-65000000D03*
D18*
X153300000Y-68030000D03*
X158150000Y-68030000D03*
D17*
X158450000Y-65000000D03*
%TD*%
D19*
%TO.C,D13*%
X121100000Y-108100000D03*
X126500000Y-108100000D03*
%TD*%
D20*
%TO.C,D3*%
X121250000Y-98300000D03*
X121250000Y-103700000D03*
%TD*%
%TO.C,D9*%
X121800000Y-120300000D03*
X121800000Y-125700000D03*
%TD*%
D21*
%TO.C,D7*%
X120700000Y-83300000D03*
X120700000Y-77900000D03*
%TD*%
D19*
%TO.C,D11*%
X121100000Y-114900000D03*
X126500000Y-114900000D03*
%TD*%
D21*
%TO.C,D5*%
X121250000Y-93450000D03*
X121250000Y-88050000D03*
%TD*%
%LPD*%
M02*
