M48
; DRILL file {KiCad 7.0.5-7.0.5~ubuntu22.04.1} date Fr 07 Jul 2023 22:55:59 CEST
; FORMAT={-:-/ absolute / metric / decimal}
; #@! TF.CreationDate,2023-07-07T22:55:59+02:00
; #@! TF.GenerationSoftware,Kicad,Pcbnew,7.0.5-7.0.5~ubuntu22.04.1
; #@! TF.FileFunction,Plated,1,2,PTH
FMAT,2
METRIC
; #@! TA.AperFunction,Plated,PTH,ViaDrill
T1C0.300
; #@! TA.AperFunction,Plated,PTH,ViaDrill
T2C0.600
; #@! TA.AperFunction,Plated,PTH,ComponentDrill
T3C0.914
; #@! TA.AperFunction,Plated,PTH,ComponentDrill
T4C1.400
%
G90
G05
T1
X110.6Y-98.2
X116.0Y-129.5
X117.7Y-129.2
X118.7Y-131.1
X119.572Y-133.872
X119.9Y-129.3
X122.0Y-129.4
X123.9Y-75.3
X125.7Y-72.3
X128.8Y-78.4
X129.0Y-103.25
X129.0Y-105.5
X130.0Y-75.4
X130.1Y-101.0
X130.125Y-71.2
X130.6Y-131.4
X130.7Y-126.6
X131.6Y-127.4
X131.9Y-132.1
X132.2Y-75.3
X132.25Y-105.0
X132.9Y-135.9
X134.2Y-131.4
X134.7Y-75.3
X135.8Y-128.8
X136.1Y-82.3
X136.6Y-81.7
X136.7Y-83.2
X136.7Y-113.8
X136.8Y-116.8
X137.1Y-72.4
X137.3Y-75.3
X138.0Y-83.2
X138.0Y-127.8
X138.289Y-114.217
X138.6Y-90.2
X138.6Y-98.9
X138.8Y-91.8
X138.8Y-106.282
X138.9Y-113.642
X139.0Y-72.4
X139.0Y-132.5
X139.1Y-84.6
X139.2Y-136.1
X139.25Y-123.75
X139.7Y-117.0
X139.8Y-75.2
X140.2Y-112.3
X140.2Y-120.2
X140.4Y-84.4
X140.625Y-115.497
X140.876Y-117.232
X141.193Y-119.593
X141.625Y-117.189
X141.7Y-81.7
X141.75Y-123.75
X142.2Y-116.4
X142.3Y-82.5
X143.5Y-77.75
X143.5Y-79.75
X144.3Y-117.4
X144.75Y-136.75
X146.8Y-117.4
X148.3Y-95.3
X148.3Y-108.0
X148.4Y-69.9
X148.4Y-82.6
X148.8Y-92.0
X148.8Y-93.8
X148.8Y-111.5
X148.9Y-115.9
X150.7Y-115.9
X150.8Y-116.9
X152.2Y-116.4
X152.207Y-117.393
X155.6Y-111.5
X161.4Y-127.474
X161.4Y-128.9
X162.794Y-125.825
X162.9Y-95.4
X162.9Y-128.7
X163.1Y-70.0
X165.1Y-127.874
X165.1Y-129.2
X167.9Y-107.5
T2
X114.25Y-101.5
X116.75Y-99.25
X117.7Y-81.8
X118.2Y-114.95
X118.86Y-111.14
X119.46Y-118.76
X123.85Y-97.2
X124.25Y-93.85
X124.5Y-128.25
X133.25Y-99.0
X133.5Y-90.75
X133.658Y-116.125
X133.75Y-108.25
X170.3Y-123.9
X176.2Y-123.8
T3
X152.38Y-131.0
X152.38Y-133.54
X154.92Y-131.0
X154.92Y-133.54
X157.46Y-131.0
X157.46Y-133.54
X160.0Y-131.0
X160.0Y-133.54
X162.54Y-131.0
X162.54Y-133.54
T4
X114.0Y-67.0
X114.0Y-70.81
X114.0Y-74.62
X114.0Y-78.43
X114.0Y-82.24
X114.0Y-86.05
X114.0Y-89.86
X114.0Y-93.67
X114.0Y-107.33
X114.0Y-111.14
X114.0Y-114.95
X114.0Y-118.76
X114.0Y-122.57
X114.0Y-126.38
X114.0Y-130.19
X114.0Y-134.0
T0
M30
