%TF.GenerationSoftware,KiCad,Pcbnew,7.0.5-7.0.5~ubuntu22.04.1*%
%TF.CreationDate,2023-07-07T22:55:56+02:00*%
%TF.ProjectId,door_if3_usb_machine,646f6f72-5f69-4663-935f-7573625f6d61,rev?*%
%TF.SameCoordinates,Original*%
%TF.FileFunction,Soldermask,Bot*%
%TF.FilePolarity,Negative*%
%FSLAX46Y46*%
G04 Gerber Fmt 4.6, Leading zero omitted, Abs format (unit mm)*
G04 Created by KiCad (PCBNEW 7.0.5-7.0.5~ubuntu22.04.1) date 2023-07-07 22:55:56*
%MOMM*%
%LPD*%
G01*
G04 APERTURE LIST*
G04 Aperture macros list*
%AMRoundRect*
0 Rectangle with rounded corners*
0 $1 Rounding radius*
0 $2 $3 $4 $5 $6 $7 $8 $9 X,Y pos of 4 corners*
0 Add a 4 corners polygon primitive as box body*
4,1,4,$2,$3,$4,$5,$6,$7,$8,$9,$2,$3,0*
0 Add four circle primitives for the rounded corners*
1,1,$1+$1,$2,$3*
1,1,$1+$1,$4,$5*
1,1,$1+$1,$6,$7*
1,1,$1+$1,$8,$9*
0 Add four rect primitives between the rounded corners*
20,1,$1+$1,$2,$3,$4,$5,0*
20,1,$1+$1,$4,$5,$6,$7,0*
20,1,$1+$1,$6,$7,$8,$9,0*
20,1,$1+$1,$8,$9,$2,$3,0*%
G04 Aperture macros list end*
%ADD10C,1.600000*%
%ADD11C,2.500000*%
%ADD12C,3.200000*%
%ADD13C,1.422400*%
%ADD14O,1.800000X1.800000*%
%ADD15O,1.500000X1.500000*%
%ADD16RoundRect,0.250000X-1.500000X-0.900000X1.500000X-0.900000X1.500000X0.900000X-1.500000X0.900000X0*%
%ADD17RoundRect,0.250000X-0.900000X1.500000X-0.900000X-1.500000X0.900000X-1.500000X0.900000X1.500000X0*%
%ADD18RoundRect,0.250000X0.900000X-1.500000X0.900000X1.500000X-0.900000X1.500000X-0.900000X-1.500000X0*%
G04 APERTURE END LIST*
D10*
%TO.C,J3*%
X117175000Y-91765000D03*
X117175000Y-84145000D03*
X117175000Y-76525000D03*
X117175000Y-68905000D03*
X110825000Y-87955000D03*
X110825000Y-72715000D03*
D11*
X114000000Y-93670000D03*
X114000000Y-89860000D03*
X114000000Y-86050000D03*
X114000000Y-82240000D03*
X114000000Y-78430000D03*
X114000000Y-74620000D03*
X114000000Y-70810000D03*
X114000000Y-67000000D03*
%TD*%
D10*
%TO.C,J1*%
X117175000Y-132095000D03*
X117175000Y-124475000D03*
X117175000Y-116855000D03*
X117175000Y-109235000D03*
X110825000Y-128285000D03*
X110825000Y-113045000D03*
D11*
X114000000Y-134000000D03*
X114000000Y-130190000D03*
X114000000Y-126380000D03*
X114000000Y-122570000D03*
X114000000Y-118760000D03*
X114000000Y-114950000D03*
X114000000Y-111140000D03*
X114000000Y-107330000D03*
%TD*%
D12*
%TO.C,H4*%
X173000000Y-133000000D03*
%TD*%
D13*
%TO.C,J2*%
X162540000Y-131000000D03*
X162540000Y-133540000D03*
X160000000Y-131000000D03*
X160000000Y-133540000D03*
X157460000Y-131000000D03*
X157460000Y-133540000D03*
X154920000Y-131000000D03*
X154920000Y-133540000D03*
X152380000Y-131000000D03*
X152380000Y-133540000D03*
%TD*%
D12*
%TO.C,H1*%
X124000000Y-69000000D03*
%TD*%
%TO.C,H2*%
X124000000Y-133000000D03*
%TD*%
%TO.C,H3*%
X173000000Y-68000000D03*
%TD*%
D14*
%TO.C,U1*%
X153000000Y-65000000D03*
D15*
X153300000Y-68030000D03*
X158150000Y-68030000D03*
D14*
X158450000Y-65000000D03*
%TD*%
D16*
%TO.C,D13*%
X121100000Y-108100000D03*
X126500000Y-108100000D03*
%TD*%
D17*
%TO.C,D3*%
X121250000Y-98300000D03*
X121250000Y-103700000D03*
%TD*%
%TO.C,D9*%
X121800000Y-120300000D03*
X121800000Y-125700000D03*
%TD*%
D18*
%TO.C,D7*%
X120700000Y-83300000D03*
X120700000Y-77900000D03*
%TD*%
D16*
%TO.C,D11*%
X121100000Y-114900000D03*
X126500000Y-114900000D03*
%TD*%
D18*
%TO.C,D5*%
X121250000Y-93450000D03*
X121250000Y-88050000D03*
%TD*%
M02*
