M48
; DRILL file {KiCad 5.1.6-c6e7f7d~87~ubuntu18.04.1} date Sat Mar  5 00:13:50 2022
; FORMAT={-:-/ absolute / metric / decimal}
; #@! TF.CreationDate,2022-03-05T00:13:50+01:00
; #@! TF.GenerationSoftware,Kicad,Pcbnew,5.1.6-c6e7f7d~87~ubuntu18.04.1
; #@! TF.FileFunction,Plated,1,2,PTH
FMAT,2
METRIC
T1C0.300
T2C0.914
T3C1.000
T4C1.500
%
G90
G05
T1
X137.2Y-64.5
X137.3Y-63.3
X137.4Y-49.2
X137.4Y-50.4
X137.4Y-56.2
X137.4Y-57.4
X137.4Y-71.5
X137.5Y-70.3
X138.2Y-66.1
X138.3Y-61.3
X138.3Y-62.8
X138.4Y-45.1
X138.5Y-56.1
X138.5Y-59.1
X138.6Y-52.1
X138.6Y-54.4
X138.8Y-47.3
X138.8Y-49.4
X148.6Y-60.6
X148.7Y-46.8
X148.9Y-53.7
X149.0Y-68.8
X153.8Y-41.0
X153.8Y-42.5
X154.2Y-61.4
X154.2Y-68.3
X154.3Y-54.2
X155.1Y-41.8
X158.8Y-42.1
X161.2Y-42.1
T2
X152.62Y-37.03
X152.62Y-39.57
X155.16Y-37.03
X155.16Y-39.57
X157.7Y-37.03
X157.7Y-39.57
X160.24Y-37.03
X160.24Y-39.57
X162.78Y-37.03
X162.78Y-39.57
T3
X126.4Y-54.6
X126.4Y-57.14
X126.4Y-59.68
X126.4Y-62.22
X128.94Y-54.6
X128.94Y-57.14
X128.94Y-59.68
X128.94Y-62.22
T4
X172.0Y-44.5
X172.0Y-48.0
X172.0Y-51.5
X172.0Y-55.0
X172.0Y-58.502
X172.0Y-62.002
X172.0Y-65.502
X172.0Y-69.0
T0
M30
