%TF.GenerationSoftware,KiCad,Pcbnew,5.1.6-c6e7f7d~87~ubuntu18.04.1*%
%TF.CreationDate,2022-03-05T00:13:30+01:00*%
%TF.ProjectId,door_ext_photorelay,646f6f72-5f65-4787-945f-70686f746f72,rev?*%
%TF.SameCoordinates,Original*%
%TF.FileFunction,Copper,L1,Top*%
%TF.FilePolarity,Positive*%
%FSLAX46Y46*%
G04 Gerber Fmt 4.6, Leading zero omitted, Abs format (unit mm)*
G04 Created by KiCad (PCBNEW 5.1.6-c6e7f7d~87~ubuntu18.04.1) date 2022-03-05 00:13:30*
%MOMM*%
%LPD*%
G01*
G04 APERTURE LIST*
%TA.AperFunction,ComponentPad*%
%ADD10R,1.700000X1.700000*%
%TD*%
%TA.AperFunction,ComponentPad*%
%ADD11O,1.700000X1.700000*%
%TD*%
%TA.AperFunction,ComponentPad*%
%ADD12C,1.422400*%
%TD*%
%TA.AperFunction,ComponentPad*%
%ADD13O,3.500000X2.500000*%
%TD*%
%TA.AperFunction,SMDPad,CuDef*%
%ADD14R,1.300000X2.000000*%
%TD*%
%TA.AperFunction,SMDPad,CuDef*%
%ADD15R,2.000000X2.000000*%
%TD*%
%TA.AperFunction,SMDPad,CuDef*%
%ADD16R,3.100000X1.600000*%
%TD*%
%TA.AperFunction,ViaPad*%
%ADD17C,0.600000*%
%TD*%
%TA.AperFunction,Conductor*%
%ADD18C,0.500000*%
%TD*%
%TA.AperFunction,Conductor*%
%ADD19C,0.200000*%
%TD*%
%TA.AperFunction,Conductor*%
%ADD20C,2.000000*%
%TD*%
G04 APERTURE END LIST*
%TO.P,C1,1*%
%TO.N,+3V3*%
%TA.AperFunction,SMDPad,CuDef*%
G36*
G01*
X141900000Y-65862500D02*
X141900000Y-66337500D01*
G75*
G02*
X141662500Y-66575000I-237500J0D01*
G01*
X141087500Y-66575000D01*
G75*
G02*
X140850000Y-66337500I0J237500D01*
G01*
X140850000Y-65862500D01*
G75*
G02*
X141087500Y-65625000I237500J0D01*
G01*
X141662500Y-65625000D01*
G75*
G02*
X141900000Y-65862500I0J-237500D01*
G01*
G37*
%TD.AperFunction*%
%TO.P,C1,2*%
%TO.N,GND*%
%TA.AperFunction,SMDPad,CuDef*%
G36*
G01*
X140150000Y-65862500D02*
X140150000Y-66337500D01*
G75*
G02*
X139912500Y-66575000I-237500J0D01*
G01*
X139337500Y-66575000D01*
G75*
G02*
X139100000Y-66337500I0J237500D01*
G01*
X139100000Y-65862500D01*
G75*
G02*
X139337500Y-65625000I237500J0D01*
G01*
X139912500Y-65625000D01*
G75*
G02*
X140150000Y-65862500I0J-237500D01*
G01*
G37*
%TD.AperFunction*%
%TD*%
%TO.P,C2,2*%
%TO.N,GND*%
%TA.AperFunction,SMDPad,CuDef*%
G36*
G01*
X140150000Y-51862500D02*
X140150000Y-52337500D01*
G75*
G02*
X139912500Y-52575000I-237500J0D01*
G01*
X139337500Y-52575000D01*
G75*
G02*
X139100000Y-52337500I0J237500D01*
G01*
X139100000Y-51862500D01*
G75*
G02*
X139337500Y-51625000I237500J0D01*
G01*
X139912500Y-51625000D01*
G75*
G02*
X140150000Y-51862500I0J-237500D01*
G01*
G37*
%TD.AperFunction*%
%TO.P,C2,1*%
%TO.N,+3V3*%
%TA.AperFunction,SMDPad,CuDef*%
G36*
G01*
X141900000Y-51862500D02*
X141900000Y-52337500D01*
G75*
G02*
X141662500Y-52575000I-237500J0D01*
G01*
X141087500Y-52575000D01*
G75*
G02*
X140850000Y-52337500I0J237500D01*
G01*
X140850000Y-51862500D01*
G75*
G02*
X141087500Y-51625000I237500J0D01*
G01*
X141662500Y-51625000D01*
G75*
G02*
X141900000Y-51862500I0J-237500D01*
G01*
G37*
%TD.AperFunction*%
%TD*%
%TO.P,C3,1*%
%TO.N,+3V3*%
%TA.AperFunction,SMDPad,CuDef*%
G36*
G01*
X141900000Y-44862500D02*
X141900000Y-45337500D01*
G75*
G02*
X141662500Y-45575000I-237500J0D01*
G01*
X141087500Y-45575000D01*
G75*
G02*
X140850000Y-45337500I0J237500D01*
G01*
X140850000Y-44862500D01*
G75*
G02*
X141087500Y-44625000I237500J0D01*
G01*
X141662500Y-44625000D01*
G75*
G02*
X141900000Y-44862500I0J-237500D01*
G01*
G37*
%TD.AperFunction*%
%TO.P,C3,2*%
%TO.N,GND*%
%TA.AperFunction,SMDPad,CuDef*%
G36*
G01*
X140150000Y-44862500D02*
X140150000Y-45337500D01*
G75*
G02*
X139912500Y-45575000I-237500J0D01*
G01*
X139337500Y-45575000D01*
G75*
G02*
X139100000Y-45337500I0J237500D01*
G01*
X139100000Y-44862500D01*
G75*
G02*
X139337500Y-44625000I237500J0D01*
G01*
X139912500Y-44625000D01*
G75*
G02*
X140150000Y-44862500I0J-237500D01*
G01*
G37*
%TD.AperFunction*%
%TD*%
%TO.P,C4,2*%
%TO.N,GND*%
%TA.AperFunction,SMDPad,CuDef*%
G36*
G01*
X140150000Y-58862500D02*
X140150000Y-59337500D01*
G75*
G02*
X139912500Y-59575000I-237500J0D01*
G01*
X139337500Y-59575000D01*
G75*
G02*
X139100000Y-59337500I0J237500D01*
G01*
X139100000Y-58862500D01*
G75*
G02*
X139337500Y-58625000I237500J0D01*
G01*
X139912500Y-58625000D01*
G75*
G02*
X140150000Y-58862500I0J-237500D01*
G01*
G37*
%TD.AperFunction*%
%TO.P,C4,1*%
%TO.N,+3V3*%
%TA.AperFunction,SMDPad,CuDef*%
G36*
G01*
X141900000Y-58862500D02*
X141900000Y-59337500D01*
G75*
G02*
X141662500Y-59575000I-237500J0D01*
G01*
X141087500Y-59575000D01*
G75*
G02*
X140850000Y-59337500I0J237500D01*
G01*
X140850000Y-58862500D01*
G75*
G02*
X141087500Y-58625000I237500J0D01*
G01*
X141662500Y-58625000D01*
G75*
G02*
X141900000Y-58862500I0J-237500D01*
G01*
G37*
%TD.AperFunction*%
%TD*%
D10*
%TO.P,J1,1*%
%TO.N,GND*%
X126400000Y-54600000D03*
D11*
%TO.P,J1,2*%
%TO.N,/PD0*%
X128940000Y-54600000D03*
%TO.P,J1,3*%
%TO.N,GND*%
X126400000Y-57140000D03*
%TO.P,J1,4*%
%TO.N,/PD1*%
X128940000Y-57140000D03*
%TO.P,J1,5*%
%TO.N,GND*%
X126400000Y-59680000D03*
%TO.P,J1,6*%
%TO.N,/PD2*%
X128940000Y-59680000D03*
%TO.P,J1,7*%
%TO.N,GND*%
X126400000Y-62220000D03*
%TO.P,J1,8*%
%TO.N,/PD3*%
X128940000Y-62220000D03*
%TD*%
D12*
%TO.P,J2,1*%
%TO.N,+3V3*%
X162780000Y-37030000D03*
%TO.P,J2,2*%
%TO.N,GPIO0*%
X162780000Y-39570000D03*
%TO.P,J2,3*%
%TO.N,GPIO1*%
X160240000Y-37030000D03*
%TO.P,J2,4*%
%TO.N,GPIO2*%
X160240000Y-39570000D03*
%TO.P,J2,5*%
%TO.N,GPIO3*%
X157700000Y-37030000D03*
%TO.P,J2,6*%
%TO.N,GPIO4*%
X157700000Y-39570000D03*
%TO.P,J2,7*%
%TO.N,GPIO5*%
X155160000Y-37030000D03*
%TO.P,J2,8*%
%TO.N,GPIO6*%
X155160000Y-39570000D03*
%TO.P,J2,9*%
%TO.N,N/C*%
X152620000Y-37030000D03*
%TO.P,J2,10*%
%TO.N,GND*%
X152620000Y-39570000D03*
%TD*%
D13*
%TO.P,J3,1*%
%TO.N,Net-(J3-Pad1)*%
X172000000Y-69000000D03*
%TO.P,J3,2*%
%TO.N,Net-(J3-Pad2)*%
X172000000Y-65502420D03*
%TO.P,J3,3*%
%TO.N,Net-(J3-Pad3)*%
X172000000Y-62002300D03*
%TO.P,J3,4*%
%TO.N,Net-(J3-Pad4)*%
X172000000Y-58502180D03*
%TO.P,J3,5*%
%TO.N,Net-(J3-Pad5)*%
X172000000Y-55000000D03*
%TO.P,J3,6*%
%TO.N,Net-(J3-Pad6)*%
X172000000Y-51500000D03*
%TO.P,J3,7*%
%TO.N,N/C*%
X172000000Y-48000000D03*
%TO.P,J3,8*%
X172000000Y-44500000D03*
%TD*%
%TO.P,R1,2*%
%TO.N,/PD0*%
%TA.AperFunction,SMDPad,CuDef*%
G36*
G01*
X133162500Y-47950000D02*
X133637500Y-47950000D01*
G75*
G02*
X133875000Y-48187500I0J-237500D01*
G01*
X133875000Y-48762500D01*
G75*
G02*
X133637500Y-49000000I-237500J0D01*
G01*
X133162500Y-49000000D01*
G75*
G02*
X132925000Y-48762500I0J237500D01*
G01*
X132925000Y-48187500D01*
G75*
G02*
X133162500Y-47950000I237500J0D01*
G01*
G37*
%TD.AperFunction*%
%TO.P,R1,1*%
%TO.N,Net-(R1-Pad1)*%
%TA.AperFunction,SMDPad,CuDef*%
G36*
G01*
X133162500Y-46200000D02*
X133637500Y-46200000D01*
G75*
G02*
X133875000Y-46437500I0J-237500D01*
G01*
X133875000Y-47012500D01*
G75*
G02*
X133637500Y-47250000I-237500J0D01*
G01*
X133162500Y-47250000D01*
G75*
G02*
X132925000Y-47012500I0J237500D01*
G01*
X132925000Y-46437500D01*
G75*
G02*
X133162500Y-46200000I237500J0D01*
G01*
G37*
%TD.AperFunction*%
%TD*%
%TO.P,R2,1*%
%TO.N,Net-(R2-Pad1)*%
%TA.AperFunction,SMDPad,CuDef*%
G36*
G01*
X133162500Y-52200000D02*
X133637500Y-52200000D01*
G75*
G02*
X133875000Y-52437500I0J-237500D01*
G01*
X133875000Y-53012500D01*
G75*
G02*
X133637500Y-53250000I-237500J0D01*
G01*
X133162500Y-53250000D01*
G75*
G02*
X132925000Y-53012500I0J237500D01*
G01*
X132925000Y-52437500D01*
G75*
G02*
X133162500Y-52200000I237500J0D01*
G01*
G37*
%TD.AperFunction*%
%TO.P,R2,2*%
%TO.N,/PD1*%
%TA.AperFunction,SMDPad,CuDef*%
G36*
G01*
X133162500Y-53950000D02*
X133637500Y-53950000D01*
G75*
G02*
X133875000Y-54187500I0J-237500D01*
G01*
X133875000Y-54762500D01*
G75*
G02*
X133637500Y-55000000I-237500J0D01*
G01*
X133162500Y-55000000D01*
G75*
G02*
X132925000Y-54762500I0J237500D01*
G01*
X132925000Y-54187500D01*
G75*
G02*
X133162500Y-53950000I237500J0D01*
G01*
G37*
%TD.AperFunction*%
%TD*%
%TO.P,R3,2*%
%TO.N,/PD2*%
%TA.AperFunction,SMDPad,CuDef*%
G36*
G01*
X133162500Y-60950000D02*
X133637500Y-60950000D01*
G75*
G02*
X133875000Y-61187500I0J-237500D01*
G01*
X133875000Y-61762500D01*
G75*
G02*
X133637500Y-62000000I-237500J0D01*
G01*
X133162500Y-62000000D01*
G75*
G02*
X132925000Y-61762500I0J237500D01*
G01*
X132925000Y-61187500D01*
G75*
G02*
X133162500Y-60950000I237500J0D01*
G01*
G37*
%TD.AperFunction*%
%TO.P,R3,1*%
%TO.N,Net-(R3-Pad1)*%
%TA.AperFunction,SMDPad,CuDef*%
G36*
G01*
X133162500Y-59200000D02*
X133637500Y-59200000D01*
G75*
G02*
X133875000Y-59437500I0J-237500D01*
G01*
X133875000Y-60012500D01*
G75*
G02*
X133637500Y-60250000I-237500J0D01*
G01*
X133162500Y-60250000D01*
G75*
G02*
X132925000Y-60012500I0J237500D01*
G01*
X132925000Y-59437500D01*
G75*
G02*
X133162500Y-59200000I237500J0D01*
G01*
G37*
%TD.AperFunction*%
%TD*%
%TO.P,R4,2*%
%TO.N,/PD3*%
%TA.AperFunction,SMDPad,CuDef*%
G36*
G01*
X133162500Y-67950000D02*
X133637500Y-67950000D01*
G75*
G02*
X133875000Y-68187500I0J-237500D01*
G01*
X133875000Y-68762500D01*
G75*
G02*
X133637500Y-69000000I-237500J0D01*
G01*
X133162500Y-69000000D01*
G75*
G02*
X132925000Y-68762500I0J237500D01*
G01*
X132925000Y-68187500D01*
G75*
G02*
X133162500Y-67950000I237500J0D01*
G01*
G37*
%TD.AperFunction*%
%TO.P,R4,1*%
%TO.N,Net-(R4-Pad1)*%
%TA.AperFunction,SMDPad,CuDef*%
G36*
G01*
X133162500Y-66200000D02*
X133637500Y-66200000D01*
G75*
G02*
X133875000Y-66437500I0J-237500D01*
G01*
X133875000Y-67012500D01*
G75*
G02*
X133637500Y-67250000I-237500J0D01*
G01*
X133162500Y-67250000D01*
G75*
G02*
X132925000Y-67012500I0J237500D01*
G01*
X132925000Y-66437500D01*
G75*
G02*
X133162500Y-66200000I237500J0D01*
G01*
G37*
%TD.AperFunction*%
%TD*%
%TO.P,R5,1*%
%TO.N,Net-(R5-Pad1)*%
%TA.AperFunction,SMDPad,CuDef*%
G36*
G01*
X154237500Y-66200000D02*
X153762500Y-66200000D01*
G75*
G02*
X153525000Y-65962500I0J237500D01*
G01*
X153525000Y-65387500D01*
G75*
G02*
X153762500Y-65150000I237500J0D01*
G01*
X154237500Y-65150000D01*
G75*
G02*
X154475000Y-65387500I0J-237500D01*
G01*
X154475000Y-65962500D01*
G75*
G02*
X154237500Y-66200000I-237500J0D01*
G01*
G37*
%TD.AperFunction*%
%TO.P,R5,2*%
%TO.N,GPIO0*%
%TA.AperFunction,SMDPad,CuDef*%
G36*
G01*
X154237500Y-64450000D02*
X153762500Y-64450000D01*
G75*
G02*
X153525000Y-64212500I0J237500D01*
G01*
X153525000Y-63637500D01*
G75*
G02*
X153762500Y-63400000I237500J0D01*
G01*
X154237500Y-63400000D01*
G75*
G02*
X154475000Y-63637500I0J-237500D01*
G01*
X154475000Y-64212500D01*
G75*
G02*
X154237500Y-64450000I-237500J0D01*
G01*
G37*
%TD.AperFunction*%
%TD*%
%TO.P,R6,1*%
%TO.N,Net-(R6-Pad1)*%
%TA.AperFunction,SMDPad,CuDef*%
G36*
G01*
X154037500Y-59200000D02*
X153562500Y-59200000D01*
G75*
G02*
X153325000Y-58962500I0J237500D01*
G01*
X153325000Y-58387500D01*
G75*
G02*
X153562500Y-58150000I237500J0D01*
G01*
X154037500Y-58150000D01*
G75*
G02*
X154275000Y-58387500I0J-237500D01*
G01*
X154275000Y-58962500D01*
G75*
G02*
X154037500Y-59200000I-237500J0D01*
G01*
G37*
%TD.AperFunction*%
%TO.P,R6,2*%
%TO.N,GPIO1*%
%TA.AperFunction,SMDPad,CuDef*%
G36*
G01*
X154037500Y-57450000D02*
X153562500Y-57450000D01*
G75*
G02*
X153325000Y-57212500I0J237500D01*
G01*
X153325000Y-56637500D01*
G75*
G02*
X153562500Y-56400000I237500J0D01*
G01*
X154037500Y-56400000D01*
G75*
G02*
X154275000Y-56637500I0J-237500D01*
G01*
X154275000Y-57212500D01*
G75*
G02*
X154037500Y-57450000I-237500J0D01*
G01*
G37*
%TD.AperFunction*%
%TD*%
%TO.P,R7,1*%
%TO.N,Net-(R7-Pad1)*%
%TA.AperFunction,SMDPad,CuDef*%
G36*
G01*
X154137500Y-52300000D02*
X153662500Y-52300000D01*
G75*
G02*
X153425000Y-52062500I0J237500D01*
G01*
X153425000Y-51487500D01*
G75*
G02*
X153662500Y-51250000I237500J0D01*
G01*
X154137500Y-51250000D01*
G75*
G02*
X154375000Y-51487500I0J-237500D01*
G01*
X154375000Y-52062500D01*
G75*
G02*
X154137500Y-52300000I-237500J0D01*
G01*
G37*
%TD.AperFunction*%
%TO.P,R7,2*%
%TO.N,GPIO2*%
%TA.AperFunction,SMDPad,CuDef*%
G36*
G01*
X154137500Y-50550000D02*
X153662500Y-50550000D01*
G75*
G02*
X153425000Y-50312500I0J237500D01*
G01*
X153425000Y-49737500D01*
G75*
G02*
X153662500Y-49500000I237500J0D01*
G01*
X154137500Y-49500000D01*
G75*
G02*
X154375000Y-49737500I0J-237500D01*
G01*
X154375000Y-50312500D01*
G75*
G02*
X154137500Y-50550000I-237500J0D01*
G01*
G37*
%TD.AperFunction*%
%TD*%
D14*
%TO.P,RV1,1*%
%TO.N,GPIO3*%
X145250000Y-46600000D03*
D15*
%TO.P,RV1,2*%
%TO.N,Net-(RV1-Pad2)*%
X146400000Y-50600000D03*
D14*
%TO.P,RV1,3*%
%TO.N,GND*%
X147550000Y-46600000D03*
%TD*%
%TO.P,RV2,3*%
%TO.N,GND*%
X147550000Y-53600000D03*
D15*
%TO.P,RV2,2*%
%TO.N,Net-(RV2-Pad2)*%
X146400000Y-57600000D03*
D14*
%TO.P,RV2,1*%
%TO.N,GPIO4*%
X145250000Y-53600000D03*
%TD*%
%TO.P,RV3,1*%
%TO.N,GPIO5*%
X145250000Y-60600000D03*
D15*
%TO.P,RV3,2*%
%TO.N,Net-(RV3-Pad2)*%
X146400000Y-64600000D03*
D14*
%TO.P,RV3,3*%
%TO.N,GND*%
X147550000Y-60600000D03*
%TD*%
%TO.P,RV4,3*%
%TO.N,GND*%
X147550000Y-68600000D03*
D15*
%TO.P,RV4,2*%
%TO.N,Net-(RV4-Pad2)*%
X146400000Y-72600000D03*
D14*
%TO.P,RV4,1*%
%TO.N,GPIO6*%
X145250000Y-68600000D03*
%TD*%
%TO.P,U1,1*%
%TO.N,Net-(R1-Pad1)*%
%TA.AperFunction,SMDPad,CuDef*%
G36*
G01*
X134950000Y-46845000D02*
X134950000Y-46545000D01*
G75*
G02*
X135100000Y-46395000I150000J0D01*
G01*
X136550000Y-46395000D01*
G75*
G02*
X136700000Y-46545000I0J-150000D01*
G01*
X136700000Y-46845000D01*
G75*
G02*
X136550000Y-46995000I-150000J0D01*
G01*
X135100000Y-46995000D01*
G75*
G02*
X134950000Y-46845000I0J150000D01*
G01*
G37*
%TD.AperFunction*%
%TO.P,U1,2*%
%TO.N,/PD0*%
%TA.AperFunction,SMDPad,CuDef*%
G36*
G01*
X134950000Y-48115000D02*
X134950000Y-47815000D01*
G75*
G02*
X135100000Y-47665000I150000J0D01*
G01*
X136550000Y-47665000D01*
G75*
G02*
X136700000Y-47815000I0J-150000D01*
G01*
X136700000Y-48115000D01*
G75*
G02*
X136550000Y-48265000I-150000J0D01*
G01*
X135100000Y-48265000D01*
G75*
G02*
X134950000Y-48115000I0J150000D01*
G01*
G37*
%TD.AperFunction*%
%TO.P,U1,3*%
%TO.N,GND*%
%TA.AperFunction,SMDPad,CuDef*%
G36*
G01*
X134950000Y-49385000D02*
X134950000Y-49085000D01*
G75*
G02*
X135100000Y-48935000I150000J0D01*
G01*
X136550000Y-48935000D01*
G75*
G02*
X136700000Y-49085000I0J-150000D01*
G01*
X136700000Y-49385000D01*
G75*
G02*
X136550000Y-49535000I-150000J0D01*
G01*
X135100000Y-49535000D01*
G75*
G02*
X134950000Y-49385000I0J150000D01*
G01*
G37*
%TD.AperFunction*%
%TO.P,U1,4*%
%TA.AperFunction,SMDPad,CuDef*%
G36*
G01*
X134950000Y-50655000D02*
X134950000Y-50355000D01*
G75*
G02*
X135100000Y-50205000I150000J0D01*
G01*
X136550000Y-50205000D01*
G75*
G02*
X136700000Y-50355000I0J-150000D01*
G01*
X136700000Y-50655000D01*
G75*
G02*
X136550000Y-50805000I-150000J0D01*
G01*
X135100000Y-50805000D01*
G75*
G02*
X134950000Y-50655000I0J150000D01*
G01*
G37*
%TD.AperFunction*%
%TO.P,U1,5*%
%TO.N,Net-(R1-Pad1)*%
%TA.AperFunction,SMDPad,CuDef*%
G36*
G01*
X140100000Y-50655000D02*
X140100000Y-50355000D01*
G75*
G02*
X140250000Y-50205000I150000J0D01*
G01*
X141700000Y-50205000D01*
G75*
G02*
X141850000Y-50355000I0J-150000D01*
G01*
X141850000Y-50655000D01*
G75*
G02*
X141700000Y-50805000I-150000J0D01*
G01*
X140250000Y-50805000D01*
G75*
G02*
X140100000Y-50655000I0J150000D01*
G01*
G37*
%TD.AperFunction*%
%TO.P,U1,6*%
%TO.N,Net-(RV1-Pad2)*%
%TA.AperFunction,SMDPad,CuDef*%
G36*
G01*
X140100000Y-49385000D02*
X140100000Y-49085000D01*
G75*
G02*
X140250000Y-48935000I150000J0D01*
G01*
X141700000Y-48935000D01*
G75*
G02*
X141850000Y-49085000I0J-150000D01*
G01*
X141850000Y-49385000D01*
G75*
G02*
X141700000Y-49535000I-150000J0D01*
G01*
X140250000Y-49535000D01*
G75*
G02*
X140100000Y-49385000I0J150000D01*
G01*
G37*
%TD.AperFunction*%
%TO.P,U1,7*%
%TO.N,GPIO3*%
%TA.AperFunction,SMDPad,CuDef*%
G36*
G01*
X140100000Y-48115000D02*
X140100000Y-47815000D01*
G75*
G02*
X140250000Y-47665000I150000J0D01*
G01*
X141700000Y-47665000D01*
G75*
G02*
X141850000Y-47815000I0J-150000D01*
G01*
X141850000Y-48115000D01*
G75*
G02*
X141700000Y-48265000I-150000J0D01*
G01*
X140250000Y-48265000D01*
G75*
G02*
X140100000Y-48115000I0J150000D01*
G01*
G37*
%TD.AperFunction*%
%TO.P,U1,8*%
%TO.N,+3V3*%
%TA.AperFunction,SMDPad,CuDef*%
G36*
G01*
X140100000Y-46845000D02*
X140100000Y-46545000D01*
G75*
G02*
X140250000Y-46395000I150000J0D01*
G01*
X141700000Y-46395000D01*
G75*
G02*
X141850000Y-46545000I0J-150000D01*
G01*
X141850000Y-46845000D01*
G75*
G02*
X141700000Y-46995000I-150000J0D01*
G01*
X140250000Y-46995000D01*
G75*
G02*
X140100000Y-46845000I0J150000D01*
G01*
G37*
%TD.AperFunction*%
%TD*%
%TO.P,U2,8*%
%TO.N,+3V3*%
%TA.AperFunction,SMDPad,CuDef*%
G36*
G01*
X140100000Y-53845000D02*
X140100000Y-53545000D01*
G75*
G02*
X140250000Y-53395000I150000J0D01*
G01*
X141700000Y-53395000D01*
G75*
G02*
X141850000Y-53545000I0J-150000D01*
G01*
X141850000Y-53845000D01*
G75*
G02*
X141700000Y-53995000I-150000J0D01*
G01*
X140250000Y-53995000D01*
G75*
G02*
X140100000Y-53845000I0J150000D01*
G01*
G37*
%TD.AperFunction*%
%TO.P,U2,7*%
%TO.N,GPIO4*%
%TA.AperFunction,SMDPad,CuDef*%
G36*
G01*
X140100000Y-55115000D02*
X140100000Y-54815000D01*
G75*
G02*
X140250000Y-54665000I150000J0D01*
G01*
X141700000Y-54665000D01*
G75*
G02*
X141850000Y-54815000I0J-150000D01*
G01*
X141850000Y-55115000D01*
G75*
G02*
X141700000Y-55265000I-150000J0D01*
G01*
X140250000Y-55265000D01*
G75*
G02*
X140100000Y-55115000I0J150000D01*
G01*
G37*
%TD.AperFunction*%
%TO.P,U2,6*%
%TO.N,Net-(RV2-Pad2)*%
%TA.AperFunction,SMDPad,CuDef*%
G36*
G01*
X140100000Y-56385000D02*
X140100000Y-56085000D01*
G75*
G02*
X140250000Y-55935000I150000J0D01*
G01*
X141700000Y-55935000D01*
G75*
G02*
X141850000Y-56085000I0J-150000D01*
G01*
X141850000Y-56385000D01*
G75*
G02*
X141700000Y-56535000I-150000J0D01*
G01*
X140250000Y-56535000D01*
G75*
G02*
X140100000Y-56385000I0J150000D01*
G01*
G37*
%TD.AperFunction*%
%TO.P,U2,5*%
%TO.N,Net-(R2-Pad1)*%
%TA.AperFunction,SMDPad,CuDef*%
G36*
G01*
X140100000Y-57655000D02*
X140100000Y-57355000D01*
G75*
G02*
X140250000Y-57205000I150000J0D01*
G01*
X141700000Y-57205000D01*
G75*
G02*
X141850000Y-57355000I0J-150000D01*
G01*
X141850000Y-57655000D01*
G75*
G02*
X141700000Y-57805000I-150000J0D01*
G01*
X140250000Y-57805000D01*
G75*
G02*
X140100000Y-57655000I0J150000D01*
G01*
G37*
%TD.AperFunction*%
%TO.P,U2,4*%
%TO.N,GND*%
%TA.AperFunction,SMDPad,CuDef*%
G36*
G01*
X134950000Y-57655000D02*
X134950000Y-57355000D01*
G75*
G02*
X135100000Y-57205000I150000J0D01*
G01*
X136550000Y-57205000D01*
G75*
G02*
X136700000Y-57355000I0J-150000D01*
G01*
X136700000Y-57655000D01*
G75*
G02*
X136550000Y-57805000I-150000J0D01*
G01*
X135100000Y-57805000D01*
G75*
G02*
X134950000Y-57655000I0J150000D01*
G01*
G37*
%TD.AperFunction*%
%TO.P,U2,3*%
%TA.AperFunction,SMDPad,CuDef*%
G36*
G01*
X134950000Y-56385000D02*
X134950000Y-56085000D01*
G75*
G02*
X135100000Y-55935000I150000J0D01*
G01*
X136550000Y-55935000D01*
G75*
G02*
X136700000Y-56085000I0J-150000D01*
G01*
X136700000Y-56385000D01*
G75*
G02*
X136550000Y-56535000I-150000J0D01*
G01*
X135100000Y-56535000D01*
G75*
G02*
X134950000Y-56385000I0J150000D01*
G01*
G37*
%TD.AperFunction*%
%TO.P,U2,2*%
%TO.N,/PD1*%
%TA.AperFunction,SMDPad,CuDef*%
G36*
G01*
X134950000Y-55115000D02*
X134950000Y-54815000D01*
G75*
G02*
X135100000Y-54665000I150000J0D01*
G01*
X136550000Y-54665000D01*
G75*
G02*
X136700000Y-54815000I0J-150000D01*
G01*
X136700000Y-55115000D01*
G75*
G02*
X136550000Y-55265000I-150000J0D01*
G01*
X135100000Y-55265000D01*
G75*
G02*
X134950000Y-55115000I0J150000D01*
G01*
G37*
%TD.AperFunction*%
%TO.P,U2,1*%
%TO.N,Net-(R2-Pad1)*%
%TA.AperFunction,SMDPad,CuDef*%
G36*
G01*
X134950000Y-53845000D02*
X134950000Y-53545000D01*
G75*
G02*
X135100000Y-53395000I150000J0D01*
G01*
X136550000Y-53395000D01*
G75*
G02*
X136700000Y-53545000I0J-150000D01*
G01*
X136700000Y-53845000D01*
G75*
G02*
X136550000Y-53995000I-150000J0D01*
G01*
X135100000Y-53995000D01*
G75*
G02*
X134950000Y-53845000I0J150000D01*
G01*
G37*
%TD.AperFunction*%
%TD*%
%TO.P,U3,1*%
%TO.N,Net-(R3-Pad1)*%
%TA.AperFunction,SMDPad,CuDef*%
G36*
G01*
X134950000Y-60845000D02*
X134950000Y-60545000D01*
G75*
G02*
X135100000Y-60395000I150000J0D01*
G01*
X136550000Y-60395000D01*
G75*
G02*
X136700000Y-60545000I0J-150000D01*
G01*
X136700000Y-60845000D01*
G75*
G02*
X136550000Y-60995000I-150000J0D01*
G01*
X135100000Y-60995000D01*
G75*
G02*
X134950000Y-60845000I0J150000D01*
G01*
G37*
%TD.AperFunction*%
%TO.P,U3,2*%
%TO.N,/PD2*%
%TA.AperFunction,SMDPad,CuDef*%
G36*
G01*
X134950000Y-62115000D02*
X134950000Y-61815000D01*
G75*
G02*
X135100000Y-61665000I150000J0D01*
G01*
X136550000Y-61665000D01*
G75*
G02*
X136700000Y-61815000I0J-150000D01*
G01*
X136700000Y-62115000D01*
G75*
G02*
X136550000Y-62265000I-150000J0D01*
G01*
X135100000Y-62265000D01*
G75*
G02*
X134950000Y-62115000I0J150000D01*
G01*
G37*
%TD.AperFunction*%
%TO.P,U3,3*%
%TO.N,GND*%
%TA.AperFunction,SMDPad,CuDef*%
G36*
G01*
X134950000Y-63385000D02*
X134950000Y-63085000D01*
G75*
G02*
X135100000Y-62935000I150000J0D01*
G01*
X136550000Y-62935000D01*
G75*
G02*
X136700000Y-63085000I0J-150000D01*
G01*
X136700000Y-63385000D01*
G75*
G02*
X136550000Y-63535000I-150000J0D01*
G01*
X135100000Y-63535000D01*
G75*
G02*
X134950000Y-63385000I0J150000D01*
G01*
G37*
%TD.AperFunction*%
%TO.P,U3,4*%
%TA.AperFunction,SMDPad,CuDef*%
G36*
G01*
X134950000Y-64655000D02*
X134950000Y-64355000D01*
G75*
G02*
X135100000Y-64205000I150000J0D01*
G01*
X136550000Y-64205000D01*
G75*
G02*
X136700000Y-64355000I0J-150000D01*
G01*
X136700000Y-64655000D01*
G75*
G02*
X136550000Y-64805000I-150000J0D01*
G01*
X135100000Y-64805000D01*
G75*
G02*
X134950000Y-64655000I0J150000D01*
G01*
G37*
%TD.AperFunction*%
%TO.P,U3,5*%
%TO.N,Net-(R3-Pad1)*%
%TA.AperFunction,SMDPad,CuDef*%
G36*
G01*
X140100000Y-64655000D02*
X140100000Y-64355000D01*
G75*
G02*
X140250000Y-64205000I150000J0D01*
G01*
X141700000Y-64205000D01*
G75*
G02*
X141850000Y-64355000I0J-150000D01*
G01*
X141850000Y-64655000D01*
G75*
G02*
X141700000Y-64805000I-150000J0D01*
G01*
X140250000Y-64805000D01*
G75*
G02*
X140100000Y-64655000I0J150000D01*
G01*
G37*
%TD.AperFunction*%
%TO.P,U3,6*%
%TO.N,Net-(RV3-Pad2)*%
%TA.AperFunction,SMDPad,CuDef*%
G36*
G01*
X140100000Y-63385000D02*
X140100000Y-63085000D01*
G75*
G02*
X140250000Y-62935000I150000J0D01*
G01*
X141700000Y-62935000D01*
G75*
G02*
X141850000Y-63085000I0J-150000D01*
G01*
X141850000Y-63385000D01*
G75*
G02*
X141700000Y-63535000I-150000J0D01*
G01*
X140250000Y-63535000D01*
G75*
G02*
X140100000Y-63385000I0J150000D01*
G01*
G37*
%TD.AperFunction*%
%TO.P,U3,7*%
%TO.N,GPIO5*%
%TA.AperFunction,SMDPad,CuDef*%
G36*
G01*
X140100000Y-62115000D02*
X140100000Y-61815000D01*
G75*
G02*
X140250000Y-61665000I150000J0D01*
G01*
X141700000Y-61665000D01*
G75*
G02*
X141850000Y-61815000I0J-150000D01*
G01*
X141850000Y-62115000D01*
G75*
G02*
X141700000Y-62265000I-150000J0D01*
G01*
X140250000Y-62265000D01*
G75*
G02*
X140100000Y-62115000I0J150000D01*
G01*
G37*
%TD.AperFunction*%
%TO.P,U3,8*%
%TO.N,+3V3*%
%TA.AperFunction,SMDPad,CuDef*%
G36*
G01*
X140100000Y-60845000D02*
X140100000Y-60545000D01*
G75*
G02*
X140250000Y-60395000I150000J0D01*
G01*
X141700000Y-60395000D01*
G75*
G02*
X141850000Y-60545000I0J-150000D01*
G01*
X141850000Y-60845000D01*
G75*
G02*
X141700000Y-60995000I-150000J0D01*
G01*
X140250000Y-60995000D01*
G75*
G02*
X140100000Y-60845000I0J150000D01*
G01*
G37*
%TD.AperFunction*%
%TD*%
%TO.P,U4,1*%
%TO.N,Net-(R4-Pad1)*%
%TA.AperFunction,SMDPad,CuDef*%
G36*
G01*
X134950000Y-67845000D02*
X134950000Y-67545000D01*
G75*
G02*
X135100000Y-67395000I150000J0D01*
G01*
X136550000Y-67395000D01*
G75*
G02*
X136700000Y-67545000I0J-150000D01*
G01*
X136700000Y-67845000D01*
G75*
G02*
X136550000Y-67995000I-150000J0D01*
G01*
X135100000Y-67995000D01*
G75*
G02*
X134950000Y-67845000I0J150000D01*
G01*
G37*
%TD.AperFunction*%
%TO.P,U4,2*%
%TO.N,/PD3*%
%TA.AperFunction,SMDPad,CuDef*%
G36*
G01*
X134950000Y-69115000D02*
X134950000Y-68815000D01*
G75*
G02*
X135100000Y-68665000I150000J0D01*
G01*
X136550000Y-68665000D01*
G75*
G02*
X136700000Y-68815000I0J-150000D01*
G01*
X136700000Y-69115000D01*
G75*
G02*
X136550000Y-69265000I-150000J0D01*
G01*
X135100000Y-69265000D01*
G75*
G02*
X134950000Y-69115000I0J150000D01*
G01*
G37*
%TD.AperFunction*%
%TO.P,U4,3*%
%TO.N,GND*%
%TA.AperFunction,SMDPad,CuDef*%
G36*
G01*
X134950000Y-70385000D02*
X134950000Y-70085000D01*
G75*
G02*
X135100000Y-69935000I150000J0D01*
G01*
X136550000Y-69935000D01*
G75*
G02*
X136700000Y-70085000I0J-150000D01*
G01*
X136700000Y-70385000D01*
G75*
G02*
X136550000Y-70535000I-150000J0D01*
G01*
X135100000Y-70535000D01*
G75*
G02*
X134950000Y-70385000I0J150000D01*
G01*
G37*
%TD.AperFunction*%
%TO.P,U4,4*%
%TA.AperFunction,SMDPad,CuDef*%
G36*
G01*
X134950000Y-71655000D02*
X134950000Y-71355000D01*
G75*
G02*
X135100000Y-71205000I150000J0D01*
G01*
X136550000Y-71205000D01*
G75*
G02*
X136700000Y-71355000I0J-150000D01*
G01*
X136700000Y-71655000D01*
G75*
G02*
X136550000Y-71805000I-150000J0D01*
G01*
X135100000Y-71805000D01*
G75*
G02*
X134950000Y-71655000I0J150000D01*
G01*
G37*
%TD.AperFunction*%
%TO.P,U4,5*%
%TO.N,Net-(R4-Pad1)*%
%TA.AperFunction,SMDPad,CuDef*%
G36*
G01*
X140100000Y-71655000D02*
X140100000Y-71355000D01*
G75*
G02*
X140250000Y-71205000I150000J0D01*
G01*
X141700000Y-71205000D01*
G75*
G02*
X141850000Y-71355000I0J-150000D01*
G01*
X141850000Y-71655000D01*
G75*
G02*
X141700000Y-71805000I-150000J0D01*
G01*
X140250000Y-71805000D01*
G75*
G02*
X140100000Y-71655000I0J150000D01*
G01*
G37*
%TD.AperFunction*%
%TO.P,U4,6*%
%TO.N,Net-(RV4-Pad2)*%
%TA.AperFunction,SMDPad,CuDef*%
G36*
G01*
X140100000Y-70385000D02*
X140100000Y-70085000D01*
G75*
G02*
X140250000Y-69935000I150000J0D01*
G01*
X141700000Y-69935000D01*
G75*
G02*
X141850000Y-70085000I0J-150000D01*
G01*
X141850000Y-70385000D01*
G75*
G02*
X141700000Y-70535000I-150000J0D01*
G01*
X140250000Y-70535000D01*
G75*
G02*
X140100000Y-70385000I0J150000D01*
G01*
G37*
%TD.AperFunction*%
%TO.P,U4,7*%
%TO.N,GPIO6*%
%TA.AperFunction,SMDPad,CuDef*%
G36*
G01*
X140100000Y-69115000D02*
X140100000Y-68815000D01*
G75*
G02*
X140250000Y-68665000I150000J0D01*
G01*
X141700000Y-68665000D01*
G75*
G02*
X141850000Y-68815000I0J-150000D01*
G01*
X141850000Y-69115000D01*
G75*
G02*
X141700000Y-69265000I-150000J0D01*
G01*
X140250000Y-69265000D01*
G75*
G02*
X140100000Y-69115000I0J150000D01*
G01*
G37*
%TD.AperFunction*%
%TO.P,U4,8*%
%TO.N,+3V3*%
%TA.AperFunction,SMDPad,CuDef*%
G36*
G01*
X140100000Y-67845000D02*
X140100000Y-67545000D01*
G75*
G02*
X140250000Y-67395000I150000J0D01*
G01*
X141700000Y-67395000D01*
G75*
G02*
X141850000Y-67545000I0J-150000D01*
G01*
X141850000Y-67845000D01*
G75*
G02*
X141700000Y-67995000I-150000J0D01*
G01*
X140250000Y-67995000D01*
G75*
G02*
X140100000Y-67845000I0J150000D01*
G01*
G37*
%TD.AperFunction*%
%TD*%
D16*
%TO.P,U6,1*%
%TO.N,Net-(R5-Pad1)*%
X156555000Y-65730000D03*
%TO.P,U6,3*%
%TO.N,Net-(J3-Pad1)*%
X165445000Y-68270000D03*
%TO.P,U6,2*%
%TO.N,GND*%
X156555000Y-68270000D03*
%TO.P,U6,4*%
%TO.N,Net-(J3-Pad2)*%
X165445000Y-65730000D03*
%TD*%
%TO.P,U7,1*%
%TO.N,Net-(R6-Pad1)*%
X156555000Y-58730000D03*
%TO.P,U7,3*%
%TO.N,Net-(J3-Pad3)*%
X165445000Y-61270000D03*
%TO.P,U7,2*%
%TO.N,GND*%
X156555000Y-61270000D03*
%TO.P,U7,4*%
%TO.N,Net-(J3-Pad4)*%
X165445000Y-58730000D03*
%TD*%
%TO.P,U8,4*%
%TO.N,Net-(J3-Pad6)*%
X165445000Y-51730000D03*
%TO.P,U8,2*%
%TO.N,GND*%
X156555000Y-54270000D03*
%TO.P,U8,3*%
%TO.N,Net-(J3-Pad5)*%
X165445000Y-54270000D03*
%TO.P,U8,1*%
%TO.N,Net-(R7-Pad1)*%
X156555000Y-51730000D03*
%TD*%
D17*
%TO.N,+3V3*%
X138800000Y-47300000D03*
X138800000Y-49400000D03*
X138600000Y-54400000D03*
X138500000Y-56100000D03*
X138300000Y-61300000D03*
X138300000Y-62800000D03*
%TO.N,GND*%
X137400000Y-49200000D03*
X137400000Y-50400000D03*
X138400000Y-45100000D03*
X138600000Y-52100000D03*
X149000000Y-68800000D03*
X148900000Y-53700000D03*
X137500000Y-70300000D03*
X137400000Y-71500000D03*
X138200000Y-66100000D03*
X138500000Y-59100000D03*
X137300000Y-63300000D03*
X137200000Y-64500000D03*
X137400000Y-57400000D03*
X137400000Y-56200000D03*
X148699979Y-46800000D03*
X148599990Y-60600000D03*
X154200000Y-68300000D03*
X154200000Y-61400000D03*
X154300000Y-54200000D03*
%TO.N,GPIO0*%
X158800000Y-42100000D03*
X161200000Y-42100000D03*
%TO.N,GPIO5*%
X153800000Y-42500000D03*
X153800000Y-41000000D03*
%TO.N,GPIO6*%
X155100000Y-41800000D03*
%TD*%
D18*
%TO.N,+3V3*%
X140975000Y-66500000D02*
X141375000Y-66100000D01*
X140975000Y-67695000D02*
X140975000Y-66500000D01*
X140975000Y-59500000D02*
X141375000Y-59100000D01*
X140975000Y-60695000D02*
X140975000Y-59500000D01*
X140975000Y-52500000D02*
X141375000Y-52100000D01*
X140975000Y-53695000D02*
X140975000Y-52500000D01*
X140975000Y-45500000D02*
X141375000Y-45100000D01*
X140975000Y-46695000D02*
X140975000Y-45500000D01*
X141375000Y-45100000D02*
X141375000Y-43025000D01*
X141375000Y-43025000D02*
X149300000Y-35100000D01*
X160850000Y-35100000D02*
X162780000Y-37030000D01*
X149300000Y-35100000D02*
X160850000Y-35100000D01*
X139405000Y-46695000D02*
X138800000Y-47300000D01*
X140975000Y-46695000D02*
X139405000Y-46695000D01*
X138800000Y-49400000D02*
X138800000Y-50500000D01*
X138800000Y-50500000D02*
X137700000Y-51600000D01*
X137700000Y-51600000D02*
X137700000Y-52800000D01*
X138595000Y-53695000D02*
X140975000Y-53695000D01*
X137700000Y-52800000D02*
X138595000Y-53695000D01*
X138595000Y-54395000D02*
X138600000Y-54400000D01*
X138595000Y-53695000D02*
X138595000Y-54395000D01*
X138500000Y-56100000D02*
X138500000Y-57600000D01*
X138500000Y-57600000D02*
X137400000Y-58700000D01*
X137400000Y-58700000D02*
X137400000Y-59800000D01*
X138295000Y-60695000D02*
X140975000Y-60695000D01*
X137400000Y-59800000D02*
X138295000Y-60695000D01*
X138295000Y-61295000D02*
X138300000Y-61300000D01*
X138295000Y-60695000D02*
X138295000Y-61295000D01*
X138300000Y-62800000D02*
X138300000Y-64600000D01*
X138300000Y-64600000D02*
X137300000Y-65600000D01*
X137300000Y-65600000D02*
X137300000Y-66600000D01*
X138395000Y-67695000D02*
X140975000Y-67695000D01*
X137300000Y-66600000D02*
X138395000Y-67695000D01*
D19*
%TO.N,GND*%
X137365000Y-49235000D02*
X137400000Y-49200000D01*
X135825000Y-49235000D02*
X137365000Y-49235000D01*
X137295000Y-50505000D02*
X137400000Y-50400000D01*
X135825000Y-50505000D02*
X137295000Y-50505000D01*
X139625000Y-45100000D02*
X138400000Y-45100000D01*
X139625000Y-52100000D02*
X138600000Y-52100000D01*
X148800000Y-68600000D02*
X149000000Y-68800000D01*
X147550000Y-68600000D02*
X148800000Y-68600000D01*
X148800000Y-53600000D02*
X148900000Y-53700000D01*
X147550000Y-53600000D02*
X148800000Y-53600000D01*
X137435000Y-70235000D02*
X137500000Y-70300000D01*
X135825000Y-70235000D02*
X137435000Y-70235000D01*
X137395000Y-71505000D02*
X137400000Y-71500000D01*
X135825000Y-71505000D02*
X137395000Y-71505000D01*
X139625000Y-66100000D02*
X138200000Y-66100000D01*
X139625000Y-59100000D02*
X138500000Y-59100000D01*
X137235000Y-63235000D02*
X137300000Y-63300000D01*
X135825000Y-63235000D02*
X137235000Y-63235000D01*
X137195000Y-64505000D02*
X137200000Y-64500000D01*
X135825000Y-64505000D02*
X137195000Y-64505000D01*
X137295000Y-57505000D02*
X137400000Y-57400000D01*
X135825000Y-57505000D02*
X137295000Y-57505000D01*
X137365000Y-56235000D02*
X137400000Y-56200000D01*
X135825000Y-56235000D02*
X137365000Y-56235000D01*
X148499979Y-46600000D02*
X148699979Y-46800000D01*
X147550000Y-46600000D02*
X148499979Y-46600000D01*
X147550000Y-60600000D02*
X148599990Y-60600000D01*
X154230000Y-68270000D02*
X154200000Y-68300000D01*
X156555000Y-68270000D02*
X154230000Y-68270000D01*
X154330000Y-61270000D02*
X154200000Y-61400000D01*
X156555000Y-61270000D02*
X154330000Y-61270000D01*
X154370000Y-54270000D02*
X154300000Y-54200000D01*
X156555000Y-54270000D02*
X154370000Y-54270000D01*
%TO.N,/PD0*%
X135315000Y-48475000D02*
X135825000Y-47965000D01*
X133400000Y-48475000D02*
X135315000Y-48475000D01*
X128940000Y-52935000D02*
X133400000Y-48475000D01*
X128940000Y-54600000D02*
X128940000Y-52935000D01*
%TO.N,/PD1*%
X130735000Y-57140000D02*
X133400000Y-54475000D01*
X128940000Y-57140000D02*
X130735000Y-57140000D01*
X133890000Y-54965000D02*
X133400000Y-54475000D01*
X135825000Y-54965000D02*
X133890000Y-54965000D01*
%TO.N,/PD2*%
X128940000Y-59680000D02*
X130880000Y-59680000D01*
X132675000Y-61475000D02*
X133400000Y-61475000D01*
X130880000Y-59680000D02*
X132675000Y-61475000D01*
X133890000Y-61965000D02*
X133400000Y-61475000D01*
X135825000Y-61965000D02*
X133890000Y-61965000D01*
%TO.N,/PD3*%
X128940000Y-63550156D02*
X130600000Y-65210156D01*
X128940000Y-62220000D02*
X128940000Y-63550156D01*
X130600000Y-65210156D02*
X130600000Y-66700000D01*
X132375000Y-68475000D02*
X133400000Y-68475000D01*
X130600000Y-66700000D02*
X132375000Y-68475000D01*
X133890000Y-68965000D02*
X133400000Y-68475000D01*
X135825000Y-68965000D02*
X133890000Y-68965000D01*
%TO.N,GPIO0*%
X154000000Y-63925000D02*
X154000000Y-63400000D01*
X154000000Y-63400000D02*
X152200000Y-61600000D01*
X152200000Y-61600000D02*
X152200000Y-48700000D01*
X152200000Y-48700000D02*
X158800000Y-42100000D01*
X161200000Y-41150000D02*
X162780000Y-39570000D01*
X161200000Y-42100000D02*
X161200000Y-41150000D01*
%TO.N,GPIO1*%
X153800000Y-56925000D02*
X153325000Y-56925000D01*
X159228799Y-38041201D02*
X160240000Y-37030000D01*
X153325000Y-56925000D02*
X152700000Y-56300000D01*
X152700000Y-56300000D02*
X152700000Y-49000000D01*
X159088002Y-42700002D02*
X159400002Y-42388002D01*
X152700000Y-49000000D02*
X158999998Y-42700002D01*
X158999998Y-42700002D02*
X159088002Y-42700002D01*
X159400002Y-42388002D02*
X159400002Y-41811998D01*
X159400002Y-41811998D02*
X159228799Y-41640795D01*
X159228799Y-41640795D02*
X159228799Y-38041201D01*
%TO.N,GPIO2*%
X153900000Y-50025000D02*
X153900000Y-49200000D01*
X160240000Y-42860000D02*
X160240000Y-39570000D01*
X153900000Y-49200000D02*
X160240000Y-42860000D01*
%TO.N,GPIO3*%
X143885000Y-47965000D02*
X145250000Y-46600000D01*
X140975000Y-47965000D02*
X143885000Y-47965000D01*
X145250000Y-46600000D02*
X145250000Y-41350000D01*
X145250000Y-41350000D02*
X150900000Y-35700000D01*
X156370000Y-35700000D02*
X157700000Y-37030000D01*
X150900000Y-35700000D02*
X156370000Y-35700000D01*
%TO.N,GPIO4*%
X143885000Y-54965000D02*
X145250000Y-53600000D01*
X140975000Y-54965000D02*
X143885000Y-54965000D01*
X154111998Y-41899998D02*
X154811998Y-41199998D01*
X145250000Y-53600000D02*
X145250000Y-52400000D01*
X145450000Y-52200000D02*
X147340002Y-52200000D01*
X147340002Y-52200000D02*
X149299989Y-50240013D01*
X149299989Y-50240013D02*
X149299989Y-46112007D01*
X149299989Y-46112007D02*
X153511998Y-41899998D01*
X145250000Y-52400000D02*
X145450000Y-52200000D01*
X153511998Y-41899998D02*
X154111998Y-41899998D01*
X154811998Y-41199998D02*
X156070002Y-41199998D01*
X156070002Y-41199998D02*
X157700000Y-39570000D01*
%TO.N,GPIO5*%
X143885000Y-61965000D02*
X145250000Y-60600000D01*
X140975000Y-61965000D02*
X143885000Y-61965000D01*
X145250000Y-60600000D02*
X145250000Y-60550000D01*
X145250000Y-60550000D02*
X146700000Y-59100000D01*
X146700000Y-59100000D02*
X147800000Y-59100000D01*
X147800000Y-59100000D02*
X149700000Y-57200000D01*
X149700000Y-46600000D02*
X153800000Y-42500000D01*
X149700000Y-57200000D02*
X149700000Y-46600000D01*
X153800000Y-38390000D02*
X155160000Y-37030000D01*
X153800000Y-41000000D02*
X153800000Y-38390000D01*
%TO.N,GPIO6*%
X144885000Y-68965000D02*
X145250000Y-68600000D01*
X140975000Y-68965000D02*
X144885000Y-68965000D01*
X145250000Y-68600000D02*
X145250000Y-67650000D01*
X145250000Y-67650000D02*
X146100000Y-66800000D01*
X146100000Y-66800000D02*
X148100000Y-66800000D01*
X148100000Y-66800000D02*
X149200000Y-65700000D01*
X149200000Y-65700000D02*
X149200000Y-58300000D01*
X149200000Y-58300000D02*
X150400000Y-57100000D01*
X150299990Y-56999990D02*
X150299990Y-46600010D01*
X150400000Y-57100000D02*
X150299990Y-56999990D01*
X150299990Y-46600010D02*
X153400000Y-43500000D01*
X153400000Y-43500000D02*
X154200000Y-43500000D01*
X155100000Y-42600000D02*
X155100000Y-41800000D01*
X154200000Y-43500000D02*
X155100000Y-42600000D01*
D20*
%TO.N,Net-(J3-Pad1)*%
X171270000Y-68270000D02*
X172000000Y-69000000D01*
X165445000Y-68270000D02*
X171270000Y-68270000D01*
%TO.N,Net-(J3-Pad2)*%
X171772420Y-65730000D02*
X172000000Y-65502420D01*
X165445000Y-65730000D02*
X171772420Y-65730000D01*
%TO.N,Net-(J3-Pad3)*%
X171267700Y-61270000D02*
X172000000Y-62002300D01*
X165445000Y-61270000D02*
X171267700Y-61270000D01*
%TO.N,Net-(J3-Pad4)*%
X171772180Y-58730000D02*
X172000000Y-58502180D01*
X165445000Y-58730000D02*
X171772180Y-58730000D01*
%TO.N,Net-(J3-Pad5)*%
X171270000Y-54270000D02*
X172000000Y-55000000D01*
X165445000Y-54270000D02*
X171270000Y-54270000D01*
%TO.N,Net-(J3-Pad6)*%
X171770000Y-51730000D02*
X172000000Y-51500000D01*
X165445000Y-51730000D02*
X171770000Y-51730000D01*
D19*
%TO.N,Net-(R1-Pad1)*%
X135795000Y-46725000D02*
X135825000Y-46695000D01*
X133400000Y-46725000D02*
X135795000Y-46725000D01*
X135825000Y-46695000D02*
X136983002Y-46695000D01*
X136983002Y-46695000D02*
X139400001Y-49111999D01*
X139400001Y-49111999D02*
X139400001Y-49805001D01*
X139400001Y-49805001D02*
X140100000Y-50505000D01*
X140100000Y-50505000D02*
X140975000Y-50505000D01*
%TO.N,Net-(R2-Pad1)*%
X134370000Y-53695000D02*
X133400000Y-52725000D01*
X135825000Y-53695000D02*
X134370000Y-53695000D01*
X135825000Y-53695000D02*
X136983002Y-53695000D01*
X136983002Y-53695000D02*
X139100001Y-55811999D01*
X139100001Y-56505001D02*
X140100000Y-57505000D01*
X139100001Y-55811999D02*
X139100001Y-56505001D01*
X140100000Y-57505000D02*
X140975000Y-57505000D01*
%TO.N,Net-(R3-Pad1)*%
X134370000Y-60695000D02*
X133400000Y-59725000D01*
X135825000Y-60695000D02*
X134370000Y-60695000D01*
X135825000Y-60695000D02*
X136700000Y-60695000D01*
X136700000Y-60695000D02*
X138204999Y-62199999D01*
X140100000Y-64505000D02*
X140975000Y-64505000D01*
X138204999Y-62199999D02*
X138588001Y-62199999D01*
X138588001Y-62199999D02*
X138900001Y-62511999D01*
X138900001Y-62511999D02*
X138900001Y-63305001D01*
X138900001Y-63305001D02*
X140100000Y-64505000D01*
%TO.N,Net-(R4-Pad1)*%
X134370000Y-67695000D02*
X133400000Y-66725000D01*
X135825000Y-67695000D02*
X134370000Y-67695000D01*
X140510000Y-71505000D02*
X140975000Y-71505000D01*
X136700000Y-67695000D02*
X140510000Y-71505000D01*
X135825000Y-67695000D02*
X136700000Y-67695000D01*
%TO.N,Net-(R5-Pad1)*%
X154055000Y-65730000D02*
X154000000Y-65675000D01*
X156555000Y-65730000D02*
X154055000Y-65730000D01*
%TO.N,Net-(R6-Pad1)*%
X153855000Y-58730000D02*
X153800000Y-58675000D01*
X156555000Y-58730000D02*
X153855000Y-58730000D01*
%TO.N,Net-(R7-Pad1)*%
X153945000Y-51730000D02*
X153900000Y-51775000D01*
X156555000Y-51730000D02*
X153945000Y-51730000D01*
%TO.N,Net-(RV1-Pad2)*%
X145035000Y-49235000D02*
X146400000Y-50600000D01*
X140975000Y-49235000D02*
X145035000Y-49235000D01*
%TO.N,Net-(RV2-Pad2)*%
X145035000Y-56235000D02*
X146400000Y-57600000D01*
X140975000Y-56235000D02*
X145035000Y-56235000D01*
%TO.N,Net-(RV3-Pad2)*%
X145035000Y-63235000D02*
X146400000Y-64600000D01*
X140975000Y-63235000D02*
X145035000Y-63235000D01*
%TO.N,Net-(RV4-Pad2)*%
X144035000Y-70235000D02*
X146400000Y-72600000D01*
X140975000Y-70235000D02*
X144035000Y-70235000D01*
%TD*%
M02*
