%TF.GenerationSoftware,KiCad,Pcbnew,5.1.6-c6e7f7d~87~ubuntu18.04.1*%
%TF.CreationDate,2022-03-05T00:13:30+01:00*%
%TF.ProjectId,door_ext_photorelay,646f6f72-5f65-4787-945f-70686f746f72,rev?*%
%TF.SameCoordinates,Original*%
%TF.FileFunction,Soldermask,Top*%
%TF.FilePolarity,Negative*%
%FSLAX46Y46*%
G04 Gerber Fmt 4.6, Leading zero omitted, Abs format (unit mm)*
G04 Created by KiCad (PCBNEW 5.1.6-c6e7f7d~87~ubuntu18.04.1) date 2022-03-05 00:13:30*
%MOMM*%
%LPD*%
G01*
G04 APERTURE LIST*
%ADD10R,1.800000X1.800000*%
%ADD11O,1.800000X1.800000*%
%ADD12C,1.522400*%
%ADD13O,3.600000X2.600000*%
%ADD14R,1.400000X2.100000*%
%ADD15R,2.100000X2.100000*%
%ADD16R,3.200000X1.700000*%
%ADD17C,3.300000*%
G04 APERTURE END LIST*
%TO.C,C1*%
G36*
G01*
X141950000Y-65837500D02*
X141950000Y-66362500D01*
G75*
G02*
X141687500Y-66625000I-262500J0D01*
G01*
X141062500Y-66625000D01*
G75*
G02*
X140800000Y-66362500I0J262500D01*
G01*
X140800000Y-65837500D01*
G75*
G02*
X141062500Y-65575000I262500J0D01*
G01*
X141687500Y-65575000D01*
G75*
G02*
X141950000Y-65837500I0J-262500D01*
G01*
G37*
G36*
G01*
X140200000Y-65837500D02*
X140200000Y-66362500D01*
G75*
G02*
X139937500Y-66625000I-262500J0D01*
G01*
X139312500Y-66625000D01*
G75*
G02*
X139050000Y-66362500I0J262500D01*
G01*
X139050000Y-65837500D01*
G75*
G02*
X139312500Y-65575000I262500J0D01*
G01*
X139937500Y-65575000D01*
G75*
G02*
X140200000Y-65837500I0J-262500D01*
G01*
G37*
%TD*%
%TO.C,C2*%
G36*
G01*
X140200000Y-51837500D02*
X140200000Y-52362500D01*
G75*
G02*
X139937500Y-52625000I-262500J0D01*
G01*
X139312500Y-52625000D01*
G75*
G02*
X139050000Y-52362500I0J262500D01*
G01*
X139050000Y-51837500D01*
G75*
G02*
X139312500Y-51575000I262500J0D01*
G01*
X139937500Y-51575000D01*
G75*
G02*
X140200000Y-51837500I0J-262500D01*
G01*
G37*
G36*
G01*
X141950000Y-51837500D02*
X141950000Y-52362500D01*
G75*
G02*
X141687500Y-52625000I-262500J0D01*
G01*
X141062500Y-52625000D01*
G75*
G02*
X140800000Y-52362500I0J262500D01*
G01*
X140800000Y-51837500D01*
G75*
G02*
X141062500Y-51575000I262500J0D01*
G01*
X141687500Y-51575000D01*
G75*
G02*
X141950000Y-51837500I0J-262500D01*
G01*
G37*
%TD*%
%TO.C,C3*%
G36*
G01*
X141950000Y-44837500D02*
X141950000Y-45362500D01*
G75*
G02*
X141687500Y-45625000I-262500J0D01*
G01*
X141062500Y-45625000D01*
G75*
G02*
X140800000Y-45362500I0J262500D01*
G01*
X140800000Y-44837500D01*
G75*
G02*
X141062500Y-44575000I262500J0D01*
G01*
X141687500Y-44575000D01*
G75*
G02*
X141950000Y-44837500I0J-262500D01*
G01*
G37*
G36*
G01*
X140200000Y-44837500D02*
X140200000Y-45362500D01*
G75*
G02*
X139937500Y-45625000I-262500J0D01*
G01*
X139312500Y-45625000D01*
G75*
G02*
X139050000Y-45362500I0J262500D01*
G01*
X139050000Y-44837500D01*
G75*
G02*
X139312500Y-44575000I262500J0D01*
G01*
X139937500Y-44575000D01*
G75*
G02*
X140200000Y-44837500I0J-262500D01*
G01*
G37*
%TD*%
%TO.C,C4*%
G36*
G01*
X140200000Y-58837500D02*
X140200000Y-59362500D01*
G75*
G02*
X139937500Y-59625000I-262500J0D01*
G01*
X139312500Y-59625000D01*
G75*
G02*
X139050000Y-59362500I0J262500D01*
G01*
X139050000Y-58837500D01*
G75*
G02*
X139312500Y-58575000I262500J0D01*
G01*
X139937500Y-58575000D01*
G75*
G02*
X140200000Y-58837500I0J-262500D01*
G01*
G37*
G36*
G01*
X141950000Y-58837500D02*
X141950000Y-59362500D01*
G75*
G02*
X141687500Y-59625000I-262500J0D01*
G01*
X141062500Y-59625000D01*
G75*
G02*
X140800000Y-59362500I0J262500D01*
G01*
X140800000Y-58837500D01*
G75*
G02*
X141062500Y-58575000I262500J0D01*
G01*
X141687500Y-58575000D01*
G75*
G02*
X141950000Y-58837500I0J-262500D01*
G01*
G37*
%TD*%
D10*
%TO.C,J1*%
X126400000Y-54600000D03*
D11*
X128940000Y-54600000D03*
X126400000Y-57140000D03*
X128940000Y-57140000D03*
X126400000Y-59680000D03*
X128940000Y-59680000D03*
X126400000Y-62220000D03*
X128940000Y-62220000D03*
%TD*%
D12*
%TO.C,J2*%
X162780000Y-37030000D03*
X162780000Y-39570000D03*
X160240000Y-37030000D03*
X160240000Y-39570000D03*
X157700000Y-37030000D03*
X157700000Y-39570000D03*
X155160000Y-37030000D03*
X155160000Y-39570000D03*
X152620000Y-37030000D03*
X152620000Y-39570000D03*
%TD*%
D13*
%TO.C,J3*%
X172000000Y-69000000D03*
X172000000Y-65502420D03*
X172000000Y-62002300D03*
X172000000Y-58502180D03*
X172000000Y-55000000D03*
X172000000Y-51500000D03*
X172000000Y-48000000D03*
X172000000Y-44500000D03*
%TD*%
%TO.C,R1*%
G36*
G01*
X133137500Y-47900000D02*
X133662500Y-47900000D01*
G75*
G02*
X133925000Y-48162500I0J-262500D01*
G01*
X133925000Y-48787500D01*
G75*
G02*
X133662500Y-49050000I-262500J0D01*
G01*
X133137500Y-49050000D01*
G75*
G02*
X132875000Y-48787500I0J262500D01*
G01*
X132875000Y-48162500D01*
G75*
G02*
X133137500Y-47900000I262500J0D01*
G01*
G37*
G36*
G01*
X133137500Y-46150000D02*
X133662500Y-46150000D01*
G75*
G02*
X133925000Y-46412500I0J-262500D01*
G01*
X133925000Y-47037500D01*
G75*
G02*
X133662500Y-47300000I-262500J0D01*
G01*
X133137500Y-47300000D01*
G75*
G02*
X132875000Y-47037500I0J262500D01*
G01*
X132875000Y-46412500D01*
G75*
G02*
X133137500Y-46150000I262500J0D01*
G01*
G37*
%TD*%
%TO.C,R2*%
G36*
G01*
X133137500Y-52150000D02*
X133662500Y-52150000D01*
G75*
G02*
X133925000Y-52412500I0J-262500D01*
G01*
X133925000Y-53037500D01*
G75*
G02*
X133662500Y-53300000I-262500J0D01*
G01*
X133137500Y-53300000D01*
G75*
G02*
X132875000Y-53037500I0J262500D01*
G01*
X132875000Y-52412500D01*
G75*
G02*
X133137500Y-52150000I262500J0D01*
G01*
G37*
G36*
G01*
X133137500Y-53900000D02*
X133662500Y-53900000D01*
G75*
G02*
X133925000Y-54162500I0J-262500D01*
G01*
X133925000Y-54787500D01*
G75*
G02*
X133662500Y-55050000I-262500J0D01*
G01*
X133137500Y-55050000D01*
G75*
G02*
X132875000Y-54787500I0J262500D01*
G01*
X132875000Y-54162500D01*
G75*
G02*
X133137500Y-53900000I262500J0D01*
G01*
G37*
%TD*%
%TO.C,R3*%
G36*
G01*
X133137500Y-60900000D02*
X133662500Y-60900000D01*
G75*
G02*
X133925000Y-61162500I0J-262500D01*
G01*
X133925000Y-61787500D01*
G75*
G02*
X133662500Y-62050000I-262500J0D01*
G01*
X133137500Y-62050000D01*
G75*
G02*
X132875000Y-61787500I0J262500D01*
G01*
X132875000Y-61162500D01*
G75*
G02*
X133137500Y-60900000I262500J0D01*
G01*
G37*
G36*
G01*
X133137500Y-59150000D02*
X133662500Y-59150000D01*
G75*
G02*
X133925000Y-59412500I0J-262500D01*
G01*
X133925000Y-60037500D01*
G75*
G02*
X133662500Y-60300000I-262500J0D01*
G01*
X133137500Y-60300000D01*
G75*
G02*
X132875000Y-60037500I0J262500D01*
G01*
X132875000Y-59412500D01*
G75*
G02*
X133137500Y-59150000I262500J0D01*
G01*
G37*
%TD*%
%TO.C,R4*%
G36*
G01*
X133137500Y-67900000D02*
X133662500Y-67900000D01*
G75*
G02*
X133925000Y-68162500I0J-262500D01*
G01*
X133925000Y-68787500D01*
G75*
G02*
X133662500Y-69050000I-262500J0D01*
G01*
X133137500Y-69050000D01*
G75*
G02*
X132875000Y-68787500I0J262500D01*
G01*
X132875000Y-68162500D01*
G75*
G02*
X133137500Y-67900000I262500J0D01*
G01*
G37*
G36*
G01*
X133137500Y-66150000D02*
X133662500Y-66150000D01*
G75*
G02*
X133925000Y-66412500I0J-262500D01*
G01*
X133925000Y-67037500D01*
G75*
G02*
X133662500Y-67300000I-262500J0D01*
G01*
X133137500Y-67300000D01*
G75*
G02*
X132875000Y-67037500I0J262500D01*
G01*
X132875000Y-66412500D01*
G75*
G02*
X133137500Y-66150000I262500J0D01*
G01*
G37*
%TD*%
%TO.C,R5*%
G36*
G01*
X154262500Y-66250000D02*
X153737500Y-66250000D01*
G75*
G02*
X153475000Y-65987500I0J262500D01*
G01*
X153475000Y-65362500D01*
G75*
G02*
X153737500Y-65100000I262500J0D01*
G01*
X154262500Y-65100000D01*
G75*
G02*
X154525000Y-65362500I0J-262500D01*
G01*
X154525000Y-65987500D01*
G75*
G02*
X154262500Y-66250000I-262500J0D01*
G01*
G37*
G36*
G01*
X154262500Y-64500000D02*
X153737500Y-64500000D01*
G75*
G02*
X153475000Y-64237500I0J262500D01*
G01*
X153475000Y-63612500D01*
G75*
G02*
X153737500Y-63350000I262500J0D01*
G01*
X154262500Y-63350000D01*
G75*
G02*
X154525000Y-63612500I0J-262500D01*
G01*
X154525000Y-64237500D01*
G75*
G02*
X154262500Y-64500000I-262500J0D01*
G01*
G37*
%TD*%
%TO.C,R6*%
G36*
G01*
X154062500Y-59250000D02*
X153537500Y-59250000D01*
G75*
G02*
X153275000Y-58987500I0J262500D01*
G01*
X153275000Y-58362500D01*
G75*
G02*
X153537500Y-58100000I262500J0D01*
G01*
X154062500Y-58100000D01*
G75*
G02*
X154325000Y-58362500I0J-262500D01*
G01*
X154325000Y-58987500D01*
G75*
G02*
X154062500Y-59250000I-262500J0D01*
G01*
G37*
G36*
G01*
X154062500Y-57500000D02*
X153537500Y-57500000D01*
G75*
G02*
X153275000Y-57237500I0J262500D01*
G01*
X153275000Y-56612500D01*
G75*
G02*
X153537500Y-56350000I262500J0D01*
G01*
X154062500Y-56350000D01*
G75*
G02*
X154325000Y-56612500I0J-262500D01*
G01*
X154325000Y-57237500D01*
G75*
G02*
X154062500Y-57500000I-262500J0D01*
G01*
G37*
%TD*%
%TO.C,R7*%
G36*
G01*
X154162500Y-52350000D02*
X153637500Y-52350000D01*
G75*
G02*
X153375000Y-52087500I0J262500D01*
G01*
X153375000Y-51462500D01*
G75*
G02*
X153637500Y-51200000I262500J0D01*
G01*
X154162500Y-51200000D01*
G75*
G02*
X154425000Y-51462500I0J-262500D01*
G01*
X154425000Y-52087500D01*
G75*
G02*
X154162500Y-52350000I-262500J0D01*
G01*
G37*
G36*
G01*
X154162500Y-50600000D02*
X153637500Y-50600000D01*
G75*
G02*
X153375000Y-50337500I0J262500D01*
G01*
X153375000Y-49712500D01*
G75*
G02*
X153637500Y-49450000I262500J0D01*
G01*
X154162500Y-49450000D01*
G75*
G02*
X154425000Y-49712500I0J-262500D01*
G01*
X154425000Y-50337500D01*
G75*
G02*
X154162500Y-50600000I-262500J0D01*
G01*
G37*
%TD*%
D14*
%TO.C,RV1*%
X145250000Y-46600000D03*
D15*
X146400000Y-50600000D03*
D14*
X147550000Y-46600000D03*
%TD*%
%TO.C,RV2*%
X147550000Y-53600000D03*
D15*
X146400000Y-57600000D03*
D14*
X145250000Y-53600000D03*
%TD*%
%TO.C,RV3*%
X145250000Y-60600000D03*
D15*
X146400000Y-64600000D03*
D14*
X147550000Y-60600000D03*
%TD*%
%TO.C,RV4*%
X147550000Y-68600000D03*
D15*
X146400000Y-72600000D03*
D14*
X145250000Y-68600000D03*
%TD*%
%TO.C,U1*%
G36*
G01*
X134900000Y-46870000D02*
X134900000Y-46520000D01*
G75*
G02*
X135075000Y-46345000I175000J0D01*
G01*
X136575000Y-46345000D01*
G75*
G02*
X136750000Y-46520000I0J-175000D01*
G01*
X136750000Y-46870000D01*
G75*
G02*
X136575000Y-47045000I-175000J0D01*
G01*
X135075000Y-47045000D01*
G75*
G02*
X134900000Y-46870000I0J175000D01*
G01*
G37*
G36*
G01*
X134900000Y-48140000D02*
X134900000Y-47790000D01*
G75*
G02*
X135075000Y-47615000I175000J0D01*
G01*
X136575000Y-47615000D01*
G75*
G02*
X136750000Y-47790000I0J-175000D01*
G01*
X136750000Y-48140000D01*
G75*
G02*
X136575000Y-48315000I-175000J0D01*
G01*
X135075000Y-48315000D01*
G75*
G02*
X134900000Y-48140000I0J175000D01*
G01*
G37*
G36*
G01*
X134900000Y-49410000D02*
X134900000Y-49060000D01*
G75*
G02*
X135075000Y-48885000I175000J0D01*
G01*
X136575000Y-48885000D01*
G75*
G02*
X136750000Y-49060000I0J-175000D01*
G01*
X136750000Y-49410000D01*
G75*
G02*
X136575000Y-49585000I-175000J0D01*
G01*
X135075000Y-49585000D01*
G75*
G02*
X134900000Y-49410000I0J175000D01*
G01*
G37*
G36*
G01*
X134900000Y-50680000D02*
X134900000Y-50330000D01*
G75*
G02*
X135075000Y-50155000I175000J0D01*
G01*
X136575000Y-50155000D01*
G75*
G02*
X136750000Y-50330000I0J-175000D01*
G01*
X136750000Y-50680000D01*
G75*
G02*
X136575000Y-50855000I-175000J0D01*
G01*
X135075000Y-50855000D01*
G75*
G02*
X134900000Y-50680000I0J175000D01*
G01*
G37*
G36*
G01*
X140050000Y-50680000D02*
X140050000Y-50330000D01*
G75*
G02*
X140225000Y-50155000I175000J0D01*
G01*
X141725000Y-50155000D01*
G75*
G02*
X141900000Y-50330000I0J-175000D01*
G01*
X141900000Y-50680000D01*
G75*
G02*
X141725000Y-50855000I-175000J0D01*
G01*
X140225000Y-50855000D01*
G75*
G02*
X140050000Y-50680000I0J175000D01*
G01*
G37*
G36*
G01*
X140050000Y-49410000D02*
X140050000Y-49060000D01*
G75*
G02*
X140225000Y-48885000I175000J0D01*
G01*
X141725000Y-48885000D01*
G75*
G02*
X141900000Y-49060000I0J-175000D01*
G01*
X141900000Y-49410000D01*
G75*
G02*
X141725000Y-49585000I-175000J0D01*
G01*
X140225000Y-49585000D01*
G75*
G02*
X140050000Y-49410000I0J175000D01*
G01*
G37*
G36*
G01*
X140050000Y-48140000D02*
X140050000Y-47790000D01*
G75*
G02*
X140225000Y-47615000I175000J0D01*
G01*
X141725000Y-47615000D01*
G75*
G02*
X141900000Y-47790000I0J-175000D01*
G01*
X141900000Y-48140000D01*
G75*
G02*
X141725000Y-48315000I-175000J0D01*
G01*
X140225000Y-48315000D01*
G75*
G02*
X140050000Y-48140000I0J175000D01*
G01*
G37*
G36*
G01*
X140050000Y-46870000D02*
X140050000Y-46520000D01*
G75*
G02*
X140225000Y-46345000I175000J0D01*
G01*
X141725000Y-46345000D01*
G75*
G02*
X141900000Y-46520000I0J-175000D01*
G01*
X141900000Y-46870000D01*
G75*
G02*
X141725000Y-47045000I-175000J0D01*
G01*
X140225000Y-47045000D01*
G75*
G02*
X140050000Y-46870000I0J175000D01*
G01*
G37*
%TD*%
%TO.C,U2*%
G36*
G01*
X140050000Y-53870000D02*
X140050000Y-53520000D01*
G75*
G02*
X140225000Y-53345000I175000J0D01*
G01*
X141725000Y-53345000D01*
G75*
G02*
X141900000Y-53520000I0J-175000D01*
G01*
X141900000Y-53870000D01*
G75*
G02*
X141725000Y-54045000I-175000J0D01*
G01*
X140225000Y-54045000D01*
G75*
G02*
X140050000Y-53870000I0J175000D01*
G01*
G37*
G36*
G01*
X140050000Y-55140000D02*
X140050000Y-54790000D01*
G75*
G02*
X140225000Y-54615000I175000J0D01*
G01*
X141725000Y-54615000D01*
G75*
G02*
X141900000Y-54790000I0J-175000D01*
G01*
X141900000Y-55140000D01*
G75*
G02*
X141725000Y-55315000I-175000J0D01*
G01*
X140225000Y-55315000D01*
G75*
G02*
X140050000Y-55140000I0J175000D01*
G01*
G37*
G36*
G01*
X140050000Y-56410000D02*
X140050000Y-56060000D01*
G75*
G02*
X140225000Y-55885000I175000J0D01*
G01*
X141725000Y-55885000D01*
G75*
G02*
X141900000Y-56060000I0J-175000D01*
G01*
X141900000Y-56410000D01*
G75*
G02*
X141725000Y-56585000I-175000J0D01*
G01*
X140225000Y-56585000D01*
G75*
G02*
X140050000Y-56410000I0J175000D01*
G01*
G37*
G36*
G01*
X140050000Y-57680000D02*
X140050000Y-57330000D01*
G75*
G02*
X140225000Y-57155000I175000J0D01*
G01*
X141725000Y-57155000D01*
G75*
G02*
X141900000Y-57330000I0J-175000D01*
G01*
X141900000Y-57680000D01*
G75*
G02*
X141725000Y-57855000I-175000J0D01*
G01*
X140225000Y-57855000D01*
G75*
G02*
X140050000Y-57680000I0J175000D01*
G01*
G37*
G36*
G01*
X134900000Y-57680000D02*
X134900000Y-57330000D01*
G75*
G02*
X135075000Y-57155000I175000J0D01*
G01*
X136575000Y-57155000D01*
G75*
G02*
X136750000Y-57330000I0J-175000D01*
G01*
X136750000Y-57680000D01*
G75*
G02*
X136575000Y-57855000I-175000J0D01*
G01*
X135075000Y-57855000D01*
G75*
G02*
X134900000Y-57680000I0J175000D01*
G01*
G37*
G36*
G01*
X134900000Y-56410000D02*
X134900000Y-56060000D01*
G75*
G02*
X135075000Y-55885000I175000J0D01*
G01*
X136575000Y-55885000D01*
G75*
G02*
X136750000Y-56060000I0J-175000D01*
G01*
X136750000Y-56410000D01*
G75*
G02*
X136575000Y-56585000I-175000J0D01*
G01*
X135075000Y-56585000D01*
G75*
G02*
X134900000Y-56410000I0J175000D01*
G01*
G37*
G36*
G01*
X134900000Y-55140000D02*
X134900000Y-54790000D01*
G75*
G02*
X135075000Y-54615000I175000J0D01*
G01*
X136575000Y-54615000D01*
G75*
G02*
X136750000Y-54790000I0J-175000D01*
G01*
X136750000Y-55140000D01*
G75*
G02*
X136575000Y-55315000I-175000J0D01*
G01*
X135075000Y-55315000D01*
G75*
G02*
X134900000Y-55140000I0J175000D01*
G01*
G37*
G36*
G01*
X134900000Y-53870000D02*
X134900000Y-53520000D01*
G75*
G02*
X135075000Y-53345000I175000J0D01*
G01*
X136575000Y-53345000D01*
G75*
G02*
X136750000Y-53520000I0J-175000D01*
G01*
X136750000Y-53870000D01*
G75*
G02*
X136575000Y-54045000I-175000J0D01*
G01*
X135075000Y-54045000D01*
G75*
G02*
X134900000Y-53870000I0J175000D01*
G01*
G37*
%TD*%
%TO.C,U3*%
G36*
G01*
X134900000Y-60870000D02*
X134900000Y-60520000D01*
G75*
G02*
X135075000Y-60345000I175000J0D01*
G01*
X136575000Y-60345000D01*
G75*
G02*
X136750000Y-60520000I0J-175000D01*
G01*
X136750000Y-60870000D01*
G75*
G02*
X136575000Y-61045000I-175000J0D01*
G01*
X135075000Y-61045000D01*
G75*
G02*
X134900000Y-60870000I0J175000D01*
G01*
G37*
G36*
G01*
X134900000Y-62140000D02*
X134900000Y-61790000D01*
G75*
G02*
X135075000Y-61615000I175000J0D01*
G01*
X136575000Y-61615000D01*
G75*
G02*
X136750000Y-61790000I0J-175000D01*
G01*
X136750000Y-62140000D01*
G75*
G02*
X136575000Y-62315000I-175000J0D01*
G01*
X135075000Y-62315000D01*
G75*
G02*
X134900000Y-62140000I0J175000D01*
G01*
G37*
G36*
G01*
X134900000Y-63410000D02*
X134900000Y-63060000D01*
G75*
G02*
X135075000Y-62885000I175000J0D01*
G01*
X136575000Y-62885000D01*
G75*
G02*
X136750000Y-63060000I0J-175000D01*
G01*
X136750000Y-63410000D01*
G75*
G02*
X136575000Y-63585000I-175000J0D01*
G01*
X135075000Y-63585000D01*
G75*
G02*
X134900000Y-63410000I0J175000D01*
G01*
G37*
G36*
G01*
X134900000Y-64680000D02*
X134900000Y-64330000D01*
G75*
G02*
X135075000Y-64155000I175000J0D01*
G01*
X136575000Y-64155000D01*
G75*
G02*
X136750000Y-64330000I0J-175000D01*
G01*
X136750000Y-64680000D01*
G75*
G02*
X136575000Y-64855000I-175000J0D01*
G01*
X135075000Y-64855000D01*
G75*
G02*
X134900000Y-64680000I0J175000D01*
G01*
G37*
G36*
G01*
X140050000Y-64680000D02*
X140050000Y-64330000D01*
G75*
G02*
X140225000Y-64155000I175000J0D01*
G01*
X141725000Y-64155000D01*
G75*
G02*
X141900000Y-64330000I0J-175000D01*
G01*
X141900000Y-64680000D01*
G75*
G02*
X141725000Y-64855000I-175000J0D01*
G01*
X140225000Y-64855000D01*
G75*
G02*
X140050000Y-64680000I0J175000D01*
G01*
G37*
G36*
G01*
X140050000Y-63410000D02*
X140050000Y-63060000D01*
G75*
G02*
X140225000Y-62885000I175000J0D01*
G01*
X141725000Y-62885000D01*
G75*
G02*
X141900000Y-63060000I0J-175000D01*
G01*
X141900000Y-63410000D01*
G75*
G02*
X141725000Y-63585000I-175000J0D01*
G01*
X140225000Y-63585000D01*
G75*
G02*
X140050000Y-63410000I0J175000D01*
G01*
G37*
G36*
G01*
X140050000Y-62140000D02*
X140050000Y-61790000D01*
G75*
G02*
X140225000Y-61615000I175000J0D01*
G01*
X141725000Y-61615000D01*
G75*
G02*
X141900000Y-61790000I0J-175000D01*
G01*
X141900000Y-62140000D01*
G75*
G02*
X141725000Y-62315000I-175000J0D01*
G01*
X140225000Y-62315000D01*
G75*
G02*
X140050000Y-62140000I0J175000D01*
G01*
G37*
G36*
G01*
X140050000Y-60870000D02*
X140050000Y-60520000D01*
G75*
G02*
X140225000Y-60345000I175000J0D01*
G01*
X141725000Y-60345000D01*
G75*
G02*
X141900000Y-60520000I0J-175000D01*
G01*
X141900000Y-60870000D01*
G75*
G02*
X141725000Y-61045000I-175000J0D01*
G01*
X140225000Y-61045000D01*
G75*
G02*
X140050000Y-60870000I0J175000D01*
G01*
G37*
%TD*%
%TO.C,U4*%
G36*
G01*
X134900000Y-67870000D02*
X134900000Y-67520000D01*
G75*
G02*
X135075000Y-67345000I175000J0D01*
G01*
X136575000Y-67345000D01*
G75*
G02*
X136750000Y-67520000I0J-175000D01*
G01*
X136750000Y-67870000D01*
G75*
G02*
X136575000Y-68045000I-175000J0D01*
G01*
X135075000Y-68045000D01*
G75*
G02*
X134900000Y-67870000I0J175000D01*
G01*
G37*
G36*
G01*
X134900000Y-69140000D02*
X134900000Y-68790000D01*
G75*
G02*
X135075000Y-68615000I175000J0D01*
G01*
X136575000Y-68615000D01*
G75*
G02*
X136750000Y-68790000I0J-175000D01*
G01*
X136750000Y-69140000D01*
G75*
G02*
X136575000Y-69315000I-175000J0D01*
G01*
X135075000Y-69315000D01*
G75*
G02*
X134900000Y-69140000I0J175000D01*
G01*
G37*
G36*
G01*
X134900000Y-70410000D02*
X134900000Y-70060000D01*
G75*
G02*
X135075000Y-69885000I175000J0D01*
G01*
X136575000Y-69885000D01*
G75*
G02*
X136750000Y-70060000I0J-175000D01*
G01*
X136750000Y-70410000D01*
G75*
G02*
X136575000Y-70585000I-175000J0D01*
G01*
X135075000Y-70585000D01*
G75*
G02*
X134900000Y-70410000I0J175000D01*
G01*
G37*
G36*
G01*
X134900000Y-71680000D02*
X134900000Y-71330000D01*
G75*
G02*
X135075000Y-71155000I175000J0D01*
G01*
X136575000Y-71155000D01*
G75*
G02*
X136750000Y-71330000I0J-175000D01*
G01*
X136750000Y-71680000D01*
G75*
G02*
X136575000Y-71855000I-175000J0D01*
G01*
X135075000Y-71855000D01*
G75*
G02*
X134900000Y-71680000I0J175000D01*
G01*
G37*
G36*
G01*
X140050000Y-71680000D02*
X140050000Y-71330000D01*
G75*
G02*
X140225000Y-71155000I175000J0D01*
G01*
X141725000Y-71155000D01*
G75*
G02*
X141900000Y-71330000I0J-175000D01*
G01*
X141900000Y-71680000D01*
G75*
G02*
X141725000Y-71855000I-175000J0D01*
G01*
X140225000Y-71855000D01*
G75*
G02*
X140050000Y-71680000I0J175000D01*
G01*
G37*
G36*
G01*
X140050000Y-70410000D02*
X140050000Y-70060000D01*
G75*
G02*
X140225000Y-69885000I175000J0D01*
G01*
X141725000Y-69885000D01*
G75*
G02*
X141900000Y-70060000I0J-175000D01*
G01*
X141900000Y-70410000D01*
G75*
G02*
X141725000Y-70585000I-175000J0D01*
G01*
X140225000Y-70585000D01*
G75*
G02*
X140050000Y-70410000I0J175000D01*
G01*
G37*
G36*
G01*
X140050000Y-69140000D02*
X140050000Y-68790000D01*
G75*
G02*
X140225000Y-68615000I175000J0D01*
G01*
X141725000Y-68615000D01*
G75*
G02*
X141900000Y-68790000I0J-175000D01*
G01*
X141900000Y-69140000D01*
G75*
G02*
X141725000Y-69315000I-175000J0D01*
G01*
X140225000Y-69315000D01*
G75*
G02*
X140050000Y-69140000I0J175000D01*
G01*
G37*
G36*
G01*
X140050000Y-67870000D02*
X140050000Y-67520000D01*
G75*
G02*
X140225000Y-67345000I175000J0D01*
G01*
X141725000Y-67345000D01*
G75*
G02*
X141900000Y-67520000I0J-175000D01*
G01*
X141900000Y-67870000D01*
G75*
G02*
X141725000Y-68045000I-175000J0D01*
G01*
X140225000Y-68045000D01*
G75*
G02*
X140050000Y-67870000I0J175000D01*
G01*
G37*
%TD*%
D16*
%TO.C,U6*%
X156555000Y-65730000D03*
X165445000Y-68270000D03*
X156555000Y-68270000D03*
X165445000Y-65730000D03*
%TD*%
%TO.C,U7*%
X156555000Y-58730000D03*
X165445000Y-61270000D03*
X156555000Y-61270000D03*
X165445000Y-58730000D03*
%TD*%
%TO.C,U8*%
X165445000Y-51730000D03*
X156555000Y-54270000D03*
X165445000Y-54270000D03*
X156555000Y-51730000D03*
%TD*%
D17*
%TO.C,H1*%
X177000000Y-37000000D03*
%TD*%
%TO.C,H2*%
X128000000Y-37000000D03*
%TD*%
%TO.C,H3*%
X128000000Y-76000000D03*
%TD*%
%TO.C,H4*%
X177000000Y-76000000D03*
%TD*%
M02*
