%TF.GenerationSoftware,KiCad,Pcbnew,7.0.1-3b83917a11~172~ubuntu22.04.1*%
%TF.CreationDate,2023-03-24T23:58:00+01:00*%
%TF.ProjectId,door_if3_usb,646f6f72-5f69-4663-935f-7573622e6b69,rev?*%
%TF.SameCoordinates,Original*%
%TF.FileFunction,Drillmap*%
%TF.FilePolarity,Positive*%
%FSLAX45Y45*%
G04 Gerber Fmt 4.5, Leading zero omitted, Abs format (unit mm)*
G04 Created by KiCad (PCBNEW 7.0.1-3b83917a11~172~ubuntu22.04.1) date 2023-03-24 23:58:00*
%MOMM*%
%LPD*%
G01*
G04 APERTURE LIST*
%ADD10C,0.050000*%
%ADD11C,0.200000*%
%ADD12C,0.150000*%
%ADD13C,0.160000*%
%ADD14C,0.180000*%
%ADD15C,0.320000*%
G04 APERTURE END LIST*
D10*
X10800000Y-13800000D02*
X10800000Y-6300000D01*
X17800000Y-13800000D02*
X10800000Y-13800000D01*
X17800000Y-6300000D02*
X17800000Y-13800000D01*
X10800000Y-6300000D02*
X17800000Y-6300000D01*
D11*
D12*
X15255000Y-6728000D02*
X15405000Y-6878000D01*
X15405000Y-6728000D02*
X15255000Y-6878000D01*
X15740000Y-6728000D02*
X15890000Y-6878000D01*
X15890000Y-6728000D02*
X15740000Y-6878000D01*
D13*
X11162500Y-7271500D02*
G75*
G03*
X11162500Y-7271500I-80000J0D01*
G01*
X11162500Y-8795500D02*
G75*
G03*
X11162500Y-8795500I-80000J0D01*
G01*
X11162500Y-11304500D02*
G75*
G03*
X11162500Y-11304500I-80000J0D01*
G01*
X11162500Y-12828500D02*
G75*
G03*
X11162500Y-12828500I-80000J0D01*
G01*
X11797500Y-6890500D02*
G75*
G03*
X11797500Y-6890500I-80000J0D01*
G01*
X11797500Y-8033500D02*
G75*
G03*
X11797500Y-8033500I-80000J0D01*
G01*
X11797500Y-9176500D02*
G75*
G03*
X11797500Y-9176500I-80000J0D01*
G01*
X11797500Y-10923500D02*
G75*
G03*
X11797500Y-10923500I-80000J0D01*
G01*
X11797500Y-12066500D02*
G75*
G03*
X11797500Y-12066500I-80000J0D01*
G01*
X11797500Y-13209500D02*
G75*
G03*
X11797500Y-13209500I-80000J0D01*
G01*
D14*
X15300000Y-6410000D02*
X15300000Y-6590000D01*
X15210000Y-6500000D02*
X15390000Y-6500000D01*
X15845000Y-6410000D02*
X15845000Y-6590000D01*
X15755000Y-6500000D02*
X15935000Y-6500000D01*
D15*
X12513138Y-7013138D02*
X12513138Y-6786862D01*
X12286862Y-6786862D01*
X12286862Y-7013138D01*
X12513138Y-7013138D01*
X12513138Y-13413138D02*
X12513138Y-13186862D01*
X12286862Y-13186862D01*
X12286862Y-13413138D01*
X12513138Y-13413138D01*
X17413138Y-6913138D02*
X17413138Y-6686862D01*
X17186862Y-6686862D01*
X17186862Y-6913138D01*
X17413138Y-6913138D01*
X17413138Y-13413138D02*
X17413138Y-13186862D01*
X17186862Y-13186862D01*
X17186862Y-13413138D01*
X17413138Y-13413138D01*
D11*
X11045119Y-14115024D02*
X11045119Y-13915024D01*
X11045119Y-13915024D02*
X11092738Y-13915024D01*
X11092738Y-13915024D02*
X11121310Y-13924548D01*
X11121310Y-13924548D02*
X11140357Y-13943595D01*
X11140357Y-13943595D02*
X11149881Y-13962643D01*
X11149881Y-13962643D02*
X11159405Y-14000738D01*
X11159405Y-14000738D02*
X11159405Y-14029309D01*
X11159405Y-14029309D02*
X11149881Y-14067405D01*
X11149881Y-14067405D02*
X11140357Y-14086452D01*
X11140357Y-14086452D02*
X11121310Y-14105500D01*
X11121310Y-14105500D02*
X11092738Y-14115024D01*
X11092738Y-14115024D02*
X11045119Y-14115024D01*
X11245119Y-14115024D02*
X11245119Y-13981690D01*
X11245119Y-14019786D02*
X11254643Y-14000738D01*
X11254643Y-14000738D02*
X11264167Y-13991214D01*
X11264167Y-13991214D02*
X11283214Y-13981690D01*
X11283214Y-13981690D02*
X11302262Y-13981690D01*
X11368928Y-14115024D02*
X11368928Y-13981690D01*
X11368928Y-13915024D02*
X11359405Y-13924548D01*
X11359405Y-13924548D02*
X11368928Y-13934071D01*
X11368928Y-13934071D02*
X11378452Y-13924548D01*
X11378452Y-13924548D02*
X11368928Y-13915024D01*
X11368928Y-13915024D02*
X11368928Y-13934071D01*
X11492738Y-14115024D02*
X11473690Y-14105500D01*
X11473690Y-14105500D02*
X11464167Y-14086452D01*
X11464167Y-14086452D02*
X11464167Y-13915024D01*
X11597500Y-14115024D02*
X11578452Y-14105500D01*
X11578452Y-14105500D02*
X11568928Y-14086452D01*
X11568928Y-14086452D02*
X11568928Y-13915024D01*
X11826071Y-14115024D02*
X11826071Y-13915024D01*
X11826071Y-13915024D02*
X11892738Y-14057881D01*
X11892738Y-14057881D02*
X11959405Y-13915024D01*
X11959405Y-13915024D02*
X11959405Y-14115024D01*
X12140357Y-14115024D02*
X12140357Y-14010262D01*
X12140357Y-14010262D02*
X12130833Y-13991214D01*
X12130833Y-13991214D02*
X12111786Y-13981690D01*
X12111786Y-13981690D02*
X12073690Y-13981690D01*
X12073690Y-13981690D02*
X12054643Y-13991214D01*
X12140357Y-14105500D02*
X12121309Y-14115024D01*
X12121309Y-14115024D02*
X12073690Y-14115024D01*
X12073690Y-14115024D02*
X12054643Y-14105500D01*
X12054643Y-14105500D02*
X12045119Y-14086452D01*
X12045119Y-14086452D02*
X12045119Y-14067405D01*
X12045119Y-14067405D02*
X12054643Y-14048357D01*
X12054643Y-14048357D02*
X12073690Y-14038833D01*
X12073690Y-14038833D02*
X12121309Y-14038833D01*
X12121309Y-14038833D02*
X12140357Y-14029309D01*
X12235595Y-13981690D02*
X12235595Y-14181690D01*
X12235595Y-13991214D02*
X12254643Y-13981690D01*
X12254643Y-13981690D02*
X12292738Y-13981690D01*
X12292738Y-13981690D02*
X12311786Y-13991214D01*
X12311786Y-13991214D02*
X12321309Y-14000738D01*
X12321309Y-14000738D02*
X12330833Y-14019786D01*
X12330833Y-14019786D02*
X12330833Y-14076928D01*
X12330833Y-14076928D02*
X12321309Y-14095976D01*
X12321309Y-14095976D02*
X12311786Y-14105500D01*
X12311786Y-14105500D02*
X12292738Y-14115024D01*
X12292738Y-14115024D02*
X12254643Y-14115024D01*
X12254643Y-14115024D02*
X12235595Y-14105500D01*
X12416548Y-14095976D02*
X12426071Y-14105500D01*
X12426071Y-14105500D02*
X12416548Y-14115024D01*
X12416548Y-14115024D02*
X12407024Y-14105500D01*
X12407024Y-14105500D02*
X12416548Y-14095976D01*
X12416548Y-14095976D02*
X12416548Y-14115024D01*
X12416548Y-13991214D02*
X12426071Y-14000738D01*
X12426071Y-14000738D02*
X12416548Y-14010262D01*
X12416548Y-14010262D02*
X12407024Y-14000738D01*
X12407024Y-14000738D02*
X12416548Y-13991214D01*
X12416548Y-13991214D02*
X12416548Y-14010262D01*
D12*
X10647500Y-14367500D02*
X10797500Y-14517500D01*
X10797500Y-14367500D02*
X10647500Y-14517500D01*
D11*
X11149881Y-14535024D02*
X11035595Y-14535024D01*
X11092738Y-14535024D02*
X11092738Y-14335024D01*
X11092738Y-14335024D02*
X11073690Y-14363595D01*
X11073690Y-14363595D02*
X11054643Y-14382643D01*
X11054643Y-14382643D02*
X11035595Y-14392167D01*
X11235595Y-14515976D02*
X11245119Y-14525500D01*
X11245119Y-14525500D02*
X11235595Y-14535024D01*
X11235595Y-14535024D02*
X11226071Y-14525500D01*
X11226071Y-14525500D02*
X11235595Y-14515976D01*
X11235595Y-14515976D02*
X11235595Y-14535024D01*
X11426071Y-14335024D02*
X11330833Y-14335024D01*
X11330833Y-14335024D02*
X11321309Y-14430262D01*
X11321309Y-14430262D02*
X11330833Y-14420738D01*
X11330833Y-14420738D02*
X11349881Y-14411214D01*
X11349881Y-14411214D02*
X11397500Y-14411214D01*
X11397500Y-14411214D02*
X11416548Y-14420738D01*
X11416548Y-14420738D02*
X11426071Y-14430262D01*
X11426071Y-14430262D02*
X11435595Y-14449309D01*
X11435595Y-14449309D02*
X11435595Y-14496928D01*
X11435595Y-14496928D02*
X11426071Y-14515976D01*
X11426071Y-14515976D02*
X11416548Y-14525500D01*
X11416548Y-14525500D02*
X11397500Y-14535024D01*
X11397500Y-14535024D02*
X11349881Y-14535024D01*
X11349881Y-14535024D02*
X11330833Y-14525500D01*
X11330833Y-14525500D02*
X11321309Y-14515976D01*
X11559405Y-14335024D02*
X11578452Y-14335024D01*
X11578452Y-14335024D02*
X11597500Y-14344548D01*
X11597500Y-14344548D02*
X11607024Y-14354071D01*
X11607024Y-14354071D02*
X11616548Y-14373119D01*
X11616548Y-14373119D02*
X11626071Y-14411214D01*
X11626071Y-14411214D02*
X11626071Y-14458833D01*
X11626071Y-14458833D02*
X11616548Y-14496928D01*
X11616548Y-14496928D02*
X11607024Y-14515976D01*
X11607024Y-14515976D02*
X11597500Y-14525500D01*
X11597500Y-14525500D02*
X11578452Y-14535024D01*
X11578452Y-14535024D02*
X11559405Y-14535024D01*
X11559405Y-14535024D02*
X11540357Y-14525500D01*
X11540357Y-14525500D02*
X11530833Y-14515976D01*
X11530833Y-14515976D02*
X11521309Y-14496928D01*
X11521309Y-14496928D02*
X11511786Y-14458833D01*
X11511786Y-14458833D02*
X11511786Y-14411214D01*
X11511786Y-14411214D02*
X11521309Y-14373119D01*
X11521309Y-14373119D02*
X11530833Y-14354071D01*
X11530833Y-14354071D02*
X11540357Y-14344548D01*
X11540357Y-14344548D02*
X11559405Y-14335024D01*
X11749881Y-14335024D02*
X11768929Y-14335024D01*
X11768929Y-14335024D02*
X11787976Y-14344548D01*
X11787976Y-14344548D02*
X11797500Y-14354071D01*
X11797500Y-14354071D02*
X11807024Y-14373119D01*
X11807024Y-14373119D02*
X11816548Y-14411214D01*
X11816548Y-14411214D02*
X11816548Y-14458833D01*
X11816548Y-14458833D02*
X11807024Y-14496928D01*
X11807024Y-14496928D02*
X11797500Y-14515976D01*
X11797500Y-14515976D02*
X11787976Y-14525500D01*
X11787976Y-14525500D02*
X11768929Y-14535024D01*
X11768929Y-14535024D02*
X11749881Y-14535024D01*
X11749881Y-14535024D02*
X11730833Y-14525500D01*
X11730833Y-14525500D02*
X11721309Y-14515976D01*
X11721309Y-14515976D02*
X11711786Y-14496928D01*
X11711786Y-14496928D02*
X11702262Y-14458833D01*
X11702262Y-14458833D02*
X11702262Y-14411214D01*
X11702262Y-14411214D02*
X11711786Y-14373119D01*
X11711786Y-14373119D02*
X11721309Y-14354071D01*
X11721309Y-14354071D02*
X11730833Y-14344548D01*
X11730833Y-14344548D02*
X11749881Y-14335024D01*
X11902262Y-14535024D02*
X11902262Y-14401690D01*
X11902262Y-14420738D02*
X11911786Y-14411214D01*
X11911786Y-14411214D02*
X11930833Y-14401690D01*
X11930833Y-14401690D02*
X11959405Y-14401690D01*
X11959405Y-14401690D02*
X11978452Y-14411214D01*
X11978452Y-14411214D02*
X11987976Y-14430262D01*
X11987976Y-14430262D02*
X11987976Y-14535024D01*
X11987976Y-14430262D02*
X11997500Y-14411214D01*
X11997500Y-14411214D02*
X12016548Y-14401690D01*
X12016548Y-14401690D02*
X12045119Y-14401690D01*
X12045119Y-14401690D02*
X12064167Y-14411214D01*
X12064167Y-14411214D02*
X12073690Y-14430262D01*
X12073690Y-14430262D02*
X12073690Y-14535024D01*
X12168929Y-14535024D02*
X12168929Y-14401690D01*
X12168929Y-14420738D02*
X12178452Y-14411214D01*
X12178452Y-14411214D02*
X12197500Y-14401690D01*
X12197500Y-14401690D02*
X12226071Y-14401690D01*
X12226071Y-14401690D02*
X12245119Y-14411214D01*
X12245119Y-14411214D02*
X12254643Y-14430262D01*
X12254643Y-14430262D02*
X12254643Y-14535024D01*
X12254643Y-14430262D02*
X12264167Y-14411214D01*
X12264167Y-14411214D02*
X12283214Y-14401690D01*
X12283214Y-14401690D02*
X12311786Y-14401690D01*
X12311786Y-14401690D02*
X12330833Y-14411214D01*
X12330833Y-14411214D02*
X12340357Y-14430262D01*
X12340357Y-14430262D02*
X12340357Y-14535024D01*
X12730833Y-14325500D02*
X12559405Y-14582643D01*
X12987976Y-14335024D02*
X13007024Y-14335024D01*
X13007024Y-14335024D02*
X13026072Y-14344548D01*
X13026072Y-14344548D02*
X13035595Y-14354071D01*
X13035595Y-14354071D02*
X13045119Y-14373119D01*
X13045119Y-14373119D02*
X13054643Y-14411214D01*
X13054643Y-14411214D02*
X13054643Y-14458833D01*
X13054643Y-14458833D02*
X13045119Y-14496928D01*
X13045119Y-14496928D02*
X13035595Y-14515976D01*
X13035595Y-14515976D02*
X13026072Y-14525500D01*
X13026072Y-14525500D02*
X13007024Y-14535024D01*
X13007024Y-14535024D02*
X12987976Y-14535024D01*
X12987976Y-14535024D02*
X12968929Y-14525500D01*
X12968929Y-14525500D02*
X12959405Y-14515976D01*
X12959405Y-14515976D02*
X12949881Y-14496928D01*
X12949881Y-14496928D02*
X12940357Y-14458833D01*
X12940357Y-14458833D02*
X12940357Y-14411214D01*
X12940357Y-14411214D02*
X12949881Y-14373119D01*
X12949881Y-14373119D02*
X12959405Y-14354071D01*
X12959405Y-14354071D02*
X12968929Y-14344548D01*
X12968929Y-14344548D02*
X12987976Y-14335024D01*
X13140357Y-14515976D02*
X13149881Y-14525500D01*
X13149881Y-14525500D02*
X13140357Y-14535024D01*
X13140357Y-14535024D02*
X13130833Y-14525500D01*
X13130833Y-14525500D02*
X13140357Y-14515976D01*
X13140357Y-14515976D02*
X13140357Y-14535024D01*
X13273691Y-14335024D02*
X13292738Y-14335024D01*
X13292738Y-14335024D02*
X13311786Y-14344548D01*
X13311786Y-14344548D02*
X13321310Y-14354071D01*
X13321310Y-14354071D02*
X13330833Y-14373119D01*
X13330833Y-14373119D02*
X13340357Y-14411214D01*
X13340357Y-14411214D02*
X13340357Y-14458833D01*
X13340357Y-14458833D02*
X13330833Y-14496928D01*
X13330833Y-14496928D02*
X13321310Y-14515976D01*
X13321310Y-14515976D02*
X13311786Y-14525500D01*
X13311786Y-14525500D02*
X13292738Y-14535024D01*
X13292738Y-14535024D02*
X13273691Y-14535024D01*
X13273691Y-14535024D02*
X13254643Y-14525500D01*
X13254643Y-14525500D02*
X13245119Y-14515976D01*
X13245119Y-14515976D02*
X13235595Y-14496928D01*
X13235595Y-14496928D02*
X13226072Y-14458833D01*
X13226072Y-14458833D02*
X13226072Y-14411214D01*
X13226072Y-14411214D02*
X13235595Y-14373119D01*
X13235595Y-14373119D02*
X13245119Y-14354071D01*
X13245119Y-14354071D02*
X13254643Y-14344548D01*
X13254643Y-14344548D02*
X13273691Y-14335024D01*
X13521310Y-14335024D02*
X13426072Y-14335024D01*
X13426072Y-14335024D02*
X13416548Y-14430262D01*
X13416548Y-14430262D02*
X13426072Y-14420738D01*
X13426072Y-14420738D02*
X13445119Y-14411214D01*
X13445119Y-14411214D02*
X13492738Y-14411214D01*
X13492738Y-14411214D02*
X13511786Y-14420738D01*
X13511786Y-14420738D02*
X13521310Y-14430262D01*
X13521310Y-14430262D02*
X13530833Y-14449309D01*
X13530833Y-14449309D02*
X13530833Y-14496928D01*
X13530833Y-14496928D02*
X13521310Y-14515976D01*
X13521310Y-14515976D02*
X13511786Y-14525500D01*
X13511786Y-14525500D02*
X13492738Y-14535024D01*
X13492738Y-14535024D02*
X13445119Y-14535024D01*
X13445119Y-14535024D02*
X13426072Y-14525500D01*
X13426072Y-14525500D02*
X13416548Y-14515976D01*
X13626072Y-14535024D02*
X13664167Y-14535024D01*
X13664167Y-14535024D02*
X13683214Y-14525500D01*
X13683214Y-14525500D02*
X13692738Y-14515976D01*
X13692738Y-14515976D02*
X13711786Y-14487405D01*
X13711786Y-14487405D02*
X13721310Y-14449309D01*
X13721310Y-14449309D02*
X13721310Y-14373119D01*
X13721310Y-14373119D02*
X13711786Y-14354071D01*
X13711786Y-14354071D02*
X13702262Y-14344548D01*
X13702262Y-14344548D02*
X13683214Y-14335024D01*
X13683214Y-14335024D02*
X13645119Y-14335024D01*
X13645119Y-14335024D02*
X13626072Y-14344548D01*
X13626072Y-14344548D02*
X13616548Y-14354071D01*
X13616548Y-14354071D02*
X13607024Y-14373119D01*
X13607024Y-14373119D02*
X13607024Y-14420738D01*
X13607024Y-14420738D02*
X13616548Y-14439786D01*
X13616548Y-14439786D02*
X13626072Y-14449309D01*
X13626072Y-14449309D02*
X13645119Y-14458833D01*
X13645119Y-14458833D02*
X13683214Y-14458833D01*
X13683214Y-14458833D02*
X13702262Y-14449309D01*
X13702262Y-14449309D02*
X13711786Y-14439786D01*
X13711786Y-14439786D02*
X13721310Y-14420738D01*
X13911786Y-14535024D02*
X13797500Y-14535024D01*
X13854643Y-14535024D02*
X13854643Y-14335024D01*
X13854643Y-14335024D02*
X13835595Y-14363595D01*
X13835595Y-14363595D02*
X13816548Y-14382643D01*
X13816548Y-14382643D02*
X13797500Y-14392167D01*
X13987976Y-14335024D02*
X13987976Y-14373119D01*
X14064167Y-14335024D02*
X14064167Y-14373119D01*
X14359405Y-14611214D02*
X14349881Y-14601690D01*
X14349881Y-14601690D02*
X14330834Y-14573119D01*
X14330834Y-14573119D02*
X14321310Y-14554071D01*
X14321310Y-14554071D02*
X14311786Y-14525500D01*
X14311786Y-14525500D02*
X14302262Y-14477881D01*
X14302262Y-14477881D02*
X14302262Y-14439786D01*
X14302262Y-14439786D02*
X14311786Y-14392167D01*
X14311786Y-14392167D02*
X14321310Y-14363595D01*
X14321310Y-14363595D02*
X14330834Y-14344548D01*
X14330834Y-14344548D02*
X14349881Y-14315976D01*
X14349881Y-14315976D02*
X14359405Y-14306452D01*
X14426072Y-14354071D02*
X14435595Y-14344548D01*
X14435595Y-14344548D02*
X14454643Y-14335024D01*
X14454643Y-14335024D02*
X14502262Y-14335024D01*
X14502262Y-14335024D02*
X14521310Y-14344548D01*
X14521310Y-14344548D02*
X14530834Y-14354071D01*
X14530834Y-14354071D02*
X14540357Y-14373119D01*
X14540357Y-14373119D02*
X14540357Y-14392167D01*
X14540357Y-14392167D02*
X14530834Y-14420738D01*
X14530834Y-14420738D02*
X14416548Y-14535024D01*
X14416548Y-14535024D02*
X14540357Y-14535024D01*
X14778453Y-14535024D02*
X14778453Y-14335024D01*
X14864167Y-14535024D02*
X14864167Y-14430262D01*
X14864167Y-14430262D02*
X14854643Y-14411214D01*
X14854643Y-14411214D02*
X14835596Y-14401690D01*
X14835596Y-14401690D02*
X14807024Y-14401690D01*
X14807024Y-14401690D02*
X14787976Y-14411214D01*
X14787976Y-14411214D02*
X14778453Y-14420738D01*
X14987976Y-14535024D02*
X14968929Y-14525500D01*
X14968929Y-14525500D02*
X14959405Y-14515976D01*
X14959405Y-14515976D02*
X14949881Y-14496928D01*
X14949881Y-14496928D02*
X14949881Y-14439786D01*
X14949881Y-14439786D02*
X14959405Y-14420738D01*
X14959405Y-14420738D02*
X14968929Y-14411214D01*
X14968929Y-14411214D02*
X14987976Y-14401690D01*
X14987976Y-14401690D02*
X15016548Y-14401690D01*
X15016548Y-14401690D02*
X15035596Y-14411214D01*
X15035596Y-14411214D02*
X15045119Y-14420738D01*
X15045119Y-14420738D02*
X15054643Y-14439786D01*
X15054643Y-14439786D02*
X15054643Y-14496928D01*
X15054643Y-14496928D02*
X15045119Y-14515976D01*
X15045119Y-14515976D02*
X15035596Y-14525500D01*
X15035596Y-14525500D02*
X15016548Y-14535024D01*
X15016548Y-14535024D02*
X14987976Y-14535024D01*
X15168929Y-14535024D02*
X15149881Y-14525500D01*
X15149881Y-14525500D02*
X15140357Y-14506452D01*
X15140357Y-14506452D02*
X15140357Y-14335024D01*
X15321310Y-14525500D02*
X15302262Y-14535024D01*
X15302262Y-14535024D02*
X15264167Y-14535024D01*
X15264167Y-14535024D02*
X15245119Y-14525500D01*
X15245119Y-14525500D02*
X15235596Y-14506452D01*
X15235596Y-14506452D02*
X15235596Y-14430262D01*
X15235596Y-14430262D02*
X15245119Y-14411214D01*
X15245119Y-14411214D02*
X15264167Y-14401690D01*
X15264167Y-14401690D02*
X15302262Y-14401690D01*
X15302262Y-14401690D02*
X15321310Y-14411214D01*
X15321310Y-14411214D02*
X15330834Y-14430262D01*
X15330834Y-14430262D02*
X15330834Y-14449309D01*
X15330834Y-14449309D02*
X15235596Y-14468357D01*
X15407024Y-14525500D02*
X15426072Y-14535024D01*
X15426072Y-14535024D02*
X15464167Y-14535024D01*
X15464167Y-14535024D02*
X15483215Y-14525500D01*
X15483215Y-14525500D02*
X15492738Y-14506452D01*
X15492738Y-14506452D02*
X15492738Y-14496928D01*
X15492738Y-14496928D02*
X15483215Y-14477881D01*
X15483215Y-14477881D02*
X15464167Y-14468357D01*
X15464167Y-14468357D02*
X15435596Y-14468357D01*
X15435596Y-14468357D02*
X15416548Y-14458833D01*
X15416548Y-14458833D02*
X15407024Y-14439786D01*
X15407024Y-14439786D02*
X15407024Y-14430262D01*
X15407024Y-14430262D02*
X15416548Y-14411214D01*
X15416548Y-14411214D02*
X15435596Y-14401690D01*
X15435596Y-14401690D02*
X15464167Y-14401690D01*
X15464167Y-14401690D02*
X15483215Y-14411214D01*
X15559405Y-14611214D02*
X15568929Y-14601690D01*
X15568929Y-14601690D02*
X15587977Y-14573119D01*
X15587977Y-14573119D02*
X15597500Y-14554071D01*
X15597500Y-14554071D02*
X15607024Y-14525500D01*
X15607024Y-14525500D02*
X15616548Y-14477881D01*
X15616548Y-14477881D02*
X15616548Y-14439786D01*
X15616548Y-14439786D02*
X15607024Y-14392167D01*
X15607024Y-14392167D02*
X15597500Y-14363595D01*
X15597500Y-14363595D02*
X15587977Y-14344548D01*
X15587977Y-14344548D02*
X15568929Y-14315976D01*
X15568929Y-14315976D02*
X15559405Y-14306452D01*
X15921310Y-14611214D02*
X15911786Y-14601690D01*
X15911786Y-14601690D02*
X15892738Y-14573119D01*
X15892738Y-14573119D02*
X15883215Y-14554071D01*
X15883215Y-14554071D02*
X15873691Y-14525500D01*
X15873691Y-14525500D02*
X15864167Y-14477881D01*
X15864167Y-14477881D02*
X15864167Y-14439786D01*
X15864167Y-14439786D02*
X15873691Y-14392167D01*
X15873691Y-14392167D02*
X15883215Y-14363595D01*
X15883215Y-14363595D02*
X15892738Y-14344548D01*
X15892738Y-14344548D02*
X15911786Y-14315976D01*
X15911786Y-14315976D02*
X15921310Y-14306452D01*
X15997500Y-14401690D02*
X15997500Y-14535024D01*
X15997500Y-14420738D02*
X16007024Y-14411214D01*
X16007024Y-14411214D02*
X16026072Y-14401690D01*
X16026072Y-14401690D02*
X16054643Y-14401690D01*
X16054643Y-14401690D02*
X16073691Y-14411214D01*
X16073691Y-14411214D02*
X16083215Y-14430262D01*
X16083215Y-14430262D02*
X16083215Y-14535024D01*
X16207024Y-14535024D02*
X16187977Y-14525500D01*
X16187977Y-14525500D02*
X16178453Y-14515976D01*
X16178453Y-14515976D02*
X16168929Y-14496928D01*
X16168929Y-14496928D02*
X16168929Y-14439786D01*
X16168929Y-14439786D02*
X16178453Y-14420738D01*
X16178453Y-14420738D02*
X16187977Y-14411214D01*
X16187977Y-14411214D02*
X16207024Y-14401690D01*
X16207024Y-14401690D02*
X16235596Y-14401690D01*
X16235596Y-14401690D02*
X16254643Y-14411214D01*
X16254643Y-14411214D02*
X16264167Y-14420738D01*
X16264167Y-14420738D02*
X16273691Y-14439786D01*
X16273691Y-14439786D02*
X16273691Y-14496928D01*
X16273691Y-14496928D02*
X16264167Y-14515976D01*
X16264167Y-14515976D02*
X16254643Y-14525500D01*
X16254643Y-14525500D02*
X16235596Y-14535024D01*
X16235596Y-14535024D02*
X16207024Y-14535024D01*
X16330834Y-14401690D02*
X16407024Y-14401690D01*
X16359405Y-14335024D02*
X16359405Y-14506452D01*
X16359405Y-14506452D02*
X16368929Y-14525500D01*
X16368929Y-14525500D02*
X16387977Y-14535024D01*
X16387977Y-14535024D02*
X16407024Y-14535024D01*
X16626072Y-14401690D02*
X16626072Y-14601690D01*
X16626072Y-14411214D02*
X16645119Y-14401690D01*
X16645119Y-14401690D02*
X16683215Y-14401690D01*
X16683215Y-14401690D02*
X16702262Y-14411214D01*
X16702262Y-14411214D02*
X16711786Y-14420738D01*
X16711786Y-14420738D02*
X16721310Y-14439786D01*
X16721310Y-14439786D02*
X16721310Y-14496928D01*
X16721310Y-14496928D02*
X16711786Y-14515976D01*
X16711786Y-14515976D02*
X16702262Y-14525500D01*
X16702262Y-14525500D02*
X16683215Y-14535024D01*
X16683215Y-14535024D02*
X16645119Y-14535024D01*
X16645119Y-14535024D02*
X16626072Y-14525500D01*
X16835596Y-14535024D02*
X16816548Y-14525500D01*
X16816548Y-14525500D02*
X16807024Y-14506452D01*
X16807024Y-14506452D02*
X16807024Y-14335024D01*
X16997501Y-14535024D02*
X16997501Y-14430262D01*
X16997501Y-14430262D02*
X16987977Y-14411214D01*
X16987977Y-14411214D02*
X16968929Y-14401690D01*
X16968929Y-14401690D02*
X16930834Y-14401690D01*
X16930834Y-14401690D02*
X16911786Y-14411214D01*
X16997501Y-14525500D02*
X16978453Y-14535024D01*
X16978453Y-14535024D02*
X16930834Y-14535024D01*
X16930834Y-14535024D02*
X16911786Y-14525500D01*
X16911786Y-14525500D02*
X16902262Y-14506452D01*
X16902262Y-14506452D02*
X16902262Y-14487405D01*
X16902262Y-14487405D02*
X16911786Y-14468357D01*
X16911786Y-14468357D02*
X16930834Y-14458833D01*
X16930834Y-14458833D02*
X16978453Y-14458833D01*
X16978453Y-14458833D02*
X16997501Y-14449309D01*
X17064167Y-14401690D02*
X17140358Y-14401690D01*
X17092739Y-14335024D02*
X17092739Y-14506452D01*
X17092739Y-14506452D02*
X17102262Y-14525500D01*
X17102262Y-14525500D02*
X17121310Y-14535024D01*
X17121310Y-14535024D02*
X17140358Y-14535024D01*
X17283215Y-14525500D02*
X17264167Y-14535024D01*
X17264167Y-14535024D02*
X17226072Y-14535024D01*
X17226072Y-14535024D02*
X17207024Y-14525500D01*
X17207024Y-14525500D02*
X17197501Y-14506452D01*
X17197501Y-14506452D02*
X17197501Y-14430262D01*
X17197501Y-14430262D02*
X17207024Y-14411214D01*
X17207024Y-14411214D02*
X17226072Y-14401690D01*
X17226072Y-14401690D02*
X17264167Y-14401690D01*
X17264167Y-14401690D02*
X17283215Y-14411214D01*
X17283215Y-14411214D02*
X17292739Y-14430262D01*
X17292739Y-14430262D02*
X17292739Y-14449309D01*
X17292739Y-14449309D02*
X17197501Y-14468357D01*
X17464167Y-14535024D02*
X17464167Y-14335024D01*
X17464167Y-14525500D02*
X17445120Y-14535024D01*
X17445120Y-14535024D02*
X17407024Y-14535024D01*
X17407024Y-14535024D02*
X17387977Y-14525500D01*
X17387977Y-14525500D02*
X17378453Y-14515976D01*
X17378453Y-14515976D02*
X17368929Y-14496928D01*
X17368929Y-14496928D02*
X17368929Y-14439786D01*
X17368929Y-14439786D02*
X17378453Y-14420738D01*
X17378453Y-14420738D02*
X17387977Y-14411214D01*
X17387977Y-14411214D02*
X17407024Y-14401690D01*
X17407024Y-14401690D02*
X17445120Y-14401690D01*
X17445120Y-14401690D02*
X17464167Y-14411214D01*
X17540358Y-14611214D02*
X17549882Y-14601690D01*
X17549882Y-14601690D02*
X17568929Y-14573119D01*
X17568929Y-14573119D02*
X17578453Y-14554071D01*
X17578453Y-14554071D02*
X17587977Y-14525500D01*
X17587977Y-14525500D02*
X17597501Y-14477881D01*
X17597501Y-14477881D02*
X17597501Y-14439786D01*
X17597501Y-14439786D02*
X17587977Y-14392167D01*
X17587977Y-14392167D02*
X17578453Y-14363595D01*
X17578453Y-14363595D02*
X17568929Y-14344548D01*
X17568929Y-14344548D02*
X17549882Y-14315976D01*
X17549882Y-14315976D02*
X17540358Y-14306452D01*
D13*
X10797500Y-14712500D02*
G75*
G03*
X10797500Y-14712500I-80000J0D01*
G01*
D11*
X11149881Y-14805024D02*
X11035595Y-14805024D01*
X11092738Y-14805024D02*
X11092738Y-14605024D01*
X11092738Y-14605024D02*
X11073690Y-14633595D01*
X11073690Y-14633595D02*
X11054643Y-14652643D01*
X11054643Y-14652643D02*
X11035595Y-14662167D01*
X11235595Y-14785976D02*
X11245119Y-14795500D01*
X11245119Y-14795500D02*
X11235595Y-14805024D01*
X11235595Y-14805024D02*
X11226071Y-14795500D01*
X11226071Y-14795500D02*
X11235595Y-14785976D01*
X11235595Y-14785976D02*
X11235595Y-14805024D01*
X11416548Y-14605024D02*
X11378452Y-14605024D01*
X11378452Y-14605024D02*
X11359405Y-14614548D01*
X11359405Y-14614548D02*
X11349881Y-14624071D01*
X11349881Y-14624071D02*
X11330833Y-14652643D01*
X11330833Y-14652643D02*
X11321309Y-14690738D01*
X11321309Y-14690738D02*
X11321309Y-14766928D01*
X11321309Y-14766928D02*
X11330833Y-14785976D01*
X11330833Y-14785976D02*
X11340357Y-14795500D01*
X11340357Y-14795500D02*
X11359405Y-14805024D01*
X11359405Y-14805024D02*
X11397500Y-14805024D01*
X11397500Y-14805024D02*
X11416548Y-14795500D01*
X11416548Y-14795500D02*
X11426071Y-14785976D01*
X11426071Y-14785976D02*
X11435595Y-14766928D01*
X11435595Y-14766928D02*
X11435595Y-14719309D01*
X11435595Y-14719309D02*
X11426071Y-14700262D01*
X11426071Y-14700262D02*
X11416548Y-14690738D01*
X11416548Y-14690738D02*
X11397500Y-14681214D01*
X11397500Y-14681214D02*
X11359405Y-14681214D01*
X11359405Y-14681214D02*
X11340357Y-14690738D01*
X11340357Y-14690738D02*
X11330833Y-14700262D01*
X11330833Y-14700262D02*
X11321309Y-14719309D01*
X11559405Y-14605024D02*
X11578452Y-14605024D01*
X11578452Y-14605024D02*
X11597500Y-14614548D01*
X11597500Y-14614548D02*
X11607024Y-14624071D01*
X11607024Y-14624071D02*
X11616548Y-14643119D01*
X11616548Y-14643119D02*
X11626071Y-14681214D01*
X11626071Y-14681214D02*
X11626071Y-14728833D01*
X11626071Y-14728833D02*
X11616548Y-14766928D01*
X11616548Y-14766928D02*
X11607024Y-14785976D01*
X11607024Y-14785976D02*
X11597500Y-14795500D01*
X11597500Y-14795500D02*
X11578452Y-14805024D01*
X11578452Y-14805024D02*
X11559405Y-14805024D01*
X11559405Y-14805024D02*
X11540357Y-14795500D01*
X11540357Y-14795500D02*
X11530833Y-14785976D01*
X11530833Y-14785976D02*
X11521309Y-14766928D01*
X11521309Y-14766928D02*
X11511786Y-14728833D01*
X11511786Y-14728833D02*
X11511786Y-14681214D01*
X11511786Y-14681214D02*
X11521309Y-14643119D01*
X11521309Y-14643119D02*
X11530833Y-14624071D01*
X11530833Y-14624071D02*
X11540357Y-14614548D01*
X11540357Y-14614548D02*
X11559405Y-14605024D01*
X11749881Y-14605024D02*
X11768929Y-14605024D01*
X11768929Y-14605024D02*
X11787976Y-14614548D01*
X11787976Y-14614548D02*
X11797500Y-14624071D01*
X11797500Y-14624071D02*
X11807024Y-14643119D01*
X11807024Y-14643119D02*
X11816548Y-14681214D01*
X11816548Y-14681214D02*
X11816548Y-14728833D01*
X11816548Y-14728833D02*
X11807024Y-14766928D01*
X11807024Y-14766928D02*
X11797500Y-14785976D01*
X11797500Y-14785976D02*
X11787976Y-14795500D01*
X11787976Y-14795500D02*
X11768929Y-14805024D01*
X11768929Y-14805024D02*
X11749881Y-14805024D01*
X11749881Y-14805024D02*
X11730833Y-14795500D01*
X11730833Y-14795500D02*
X11721309Y-14785976D01*
X11721309Y-14785976D02*
X11711786Y-14766928D01*
X11711786Y-14766928D02*
X11702262Y-14728833D01*
X11702262Y-14728833D02*
X11702262Y-14681214D01*
X11702262Y-14681214D02*
X11711786Y-14643119D01*
X11711786Y-14643119D02*
X11721309Y-14624071D01*
X11721309Y-14624071D02*
X11730833Y-14614548D01*
X11730833Y-14614548D02*
X11749881Y-14605024D01*
X11902262Y-14805024D02*
X11902262Y-14671690D01*
X11902262Y-14690738D02*
X11911786Y-14681214D01*
X11911786Y-14681214D02*
X11930833Y-14671690D01*
X11930833Y-14671690D02*
X11959405Y-14671690D01*
X11959405Y-14671690D02*
X11978452Y-14681214D01*
X11978452Y-14681214D02*
X11987976Y-14700262D01*
X11987976Y-14700262D02*
X11987976Y-14805024D01*
X11987976Y-14700262D02*
X11997500Y-14681214D01*
X11997500Y-14681214D02*
X12016548Y-14671690D01*
X12016548Y-14671690D02*
X12045119Y-14671690D01*
X12045119Y-14671690D02*
X12064167Y-14681214D01*
X12064167Y-14681214D02*
X12073690Y-14700262D01*
X12073690Y-14700262D02*
X12073690Y-14805024D01*
X12168929Y-14805024D02*
X12168929Y-14671690D01*
X12168929Y-14690738D02*
X12178452Y-14681214D01*
X12178452Y-14681214D02*
X12197500Y-14671690D01*
X12197500Y-14671690D02*
X12226071Y-14671690D01*
X12226071Y-14671690D02*
X12245119Y-14681214D01*
X12245119Y-14681214D02*
X12254643Y-14700262D01*
X12254643Y-14700262D02*
X12254643Y-14805024D01*
X12254643Y-14700262D02*
X12264167Y-14681214D01*
X12264167Y-14681214D02*
X12283214Y-14671690D01*
X12283214Y-14671690D02*
X12311786Y-14671690D01*
X12311786Y-14671690D02*
X12330833Y-14681214D01*
X12330833Y-14681214D02*
X12340357Y-14700262D01*
X12340357Y-14700262D02*
X12340357Y-14805024D01*
X12730833Y-14595500D02*
X12559405Y-14852643D01*
X12987976Y-14605024D02*
X13007024Y-14605024D01*
X13007024Y-14605024D02*
X13026072Y-14614548D01*
X13026072Y-14614548D02*
X13035595Y-14624071D01*
X13035595Y-14624071D02*
X13045119Y-14643119D01*
X13045119Y-14643119D02*
X13054643Y-14681214D01*
X13054643Y-14681214D02*
X13054643Y-14728833D01*
X13054643Y-14728833D02*
X13045119Y-14766928D01*
X13045119Y-14766928D02*
X13035595Y-14785976D01*
X13035595Y-14785976D02*
X13026072Y-14795500D01*
X13026072Y-14795500D02*
X13007024Y-14805024D01*
X13007024Y-14805024D02*
X12987976Y-14805024D01*
X12987976Y-14805024D02*
X12968929Y-14795500D01*
X12968929Y-14795500D02*
X12959405Y-14785976D01*
X12959405Y-14785976D02*
X12949881Y-14766928D01*
X12949881Y-14766928D02*
X12940357Y-14728833D01*
X12940357Y-14728833D02*
X12940357Y-14681214D01*
X12940357Y-14681214D02*
X12949881Y-14643119D01*
X12949881Y-14643119D02*
X12959405Y-14624071D01*
X12959405Y-14624071D02*
X12968929Y-14614548D01*
X12968929Y-14614548D02*
X12987976Y-14605024D01*
X13140357Y-14785976D02*
X13149881Y-14795500D01*
X13149881Y-14795500D02*
X13140357Y-14805024D01*
X13140357Y-14805024D02*
X13130833Y-14795500D01*
X13130833Y-14795500D02*
X13140357Y-14785976D01*
X13140357Y-14785976D02*
X13140357Y-14805024D01*
X13273691Y-14605024D02*
X13292738Y-14605024D01*
X13292738Y-14605024D02*
X13311786Y-14614548D01*
X13311786Y-14614548D02*
X13321310Y-14624071D01*
X13321310Y-14624071D02*
X13330833Y-14643119D01*
X13330833Y-14643119D02*
X13340357Y-14681214D01*
X13340357Y-14681214D02*
X13340357Y-14728833D01*
X13340357Y-14728833D02*
X13330833Y-14766928D01*
X13330833Y-14766928D02*
X13321310Y-14785976D01*
X13321310Y-14785976D02*
X13311786Y-14795500D01*
X13311786Y-14795500D02*
X13292738Y-14805024D01*
X13292738Y-14805024D02*
X13273691Y-14805024D01*
X13273691Y-14805024D02*
X13254643Y-14795500D01*
X13254643Y-14795500D02*
X13245119Y-14785976D01*
X13245119Y-14785976D02*
X13235595Y-14766928D01*
X13235595Y-14766928D02*
X13226072Y-14728833D01*
X13226072Y-14728833D02*
X13226072Y-14681214D01*
X13226072Y-14681214D02*
X13235595Y-14643119D01*
X13235595Y-14643119D02*
X13245119Y-14624071D01*
X13245119Y-14624071D02*
X13254643Y-14614548D01*
X13254643Y-14614548D02*
X13273691Y-14605024D01*
X13511786Y-14605024D02*
X13473691Y-14605024D01*
X13473691Y-14605024D02*
X13454643Y-14614548D01*
X13454643Y-14614548D02*
X13445119Y-14624071D01*
X13445119Y-14624071D02*
X13426072Y-14652643D01*
X13426072Y-14652643D02*
X13416548Y-14690738D01*
X13416548Y-14690738D02*
X13416548Y-14766928D01*
X13416548Y-14766928D02*
X13426072Y-14785976D01*
X13426072Y-14785976D02*
X13435595Y-14795500D01*
X13435595Y-14795500D02*
X13454643Y-14805024D01*
X13454643Y-14805024D02*
X13492738Y-14805024D01*
X13492738Y-14805024D02*
X13511786Y-14795500D01*
X13511786Y-14795500D02*
X13521310Y-14785976D01*
X13521310Y-14785976D02*
X13530833Y-14766928D01*
X13530833Y-14766928D02*
X13530833Y-14719309D01*
X13530833Y-14719309D02*
X13521310Y-14700262D01*
X13521310Y-14700262D02*
X13511786Y-14690738D01*
X13511786Y-14690738D02*
X13492738Y-14681214D01*
X13492738Y-14681214D02*
X13454643Y-14681214D01*
X13454643Y-14681214D02*
X13435595Y-14690738D01*
X13435595Y-14690738D02*
X13426072Y-14700262D01*
X13426072Y-14700262D02*
X13416548Y-14719309D01*
X13597500Y-14605024D02*
X13721310Y-14605024D01*
X13721310Y-14605024D02*
X13654643Y-14681214D01*
X13654643Y-14681214D02*
X13683214Y-14681214D01*
X13683214Y-14681214D02*
X13702262Y-14690738D01*
X13702262Y-14690738D02*
X13711786Y-14700262D01*
X13711786Y-14700262D02*
X13721310Y-14719309D01*
X13721310Y-14719309D02*
X13721310Y-14766928D01*
X13721310Y-14766928D02*
X13711786Y-14785976D01*
X13711786Y-14785976D02*
X13702262Y-14795500D01*
X13702262Y-14795500D02*
X13683214Y-14805024D01*
X13683214Y-14805024D02*
X13626072Y-14805024D01*
X13626072Y-14805024D02*
X13607024Y-14795500D01*
X13607024Y-14795500D02*
X13597500Y-14785976D01*
X13845119Y-14605024D02*
X13864167Y-14605024D01*
X13864167Y-14605024D02*
X13883214Y-14614548D01*
X13883214Y-14614548D02*
X13892738Y-14624071D01*
X13892738Y-14624071D02*
X13902262Y-14643119D01*
X13902262Y-14643119D02*
X13911786Y-14681214D01*
X13911786Y-14681214D02*
X13911786Y-14728833D01*
X13911786Y-14728833D02*
X13902262Y-14766928D01*
X13902262Y-14766928D02*
X13892738Y-14785976D01*
X13892738Y-14785976D02*
X13883214Y-14795500D01*
X13883214Y-14795500D02*
X13864167Y-14805024D01*
X13864167Y-14805024D02*
X13845119Y-14805024D01*
X13845119Y-14805024D02*
X13826072Y-14795500D01*
X13826072Y-14795500D02*
X13816548Y-14785976D01*
X13816548Y-14785976D02*
X13807024Y-14766928D01*
X13807024Y-14766928D02*
X13797500Y-14728833D01*
X13797500Y-14728833D02*
X13797500Y-14681214D01*
X13797500Y-14681214D02*
X13807024Y-14643119D01*
X13807024Y-14643119D02*
X13816548Y-14624071D01*
X13816548Y-14624071D02*
X13826072Y-14614548D01*
X13826072Y-14614548D02*
X13845119Y-14605024D01*
X13987976Y-14605024D02*
X13987976Y-14643119D01*
X14064167Y-14605024D02*
X14064167Y-14643119D01*
X14359405Y-14881214D02*
X14349881Y-14871690D01*
X14349881Y-14871690D02*
X14330834Y-14843119D01*
X14330834Y-14843119D02*
X14321310Y-14824071D01*
X14321310Y-14824071D02*
X14311786Y-14795500D01*
X14311786Y-14795500D02*
X14302262Y-14747881D01*
X14302262Y-14747881D02*
X14302262Y-14709786D01*
X14302262Y-14709786D02*
X14311786Y-14662167D01*
X14311786Y-14662167D02*
X14321310Y-14633595D01*
X14321310Y-14633595D02*
X14330834Y-14614548D01*
X14330834Y-14614548D02*
X14349881Y-14585976D01*
X14349881Y-14585976D02*
X14359405Y-14576452D01*
X14540357Y-14805024D02*
X14426072Y-14805024D01*
X14483214Y-14805024D02*
X14483214Y-14605024D01*
X14483214Y-14605024D02*
X14464167Y-14633595D01*
X14464167Y-14633595D02*
X14445119Y-14652643D01*
X14445119Y-14652643D02*
X14426072Y-14662167D01*
X14664167Y-14605024D02*
X14683215Y-14605024D01*
X14683215Y-14605024D02*
X14702262Y-14614548D01*
X14702262Y-14614548D02*
X14711786Y-14624071D01*
X14711786Y-14624071D02*
X14721310Y-14643119D01*
X14721310Y-14643119D02*
X14730834Y-14681214D01*
X14730834Y-14681214D02*
X14730834Y-14728833D01*
X14730834Y-14728833D02*
X14721310Y-14766928D01*
X14721310Y-14766928D02*
X14711786Y-14785976D01*
X14711786Y-14785976D02*
X14702262Y-14795500D01*
X14702262Y-14795500D02*
X14683215Y-14805024D01*
X14683215Y-14805024D02*
X14664167Y-14805024D01*
X14664167Y-14805024D02*
X14645119Y-14795500D01*
X14645119Y-14795500D02*
X14635595Y-14785976D01*
X14635595Y-14785976D02*
X14626072Y-14766928D01*
X14626072Y-14766928D02*
X14616548Y-14728833D01*
X14616548Y-14728833D02*
X14616548Y-14681214D01*
X14616548Y-14681214D02*
X14626072Y-14643119D01*
X14626072Y-14643119D02*
X14635595Y-14624071D01*
X14635595Y-14624071D02*
X14645119Y-14614548D01*
X14645119Y-14614548D02*
X14664167Y-14605024D01*
X14968929Y-14805024D02*
X14968929Y-14605024D01*
X15054643Y-14805024D02*
X15054643Y-14700262D01*
X15054643Y-14700262D02*
X15045119Y-14681214D01*
X15045119Y-14681214D02*
X15026072Y-14671690D01*
X15026072Y-14671690D02*
X14997500Y-14671690D01*
X14997500Y-14671690D02*
X14978453Y-14681214D01*
X14978453Y-14681214D02*
X14968929Y-14690738D01*
X15178453Y-14805024D02*
X15159405Y-14795500D01*
X15159405Y-14795500D02*
X15149881Y-14785976D01*
X15149881Y-14785976D02*
X15140357Y-14766928D01*
X15140357Y-14766928D02*
X15140357Y-14709786D01*
X15140357Y-14709786D02*
X15149881Y-14690738D01*
X15149881Y-14690738D02*
X15159405Y-14681214D01*
X15159405Y-14681214D02*
X15178453Y-14671690D01*
X15178453Y-14671690D02*
X15207024Y-14671690D01*
X15207024Y-14671690D02*
X15226072Y-14681214D01*
X15226072Y-14681214D02*
X15235596Y-14690738D01*
X15235596Y-14690738D02*
X15245119Y-14709786D01*
X15245119Y-14709786D02*
X15245119Y-14766928D01*
X15245119Y-14766928D02*
X15235596Y-14785976D01*
X15235596Y-14785976D02*
X15226072Y-14795500D01*
X15226072Y-14795500D02*
X15207024Y-14805024D01*
X15207024Y-14805024D02*
X15178453Y-14805024D01*
X15359405Y-14805024D02*
X15340357Y-14795500D01*
X15340357Y-14795500D02*
X15330834Y-14776452D01*
X15330834Y-14776452D02*
X15330834Y-14605024D01*
X15511786Y-14795500D02*
X15492738Y-14805024D01*
X15492738Y-14805024D02*
X15454643Y-14805024D01*
X15454643Y-14805024D02*
X15435596Y-14795500D01*
X15435596Y-14795500D02*
X15426072Y-14776452D01*
X15426072Y-14776452D02*
X15426072Y-14700262D01*
X15426072Y-14700262D02*
X15435596Y-14681214D01*
X15435596Y-14681214D02*
X15454643Y-14671690D01*
X15454643Y-14671690D02*
X15492738Y-14671690D01*
X15492738Y-14671690D02*
X15511786Y-14681214D01*
X15511786Y-14681214D02*
X15521310Y-14700262D01*
X15521310Y-14700262D02*
X15521310Y-14719309D01*
X15521310Y-14719309D02*
X15426072Y-14738357D01*
X15597500Y-14795500D02*
X15616548Y-14805024D01*
X15616548Y-14805024D02*
X15654643Y-14805024D01*
X15654643Y-14805024D02*
X15673691Y-14795500D01*
X15673691Y-14795500D02*
X15683215Y-14776452D01*
X15683215Y-14776452D02*
X15683215Y-14766928D01*
X15683215Y-14766928D02*
X15673691Y-14747881D01*
X15673691Y-14747881D02*
X15654643Y-14738357D01*
X15654643Y-14738357D02*
X15626072Y-14738357D01*
X15626072Y-14738357D02*
X15607024Y-14728833D01*
X15607024Y-14728833D02*
X15597500Y-14709786D01*
X15597500Y-14709786D02*
X15597500Y-14700262D01*
X15597500Y-14700262D02*
X15607024Y-14681214D01*
X15607024Y-14681214D02*
X15626072Y-14671690D01*
X15626072Y-14671690D02*
X15654643Y-14671690D01*
X15654643Y-14671690D02*
X15673691Y-14681214D01*
X15749881Y-14881214D02*
X15759405Y-14871690D01*
X15759405Y-14871690D02*
X15778453Y-14843119D01*
X15778453Y-14843119D02*
X15787977Y-14824071D01*
X15787977Y-14824071D02*
X15797500Y-14795500D01*
X15797500Y-14795500D02*
X15807024Y-14747881D01*
X15807024Y-14747881D02*
X15807024Y-14709786D01*
X15807024Y-14709786D02*
X15797500Y-14662167D01*
X15797500Y-14662167D02*
X15787977Y-14633595D01*
X15787977Y-14633595D02*
X15778453Y-14614548D01*
X15778453Y-14614548D02*
X15759405Y-14585976D01*
X15759405Y-14585976D02*
X15749881Y-14576452D01*
X16111786Y-14881214D02*
X16102262Y-14871690D01*
X16102262Y-14871690D02*
X16083215Y-14843119D01*
X16083215Y-14843119D02*
X16073691Y-14824071D01*
X16073691Y-14824071D02*
X16064167Y-14795500D01*
X16064167Y-14795500D02*
X16054643Y-14747881D01*
X16054643Y-14747881D02*
X16054643Y-14709786D01*
X16054643Y-14709786D02*
X16064167Y-14662167D01*
X16064167Y-14662167D02*
X16073691Y-14633595D01*
X16073691Y-14633595D02*
X16083215Y-14614548D01*
X16083215Y-14614548D02*
X16102262Y-14585976D01*
X16102262Y-14585976D02*
X16111786Y-14576452D01*
X16187977Y-14671690D02*
X16187977Y-14805024D01*
X16187977Y-14690738D02*
X16197500Y-14681214D01*
X16197500Y-14681214D02*
X16216548Y-14671690D01*
X16216548Y-14671690D02*
X16245119Y-14671690D01*
X16245119Y-14671690D02*
X16264167Y-14681214D01*
X16264167Y-14681214D02*
X16273691Y-14700262D01*
X16273691Y-14700262D02*
X16273691Y-14805024D01*
X16397500Y-14805024D02*
X16378453Y-14795500D01*
X16378453Y-14795500D02*
X16368929Y-14785976D01*
X16368929Y-14785976D02*
X16359405Y-14766928D01*
X16359405Y-14766928D02*
X16359405Y-14709786D01*
X16359405Y-14709786D02*
X16368929Y-14690738D01*
X16368929Y-14690738D02*
X16378453Y-14681214D01*
X16378453Y-14681214D02*
X16397500Y-14671690D01*
X16397500Y-14671690D02*
X16426072Y-14671690D01*
X16426072Y-14671690D02*
X16445119Y-14681214D01*
X16445119Y-14681214D02*
X16454643Y-14690738D01*
X16454643Y-14690738D02*
X16464167Y-14709786D01*
X16464167Y-14709786D02*
X16464167Y-14766928D01*
X16464167Y-14766928D02*
X16454643Y-14785976D01*
X16454643Y-14785976D02*
X16445119Y-14795500D01*
X16445119Y-14795500D02*
X16426072Y-14805024D01*
X16426072Y-14805024D02*
X16397500Y-14805024D01*
X16521310Y-14671690D02*
X16597500Y-14671690D01*
X16549881Y-14605024D02*
X16549881Y-14776452D01*
X16549881Y-14776452D02*
X16559405Y-14795500D01*
X16559405Y-14795500D02*
X16578453Y-14805024D01*
X16578453Y-14805024D02*
X16597500Y-14805024D01*
X16816548Y-14671690D02*
X16816548Y-14871690D01*
X16816548Y-14681214D02*
X16835596Y-14671690D01*
X16835596Y-14671690D02*
X16873691Y-14671690D01*
X16873691Y-14671690D02*
X16892739Y-14681214D01*
X16892739Y-14681214D02*
X16902262Y-14690738D01*
X16902262Y-14690738D02*
X16911786Y-14709786D01*
X16911786Y-14709786D02*
X16911786Y-14766928D01*
X16911786Y-14766928D02*
X16902262Y-14785976D01*
X16902262Y-14785976D02*
X16892739Y-14795500D01*
X16892739Y-14795500D02*
X16873691Y-14805024D01*
X16873691Y-14805024D02*
X16835596Y-14805024D01*
X16835596Y-14805024D02*
X16816548Y-14795500D01*
X17026072Y-14805024D02*
X17007024Y-14795500D01*
X17007024Y-14795500D02*
X16997501Y-14776452D01*
X16997501Y-14776452D02*
X16997501Y-14605024D01*
X17187977Y-14805024D02*
X17187977Y-14700262D01*
X17187977Y-14700262D02*
X17178453Y-14681214D01*
X17178453Y-14681214D02*
X17159405Y-14671690D01*
X17159405Y-14671690D02*
X17121310Y-14671690D01*
X17121310Y-14671690D02*
X17102262Y-14681214D01*
X17187977Y-14795500D02*
X17168929Y-14805024D01*
X17168929Y-14805024D02*
X17121310Y-14805024D01*
X17121310Y-14805024D02*
X17102262Y-14795500D01*
X17102262Y-14795500D02*
X17092739Y-14776452D01*
X17092739Y-14776452D02*
X17092739Y-14757405D01*
X17092739Y-14757405D02*
X17102262Y-14738357D01*
X17102262Y-14738357D02*
X17121310Y-14728833D01*
X17121310Y-14728833D02*
X17168929Y-14728833D01*
X17168929Y-14728833D02*
X17187977Y-14719309D01*
X17254643Y-14671690D02*
X17330834Y-14671690D01*
X17283215Y-14605024D02*
X17283215Y-14776452D01*
X17283215Y-14776452D02*
X17292739Y-14795500D01*
X17292739Y-14795500D02*
X17311786Y-14805024D01*
X17311786Y-14805024D02*
X17330834Y-14805024D01*
X17473691Y-14795500D02*
X17454643Y-14805024D01*
X17454643Y-14805024D02*
X17416548Y-14805024D01*
X17416548Y-14805024D02*
X17397501Y-14795500D01*
X17397501Y-14795500D02*
X17387977Y-14776452D01*
X17387977Y-14776452D02*
X17387977Y-14700262D01*
X17387977Y-14700262D02*
X17397501Y-14681214D01*
X17397501Y-14681214D02*
X17416548Y-14671690D01*
X17416548Y-14671690D02*
X17454643Y-14671690D01*
X17454643Y-14671690D02*
X17473691Y-14681214D01*
X17473691Y-14681214D02*
X17483215Y-14700262D01*
X17483215Y-14700262D02*
X17483215Y-14719309D01*
X17483215Y-14719309D02*
X17387977Y-14738357D01*
X17654643Y-14805024D02*
X17654643Y-14605024D01*
X17654643Y-14795500D02*
X17635596Y-14805024D01*
X17635596Y-14805024D02*
X17597501Y-14805024D01*
X17597501Y-14805024D02*
X17578453Y-14795500D01*
X17578453Y-14795500D02*
X17568929Y-14785976D01*
X17568929Y-14785976D02*
X17559405Y-14766928D01*
X17559405Y-14766928D02*
X17559405Y-14709786D01*
X17559405Y-14709786D02*
X17568929Y-14690738D01*
X17568929Y-14690738D02*
X17578453Y-14681214D01*
X17578453Y-14681214D02*
X17597501Y-14671690D01*
X17597501Y-14671690D02*
X17635596Y-14671690D01*
X17635596Y-14671690D02*
X17654643Y-14681214D01*
X17730834Y-14881214D02*
X17740358Y-14871690D01*
X17740358Y-14871690D02*
X17759405Y-14843119D01*
X17759405Y-14843119D02*
X17768929Y-14824071D01*
X17768929Y-14824071D02*
X17778453Y-14795500D01*
X17778453Y-14795500D02*
X17787977Y-14747881D01*
X17787977Y-14747881D02*
X17787977Y-14709786D01*
X17787977Y-14709786D02*
X17778453Y-14662167D01*
X17778453Y-14662167D02*
X17768929Y-14633595D01*
X17768929Y-14633595D02*
X17759405Y-14614548D01*
X17759405Y-14614548D02*
X17740358Y-14585976D01*
X17740358Y-14585976D02*
X17730834Y-14576452D01*
D14*
X10707500Y-14902500D02*
X10707500Y-15082500D01*
X10617500Y-14992500D02*
X10797500Y-14992500D01*
D11*
X11149881Y-15085024D02*
X11035595Y-15085024D01*
X11092738Y-15085024D02*
X11092738Y-14885024D01*
X11092738Y-14885024D02*
X11073690Y-14913595D01*
X11073690Y-14913595D02*
X11054643Y-14932643D01*
X11054643Y-14932643D02*
X11035595Y-14942167D01*
X11235595Y-15065976D02*
X11245119Y-15075500D01*
X11245119Y-15075500D02*
X11235595Y-15085024D01*
X11235595Y-15085024D02*
X11226071Y-15075500D01*
X11226071Y-15075500D02*
X11235595Y-15065976D01*
X11235595Y-15065976D02*
X11235595Y-15085024D01*
X11359405Y-14970738D02*
X11340357Y-14961214D01*
X11340357Y-14961214D02*
X11330833Y-14951690D01*
X11330833Y-14951690D02*
X11321309Y-14932643D01*
X11321309Y-14932643D02*
X11321309Y-14923119D01*
X11321309Y-14923119D02*
X11330833Y-14904071D01*
X11330833Y-14904071D02*
X11340357Y-14894548D01*
X11340357Y-14894548D02*
X11359405Y-14885024D01*
X11359405Y-14885024D02*
X11397500Y-14885024D01*
X11397500Y-14885024D02*
X11416548Y-14894548D01*
X11416548Y-14894548D02*
X11426071Y-14904071D01*
X11426071Y-14904071D02*
X11435595Y-14923119D01*
X11435595Y-14923119D02*
X11435595Y-14932643D01*
X11435595Y-14932643D02*
X11426071Y-14951690D01*
X11426071Y-14951690D02*
X11416548Y-14961214D01*
X11416548Y-14961214D02*
X11397500Y-14970738D01*
X11397500Y-14970738D02*
X11359405Y-14970738D01*
X11359405Y-14970738D02*
X11340357Y-14980262D01*
X11340357Y-14980262D02*
X11330833Y-14989786D01*
X11330833Y-14989786D02*
X11321309Y-15008833D01*
X11321309Y-15008833D02*
X11321309Y-15046928D01*
X11321309Y-15046928D02*
X11330833Y-15065976D01*
X11330833Y-15065976D02*
X11340357Y-15075500D01*
X11340357Y-15075500D02*
X11359405Y-15085024D01*
X11359405Y-15085024D02*
X11397500Y-15085024D01*
X11397500Y-15085024D02*
X11416548Y-15075500D01*
X11416548Y-15075500D02*
X11426071Y-15065976D01*
X11426071Y-15065976D02*
X11435595Y-15046928D01*
X11435595Y-15046928D02*
X11435595Y-15008833D01*
X11435595Y-15008833D02*
X11426071Y-14989786D01*
X11426071Y-14989786D02*
X11416548Y-14980262D01*
X11416548Y-14980262D02*
X11397500Y-14970738D01*
X11559405Y-14885024D02*
X11578452Y-14885024D01*
X11578452Y-14885024D02*
X11597500Y-14894548D01*
X11597500Y-14894548D02*
X11607024Y-14904071D01*
X11607024Y-14904071D02*
X11616548Y-14923119D01*
X11616548Y-14923119D02*
X11626071Y-14961214D01*
X11626071Y-14961214D02*
X11626071Y-15008833D01*
X11626071Y-15008833D02*
X11616548Y-15046928D01*
X11616548Y-15046928D02*
X11607024Y-15065976D01*
X11607024Y-15065976D02*
X11597500Y-15075500D01*
X11597500Y-15075500D02*
X11578452Y-15085024D01*
X11578452Y-15085024D02*
X11559405Y-15085024D01*
X11559405Y-15085024D02*
X11540357Y-15075500D01*
X11540357Y-15075500D02*
X11530833Y-15065976D01*
X11530833Y-15065976D02*
X11521309Y-15046928D01*
X11521309Y-15046928D02*
X11511786Y-15008833D01*
X11511786Y-15008833D02*
X11511786Y-14961214D01*
X11511786Y-14961214D02*
X11521309Y-14923119D01*
X11521309Y-14923119D02*
X11530833Y-14904071D01*
X11530833Y-14904071D02*
X11540357Y-14894548D01*
X11540357Y-14894548D02*
X11559405Y-14885024D01*
X11749881Y-14885024D02*
X11768929Y-14885024D01*
X11768929Y-14885024D02*
X11787976Y-14894548D01*
X11787976Y-14894548D02*
X11797500Y-14904071D01*
X11797500Y-14904071D02*
X11807024Y-14923119D01*
X11807024Y-14923119D02*
X11816548Y-14961214D01*
X11816548Y-14961214D02*
X11816548Y-15008833D01*
X11816548Y-15008833D02*
X11807024Y-15046928D01*
X11807024Y-15046928D02*
X11797500Y-15065976D01*
X11797500Y-15065976D02*
X11787976Y-15075500D01*
X11787976Y-15075500D02*
X11768929Y-15085024D01*
X11768929Y-15085024D02*
X11749881Y-15085024D01*
X11749881Y-15085024D02*
X11730833Y-15075500D01*
X11730833Y-15075500D02*
X11721309Y-15065976D01*
X11721309Y-15065976D02*
X11711786Y-15046928D01*
X11711786Y-15046928D02*
X11702262Y-15008833D01*
X11702262Y-15008833D02*
X11702262Y-14961214D01*
X11702262Y-14961214D02*
X11711786Y-14923119D01*
X11711786Y-14923119D02*
X11721309Y-14904071D01*
X11721309Y-14904071D02*
X11730833Y-14894548D01*
X11730833Y-14894548D02*
X11749881Y-14885024D01*
X11902262Y-15085024D02*
X11902262Y-14951690D01*
X11902262Y-14970738D02*
X11911786Y-14961214D01*
X11911786Y-14961214D02*
X11930833Y-14951690D01*
X11930833Y-14951690D02*
X11959405Y-14951690D01*
X11959405Y-14951690D02*
X11978452Y-14961214D01*
X11978452Y-14961214D02*
X11987976Y-14980262D01*
X11987976Y-14980262D02*
X11987976Y-15085024D01*
X11987976Y-14980262D02*
X11997500Y-14961214D01*
X11997500Y-14961214D02*
X12016548Y-14951690D01*
X12016548Y-14951690D02*
X12045119Y-14951690D01*
X12045119Y-14951690D02*
X12064167Y-14961214D01*
X12064167Y-14961214D02*
X12073690Y-14980262D01*
X12073690Y-14980262D02*
X12073690Y-15085024D01*
X12168929Y-15085024D02*
X12168929Y-14951690D01*
X12168929Y-14970738D02*
X12178452Y-14961214D01*
X12178452Y-14961214D02*
X12197500Y-14951690D01*
X12197500Y-14951690D02*
X12226071Y-14951690D01*
X12226071Y-14951690D02*
X12245119Y-14961214D01*
X12245119Y-14961214D02*
X12254643Y-14980262D01*
X12254643Y-14980262D02*
X12254643Y-15085024D01*
X12254643Y-14980262D02*
X12264167Y-14961214D01*
X12264167Y-14961214D02*
X12283214Y-14951690D01*
X12283214Y-14951690D02*
X12311786Y-14951690D01*
X12311786Y-14951690D02*
X12330833Y-14961214D01*
X12330833Y-14961214D02*
X12340357Y-14980262D01*
X12340357Y-14980262D02*
X12340357Y-15085024D01*
X12730833Y-14875500D02*
X12559405Y-15132643D01*
X12987976Y-14885024D02*
X13007024Y-14885024D01*
X13007024Y-14885024D02*
X13026072Y-14894548D01*
X13026072Y-14894548D02*
X13035595Y-14904071D01*
X13035595Y-14904071D02*
X13045119Y-14923119D01*
X13045119Y-14923119D02*
X13054643Y-14961214D01*
X13054643Y-14961214D02*
X13054643Y-15008833D01*
X13054643Y-15008833D02*
X13045119Y-15046928D01*
X13045119Y-15046928D02*
X13035595Y-15065976D01*
X13035595Y-15065976D02*
X13026072Y-15075500D01*
X13026072Y-15075500D02*
X13007024Y-15085024D01*
X13007024Y-15085024D02*
X12987976Y-15085024D01*
X12987976Y-15085024D02*
X12968929Y-15075500D01*
X12968929Y-15075500D02*
X12959405Y-15065976D01*
X12959405Y-15065976D02*
X12949881Y-15046928D01*
X12949881Y-15046928D02*
X12940357Y-15008833D01*
X12940357Y-15008833D02*
X12940357Y-14961214D01*
X12940357Y-14961214D02*
X12949881Y-14923119D01*
X12949881Y-14923119D02*
X12959405Y-14904071D01*
X12959405Y-14904071D02*
X12968929Y-14894548D01*
X12968929Y-14894548D02*
X12987976Y-14885024D01*
X13140357Y-15065976D02*
X13149881Y-15075500D01*
X13149881Y-15075500D02*
X13140357Y-15085024D01*
X13140357Y-15085024D02*
X13130833Y-15075500D01*
X13130833Y-15075500D02*
X13140357Y-15065976D01*
X13140357Y-15065976D02*
X13140357Y-15085024D01*
X13273691Y-14885024D02*
X13292738Y-14885024D01*
X13292738Y-14885024D02*
X13311786Y-14894548D01*
X13311786Y-14894548D02*
X13321310Y-14904071D01*
X13321310Y-14904071D02*
X13330833Y-14923119D01*
X13330833Y-14923119D02*
X13340357Y-14961214D01*
X13340357Y-14961214D02*
X13340357Y-15008833D01*
X13340357Y-15008833D02*
X13330833Y-15046928D01*
X13330833Y-15046928D02*
X13321310Y-15065976D01*
X13321310Y-15065976D02*
X13311786Y-15075500D01*
X13311786Y-15075500D02*
X13292738Y-15085024D01*
X13292738Y-15085024D02*
X13273691Y-15085024D01*
X13273691Y-15085024D02*
X13254643Y-15075500D01*
X13254643Y-15075500D02*
X13245119Y-15065976D01*
X13245119Y-15065976D02*
X13235595Y-15046928D01*
X13235595Y-15046928D02*
X13226072Y-15008833D01*
X13226072Y-15008833D02*
X13226072Y-14961214D01*
X13226072Y-14961214D02*
X13235595Y-14923119D01*
X13235595Y-14923119D02*
X13245119Y-14904071D01*
X13245119Y-14904071D02*
X13254643Y-14894548D01*
X13254643Y-14894548D02*
X13273691Y-14885024D01*
X13407024Y-14885024D02*
X13540357Y-14885024D01*
X13540357Y-14885024D02*
X13454643Y-15085024D01*
X13654643Y-14885024D02*
X13673691Y-14885024D01*
X13673691Y-14885024D02*
X13692738Y-14894548D01*
X13692738Y-14894548D02*
X13702262Y-14904071D01*
X13702262Y-14904071D02*
X13711786Y-14923119D01*
X13711786Y-14923119D02*
X13721310Y-14961214D01*
X13721310Y-14961214D02*
X13721310Y-15008833D01*
X13721310Y-15008833D02*
X13711786Y-15046928D01*
X13711786Y-15046928D02*
X13702262Y-15065976D01*
X13702262Y-15065976D02*
X13692738Y-15075500D01*
X13692738Y-15075500D02*
X13673691Y-15085024D01*
X13673691Y-15085024D02*
X13654643Y-15085024D01*
X13654643Y-15085024D02*
X13635595Y-15075500D01*
X13635595Y-15075500D02*
X13626072Y-15065976D01*
X13626072Y-15065976D02*
X13616548Y-15046928D01*
X13616548Y-15046928D02*
X13607024Y-15008833D01*
X13607024Y-15008833D02*
X13607024Y-14961214D01*
X13607024Y-14961214D02*
X13616548Y-14923119D01*
X13616548Y-14923119D02*
X13626072Y-14904071D01*
X13626072Y-14904071D02*
X13635595Y-14894548D01*
X13635595Y-14894548D02*
X13654643Y-14885024D01*
X13816548Y-15085024D02*
X13854643Y-15085024D01*
X13854643Y-15085024D02*
X13873691Y-15075500D01*
X13873691Y-15075500D02*
X13883214Y-15065976D01*
X13883214Y-15065976D02*
X13902262Y-15037405D01*
X13902262Y-15037405D02*
X13911786Y-14999309D01*
X13911786Y-14999309D02*
X13911786Y-14923119D01*
X13911786Y-14923119D02*
X13902262Y-14904071D01*
X13902262Y-14904071D02*
X13892738Y-14894548D01*
X13892738Y-14894548D02*
X13873691Y-14885024D01*
X13873691Y-14885024D02*
X13835595Y-14885024D01*
X13835595Y-14885024D02*
X13816548Y-14894548D01*
X13816548Y-14894548D02*
X13807024Y-14904071D01*
X13807024Y-14904071D02*
X13797500Y-14923119D01*
X13797500Y-14923119D02*
X13797500Y-14970738D01*
X13797500Y-14970738D02*
X13807024Y-14989786D01*
X13807024Y-14989786D02*
X13816548Y-14999309D01*
X13816548Y-14999309D02*
X13835595Y-15008833D01*
X13835595Y-15008833D02*
X13873691Y-15008833D01*
X13873691Y-15008833D02*
X13892738Y-14999309D01*
X13892738Y-14999309D02*
X13902262Y-14989786D01*
X13902262Y-14989786D02*
X13911786Y-14970738D01*
X13987976Y-14885024D02*
X13987976Y-14923119D01*
X14064167Y-14885024D02*
X14064167Y-14923119D01*
X14359405Y-15161214D02*
X14349881Y-15151690D01*
X14349881Y-15151690D02*
X14330834Y-15123119D01*
X14330834Y-15123119D02*
X14321310Y-15104071D01*
X14321310Y-15104071D02*
X14311786Y-15075500D01*
X14311786Y-15075500D02*
X14302262Y-15027881D01*
X14302262Y-15027881D02*
X14302262Y-14989786D01*
X14302262Y-14989786D02*
X14311786Y-14942167D01*
X14311786Y-14942167D02*
X14321310Y-14913595D01*
X14321310Y-14913595D02*
X14330834Y-14894548D01*
X14330834Y-14894548D02*
X14349881Y-14865976D01*
X14349881Y-14865976D02*
X14359405Y-14856452D01*
X14426072Y-14904071D02*
X14435595Y-14894548D01*
X14435595Y-14894548D02*
X14454643Y-14885024D01*
X14454643Y-14885024D02*
X14502262Y-14885024D01*
X14502262Y-14885024D02*
X14521310Y-14894548D01*
X14521310Y-14894548D02*
X14530834Y-14904071D01*
X14530834Y-14904071D02*
X14540357Y-14923119D01*
X14540357Y-14923119D02*
X14540357Y-14942167D01*
X14540357Y-14942167D02*
X14530834Y-14970738D01*
X14530834Y-14970738D02*
X14416548Y-15085024D01*
X14416548Y-15085024D02*
X14540357Y-15085024D01*
X14778453Y-15085024D02*
X14778453Y-14885024D01*
X14864167Y-15085024D02*
X14864167Y-14980262D01*
X14864167Y-14980262D02*
X14854643Y-14961214D01*
X14854643Y-14961214D02*
X14835596Y-14951690D01*
X14835596Y-14951690D02*
X14807024Y-14951690D01*
X14807024Y-14951690D02*
X14787976Y-14961214D01*
X14787976Y-14961214D02*
X14778453Y-14970738D01*
X14987976Y-15085024D02*
X14968929Y-15075500D01*
X14968929Y-15075500D02*
X14959405Y-15065976D01*
X14959405Y-15065976D02*
X14949881Y-15046928D01*
X14949881Y-15046928D02*
X14949881Y-14989786D01*
X14949881Y-14989786D02*
X14959405Y-14970738D01*
X14959405Y-14970738D02*
X14968929Y-14961214D01*
X14968929Y-14961214D02*
X14987976Y-14951690D01*
X14987976Y-14951690D02*
X15016548Y-14951690D01*
X15016548Y-14951690D02*
X15035596Y-14961214D01*
X15035596Y-14961214D02*
X15045119Y-14970738D01*
X15045119Y-14970738D02*
X15054643Y-14989786D01*
X15054643Y-14989786D02*
X15054643Y-15046928D01*
X15054643Y-15046928D02*
X15045119Y-15065976D01*
X15045119Y-15065976D02*
X15035596Y-15075500D01*
X15035596Y-15075500D02*
X15016548Y-15085024D01*
X15016548Y-15085024D02*
X14987976Y-15085024D01*
X15168929Y-15085024D02*
X15149881Y-15075500D01*
X15149881Y-15075500D02*
X15140357Y-15056452D01*
X15140357Y-15056452D02*
X15140357Y-14885024D01*
X15321310Y-15075500D02*
X15302262Y-15085024D01*
X15302262Y-15085024D02*
X15264167Y-15085024D01*
X15264167Y-15085024D02*
X15245119Y-15075500D01*
X15245119Y-15075500D02*
X15235596Y-15056452D01*
X15235596Y-15056452D02*
X15235596Y-14980262D01*
X15235596Y-14980262D02*
X15245119Y-14961214D01*
X15245119Y-14961214D02*
X15264167Y-14951690D01*
X15264167Y-14951690D02*
X15302262Y-14951690D01*
X15302262Y-14951690D02*
X15321310Y-14961214D01*
X15321310Y-14961214D02*
X15330834Y-14980262D01*
X15330834Y-14980262D02*
X15330834Y-14999309D01*
X15330834Y-14999309D02*
X15235596Y-15018357D01*
X15407024Y-15075500D02*
X15426072Y-15085024D01*
X15426072Y-15085024D02*
X15464167Y-15085024D01*
X15464167Y-15085024D02*
X15483215Y-15075500D01*
X15483215Y-15075500D02*
X15492738Y-15056452D01*
X15492738Y-15056452D02*
X15492738Y-15046928D01*
X15492738Y-15046928D02*
X15483215Y-15027881D01*
X15483215Y-15027881D02*
X15464167Y-15018357D01*
X15464167Y-15018357D02*
X15435596Y-15018357D01*
X15435596Y-15018357D02*
X15416548Y-15008833D01*
X15416548Y-15008833D02*
X15407024Y-14989786D01*
X15407024Y-14989786D02*
X15407024Y-14980262D01*
X15407024Y-14980262D02*
X15416548Y-14961214D01*
X15416548Y-14961214D02*
X15435596Y-14951690D01*
X15435596Y-14951690D02*
X15464167Y-14951690D01*
X15464167Y-14951690D02*
X15483215Y-14961214D01*
X15559405Y-15161214D02*
X15568929Y-15151690D01*
X15568929Y-15151690D02*
X15587977Y-15123119D01*
X15587977Y-15123119D02*
X15597500Y-15104071D01*
X15597500Y-15104071D02*
X15607024Y-15075500D01*
X15607024Y-15075500D02*
X15616548Y-15027881D01*
X15616548Y-15027881D02*
X15616548Y-14989786D01*
X15616548Y-14989786D02*
X15607024Y-14942167D01*
X15607024Y-14942167D02*
X15597500Y-14913595D01*
X15597500Y-14913595D02*
X15587977Y-14894548D01*
X15587977Y-14894548D02*
X15568929Y-14865976D01*
X15568929Y-14865976D02*
X15559405Y-14856452D01*
X15921310Y-15161214D02*
X15911786Y-15151690D01*
X15911786Y-15151690D02*
X15892738Y-15123119D01*
X15892738Y-15123119D02*
X15883215Y-15104071D01*
X15883215Y-15104071D02*
X15873691Y-15075500D01*
X15873691Y-15075500D02*
X15864167Y-15027881D01*
X15864167Y-15027881D02*
X15864167Y-14989786D01*
X15864167Y-14989786D02*
X15873691Y-14942167D01*
X15873691Y-14942167D02*
X15883215Y-14913595D01*
X15883215Y-14913595D02*
X15892738Y-14894548D01*
X15892738Y-14894548D02*
X15911786Y-14865976D01*
X15911786Y-14865976D02*
X15921310Y-14856452D01*
X15997500Y-14951690D02*
X15997500Y-15085024D01*
X15997500Y-14970738D02*
X16007024Y-14961214D01*
X16007024Y-14961214D02*
X16026072Y-14951690D01*
X16026072Y-14951690D02*
X16054643Y-14951690D01*
X16054643Y-14951690D02*
X16073691Y-14961214D01*
X16073691Y-14961214D02*
X16083215Y-14980262D01*
X16083215Y-14980262D02*
X16083215Y-15085024D01*
X16207024Y-15085024D02*
X16187977Y-15075500D01*
X16187977Y-15075500D02*
X16178453Y-15065976D01*
X16178453Y-15065976D02*
X16168929Y-15046928D01*
X16168929Y-15046928D02*
X16168929Y-14989786D01*
X16168929Y-14989786D02*
X16178453Y-14970738D01*
X16178453Y-14970738D02*
X16187977Y-14961214D01*
X16187977Y-14961214D02*
X16207024Y-14951690D01*
X16207024Y-14951690D02*
X16235596Y-14951690D01*
X16235596Y-14951690D02*
X16254643Y-14961214D01*
X16254643Y-14961214D02*
X16264167Y-14970738D01*
X16264167Y-14970738D02*
X16273691Y-14989786D01*
X16273691Y-14989786D02*
X16273691Y-15046928D01*
X16273691Y-15046928D02*
X16264167Y-15065976D01*
X16264167Y-15065976D02*
X16254643Y-15075500D01*
X16254643Y-15075500D02*
X16235596Y-15085024D01*
X16235596Y-15085024D02*
X16207024Y-15085024D01*
X16330834Y-14951690D02*
X16407024Y-14951690D01*
X16359405Y-14885024D02*
X16359405Y-15056452D01*
X16359405Y-15056452D02*
X16368929Y-15075500D01*
X16368929Y-15075500D02*
X16387977Y-15085024D01*
X16387977Y-15085024D02*
X16407024Y-15085024D01*
X16626072Y-14951690D02*
X16626072Y-15151690D01*
X16626072Y-14961214D02*
X16645119Y-14951690D01*
X16645119Y-14951690D02*
X16683215Y-14951690D01*
X16683215Y-14951690D02*
X16702262Y-14961214D01*
X16702262Y-14961214D02*
X16711786Y-14970738D01*
X16711786Y-14970738D02*
X16721310Y-14989786D01*
X16721310Y-14989786D02*
X16721310Y-15046928D01*
X16721310Y-15046928D02*
X16711786Y-15065976D01*
X16711786Y-15065976D02*
X16702262Y-15075500D01*
X16702262Y-15075500D02*
X16683215Y-15085024D01*
X16683215Y-15085024D02*
X16645119Y-15085024D01*
X16645119Y-15085024D02*
X16626072Y-15075500D01*
X16835596Y-15085024D02*
X16816548Y-15075500D01*
X16816548Y-15075500D02*
X16807024Y-15056452D01*
X16807024Y-15056452D02*
X16807024Y-14885024D01*
X16997501Y-15085024D02*
X16997501Y-14980262D01*
X16997501Y-14980262D02*
X16987977Y-14961214D01*
X16987977Y-14961214D02*
X16968929Y-14951690D01*
X16968929Y-14951690D02*
X16930834Y-14951690D01*
X16930834Y-14951690D02*
X16911786Y-14961214D01*
X16997501Y-15075500D02*
X16978453Y-15085024D01*
X16978453Y-15085024D02*
X16930834Y-15085024D01*
X16930834Y-15085024D02*
X16911786Y-15075500D01*
X16911786Y-15075500D02*
X16902262Y-15056452D01*
X16902262Y-15056452D02*
X16902262Y-15037405D01*
X16902262Y-15037405D02*
X16911786Y-15018357D01*
X16911786Y-15018357D02*
X16930834Y-15008833D01*
X16930834Y-15008833D02*
X16978453Y-15008833D01*
X16978453Y-15008833D02*
X16997501Y-14999309D01*
X17064167Y-14951690D02*
X17140358Y-14951690D01*
X17092739Y-14885024D02*
X17092739Y-15056452D01*
X17092739Y-15056452D02*
X17102262Y-15075500D01*
X17102262Y-15075500D02*
X17121310Y-15085024D01*
X17121310Y-15085024D02*
X17140358Y-15085024D01*
X17283215Y-15075500D02*
X17264167Y-15085024D01*
X17264167Y-15085024D02*
X17226072Y-15085024D01*
X17226072Y-15085024D02*
X17207024Y-15075500D01*
X17207024Y-15075500D02*
X17197501Y-15056452D01*
X17197501Y-15056452D02*
X17197501Y-14980262D01*
X17197501Y-14980262D02*
X17207024Y-14961214D01*
X17207024Y-14961214D02*
X17226072Y-14951690D01*
X17226072Y-14951690D02*
X17264167Y-14951690D01*
X17264167Y-14951690D02*
X17283215Y-14961214D01*
X17283215Y-14961214D02*
X17292739Y-14980262D01*
X17292739Y-14980262D02*
X17292739Y-14999309D01*
X17292739Y-14999309D02*
X17197501Y-15018357D01*
X17464167Y-15085024D02*
X17464167Y-14885024D01*
X17464167Y-15075500D02*
X17445120Y-15085024D01*
X17445120Y-15085024D02*
X17407024Y-15085024D01*
X17407024Y-15085024D02*
X17387977Y-15075500D01*
X17387977Y-15075500D02*
X17378453Y-15065976D01*
X17378453Y-15065976D02*
X17368929Y-15046928D01*
X17368929Y-15046928D02*
X17368929Y-14989786D01*
X17368929Y-14989786D02*
X17378453Y-14970738D01*
X17378453Y-14970738D02*
X17387977Y-14961214D01*
X17387977Y-14961214D02*
X17407024Y-14951690D01*
X17407024Y-14951690D02*
X17445120Y-14951690D01*
X17445120Y-14951690D02*
X17464167Y-14961214D01*
X17540358Y-15161214D02*
X17549882Y-15151690D01*
X17549882Y-15151690D02*
X17568929Y-15123119D01*
X17568929Y-15123119D02*
X17578453Y-15104071D01*
X17578453Y-15104071D02*
X17587977Y-15075500D01*
X17587977Y-15075500D02*
X17597501Y-15027881D01*
X17597501Y-15027881D02*
X17597501Y-14989786D01*
X17597501Y-14989786D02*
X17587977Y-14942167D01*
X17587977Y-14942167D02*
X17578453Y-14913595D01*
X17578453Y-14913595D02*
X17568929Y-14894548D01*
X17568929Y-14894548D02*
X17549882Y-14865976D01*
X17549882Y-14865976D02*
X17540358Y-14856452D01*
X10768211Y-15363211D02*
X10768211Y-15221789D01*
X10626789Y-15221789D01*
X10626789Y-15363211D01*
X10768211Y-15363211D01*
X11026071Y-15185024D02*
X11149881Y-15185024D01*
X11149881Y-15185024D02*
X11083214Y-15261214D01*
X11083214Y-15261214D02*
X11111786Y-15261214D01*
X11111786Y-15261214D02*
X11130833Y-15270738D01*
X11130833Y-15270738D02*
X11140357Y-15280262D01*
X11140357Y-15280262D02*
X11149881Y-15299309D01*
X11149881Y-15299309D02*
X11149881Y-15346928D01*
X11149881Y-15346928D02*
X11140357Y-15365976D01*
X11140357Y-15365976D02*
X11130833Y-15375500D01*
X11130833Y-15375500D02*
X11111786Y-15385024D01*
X11111786Y-15385024D02*
X11054643Y-15385024D01*
X11054643Y-15385024D02*
X11035595Y-15375500D01*
X11035595Y-15375500D02*
X11026071Y-15365976D01*
X11235595Y-15365976D02*
X11245119Y-15375500D01*
X11245119Y-15375500D02*
X11235595Y-15385024D01*
X11235595Y-15385024D02*
X11226071Y-15375500D01*
X11226071Y-15375500D02*
X11235595Y-15365976D01*
X11235595Y-15365976D02*
X11235595Y-15385024D01*
X11321309Y-15204071D02*
X11330833Y-15194548D01*
X11330833Y-15194548D02*
X11349881Y-15185024D01*
X11349881Y-15185024D02*
X11397500Y-15185024D01*
X11397500Y-15185024D02*
X11416548Y-15194548D01*
X11416548Y-15194548D02*
X11426071Y-15204071D01*
X11426071Y-15204071D02*
X11435595Y-15223119D01*
X11435595Y-15223119D02*
X11435595Y-15242167D01*
X11435595Y-15242167D02*
X11426071Y-15270738D01*
X11426071Y-15270738D02*
X11311786Y-15385024D01*
X11311786Y-15385024D02*
X11435595Y-15385024D01*
X11559405Y-15185024D02*
X11578452Y-15185024D01*
X11578452Y-15185024D02*
X11597500Y-15194548D01*
X11597500Y-15194548D02*
X11607024Y-15204071D01*
X11607024Y-15204071D02*
X11616548Y-15223119D01*
X11616548Y-15223119D02*
X11626071Y-15261214D01*
X11626071Y-15261214D02*
X11626071Y-15308833D01*
X11626071Y-15308833D02*
X11616548Y-15346928D01*
X11616548Y-15346928D02*
X11607024Y-15365976D01*
X11607024Y-15365976D02*
X11597500Y-15375500D01*
X11597500Y-15375500D02*
X11578452Y-15385024D01*
X11578452Y-15385024D02*
X11559405Y-15385024D01*
X11559405Y-15385024D02*
X11540357Y-15375500D01*
X11540357Y-15375500D02*
X11530833Y-15365976D01*
X11530833Y-15365976D02*
X11521309Y-15346928D01*
X11521309Y-15346928D02*
X11511786Y-15308833D01*
X11511786Y-15308833D02*
X11511786Y-15261214D01*
X11511786Y-15261214D02*
X11521309Y-15223119D01*
X11521309Y-15223119D02*
X11530833Y-15204071D01*
X11530833Y-15204071D02*
X11540357Y-15194548D01*
X11540357Y-15194548D02*
X11559405Y-15185024D01*
X11749881Y-15185024D02*
X11768929Y-15185024D01*
X11768929Y-15185024D02*
X11787976Y-15194548D01*
X11787976Y-15194548D02*
X11797500Y-15204071D01*
X11797500Y-15204071D02*
X11807024Y-15223119D01*
X11807024Y-15223119D02*
X11816548Y-15261214D01*
X11816548Y-15261214D02*
X11816548Y-15308833D01*
X11816548Y-15308833D02*
X11807024Y-15346928D01*
X11807024Y-15346928D02*
X11797500Y-15365976D01*
X11797500Y-15365976D02*
X11787976Y-15375500D01*
X11787976Y-15375500D02*
X11768929Y-15385024D01*
X11768929Y-15385024D02*
X11749881Y-15385024D01*
X11749881Y-15385024D02*
X11730833Y-15375500D01*
X11730833Y-15375500D02*
X11721309Y-15365976D01*
X11721309Y-15365976D02*
X11711786Y-15346928D01*
X11711786Y-15346928D02*
X11702262Y-15308833D01*
X11702262Y-15308833D02*
X11702262Y-15261214D01*
X11702262Y-15261214D02*
X11711786Y-15223119D01*
X11711786Y-15223119D02*
X11721309Y-15204071D01*
X11721309Y-15204071D02*
X11730833Y-15194548D01*
X11730833Y-15194548D02*
X11749881Y-15185024D01*
X11902262Y-15385024D02*
X11902262Y-15251690D01*
X11902262Y-15270738D02*
X11911786Y-15261214D01*
X11911786Y-15261214D02*
X11930833Y-15251690D01*
X11930833Y-15251690D02*
X11959405Y-15251690D01*
X11959405Y-15251690D02*
X11978452Y-15261214D01*
X11978452Y-15261214D02*
X11987976Y-15280262D01*
X11987976Y-15280262D02*
X11987976Y-15385024D01*
X11987976Y-15280262D02*
X11997500Y-15261214D01*
X11997500Y-15261214D02*
X12016548Y-15251690D01*
X12016548Y-15251690D02*
X12045119Y-15251690D01*
X12045119Y-15251690D02*
X12064167Y-15261214D01*
X12064167Y-15261214D02*
X12073690Y-15280262D01*
X12073690Y-15280262D02*
X12073690Y-15385024D01*
X12168929Y-15385024D02*
X12168929Y-15251690D01*
X12168929Y-15270738D02*
X12178452Y-15261214D01*
X12178452Y-15261214D02*
X12197500Y-15251690D01*
X12197500Y-15251690D02*
X12226071Y-15251690D01*
X12226071Y-15251690D02*
X12245119Y-15261214D01*
X12245119Y-15261214D02*
X12254643Y-15280262D01*
X12254643Y-15280262D02*
X12254643Y-15385024D01*
X12254643Y-15280262D02*
X12264167Y-15261214D01*
X12264167Y-15261214D02*
X12283214Y-15251690D01*
X12283214Y-15251690D02*
X12311786Y-15251690D01*
X12311786Y-15251690D02*
X12330833Y-15261214D01*
X12330833Y-15261214D02*
X12340357Y-15280262D01*
X12340357Y-15280262D02*
X12340357Y-15385024D01*
X12730833Y-15175500D02*
X12559405Y-15432643D01*
X12987976Y-15185024D02*
X13007024Y-15185024D01*
X13007024Y-15185024D02*
X13026072Y-15194548D01*
X13026072Y-15194548D02*
X13035595Y-15204071D01*
X13035595Y-15204071D02*
X13045119Y-15223119D01*
X13045119Y-15223119D02*
X13054643Y-15261214D01*
X13054643Y-15261214D02*
X13054643Y-15308833D01*
X13054643Y-15308833D02*
X13045119Y-15346928D01*
X13045119Y-15346928D02*
X13035595Y-15365976D01*
X13035595Y-15365976D02*
X13026072Y-15375500D01*
X13026072Y-15375500D02*
X13007024Y-15385024D01*
X13007024Y-15385024D02*
X12987976Y-15385024D01*
X12987976Y-15385024D02*
X12968929Y-15375500D01*
X12968929Y-15375500D02*
X12959405Y-15365976D01*
X12959405Y-15365976D02*
X12949881Y-15346928D01*
X12949881Y-15346928D02*
X12940357Y-15308833D01*
X12940357Y-15308833D02*
X12940357Y-15261214D01*
X12940357Y-15261214D02*
X12949881Y-15223119D01*
X12949881Y-15223119D02*
X12959405Y-15204071D01*
X12959405Y-15204071D02*
X12968929Y-15194548D01*
X12968929Y-15194548D02*
X12987976Y-15185024D01*
X13140357Y-15365976D02*
X13149881Y-15375500D01*
X13149881Y-15375500D02*
X13140357Y-15385024D01*
X13140357Y-15385024D02*
X13130833Y-15375500D01*
X13130833Y-15375500D02*
X13140357Y-15365976D01*
X13140357Y-15365976D02*
X13140357Y-15385024D01*
X13340357Y-15385024D02*
X13226072Y-15385024D01*
X13283214Y-15385024D02*
X13283214Y-15185024D01*
X13283214Y-15185024D02*
X13264167Y-15213595D01*
X13264167Y-15213595D02*
X13245119Y-15232643D01*
X13245119Y-15232643D02*
X13226072Y-15242167D01*
X13416548Y-15204071D02*
X13426072Y-15194548D01*
X13426072Y-15194548D02*
X13445119Y-15185024D01*
X13445119Y-15185024D02*
X13492738Y-15185024D01*
X13492738Y-15185024D02*
X13511786Y-15194548D01*
X13511786Y-15194548D02*
X13521310Y-15204071D01*
X13521310Y-15204071D02*
X13530833Y-15223119D01*
X13530833Y-15223119D02*
X13530833Y-15242167D01*
X13530833Y-15242167D02*
X13521310Y-15270738D01*
X13521310Y-15270738D02*
X13407024Y-15385024D01*
X13407024Y-15385024D02*
X13530833Y-15385024D01*
X13702262Y-15185024D02*
X13664167Y-15185024D01*
X13664167Y-15185024D02*
X13645119Y-15194548D01*
X13645119Y-15194548D02*
X13635595Y-15204071D01*
X13635595Y-15204071D02*
X13616548Y-15232643D01*
X13616548Y-15232643D02*
X13607024Y-15270738D01*
X13607024Y-15270738D02*
X13607024Y-15346928D01*
X13607024Y-15346928D02*
X13616548Y-15365976D01*
X13616548Y-15365976D02*
X13626072Y-15375500D01*
X13626072Y-15375500D02*
X13645119Y-15385024D01*
X13645119Y-15385024D02*
X13683214Y-15385024D01*
X13683214Y-15385024D02*
X13702262Y-15375500D01*
X13702262Y-15375500D02*
X13711786Y-15365976D01*
X13711786Y-15365976D02*
X13721310Y-15346928D01*
X13721310Y-15346928D02*
X13721310Y-15299309D01*
X13721310Y-15299309D02*
X13711786Y-15280262D01*
X13711786Y-15280262D02*
X13702262Y-15270738D01*
X13702262Y-15270738D02*
X13683214Y-15261214D01*
X13683214Y-15261214D02*
X13645119Y-15261214D01*
X13645119Y-15261214D02*
X13626072Y-15270738D01*
X13626072Y-15270738D02*
X13616548Y-15280262D01*
X13616548Y-15280262D02*
X13607024Y-15299309D01*
X13845119Y-15185024D02*
X13864167Y-15185024D01*
X13864167Y-15185024D02*
X13883214Y-15194548D01*
X13883214Y-15194548D02*
X13892738Y-15204071D01*
X13892738Y-15204071D02*
X13902262Y-15223119D01*
X13902262Y-15223119D02*
X13911786Y-15261214D01*
X13911786Y-15261214D02*
X13911786Y-15308833D01*
X13911786Y-15308833D02*
X13902262Y-15346928D01*
X13902262Y-15346928D02*
X13892738Y-15365976D01*
X13892738Y-15365976D02*
X13883214Y-15375500D01*
X13883214Y-15375500D02*
X13864167Y-15385024D01*
X13864167Y-15385024D02*
X13845119Y-15385024D01*
X13845119Y-15385024D02*
X13826072Y-15375500D01*
X13826072Y-15375500D02*
X13816548Y-15365976D01*
X13816548Y-15365976D02*
X13807024Y-15346928D01*
X13807024Y-15346928D02*
X13797500Y-15308833D01*
X13797500Y-15308833D02*
X13797500Y-15261214D01*
X13797500Y-15261214D02*
X13807024Y-15223119D01*
X13807024Y-15223119D02*
X13816548Y-15204071D01*
X13816548Y-15204071D02*
X13826072Y-15194548D01*
X13826072Y-15194548D02*
X13845119Y-15185024D01*
X13987976Y-15185024D02*
X13987976Y-15223119D01*
X14064167Y-15185024D02*
X14064167Y-15223119D01*
X14359405Y-15461214D02*
X14349881Y-15451690D01*
X14349881Y-15451690D02*
X14330834Y-15423119D01*
X14330834Y-15423119D02*
X14321310Y-15404071D01*
X14321310Y-15404071D02*
X14311786Y-15375500D01*
X14311786Y-15375500D02*
X14302262Y-15327881D01*
X14302262Y-15327881D02*
X14302262Y-15289786D01*
X14302262Y-15289786D02*
X14311786Y-15242167D01*
X14311786Y-15242167D02*
X14321310Y-15213595D01*
X14321310Y-15213595D02*
X14330834Y-15194548D01*
X14330834Y-15194548D02*
X14349881Y-15165976D01*
X14349881Y-15165976D02*
X14359405Y-15156452D01*
X14521310Y-15251690D02*
X14521310Y-15385024D01*
X14473691Y-15175500D02*
X14426072Y-15318357D01*
X14426072Y-15318357D02*
X14549881Y-15318357D01*
X14778453Y-15385024D02*
X14778453Y-15185024D01*
X14864167Y-15385024D02*
X14864167Y-15280262D01*
X14864167Y-15280262D02*
X14854643Y-15261214D01*
X14854643Y-15261214D02*
X14835596Y-15251690D01*
X14835596Y-15251690D02*
X14807024Y-15251690D01*
X14807024Y-15251690D02*
X14787976Y-15261214D01*
X14787976Y-15261214D02*
X14778453Y-15270738D01*
X14987976Y-15385024D02*
X14968929Y-15375500D01*
X14968929Y-15375500D02*
X14959405Y-15365976D01*
X14959405Y-15365976D02*
X14949881Y-15346928D01*
X14949881Y-15346928D02*
X14949881Y-15289786D01*
X14949881Y-15289786D02*
X14959405Y-15270738D01*
X14959405Y-15270738D02*
X14968929Y-15261214D01*
X14968929Y-15261214D02*
X14987976Y-15251690D01*
X14987976Y-15251690D02*
X15016548Y-15251690D01*
X15016548Y-15251690D02*
X15035596Y-15261214D01*
X15035596Y-15261214D02*
X15045119Y-15270738D01*
X15045119Y-15270738D02*
X15054643Y-15289786D01*
X15054643Y-15289786D02*
X15054643Y-15346928D01*
X15054643Y-15346928D02*
X15045119Y-15365976D01*
X15045119Y-15365976D02*
X15035596Y-15375500D01*
X15035596Y-15375500D02*
X15016548Y-15385024D01*
X15016548Y-15385024D02*
X14987976Y-15385024D01*
X15168929Y-15385024D02*
X15149881Y-15375500D01*
X15149881Y-15375500D02*
X15140357Y-15356452D01*
X15140357Y-15356452D02*
X15140357Y-15185024D01*
X15321310Y-15375500D02*
X15302262Y-15385024D01*
X15302262Y-15385024D02*
X15264167Y-15385024D01*
X15264167Y-15385024D02*
X15245119Y-15375500D01*
X15245119Y-15375500D02*
X15235596Y-15356452D01*
X15235596Y-15356452D02*
X15235596Y-15280262D01*
X15235596Y-15280262D02*
X15245119Y-15261214D01*
X15245119Y-15261214D02*
X15264167Y-15251690D01*
X15264167Y-15251690D02*
X15302262Y-15251690D01*
X15302262Y-15251690D02*
X15321310Y-15261214D01*
X15321310Y-15261214D02*
X15330834Y-15280262D01*
X15330834Y-15280262D02*
X15330834Y-15299309D01*
X15330834Y-15299309D02*
X15235596Y-15318357D01*
X15407024Y-15375500D02*
X15426072Y-15385024D01*
X15426072Y-15385024D02*
X15464167Y-15385024D01*
X15464167Y-15385024D02*
X15483215Y-15375500D01*
X15483215Y-15375500D02*
X15492738Y-15356452D01*
X15492738Y-15356452D02*
X15492738Y-15346928D01*
X15492738Y-15346928D02*
X15483215Y-15327881D01*
X15483215Y-15327881D02*
X15464167Y-15318357D01*
X15464167Y-15318357D02*
X15435596Y-15318357D01*
X15435596Y-15318357D02*
X15416548Y-15308833D01*
X15416548Y-15308833D02*
X15407024Y-15289786D01*
X15407024Y-15289786D02*
X15407024Y-15280262D01*
X15407024Y-15280262D02*
X15416548Y-15261214D01*
X15416548Y-15261214D02*
X15435596Y-15251690D01*
X15435596Y-15251690D02*
X15464167Y-15251690D01*
X15464167Y-15251690D02*
X15483215Y-15261214D01*
X15559405Y-15461214D02*
X15568929Y-15451690D01*
X15568929Y-15451690D02*
X15587977Y-15423119D01*
X15587977Y-15423119D02*
X15597500Y-15404071D01*
X15597500Y-15404071D02*
X15607024Y-15375500D01*
X15607024Y-15375500D02*
X15616548Y-15327881D01*
X15616548Y-15327881D02*
X15616548Y-15289786D01*
X15616548Y-15289786D02*
X15607024Y-15242167D01*
X15607024Y-15242167D02*
X15597500Y-15213595D01*
X15597500Y-15213595D02*
X15587977Y-15194548D01*
X15587977Y-15194548D02*
X15568929Y-15165976D01*
X15568929Y-15165976D02*
X15559405Y-15156452D01*
X15921310Y-15461214D02*
X15911786Y-15451690D01*
X15911786Y-15451690D02*
X15892738Y-15423119D01*
X15892738Y-15423119D02*
X15883215Y-15404071D01*
X15883215Y-15404071D02*
X15873691Y-15375500D01*
X15873691Y-15375500D02*
X15864167Y-15327881D01*
X15864167Y-15327881D02*
X15864167Y-15289786D01*
X15864167Y-15289786D02*
X15873691Y-15242167D01*
X15873691Y-15242167D02*
X15883215Y-15213595D01*
X15883215Y-15213595D02*
X15892738Y-15194548D01*
X15892738Y-15194548D02*
X15911786Y-15165976D01*
X15911786Y-15165976D02*
X15921310Y-15156452D01*
X15997500Y-15251690D02*
X15997500Y-15385024D01*
X15997500Y-15270738D02*
X16007024Y-15261214D01*
X16007024Y-15261214D02*
X16026072Y-15251690D01*
X16026072Y-15251690D02*
X16054643Y-15251690D01*
X16054643Y-15251690D02*
X16073691Y-15261214D01*
X16073691Y-15261214D02*
X16083215Y-15280262D01*
X16083215Y-15280262D02*
X16083215Y-15385024D01*
X16207024Y-15385024D02*
X16187977Y-15375500D01*
X16187977Y-15375500D02*
X16178453Y-15365976D01*
X16178453Y-15365976D02*
X16168929Y-15346928D01*
X16168929Y-15346928D02*
X16168929Y-15289786D01*
X16168929Y-15289786D02*
X16178453Y-15270738D01*
X16178453Y-15270738D02*
X16187977Y-15261214D01*
X16187977Y-15261214D02*
X16207024Y-15251690D01*
X16207024Y-15251690D02*
X16235596Y-15251690D01*
X16235596Y-15251690D02*
X16254643Y-15261214D01*
X16254643Y-15261214D02*
X16264167Y-15270738D01*
X16264167Y-15270738D02*
X16273691Y-15289786D01*
X16273691Y-15289786D02*
X16273691Y-15346928D01*
X16273691Y-15346928D02*
X16264167Y-15365976D01*
X16264167Y-15365976D02*
X16254643Y-15375500D01*
X16254643Y-15375500D02*
X16235596Y-15385024D01*
X16235596Y-15385024D02*
X16207024Y-15385024D01*
X16330834Y-15251690D02*
X16407024Y-15251690D01*
X16359405Y-15185024D02*
X16359405Y-15356452D01*
X16359405Y-15356452D02*
X16368929Y-15375500D01*
X16368929Y-15375500D02*
X16387977Y-15385024D01*
X16387977Y-15385024D02*
X16407024Y-15385024D01*
X16626072Y-15251690D02*
X16626072Y-15451690D01*
X16626072Y-15261214D02*
X16645119Y-15251690D01*
X16645119Y-15251690D02*
X16683215Y-15251690D01*
X16683215Y-15251690D02*
X16702262Y-15261214D01*
X16702262Y-15261214D02*
X16711786Y-15270738D01*
X16711786Y-15270738D02*
X16721310Y-15289786D01*
X16721310Y-15289786D02*
X16721310Y-15346928D01*
X16721310Y-15346928D02*
X16711786Y-15365976D01*
X16711786Y-15365976D02*
X16702262Y-15375500D01*
X16702262Y-15375500D02*
X16683215Y-15385024D01*
X16683215Y-15385024D02*
X16645119Y-15385024D01*
X16645119Y-15385024D02*
X16626072Y-15375500D01*
X16835596Y-15385024D02*
X16816548Y-15375500D01*
X16816548Y-15375500D02*
X16807024Y-15356452D01*
X16807024Y-15356452D02*
X16807024Y-15185024D01*
X16997501Y-15385024D02*
X16997501Y-15280262D01*
X16997501Y-15280262D02*
X16987977Y-15261214D01*
X16987977Y-15261214D02*
X16968929Y-15251690D01*
X16968929Y-15251690D02*
X16930834Y-15251690D01*
X16930834Y-15251690D02*
X16911786Y-15261214D01*
X16997501Y-15375500D02*
X16978453Y-15385024D01*
X16978453Y-15385024D02*
X16930834Y-15385024D01*
X16930834Y-15385024D02*
X16911786Y-15375500D01*
X16911786Y-15375500D02*
X16902262Y-15356452D01*
X16902262Y-15356452D02*
X16902262Y-15337405D01*
X16902262Y-15337405D02*
X16911786Y-15318357D01*
X16911786Y-15318357D02*
X16930834Y-15308833D01*
X16930834Y-15308833D02*
X16978453Y-15308833D01*
X16978453Y-15308833D02*
X16997501Y-15299309D01*
X17064167Y-15251690D02*
X17140358Y-15251690D01*
X17092739Y-15185024D02*
X17092739Y-15356452D01*
X17092739Y-15356452D02*
X17102262Y-15375500D01*
X17102262Y-15375500D02*
X17121310Y-15385024D01*
X17121310Y-15385024D02*
X17140358Y-15385024D01*
X17283215Y-15375500D02*
X17264167Y-15385024D01*
X17264167Y-15385024D02*
X17226072Y-15385024D01*
X17226072Y-15385024D02*
X17207024Y-15375500D01*
X17207024Y-15375500D02*
X17197501Y-15356452D01*
X17197501Y-15356452D02*
X17197501Y-15280262D01*
X17197501Y-15280262D02*
X17207024Y-15261214D01*
X17207024Y-15261214D02*
X17226072Y-15251690D01*
X17226072Y-15251690D02*
X17264167Y-15251690D01*
X17264167Y-15251690D02*
X17283215Y-15261214D01*
X17283215Y-15261214D02*
X17292739Y-15280262D01*
X17292739Y-15280262D02*
X17292739Y-15299309D01*
X17292739Y-15299309D02*
X17197501Y-15318357D01*
X17464167Y-15385024D02*
X17464167Y-15185024D01*
X17464167Y-15375500D02*
X17445120Y-15385024D01*
X17445120Y-15385024D02*
X17407024Y-15385024D01*
X17407024Y-15385024D02*
X17387977Y-15375500D01*
X17387977Y-15375500D02*
X17378453Y-15365976D01*
X17378453Y-15365976D02*
X17368929Y-15346928D01*
X17368929Y-15346928D02*
X17368929Y-15289786D01*
X17368929Y-15289786D02*
X17378453Y-15270738D01*
X17378453Y-15270738D02*
X17387977Y-15261214D01*
X17387977Y-15261214D02*
X17407024Y-15251690D01*
X17407024Y-15251690D02*
X17445120Y-15251690D01*
X17445120Y-15251690D02*
X17464167Y-15261214D01*
X17540358Y-15461214D02*
X17549882Y-15451690D01*
X17549882Y-15451690D02*
X17568929Y-15423119D01*
X17568929Y-15423119D02*
X17578453Y-15404071D01*
X17578453Y-15404071D02*
X17587977Y-15375500D01*
X17587977Y-15375500D02*
X17597501Y-15327881D01*
X17597501Y-15327881D02*
X17597501Y-15289786D01*
X17597501Y-15289786D02*
X17587977Y-15242167D01*
X17587977Y-15242167D02*
X17578453Y-15213595D01*
X17578453Y-15213595D02*
X17568929Y-15194548D01*
X17568929Y-15194548D02*
X17549882Y-15165976D01*
X17549882Y-15165976D02*
X17540358Y-15156452D01*
M02*
