%TF.GenerationSoftware,KiCad,Pcbnew,7.0.1-3b83917a11~172~ubuntu22.04.1*%
%TF.CreationDate,2023-03-24T23:57:15+01:00*%
%TF.ProjectId,door_if3_usb,646f6f72-5f69-4663-935f-7573622e6b69,rev?*%
%TF.SameCoordinates,Original*%
%TF.FileFunction,Legend,Bot*%
%TF.FilePolarity,Positive*%
%FSLAX46Y46*%
G04 Gerber Fmt 4.6, Leading zero omitted, Abs format (unit mm)*
G04 Created by KiCad (PCBNEW 7.0.1-3b83917a11~172~ubuntu22.04.1) date 2023-03-24 23:57:15*
%MOMM*%
%LPD*%
G01*
G04 APERTURE LIST*
G04 Aperture macros list*
%AMRoundRect*
0 Rectangle with rounded corners*
0 $1 Rounding radius*
0 $2 $3 $4 $5 $6 $7 $8 $9 X,Y pos of 4 corners*
0 Add a 4 corners polygon primitive as box body*
4,1,4,$2,$3,$4,$5,$6,$7,$8,$9,$2,$3,0*
0 Add four circle primitives for the rounded corners*
1,1,$1+$1,$2,$3*
1,1,$1+$1,$4,$5*
1,1,$1+$1,$6,$7*
1,1,$1+$1,$8,$9*
0 Add four rect primitives between the rounded corners*
20,1,$1+$1,$2,$3,$4,$5,0*
20,1,$1+$1,$4,$5,$6,$7,0*
20,1,$1+$1,$6,$7,$8,$9,0*
20,1,$1+$1,$8,$9,$2,$3,0*%
G04 Aperture macros list end*
%ADD10C,0.100000*%
%ADD11C,0.120000*%
%ADD12RoundRect,0.250000X-0.900000X1.500000X-0.900000X-1.500000X0.900000X-1.500000X0.900000X1.500000X0*%
%ADD13C,3.200000*%
%ADD14C,1.422400*%
%ADD15C,2.500000*%
%ADD16C,1.600000*%
%ADD17RoundRect,0.250000X0.900000X-1.500000X0.900000X1.500000X-0.900000X1.500000X-0.900000X-1.500000X0*%
%ADD18O,1.800000X1.800000*%
%ADD19O,1.500000X1.500000*%
G04 APERTURE END LIST*
D10*
%TO.C,D3*%
X118731309Y-100630952D02*
X118231309Y-100630952D01*
X118231309Y-100630952D02*
X118231309Y-100750000D01*
X118231309Y-100750000D02*
X118255119Y-100821428D01*
X118255119Y-100821428D02*
X118302738Y-100869047D01*
X118302738Y-100869047D02*
X118350357Y-100892857D01*
X118350357Y-100892857D02*
X118445595Y-100916666D01*
X118445595Y-100916666D02*
X118517023Y-100916666D01*
X118517023Y-100916666D02*
X118612261Y-100892857D01*
X118612261Y-100892857D02*
X118659880Y-100869047D01*
X118659880Y-100869047D02*
X118707500Y-100821428D01*
X118707500Y-100821428D02*
X118731309Y-100750000D01*
X118731309Y-100750000D02*
X118731309Y-100630952D01*
X118231309Y-101083333D02*
X118231309Y-101392857D01*
X118231309Y-101392857D02*
X118421785Y-101226190D01*
X118421785Y-101226190D02*
X118421785Y-101297619D01*
X118421785Y-101297619D02*
X118445595Y-101345238D01*
X118445595Y-101345238D02*
X118469404Y-101369047D01*
X118469404Y-101369047D02*
X118517023Y-101392857D01*
X118517023Y-101392857D02*
X118636071Y-101392857D01*
X118636071Y-101392857D02*
X118683690Y-101369047D01*
X118683690Y-101369047D02*
X118707500Y-101345238D01*
X118707500Y-101345238D02*
X118731309Y-101297619D01*
X118731309Y-101297619D02*
X118731309Y-101154762D01*
X118731309Y-101154762D02*
X118707500Y-101107143D01*
X118707500Y-101107143D02*
X118683690Y-101083333D01*
%TO.C,D5*%
X124231309Y-90380952D02*
X123731309Y-90380952D01*
X123731309Y-90380952D02*
X123731309Y-90500000D01*
X123731309Y-90500000D02*
X123755119Y-90571428D01*
X123755119Y-90571428D02*
X123802738Y-90619047D01*
X123802738Y-90619047D02*
X123850357Y-90642857D01*
X123850357Y-90642857D02*
X123945595Y-90666666D01*
X123945595Y-90666666D02*
X124017023Y-90666666D01*
X124017023Y-90666666D02*
X124112261Y-90642857D01*
X124112261Y-90642857D02*
X124159880Y-90619047D01*
X124159880Y-90619047D02*
X124207500Y-90571428D01*
X124207500Y-90571428D02*
X124231309Y-90500000D01*
X124231309Y-90500000D02*
X124231309Y-90380952D01*
X123731309Y-91119047D02*
X123731309Y-90880952D01*
X123731309Y-90880952D02*
X123969404Y-90857143D01*
X123969404Y-90857143D02*
X123945595Y-90880952D01*
X123945595Y-90880952D02*
X123921785Y-90928571D01*
X123921785Y-90928571D02*
X123921785Y-91047619D01*
X123921785Y-91047619D02*
X123945595Y-91095238D01*
X123945595Y-91095238D02*
X123969404Y-91119047D01*
X123969404Y-91119047D02*
X124017023Y-91142857D01*
X124017023Y-91142857D02*
X124136071Y-91142857D01*
X124136071Y-91142857D02*
X124183690Y-91119047D01*
X124183690Y-91119047D02*
X124207500Y-91095238D01*
X124207500Y-91095238D02*
X124231309Y-91047619D01*
X124231309Y-91047619D02*
X124231309Y-90928571D01*
X124231309Y-90928571D02*
X124207500Y-90880952D01*
X124207500Y-90880952D02*
X124183690Y-90857143D01*
D11*
%TO.C,D3*%
X119100000Y-96290000D02*
X123400000Y-96290000D01*
X119100000Y-96290000D02*
X119100000Y-103700000D01*
X123400000Y-96290000D02*
X123400000Y-103700000D01*
%TO.C,D5*%
X123400000Y-95460000D02*
X119100000Y-95460000D01*
X123400000Y-95460000D02*
X123400000Y-88050000D01*
X119100000Y-95460000D02*
X119100000Y-88050000D01*
%TD*%
%LPC*%
D12*
%TO.C,D3*%
X121250000Y-98300000D03*
X121250000Y-103700000D03*
%TD*%
D13*
%TO.C,H4*%
X173000000Y-133000000D03*
%TD*%
D14*
%TO.C,J2*%
X162540000Y-131000000D03*
X162540000Y-133540000D03*
X160000000Y-131000000D03*
X160000000Y-133540000D03*
X157460000Y-131000000D03*
X157460000Y-133540000D03*
X154920000Y-131000000D03*
X154920000Y-133540000D03*
X152380000Y-131000000D03*
X152380000Y-133540000D03*
%TD*%
D13*
%TO.C,H1*%
X124000000Y-69000000D03*
%TD*%
D15*
%TO.C,J3*%
X114000000Y-67000000D03*
X114000000Y-70810000D03*
X114000000Y-74620000D03*
X114000000Y-78430000D03*
X114000000Y-82240000D03*
X114000000Y-86050000D03*
X114000000Y-89860000D03*
X114000000Y-93670000D03*
D16*
X110825000Y-72715000D03*
X110825000Y-87955000D03*
X117175000Y-68905000D03*
X117175000Y-80335000D03*
X117175000Y-91765000D03*
%TD*%
D13*
%TO.C,H2*%
X124000000Y-133000000D03*
%TD*%
D15*
%TO.C,J1*%
X114000000Y-107330000D03*
X114000000Y-111140000D03*
X114000000Y-114950000D03*
X114000000Y-118760000D03*
X114000000Y-122570000D03*
X114000000Y-126380000D03*
X114000000Y-130190000D03*
X114000000Y-134000000D03*
D16*
X110825000Y-113045000D03*
X110825000Y-128285000D03*
X117175000Y-109235000D03*
X117175000Y-120665000D03*
X117175000Y-132095000D03*
%TD*%
D13*
%TO.C,H3*%
X173000000Y-68000000D03*
%TD*%
D17*
%TO.C,D5*%
X121250000Y-93450000D03*
X121250000Y-88050000D03*
%TD*%
D18*
%TO.C,U1*%
X158450000Y-65000000D03*
D19*
X158150000Y-68030000D03*
X153300000Y-68030000D03*
D18*
X153000000Y-65000000D03*
%TD*%
M02*
