%TF.GenerationSoftware,KiCad,Pcbnew,7.0.1-3b83917a11~172~ubuntu22.04.1*%
%TF.CreationDate,2023-03-24T23:57:15+01:00*%
%TF.ProjectId,door_if3_usb,646f6f72-5f69-4663-935f-7573622e6b69,rev?*%
%TF.SameCoordinates,Original*%
%TF.FileFunction,Copper,L2,Bot*%
%TF.FilePolarity,Positive*%
%FSLAX46Y46*%
G04 Gerber Fmt 4.6, Leading zero omitted, Abs format (unit mm)*
G04 Created by KiCad (PCBNEW 7.0.1-3b83917a11~172~ubuntu22.04.1) date 2023-03-24 23:57:15*
%MOMM*%
%LPD*%
G01*
G04 APERTURE LIST*
G04 Aperture macros list*
%AMRoundRect*
0 Rectangle with rounded corners*
0 $1 Rounding radius*
0 $2 $3 $4 $5 $6 $7 $8 $9 X,Y pos of 4 corners*
0 Add a 4 corners polygon primitive as box body*
4,1,4,$2,$3,$4,$5,$6,$7,$8,$9,$2,$3,0*
0 Add four circle primitives for the rounded corners*
1,1,$1+$1,$2,$3*
1,1,$1+$1,$4,$5*
1,1,$1+$1,$6,$7*
1,1,$1+$1,$8,$9*
0 Add four rect primitives between the rounded corners*
20,1,$1+$1,$2,$3,$4,$5,0*
20,1,$1+$1,$4,$5,$6,$7,0*
20,1,$1+$1,$6,$7,$8,$9,0*
20,1,$1+$1,$8,$9,$2,$3,0*%
G04 Aperture macros list end*
%TA.AperFunction,SMDPad,CuDef*%
%ADD10RoundRect,0.250000X-0.900000X1.500000X-0.900000X-1.500000X0.900000X-1.500000X0.900000X1.500000X0*%
%TD*%
%TA.AperFunction,ComponentPad*%
%ADD11C,1.422400*%
%TD*%
%TA.AperFunction,ComponentPad*%
%ADD12C,2.500000*%
%TD*%
%TA.AperFunction,SMDPad,CuDef*%
%ADD13RoundRect,0.250000X0.900000X-1.500000X0.900000X1.500000X-0.900000X1.500000X-0.900000X-1.500000X0*%
%TD*%
%TA.AperFunction,ViaPad*%
%ADD14C,1.000000*%
%TD*%
%TA.AperFunction,ViaPad*%
%ADD15C,0.600000*%
%TD*%
%TA.AperFunction,Conductor*%
%ADD16C,0.250000*%
%TD*%
%TA.AperFunction,Conductor*%
%ADD17C,1.000000*%
%TD*%
%TA.AperFunction,Conductor*%
%ADD18C,0.150000*%
%TD*%
G04 APERTURE END LIST*
D10*
%TO.P,D3,1,K*%
%TO.N,OUT1*%
X121250000Y-98300000D03*
%TO.P,D3,2,A*%
%TO.N,GNDA*%
X121250000Y-103700000D03*
%TD*%
D11*
%TO.P,J2,1,Pin_1*%
%TO.N,+3V3*%
X162540000Y-131000000D03*
%TO.P,J2,2,Pin_2*%
%TO.N,SPI_CS*%
X162540000Y-133540000D03*
%TO.P,J2,3,Pin_3*%
%TO.N,SPI_MOSI*%
X160000000Y-131000000D03*
%TO.P,J2,4,Pin_4*%
%TO.N,SPI_MISO*%
X160000000Y-133540000D03*
%TO.P,J2,5,Pin_5*%
%TO.N,SPI_CLK*%
X157460000Y-131000000D03*
%TO.P,J2,6,Pin_6*%
%TO.N,I2C_SCL*%
X157460000Y-133540000D03*
%TO.P,J2,7,Pin_7*%
%TO.N,I2C_SDA*%
X154920000Y-131000000D03*
%TO.P,J2,8,Pin_8*%
%TO.N,UART_RX*%
X154920000Y-133540000D03*
%TO.P,J2,9,Pin_9*%
%TO.N,UART_TX*%
X152380000Y-131000000D03*
%TO.P,J2,10,Pin_10*%
%TO.N,GND*%
X152380000Y-133540000D03*
%TD*%
D12*
%TO.P,J3,8,Pin_8*%
%TO.N,GNDA*%
X114000000Y-67000000D03*
%TO.P,J3,7,Pin_7*%
%TO.N,IN10*%
X114000000Y-70810000D03*
%TO.P,J3,6,Pin_6*%
%TO.N,IN9*%
X114000000Y-74620000D03*
%TO.P,J3,5,Pin_5*%
%TO.N,IN8*%
X114000000Y-78430000D03*
%TO.P,J3,4,Pin_4*%
%TO.N,IN7*%
X114000000Y-82240000D03*
%TO.P,J3,3,Pin_3*%
%TO.N,OUT2*%
X114000000Y-86050000D03*
%TO.P,J3,2,Pin_2*%
%TO.N,OUT1*%
X114000000Y-89860000D03*
%TO.P,J3,1,Pin_1*%
%TO.N,+24V*%
X114000000Y-93670000D03*
%TD*%
%TO.P,J1,8,Pin_8*%
%TO.N,GNDA*%
X114000000Y-107330000D03*
%TO.P,J1,7,Pin_7*%
%TO.N,IN6*%
X114000000Y-111140000D03*
%TO.P,J1,6,Pin_6*%
%TO.N,IN5*%
X114000000Y-114950000D03*
%TO.P,J1,5,Pin_5*%
%TO.N,IN4*%
X114000000Y-118760000D03*
%TO.P,J1,4,Pin_4*%
%TO.N,IN3*%
X114000000Y-122570000D03*
%TO.P,J1,3,Pin_3*%
%TO.N,IN2*%
X114000000Y-126380000D03*
%TO.P,J1,2,Pin_2*%
%TO.N,IN1*%
X114000000Y-130190000D03*
%TO.P,J1,1,Pin_1*%
%TO.N,+24V*%
X114000000Y-134000000D03*
%TD*%
D13*
%TO.P,D5,1,K*%
%TO.N,OUT2*%
X121250000Y-93450000D03*
%TO.P,D5,2,A*%
%TO.N,GNDA*%
X121250000Y-88050000D03*
%TD*%
D14*
%TO.N,GNDA*%
X133250000Y-99000000D03*
X133500000Y-90750000D03*
D15*
%TO.N,+24V*%
X124250000Y-85250000D03*
%TO.N,Net-(JP10-C)*%
X129750000Y-113250000D03*
X131500000Y-113250000D03*
%TO.N,+24V*%
X128000000Y-135000000D03*
X133750000Y-135000000D03*
X127750000Y-131500000D03*
X130750000Y-128500000D03*
X130750000Y-125250000D03*
X128750000Y-130500000D03*
%TO.N,GNDA*%
X130500000Y-122000000D03*
%TO.N,Net-(JP4-C)*%
X140250000Y-127500000D03*
X137000000Y-127250000D03*
%TO.N,Net-(R11-Pad1)*%
X137035146Y-128032812D03*
X139250000Y-128074500D03*
%TO.N,Net-(JP2-C)*%
X137250000Y-132000000D03*
X138500000Y-132000000D03*
D14*
%TO.N,+24V*%
X116750000Y-99250000D03*
X114250000Y-101500000D03*
%TO.N,OUT1*%
X123850000Y-97200000D03*
%TO.N,OUT2*%
X124250000Y-93850000D03*
D15*
%TO.N,GNDA*%
X133400000Y-132450000D03*
X123850000Y-124950000D03*
X130250000Y-114850000D03*
X123650000Y-117950000D03*
X123900000Y-110800000D03*
%TO.N,+3V3*%
X162900000Y-128700000D03*
X162793745Y-125825500D03*
%TO.N,SPI_MISO*%
X161400000Y-127474001D03*
X161400000Y-128900000D03*
%TO.N,SPI_CS*%
X165100000Y-127873502D03*
X165100000Y-129200000D03*
%TO.N,GND*%
X155600000Y-111500000D03*
X148300000Y-108000000D03*
X148300000Y-95300000D03*
X148400000Y-82600000D03*
X148400000Y-69900000D03*
X163100000Y-70000000D03*
X167900000Y-107500000D03*
X162900000Y-95400000D03*
%TO.N,+24V*%
X124800000Y-77500000D03*
X132400000Y-71300000D03*
X131500000Y-81200000D03*
%TO.N,GNDA*%
X130100000Y-101000000D03*
X124900000Y-106800000D03*
X138600000Y-98900000D03*
X138800000Y-91800000D03*
X138600000Y-90200000D03*
D14*
%TO.N,+24V*%
X128800000Y-86700000D03*
X124600000Y-86800000D03*
D15*
%TO.N,GNDA*%
X124300000Y-74300000D03*
X124200000Y-81100000D03*
X128600000Y-79000000D03*
X133500000Y-66500000D03*
%TO.N,Net-(JP24-C)*%
X128500000Y-68000000D03*
X130900000Y-80100000D03*
X130500000Y-68000000D03*
X127700000Y-71600000D03*
%TO.N,Net-(R25-Pad1)*%
X131100000Y-79100000D03*
X130025500Y-73148983D03*
%TO.N,GND*%
X144750000Y-136750000D03*
D14*
%TO.N,+3V3*%
X170300000Y-123900000D03*
X176200000Y-123800000D03*
D15*
%TO.N,S_IN10*%
X166200000Y-117000000D03*
X148600000Y-112700000D03*
X150600000Y-114600000D03*
X160000000Y-119200000D03*
%TO.N,S_IN9*%
X165000000Y-116900000D03*
X160500000Y-118500000D03*
X148700000Y-111200000D03*
X151200000Y-113800000D03*
%TO.N,S_IN8*%
X148900000Y-105700000D03*
X163000000Y-116200000D03*
X160400000Y-115700000D03*
X154900000Y-106700000D03*
%TO.N,S_IN7*%
X155000000Y-104700000D03*
X161000000Y-116900000D03*
X149900000Y-104600000D03*
X162700000Y-117100000D03*
%TO.N,S_IN6*%
X162400000Y-118225999D03*
X161259403Y-117890129D03*
X149800000Y-100400000D03*
X155200000Y-100300000D03*
%TO.N,S_IN5*%
X149800000Y-97900000D03*
X155200000Y-98000000D03*
%TO.N,S_IN4*%
X147100000Y-116400000D03*
X152587784Y-117274500D03*
%TO.N,S_IN3*%
X151800000Y-117900000D03*
X148500000Y-118500000D03*
%TO.N,S_IN2*%
X148900000Y-117700000D03*
X150500000Y-117925500D03*
%TO.N,GND*%
X146800000Y-117400000D03*
X144300000Y-117400000D03*
X141800000Y-117400000D03*
X139200000Y-117400000D03*
%TO.N,S_IN1*%
X149300000Y-85000000D03*
X152100000Y-85100000D03*
%TO.N,S_IN2*%
X149300000Y-87900000D03*
X151900000Y-87700000D03*
%TO.N,S_IN3*%
X152000000Y-90300000D03*
X149600000Y-90300000D03*
%TO.N,S_IN4*%
X152000000Y-92700000D03*
X149500000Y-92600000D03*
%TO.N,GND*%
X131500000Y-104250000D03*
X134044028Y-104474500D03*
X136500000Y-104274500D03*
X139000000Y-104500000D03*
X132500000Y-74500000D03*
X132500000Y-76750000D03*
X141250000Y-82250000D03*
X141250000Y-79750000D03*
%TO.N,S_OUT2*%
X143500000Y-79750000D03*
X143500000Y-77750000D03*
%TO.N,S_IN10*%
X149750000Y-81750000D03*
X151250000Y-81750000D03*
%TO.N,Net-(JP18-C)*%
X137000000Y-79250000D03*
X137500000Y-75000000D03*
%TO.N,Net-(R22-Pad1)*%
X136717178Y-75035171D03*
X136925500Y-78296297D03*
%TO.N,Net-(R19-Pad2)*%
X138500000Y-70500000D03*
%TO.N,Net-(R18-Pad2)*%
X137750000Y-68000000D03*
%TO.N,Net-(JP16-C)*%
X111250000Y-97750000D03*
X114000000Y-97750000D03*
%TO.N,Net-(R17-Pad1)*%
X111500000Y-96750000D03*
X113250000Y-96750000D03*
%TO.N,Net-(R16-Pad1)*%
X134250000Y-110250000D03*
X135478766Y-110021234D03*
%TO.N,Net-(JP14-C)*%
X119250000Y-83000000D03*
X121250000Y-82500000D03*
%TO.N,Net-(R19-Pad2)*%
X135000000Y-75500000D03*
%TO.N,Net-(R18-Pad2)*%
X134375000Y-72375000D03*
%TO.N,Net-(JP21-C)*%
X125250000Y-75000000D03*
X125250000Y-76500000D03*
%TD*%
D16*
%TO.N,+24V*%
X124250000Y-86450000D02*
X124600000Y-86800000D01*
X124250000Y-85250000D02*
X124250000Y-86450000D01*
%TO.N,Net-(JP10-C)*%
X129750000Y-113250000D02*
X131500000Y-113250000D01*
%TO.N,+24V*%
X133750000Y-135000000D02*
X128000000Y-135000000D01*
X130750000Y-125250000D02*
X130750000Y-128500000D01*
X128750000Y-130500000D02*
X127750000Y-131500000D01*
%TO.N,Net-(JP4-C)*%
X140250000Y-127500000D02*
X137250000Y-127500000D01*
%TO.N,Net-(R11-Pad1)*%
X137076834Y-128074500D02*
X137035146Y-128032812D01*
%TO.N,Net-(JP4-C)*%
X137250000Y-127500000D02*
X137000000Y-127250000D01*
%TO.N,Net-(R11-Pad1)*%
X139250000Y-128074500D02*
X137076834Y-128074500D01*
%TO.N,Net-(JP2-C)*%
X138500000Y-132000000D02*
X137250000Y-132000000D01*
D17*
%TO.N,+24V*%
X116500000Y-99250000D02*
X114250000Y-101500000D01*
X116750000Y-99250000D02*
X116500000Y-99250000D01*
%TO.N,OUT1*%
X123850000Y-97200000D02*
X122350000Y-97200000D01*
X122350000Y-97200000D02*
X121250000Y-98300000D01*
%TO.N,OUT2*%
X124250000Y-93850000D02*
X121650000Y-93850000D01*
X121650000Y-93850000D02*
X121250000Y-93450000D01*
D16*
%TO.N,+3V3*%
X162900000Y-125931755D02*
X162793745Y-125825500D01*
D18*
%TO.N,SPI_CS*%
X165100000Y-129200000D02*
X165100000Y-127873502D01*
%TO.N,SPI_MISO*%
X161400000Y-128900000D02*
X161400000Y-127474001D01*
D16*
%TO.N,+3V3*%
X162900000Y-128700000D02*
X162900000Y-125931755D01*
D17*
%TO.N,+24V*%
X128800000Y-86700000D02*
X125200000Y-86700000D01*
D16*
X125200000Y-77900000D02*
X125200000Y-86700000D01*
D17*
X125200000Y-86700000D02*
X124700000Y-86700000D01*
D16*
X124800000Y-77500000D02*
X125200000Y-77900000D01*
X132000000Y-78800000D02*
X130600000Y-77400000D01*
%TO.N,Net-(JP24-C)*%
X129470780Y-73370780D02*
X127700000Y-71600000D01*
%TO.N,+24V*%
X132000000Y-80700000D02*
X132000000Y-78800000D01*
%TO.N,Net-(R25-Pad1)*%
X131100000Y-79100000D02*
X130000000Y-78000000D01*
%TO.N,+24V*%
X130600000Y-73000000D02*
X131500000Y-72100000D01*
X130600000Y-77400000D02*
X130600000Y-74100000D01*
X130600000Y-74100000D02*
X130600000Y-73000000D01*
X132100000Y-72100000D02*
X132200000Y-72000000D01*
X132200000Y-71500000D02*
X132400000Y-71300000D01*
%TO.N,Net-(R25-Pad1)*%
X130000000Y-73200000D02*
X130025500Y-73174500D01*
%TO.N,Net-(JP24-C)*%
X129470780Y-78670780D02*
X129470780Y-73370780D01*
X130900000Y-80100000D02*
X129470780Y-78670780D01*
%TO.N,+24V*%
X132200000Y-72000000D02*
X132200000Y-71500000D01*
%TO.N,Net-(R25-Pad1)*%
X130000000Y-78000000D02*
X130000000Y-73200000D01*
%TO.N,+24V*%
X131500000Y-81200000D02*
X132000000Y-80700000D01*
%TO.N,Net-(R25-Pad1)*%
X130025500Y-73174500D02*
X130025500Y-73148983D01*
%TO.N,+24V*%
X131500000Y-72100000D02*
X132100000Y-72100000D01*
D17*
X124700000Y-86700000D02*
X124600000Y-86800000D01*
D16*
%TO.N,Net-(JP24-C)*%
X128500000Y-68000000D02*
X130500000Y-68000000D01*
D17*
%TO.N,+3V3*%
X170300000Y-123900000D02*
X176100000Y-123900000D01*
X176100000Y-123900000D02*
X176200000Y-123800000D01*
D16*
%TO.N,S_IN6*%
X162400000Y-118225999D02*
X162064130Y-117890129D01*
%TO.N,S_IN9*%
X163699501Y-118800499D02*
X165000000Y-117500000D01*
X160500000Y-118500000D02*
X160800499Y-118800499D01*
%TO.N,S_IN10*%
X164000000Y-119100000D02*
X166100000Y-117000000D01*
X160000000Y-119200000D02*
X163900000Y-119200000D01*
%TO.N,S_IN4*%
X147100000Y-116400000D02*
X151713284Y-116400000D01*
%TO.N,S_IN10*%
X163900000Y-119200000D02*
X164000000Y-119100000D01*
X148600000Y-112700000D02*
X150500000Y-114600000D01*
X166100000Y-117000000D02*
X166200000Y-117000000D01*
%TO.N,S_IN9*%
X160800499Y-118800499D02*
X163699501Y-118800499D01*
%TO.N,S_IN4*%
X151713284Y-116400000D02*
X152587784Y-117274500D01*
%TO.N,S_IN6*%
X162064130Y-117890129D02*
X161259403Y-117890129D01*
%TO.N,S_IN9*%
X165000000Y-117500000D02*
X165000000Y-116900000D01*
%TO.N,S_IN10*%
X150500000Y-114600000D02*
X150600000Y-114600000D01*
%TO.N,S_IN9*%
X151200000Y-113700000D02*
X151200000Y-113800000D01*
X148700000Y-111200000D02*
X151200000Y-113700000D01*
%TO.N,S_IN8*%
X162500000Y-115700000D02*
X163000000Y-116200000D01*
X153900000Y-105700000D02*
X154900000Y-106700000D01*
X160400000Y-115700000D02*
X162500000Y-115700000D01*
X148900000Y-105700000D02*
X153900000Y-105700000D01*
%TO.N,S_IN7*%
X149900000Y-104600000D02*
X154900000Y-104600000D01*
X161000000Y-116900000D02*
X162500000Y-116900000D01*
X162500000Y-116900000D02*
X162700000Y-117100000D01*
X154900000Y-104600000D02*
X155000000Y-104700000D01*
%TO.N,S_IN6*%
X155100000Y-100400000D02*
X155200000Y-100300000D01*
X149800000Y-100400000D02*
X155100000Y-100400000D01*
%TO.N,S_IN5*%
X149800000Y-97900000D02*
X155100000Y-97900000D01*
X155100000Y-97900000D02*
X155200000Y-98000000D01*
%TO.N,S_IN2*%
X148900000Y-117700000D02*
X150274500Y-117700000D01*
X150274500Y-117700000D02*
X150500000Y-117925500D01*
%TO.N,S_IN3*%
X148500000Y-118500000D02*
X151200000Y-118500000D01*
X151200000Y-118500000D02*
X151800000Y-117900000D01*
%TO.N,S_IN1*%
X152100000Y-85100000D02*
X149400000Y-85100000D01*
X149400000Y-85100000D02*
X149300000Y-85000000D01*
%TO.N,S_IN2*%
X149300000Y-87700000D02*
X149300000Y-87900000D01*
X151900000Y-87700000D02*
X149300000Y-87700000D01*
%TO.N,S_IN3*%
X152000000Y-90300000D02*
X149600000Y-90300000D01*
%TO.N,S_IN4*%
X149600000Y-92700000D02*
X149500000Y-92600000D01*
X152000000Y-92700000D02*
X149600000Y-92700000D01*
%TO.N,S_OUT2*%
X143500000Y-79750000D02*
X143500000Y-77750000D01*
%TO.N,S_IN10*%
X149750000Y-81750000D02*
X151250000Y-81750000D01*
%TO.N,Net-(JP18-C)*%
X137500000Y-75000000D02*
X137500000Y-78750000D01*
X137500000Y-78750000D02*
X137000000Y-79250000D01*
%TO.N,Net-(R22-Pad1)*%
X136717178Y-75035171D02*
X136717178Y-78087975D01*
X136717178Y-78087975D02*
X136925500Y-78296297D01*
%TO.N,Net-(R18-Pad2)*%
X137750000Y-71185020D02*
X137750000Y-68000000D01*
X136560020Y-72375000D02*
X137750000Y-71185020D01*
X134375000Y-72375000D02*
X136560020Y-72375000D01*
%TO.N,Net-(R19-Pad2)*%
X135000000Y-73500000D02*
X135500000Y-73000000D01*
X138250000Y-70750000D02*
X138500000Y-70500000D01*
X135000000Y-75500000D02*
X135000000Y-73500000D01*
X135500000Y-73000000D02*
X136500000Y-73000000D01*
X136500000Y-73000000D02*
X138250000Y-71250000D01*
X138250000Y-71250000D02*
X138250000Y-70750000D01*
%TO.N,Net-(JP16-C)*%
X111250000Y-97750000D02*
X114000000Y-97750000D01*
%TO.N,Net-(R17-Pad1)*%
X111500000Y-96750000D02*
X113250000Y-96750000D01*
%TO.N,Net-(R16-Pad1)*%
X134478766Y-110021234D02*
X135478766Y-110021234D01*
X134250000Y-110250000D02*
X134478766Y-110021234D01*
%TO.N,Net-(JP14-C)*%
X121250000Y-82500000D02*
X119750000Y-82500000D01*
X119750000Y-82500000D02*
X119250000Y-83000000D01*
%TO.N,Net-(JP21-C)*%
X125250000Y-76500000D02*
X125250000Y-75000000D01*
%TD*%
%TA.AperFunction,Conductor*%
%TO.N,GNDA*%
G36*
X135738000Y-63516613D02*
G01*
X135783387Y-63562000D01*
X135800000Y-63624000D01*
X135800000Y-68648638D01*
X135790561Y-68696091D01*
X135763681Y-68736319D01*
X133117813Y-71382186D01*
X133058648Y-71415181D01*
X132990973Y-71412159D01*
X132934984Y-71374022D01*
X132907394Y-71312152D01*
X132885165Y-71157542D01*
X132825376Y-71026625D01*
X132731129Y-70917858D01*
X132731128Y-70917857D01*
X132610053Y-70840047D01*
X132471961Y-70799500D01*
X132328039Y-70799500D01*
X132189947Y-70840047D01*
X132068870Y-70917858D01*
X131974623Y-71026625D01*
X131914834Y-71157542D01*
X131894352Y-71300002D01*
X131897269Y-71320291D01*
X131896292Y-71361393D01*
X131891790Y-71373467D01*
X131882852Y-71424148D01*
X131880512Y-71434704D01*
X131870735Y-71471192D01*
X131874028Y-71508820D01*
X131874500Y-71519628D01*
X131874500Y-71650500D01*
X131857887Y-71712500D01*
X131812500Y-71757887D01*
X131750500Y-71774500D01*
X131519619Y-71774500D01*
X131508812Y-71774028D01*
X131506298Y-71773808D01*
X131471191Y-71770736D01*
X131434710Y-71780511D01*
X131424155Y-71782852D01*
X131413223Y-71784780D01*
X131386955Y-71789412D01*
X131386953Y-71789412D01*
X131385897Y-71789599D01*
X131361192Y-71799832D01*
X131329378Y-71822107D01*
X131320261Y-71827915D01*
X131287545Y-71846804D01*
X131263262Y-71875743D01*
X131255956Y-71883715D01*
X130437150Y-72702522D01*
X130390025Y-72732021D01*
X130334748Y-72737964D01*
X130282431Y-72719156D01*
X130235553Y-72689030D01*
X130097461Y-72648483D01*
X129953539Y-72648483D01*
X129815447Y-72689030D01*
X129694371Y-72766840D01*
X129611118Y-72862920D01*
X129555161Y-72899829D01*
X129488171Y-72902222D01*
X129429724Y-72869398D01*
X128242440Y-71682114D01*
X128219237Y-71649937D01*
X128207383Y-71612079D01*
X128205646Y-71600002D01*
X128205647Y-71600000D01*
X128185165Y-71457543D01*
X128178275Y-71442457D01*
X128125376Y-71326625D01*
X128031129Y-71217858D01*
X128031128Y-71217857D01*
X127910053Y-71140047D01*
X127771961Y-71099500D01*
X127628039Y-71099500D01*
X127489947Y-71140047D01*
X127368870Y-71217858D01*
X127274623Y-71326625D01*
X127214834Y-71457542D01*
X127194353Y-71600000D01*
X127214834Y-71742457D01*
X127274623Y-71873374D01*
X127283584Y-71883715D01*
X127368872Y-71982143D01*
X127489947Y-72059953D01*
X127628039Y-72100500D01*
X127688812Y-72100500D01*
X127736265Y-72109939D01*
X127776493Y-72136819D01*
X129108961Y-73469287D01*
X129135841Y-73509515D01*
X129145280Y-73556968D01*
X129145280Y-78651152D01*
X129144808Y-78661960D01*
X129141515Y-78699587D01*
X129151292Y-78736076D01*
X129153633Y-78746632D01*
X129160379Y-78784887D01*
X129170609Y-78809583D01*
X129171226Y-78810464D01*
X129192892Y-78841407D01*
X129198695Y-78850516D01*
X129217586Y-78883235D01*
X129246522Y-78907515D01*
X129254498Y-78914824D01*
X130357559Y-80017886D01*
X130380762Y-80050063D01*
X130392616Y-80087920D01*
X130414834Y-80242457D01*
X130474623Y-80373374D01*
X130568870Y-80482141D01*
X130568872Y-80482143D01*
X130689947Y-80559953D01*
X130828039Y-80600500D01*
X130971961Y-80600500D01*
X131110053Y-80559953D01*
X131231128Y-80482143D01*
X131325377Y-80373373D01*
X131385165Y-80242457D01*
X131405647Y-80100000D01*
X131385165Y-79957543D01*
X131325377Y-79826627D01*
X131325376Y-79826626D01*
X131325376Y-79826625D01*
X131264416Y-79756273D01*
X131236962Y-79701427D01*
X131239153Y-79640133D01*
X131270451Y-79587386D01*
X131296543Y-79571906D01*
X131295055Y-79569591D01*
X131310051Y-79559953D01*
X131310053Y-79559953D01*
X131431128Y-79482143D01*
X131435908Y-79476627D01*
X131456787Y-79452532D01*
X131505512Y-79418183D01*
X131564635Y-79410542D01*
X131620491Y-79431375D01*
X131660170Y-79475867D01*
X131674500Y-79533734D01*
X131674500Y-80513812D01*
X131665061Y-80561265D01*
X131638181Y-80601493D01*
X131576493Y-80663181D01*
X131536265Y-80690061D01*
X131488812Y-80699500D01*
X131428039Y-80699500D01*
X131289947Y-80740047D01*
X131168870Y-80817858D01*
X131074623Y-80926625D01*
X131014834Y-81057542D01*
X130994353Y-81200000D01*
X131014834Y-81342457D01*
X131074623Y-81473374D01*
X131138656Y-81547272D01*
X131168872Y-81582143D01*
X131289947Y-81659953D01*
X131428039Y-81700500D01*
X131571961Y-81700500D01*
X131710053Y-81659953D01*
X131831128Y-81582143D01*
X131925377Y-81473373D01*
X131985165Y-81342457D01*
X132005647Y-81200000D01*
X132005646Y-81199996D01*
X132007383Y-81187919D01*
X132019237Y-81150061D01*
X132042437Y-81117887D01*
X132216290Y-80944034D01*
X132224258Y-80936734D01*
X132253192Y-80912457D01*
X132253192Y-80912456D01*
X132253194Y-80912455D01*
X132272091Y-80879722D01*
X132277887Y-80870625D01*
X132299554Y-80839684D01*
X132299554Y-80839682D01*
X132300173Y-80838799D01*
X132310399Y-80814112D01*
X132310586Y-80813047D01*
X132310588Y-80813045D01*
X132317149Y-80775830D01*
X132319478Y-80765324D01*
X132329264Y-80728807D01*
X132325971Y-80691176D01*
X132325500Y-80680370D01*
X132325500Y-78819627D01*
X132325972Y-78808819D01*
X132329264Y-78771192D01*
X132319487Y-78734706D01*
X132317145Y-78724143D01*
X132310400Y-78685891D01*
X132300171Y-78661198D01*
X132299554Y-78660317D01*
X132299554Y-78660316D01*
X132277892Y-78629379D01*
X132272080Y-78620256D01*
X132253194Y-78587544D01*
X132224255Y-78563262D01*
X132216280Y-78555954D01*
X131872007Y-78211681D01*
X131841757Y-78162318D01*
X131837215Y-78104602D01*
X131859370Y-78051115D01*
X131903393Y-78013515D01*
X131959688Y-78000000D01*
X136262809Y-78000000D01*
X136327911Y-78018464D01*
X136373624Y-78068358D01*
X136379012Y-78096531D01*
X136382255Y-78095663D01*
X136397690Y-78153271D01*
X136400031Y-78163827D01*
X136406777Y-78202082D01*
X136418082Y-78229373D01*
X136418912Y-78232470D01*
X136421877Y-78282212D01*
X136419852Y-78296294D01*
X136440334Y-78438754D01*
X136500123Y-78569671D01*
X136594370Y-78678439D01*
X136627260Y-78699576D01*
X136673015Y-78752380D01*
X136682959Y-78821538D01*
X136653935Y-78885094D01*
X136574622Y-78976627D01*
X136514834Y-79107542D01*
X136494353Y-79250000D01*
X136514834Y-79392457D01*
X136574623Y-79523374D01*
X136641453Y-79600500D01*
X136668872Y-79632143D01*
X136789947Y-79709953D01*
X136928039Y-79750500D01*
X137071961Y-79750500D01*
X137210053Y-79709953D01*
X137331128Y-79632143D01*
X137425377Y-79523373D01*
X137485165Y-79392457D01*
X137505647Y-79250000D01*
X137505646Y-79249996D01*
X137507383Y-79237919D01*
X137519237Y-79200061D01*
X137542437Y-79167887D01*
X137716290Y-78994034D01*
X137724258Y-78986734D01*
X137753192Y-78962457D01*
X137753192Y-78962456D01*
X137753194Y-78962455D01*
X137772091Y-78929722D01*
X137777887Y-78920625D01*
X137799554Y-78889684D01*
X137799554Y-78889682D01*
X137800173Y-78888799D01*
X137810399Y-78864112D01*
X137810586Y-78863047D01*
X137810588Y-78863045D01*
X137817149Y-78825830D01*
X137819478Y-78815324D01*
X137829264Y-78778807D01*
X137825971Y-78741176D01*
X137825500Y-78730370D01*
X137825500Y-75434888D01*
X137833318Y-75391555D01*
X137855787Y-75353686D01*
X137925376Y-75273374D01*
X137925375Y-75273374D01*
X137925377Y-75273373D01*
X137985165Y-75142457D01*
X138005647Y-75000000D01*
X137988109Y-74878023D01*
X137985165Y-74857542D01*
X137925376Y-74726625D01*
X137831129Y-74617858D01*
X137831128Y-74617857D01*
X137710053Y-74540047D01*
X137710051Y-74540046D01*
X137695055Y-74530409D01*
X137695834Y-74529195D01*
X137662949Y-74509286D01*
X137632031Y-74453850D01*
X137632597Y-74390377D01*
X137664496Y-74335503D01*
X139963680Y-72036319D01*
X140003909Y-72009439D01*
X140051362Y-72000000D01*
X140876000Y-72000000D01*
X140938000Y-72016613D01*
X140983387Y-72062000D01*
X141000000Y-72124000D01*
X141000000Y-76876000D01*
X140983387Y-76938000D01*
X140938000Y-76983387D01*
X140876000Y-77000000D01*
X138500000Y-77000000D01*
X138500000Y-83500000D01*
X141376000Y-83500000D01*
X141438000Y-83516613D01*
X141483387Y-83562000D01*
X141500000Y-83624000D01*
X141500000Y-101876000D01*
X141483387Y-101938000D01*
X141438000Y-101983387D01*
X141376000Y-102000000D01*
X128000000Y-102000000D01*
X128000000Y-108000000D01*
X139876000Y-108000000D01*
X139938000Y-108016613D01*
X139983387Y-108062000D01*
X140000000Y-108124000D01*
X140000000Y-114876000D01*
X139983387Y-114938000D01*
X139938000Y-114983387D01*
X139876000Y-115000000D01*
X136000000Y-115000000D01*
X136000000Y-122500000D01*
X147876000Y-122500000D01*
X147938000Y-122516613D01*
X147983387Y-122562000D01*
X148000000Y-122624000D01*
X148000000Y-132176000D01*
X147983387Y-132238000D01*
X147938000Y-132283387D01*
X147876000Y-132300000D01*
X139900000Y-132300000D01*
X139900000Y-137376000D01*
X139883387Y-137438000D01*
X139838000Y-137483387D01*
X139776000Y-137500000D01*
X108624000Y-137500000D01*
X108562000Y-137483387D01*
X108516613Y-137438000D01*
X108500000Y-137376000D01*
X108500000Y-133999999D01*
X112544528Y-133999999D01*
X112564379Y-134239558D01*
X112564379Y-134239561D01*
X112564380Y-134239563D01*
X112623390Y-134472591D01*
X112719951Y-134692728D01*
X112851429Y-134893969D01*
X113014236Y-135070825D01*
X113014239Y-135070827D01*
X113203927Y-135218468D01*
X113203929Y-135218469D01*
X113203933Y-135218472D01*
X113415344Y-135332882D01*
X113642703Y-135410934D01*
X113879808Y-135450500D01*
X114120191Y-135450500D01*
X114120192Y-135450500D01*
X114357297Y-135410934D01*
X114584656Y-135332882D01*
X114796067Y-135218472D01*
X114985764Y-135070825D01*
X115050963Y-135000000D01*
X127494353Y-135000000D01*
X127514834Y-135142457D01*
X127574623Y-135273374D01*
X127656876Y-135368299D01*
X127668872Y-135382143D01*
X127789947Y-135459953D01*
X127928039Y-135500500D01*
X128071961Y-135500500D01*
X128210053Y-135459953D01*
X128331128Y-135382143D01*
X128343125Y-135368297D01*
X128385325Y-135336706D01*
X128436838Y-135325500D01*
X133313162Y-135325500D01*
X133364675Y-135336706D01*
X133406874Y-135368297D01*
X133418872Y-135382143D01*
X133539947Y-135459953D01*
X133678039Y-135500500D01*
X133821961Y-135500500D01*
X133960053Y-135459953D01*
X134081128Y-135382143D01*
X134175377Y-135273373D01*
X134235165Y-135142457D01*
X134255647Y-135000000D01*
X134235165Y-134857543D01*
X134175377Y-134726627D01*
X134175376Y-134726626D01*
X134175376Y-134726625D01*
X134081129Y-134617858D01*
X134081128Y-134617857D01*
X133960053Y-134540047D01*
X133821961Y-134499500D01*
X133678039Y-134499500D01*
X133539947Y-134540047D01*
X133418873Y-134617856D01*
X133418872Y-134617856D01*
X133418872Y-134617857D01*
X133406874Y-134631702D01*
X133364675Y-134663294D01*
X133313162Y-134674500D01*
X128436838Y-134674500D01*
X128385325Y-134663294D01*
X128343125Y-134631702D01*
X128331128Y-134617857D01*
X128210053Y-134540047D01*
X128071961Y-134499500D01*
X127928039Y-134499500D01*
X127789947Y-134540047D01*
X127668870Y-134617858D01*
X127574623Y-134726625D01*
X127514834Y-134857542D01*
X127494353Y-135000000D01*
X115050963Y-135000000D01*
X115148571Y-134893969D01*
X115280049Y-134692728D01*
X115376610Y-134472591D01*
X115435620Y-134239563D01*
X115455471Y-134000000D01*
X115435620Y-133760437D01*
X115376610Y-133527409D01*
X115280049Y-133307272D01*
X115148571Y-133106031D01*
X114985764Y-132929175D01*
X114964370Y-132912523D01*
X114796072Y-132781531D01*
X114796068Y-132781528D01*
X114796067Y-132781528D01*
X114584656Y-132667118D01*
X114584655Y-132667117D01*
X114584652Y-132667116D01*
X114357299Y-132589066D01*
X114199227Y-132562688D01*
X114120192Y-132549500D01*
X113879808Y-132549500D01*
X113820531Y-132559391D01*
X113642700Y-132589066D01*
X113415347Y-132667116D01*
X113203927Y-132781531D01*
X113014239Y-132929172D01*
X113014236Y-132929174D01*
X113014236Y-132929175D01*
X112851429Y-133106031D01*
X112719951Y-133307272D01*
X112719950Y-133307274D01*
X112623391Y-133527407D01*
X112564379Y-133760441D01*
X112544528Y-133999999D01*
X108500000Y-133999999D01*
X108500000Y-132094999D01*
X116119417Y-132094999D01*
X116139699Y-132300932D01*
X116139700Y-132300934D01*
X116199768Y-132498954D01*
X116297315Y-132681450D01*
X116348609Y-132743952D01*
X116428589Y-132841410D01*
X116508569Y-132907047D01*
X116588550Y-132972685D01*
X116771046Y-133070232D01*
X116969066Y-133130300D01*
X117123392Y-133145500D01*
X117226607Y-133145500D01*
X117226608Y-133145500D01*
X117380934Y-133130300D01*
X117578954Y-133070232D01*
X117583571Y-133067764D01*
X122145787Y-133067764D01*
X122175413Y-133337016D01*
X122243928Y-133599087D01*
X122349871Y-133848392D01*
X122490982Y-134079611D01*
X122580253Y-134186881D01*
X122664255Y-134287820D01*
X122865998Y-134468582D01*
X123091910Y-134618044D01*
X123188437Y-134663294D01*
X123337177Y-134733021D01*
X123596562Y-134811058D01*
X123596569Y-134811060D01*
X123864561Y-134850500D01*
X124067631Y-134850500D01*
X124067634Y-134850500D01*
X124270156Y-134835677D01*
X124270156Y-134835676D01*
X124534553Y-134776780D01*
X124787558Y-134680014D01*
X125023777Y-134547441D01*
X125238177Y-134381888D01*
X125426186Y-134186881D01*
X125583799Y-133966579D01*
X125707656Y-133725675D01*
X125795118Y-133469305D01*
X125844319Y-133202933D01*
X125854212Y-132932235D01*
X125824586Y-132662982D01*
X125756072Y-132400912D01*
X125650130Y-132151610D01*
X125557909Y-132000500D01*
X125509017Y-131920388D01*
X125335746Y-131712181D01*
X125230758Y-131618112D01*
X125134002Y-131531418D01*
X125086514Y-131500000D01*
X127244353Y-131500000D01*
X127264834Y-131642457D01*
X127324623Y-131773374D01*
X127397555Y-131857542D01*
X127418872Y-131882143D01*
X127539947Y-131959953D01*
X127678039Y-132000500D01*
X127821961Y-132000500D01*
X127823667Y-131999999D01*
X136744353Y-131999999D01*
X136764834Y-132142457D01*
X136824623Y-132273374D01*
X136906876Y-132368299D01*
X136918872Y-132382143D01*
X137039947Y-132459953D01*
X137178039Y-132500500D01*
X137321961Y-132500500D01*
X137460053Y-132459953D01*
X137581128Y-132382143D01*
X137593125Y-132368297D01*
X137635325Y-132336706D01*
X137686838Y-132325500D01*
X138063162Y-132325500D01*
X138114675Y-132336706D01*
X138156874Y-132368297D01*
X138168872Y-132382143D01*
X138289947Y-132459953D01*
X138428039Y-132500500D01*
X138571961Y-132500500D01*
X138710053Y-132459953D01*
X138831128Y-132382143D01*
X138925377Y-132273373D01*
X138985165Y-132142457D01*
X139005647Y-132000000D01*
X138985165Y-131857543D01*
X138964877Y-131813120D01*
X138925376Y-131726625D01*
X138831129Y-131617858D01*
X138831128Y-131617857D01*
X138710053Y-131540047D01*
X138571961Y-131499500D01*
X138428039Y-131499500D01*
X138289947Y-131540047D01*
X138168873Y-131617856D01*
X138168872Y-131617856D01*
X138168872Y-131617857D01*
X138156874Y-131631702D01*
X138114675Y-131663294D01*
X138063162Y-131674500D01*
X137686838Y-131674500D01*
X137635325Y-131663294D01*
X137593125Y-131631702D01*
X137581128Y-131617857D01*
X137460053Y-131540047D01*
X137321961Y-131499500D01*
X137178039Y-131499500D01*
X137039947Y-131540047D01*
X136918870Y-131617858D01*
X136824623Y-131726625D01*
X136764834Y-131857542D01*
X136744353Y-131999999D01*
X127823667Y-131999999D01*
X127960053Y-131959953D01*
X128081128Y-131882143D01*
X128175377Y-131773373D01*
X128235165Y-131642457D01*
X128255647Y-131500000D01*
X128255646Y-131499996D01*
X128257383Y-131487919D01*
X128269237Y-131450061D01*
X128292437Y-131417887D01*
X128673506Y-131036819D01*
X128713735Y-131009939D01*
X128761188Y-131000500D01*
X128821961Y-131000500D01*
X128960053Y-130959953D01*
X129081128Y-130882143D01*
X129175377Y-130773373D01*
X129235165Y-130642457D01*
X129255647Y-130500000D01*
X129235165Y-130357543D01*
X129175377Y-130226627D01*
X129175376Y-130226626D01*
X129175376Y-130226625D01*
X129081129Y-130117858D01*
X129081128Y-130117857D01*
X128960053Y-130040047D01*
X128821961Y-129999500D01*
X128678039Y-129999500D01*
X128539947Y-130040047D01*
X128418870Y-130117858D01*
X128324623Y-130226625D01*
X128264834Y-130357542D01*
X128242616Y-130512079D01*
X128230762Y-130549936D01*
X128207559Y-130582113D01*
X127826493Y-130963181D01*
X127786265Y-130990061D01*
X127738812Y-130999500D01*
X127678039Y-130999500D01*
X127539947Y-131040047D01*
X127418870Y-131117858D01*
X127324623Y-131226625D01*
X127264834Y-131357542D01*
X127244353Y-131500000D01*
X125086514Y-131500000D01*
X124908090Y-131381956D01*
X124908086Y-131381954D01*
X124662822Y-131266978D01*
X124403437Y-131188941D01*
X124403431Y-131188940D01*
X124135439Y-131149500D01*
X123932369Y-131149500D01*
X123932366Y-131149500D01*
X123729843Y-131164322D01*
X123465449Y-131223219D01*
X123212441Y-131319986D01*
X122976223Y-131452559D01*
X122761825Y-131618109D01*
X122573813Y-131813120D01*
X122416201Y-132033420D01*
X122355436Y-132151610D01*
X122292834Y-132273373D01*
X122292342Y-132274329D01*
X122204881Y-132530695D01*
X122155680Y-132797066D01*
X122145787Y-133067764D01*
X117583571Y-133067764D01*
X117761450Y-132972685D01*
X117921410Y-132841410D01*
X118052685Y-132681450D01*
X118150232Y-132498954D01*
X118210300Y-132300934D01*
X118230583Y-132095000D01*
X118210300Y-131889066D01*
X118150232Y-131691046D01*
X118052685Y-131508550D01*
X117970554Y-131408472D01*
X117921410Y-131348589D01*
X117814467Y-131260825D01*
X117761450Y-131217315D01*
X117578954Y-131119768D01*
X117460939Y-131083969D01*
X117380932Y-131059699D01*
X117243467Y-131046160D01*
X117226608Y-131044500D01*
X117123392Y-131044500D01*
X117108192Y-131045996D01*
X116969067Y-131059699D01*
X116771043Y-131119769D01*
X116588551Y-131217314D01*
X116428589Y-131348589D01*
X116297314Y-131508551D01*
X116199769Y-131691043D01*
X116139699Y-131889067D01*
X116119417Y-132094999D01*
X108500000Y-132094999D01*
X108500000Y-130190000D01*
X112544528Y-130190000D01*
X112564379Y-130429558D01*
X112564379Y-130429561D01*
X112564380Y-130429563D01*
X112623390Y-130662591D01*
X112719951Y-130882728D01*
X112851429Y-131083969D01*
X113014236Y-131260825D01*
X113022144Y-131266980D01*
X113203927Y-131408468D01*
X113203929Y-131408469D01*
X113203933Y-131408472D01*
X113415344Y-131522882D01*
X113642703Y-131600934D01*
X113879808Y-131640500D01*
X114120191Y-131640500D01*
X114120192Y-131640500D01*
X114357297Y-131600934D01*
X114584656Y-131522882D01*
X114796067Y-131408472D01*
X114985764Y-131260825D01*
X115148571Y-131083969D01*
X115280049Y-130882728D01*
X115376610Y-130662591D01*
X115435620Y-130429563D01*
X115455471Y-130190000D01*
X115435620Y-129950437D01*
X115376610Y-129717409D01*
X115280049Y-129497272D01*
X115148571Y-129296031D01*
X114985764Y-129119175D01*
X114964370Y-129102523D01*
X114796072Y-128971531D01*
X114796068Y-128971528D01*
X114796067Y-128971528D01*
X114584656Y-128857118D01*
X114584655Y-128857117D01*
X114584652Y-128857116D01*
X114357299Y-128779066D01*
X114199226Y-128752688D01*
X114120192Y-128739500D01*
X113879808Y-128739500D01*
X113820531Y-128749391D01*
X113642700Y-128779066D01*
X113415347Y-128857116D01*
X113203927Y-128971531D01*
X113014239Y-129119172D01*
X113014236Y-129119174D01*
X113014236Y-129119175D01*
X112851429Y-129296031D01*
X112719951Y-129497272D01*
X112719950Y-129497274D01*
X112623391Y-129717407D01*
X112564379Y-129950441D01*
X112544528Y-130190000D01*
X108500000Y-130190000D01*
X108500000Y-128285000D01*
X109769417Y-128285000D01*
X109789699Y-128490932D01*
X109792450Y-128500000D01*
X109849768Y-128688954D01*
X109947315Y-128871450D01*
X109998609Y-128933952D01*
X110078589Y-129031410D01*
X110158570Y-129097047D01*
X110238550Y-129162685D01*
X110421046Y-129260232D01*
X110619066Y-129320300D01*
X110773392Y-129335500D01*
X110876607Y-129335500D01*
X110876608Y-129335500D01*
X111030934Y-129320300D01*
X111228954Y-129260232D01*
X111411450Y-129162685D01*
X111571410Y-129031410D01*
X111702685Y-128871450D01*
X111800232Y-128688954D01*
X111857550Y-128499999D01*
X130244353Y-128499999D01*
X130264834Y-128642457D01*
X130324623Y-128773374D01*
X130418870Y-128882141D01*
X130418872Y-128882143D01*
X130539947Y-128959953D01*
X130678039Y-129000500D01*
X130821961Y-129000500D01*
X130960053Y-128959953D01*
X131081128Y-128882143D01*
X131175377Y-128773373D01*
X131235165Y-128642457D01*
X131255647Y-128500000D01*
X131235165Y-128357543D01*
X131230749Y-128347874D01*
X131175376Y-128226625D01*
X131105787Y-128146314D01*
X131083318Y-128108445D01*
X131075500Y-128065112D01*
X131075500Y-127250000D01*
X136494353Y-127250000D01*
X136514834Y-127392457D01*
X136574623Y-127523374D01*
X136624109Y-127580484D01*
X136650900Y-127632451D01*
X136650901Y-127690917D01*
X136624112Y-127742886D01*
X136609768Y-127759440D01*
X136549980Y-127890354D01*
X136529499Y-128032812D01*
X136549980Y-128175269D01*
X136609769Y-128306186D01*
X136700769Y-128411206D01*
X136704018Y-128414955D01*
X136825093Y-128492765D01*
X136963185Y-128533312D01*
X137107107Y-128533312D01*
X137245199Y-128492765D01*
X137358915Y-128419683D01*
X137425954Y-128400000D01*
X138813162Y-128400000D01*
X138864675Y-128411206D01*
X138906874Y-128442797D01*
X138918872Y-128456643D01*
X139039947Y-128534453D01*
X139178039Y-128575000D01*
X139321961Y-128575000D01*
X139460053Y-128534453D01*
X139581128Y-128456643D01*
X139675377Y-128347873D01*
X139735165Y-128216957D01*
X139755647Y-128074500D01*
X139747198Y-128015738D01*
X139757141Y-127946582D01*
X139802896Y-127893778D01*
X139869935Y-127874093D01*
X139936974Y-127893776D01*
X140039947Y-127959953D01*
X140178039Y-128000500D01*
X140321961Y-128000500D01*
X140460053Y-127959953D01*
X140581128Y-127882143D01*
X140675377Y-127773373D01*
X140735165Y-127642457D01*
X140755647Y-127500000D01*
X140735165Y-127357543D01*
X140675377Y-127226627D01*
X140675376Y-127226626D01*
X140675376Y-127226625D01*
X140581129Y-127117858D01*
X140581128Y-127117857D01*
X140460053Y-127040047D01*
X140321961Y-126999500D01*
X140178039Y-126999500D01*
X140039947Y-127040047D01*
X139918873Y-127117856D01*
X139918872Y-127117856D01*
X139918872Y-127117857D01*
X139906874Y-127131702D01*
X139864675Y-127163294D01*
X139813162Y-127174500D01*
X137595433Y-127174500D01*
X137528394Y-127154816D01*
X137482639Y-127102012D01*
X137425376Y-126976625D01*
X137331129Y-126867858D01*
X137331128Y-126867857D01*
X137210053Y-126790047D01*
X137071961Y-126749500D01*
X136928039Y-126749500D01*
X136789947Y-126790047D01*
X136668870Y-126867858D01*
X136574623Y-126976625D01*
X136514834Y-127107542D01*
X136494353Y-127250000D01*
X131075500Y-127250000D01*
X131075500Y-125684888D01*
X131083318Y-125641555D01*
X131105787Y-125603686D01*
X131175376Y-125523374D01*
X131175375Y-125523374D01*
X131175377Y-125523373D01*
X131235165Y-125392457D01*
X131255647Y-125250000D01*
X131235165Y-125107543D01*
X131175377Y-124976627D01*
X131175376Y-124976626D01*
X131175376Y-124976625D01*
X131081129Y-124867858D01*
X131081128Y-124867857D01*
X130960053Y-124790047D01*
X130821961Y-124749500D01*
X130678039Y-124749500D01*
X130539947Y-124790047D01*
X130418870Y-124867858D01*
X130324623Y-124976625D01*
X130264834Y-125107542D01*
X130244353Y-125249999D01*
X130264834Y-125392457D01*
X130324623Y-125523374D01*
X130394213Y-125603686D01*
X130416682Y-125641555D01*
X130424500Y-125684888D01*
X130424500Y-128065112D01*
X130416682Y-128108445D01*
X130394213Y-128146314D01*
X130324623Y-128226625D01*
X130264834Y-128357542D01*
X130244353Y-128499999D01*
X111857550Y-128499999D01*
X111860300Y-128490934D01*
X111880583Y-128285000D01*
X111860300Y-128079066D01*
X111800232Y-127881046D01*
X111702685Y-127698550D01*
X111620554Y-127598472D01*
X111571410Y-127538589D01*
X111464467Y-127450825D01*
X111411450Y-127407315D01*
X111228954Y-127309768D01*
X111110939Y-127273969D01*
X111030932Y-127249699D01*
X110893467Y-127236160D01*
X110876608Y-127234500D01*
X110773392Y-127234500D01*
X110758192Y-127235996D01*
X110619067Y-127249699D01*
X110421043Y-127309769D01*
X110238551Y-127407314D01*
X110078589Y-127538589D01*
X109947314Y-127698551D01*
X109849769Y-127881043D01*
X109849768Y-127881045D01*
X109849768Y-127881046D01*
X109846944Y-127890355D01*
X109789699Y-128079067D01*
X109769417Y-128285000D01*
X108500000Y-128285000D01*
X108500000Y-126379999D01*
X112544528Y-126379999D01*
X112564379Y-126619558D01*
X112564379Y-126619561D01*
X112564380Y-126619563D01*
X112623390Y-126852591D01*
X112719951Y-127072728D01*
X112851429Y-127273969D01*
X113014236Y-127450825D01*
X113014239Y-127450827D01*
X113203927Y-127598468D01*
X113203929Y-127598469D01*
X113203933Y-127598472D01*
X113415344Y-127712882D01*
X113642703Y-127790934D01*
X113879808Y-127830500D01*
X114120191Y-127830500D01*
X114120192Y-127830500D01*
X114357297Y-127790934D01*
X114584656Y-127712882D01*
X114796067Y-127598472D01*
X114985764Y-127450825D01*
X115148571Y-127273969D01*
X115280049Y-127072728D01*
X115376610Y-126852591D01*
X115435620Y-126619563D01*
X115455471Y-126380000D01*
X115435620Y-126140437D01*
X115376610Y-125907409D01*
X115280049Y-125687272D01*
X115148571Y-125486031D01*
X114985764Y-125309175D01*
X114909735Y-125249999D01*
X114796072Y-125161531D01*
X114796068Y-125161528D01*
X114796067Y-125161528D01*
X114584656Y-125047118D01*
X114584655Y-125047117D01*
X114584652Y-125047116D01*
X114357299Y-124969066D01*
X114199227Y-124942688D01*
X114120192Y-124929500D01*
X113879808Y-124929500D01*
X113820531Y-124939391D01*
X113642700Y-124969066D01*
X113415347Y-125047116D01*
X113203927Y-125161531D01*
X113014239Y-125309172D01*
X113014236Y-125309174D01*
X113014236Y-125309175D01*
X112851429Y-125486031D01*
X112774561Y-125603686D01*
X112719950Y-125687274D01*
X112623391Y-125907407D01*
X112564379Y-126140441D01*
X112544528Y-126379999D01*
X108500000Y-126379999D01*
X108500000Y-122570000D01*
X112544528Y-122570000D01*
X112564379Y-122809558D01*
X112564379Y-122809561D01*
X112564380Y-122809563D01*
X112623390Y-123042591D01*
X112719951Y-123262728D01*
X112851429Y-123463969D01*
X113014236Y-123640825D01*
X113014239Y-123640827D01*
X113203927Y-123788468D01*
X113203929Y-123788469D01*
X113203933Y-123788472D01*
X113415344Y-123902882D01*
X113642703Y-123980934D01*
X113879808Y-124020500D01*
X114120191Y-124020500D01*
X114120192Y-124020500D01*
X114357297Y-123980934D01*
X114584656Y-123902882D01*
X114796067Y-123788472D01*
X114985764Y-123640825D01*
X115148571Y-123463969D01*
X115280049Y-123262728D01*
X115376610Y-123042591D01*
X115435620Y-122809563D01*
X115455471Y-122570000D01*
X115435620Y-122330437D01*
X115376610Y-122097409D01*
X115280049Y-121877272D01*
X115148571Y-121676031D01*
X114985764Y-121499175D01*
X114964370Y-121482523D01*
X114796072Y-121351531D01*
X114796068Y-121351528D01*
X114796067Y-121351528D01*
X114584656Y-121237118D01*
X114584655Y-121237117D01*
X114584652Y-121237116D01*
X114357299Y-121159066D01*
X114199227Y-121132688D01*
X114120192Y-121119500D01*
X113879808Y-121119500D01*
X113820531Y-121129391D01*
X113642700Y-121159066D01*
X113415347Y-121237116D01*
X113203927Y-121351531D01*
X113014239Y-121499172D01*
X113014236Y-121499174D01*
X113014236Y-121499175D01*
X112851429Y-121676031D01*
X112719951Y-121877272D01*
X112719950Y-121877274D01*
X112623391Y-122097407D01*
X112564379Y-122330441D01*
X112544528Y-122570000D01*
X108500000Y-122570000D01*
X108500000Y-120664999D01*
X116119417Y-120664999D01*
X116139699Y-120870932D01*
X116139700Y-120870934D01*
X116199768Y-121068954D01*
X116297315Y-121251450D01*
X116348608Y-121313952D01*
X116428589Y-121411410D01*
X116508569Y-121477047D01*
X116588550Y-121542685D01*
X116771046Y-121640232D01*
X116969066Y-121700300D01*
X117123392Y-121715500D01*
X117226607Y-121715500D01*
X117226608Y-121715500D01*
X117380934Y-121700300D01*
X117578954Y-121640232D01*
X117761450Y-121542685D01*
X117921410Y-121411410D01*
X118052685Y-121251450D01*
X118150232Y-121068954D01*
X118210300Y-120870934D01*
X118230583Y-120665000D01*
X118210300Y-120459066D01*
X118150232Y-120261046D01*
X118052685Y-120078550D01*
X117970554Y-119978472D01*
X117921410Y-119918589D01*
X117814467Y-119830825D01*
X117761450Y-119787315D01*
X117578954Y-119689768D01*
X117460939Y-119653969D01*
X117380932Y-119629699D01*
X117243467Y-119616160D01*
X117226608Y-119614500D01*
X117123392Y-119614500D01*
X117108193Y-119615996D01*
X116969067Y-119629699D01*
X116771043Y-119689769D01*
X116588551Y-119787314D01*
X116428589Y-119918589D01*
X116297314Y-120078551D01*
X116199769Y-120261043D01*
X116139699Y-120459067D01*
X116119417Y-120664999D01*
X108500000Y-120664999D01*
X108500000Y-118759999D01*
X112544528Y-118759999D01*
X112564379Y-118999558D01*
X112564379Y-118999561D01*
X112564380Y-118999563D01*
X112623390Y-119232591D01*
X112719951Y-119452728D01*
X112851429Y-119653969D01*
X113014236Y-119830825D01*
X113014239Y-119830827D01*
X113203927Y-119978468D01*
X113203929Y-119978469D01*
X113203933Y-119978472D01*
X113415344Y-120092882D01*
X113642703Y-120170934D01*
X113879808Y-120210500D01*
X114120191Y-120210500D01*
X114120192Y-120210500D01*
X114357297Y-120170934D01*
X114584656Y-120092882D01*
X114796067Y-119978472D01*
X114985764Y-119830825D01*
X115148571Y-119653969D01*
X115280049Y-119452728D01*
X115376610Y-119232591D01*
X115435620Y-118999563D01*
X115455471Y-118760000D01*
X115435620Y-118520437D01*
X115376610Y-118287409D01*
X115280049Y-118067272D01*
X115148571Y-117866031D01*
X114985764Y-117689175D01*
X114964370Y-117672523D01*
X114796072Y-117541531D01*
X114796068Y-117541528D01*
X114796067Y-117541528D01*
X114584656Y-117427118D01*
X114584655Y-117427117D01*
X114584652Y-117427116D01*
X114357299Y-117349066D01*
X114199226Y-117322688D01*
X114120192Y-117309500D01*
X113879808Y-117309500D01*
X113820531Y-117319391D01*
X113642700Y-117349066D01*
X113415347Y-117427116D01*
X113203927Y-117541531D01*
X113014239Y-117689172D01*
X113014236Y-117689174D01*
X113014236Y-117689175D01*
X112851429Y-117866031D01*
X112719951Y-118067272D01*
X112650052Y-118226627D01*
X112623391Y-118287407D01*
X112564379Y-118520441D01*
X112544528Y-118759999D01*
X108500000Y-118759999D01*
X108500000Y-114950000D01*
X112544528Y-114950000D01*
X112564379Y-115189558D01*
X112564379Y-115189561D01*
X112564380Y-115189563D01*
X112623390Y-115422591D01*
X112719951Y-115642728D01*
X112851429Y-115843969D01*
X113014236Y-116020825D01*
X113014239Y-116020827D01*
X113203927Y-116168468D01*
X113203929Y-116168469D01*
X113203933Y-116168472D01*
X113415344Y-116282882D01*
X113642703Y-116360934D01*
X113879808Y-116400500D01*
X114120191Y-116400500D01*
X114120192Y-116400500D01*
X114357297Y-116360934D01*
X114584656Y-116282882D01*
X114796067Y-116168472D01*
X114985764Y-116020825D01*
X115148571Y-115843969D01*
X115280049Y-115642728D01*
X115376610Y-115422591D01*
X115435620Y-115189563D01*
X115455471Y-114950000D01*
X115435620Y-114710437D01*
X115376610Y-114477409D01*
X115280049Y-114257272D01*
X115148571Y-114056031D01*
X114985764Y-113879175D01*
X114964370Y-113862523D01*
X114796072Y-113731531D01*
X114796068Y-113731528D01*
X114796067Y-113731528D01*
X114584656Y-113617118D01*
X114584655Y-113617117D01*
X114584652Y-113617116D01*
X114357299Y-113539066D01*
X114199227Y-113512688D01*
X114120192Y-113499500D01*
X113879808Y-113499500D01*
X113820531Y-113509391D01*
X113642700Y-113539066D01*
X113415347Y-113617116D01*
X113203927Y-113731531D01*
X113014239Y-113879172D01*
X113014236Y-113879174D01*
X113014236Y-113879175D01*
X112851429Y-114056031D01*
X112719951Y-114257272D01*
X112719950Y-114257274D01*
X112623391Y-114477407D01*
X112564379Y-114710441D01*
X112544528Y-114950000D01*
X108500000Y-114950000D01*
X108500000Y-113045000D01*
X109769417Y-113045000D01*
X109789699Y-113250932D01*
X109789700Y-113250934D01*
X109849768Y-113448954D01*
X109947315Y-113631450D01*
X109947884Y-113632143D01*
X110078589Y-113791410D01*
X110158570Y-113857047D01*
X110238550Y-113922685D01*
X110421046Y-114020232D01*
X110619066Y-114080300D01*
X110773392Y-114095500D01*
X110876607Y-114095500D01*
X110876608Y-114095500D01*
X111030934Y-114080300D01*
X111228954Y-114020232D01*
X111411450Y-113922685D01*
X111571410Y-113791410D01*
X111702685Y-113631450D01*
X111800232Y-113448954D01*
X111860300Y-113250934D01*
X111860392Y-113249999D01*
X129244353Y-113249999D01*
X129264834Y-113392457D01*
X129324623Y-113523374D01*
X129418870Y-113632141D01*
X129418872Y-113632143D01*
X129539947Y-113709953D01*
X129678039Y-113750500D01*
X129821961Y-113750500D01*
X129960053Y-113709953D01*
X130081128Y-113632143D01*
X130093125Y-113618297D01*
X130135325Y-113586706D01*
X130186838Y-113575500D01*
X131063162Y-113575500D01*
X131114675Y-113586706D01*
X131156874Y-113618297D01*
X131168872Y-113632143D01*
X131289947Y-113709953D01*
X131428039Y-113750500D01*
X131571961Y-113750500D01*
X131710053Y-113709953D01*
X131831128Y-113632143D01*
X131925377Y-113523373D01*
X131985165Y-113392457D01*
X132005647Y-113250000D01*
X131985165Y-113107543D01*
X131925377Y-112976627D01*
X131925376Y-112976626D01*
X131925376Y-112976625D01*
X131831129Y-112867858D01*
X131831128Y-112867857D01*
X131710053Y-112790047D01*
X131571961Y-112749500D01*
X131428039Y-112749500D01*
X131289947Y-112790047D01*
X131168873Y-112867856D01*
X131168872Y-112867856D01*
X131168872Y-112867857D01*
X131156874Y-112881702D01*
X131114675Y-112913294D01*
X131063162Y-112924500D01*
X130186838Y-112924500D01*
X130135325Y-112913294D01*
X130093125Y-112881702D01*
X130081128Y-112867857D01*
X129960053Y-112790047D01*
X129821961Y-112749500D01*
X129678039Y-112749500D01*
X129539947Y-112790047D01*
X129418870Y-112867858D01*
X129324623Y-112976625D01*
X129264834Y-113107542D01*
X129244353Y-113249999D01*
X111860392Y-113249999D01*
X111880583Y-113045000D01*
X111860300Y-112839066D01*
X111800232Y-112641046D01*
X111702685Y-112458550D01*
X111620554Y-112358472D01*
X111571410Y-112298589D01*
X111464467Y-112210825D01*
X111411450Y-112167315D01*
X111228954Y-112069768D01*
X111110939Y-112033969D01*
X111030932Y-112009699D01*
X110893467Y-111996160D01*
X110876608Y-111994500D01*
X110773392Y-111994500D01*
X110758192Y-111995996D01*
X110619067Y-112009699D01*
X110421043Y-112069769D01*
X110238551Y-112167314D01*
X110078589Y-112298589D01*
X109947314Y-112458551D01*
X109849769Y-112641043D01*
X109789699Y-112839067D01*
X109769417Y-113045000D01*
X108500000Y-113045000D01*
X108500000Y-111139999D01*
X112544528Y-111139999D01*
X112564379Y-111379558D01*
X112564379Y-111379561D01*
X112564380Y-111379563D01*
X112623390Y-111612591D01*
X112719951Y-111832728D01*
X112851429Y-112033969D01*
X113014236Y-112210825D01*
X113014239Y-112210827D01*
X113203927Y-112358468D01*
X113203929Y-112358469D01*
X113203933Y-112358472D01*
X113415344Y-112472882D01*
X113642703Y-112550934D01*
X113879808Y-112590500D01*
X114120191Y-112590500D01*
X114120192Y-112590500D01*
X114357297Y-112550934D01*
X114584656Y-112472882D01*
X114796067Y-112358472D01*
X114985764Y-112210825D01*
X115148571Y-112033969D01*
X115280049Y-111832728D01*
X115376610Y-111612591D01*
X115435620Y-111379563D01*
X115455471Y-111140000D01*
X115435620Y-110900437D01*
X115376610Y-110667409D01*
X115280049Y-110447272D01*
X115148571Y-110246031D01*
X114985764Y-110069175D01*
X114964370Y-110052523D01*
X114796072Y-109921531D01*
X114796068Y-109921528D01*
X114796067Y-109921528D01*
X114584656Y-109807118D01*
X114584655Y-109807117D01*
X114584652Y-109807116D01*
X114357299Y-109729066D01*
X114157550Y-109695734D01*
X114120192Y-109689500D01*
X113879808Y-109689500D01*
X113842450Y-109695734D01*
X113642700Y-109729066D01*
X113415347Y-109807116D01*
X113203927Y-109921531D01*
X113014239Y-110069172D01*
X113014236Y-110069174D01*
X113014236Y-110069175D01*
X112851429Y-110246031D01*
X112738277Y-110419222D01*
X112719950Y-110447274D01*
X112623391Y-110667407D01*
X112564379Y-110900441D01*
X112544528Y-111139999D01*
X108500000Y-111139999D01*
X108500000Y-109235000D01*
X116119417Y-109235000D01*
X116139699Y-109440932D01*
X116139700Y-109440934D01*
X116176206Y-109561281D01*
X116199769Y-109638956D01*
X116238187Y-109710831D01*
X116297315Y-109821450D01*
X116335400Y-109867857D01*
X116428589Y-109981410D01*
X116477116Y-110021234D01*
X116588550Y-110112685D01*
X116771046Y-110210232D01*
X116969066Y-110270300D01*
X117123392Y-110285500D01*
X117226607Y-110285500D01*
X117226608Y-110285500D01*
X117380934Y-110270300D01*
X117447858Y-110249999D01*
X133744353Y-110249999D01*
X133764834Y-110392457D01*
X133824623Y-110523374D01*
X133918870Y-110632141D01*
X133918872Y-110632143D01*
X134039947Y-110709953D01*
X134178039Y-110750500D01*
X134321961Y-110750500D01*
X134460053Y-110709953D01*
X134581128Y-110632143D01*
X134675377Y-110523373D01*
X134722941Y-110419222D01*
X134768697Y-110366418D01*
X134835736Y-110346734D01*
X135041928Y-110346734D01*
X135093441Y-110357940D01*
X135135640Y-110389531D01*
X135147638Y-110403377D01*
X135268713Y-110481187D01*
X135406805Y-110521734D01*
X135550727Y-110521734D01*
X135688819Y-110481187D01*
X135809894Y-110403377D01*
X135904143Y-110294607D01*
X135963931Y-110163691D01*
X135984413Y-110021234D01*
X135963931Y-109878777D01*
X135958944Y-109867858D01*
X135913674Y-109768731D01*
X135904143Y-109747861D01*
X135904142Y-109747860D01*
X135904142Y-109747859D01*
X135809895Y-109639092D01*
X135809894Y-109639091D01*
X135688819Y-109561281D01*
X135550727Y-109520734D01*
X135406805Y-109520734D01*
X135268713Y-109561281D01*
X135147639Y-109639090D01*
X135147638Y-109639090D01*
X135147638Y-109639091D01*
X135135640Y-109652936D01*
X135093441Y-109684528D01*
X135041928Y-109695734D01*
X134498394Y-109695734D01*
X134487586Y-109695262D01*
X134449958Y-109691969D01*
X134413470Y-109701746D01*
X134402914Y-109704086D01*
X134364665Y-109710831D01*
X134339958Y-109721065D01*
X134331375Y-109727076D01*
X134297540Y-109743761D01*
X134260254Y-109749500D01*
X134178039Y-109749500D01*
X134039947Y-109790047D01*
X133918870Y-109867858D01*
X133824623Y-109976625D01*
X133764834Y-110107542D01*
X133744353Y-110249999D01*
X117447858Y-110249999D01*
X117578954Y-110210232D01*
X117761450Y-110112685D01*
X117921410Y-109981410D01*
X118052685Y-109821450D01*
X118150232Y-109638954D01*
X118210300Y-109440934D01*
X118230583Y-109235000D01*
X118210300Y-109029066D01*
X118150232Y-108831046D01*
X118052685Y-108648550D01*
X117987047Y-108568569D01*
X117921410Y-108488589D01*
X117791703Y-108382143D01*
X117761450Y-108357315D01*
X117578954Y-108259768D01*
X117479943Y-108229733D01*
X117380932Y-108199699D01*
X117243467Y-108186160D01*
X117226608Y-108184500D01*
X117123392Y-108184500D01*
X117108192Y-108185996D01*
X116969067Y-108199699D01*
X116771043Y-108259769D01*
X116588551Y-108357314D01*
X116428589Y-108488589D01*
X116297314Y-108648551D01*
X116199769Y-108831043D01*
X116139699Y-109029067D01*
X116119417Y-109235000D01*
X108500000Y-109235000D01*
X108500000Y-108732720D01*
X112950831Y-108732720D01*
X113122546Y-108849793D01*
X113358860Y-108963596D01*
X113609496Y-109040908D01*
X113868856Y-109080000D01*
X114131144Y-109080000D01*
X114390503Y-109040908D01*
X114641139Y-108963596D01*
X114877456Y-108849792D01*
X115049167Y-108732720D01*
X114000001Y-107683553D01*
X114000000Y-107683553D01*
X112950831Y-108732720D01*
X108500000Y-108732720D01*
X108500000Y-107330000D01*
X112245092Y-107330000D01*
X112264693Y-107591552D01*
X112323059Y-107847270D01*
X112418882Y-108091424D01*
X112550027Y-108318573D01*
X112597873Y-108378571D01*
X112597874Y-108378571D01*
X113646446Y-107330001D01*
X114353553Y-107330001D01*
X115402124Y-108378571D01*
X115449972Y-108318572D01*
X115581117Y-108091423D01*
X115676940Y-107847270D01*
X115735306Y-107591552D01*
X115754907Y-107330000D01*
X115735306Y-107068447D01*
X115676940Y-106812729D01*
X115581117Y-106568575D01*
X115449972Y-106341426D01*
X115402125Y-106281427D01*
X114353553Y-107330000D01*
X114353553Y-107330001D01*
X113646446Y-107330001D01*
X113646446Y-107330000D01*
X112597873Y-106281427D01*
X112550028Y-106341424D01*
X112418882Y-106568576D01*
X112323059Y-106812729D01*
X112264693Y-107068447D01*
X112245092Y-107330000D01*
X108500000Y-107330000D01*
X108500000Y-105927278D01*
X112950832Y-105927278D01*
X114000000Y-106976446D01*
X114000001Y-106976446D01*
X115049167Y-105927278D01*
X114877451Y-105810205D01*
X114641139Y-105696403D01*
X114390503Y-105619091D01*
X114131144Y-105580000D01*
X113868856Y-105580000D01*
X113609496Y-105619091D01*
X113358860Y-105696403D01*
X113122545Y-105810206D01*
X112950832Y-105927278D01*
X108500000Y-105927278D01*
X108500000Y-103950000D01*
X119600001Y-103950000D01*
X119600001Y-105249979D01*
X119610493Y-105352695D01*
X119665642Y-105519122D01*
X119757683Y-105668345D01*
X119881654Y-105792316D01*
X120030877Y-105884357D01*
X120197303Y-105939506D01*
X120300021Y-105950000D01*
X121000000Y-105950000D01*
X121000000Y-103950000D01*
X121500000Y-103950000D01*
X121500000Y-105949999D01*
X122199979Y-105949999D01*
X122302695Y-105939506D01*
X122469122Y-105884357D01*
X122618345Y-105792316D01*
X122742316Y-105668345D01*
X122834357Y-105519122D01*
X122889506Y-105352696D01*
X122900000Y-105249979D01*
X122900000Y-103950000D01*
X121500000Y-103950000D01*
X121000000Y-103950000D01*
X119600001Y-103950000D01*
X108500000Y-103950000D01*
X108500000Y-103450000D01*
X119600000Y-103450000D01*
X121000000Y-103450000D01*
X121000000Y-101450001D01*
X120300021Y-101450001D01*
X120197304Y-101460493D01*
X120030877Y-101515642D01*
X119881654Y-101607683D01*
X119757683Y-101731654D01*
X119665642Y-101880877D01*
X119610493Y-102047303D01*
X119600000Y-102150021D01*
X119600000Y-103450000D01*
X108500000Y-103450000D01*
X108500000Y-101499997D01*
X113544354Y-101499997D01*
X113551603Y-101559702D01*
X113552281Y-101567158D01*
X113555913Y-101627198D01*
X113558927Y-101636868D01*
X113563638Y-101658809D01*
X113564860Y-101668874D01*
X113586189Y-101725118D01*
X113588631Y-101732194D01*
X113606522Y-101789607D01*
X113611762Y-101798275D01*
X113621586Y-101818450D01*
X113625182Y-101827931D01*
X113659348Y-101877430D01*
X113663414Y-101883717D01*
X113694529Y-101935186D01*
X113701692Y-101942349D01*
X113716060Y-101959589D01*
X113721817Y-101967929D01*
X113766846Y-102007821D01*
X113772282Y-102012939D01*
X113814815Y-102055472D01*
X113823489Y-102060715D01*
X113841560Y-102074011D01*
X113849148Y-102080734D01*
X113849150Y-102080735D01*
X113902386Y-102108676D01*
X113908909Y-102112355D01*
X113938267Y-102130102D01*
X113960394Y-102143478D01*
X113970064Y-102146491D01*
X113990795Y-102155076D01*
X113999775Y-102159790D01*
X114058185Y-102174186D01*
X114065374Y-102176190D01*
X114122804Y-102194086D01*
X114132916Y-102194697D01*
X114155104Y-102198074D01*
X114164944Y-102200500D01*
X114225079Y-102200500D01*
X114232566Y-102200726D01*
X114235706Y-102200915D01*
X114292606Y-102204358D01*
X114302575Y-102202531D01*
X114324927Y-102200500D01*
X114335057Y-102200500D01*
X114365967Y-102192880D01*
X114393451Y-102186106D01*
X114400756Y-102184538D01*
X114459932Y-102173695D01*
X114469170Y-102169536D01*
X114490392Y-102162214D01*
X114500222Y-102159791D01*
X114500222Y-102159790D01*
X114500225Y-102159790D01*
X114553494Y-102131830D01*
X114560159Y-102128584D01*
X114615057Y-102103878D01*
X114623031Y-102097629D01*
X114641892Y-102085436D01*
X114650850Y-102080735D01*
X114650849Y-102080735D01*
X114650852Y-102080734D01*
X114695889Y-102040833D01*
X114701601Y-102036073D01*
X114715367Y-102025290D01*
X114727745Y-102012911D01*
X114733147Y-102007825D01*
X114778183Y-101967929D01*
X114783944Y-101959581D01*
X114798303Y-101942352D01*
X115290655Y-101450000D01*
X121500000Y-101450000D01*
X121500000Y-103450000D01*
X122899999Y-103450000D01*
X122899999Y-102150021D01*
X122889506Y-102047304D01*
X122834357Y-101880877D01*
X122742316Y-101731654D01*
X122618345Y-101607683D01*
X122469122Y-101515642D01*
X122302696Y-101460493D01*
X122199979Y-101450000D01*
X121500000Y-101450000D01*
X115290655Y-101450000D01*
X116753836Y-99986819D01*
X116794065Y-99959939D01*
X116820571Y-99954666D01*
X116820433Y-99954104D01*
X116835053Y-99950500D01*
X116835056Y-99950500D01*
X116869238Y-99942074D01*
X116883936Y-99939381D01*
X116918872Y-99935140D01*
X116951772Y-99922662D01*
X116966050Y-99918212D01*
X117000225Y-99909790D01*
X117031382Y-99893436D01*
X117045023Y-99887297D01*
X117077930Y-99874818D01*
X117106895Y-99854823D01*
X117107811Y-99854269D01*
X119899500Y-99854269D01*
X119902353Y-99884696D01*
X119947207Y-100012884D01*
X120027849Y-100122150D01*
X120137115Y-100202792D01*
X120137118Y-100202793D01*
X120265301Y-100247646D01*
X120277474Y-100248787D01*
X120295731Y-100250500D01*
X120295734Y-100250500D01*
X122204266Y-100250500D01*
X122204269Y-100250500D01*
X122219482Y-100249072D01*
X122234699Y-100247646D01*
X122362882Y-100202793D01*
X122362882Y-100202792D01*
X122362884Y-100202792D01*
X122472150Y-100122150D01*
X122552792Y-100012884D01*
X122552793Y-100012882D01*
X122597646Y-99884699D01*
X122600500Y-99854266D01*
X122600500Y-98024500D01*
X122617113Y-97962500D01*
X122662500Y-97917113D01*
X122724500Y-97900500D01*
X123935053Y-97900500D01*
X123935056Y-97900500D01*
X123969238Y-97892074D01*
X123983936Y-97889381D01*
X124018872Y-97885140D01*
X124051772Y-97872662D01*
X124066050Y-97868212D01*
X124100225Y-97859790D01*
X124131382Y-97843436D01*
X124145023Y-97837297D01*
X124177930Y-97824818D01*
X124206895Y-97804823D01*
X124219697Y-97797084D01*
X124250852Y-97780734D01*
X124277185Y-97757405D01*
X124288962Y-97748176D01*
X124317929Y-97728183D01*
X124341264Y-97701841D01*
X124351841Y-97691264D01*
X124378183Y-97667929D01*
X124398176Y-97638962D01*
X124407405Y-97627185D01*
X124430732Y-97600854D01*
X124430731Y-97600854D01*
X124430734Y-97600852D01*
X124447084Y-97569697D01*
X124454823Y-97556895D01*
X124474818Y-97527930D01*
X124487297Y-97495023D01*
X124493436Y-97481382D01*
X124509790Y-97450225D01*
X124518212Y-97416050D01*
X124522664Y-97401767D01*
X124535140Y-97368872D01*
X124539381Y-97333936D01*
X124542074Y-97319238D01*
X124550500Y-97285056D01*
X124550500Y-97249874D01*
X124551404Y-97234927D01*
X124555645Y-97200000D01*
X124551404Y-97165073D01*
X124550500Y-97150126D01*
X124550500Y-97114944D01*
X124542078Y-97080779D01*
X124539380Y-97066053D01*
X124535140Y-97031128D01*
X124522665Y-96998233D01*
X124518210Y-96983937D01*
X124509790Y-96949776D01*
X124509790Y-96949775D01*
X124493433Y-96918610D01*
X124487297Y-96904975D01*
X124474818Y-96872070D01*
X124454829Y-96843112D01*
X124447082Y-96830297D01*
X124430734Y-96799148D01*
X124407394Y-96772802D01*
X124398178Y-96761038D01*
X124378183Y-96732071D01*
X124378181Y-96732068D01*
X124351847Y-96708739D01*
X124341263Y-96698156D01*
X124317929Y-96671817D01*
X124317925Y-96671814D01*
X124288965Y-96651823D01*
X124277180Y-96642590D01*
X124250851Y-96619265D01*
X124219705Y-96602918D01*
X124206891Y-96595172D01*
X124177929Y-96575181D01*
X124145026Y-96562702D01*
X124131377Y-96556559D01*
X124100227Y-96540211D01*
X124100226Y-96540210D01*
X124100225Y-96540210D01*
X124066048Y-96531785D01*
X124051776Y-96527338D01*
X124018872Y-96514860D01*
X124018867Y-96514858D01*
X123983942Y-96510617D01*
X123969220Y-96507919D01*
X123935059Y-96499500D01*
X123935056Y-96499500D01*
X123892372Y-96499500D01*
X122542288Y-96499500D01*
X122503529Y-96493287D01*
X122468654Y-96475270D01*
X122362882Y-96397207D01*
X122234696Y-96352353D01*
X122204269Y-96349500D01*
X122204266Y-96349500D01*
X120295734Y-96349500D01*
X120295731Y-96349500D01*
X120265303Y-96352353D01*
X120137115Y-96397207D01*
X120027849Y-96477849D01*
X119947207Y-96587115D01*
X119902353Y-96715303D01*
X119899500Y-96745731D01*
X119899500Y-99854269D01*
X117107811Y-99854269D01*
X117119697Y-99847084D01*
X117150852Y-99830734D01*
X117177185Y-99807405D01*
X117188962Y-99798176D01*
X117217929Y-99778183D01*
X117241264Y-99751841D01*
X117251841Y-99741264D01*
X117278183Y-99717929D01*
X117298176Y-99688962D01*
X117307405Y-99677185D01*
X117330732Y-99650854D01*
X117330731Y-99650854D01*
X117330734Y-99650852D01*
X117347084Y-99619697D01*
X117354823Y-99606895D01*
X117374818Y-99577930D01*
X117387297Y-99545023D01*
X117393436Y-99531382D01*
X117409790Y-99500225D01*
X117418212Y-99466050D01*
X117422664Y-99451767D01*
X117435140Y-99418872D01*
X117439381Y-99383936D01*
X117442074Y-99369238D01*
X117450500Y-99335056D01*
X117450500Y-99299874D01*
X117451404Y-99284927D01*
X117455645Y-99249999D01*
X117451404Y-99215073D01*
X117450500Y-99200126D01*
X117450500Y-99164944D01*
X117442080Y-99130786D01*
X117439380Y-99116053D01*
X117435140Y-99081128D01*
X117422665Y-99048233D01*
X117418210Y-99033937D01*
X117409790Y-98999776D01*
X117409790Y-98999775D01*
X117393433Y-98968610D01*
X117387297Y-98954975D01*
X117374818Y-98922070D01*
X117354829Y-98893112D01*
X117347082Y-98880297D01*
X117330734Y-98849148D01*
X117307394Y-98822802D01*
X117298178Y-98811038D01*
X117278183Y-98782071D01*
X117278181Y-98782068D01*
X117251847Y-98758739D01*
X117241263Y-98748156D01*
X117217929Y-98721817D01*
X117217925Y-98721814D01*
X117188965Y-98701823D01*
X117177180Y-98692590D01*
X117150851Y-98669265D01*
X117119705Y-98652918D01*
X117106891Y-98645172D01*
X117077929Y-98625181D01*
X117045026Y-98612702D01*
X117031377Y-98606559D01*
X117000227Y-98590211D01*
X117000226Y-98590210D01*
X117000225Y-98590210D01*
X116966048Y-98581785D01*
X116951776Y-98577338D01*
X116918872Y-98564860D01*
X116918867Y-98564858D01*
X116883942Y-98560617D01*
X116869220Y-98557919D01*
X116835059Y-98549500D01*
X116835056Y-98549500D01*
X116792372Y-98549500D01*
X116524921Y-98549500D01*
X116517434Y-98549274D01*
X116457391Y-98545641D01*
X116398227Y-98556483D01*
X116390828Y-98557610D01*
X116331124Y-98564860D01*
X116321651Y-98568453D01*
X116300047Y-98574476D01*
X116290069Y-98576305D01*
X116235225Y-98600987D01*
X116228310Y-98603851D01*
X116172070Y-98625181D01*
X116163723Y-98630943D01*
X116144187Y-98641961D01*
X116134946Y-98646120D01*
X116087609Y-98683206D01*
X116081579Y-98687643D01*
X116032070Y-98721817D01*
X115992177Y-98766846D01*
X115987044Y-98772298D01*
X113772290Y-100987051D01*
X113766838Y-100992183D01*
X113721816Y-101032070D01*
X113687649Y-101081568D01*
X113683213Y-101087597D01*
X113646121Y-101134942D01*
X113641961Y-101144186D01*
X113630941Y-101163725D01*
X113625182Y-101172069D01*
X113603853Y-101228305D01*
X113600989Y-101235219D01*
X113576303Y-101290070D01*
X113574475Y-101300047D01*
X113568454Y-101321648D01*
X113564860Y-101331124D01*
X113557610Y-101390828D01*
X113556483Y-101398228D01*
X113545641Y-101457395D01*
X113546253Y-101467516D01*
X113545575Y-101489940D01*
X113544354Y-101499997D01*
X108500000Y-101499997D01*
X108500000Y-97750000D01*
X110744353Y-97750000D01*
X110764834Y-97892457D01*
X110824623Y-98023374D01*
X110906876Y-98118299D01*
X110918872Y-98132143D01*
X111039947Y-98209953D01*
X111178039Y-98250500D01*
X111321961Y-98250500D01*
X111460053Y-98209953D01*
X111581128Y-98132143D01*
X111593125Y-98118297D01*
X111635325Y-98086706D01*
X111686838Y-98075500D01*
X113563162Y-98075500D01*
X113614675Y-98086706D01*
X113656874Y-98118297D01*
X113668872Y-98132143D01*
X113789947Y-98209953D01*
X113928039Y-98250500D01*
X114071961Y-98250500D01*
X114210053Y-98209953D01*
X114331128Y-98132143D01*
X114425377Y-98023373D01*
X114485165Y-97892457D01*
X114505647Y-97750000D01*
X114485165Y-97607543D01*
X114482110Y-97600854D01*
X114425376Y-97476625D01*
X114331129Y-97367858D01*
X114331128Y-97367857D01*
X114210053Y-97290047D01*
X114071961Y-97249500D01*
X113928039Y-97249500D01*
X113789945Y-97290047D01*
X113735473Y-97325054D01*
X113668434Y-97344738D01*
X113601395Y-97325053D01*
X113555640Y-97272249D01*
X113545697Y-97203091D01*
X113574722Y-97139535D01*
X113581125Y-97132144D01*
X113581128Y-97132143D01*
X113675377Y-97023373D01*
X113735165Y-96892457D01*
X113755647Y-96750000D01*
X113738109Y-96628024D01*
X113735165Y-96607542D01*
X113682985Y-96493287D01*
X113675377Y-96476627D01*
X113675376Y-96476626D01*
X113675376Y-96476625D01*
X113581129Y-96367858D01*
X113581128Y-96367857D01*
X113460053Y-96290047D01*
X113321961Y-96249500D01*
X113178039Y-96249500D01*
X113039947Y-96290047D01*
X112918873Y-96367856D01*
X112918872Y-96367856D01*
X112918872Y-96367857D01*
X112906874Y-96381702D01*
X112864675Y-96413294D01*
X112813162Y-96424500D01*
X111936838Y-96424500D01*
X111885325Y-96413294D01*
X111843125Y-96381702D01*
X111831128Y-96367857D01*
X111710053Y-96290047D01*
X111571961Y-96249500D01*
X111428039Y-96249500D01*
X111289947Y-96290047D01*
X111168870Y-96367858D01*
X111074623Y-96476625D01*
X111014834Y-96607542D01*
X110994353Y-96749999D01*
X111014834Y-96892457D01*
X111056613Y-96983937D01*
X111074623Y-97023373D01*
X111081343Y-97031128D01*
X111125443Y-97082023D01*
X111152895Y-97136867D01*
X111150706Y-97198160D01*
X111119411Y-97250906D01*
X111066665Y-97282202D01*
X111039947Y-97290047D01*
X110918870Y-97367858D01*
X110824623Y-97476625D01*
X110764834Y-97607542D01*
X110744353Y-97750000D01*
X108500000Y-97750000D01*
X108500000Y-93670000D01*
X112544528Y-93670000D01*
X112564379Y-93909558D01*
X112564379Y-93909561D01*
X112564380Y-93909563D01*
X112623390Y-94142591D01*
X112719951Y-94362728D01*
X112851429Y-94563969D01*
X113014236Y-94740825D01*
X113014239Y-94740827D01*
X113203927Y-94888468D01*
X113203929Y-94888469D01*
X113203933Y-94888472D01*
X113415344Y-95002882D01*
X113642703Y-95080934D01*
X113879808Y-95120500D01*
X114120191Y-95120500D01*
X114120192Y-95120500D01*
X114357297Y-95080934D01*
X114580616Y-95004269D01*
X119899500Y-95004269D01*
X119902353Y-95034696D01*
X119947207Y-95162884D01*
X120027849Y-95272150D01*
X120137115Y-95352792D01*
X120137118Y-95352793D01*
X120265301Y-95397646D01*
X120277474Y-95398787D01*
X120295731Y-95400500D01*
X120295734Y-95400500D01*
X122204266Y-95400500D01*
X122204269Y-95400500D01*
X122219482Y-95399072D01*
X122234699Y-95397646D01*
X122362882Y-95352793D01*
X122362882Y-95352792D01*
X122362884Y-95352792D01*
X122472150Y-95272150D01*
X122552792Y-95162884D01*
X122554661Y-95157543D01*
X122597646Y-95034699D01*
X122600500Y-95004266D01*
X122600500Y-94674500D01*
X122617113Y-94612500D01*
X122662500Y-94567113D01*
X122724500Y-94550500D01*
X124335053Y-94550500D01*
X124335056Y-94550500D01*
X124369238Y-94542074D01*
X124383936Y-94539381D01*
X124418872Y-94535140D01*
X124451772Y-94522662D01*
X124466050Y-94518212D01*
X124500225Y-94509790D01*
X124531382Y-94493436D01*
X124545023Y-94487297D01*
X124577930Y-94474818D01*
X124606895Y-94454823D01*
X124619697Y-94447084D01*
X124650852Y-94430734D01*
X124677185Y-94407405D01*
X124688962Y-94398176D01*
X124717929Y-94378183D01*
X124741264Y-94351841D01*
X124751841Y-94341264D01*
X124778183Y-94317929D01*
X124798176Y-94288962D01*
X124807405Y-94277185D01*
X124830732Y-94250854D01*
X124830731Y-94250854D01*
X124830734Y-94250852D01*
X124847084Y-94219697D01*
X124854823Y-94206895D01*
X124874818Y-94177930D01*
X124887297Y-94145023D01*
X124893436Y-94131382D01*
X124909790Y-94100225D01*
X124918212Y-94066050D01*
X124922664Y-94051767D01*
X124935140Y-94018872D01*
X124939381Y-93983936D01*
X124942074Y-93969238D01*
X124950500Y-93935056D01*
X124950500Y-93899874D01*
X124951404Y-93884927D01*
X124955645Y-93849999D01*
X124951404Y-93815073D01*
X124950500Y-93800126D01*
X124950500Y-93764944D01*
X124942080Y-93730786D01*
X124939380Y-93716053D01*
X124935140Y-93681128D01*
X124922665Y-93648233D01*
X124918210Y-93633937D01*
X124909790Y-93599776D01*
X124909790Y-93599775D01*
X124893433Y-93568610D01*
X124887297Y-93554975D01*
X124874818Y-93522070D01*
X124854829Y-93493112D01*
X124847082Y-93480297D01*
X124830734Y-93449148D01*
X124807394Y-93422802D01*
X124798178Y-93411038D01*
X124778183Y-93382071D01*
X124778181Y-93382068D01*
X124751847Y-93358739D01*
X124741263Y-93348156D01*
X124717929Y-93321817D01*
X124717925Y-93321814D01*
X124688965Y-93301823D01*
X124677180Y-93292590D01*
X124650851Y-93269265D01*
X124619705Y-93252918D01*
X124606891Y-93245172D01*
X124577929Y-93225181D01*
X124545026Y-93212702D01*
X124531377Y-93206559D01*
X124500227Y-93190211D01*
X124500226Y-93190210D01*
X124500225Y-93190210D01*
X124466048Y-93181785D01*
X124451776Y-93177338D01*
X124418872Y-93164860D01*
X124418867Y-93164858D01*
X124383942Y-93160617D01*
X124369220Y-93157919D01*
X124335059Y-93149500D01*
X124335056Y-93149500D01*
X124292372Y-93149500D01*
X122724500Y-93149500D01*
X122662500Y-93132887D01*
X122617113Y-93087500D01*
X122600500Y-93025500D01*
X122600500Y-91895731D01*
X122597646Y-91865303D01*
X122597646Y-91865301D01*
X122552793Y-91737118D01*
X122552792Y-91737115D01*
X122472150Y-91627849D01*
X122362884Y-91547207D01*
X122234696Y-91502353D01*
X122204269Y-91499500D01*
X122204266Y-91499500D01*
X120295734Y-91499500D01*
X120295731Y-91499500D01*
X120265303Y-91502353D01*
X120137115Y-91547207D01*
X120027849Y-91627849D01*
X119947207Y-91737115D01*
X119902353Y-91865303D01*
X119899500Y-91895731D01*
X119899500Y-95004269D01*
X114580616Y-95004269D01*
X114584656Y-95002882D01*
X114796067Y-94888472D01*
X114985764Y-94740825D01*
X115148571Y-94563969D01*
X115280049Y-94362728D01*
X115376610Y-94142591D01*
X115435620Y-93909563D01*
X115455471Y-93670000D01*
X115435620Y-93430437D01*
X115376610Y-93197409D01*
X115280049Y-92977272D01*
X115148571Y-92776031D01*
X114985764Y-92599175D01*
X114964370Y-92582523D01*
X114796072Y-92451531D01*
X114796068Y-92451528D01*
X114796067Y-92451528D01*
X114584656Y-92337118D01*
X114584655Y-92337117D01*
X114584652Y-92337116D01*
X114357299Y-92259066D01*
X114199227Y-92232688D01*
X114120192Y-92219500D01*
X113879808Y-92219500D01*
X113820531Y-92229391D01*
X113642700Y-92259066D01*
X113415347Y-92337116D01*
X113203927Y-92451531D01*
X113014239Y-92599172D01*
X113014236Y-92599174D01*
X113014236Y-92599175D01*
X112851429Y-92776031D01*
X112719951Y-92977272D01*
X112623390Y-93197409D01*
X112583796Y-93353766D01*
X112564379Y-93430441D01*
X112544528Y-93670000D01*
X108500000Y-93670000D01*
X108500000Y-91765000D01*
X116119417Y-91765000D01*
X116139699Y-91970932D01*
X116139700Y-91970934D01*
X116199768Y-92168954D01*
X116297315Y-92351450D01*
X116348608Y-92413952D01*
X116428589Y-92511410D01*
X116508570Y-92577047D01*
X116588550Y-92642685D01*
X116771046Y-92740232D01*
X116969066Y-92800300D01*
X117123392Y-92815500D01*
X117226607Y-92815500D01*
X117226608Y-92815500D01*
X117380934Y-92800300D01*
X117578954Y-92740232D01*
X117761450Y-92642685D01*
X117921410Y-92511410D01*
X118052685Y-92351450D01*
X118150232Y-92168954D01*
X118210300Y-91970934D01*
X118230583Y-91765000D01*
X118210300Y-91559066D01*
X118150232Y-91361046D01*
X118052685Y-91178550D01*
X117970554Y-91078472D01*
X117921410Y-91018589D01*
X117814467Y-90930825D01*
X117761450Y-90887315D01*
X117578954Y-90789768D01*
X117460939Y-90753969D01*
X117380932Y-90729699D01*
X117243467Y-90716160D01*
X117226608Y-90714500D01*
X117123392Y-90714500D01*
X117108192Y-90715996D01*
X116969067Y-90729699D01*
X116771043Y-90789769D01*
X116588551Y-90887314D01*
X116428589Y-91018589D01*
X116297314Y-91178551D01*
X116199769Y-91361043D01*
X116139699Y-91559067D01*
X116119417Y-91765000D01*
X108500000Y-91765000D01*
X108500000Y-89860000D01*
X112544528Y-89860000D01*
X112564379Y-90099558D01*
X112564379Y-90099561D01*
X112564380Y-90099563D01*
X112623390Y-90332591D01*
X112719951Y-90552728D01*
X112851429Y-90753969D01*
X113014236Y-90930825D01*
X113014239Y-90930827D01*
X113203927Y-91078468D01*
X113203929Y-91078469D01*
X113203933Y-91078472D01*
X113415344Y-91192882D01*
X113642703Y-91270934D01*
X113879808Y-91310500D01*
X114120191Y-91310500D01*
X114120192Y-91310500D01*
X114357297Y-91270934D01*
X114584656Y-91192882D01*
X114796067Y-91078472D01*
X114985764Y-90930825D01*
X115148571Y-90753969D01*
X115280049Y-90552728D01*
X115376610Y-90332591D01*
X115435620Y-90099563D01*
X115455471Y-89860000D01*
X115435620Y-89620437D01*
X115376610Y-89387409D01*
X115280049Y-89167272D01*
X115148571Y-88966031D01*
X114985764Y-88789175D01*
X114964370Y-88772523D01*
X114796072Y-88641531D01*
X114796068Y-88641528D01*
X114796067Y-88641528D01*
X114584656Y-88527118D01*
X114584655Y-88527117D01*
X114584652Y-88527116D01*
X114357299Y-88449066D01*
X114199226Y-88422688D01*
X114120192Y-88409500D01*
X113879808Y-88409500D01*
X113820531Y-88419391D01*
X113642700Y-88449066D01*
X113415347Y-88527116D01*
X113203927Y-88641531D01*
X113014239Y-88789172D01*
X113014236Y-88789174D01*
X113014236Y-88789175D01*
X112851429Y-88966031D01*
X112719951Y-89167272D01*
X112719950Y-89167274D01*
X112623391Y-89387407D01*
X112564379Y-89620441D01*
X112544528Y-89860000D01*
X108500000Y-89860000D01*
X108500000Y-87954999D01*
X109769417Y-87954999D01*
X109789699Y-88160932D01*
X109789700Y-88160934D01*
X109849768Y-88358954D01*
X109947315Y-88541450D01*
X109998609Y-88603952D01*
X110078589Y-88701410D01*
X110158569Y-88767047D01*
X110238550Y-88832685D01*
X110421046Y-88930232D01*
X110619066Y-88990300D01*
X110773392Y-89005500D01*
X110876607Y-89005500D01*
X110876608Y-89005500D01*
X111030934Y-88990300D01*
X111228954Y-88930232D01*
X111411450Y-88832685D01*
X111571410Y-88701410D01*
X111702685Y-88541450D01*
X111800232Y-88358954D01*
X111818115Y-88300000D01*
X119600001Y-88300000D01*
X119600001Y-89599979D01*
X119610493Y-89702695D01*
X119665642Y-89869122D01*
X119757683Y-90018345D01*
X119881654Y-90142316D01*
X120030877Y-90234357D01*
X120197303Y-90289506D01*
X120300021Y-90300000D01*
X121000000Y-90300000D01*
X121000000Y-88300000D01*
X121500000Y-88300000D01*
X121500000Y-90299999D01*
X122199979Y-90299999D01*
X122302695Y-90289506D01*
X122469122Y-90234357D01*
X122618345Y-90142316D01*
X122742316Y-90018345D01*
X122834357Y-89869122D01*
X122889506Y-89702696D01*
X122900000Y-89599979D01*
X122900000Y-88300000D01*
X121500000Y-88300000D01*
X121000000Y-88300000D01*
X119600001Y-88300000D01*
X111818115Y-88300000D01*
X111860300Y-88160934D01*
X111880583Y-87955000D01*
X111865317Y-87800000D01*
X119600000Y-87800000D01*
X121000000Y-87800000D01*
X121000000Y-85800001D01*
X120300021Y-85800001D01*
X120197304Y-85810493D01*
X120030877Y-85865642D01*
X119881654Y-85957683D01*
X119757683Y-86081654D01*
X119665642Y-86230877D01*
X119610493Y-86397303D01*
X119600000Y-86500021D01*
X119600000Y-87800000D01*
X111865317Y-87800000D01*
X111860300Y-87749066D01*
X111800232Y-87551046D01*
X111702685Y-87368550D01*
X111620554Y-87268472D01*
X111571410Y-87208589D01*
X111461573Y-87118450D01*
X111411450Y-87077315D01*
X111228954Y-86979768D01*
X111110939Y-86943969D01*
X111030932Y-86919699D01*
X110893467Y-86906160D01*
X110876608Y-86904500D01*
X110773392Y-86904500D01*
X110758192Y-86905996D01*
X110619067Y-86919699D01*
X110421043Y-86979769D01*
X110238551Y-87077314D01*
X110078589Y-87208589D01*
X109947314Y-87368551D01*
X109849769Y-87551043D01*
X109789699Y-87749067D01*
X109769417Y-87954999D01*
X108500000Y-87954999D01*
X108500000Y-86050000D01*
X112544528Y-86050000D01*
X112564379Y-86289558D01*
X112564379Y-86289561D01*
X112564380Y-86289563D01*
X112623390Y-86522591D01*
X112719951Y-86742728D01*
X112851429Y-86943969D01*
X113014236Y-87120825D01*
X113023365Y-87127930D01*
X113203927Y-87268468D01*
X113203929Y-87268469D01*
X113203933Y-87268472D01*
X113415344Y-87382882D01*
X113421921Y-87385140D01*
X113639373Y-87459791D01*
X113642703Y-87460934D01*
X113879808Y-87500500D01*
X114120191Y-87500500D01*
X114120192Y-87500500D01*
X114357297Y-87460934D01*
X114584656Y-87382882D01*
X114796067Y-87268472D01*
X114985764Y-87120825D01*
X115148571Y-86943969D01*
X115280049Y-86742728D01*
X115376610Y-86522591D01*
X115435620Y-86289563D01*
X115455471Y-86050000D01*
X115435620Y-85810437D01*
X115432977Y-85800000D01*
X121500000Y-85800000D01*
X121500000Y-87800000D01*
X122899999Y-87800000D01*
X122899999Y-86500021D01*
X122889506Y-86397304D01*
X122834357Y-86230877D01*
X122742316Y-86081654D01*
X122618345Y-85957683D01*
X122469122Y-85865642D01*
X122302696Y-85810493D01*
X122199979Y-85800000D01*
X121500000Y-85800000D01*
X115432977Y-85800000D01*
X115376610Y-85577409D01*
X115280049Y-85357272D01*
X115209964Y-85249999D01*
X123744353Y-85249999D01*
X123764834Y-85392457D01*
X123824623Y-85523374D01*
X123894213Y-85603686D01*
X123916682Y-85641555D01*
X123924500Y-85684888D01*
X123924500Y-86430372D01*
X123924028Y-86441180D01*
X123920735Y-86478807D01*
X123930063Y-86513620D01*
X123933886Y-86555685D01*
X123928858Y-86575236D01*
X123929018Y-86575266D01*
X123924475Y-86600047D01*
X123918454Y-86621648D01*
X123914860Y-86631124D01*
X123907610Y-86690828D01*
X123906483Y-86698228D01*
X123895641Y-86757395D01*
X123896253Y-86767516D01*
X123895575Y-86789940D01*
X123894354Y-86799997D01*
X123901603Y-86859702D01*
X123902281Y-86867158D01*
X123905913Y-86927198D01*
X123908927Y-86936868D01*
X123913638Y-86958809D01*
X123914860Y-86968874D01*
X123936189Y-87025118D01*
X123938631Y-87032194D01*
X123956522Y-87089607D01*
X123961762Y-87098275D01*
X123971586Y-87118450D01*
X123975182Y-87127931D01*
X124009348Y-87177430D01*
X124013410Y-87183710D01*
X124028450Y-87208590D01*
X124044529Y-87235186D01*
X124051692Y-87242349D01*
X124066060Y-87259589D01*
X124071817Y-87267929D01*
X124116846Y-87307821D01*
X124122282Y-87312939D01*
X124164815Y-87355472D01*
X124173489Y-87360715D01*
X124191560Y-87374011D01*
X124199148Y-87380734D01*
X124199150Y-87380735D01*
X124252386Y-87408676D01*
X124258909Y-87412355D01*
X124288267Y-87430102D01*
X124310394Y-87443478D01*
X124320064Y-87446491D01*
X124340795Y-87455076D01*
X124349775Y-87459790D01*
X124408185Y-87474186D01*
X124415374Y-87476190D01*
X124472804Y-87494086D01*
X124482916Y-87494697D01*
X124505104Y-87498074D01*
X124514944Y-87500500D01*
X124575079Y-87500500D01*
X124582566Y-87500726D01*
X124585706Y-87500915D01*
X124642606Y-87504358D01*
X124652575Y-87502531D01*
X124674927Y-87500500D01*
X124685057Y-87500500D01*
X124715967Y-87492880D01*
X124743451Y-87486106D01*
X124750756Y-87484538D01*
X124809932Y-87473695D01*
X124819170Y-87469536D01*
X124840392Y-87462214D01*
X124850222Y-87459791D01*
X124850222Y-87459790D01*
X124850225Y-87459790D01*
X124903494Y-87431830D01*
X124910172Y-87428578D01*
X124942029Y-87414241D01*
X124948295Y-87411422D01*
X124999181Y-87400500D01*
X128885053Y-87400500D01*
X128885056Y-87400500D01*
X128919238Y-87392074D01*
X128933936Y-87389381D01*
X128968872Y-87385140D01*
X129001772Y-87372662D01*
X129016050Y-87368212D01*
X129050225Y-87359790D01*
X129081382Y-87343436D01*
X129095023Y-87337297D01*
X129127930Y-87324818D01*
X129156895Y-87304823D01*
X129169697Y-87297084D01*
X129200852Y-87280734D01*
X129227185Y-87257405D01*
X129238962Y-87248176D01*
X129267929Y-87228183D01*
X129291264Y-87201841D01*
X129301841Y-87191264D01*
X129328183Y-87167929D01*
X129348176Y-87138962D01*
X129357405Y-87127185D01*
X129380732Y-87100854D01*
X129380731Y-87100854D01*
X129380734Y-87100852D01*
X129397084Y-87069697D01*
X129404823Y-87056895D01*
X129424818Y-87027930D01*
X129437297Y-86995023D01*
X129443436Y-86981382D01*
X129459790Y-86950225D01*
X129468212Y-86916050D01*
X129472664Y-86901767D01*
X129485140Y-86868872D01*
X129489381Y-86833936D01*
X129492074Y-86819238D01*
X129500500Y-86785056D01*
X129500500Y-86749874D01*
X129501404Y-86734927D01*
X129505645Y-86699999D01*
X129501404Y-86665073D01*
X129500500Y-86650126D01*
X129500500Y-86614944D01*
X129492080Y-86580786D01*
X129489380Y-86566053D01*
X129488121Y-86555685D01*
X129485140Y-86531128D01*
X129472665Y-86498233D01*
X129468210Y-86483937D01*
X129459790Y-86449776D01*
X129459790Y-86449775D01*
X129443433Y-86418610D01*
X129437297Y-86404975D01*
X129424818Y-86372070D01*
X129404829Y-86343112D01*
X129397082Y-86330297D01*
X129380734Y-86299148D01*
X129357394Y-86272802D01*
X129348178Y-86261038D01*
X129328183Y-86232071D01*
X129328181Y-86232068D01*
X129301847Y-86208739D01*
X129291263Y-86198156D01*
X129267929Y-86171817D01*
X129267925Y-86171814D01*
X129238965Y-86151823D01*
X129227180Y-86142590D01*
X129200851Y-86119265D01*
X129169705Y-86102918D01*
X129156891Y-86095172D01*
X129127929Y-86075181D01*
X129095026Y-86062702D01*
X129081377Y-86056559D01*
X129050227Y-86040211D01*
X129050226Y-86040210D01*
X129050225Y-86040210D01*
X129016048Y-86031785D01*
X129001776Y-86027338D01*
X128968872Y-86014860D01*
X128968867Y-86014858D01*
X128933942Y-86010617D01*
X128919220Y-86007919D01*
X128885059Y-85999500D01*
X128885056Y-85999500D01*
X128842372Y-85999500D01*
X125649500Y-85999500D01*
X125587500Y-85982887D01*
X125542113Y-85937500D01*
X125525500Y-85875500D01*
X125525500Y-77919616D01*
X125525972Y-77908808D01*
X125529263Y-77871193D01*
X125519486Y-77834706D01*
X125517145Y-77824143D01*
X125510402Y-77785901D01*
X125500169Y-77761195D01*
X125477894Y-77729382D01*
X125472083Y-77720261D01*
X125453194Y-77687545D01*
X125424261Y-77663267D01*
X125416286Y-77655959D01*
X125342440Y-77582113D01*
X125319237Y-77549936D01*
X125307383Y-77512078D01*
X125305646Y-77499999D01*
X125285165Y-77357543D01*
X125225377Y-77226627D01*
X125207245Y-77205702D01*
X125178221Y-77142147D01*
X125188165Y-77072989D01*
X125233920Y-77020185D01*
X125300959Y-77000500D01*
X125321961Y-77000500D01*
X125460053Y-76959953D01*
X125581128Y-76882143D01*
X125675377Y-76773373D01*
X125735165Y-76642457D01*
X125755647Y-76500000D01*
X125735165Y-76357543D01*
X125675377Y-76226627D01*
X125675376Y-76226626D01*
X125675376Y-76226625D01*
X125605787Y-76146314D01*
X125583318Y-76108445D01*
X125575500Y-76065112D01*
X125575500Y-75434888D01*
X125583318Y-75391555D01*
X125605787Y-75353686D01*
X125675376Y-75273374D01*
X125675375Y-75273374D01*
X125675377Y-75273373D01*
X125735165Y-75142457D01*
X125755647Y-75000000D01*
X125738109Y-74878023D01*
X125735165Y-74857542D01*
X125675376Y-74726625D01*
X125581129Y-74617858D01*
X125581128Y-74617857D01*
X125460053Y-74540047D01*
X125321961Y-74499500D01*
X125178039Y-74499500D01*
X125039947Y-74540047D01*
X124918870Y-74617858D01*
X124824623Y-74726625D01*
X124764834Y-74857542D01*
X124744353Y-74999999D01*
X124764834Y-75142457D01*
X124824623Y-75273374D01*
X124894213Y-75353686D01*
X124916682Y-75391555D01*
X124924500Y-75434888D01*
X124924500Y-76065112D01*
X124916682Y-76108445D01*
X124894213Y-76146314D01*
X124824623Y-76226625D01*
X124764834Y-76357542D01*
X124744353Y-76500000D01*
X124764834Y-76642457D01*
X124813949Y-76750000D01*
X124824623Y-76773373D01*
X124842754Y-76794297D01*
X124871779Y-76857853D01*
X124861835Y-76927011D01*
X124816080Y-76979815D01*
X124749041Y-76999500D01*
X124728039Y-76999500D01*
X124589947Y-77040047D01*
X124468870Y-77117858D01*
X124374623Y-77226625D01*
X124314834Y-77357542D01*
X124294353Y-77499999D01*
X124314834Y-77642457D01*
X124374623Y-77773374D01*
X124454168Y-77865174D01*
X124468872Y-77882143D01*
X124589947Y-77959953D01*
X124728039Y-78000500D01*
X124750500Y-78000500D01*
X124812500Y-78017113D01*
X124857887Y-78062500D01*
X124874500Y-78124500D01*
X124874500Y-84873970D01*
X124860170Y-84931837D01*
X124820491Y-84976329D01*
X124764635Y-84997162D01*
X124705511Y-84989521D01*
X124656787Y-84955172D01*
X124581129Y-84867858D01*
X124581128Y-84867857D01*
X124460053Y-84790047D01*
X124321961Y-84749500D01*
X124178039Y-84749500D01*
X124039947Y-84790047D01*
X123918870Y-84867858D01*
X123824623Y-84976625D01*
X123764834Y-85107542D01*
X123744353Y-85249999D01*
X115209964Y-85249999D01*
X115148571Y-85156031D01*
X114985764Y-84979175D01*
X114850597Y-84873970D01*
X114796072Y-84831531D01*
X114796068Y-84831528D01*
X114796067Y-84831528D01*
X114584656Y-84717118D01*
X114584655Y-84717117D01*
X114584652Y-84717116D01*
X114357299Y-84639066D01*
X114199227Y-84612688D01*
X114120192Y-84599500D01*
X113879808Y-84599500D01*
X113820531Y-84609391D01*
X113642700Y-84639066D01*
X113415347Y-84717116D01*
X113203927Y-84831531D01*
X113014239Y-84979172D01*
X113014236Y-84979174D01*
X113014236Y-84979175D01*
X112851429Y-85156031D01*
X112719951Y-85357272D01*
X112623390Y-85577409D01*
X112596173Y-85684888D01*
X112564379Y-85810441D01*
X112544528Y-86050000D01*
X108500000Y-86050000D01*
X108500000Y-82240000D01*
X112544528Y-82240000D01*
X112564379Y-82479558D01*
X112564379Y-82479561D01*
X112564380Y-82479563D01*
X112623390Y-82712591D01*
X112719951Y-82932728D01*
X112851429Y-83133969D01*
X113014236Y-83310825D01*
X113014239Y-83310827D01*
X113203927Y-83458468D01*
X113203929Y-83458469D01*
X113203933Y-83458472D01*
X113415344Y-83572882D01*
X113642703Y-83650934D01*
X113879808Y-83690500D01*
X114120191Y-83690500D01*
X114120192Y-83690500D01*
X114357297Y-83650934D01*
X114584656Y-83572882D01*
X114796067Y-83458472D01*
X114985764Y-83310825D01*
X115148571Y-83133969D01*
X115236098Y-83000000D01*
X118744353Y-83000000D01*
X118764834Y-83142457D01*
X118824623Y-83273374D01*
X118918870Y-83382141D01*
X118918872Y-83382143D01*
X119039947Y-83459953D01*
X119178039Y-83500500D01*
X119321961Y-83500500D01*
X119460053Y-83459953D01*
X119581128Y-83382143D01*
X119675377Y-83273373D01*
X119735165Y-83142457D01*
X119755647Y-83000000D01*
X119755646Y-82999997D01*
X119757383Y-82987920D01*
X119769237Y-82950061D01*
X119792437Y-82917887D01*
X119848508Y-82861817D01*
X119888737Y-82834939D01*
X119936189Y-82825500D01*
X120813162Y-82825500D01*
X120864675Y-82836706D01*
X120906874Y-82868297D01*
X120918872Y-82882143D01*
X121039947Y-82959953D01*
X121178039Y-83000500D01*
X121321961Y-83000500D01*
X121460053Y-82959953D01*
X121581128Y-82882143D01*
X121675377Y-82773373D01*
X121735165Y-82642457D01*
X121755647Y-82500000D01*
X121735165Y-82357543D01*
X121675377Y-82226627D01*
X121675376Y-82226626D01*
X121675376Y-82226625D01*
X121581129Y-82117858D01*
X121581128Y-82117857D01*
X121460053Y-82040047D01*
X121321961Y-81999500D01*
X121178039Y-81999500D01*
X121039947Y-82040047D01*
X120918873Y-82117856D01*
X120918872Y-82117856D01*
X120918872Y-82117857D01*
X120906874Y-82131702D01*
X120864675Y-82163294D01*
X120813162Y-82174500D01*
X119769628Y-82174500D01*
X119758820Y-82174028D01*
X119721192Y-82170735D01*
X119684704Y-82180512D01*
X119674148Y-82182852D01*
X119635899Y-82189597D01*
X119611193Y-82199831D01*
X119579380Y-82222106D01*
X119570264Y-82227914D01*
X119537545Y-82246805D01*
X119513262Y-82275744D01*
X119505956Y-82283716D01*
X119326490Y-82463183D01*
X119286265Y-82490061D01*
X119238812Y-82499500D01*
X119178039Y-82499500D01*
X119039947Y-82540047D01*
X118918870Y-82617858D01*
X118824623Y-82726625D01*
X118764834Y-82857542D01*
X118744353Y-83000000D01*
X115236098Y-83000000D01*
X115280049Y-82932728D01*
X115376610Y-82712591D01*
X115435620Y-82479563D01*
X115455471Y-82240000D01*
X115435620Y-82000437D01*
X115376610Y-81767409D01*
X115280049Y-81547272D01*
X115148571Y-81346031D01*
X114985764Y-81169175D01*
X114961206Y-81150061D01*
X114796072Y-81021531D01*
X114796068Y-81021528D01*
X114796067Y-81021528D01*
X114584656Y-80907118D01*
X114584655Y-80907117D01*
X114584652Y-80907116D01*
X114357299Y-80829066D01*
X114199227Y-80802688D01*
X114120192Y-80789500D01*
X113879808Y-80789500D01*
X113820531Y-80799391D01*
X113642700Y-80829066D01*
X113415347Y-80907116D01*
X113203927Y-81021531D01*
X113014239Y-81169172D01*
X113014236Y-81169174D01*
X113014236Y-81169175D01*
X112851429Y-81346031D01*
X112719951Y-81547272D01*
X112623390Y-81767409D01*
X112564617Y-81999500D01*
X112564379Y-82000441D01*
X112544528Y-82240000D01*
X108500000Y-82240000D01*
X108500000Y-80334999D01*
X116119417Y-80334999D01*
X116139699Y-80540932D01*
X116139700Y-80540934D01*
X116185275Y-80691178D01*
X116199769Y-80738956D01*
X116216643Y-80770525D01*
X116297315Y-80921450D01*
X116348609Y-80983952D01*
X116428589Y-81081410D01*
X116473034Y-81117884D01*
X116588550Y-81212685D01*
X116771046Y-81310232D01*
X116969066Y-81370300D01*
X117123392Y-81385500D01*
X117226607Y-81385500D01*
X117226608Y-81385500D01*
X117380934Y-81370300D01*
X117578954Y-81310232D01*
X117761450Y-81212685D01*
X117921410Y-81081410D01*
X118052685Y-80921450D01*
X118150232Y-80738954D01*
X118210300Y-80540934D01*
X118230583Y-80335000D01*
X118210300Y-80129066D01*
X118150232Y-79931046D01*
X118052685Y-79748550D01*
X117970554Y-79648472D01*
X117921410Y-79588589D01*
X117791703Y-79482143D01*
X117761450Y-79457315D01*
X117594087Y-79367857D01*
X117578956Y-79359769D01*
X117578955Y-79359768D01*
X117578954Y-79359768D01*
X117460939Y-79323969D01*
X117380932Y-79299699D01*
X117243467Y-79286160D01*
X117226608Y-79284500D01*
X117123392Y-79284500D01*
X117108193Y-79285996D01*
X116969067Y-79299699D01*
X116771043Y-79359769D01*
X116588551Y-79457314D01*
X116428589Y-79588589D01*
X116297314Y-79748551D01*
X116199769Y-79931043D01*
X116139699Y-80129067D01*
X116119417Y-80334999D01*
X108500000Y-80334999D01*
X108500000Y-78430000D01*
X112544528Y-78430000D01*
X112564379Y-78669558D01*
X112564379Y-78669561D01*
X112564380Y-78669563D01*
X112623390Y-78902591D01*
X112719951Y-79122728D01*
X112851429Y-79323969D01*
X113014236Y-79500825D01*
X113014239Y-79500827D01*
X113203927Y-79648468D01*
X113203929Y-79648469D01*
X113203933Y-79648472D01*
X113415344Y-79762882D01*
X113642703Y-79840934D01*
X113879808Y-79880500D01*
X114120191Y-79880500D01*
X114120192Y-79880500D01*
X114357297Y-79840934D01*
X114584656Y-79762882D01*
X114796067Y-79648472D01*
X114985764Y-79500825D01*
X115148571Y-79323969D01*
X115280049Y-79122728D01*
X115376610Y-78902591D01*
X115435620Y-78669563D01*
X115455471Y-78430000D01*
X115435620Y-78190437D01*
X115376610Y-77957409D01*
X115280049Y-77737272D01*
X115148571Y-77536031D01*
X114985764Y-77359175D01*
X114964370Y-77342523D01*
X114796072Y-77211531D01*
X114796068Y-77211528D01*
X114796067Y-77211528D01*
X114584656Y-77097118D01*
X114584655Y-77097117D01*
X114584652Y-77097116D01*
X114357299Y-77019066D01*
X114143485Y-76983387D01*
X114120192Y-76979500D01*
X113879808Y-76979500D01*
X113856515Y-76983387D01*
X113642700Y-77019066D01*
X113415347Y-77097116D01*
X113203927Y-77211531D01*
X113014239Y-77359172D01*
X113014236Y-77359174D01*
X113014236Y-77359175D01*
X112851429Y-77536031D01*
X112731065Y-77720261D01*
X112719950Y-77737274D01*
X112676494Y-77836344D01*
X112623390Y-77957409D01*
X112564380Y-78190437D01*
X112564379Y-78190441D01*
X112544528Y-78430000D01*
X108500000Y-78430000D01*
X108500000Y-74620000D01*
X112544528Y-74620000D01*
X112564379Y-74859558D01*
X112564379Y-74859561D01*
X112564380Y-74859563D01*
X112623390Y-75092591D01*
X112719951Y-75312728D01*
X112851429Y-75513969D01*
X113014236Y-75690825D01*
X113014239Y-75690827D01*
X113203927Y-75838468D01*
X113203929Y-75838469D01*
X113203933Y-75838472D01*
X113415344Y-75952882D01*
X113642703Y-76030934D01*
X113879808Y-76070500D01*
X114120191Y-76070500D01*
X114120192Y-76070500D01*
X114357297Y-76030934D01*
X114584656Y-75952882D01*
X114796067Y-75838472D01*
X114985764Y-75690825D01*
X115148571Y-75513969D01*
X115280049Y-75312728D01*
X115376610Y-75092591D01*
X115435620Y-74859563D01*
X115455471Y-74620000D01*
X115435620Y-74380437D01*
X115376610Y-74147409D01*
X115280049Y-73927272D01*
X115148571Y-73726031D01*
X114985764Y-73549175D01*
X114883124Y-73469287D01*
X114796072Y-73401531D01*
X114796068Y-73401528D01*
X114796067Y-73401528D01*
X114584656Y-73287118D01*
X114584655Y-73287117D01*
X114584652Y-73287116D01*
X114357299Y-73209066D01*
X114199226Y-73182688D01*
X114120192Y-73169500D01*
X113879808Y-73169500D01*
X113820531Y-73179391D01*
X113642700Y-73209066D01*
X113415347Y-73287116D01*
X113203927Y-73401531D01*
X113014239Y-73549172D01*
X113014236Y-73549174D01*
X113014236Y-73549175D01*
X112851429Y-73726031D01*
X112719951Y-73927272D01*
X112623390Y-74147409D01*
X112564380Y-74380437D01*
X112564379Y-74380441D01*
X112544528Y-74620000D01*
X108500000Y-74620000D01*
X108500000Y-72714999D01*
X109769417Y-72714999D01*
X109789699Y-72920932D01*
X109789700Y-72920934D01*
X109849768Y-73118954D01*
X109947315Y-73301450D01*
X109995625Y-73360316D01*
X110078589Y-73461410D01*
X110132443Y-73505606D01*
X110238550Y-73592685D01*
X110421046Y-73690232D01*
X110619066Y-73750300D01*
X110773392Y-73765500D01*
X110876607Y-73765500D01*
X110876608Y-73765500D01*
X111030934Y-73750300D01*
X111228954Y-73690232D01*
X111411450Y-73592685D01*
X111571410Y-73461410D01*
X111702685Y-73301450D01*
X111800232Y-73118954D01*
X111860300Y-72920934D01*
X111880583Y-72715000D01*
X111860300Y-72509066D01*
X111800232Y-72311046D01*
X111702685Y-72128550D01*
X111637047Y-72048569D01*
X111571410Y-71968589D01*
X111464467Y-71880825D01*
X111411450Y-71837315D01*
X111228954Y-71739768D01*
X111110939Y-71703969D01*
X111030932Y-71679699D01*
X110893467Y-71666160D01*
X110876608Y-71664500D01*
X110773392Y-71664500D01*
X110758193Y-71665996D01*
X110619067Y-71679699D01*
X110421043Y-71739769D01*
X110238551Y-71837314D01*
X110078589Y-71968589D01*
X109947314Y-72128551D01*
X109849769Y-72311043D01*
X109789699Y-72509067D01*
X109769417Y-72714999D01*
X108500000Y-72714999D01*
X108500000Y-70810000D01*
X112544528Y-70810000D01*
X112564379Y-71049558D01*
X112564379Y-71049561D01*
X112564380Y-71049563D01*
X112623390Y-71282591D01*
X112719951Y-71502728D01*
X112851429Y-71703969D01*
X113014236Y-71880825D01*
X113077468Y-71930040D01*
X113203927Y-72028468D01*
X113203929Y-72028469D01*
X113203933Y-72028472D01*
X113415344Y-72142882D01*
X113642703Y-72220934D01*
X113879808Y-72260500D01*
X114120191Y-72260500D01*
X114120192Y-72260500D01*
X114357297Y-72220934D01*
X114584656Y-72142882D01*
X114796067Y-72028472D01*
X114985764Y-71880825D01*
X115148571Y-71703969D01*
X115280049Y-71502728D01*
X115376610Y-71282591D01*
X115435620Y-71049563D01*
X115455471Y-70810000D01*
X115435620Y-70570437D01*
X115376610Y-70337409D01*
X115280049Y-70117272D01*
X115148571Y-69916031D01*
X114985764Y-69739175D01*
X114964370Y-69722523D01*
X114796072Y-69591531D01*
X114796068Y-69591528D01*
X114796067Y-69591528D01*
X114584656Y-69477118D01*
X114584655Y-69477117D01*
X114584652Y-69477116D01*
X114357299Y-69399066D01*
X114199227Y-69372688D01*
X114120192Y-69359500D01*
X113879808Y-69359500D01*
X113820531Y-69369391D01*
X113642700Y-69399066D01*
X113415347Y-69477116D01*
X113203927Y-69591531D01*
X113014239Y-69739172D01*
X113014236Y-69739174D01*
X113014236Y-69739175D01*
X112851429Y-69916031D01*
X112719951Y-70117272D01*
X112623390Y-70337409D01*
X112590173Y-70468582D01*
X112564379Y-70570441D01*
X112544528Y-70810000D01*
X108500000Y-70810000D01*
X108500000Y-68904999D01*
X116119417Y-68904999D01*
X116139699Y-69110932D01*
X116139700Y-69110934D01*
X116199768Y-69308954D01*
X116297315Y-69491450D01*
X116318987Y-69517857D01*
X116428589Y-69651410D01*
X116508569Y-69717047D01*
X116588550Y-69782685D01*
X116771046Y-69880232D01*
X116969066Y-69940300D01*
X117123392Y-69955500D01*
X117226607Y-69955500D01*
X117226608Y-69955500D01*
X117380934Y-69940300D01*
X117578954Y-69880232D01*
X117761450Y-69782685D01*
X117921410Y-69651410D01*
X118052685Y-69491450D01*
X118150232Y-69308954D01*
X118210300Y-69110934D01*
X118214552Y-69067764D01*
X122145787Y-69067764D01*
X122175413Y-69337016D01*
X122191635Y-69399066D01*
X122243928Y-69599088D01*
X122349870Y-69848390D01*
X122349871Y-69848392D01*
X122490982Y-70079611D01*
X122664253Y-70287818D01*
X122664255Y-70287820D01*
X122865998Y-70468582D01*
X123091910Y-70618044D01*
X123143988Y-70642457D01*
X123337177Y-70733021D01*
X123596562Y-70811058D01*
X123596569Y-70811060D01*
X123864561Y-70850500D01*
X124067631Y-70850500D01*
X124067634Y-70850500D01*
X124270156Y-70835677D01*
X124270155Y-70835677D01*
X124534553Y-70776780D01*
X124787558Y-70680014D01*
X125023777Y-70547441D01*
X125238177Y-70381888D01*
X125426186Y-70186881D01*
X125583799Y-69966579D01*
X125707656Y-69725675D01*
X125795118Y-69469305D01*
X125844319Y-69202933D01*
X125854212Y-68932235D01*
X125824586Y-68662982D01*
X125756072Y-68400912D01*
X125650130Y-68151610D01*
X125574273Y-68027314D01*
X125557604Y-68000000D01*
X127994353Y-68000000D01*
X128014834Y-68142457D01*
X128074623Y-68273374D01*
X128156876Y-68368299D01*
X128168872Y-68382143D01*
X128289947Y-68459953D01*
X128428039Y-68500500D01*
X128571961Y-68500500D01*
X128710053Y-68459953D01*
X128831128Y-68382143D01*
X128843125Y-68368297D01*
X128885325Y-68336706D01*
X128936838Y-68325500D01*
X130063162Y-68325500D01*
X130114675Y-68336706D01*
X130156874Y-68368297D01*
X130168872Y-68382143D01*
X130289947Y-68459953D01*
X130428039Y-68500500D01*
X130571961Y-68500500D01*
X130710053Y-68459953D01*
X130831128Y-68382143D01*
X130925377Y-68273373D01*
X130985165Y-68142457D01*
X131005647Y-68000000D01*
X130985165Y-67857543D01*
X130983775Y-67854500D01*
X130925376Y-67726625D01*
X130831129Y-67617858D01*
X130831128Y-67617857D01*
X130710053Y-67540047D01*
X130571961Y-67499500D01*
X130428039Y-67499500D01*
X130289947Y-67540047D01*
X130168873Y-67617856D01*
X130168872Y-67617856D01*
X130168872Y-67617857D01*
X130156874Y-67631702D01*
X130114675Y-67663294D01*
X130063162Y-67674500D01*
X128936838Y-67674500D01*
X128885325Y-67663294D01*
X128843125Y-67631702D01*
X128831128Y-67617857D01*
X128710053Y-67540047D01*
X128571961Y-67499500D01*
X128428039Y-67499500D01*
X128289947Y-67540047D01*
X128168870Y-67617858D01*
X128074623Y-67726625D01*
X128014834Y-67857542D01*
X127994353Y-68000000D01*
X125557604Y-68000000D01*
X125509017Y-67920388D01*
X125335746Y-67712181D01*
X125230758Y-67618112D01*
X125134002Y-67531418D01*
X124908090Y-67381956D01*
X124908086Y-67381954D01*
X124662822Y-67266978D01*
X124403437Y-67188941D01*
X124403431Y-67188940D01*
X124135439Y-67149500D01*
X123932369Y-67149500D01*
X123932366Y-67149500D01*
X123729843Y-67164322D01*
X123465449Y-67223219D01*
X123212441Y-67319986D01*
X122976223Y-67452559D01*
X122761825Y-67618109D01*
X122573813Y-67813120D01*
X122416201Y-68033420D01*
X122355436Y-68151610D01*
X122292834Y-68273373D01*
X122292342Y-68274329D01*
X122204881Y-68530695D01*
X122155680Y-68797066D01*
X122145787Y-69067764D01*
X118214552Y-69067764D01*
X118230583Y-68905000D01*
X118210300Y-68699066D01*
X118150232Y-68501046D01*
X118052685Y-68318550D01*
X117987047Y-68238570D01*
X117921410Y-68158589D01*
X117823952Y-68078608D01*
X117761450Y-68027315D01*
X117578954Y-67929768D01*
X117479943Y-67899733D01*
X117380932Y-67869699D01*
X117243467Y-67856160D01*
X117226608Y-67854500D01*
X117123392Y-67854500D01*
X117108192Y-67855996D01*
X116969067Y-67869699D01*
X116771043Y-67929769D01*
X116588551Y-68027314D01*
X116428589Y-68158589D01*
X116297314Y-68318551D01*
X116199769Y-68501043D01*
X116139699Y-68699067D01*
X116119417Y-68904999D01*
X108500000Y-68904999D01*
X108500000Y-68402720D01*
X112950831Y-68402720D01*
X113122546Y-68519793D01*
X113358860Y-68633596D01*
X113609496Y-68710908D01*
X113868856Y-68750000D01*
X114131144Y-68750000D01*
X114390503Y-68710908D01*
X114641139Y-68633596D01*
X114877456Y-68519792D01*
X115049167Y-68402720D01*
X114000001Y-67353553D01*
X114000000Y-67353553D01*
X112950831Y-68402720D01*
X108500000Y-68402720D01*
X108500000Y-66999999D01*
X112245092Y-66999999D01*
X112264693Y-67261552D01*
X112323059Y-67517270D01*
X112418882Y-67761424D01*
X112550027Y-67988573D01*
X112597873Y-68048571D01*
X112597874Y-68048571D01*
X113646446Y-67000001D01*
X113646446Y-67000000D01*
X114353553Y-67000000D01*
X115402124Y-68048571D01*
X115449972Y-67988572D01*
X115581117Y-67761423D01*
X115676940Y-67517270D01*
X115735306Y-67261552D01*
X115754907Y-66999999D01*
X115735306Y-66738447D01*
X115676940Y-66482729D01*
X115581117Y-66238575D01*
X115449972Y-66011426D01*
X115402125Y-65951427D01*
X114353553Y-67000000D01*
X113646446Y-67000000D01*
X113646446Y-66999999D01*
X112597873Y-65951427D01*
X112550028Y-66011424D01*
X112418882Y-66238576D01*
X112323059Y-66482729D01*
X112264693Y-66738447D01*
X112245092Y-66999999D01*
X108500000Y-66999999D01*
X108500000Y-65597278D01*
X112950832Y-65597278D01*
X114000000Y-66646446D01*
X114000001Y-66646446D01*
X115049167Y-65597278D01*
X114877451Y-65480205D01*
X114641139Y-65366403D01*
X114390503Y-65289091D01*
X114131144Y-65250000D01*
X113868856Y-65250000D01*
X113609496Y-65289091D01*
X113358860Y-65366403D01*
X113122545Y-65480206D01*
X112950832Y-65597278D01*
X108500000Y-65597278D01*
X108500000Y-63624000D01*
X108516613Y-63562000D01*
X108562000Y-63516613D01*
X108624000Y-63500000D01*
X135676000Y-63500000D01*
X135738000Y-63516613D01*
G37*
%TD.AperFunction*%
%TD*%
%TA.AperFunction,Conductor*%
%TO.N,GND*%
G36*
X177438000Y-63516613D02*
G01*
X177483387Y-63562000D01*
X177500000Y-63624000D01*
X177500000Y-137376000D01*
X177483387Y-137438000D01*
X177438000Y-137483387D01*
X177376000Y-137500000D01*
X141124000Y-137500000D01*
X141062000Y-137483387D01*
X141016613Y-137438000D01*
X141000000Y-137376000D01*
X141000000Y-134555265D01*
X151718287Y-134555265D01*
X151772088Y-134592937D01*
X151964161Y-134682503D01*
X152168876Y-134737356D01*
X152380000Y-134755827D01*
X152591123Y-134737356D01*
X152795840Y-134682502D01*
X152987911Y-134592938D01*
X153041712Y-134555265D01*
X152380001Y-133893553D01*
X152380000Y-133893553D01*
X151718287Y-134555265D01*
X141000000Y-134555265D01*
X141000000Y-133539999D01*
X151164172Y-133539999D01*
X151182643Y-133751123D01*
X151237496Y-133955838D01*
X151327062Y-134147911D01*
X151364734Y-134201711D01*
X152026446Y-133540001D01*
X152733553Y-133540001D01*
X153395265Y-134201711D01*
X153432938Y-134147911D01*
X153522502Y-133955840D01*
X153577356Y-133751123D01*
X153595827Y-133540000D01*
X154003278Y-133540000D01*
X154023311Y-133730598D01*
X154082532Y-133912864D01*
X154178355Y-134078836D01*
X154306593Y-134221258D01*
X154461637Y-134333904D01*
X154636719Y-134411855D01*
X154824174Y-134451700D01*
X154824176Y-134451700D01*
X155015824Y-134451700D01*
X155015826Y-134451700D01*
X155203280Y-134411855D01*
X155203281Y-134411854D01*
X155203283Y-134411854D01*
X155378361Y-134333905D01*
X155533407Y-134221257D01*
X155661644Y-134078836D01*
X155757467Y-133912864D01*
X155816689Y-133730597D01*
X155836722Y-133540000D01*
X156543278Y-133540000D01*
X156563311Y-133730598D01*
X156622532Y-133912864D01*
X156718355Y-134078836D01*
X156846593Y-134221258D01*
X157001637Y-134333904D01*
X157176719Y-134411855D01*
X157364174Y-134451700D01*
X157364176Y-134451700D01*
X157555824Y-134451700D01*
X157555826Y-134451700D01*
X157743280Y-134411855D01*
X157743281Y-134411854D01*
X157743283Y-134411854D01*
X157918361Y-134333905D01*
X158073407Y-134221257D01*
X158201644Y-134078836D01*
X158297467Y-133912864D01*
X158356689Y-133730597D01*
X158376722Y-133540000D01*
X159083278Y-133540000D01*
X159103311Y-133730598D01*
X159162532Y-133912864D01*
X159258355Y-134078836D01*
X159386593Y-134221258D01*
X159541637Y-134333904D01*
X159716719Y-134411855D01*
X159904174Y-134451700D01*
X159904176Y-134451700D01*
X160095824Y-134451700D01*
X160095826Y-134451700D01*
X160283280Y-134411855D01*
X160283281Y-134411854D01*
X160283283Y-134411854D01*
X160458361Y-134333905D01*
X160613407Y-134221257D01*
X160741644Y-134078836D01*
X160837467Y-133912864D01*
X160896689Y-133730597D01*
X160916722Y-133540000D01*
X161623278Y-133540000D01*
X161643311Y-133730598D01*
X161702532Y-133912864D01*
X161798355Y-134078836D01*
X161926593Y-134221258D01*
X162081637Y-134333904D01*
X162256719Y-134411855D01*
X162444174Y-134451700D01*
X162444176Y-134451700D01*
X162635824Y-134451700D01*
X162635826Y-134451700D01*
X162823280Y-134411855D01*
X162823281Y-134411854D01*
X162823283Y-134411854D01*
X162998361Y-134333905D01*
X163153407Y-134221257D01*
X163281644Y-134078836D01*
X163377467Y-133912864D01*
X163436689Y-133730597D01*
X163456722Y-133540000D01*
X163436689Y-133349403D01*
X163377467Y-133167136D01*
X163377467Y-133167135D01*
X163320096Y-133067764D01*
X171145787Y-133067764D01*
X171175413Y-133337016D01*
X171185082Y-133374000D01*
X171243928Y-133599088D01*
X171299814Y-133730598D01*
X171349871Y-133848392D01*
X171490982Y-134079611D01*
X171664253Y-134287818D01*
X171664255Y-134287820D01*
X171865998Y-134468582D01*
X172091910Y-134618044D01*
X172198211Y-134667875D01*
X172337177Y-134733021D01*
X172596562Y-134811058D01*
X172596569Y-134811060D01*
X172864561Y-134850500D01*
X173067631Y-134850500D01*
X173067634Y-134850500D01*
X173270156Y-134835677D01*
X173274367Y-134834739D01*
X173534553Y-134776780D01*
X173787558Y-134680014D01*
X174023777Y-134547441D01*
X174238177Y-134381888D01*
X174426186Y-134186881D01*
X174583799Y-133966579D01*
X174707656Y-133725675D01*
X174795118Y-133469305D01*
X174844319Y-133202933D01*
X174854212Y-132932235D01*
X174824586Y-132662982D01*
X174756072Y-132400912D01*
X174650130Y-132151610D01*
X174577999Y-132033420D01*
X174509017Y-131920388D01*
X174335746Y-131712181D01*
X174230758Y-131618112D01*
X174134002Y-131531418D01*
X173908090Y-131381956D01*
X173861928Y-131360316D01*
X173662822Y-131266978D01*
X173403437Y-131188941D01*
X173403431Y-131188940D01*
X173135439Y-131149500D01*
X172932369Y-131149500D01*
X172932366Y-131149500D01*
X172729843Y-131164322D01*
X172465449Y-131223219D01*
X172212441Y-131319986D01*
X171976223Y-131452559D01*
X171761825Y-131618109D01*
X171573813Y-131813120D01*
X171416201Y-132033420D01*
X171355436Y-132151610D01*
X171292834Y-132273373D01*
X171292342Y-132274329D01*
X171204881Y-132530695D01*
X171155680Y-132797066D01*
X171145787Y-133067764D01*
X163320096Y-133067764D01*
X163281644Y-133001163D01*
X163153406Y-132858741D01*
X162998362Y-132746095D01*
X162823280Y-132668144D01*
X162635826Y-132628300D01*
X162635824Y-132628300D01*
X162444176Y-132628300D01*
X162444174Y-132628300D01*
X162256719Y-132668144D01*
X162081637Y-132746095D01*
X161926593Y-132858741D01*
X161798355Y-133001163D01*
X161702532Y-133167135D01*
X161643311Y-133349401D01*
X161623278Y-133540000D01*
X160916722Y-133540000D01*
X160896689Y-133349403D01*
X160837467Y-133167136D01*
X160837467Y-133167135D01*
X160741644Y-133001163D01*
X160613406Y-132858741D01*
X160458362Y-132746095D01*
X160283280Y-132668144D01*
X160095826Y-132628300D01*
X160095824Y-132628300D01*
X159904176Y-132628300D01*
X159904174Y-132628300D01*
X159716719Y-132668144D01*
X159541637Y-132746095D01*
X159386593Y-132858741D01*
X159258355Y-133001163D01*
X159162532Y-133167135D01*
X159103311Y-133349401D01*
X159083278Y-133540000D01*
X158376722Y-133540000D01*
X158356689Y-133349403D01*
X158297467Y-133167136D01*
X158297467Y-133167135D01*
X158201644Y-133001163D01*
X158073406Y-132858741D01*
X157918362Y-132746095D01*
X157743280Y-132668144D01*
X157555826Y-132628300D01*
X157555824Y-132628300D01*
X157364176Y-132628300D01*
X157364174Y-132628300D01*
X157176719Y-132668144D01*
X157001637Y-132746095D01*
X156846593Y-132858741D01*
X156718355Y-133001163D01*
X156622532Y-133167135D01*
X156563311Y-133349401D01*
X156543278Y-133540000D01*
X155836722Y-133540000D01*
X155816689Y-133349403D01*
X155757467Y-133167136D01*
X155757467Y-133167135D01*
X155661644Y-133001163D01*
X155533406Y-132858741D01*
X155378362Y-132746095D01*
X155203280Y-132668144D01*
X155015826Y-132628300D01*
X155015824Y-132628300D01*
X154824176Y-132628300D01*
X154824174Y-132628300D01*
X154636719Y-132668144D01*
X154461637Y-132746095D01*
X154306593Y-132858741D01*
X154178355Y-133001163D01*
X154082532Y-133167135D01*
X154023311Y-133349401D01*
X154003278Y-133540000D01*
X153595827Y-133540000D01*
X153595827Y-133539999D01*
X153577356Y-133328876D01*
X153522503Y-133124161D01*
X153432936Y-132932085D01*
X153395265Y-132878286D01*
X152733553Y-133540000D01*
X152733553Y-133540001D01*
X152026446Y-133540001D01*
X152026446Y-133540000D01*
X151364732Y-132878286D01*
X151327062Y-132932087D01*
X151237496Y-133124161D01*
X151182643Y-133328876D01*
X151164172Y-133539999D01*
X141000000Y-133539999D01*
X141000000Y-133374000D01*
X141016613Y-133312000D01*
X141062000Y-133266613D01*
X141124000Y-133250000D01*
X149000000Y-133250000D01*
X149000000Y-132524732D01*
X151718286Y-132524732D01*
X152380000Y-133186446D01*
X152380001Y-133186446D01*
X153041712Y-132524733D01*
X152987911Y-132487062D01*
X152795838Y-132397496D01*
X152591123Y-132342643D01*
X152380000Y-132324172D01*
X152168876Y-132342643D01*
X151964161Y-132397496D01*
X151772087Y-132487062D01*
X151718286Y-132524732D01*
X149000000Y-132524732D01*
X149000000Y-130999999D01*
X151463278Y-130999999D01*
X151483311Y-131190598D01*
X151542532Y-131372864D01*
X151638355Y-131538836D01*
X151766593Y-131681258D01*
X151921637Y-131793904D01*
X152096719Y-131871855D01*
X152284174Y-131911700D01*
X152284176Y-131911700D01*
X152475824Y-131911700D01*
X152475826Y-131911700D01*
X152663280Y-131871855D01*
X152663281Y-131871854D01*
X152663283Y-131871854D01*
X152838361Y-131793905D01*
X152950845Y-131712180D01*
X152993406Y-131681258D01*
X153121644Y-131538836D01*
X153217467Y-131372864D01*
X153244400Y-131289972D01*
X153276689Y-131190597D01*
X153296722Y-131000000D01*
X153296722Y-130999999D01*
X154003278Y-130999999D01*
X154023311Y-131190598D01*
X154082532Y-131372864D01*
X154178355Y-131538836D01*
X154306593Y-131681258D01*
X154461637Y-131793904D01*
X154636719Y-131871855D01*
X154824174Y-131911700D01*
X154824176Y-131911700D01*
X155015824Y-131911700D01*
X155015826Y-131911700D01*
X155203280Y-131871855D01*
X155203281Y-131871854D01*
X155203283Y-131871854D01*
X155378361Y-131793905D01*
X155490845Y-131712180D01*
X155533406Y-131681258D01*
X155661644Y-131538836D01*
X155757467Y-131372864D01*
X155784400Y-131289972D01*
X155816689Y-131190597D01*
X155836722Y-131000000D01*
X155836722Y-130999999D01*
X156543278Y-130999999D01*
X156563311Y-131190598D01*
X156622532Y-131372864D01*
X156718355Y-131538836D01*
X156846593Y-131681258D01*
X157001637Y-131793904D01*
X157176719Y-131871855D01*
X157364174Y-131911700D01*
X157364176Y-131911700D01*
X157555824Y-131911700D01*
X157555826Y-131911700D01*
X157743280Y-131871855D01*
X157743281Y-131871854D01*
X157743283Y-131871854D01*
X157918361Y-131793905D01*
X158030845Y-131712180D01*
X158073406Y-131681258D01*
X158201644Y-131538836D01*
X158297467Y-131372864D01*
X158324400Y-131289972D01*
X158356689Y-131190597D01*
X158376722Y-131000000D01*
X158376722Y-130999999D01*
X159083278Y-130999999D01*
X159103311Y-131190598D01*
X159162532Y-131372864D01*
X159258355Y-131538836D01*
X159386593Y-131681258D01*
X159541637Y-131793904D01*
X159716719Y-131871855D01*
X159904174Y-131911700D01*
X159904176Y-131911700D01*
X160095824Y-131911700D01*
X160095826Y-131911700D01*
X160283280Y-131871855D01*
X160283281Y-131871854D01*
X160283283Y-131871854D01*
X160458361Y-131793905D01*
X160570845Y-131712180D01*
X160613406Y-131681258D01*
X160741644Y-131538836D01*
X160837467Y-131372864D01*
X160864400Y-131289972D01*
X160896689Y-131190597D01*
X160916722Y-131000000D01*
X160916722Y-130999999D01*
X161623278Y-130999999D01*
X161643311Y-131190598D01*
X161702532Y-131372864D01*
X161798355Y-131538836D01*
X161926593Y-131681258D01*
X162081637Y-131793904D01*
X162256719Y-131871855D01*
X162444174Y-131911700D01*
X162444176Y-131911700D01*
X162635824Y-131911700D01*
X162635826Y-131911700D01*
X162823280Y-131871855D01*
X162823281Y-131871854D01*
X162823283Y-131871854D01*
X162998361Y-131793905D01*
X163110845Y-131712180D01*
X163153406Y-131681258D01*
X163281644Y-131538836D01*
X163377467Y-131372864D01*
X163404400Y-131289972D01*
X163436689Y-131190597D01*
X163456722Y-131000000D01*
X163436689Y-130809403D01*
X163377467Y-130627136D01*
X163377467Y-130627135D01*
X163281644Y-130461163D01*
X163153406Y-130318741D01*
X162998362Y-130206095D01*
X162823280Y-130128144D01*
X162635826Y-130088300D01*
X162635824Y-130088300D01*
X162444176Y-130088300D01*
X162444174Y-130088300D01*
X162256719Y-130128144D01*
X162081637Y-130206095D01*
X161926593Y-130318741D01*
X161798355Y-130461163D01*
X161702532Y-130627135D01*
X161643311Y-130809401D01*
X161623278Y-130999999D01*
X160916722Y-130999999D01*
X160896689Y-130809403D01*
X160837467Y-130627136D01*
X160837467Y-130627135D01*
X160741644Y-130461163D01*
X160613406Y-130318741D01*
X160458362Y-130206095D01*
X160283280Y-130128144D01*
X160095826Y-130088300D01*
X160095824Y-130088300D01*
X159904176Y-130088300D01*
X159904174Y-130088300D01*
X159716719Y-130128144D01*
X159541637Y-130206095D01*
X159386593Y-130318741D01*
X159258355Y-130461163D01*
X159162532Y-130627135D01*
X159103311Y-130809401D01*
X159083278Y-130999999D01*
X158376722Y-130999999D01*
X158356689Y-130809403D01*
X158297467Y-130627136D01*
X158297467Y-130627135D01*
X158201644Y-130461163D01*
X158073406Y-130318741D01*
X157918362Y-130206095D01*
X157743280Y-130128144D01*
X157555826Y-130088300D01*
X157555824Y-130088300D01*
X157364176Y-130088300D01*
X157364174Y-130088300D01*
X157176719Y-130128144D01*
X157001637Y-130206095D01*
X156846593Y-130318741D01*
X156718355Y-130461163D01*
X156622532Y-130627135D01*
X156563311Y-130809401D01*
X156543278Y-130999999D01*
X155836722Y-130999999D01*
X155816689Y-130809403D01*
X155757467Y-130627136D01*
X155757467Y-130627135D01*
X155661644Y-130461163D01*
X155533406Y-130318741D01*
X155378362Y-130206095D01*
X155203280Y-130128144D01*
X155015826Y-130088300D01*
X155015824Y-130088300D01*
X154824176Y-130088300D01*
X154824174Y-130088300D01*
X154636719Y-130128144D01*
X154461637Y-130206095D01*
X154306593Y-130318741D01*
X154178355Y-130461163D01*
X154082532Y-130627135D01*
X154023311Y-130809401D01*
X154003278Y-130999999D01*
X153296722Y-130999999D01*
X153276689Y-130809403D01*
X153217467Y-130627136D01*
X153217467Y-130627135D01*
X153121644Y-130461163D01*
X152993406Y-130318741D01*
X152838362Y-130206095D01*
X152663280Y-130128144D01*
X152475826Y-130088300D01*
X152475824Y-130088300D01*
X152284176Y-130088300D01*
X152284174Y-130088300D01*
X152096719Y-130128144D01*
X151921637Y-130206095D01*
X151766593Y-130318741D01*
X151638355Y-130461163D01*
X151542532Y-130627135D01*
X151483311Y-130809401D01*
X151463278Y-130999999D01*
X149000000Y-130999999D01*
X149000000Y-128899999D01*
X160894353Y-128899999D01*
X160914834Y-129042457D01*
X160974623Y-129173374D01*
X160997694Y-129199999D01*
X161068872Y-129282143D01*
X161189947Y-129359953D01*
X161328039Y-129400500D01*
X161471961Y-129400500D01*
X161610053Y-129359953D01*
X161731128Y-129282143D01*
X161825377Y-129173373D01*
X161885165Y-129042457D01*
X161905647Y-128900000D01*
X161885165Y-128757543D01*
X161825377Y-128626627D01*
X161731128Y-128517857D01*
X161731126Y-128517856D01*
X161723945Y-128509568D01*
X161690667Y-128473824D01*
X161675500Y-128414398D01*
X161675500Y-127959603D01*
X161690667Y-127900177D01*
X161723945Y-127864432D01*
X161731124Y-127856146D01*
X161731128Y-127856144D01*
X161825377Y-127747374D01*
X161885165Y-127616458D01*
X161905647Y-127474001D01*
X161885165Y-127331544D01*
X161825377Y-127200628D01*
X161825376Y-127200627D01*
X161825376Y-127200626D01*
X161731129Y-127091859D01*
X161731128Y-127091858D01*
X161610053Y-127014048D01*
X161471961Y-126973501D01*
X161328039Y-126973501D01*
X161189947Y-127014048D01*
X161068870Y-127091859D01*
X160974623Y-127200626D01*
X160914834Y-127331543D01*
X160894353Y-127474000D01*
X160914834Y-127616458D01*
X160974622Y-127747373D01*
X161076054Y-127864432D01*
X161109333Y-127900177D01*
X161124500Y-127959603D01*
X161124500Y-128414398D01*
X161109333Y-128473824D01*
X161076054Y-128509568D01*
X160974622Y-128626627D01*
X160914834Y-128757542D01*
X160894353Y-128899999D01*
X149000000Y-128899999D01*
X149000000Y-125825500D01*
X162288098Y-125825500D01*
X162308579Y-125967957D01*
X162368367Y-126098872D01*
X162462617Y-126207643D01*
X162517540Y-126242940D01*
X162559332Y-126287828D01*
X162574500Y-126347255D01*
X162574500Y-128265112D01*
X162566682Y-128308445D01*
X162544213Y-128346314D01*
X162474623Y-128426625D01*
X162414834Y-128557542D01*
X162394353Y-128700000D01*
X162414834Y-128842457D01*
X162474623Y-128973374D01*
X162498128Y-129000500D01*
X162568872Y-129082143D01*
X162689947Y-129159953D01*
X162828039Y-129200500D01*
X162971961Y-129200500D01*
X162973667Y-129199999D01*
X164594353Y-129199999D01*
X164614834Y-129342457D01*
X164674623Y-129473374D01*
X164768870Y-129582141D01*
X164768872Y-129582143D01*
X164889947Y-129659953D01*
X165028039Y-129700500D01*
X165171961Y-129700500D01*
X165310053Y-129659953D01*
X165431128Y-129582143D01*
X165525377Y-129473373D01*
X165585165Y-129342457D01*
X165605647Y-129200000D01*
X165585165Y-129057543D01*
X165578275Y-129042457D01*
X165525377Y-128926627D01*
X165502304Y-128899999D01*
X165431128Y-128817857D01*
X165431126Y-128817856D01*
X165423945Y-128809568D01*
X165390667Y-128773824D01*
X165375500Y-128714398D01*
X165375500Y-128359104D01*
X165390667Y-128299678D01*
X165423945Y-128263933D01*
X165431124Y-128255647D01*
X165431128Y-128255645D01*
X165525377Y-128146875D01*
X165585165Y-128015959D01*
X165605647Y-127873502D01*
X165585165Y-127731045D01*
X165539997Y-127632143D01*
X165525376Y-127600127D01*
X165431129Y-127491360D01*
X165431128Y-127491359D01*
X165310053Y-127413549D01*
X165171961Y-127373002D01*
X165028039Y-127373002D01*
X164889947Y-127413549D01*
X164768870Y-127491360D01*
X164674623Y-127600127D01*
X164614834Y-127731044D01*
X164594353Y-127873501D01*
X164614834Y-128015959D01*
X164674622Y-128146874D01*
X164776054Y-128263933D01*
X164809333Y-128299678D01*
X164824500Y-128359104D01*
X164824500Y-128714398D01*
X164809333Y-128773824D01*
X164776054Y-128809568D01*
X164674622Y-128926627D01*
X164614834Y-129057542D01*
X164594353Y-129199999D01*
X162973667Y-129199999D01*
X163110053Y-129159953D01*
X163231128Y-129082143D01*
X163325377Y-128973373D01*
X163385165Y-128842457D01*
X163405647Y-128700000D01*
X163385165Y-128557543D01*
X163363255Y-128509568D01*
X163325376Y-128426625D01*
X163255787Y-128346314D01*
X163233318Y-128308445D01*
X163225500Y-128265112D01*
X163225500Y-126111882D01*
X163236706Y-126060370D01*
X163278910Y-125967957D01*
X163278909Y-125967957D01*
X163299392Y-125825500D01*
X163278910Y-125683043D01*
X163257316Y-125635760D01*
X163219121Y-125552125D01*
X163124874Y-125443358D01*
X163124873Y-125443357D01*
X163003798Y-125365547D01*
X162865706Y-125325000D01*
X162721784Y-125325000D01*
X162583692Y-125365547D01*
X162462615Y-125443358D01*
X162368368Y-125552125D01*
X162308579Y-125683042D01*
X162288098Y-125825500D01*
X149000000Y-125825500D01*
X149000000Y-123900000D01*
X169594354Y-123900000D01*
X169598596Y-123934927D01*
X169599500Y-123949874D01*
X169599500Y-123985059D01*
X169607919Y-124019220D01*
X169610617Y-124033942D01*
X169614858Y-124068867D01*
X169627337Y-124101772D01*
X169631785Y-124116048D01*
X169640210Y-124150225D01*
X169640210Y-124150226D01*
X169640211Y-124150227D01*
X169656559Y-124181377D01*
X169662702Y-124195026D01*
X169675181Y-124227929D01*
X169695172Y-124256891D01*
X169702918Y-124269705D01*
X169719265Y-124300851D01*
X169742590Y-124327180D01*
X169751823Y-124338965D01*
X169771814Y-124367925D01*
X169771817Y-124367929D01*
X169798156Y-124391263D01*
X169808739Y-124401847D01*
X169832068Y-124428181D01*
X169832071Y-124428183D01*
X169861038Y-124448178D01*
X169872802Y-124457394D01*
X169899148Y-124480734D01*
X169930297Y-124497082D01*
X169943113Y-124504830D01*
X169972068Y-124524817D01*
X169972069Y-124524817D01*
X169972070Y-124524818D01*
X170004975Y-124537297D01*
X170018610Y-124543433D01*
X170049775Y-124559790D01*
X170078180Y-124566791D01*
X170083937Y-124568210D01*
X170098233Y-124572665D01*
X170117439Y-124579948D01*
X170131128Y-124585140D01*
X170166055Y-124589380D01*
X170180779Y-124592078D01*
X170214944Y-124600500D01*
X170257628Y-124600500D01*
X170385056Y-124600500D01*
X176075079Y-124600500D01*
X176082566Y-124600726D01*
X176085706Y-124600915D01*
X176142606Y-124604358D01*
X176201782Y-124593513D01*
X176209181Y-124592387D01*
X176268872Y-124585140D01*
X176278335Y-124581550D01*
X176299958Y-124575522D01*
X176309932Y-124573695D01*
X176364808Y-124548996D01*
X176371673Y-124546152D01*
X176427930Y-124524818D01*
X176436270Y-124519060D01*
X176455819Y-124508035D01*
X176465057Y-124503878D01*
X176512413Y-124466775D01*
X176518420Y-124462355D01*
X176567929Y-124428183D01*
X176607823Y-124383150D01*
X176612924Y-124377731D01*
X176677731Y-124312924D01*
X176683151Y-124307822D01*
X176728183Y-124267929D01*
X176762358Y-124218416D01*
X176766779Y-124212407D01*
X176803877Y-124165057D01*
X176808033Y-124155820D01*
X176819058Y-124136273D01*
X176824818Y-124127930D01*
X176846154Y-124071668D01*
X176849014Y-124064766D01*
X176862888Y-124033942D01*
X176873694Y-124009932D01*
X176875519Y-123999970D01*
X176881545Y-123978348D01*
X176885140Y-123968872D01*
X176892389Y-123909163D01*
X176893516Y-123901761D01*
X176893839Y-123900000D01*
X176904357Y-123842606D01*
X176903745Y-123832490D01*
X176904422Y-123810065D01*
X176905645Y-123800000D01*
X176898391Y-123740260D01*
X176897718Y-123732851D01*
X176894086Y-123672804D01*
X176891071Y-123663131D01*
X176886360Y-123641184D01*
X176885140Y-123631128D01*
X176863806Y-123574876D01*
X176861372Y-123567820D01*
X176843477Y-123510391D01*
X176838239Y-123501727D01*
X176828410Y-123481541D01*
X176824819Y-123472072D01*
X176797207Y-123432071D01*
X176790638Y-123422554D01*
X176786593Y-123416298D01*
X176755472Y-123364816D01*
X176748308Y-123357652D01*
X176733942Y-123340415D01*
X176728183Y-123332071D01*
X176683145Y-123292171D01*
X176677707Y-123287051D01*
X176635183Y-123244527D01*
X176626506Y-123239281D01*
X176608438Y-123225986D01*
X176600853Y-123219266D01*
X176547608Y-123191321D01*
X176541086Y-123187642D01*
X176489605Y-123156521D01*
X176479927Y-123153505D01*
X176459197Y-123144918D01*
X176450226Y-123140210D01*
X176391823Y-123125814D01*
X176384612Y-123123804D01*
X176327197Y-123105913D01*
X176317082Y-123105302D01*
X176294897Y-123101925D01*
X176285058Y-123099500D01*
X176285056Y-123099500D01*
X176224910Y-123099500D01*
X176217423Y-123099274D01*
X176187582Y-123097469D01*
X176157394Y-123095643D01*
X176157393Y-123095643D01*
X176147430Y-123097469D01*
X176125078Y-123099500D01*
X176114943Y-123099500D01*
X176056552Y-123113891D01*
X176049233Y-123115462D01*
X175990068Y-123126305D01*
X175980820Y-123130467D01*
X175959616Y-123137783D01*
X175949778Y-123140208D01*
X175896516Y-123168162D01*
X175889785Y-123171439D01*
X175851715Y-123188574D01*
X175800821Y-123199500D01*
X170214944Y-123199500D01*
X170180779Y-123207920D01*
X170166057Y-123210617D01*
X170131130Y-123214858D01*
X170098227Y-123227336D01*
X170083940Y-123231788D01*
X170049773Y-123240210D01*
X170018613Y-123256563D01*
X170004966Y-123262705D01*
X169972068Y-123275182D01*
X169943108Y-123295171D01*
X169930301Y-123302913D01*
X169899148Y-123319264D01*
X169872807Y-123342599D01*
X169861028Y-123351827D01*
X169832069Y-123371817D01*
X169808737Y-123398153D01*
X169798153Y-123408737D01*
X169771817Y-123432069D01*
X169751827Y-123461028D01*
X169742599Y-123472807D01*
X169719264Y-123499148D01*
X169702913Y-123530301D01*
X169695171Y-123543108D01*
X169675182Y-123572068D01*
X169662705Y-123604966D01*
X169656563Y-123618613D01*
X169640210Y-123649773D01*
X169631788Y-123683940D01*
X169627336Y-123698227D01*
X169614858Y-123731130D01*
X169610617Y-123766057D01*
X169607920Y-123780779D01*
X169599500Y-123814944D01*
X169599500Y-123850126D01*
X169598596Y-123865073D01*
X169594354Y-123900000D01*
X149000000Y-123900000D01*
X149000000Y-121500000D01*
X137124000Y-121500000D01*
X137062000Y-121483387D01*
X137016613Y-121438000D01*
X137000000Y-121376000D01*
X137000000Y-119200000D01*
X159494353Y-119200000D01*
X159514834Y-119342457D01*
X159574623Y-119473374D01*
X159656876Y-119568299D01*
X159668872Y-119582143D01*
X159789947Y-119659953D01*
X159928039Y-119700500D01*
X160071961Y-119700500D01*
X160210053Y-119659953D01*
X160331128Y-119582143D01*
X160343125Y-119568297D01*
X160385325Y-119536706D01*
X160436838Y-119525500D01*
X163880373Y-119525500D01*
X163891180Y-119525971D01*
X163928807Y-119529264D01*
X163965324Y-119519478D01*
X163975830Y-119517149D01*
X164013045Y-119510588D01*
X164013047Y-119510586D01*
X164014112Y-119510399D01*
X164038799Y-119500173D01*
X164039682Y-119499554D01*
X164039684Y-119499554D01*
X164070625Y-119477887D01*
X164079722Y-119472091D01*
X164112455Y-119453194D01*
X164136738Y-119424253D01*
X164144023Y-119416301D01*
X164250298Y-119310029D01*
X164250299Y-119310026D01*
X164264524Y-119295802D01*
X164264526Y-119295798D01*
X166023506Y-117536819D01*
X166063735Y-117509939D01*
X166111188Y-117500500D01*
X166271961Y-117500500D01*
X166410053Y-117459953D01*
X166531128Y-117382143D01*
X166625377Y-117273373D01*
X166685165Y-117142457D01*
X166705647Y-117000000D01*
X166685165Y-116857543D01*
X166658008Y-116798079D01*
X166625376Y-116726625D01*
X166531129Y-116617858D01*
X166531128Y-116617857D01*
X166410053Y-116540047D01*
X166271961Y-116499500D01*
X166128039Y-116499500D01*
X165989947Y-116540047D01*
X165868870Y-116617858D01*
X165774623Y-116726625D01*
X165726525Y-116831945D01*
X165686616Y-116880752D01*
X165627865Y-116903625D01*
X165565461Y-116894652D01*
X165515534Y-116856152D01*
X165490993Y-116798079D01*
X165485165Y-116757542D01*
X165425376Y-116626625D01*
X165331129Y-116517858D01*
X165331128Y-116517857D01*
X165210053Y-116440047D01*
X165071961Y-116399500D01*
X164928039Y-116399500D01*
X164789947Y-116440047D01*
X164668870Y-116517858D01*
X164574623Y-116626625D01*
X164514834Y-116757542D01*
X164494353Y-116900000D01*
X164514834Y-117042457D01*
X164574623Y-117173374D01*
X164634428Y-117242393D01*
X164661881Y-117297237D01*
X164659692Y-117358530D01*
X164628396Y-117411276D01*
X163600994Y-118438680D01*
X163560766Y-118465560D01*
X163513313Y-118474999D01*
X163012950Y-118474999D01*
X162945911Y-118455314D01*
X162900156Y-118402511D01*
X162890212Y-118333352D01*
X162905647Y-118225999D01*
X162885165Y-118083542D01*
X162884526Y-118082143D01*
X162825376Y-117952624D01*
X162731130Y-117843857D01*
X162707725Y-117828816D01*
X162665095Y-117782368D01*
X162650815Y-117720960D01*
X162668576Y-117660467D01*
X162713789Y-117616528D01*
X162754911Y-117605718D01*
X162754854Y-117605523D01*
X162771960Y-117600500D01*
X162771961Y-117600500D01*
X162910053Y-117559953D01*
X163031128Y-117482143D01*
X163125377Y-117373373D01*
X163185165Y-117242457D01*
X163205647Y-117100000D01*
X163185165Y-116957543D01*
X163160541Y-116903625D01*
X163127719Y-116831755D01*
X163116513Y-116780243D01*
X163127719Y-116728730D01*
X163159312Y-116686528D01*
X163205578Y-116661266D01*
X163210053Y-116659953D01*
X163331128Y-116582143D01*
X163425377Y-116473373D01*
X163485165Y-116342457D01*
X163505647Y-116200000D01*
X163487062Y-116070735D01*
X163485165Y-116057542D01*
X163425376Y-115926625D01*
X163331129Y-115817858D01*
X163331128Y-115817857D01*
X163210053Y-115740047D01*
X163071961Y-115699500D01*
X163011188Y-115699500D01*
X162963735Y-115690061D01*
X162923507Y-115663181D01*
X162744043Y-115483717D01*
X162736734Y-115475741D01*
X162712454Y-115446805D01*
X162679736Y-115427915D01*
X162670627Y-115422112D01*
X162639684Y-115400446D01*
X162638803Y-115399829D01*
X162614107Y-115389599D01*
X162575852Y-115382853D01*
X162565296Y-115380512D01*
X162528807Y-115370735D01*
X162491180Y-115374028D01*
X162480372Y-115374500D01*
X160836838Y-115374500D01*
X160785325Y-115363294D01*
X160743125Y-115331702D01*
X160731128Y-115317857D01*
X160610053Y-115240047D01*
X160471961Y-115199500D01*
X160328039Y-115199500D01*
X160189947Y-115240047D01*
X160068870Y-115317858D01*
X159974623Y-115426625D01*
X159914834Y-115557542D01*
X159894353Y-115699999D01*
X159914834Y-115842457D01*
X159974623Y-115973374D01*
X160068870Y-116082141D01*
X160068872Y-116082143D01*
X160189947Y-116159953D01*
X160328039Y-116200500D01*
X160471961Y-116200500D01*
X160610053Y-116159953D01*
X160731128Y-116082143D01*
X160743125Y-116068297D01*
X160785325Y-116036706D01*
X160836838Y-116025500D01*
X162313812Y-116025500D01*
X162361265Y-116034939D01*
X162401493Y-116061819D01*
X162457559Y-116117885D01*
X162480762Y-116150062D01*
X162492616Y-116187919D01*
X162514834Y-116342457D01*
X162540652Y-116398988D01*
X162551542Y-116459345D01*
X162532174Y-116517539D01*
X162487285Y-116559332D01*
X162427858Y-116574500D01*
X161436838Y-116574500D01*
X161385325Y-116563294D01*
X161343125Y-116531702D01*
X161331128Y-116517857D01*
X161210053Y-116440047D01*
X161071961Y-116399500D01*
X160928039Y-116399500D01*
X160789947Y-116440047D01*
X160668870Y-116517858D01*
X160574623Y-116626625D01*
X160514834Y-116757542D01*
X160494353Y-116900000D01*
X160514834Y-117042457D01*
X160574623Y-117173374D01*
X160668870Y-117282141D01*
X160668872Y-117282143D01*
X160789947Y-117359953D01*
X160817340Y-117367996D01*
X160870086Y-117399291D01*
X160901383Y-117452037D01*
X160903573Y-117513329D01*
X160876121Y-117568174D01*
X160834025Y-117616756D01*
X160774237Y-117747671D01*
X160751669Y-117904640D01*
X160722644Y-117968196D01*
X160663866Y-118005970D01*
X160593997Y-118005970D01*
X160571962Y-117999500D01*
X160571961Y-117999500D01*
X160428039Y-117999500D01*
X160289947Y-118040047D01*
X160168870Y-118117858D01*
X160074623Y-118226625D01*
X160014834Y-118357542D01*
X159994353Y-118500000D01*
X160003897Y-118566384D01*
X159998339Y-118624587D01*
X159966729Y-118673773D01*
X159916094Y-118703007D01*
X159789947Y-118740046D01*
X159668870Y-118817858D01*
X159574623Y-118926625D01*
X159514834Y-119057542D01*
X159494353Y-119200000D01*
X137000000Y-119200000D01*
X137000000Y-116399999D01*
X146594353Y-116399999D01*
X146614834Y-116542457D01*
X146674623Y-116673374D01*
X146768870Y-116782141D01*
X146768872Y-116782143D01*
X146889947Y-116859953D01*
X147028039Y-116900500D01*
X147171961Y-116900500D01*
X147310053Y-116859953D01*
X147431128Y-116782143D01*
X147443125Y-116768297D01*
X147485325Y-116736706D01*
X147536838Y-116725500D01*
X151527096Y-116725500D01*
X151574549Y-116734939D01*
X151614777Y-116761819D01*
X152045343Y-117192385D01*
X152068546Y-117224562D01*
X152080400Y-117262420D01*
X152082706Y-117278460D01*
X152076149Y-117339440D01*
X152041170Y-117389819D01*
X151986326Y-117417272D01*
X151925034Y-117415083D01*
X151871962Y-117399500D01*
X151871961Y-117399500D01*
X151728039Y-117399500D01*
X151589947Y-117440047D01*
X151468870Y-117517858D01*
X151374623Y-117626625D01*
X151314834Y-117757542D01*
X151292616Y-117912079D01*
X151280762Y-117949936D01*
X151257560Y-117982112D01*
X151217279Y-118022394D01*
X151164532Y-118053691D01*
X151103239Y-118055880D01*
X151048393Y-118028426D01*
X151013415Y-117978046D01*
X151009641Y-117942937D01*
X151008184Y-117943147D01*
X150985165Y-117783042D01*
X150925376Y-117652125D01*
X150831129Y-117543358D01*
X150831128Y-117543357D01*
X150710053Y-117465547D01*
X150571961Y-117425000D01*
X150488347Y-117425000D01*
X150451059Y-117419261D01*
X150417225Y-117402575D01*
X150414184Y-117400446D01*
X150414182Y-117400445D01*
X150413302Y-117399829D01*
X150388604Y-117389599D01*
X150387545Y-117389412D01*
X150372885Y-117386826D01*
X150350352Y-117382853D01*
X150339796Y-117380512D01*
X150303307Y-117370735D01*
X150265680Y-117374028D01*
X150254872Y-117374500D01*
X149336838Y-117374500D01*
X149285325Y-117363294D01*
X149243125Y-117331702D01*
X149231128Y-117317857D01*
X149110053Y-117240047D01*
X148971961Y-117199500D01*
X148828039Y-117199500D01*
X148689947Y-117240047D01*
X148568870Y-117317858D01*
X148474623Y-117426625D01*
X148414834Y-117557542D01*
X148394353Y-117700000D01*
X148414834Y-117842457D01*
X148420187Y-117854177D01*
X148430131Y-117923335D01*
X148401107Y-117986891D01*
X148342329Y-118024666D01*
X148289947Y-118040047D01*
X148168870Y-118117858D01*
X148074623Y-118226625D01*
X148014834Y-118357542D01*
X147994353Y-118499999D01*
X148014834Y-118642457D01*
X148074623Y-118773374D01*
X148156876Y-118868299D01*
X148168872Y-118882143D01*
X148289947Y-118959953D01*
X148428039Y-119000500D01*
X148571961Y-119000500D01*
X148710053Y-118959953D01*
X148831128Y-118882143D01*
X148843125Y-118868297D01*
X148885325Y-118836706D01*
X148936838Y-118825500D01*
X151180373Y-118825500D01*
X151191180Y-118825971D01*
X151228807Y-118829264D01*
X151265324Y-118819478D01*
X151275830Y-118817149D01*
X151313045Y-118810588D01*
X151313047Y-118810586D01*
X151314112Y-118810399D01*
X151338799Y-118800173D01*
X151339682Y-118799554D01*
X151339684Y-118799554D01*
X151370625Y-118777887D01*
X151379722Y-118772091D01*
X151412455Y-118753194D01*
X151436748Y-118724241D01*
X151444024Y-118716300D01*
X151723509Y-118436816D01*
X151763735Y-118409939D01*
X151811188Y-118400500D01*
X151871961Y-118400500D01*
X152010053Y-118359953D01*
X152131128Y-118282143D01*
X152225377Y-118173373D01*
X152285165Y-118042457D01*
X152305647Y-117900000D01*
X152305077Y-117896038D01*
X152311633Y-117835061D01*
X152346612Y-117784681D01*
X152401457Y-117757227D01*
X152462747Y-117759415D01*
X152515823Y-117775000D01*
X152659745Y-117775000D01*
X152797837Y-117734453D01*
X152918912Y-117656643D01*
X153013161Y-117547873D01*
X153072949Y-117416957D01*
X153093431Y-117274500D01*
X153072949Y-117132043D01*
X153058315Y-117100000D01*
X153013160Y-117001125D01*
X152918913Y-116892358D01*
X152918912Y-116892357D01*
X152797837Y-116814547D01*
X152659745Y-116774000D01*
X152598972Y-116774000D01*
X152551519Y-116764561D01*
X152511291Y-116737681D01*
X151957327Y-116183717D01*
X151950018Y-116175741D01*
X151937125Y-116160376D01*
X151925739Y-116146806D01*
X151925738Y-116146805D01*
X151893020Y-116127915D01*
X151883911Y-116122112D01*
X151852968Y-116100446D01*
X151852087Y-116099829D01*
X151827391Y-116089599D01*
X151789136Y-116082853D01*
X151778580Y-116080512D01*
X151742091Y-116070735D01*
X151704464Y-116074028D01*
X151693656Y-116074500D01*
X147536838Y-116074500D01*
X147485325Y-116063294D01*
X147443125Y-116031702D01*
X147431128Y-116017857D01*
X147310053Y-115940047D01*
X147171961Y-115899500D01*
X147028039Y-115899500D01*
X146889947Y-115940047D01*
X146768870Y-116017858D01*
X146674623Y-116126625D01*
X146614834Y-116257542D01*
X146594353Y-116399999D01*
X137000000Y-116399999D01*
X137000000Y-116124000D01*
X137016613Y-116062000D01*
X137062000Y-116016613D01*
X137124000Y-116000000D01*
X141000000Y-116000000D01*
X141000000Y-112699999D01*
X148094353Y-112699999D01*
X148114834Y-112842457D01*
X148174623Y-112973374D01*
X148268870Y-113082141D01*
X148268872Y-113082143D01*
X148389947Y-113159953D01*
X148528039Y-113200500D01*
X148588812Y-113200500D01*
X148636265Y-113209939D01*
X148676493Y-113236819D01*
X150074350Y-114634676D01*
X150097552Y-114666851D01*
X150109406Y-114704707D01*
X150114834Y-114742455D01*
X150174623Y-114873374D01*
X150268870Y-114982141D01*
X150268872Y-114982143D01*
X150389947Y-115059953D01*
X150528039Y-115100500D01*
X150671961Y-115100500D01*
X150810053Y-115059953D01*
X150931128Y-114982143D01*
X151025377Y-114873373D01*
X151085165Y-114742457D01*
X151105647Y-114600000D01*
X151086648Y-114467857D01*
X151082952Y-114442146D01*
X151092896Y-114372988D01*
X151138651Y-114320184D01*
X151205690Y-114300500D01*
X151271961Y-114300500D01*
X151410053Y-114259953D01*
X151531128Y-114182143D01*
X151625377Y-114073373D01*
X151685165Y-113942457D01*
X151705647Y-113800000D01*
X151685165Y-113657543D01*
X151625377Y-113526627D01*
X151625376Y-113526626D01*
X151625376Y-113526625D01*
X151531129Y-113417858D01*
X151531128Y-113417857D01*
X151410053Y-113340047D01*
X151285148Y-113303372D01*
X151232402Y-113272076D01*
X149242440Y-111282114D01*
X149219237Y-111249937D01*
X149207383Y-111212079D01*
X149205646Y-111200002D01*
X149205647Y-111200000D01*
X149185165Y-111057543D01*
X149125377Y-110926627D01*
X149125376Y-110926626D01*
X149125376Y-110926625D01*
X149031129Y-110817858D01*
X149031128Y-110817857D01*
X148910053Y-110740047D01*
X148771961Y-110699500D01*
X148628039Y-110699500D01*
X148489947Y-110740047D01*
X148368870Y-110817858D01*
X148274623Y-110926625D01*
X148214834Y-111057542D01*
X148194353Y-111200000D01*
X148214834Y-111342457D01*
X148274623Y-111473374D01*
X148368870Y-111582141D01*
X148368872Y-111582143D01*
X148489947Y-111659953D01*
X148628039Y-111700500D01*
X148688812Y-111700500D01*
X148736265Y-111709939D01*
X148776493Y-111736819D01*
X150668729Y-113629055D01*
X150698702Y-113677576D01*
X150703786Y-113734381D01*
X150694352Y-113799998D01*
X150717048Y-113957854D01*
X150707104Y-114027012D01*
X150661349Y-114079816D01*
X150594310Y-114099500D01*
X150511188Y-114099500D01*
X150463735Y-114090061D01*
X150423507Y-114063181D01*
X149142440Y-112782114D01*
X149119237Y-112749937D01*
X149107383Y-112712079D01*
X149105646Y-112700002D01*
X149105647Y-112700000D01*
X149085165Y-112557543D01*
X149025377Y-112426627D01*
X149025376Y-112426626D01*
X149025376Y-112426625D01*
X148931129Y-112317858D01*
X148931128Y-112317857D01*
X148810053Y-112240047D01*
X148671961Y-112199500D01*
X148528039Y-112199500D01*
X148389947Y-112240047D01*
X148268870Y-112317858D01*
X148174623Y-112426625D01*
X148114834Y-112557542D01*
X148094353Y-112699999D01*
X141000000Y-112699999D01*
X141000000Y-107000000D01*
X129124000Y-107000000D01*
X129062000Y-106983387D01*
X129016613Y-106938000D01*
X129000000Y-106876000D01*
X129000000Y-105700000D01*
X148394353Y-105700000D01*
X148414834Y-105842457D01*
X148474623Y-105973374D01*
X148551261Y-106061819D01*
X148568872Y-106082143D01*
X148689947Y-106159953D01*
X148828039Y-106200500D01*
X148971961Y-106200500D01*
X149110053Y-106159953D01*
X149231128Y-106082143D01*
X149243125Y-106068297D01*
X149285325Y-106036706D01*
X149336838Y-106025500D01*
X153713812Y-106025500D01*
X153761265Y-106034939D01*
X153801493Y-106061819D01*
X154357559Y-106617885D01*
X154380762Y-106650062D01*
X154392616Y-106687919D01*
X154414834Y-106842457D01*
X154474623Y-106973374D01*
X154497695Y-107000000D01*
X154568872Y-107082143D01*
X154689947Y-107159953D01*
X154828039Y-107200500D01*
X154971961Y-107200500D01*
X155110053Y-107159953D01*
X155231128Y-107082143D01*
X155325377Y-106973373D01*
X155385165Y-106842457D01*
X155405647Y-106700000D01*
X155385165Y-106557543D01*
X155325377Y-106426627D01*
X155325376Y-106426626D01*
X155325376Y-106426625D01*
X155231129Y-106317858D01*
X155231128Y-106317857D01*
X155110053Y-106240047D01*
X154971961Y-106199500D01*
X154911188Y-106199500D01*
X154863735Y-106190061D01*
X154823507Y-106163181D01*
X154144043Y-105483717D01*
X154136734Y-105475741D01*
X154112454Y-105446805D01*
X154079736Y-105427915D01*
X154070627Y-105422112D01*
X154039684Y-105400446D01*
X154038803Y-105399829D01*
X154014107Y-105389599D01*
X153975852Y-105382853D01*
X153965296Y-105380512D01*
X153928807Y-105370735D01*
X153891180Y-105374028D01*
X153880372Y-105374500D01*
X149336838Y-105374500D01*
X149285325Y-105363294D01*
X149243125Y-105331702D01*
X149231128Y-105317857D01*
X149110053Y-105240047D01*
X148971961Y-105199500D01*
X148828039Y-105199500D01*
X148689947Y-105240047D01*
X148568870Y-105317858D01*
X148474623Y-105426625D01*
X148414834Y-105557542D01*
X148394353Y-105700000D01*
X129000000Y-105700000D01*
X129000000Y-104600000D01*
X149394353Y-104600000D01*
X149414834Y-104742457D01*
X149474623Y-104873374D01*
X149568870Y-104982141D01*
X149568872Y-104982143D01*
X149689947Y-105059953D01*
X149828039Y-105100500D01*
X149971961Y-105100500D01*
X150110053Y-105059953D01*
X150231128Y-104982143D01*
X150243125Y-104968297D01*
X150285325Y-104936706D01*
X150336838Y-104925500D01*
X154476512Y-104925500D01*
X154528024Y-104936706D01*
X154570225Y-104968298D01*
X154649644Y-105059953D01*
X154668872Y-105082143D01*
X154789947Y-105159953D01*
X154928039Y-105200500D01*
X155071961Y-105200500D01*
X155210053Y-105159953D01*
X155331128Y-105082143D01*
X155425377Y-104973373D01*
X155485165Y-104842457D01*
X155505647Y-104700000D01*
X155485165Y-104557543D01*
X155425377Y-104426627D01*
X155425376Y-104426626D01*
X155425376Y-104426625D01*
X155331129Y-104317858D01*
X155331128Y-104317857D01*
X155210053Y-104240047D01*
X155071961Y-104199500D01*
X154928039Y-104199500D01*
X154789947Y-104240047D01*
X154766968Y-104254815D01*
X154734863Y-104269477D01*
X154699928Y-104274500D01*
X150336838Y-104274500D01*
X150285325Y-104263294D01*
X150243125Y-104231702D01*
X150231128Y-104217857D01*
X150110053Y-104140047D01*
X149971961Y-104099500D01*
X149828039Y-104099500D01*
X149689947Y-104140047D01*
X149568870Y-104217858D01*
X149474623Y-104326625D01*
X149414834Y-104457542D01*
X149394353Y-104600000D01*
X129000000Y-104600000D01*
X129000000Y-103124000D01*
X129016613Y-103062000D01*
X129062000Y-103016613D01*
X129124000Y-103000000D01*
X142500000Y-103000000D01*
X142500000Y-100399999D01*
X149294353Y-100399999D01*
X149314834Y-100542457D01*
X149374623Y-100673374D01*
X149449644Y-100759953D01*
X149468872Y-100782143D01*
X149589947Y-100859953D01*
X149728039Y-100900500D01*
X149871961Y-100900500D01*
X150010053Y-100859953D01*
X150131128Y-100782143D01*
X150143125Y-100768297D01*
X150185325Y-100736706D01*
X150236838Y-100725500D01*
X154899928Y-100725500D01*
X154934863Y-100730523D01*
X154966966Y-100745184D01*
X154989947Y-100759953D01*
X155128039Y-100800500D01*
X155271961Y-100800500D01*
X155410053Y-100759953D01*
X155531128Y-100682143D01*
X155625377Y-100573373D01*
X155685165Y-100442457D01*
X155705647Y-100300000D01*
X155685165Y-100157543D01*
X155642122Y-100063294D01*
X155625376Y-100026625D01*
X155531129Y-99917858D01*
X155531128Y-99917857D01*
X155410053Y-99840047D01*
X155271961Y-99799500D01*
X155128039Y-99799500D01*
X154989947Y-99840047D01*
X154868870Y-99917858D01*
X154770225Y-100031702D01*
X154728024Y-100063294D01*
X154676512Y-100074500D01*
X150236838Y-100074500D01*
X150185325Y-100063294D01*
X150143125Y-100031702D01*
X150131128Y-100017857D01*
X150010053Y-99940047D01*
X149871961Y-99899500D01*
X149728039Y-99899500D01*
X149589947Y-99940047D01*
X149468870Y-100017858D01*
X149374623Y-100126625D01*
X149314834Y-100257542D01*
X149294353Y-100399999D01*
X142500000Y-100399999D01*
X142500000Y-97899999D01*
X149294353Y-97899999D01*
X149314834Y-98042457D01*
X149374623Y-98173374D01*
X149468870Y-98282141D01*
X149468872Y-98282143D01*
X149589947Y-98359953D01*
X149728039Y-98400500D01*
X149871961Y-98400500D01*
X150010053Y-98359953D01*
X150131128Y-98282143D01*
X150143125Y-98268297D01*
X150185325Y-98236706D01*
X150236838Y-98225500D01*
X154676512Y-98225500D01*
X154728024Y-98236706D01*
X154770225Y-98268298D01*
X154849644Y-98359953D01*
X154868872Y-98382143D01*
X154989947Y-98459953D01*
X155128039Y-98500500D01*
X155271961Y-98500500D01*
X155410053Y-98459953D01*
X155531128Y-98382143D01*
X155625377Y-98273373D01*
X155685165Y-98142457D01*
X155705647Y-98000000D01*
X155685165Y-97857543D01*
X155625377Y-97726627D01*
X155625376Y-97726626D01*
X155625376Y-97726625D01*
X155531129Y-97617858D01*
X155531128Y-97617857D01*
X155410053Y-97540047D01*
X155271961Y-97499500D01*
X155128039Y-97499500D01*
X154989947Y-97540047D01*
X154966968Y-97554815D01*
X154934863Y-97569477D01*
X154899928Y-97574500D01*
X150236838Y-97574500D01*
X150185325Y-97563294D01*
X150143125Y-97531702D01*
X150131128Y-97517857D01*
X150010053Y-97440047D01*
X149871961Y-97399500D01*
X149728039Y-97399500D01*
X149589947Y-97440047D01*
X149468870Y-97517858D01*
X149374623Y-97626625D01*
X149314834Y-97757542D01*
X149294353Y-97899999D01*
X142500000Y-97899999D01*
X142500000Y-92600000D01*
X148994353Y-92600000D01*
X149014834Y-92742457D01*
X149074623Y-92873374D01*
X149168870Y-92982141D01*
X149168872Y-92982143D01*
X149289947Y-93059953D01*
X149428039Y-93100500D01*
X149571961Y-93100500D01*
X149710053Y-93059953D01*
X149733033Y-93045184D01*
X149765137Y-93030523D01*
X149800072Y-93025500D01*
X151563162Y-93025500D01*
X151614675Y-93036706D01*
X151656874Y-93068297D01*
X151668872Y-93082143D01*
X151789947Y-93159953D01*
X151928039Y-93200500D01*
X152071961Y-93200500D01*
X152210053Y-93159953D01*
X152331128Y-93082143D01*
X152425377Y-92973373D01*
X152485165Y-92842457D01*
X152505647Y-92700000D01*
X152485165Y-92557543D01*
X152425377Y-92426627D01*
X152425376Y-92426626D01*
X152425376Y-92426625D01*
X152331129Y-92317858D01*
X152331128Y-92317857D01*
X152210053Y-92240047D01*
X152071961Y-92199500D01*
X151928039Y-92199500D01*
X151789947Y-92240047D01*
X151668873Y-92317856D01*
X151668872Y-92317856D01*
X151668872Y-92317857D01*
X151656874Y-92331702D01*
X151614675Y-92363294D01*
X151563162Y-92374500D01*
X150023488Y-92374500D01*
X149971976Y-92363294D01*
X149929775Y-92331702D01*
X149831129Y-92217858D01*
X149831128Y-92217857D01*
X149710053Y-92140047D01*
X149571961Y-92099500D01*
X149428039Y-92099500D01*
X149289947Y-92140047D01*
X149168870Y-92217858D01*
X149074623Y-92326625D01*
X149014834Y-92457542D01*
X148994353Y-92600000D01*
X142500000Y-92600000D01*
X142500000Y-90299999D01*
X149094353Y-90299999D01*
X149114834Y-90442457D01*
X149174623Y-90573374D01*
X149249644Y-90659953D01*
X149268872Y-90682143D01*
X149389947Y-90759953D01*
X149528039Y-90800500D01*
X149671961Y-90800500D01*
X149810053Y-90759953D01*
X149931128Y-90682143D01*
X149943125Y-90668297D01*
X149985325Y-90636706D01*
X150036838Y-90625500D01*
X151563162Y-90625500D01*
X151614675Y-90636706D01*
X151656874Y-90668297D01*
X151668872Y-90682143D01*
X151789947Y-90759953D01*
X151928039Y-90800500D01*
X152071961Y-90800500D01*
X152210053Y-90759953D01*
X152331128Y-90682143D01*
X152425377Y-90573373D01*
X152485165Y-90442457D01*
X152505647Y-90300000D01*
X152488109Y-90178023D01*
X152485165Y-90157542D01*
X152425376Y-90026625D01*
X152331129Y-89917858D01*
X152331128Y-89917857D01*
X152210053Y-89840047D01*
X152071961Y-89799500D01*
X151928039Y-89799500D01*
X151789947Y-89840047D01*
X151668873Y-89917856D01*
X151668872Y-89917856D01*
X151668872Y-89917857D01*
X151656874Y-89931702D01*
X151614675Y-89963294D01*
X151563162Y-89974500D01*
X150036838Y-89974500D01*
X149985325Y-89963294D01*
X149943125Y-89931702D01*
X149931128Y-89917857D01*
X149810053Y-89840047D01*
X149671961Y-89799500D01*
X149528039Y-89799500D01*
X149389947Y-89840047D01*
X149268870Y-89917858D01*
X149174623Y-90026625D01*
X149114834Y-90157542D01*
X149094353Y-90299999D01*
X142500000Y-90299999D01*
X142500000Y-87900000D01*
X148794353Y-87900000D01*
X148814834Y-88042457D01*
X148874623Y-88173374D01*
X148898128Y-88200500D01*
X148968872Y-88282143D01*
X149089947Y-88359953D01*
X149228039Y-88400500D01*
X149371961Y-88400500D01*
X149510053Y-88359953D01*
X149631128Y-88282143D01*
X149725377Y-88173373D01*
X149759805Y-88097988D01*
X149805560Y-88045184D01*
X149872599Y-88025500D01*
X151463162Y-88025500D01*
X151514675Y-88036706D01*
X151556874Y-88068297D01*
X151568872Y-88082143D01*
X151689947Y-88159953D01*
X151828039Y-88200500D01*
X151971961Y-88200500D01*
X152110053Y-88159953D01*
X152231128Y-88082143D01*
X152325377Y-87973373D01*
X152385165Y-87842457D01*
X152405647Y-87700000D01*
X152385165Y-87557543D01*
X152367041Y-87517858D01*
X152325376Y-87426625D01*
X152231129Y-87317858D01*
X152231128Y-87317857D01*
X152110053Y-87240047D01*
X151971961Y-87199500D01*
X151828039Y-87199500D01*
X151689947Y-87240047D01*
X151568873Y-87317856D01*
X151568872Y-87317856D01*
X151568872Y-87317857D01*
X151556874Y-87331702D01*
X151514675Y-87363294D01*
X151463162Y-87374500D01*
X149242605Y-87374500D01*
X149225614Y-87380683D01*
X149204748Y-87386273D01*
X149186956Y-87389410D01*
X149171306Y-87398446D01*
X149151724Y-87407577D01*
X149134740Y-87413759D01*
X149130531Y-87417291D01*
X149099416Y-87433962D01*
X148968869Y-87517858D01*
X148874623Y-87626625D01*
X148814834Y-87757542D01*
X148794353Y-87900000D01*
X142500000Y-87900000D01*
X142500000Y-85000000D01*
X148794353Y-85000000D01*
X148814834Y-85142457D01*
X148874623Y-85273374D01*
X148968870Y-85382141D01*
X148968872Y-85382143D01*
X149089947Y-85459953D01*
X149228039Y-85500500D01*
X149371961Y-85500500D01*
X149510053Y-85459953D01*
X149533033Y-85445184D01*
X149565137Y-85430523D01*
X149600072Y-85425500D01*
X151663162Y-85425500D01*
X151714675Y-85436706D01*
X151756874Y-85468297D01*
X151768872Y-85482143D01*
X151889947Y-85559953D01*
X152028039Y-85600500D01*
X152171961Y-85600500D01*
X152310053Y-85559953D01*
X152431128Y-85482143D01*
X152525377Y-85373373D01*
X152585165Y-85242457D01*
X152605647Y-85100000D01*
X152585165Y-84957543D01*
X152525377Y-84826627D01*
X152525376Y-84826626D01*
X152525376Y-84826625D01*
X152431129Y-84717858D01*
X152431128Y-84717857D01*
X152310053Y-84640047D01*
X152171961Y-84599500D01*
X152028039Y-84599500D01*
X151889947Y-84640047D01*
X151768873Y-84717856D01*
X151768872Y-84717856D01*
X151768872Y-84717857D01*
X151756874Y-84731702D01*
X151714675Y-84763294D01*
X151663162Y-84774500D01*
X149823488Y-84774500D01*
X149771976Y-84763294D01*
X149729775Y-84731702D01*
X149631129Y-84617858D01*
X149631128Y-84617857D01*
X149510053Y-84540047D01*
X149371961Y-84499500D01*
X149228039Y-84499500D01*
X149089947Y-84540047D01*
X148968870Y-84617858D01*
X148874623Y-84726625D01*
X148814834Y-84857542D01*
X148794353Y-85000000D01*
X142500000Y-85000000D01*
X142500000Y-82500000D01*
X139624000Y-82500000D01*
X139562000Y-82483387D01*
X139516613Y-82438000D01*
X139500000Y-82376000D01*
X139500000Y-81750000D01*
X149244353Y-81750000D01*
X149264834Y-81892457D01*
X149324623Y-82023374D01*
X149406876Y-82118299D01*
X149418872Y-82132143D01*
X149539947Y-82209953D01*
X149678039Y-82250500D01*
X149821961Y-82250500D01*
X149960053Y-82209953D01*
X150081128Y-82132143D01*
X150093125Y-82118297D01*
X150135325Y-82086706D01*
X150186838Y-82075500D01*
X150813162Y-82075500D01*
X150864675Y-82086706D01*
X150906874Y-82118297D01*
X150918872Y-82132143D01*
X151039947Y-82209953D01*
X151178039Y-82250500D01*
X151321961Y-82250500D01*
X151460053Y-82209953D01*
X151581128Y-82132143D01*
X151675377Y-82023373D01*
X151735165Y-81892457D01*
X151755647Y-81750000D01*
X151735165Y-81607543D01*
X151675377Y-81476627D01*
X151675376Y-81476626D01*
X151675376Y-81476625D01*
X151581129Y-81367858D01*
X151581128Y-81367857D01*
X151460053Y-81290047D01*
X151321961Y-81249500D01*
X151178039Y-81249500D01*
X151039947Y-81290047D01*
X150918873Y-81367856D01*
X150918872Y-81367856D01*
X150918872Y-81367857D01*
X150906874Y-81381702D01*
X150864675Y-81413294D01*
X150813162Y-81424500D01*
X150186838Y-81424500D01*
X150135325Y-81413294D01*
X150093125Y-81381702D01*
X150081128Y-81367857D01*
X149960053Y-81290047D01*
X149821961Y-81249500D01*
X149678039Y-81249500D01*
X149539947Y-81290047D01*
X149418870Y-81367858D01*
X149324623Y-81476625D01*
X149264834Y-81607542D01*
X149244353Y-81750000D01*
X139500000Y-81750000D01*
X139500000Y-79750000D01*
X142994353Y-79750000D01*
X143014834Y-79892457D01*
X143074623Y-80023374D01*
X143141020Y-80100000D01*
X143168872Y-80132143D01*
X143289947Y-80209953D01*
X143428039Y-80250500D01*
X143571961Y-80250500D01*
X143710053Y-80209953D01*
X143831128Y-80132143D01*
X143925377Y-80023373D01*
X143985165Y-79892457D01*
X144005647Y-79750000D01*
X143985165Y-79607543D01*
X143946725Y-79523373D01*
X143925376Y-79476625D01*
X143855787Y-79396314D01*
X143833318Y-79358445D01*
X143825500Y-79315112D01*
X143825500Y-78184888D01*
X143833318Y-78141555D01*
X143855787Y-78103686D01*
X143925376Y-78023374D01*
X143925375Y-78023374D01*
X143925377Y-78023373D01*
X143985165Y-77892457D01*
X144005647Y-77750000D01*
X143985165Y-77607543D01*
X143925377Y-77476627D01*
X143925376Y-77476626D01*
X143925376Y-77476625D01*
X143831129Y-77367858D01*
X143831128Y-77367857D01*
X143710053Y-77290047D01*
X143571961Y-77249500D01*
X143428039Y-77249500D01*
X143289947Y-77290047D01*
X143168870Y-77367858D01*
X143074623Y-77476625D01*
X143014834Y-77607542D01*
X142994353Y-77750000D01*
X143014834Y-77892457D01*
X143074623Y-78023374D01*
X143144213Y-78103686D01*
X143166682Y-78141555D01*
X143174500Y-78184888D01*
X143174500Y-79315112D01*
X143166682Y-79358445D01*
X143144213Y-79396314D01*
X143074623Y-79476625D01*
X143014834Y-79607542D01*
X142994353Y-79750000D01*
X139500000Y-79750000D01*
X139500000Y-78124000D01*
X139516613Y-78062000D01*
X139562000Y-78016613D01*
X139624000Y-78000000D01*
X142000000Y-78000000D01*
X142000000Y-71000000D01*
X139500000Y-71000000D01*
X139499999Y-71000000D01*
X136536319Y-73963681D01*
X136496091Y-73990561D01*
X136448638Y-74000000D01*
X135800000Y-74000000D01*
X135800000Y-76876000D01*
X135783387Y-76938000D01*
X135738000Y-76983387D01*
X135676000Y-77000000D01*
X132124000Y-77000000D01*
X132062000Y-76983387D01*
X132016613Y-76938000D01*
X132000000Y-76876000D01*
X132000000Y-73624000D01*
X132016613Y-73562000D01*
X132062000Y-73516613D01*
X132124000Y-73500000D01*
X132400000Y-73500000D01*
X133663739Y-72236260D01*
X133716483Y-72204966D01*
X133777775Y-72202777D01*
X133832620Y-72230229D01*
X133867599Y-72280608D01*
X133874156Y-72341588D01*
X133869352Y-72374998D01*
X133889834Y-72517457D01*
X133949623Y-72648374D01*
X134031876Y-72743299D01*
X134043872Y-72757143D01*
X134164947Y-72834953D01*
X134303039Y-72875500D01*
X134446961Y-72875500D01*
X134585053Y-72834953D01*
X134706128Y-72757143D01*
X134718125Y-72743297D01*
X134760325Y-72711706D01*
X134811838Y-72700500D01*
X135039811Y-72700500D01*
X135096106Y-72714015D01*
X135140129Y-72751615D01*
X135162284Y-72805102D01*
X135157742Y-72862818D01*
X135127492Y-72912181D01*
X134783714Y-73255958D01*
X134775741Y-73263264D01*
X134746806Y-73287544D01*
X134727914Y-73320264D01*
X134722106Y-73329380D01*
X134699831Y-73361193D01*
X134689597Y-73385899D01*
X134682852Y-73424148D01*
X134680512Y-73434704D01*
X134670735Y-73471192D01*
X134674028Y-73508820D01*
X134674500Y-73519628D01*
X134674500Y-75065112D01*
X134666682Y-75108445D01*
X134644213Y-75146314D01*
X134574623Y-75226625D01*
X134514834Y-75357542D01*
X134494353Y-75499999D01*
X134514834Y-75642457D01*
X134574623Y-75773374D01*
X134668870Y-75882141D01*
X134668872Y-75882143D01*
X134789947Y-75959953D01*
X134928039Y-76000500D01*
X135071961Y-76000500D01*
X135210053Y-75959953D01*
X135331128Y-75882143D01*
X135425377Y-75773373D01*
X135485165Y-75642457D01*
X135505647Y-75500000D01*
X135485165Y-75357543D01*
X135446725Y-75273373D01*
X135425376Y-75226625D01*
X135355787Y-75146314D01*
X135333318Y-75108445D01*
X135325500Y-75065112D01*
X135325500Y-73686188D01*
X135334939Y-73638735D01*
X135361819Y-73598507D01*
X135598507Y-73361819D01*
X135638735Y-73334939D01*
X135686188Y-73325500D01*
X136480373Y-73325500D01*
X136491180Y-73325971D01*
X136528807Y-73329264D01*
X136565324Y-73319478D01*
X136575830Y-73317149D01*
X136613045Y-73310588D01*
X136613047Y-73310586D01*
X136614112Y-73310399D01*
X136638799Y-73300173D01*
X136639682Y-73299554D01*
X136639684Y-73299554D01*
X136670625Y-73277887D01*
X136679722Y-73272091D01*
X136712455Y-73253194D01*
X136736748Y-73224241D01*
X136744036Y-73216288D01*
X138466290Y-71494034D01*
X138474258Y-71486734D01*
X138503192Y-71462457D01*
X138503192Y-71462456D01*
X138503194Y-71462455D01*
X138522091Y-71429722D01*
X138527887Y-71420625D01*
X138549554Y-71389684D01*
X138549554Y-71389682D01*
X138550173Y-71388799D01*
X138560399Y-71364112D01*
X138560586Y-71363047D01*
X138560588Y-71363045D01*
X138567149Y-71325830D01*
X138569478Y-71315324D01*
X138579264Y-71278807D01*
X138575971Y-71241176D01*
X138575500Y-71230370D01*
X138575500Y-71092286D01*
X138586706Y-71040774D01*
X138618298Y-70998573D01*
X138664566Y-70973309D01*
X138710053Y-70959953D01*
X138831128Y-70882143D01*
X138925377Y-70773373D01*
X138985165Y-70642457D01*
X139005647Y-70500000D01*
X138985165Y-70357543D01*
X138925377Y-70226627D01*
X138925376Y-70226626D01*
X138925376Y-70226625D01*
X138831129Y-70117858D01*
X138831128Y-70117857D01*
X138710053Y-70040047D01*
X138571961Y-69999500D01*
X138428039Y-69999500D01*
X138289945Y-70040047D01*
X138266539Y-70055090D01*
X138203926Y-70074696D01*
X138140073Y-70059607D01*
X138092858Y-70014048D01*
X138075500Y-69950775D01*
X138075500Y-68434888D01*
X138083318Y-68391555D01*
X138105787Y-68353686D01*
X138175376Y-68273374D01*
X138175375Y-68273374D01*
X138175377Y-68273373D01*
X138235165Y-68142457D01*
X138244010Y-68080937D01*
X152295630Y-68080937D01*
X152326443Y-68282071D01*
X152397113Y-68472886D01*
X152504745Y-68645568D01*
X152504748Y-68645571D01*
X152644941Y-68793053D01*
X152811951Y-68909295D01*
X152998942Y-68989540D01*
X153198259Y-69030500D01*
X153350740Y-69030500D01*
X153350742Y-69030500D01*
X153502438Y-69015074D01*
X153696588Y-68954159D01*
X153874502Y-68855409D01*
X154028895Y-68722866D01*
X154153448Y-68561958D01*
X154243060Y-68379271D01*
X154294063Y-68182285D01*
X154299203Y-68080937D01*
X157145630Y-68080937D01*
X157176443Y-68282071D01*
X157247113Y-68472886D01*
X157354745Y-68645568D01*
X157354748Y-68645571D01*
X157494941Y-68793053D01*
X157661951Y-68909295D01*
X157848942Y-68989540D01*
X158048259Y-69030500D01*
X158200740Y-69030500D01*
X158200742Y-69030500D01*
X158352438Y-69015074D01*
X158546588Y-68954159D01*
X158724502Y-68855409D01*
X158878895Y-68722866D01*
X159003448Y-68561958D01*
X159093060Y-68379271D01*
X159144063Y-68182285D01*
X159149871Y-68067764D01*
X171145787Y-68067764D01*
X171175413Y-68337016D01*
X171210935Y-68472887D01*
X171243928Y-68599088D01*
X171349870Y-68848390D01*
X171349871Y-68848392D01*
X171490982Y-69079611D01*
X171664253Y-69287818D01*
X171664255Y-69287820D01*
X171865998Y-69468582D01*
X172091910Y-69618044D01*
X172198211Y-69667875D01*
X172337177Y-69733021D01*
X172596562Y-69811058D01*
X172596569Y-69811060D01*
X172864561Y-69850500D01*
X173067631Y-69850500D01*
X173067634Y-69850500D01*
X173270156Y-69835677D01*
X173270156Y-69835676D01*
X173534553Y-69776780D01*
X173787558Y-69680014D01*
X174023777Y-69547441D01*
X174238177Y-69381888D01*
X174426186Y-69186881D01*
X174583799Y-68966579D01*
X174707656Y-68725675D01*
X174795118Y-68469305D01*
X174844319Y-68202933D01*
X174854212Y-67932235D01*
X174824586Y-67662982D01*
X174756072Y-67400912D01*
X174650130Y-67151610D01*
X174509018Y-66920390D01*
X174509017Y-66920388D01*
X174335746Y-66712181D01*
X174230758Y-66618112D01*
X174134002Y-66531418D01*
X173908090Y-66381956D01*
X173908086Y-66381954D01*
X173662822Y-66266978D01*
X173403437Y-66188941D01*
X173403431Y-66188940D01*
X173135439Y-66149500D01*
X172932369Y-66149500D01*
X172932366Y-66149500D01*
X172729843Y-66164322D01*
X172465449Y-66223219D01*
X172212441Y-66319986D01*
X171976223Y-66452559D01*
X171761825Y-66618109D01*
X171573813Y-66813120D01*
X171416201Y-67033420D01*
X171292342Y-67274329D01*
X171204881Y-67530695D01*
X171155680Y-67797066D01*
X171145787Y-68067764D01*
X159149871Y-68067764D01*
X159154369Y-67979064D01*
X159135752Y-67857542D01*
X159123556Y-67777928D01*
X159052886Y-67587113D01*
X158945254Y-67414431D01*
X158932403Y-67400912D01*
X158805059Y-67266947D01*
X158638049Y-67150705D01*
X158451058Y-67070460D01*
X158251741Y-67029500D01*
X158099258Y-67029500D01*
X158060710Y-67033420D01*
X157947559Y-67044926D01*
X157753412Y-67105841D01*
X157575500Y-67204589D01*
X157421104Y-67337135D01*
X157296551Y-67498042D01*
X157206940Y-67680727D01*
X157155937Y-67877716D01*
X157145630Y-68080937D01*
X154299203Y-68080937D01*
X154304369Y-67979064D01*
X154285752Y-67857542D01*
X154273556Y-67777928D01*
X154202886Y-67587113D01*
X154095254Y-67414431D01*
X154082403Y-67400912D01*
X153955059Y-67266947D01*
X153788049Y-67150705D01*
X153601058Y-67070460D01*
X153401741Y-67029500D01*
X153249258Y-67029500D01*
X153210710Y-67033420D01*
X153097559Y-67044926D01*
X152903412Y-67105841D01*
X152725500Y-67204589D01*
X152571104Y-67337135D01*
X152446551Y-67498042D01*
X152356940Y-67680727D01*
X152305937Y-67877716D01*
X152295630Y-68080937D01*
X138244010Y-68080937D01*
X138255647Y-68000000D01*
X138235165Y-67857543D01*
X138175377Y-67726627D01*
X138175376Y-67726626D01*
X138175376Y-67726625D01*
X138081129Y-67617858D01*
X138081128Y-67617857D01*
X137960053Y-67540047D01*
X137821961Y-67499500D01*
X137678039Y-67499500D01*
X137539947Y-67540047D01*
X137418870Y-67617858D01*
X137324623Y-67726625D01*
X137264834Y-67857542D01*
X137244353Y-68000000D01*
X137264834Y-68142457D01*
X137324623Y-68273374D01*
X137394213Y-68353686D01*
X137416682Y-68391555D01*
X137424500Y-68434888D01*
X137424500Y-70998832D01*
X137415061Y-71046285D01*
X137388181Y-71086513D01*
X136461513Y-72013181D01*
X136421285Y-72040061D01*
X136373832Y-72049500D01*
X134811838Y-72049500D01*
X134760325Y-72038294D01*
X134718125Y-72006702D01*
X134706128Y-71992857D01*
X134585053Y-71915047D01*
X134446961Y-71874500D01*
X134324862Y-71874500D01*
X134268567Y-71860985D01*
X134224544Y-71823385D01*
X134202389Y-71769898D01*
X134206931Y-71712182D01*
X134237181Y-71662819D01*
X135400001Y-70499999D01*
X136700000Y-69200000D01*
X136700000Y-65106608D01*
X151849500Y-65106608D01*
X151888679Y-65316198D01*
X151965701Y-65515017D01*
X152077947Y-65696301D01*
X152221594Y-65853873D01*
X152391747Y-65982368D01*
X152581827Y-66077014D01*
X152582611Y-66077405D01*
X152706132Y-66112550D01*
X152787689Y-66135756D01*
X152946805Y-66150500D01*
X152946806Y-66150500D01*
X153053194Y-66150500D01*
X153053195Y-66150500D01*
X153212310Y-66135756D01*
X153275217Y-66117857D01*
X153417389Y-66077405D01*
X153512430Y-66030080D01*
X153608252Y-65982368D01*
X153608255Y-65982366D01*
X153778407Y-65853872D01*
X153922052Y-65696302D01*
X154034298Y-65515019D01*
X154111321Y-65316198D01*
X154150500Y-65106610D01*
X154150500Y-65106608D01*
X157299500Y-65106608D01*
X157338679Y-65316198D01*
X157415701Y-65515017D01*
X157527947Y-65696301D01*
X157671594Y-65853873D01*
X157841747Y-65982368D01*
X158031827Y-66077014D01*
X158032611Y-66077405D01*
X158156132Y-66112550D01*
X158237689Y-66135756D01*
X158396805Y-66150500D01*
X158396806Y-66150500D01*
X158503194Y-66150500D01*
X158503195Y-66150500D01*
X158662310Y-66135756D01*
X158725217Y-66117857D01*
X158867389Y-66077405D01*
X158962430Y-66030080D01*
X159058252Y-65982368D01*
X159058255Y-65982366D01*
X159228407Y-65853872D01*
X159372052Y-65696302D01*
X159484298Y-65515019D01*
X159561321Y-65316198D01*
X159600500Y-65106610D01*
X159600500Y-64893390D01*
X159561321Y-64683802D01*
X159484298Y-64484981D01*
X159372052Y-64303698D01*
X159228407Y-64146128D01*
X159228406Y-64146127D01*
X159228405Y-64146126D01*
X159058252Y-64017631D01*
X158867390Y-63922595D01*
X158662310Y-63864243D01*
X158503195Y-63849500D01*
X158503194Y-63849500D01*
X158396806Y-63849500D01*
X158396805Y-63849500D01*
X158237689Y-63864243D01*
X158032609Y-63922595D01*
X157841747Y-64017631D01*
X157671594Y-64146126D01*
X157527947Y-64303698D01*
X157415701Y-64484982D01*
X157338679Y-64683801D01*
X157299500Y-64893392D01*
X157299500Y-65106608D01*
X154150500Y-65106608D01*
X154150500Y-64893390D01*
X154111321Y-64683802D01*
X154034298Y-64484981D01*
X153922052Y-64303698D01*
X153778407Y-64146128D01*
X153778406Y-64146127D01*
X153778405Y-64146126D01*
X153608252Y-64017631D01*
X153417390Y-63922595D01*
X153212310Y-63864243D01*
X153053195Y-63849500D01*
X153053194Y-63849500D01*
X152946806Y-63849500D01*
X152946805Y-63849500D01*
X152787689Y-63864243D01*
X152582609Y-63922595D01*
X152391747Y-64017631D01*
X152221594Y-64146126D01*
X152077947Y-64303698D01*
X151965701Y-64484982D01*
X151888679Y-64683801D01*
X151849500Y-64893392D01*
X151849500Y-65106608D01*
X136700000Y-65106608D01*
X136700000Y-63624000D01*
X136716613Y-63562000D01*
X136762000Y-63516613D01*
X136824000Y-63500000D01*
X177376000Y-63500000D01*
X177438000Y-63516613D01*
G37*
%TD.AperFunction*%
%TD*%
M02*
