%TF.GenerationSoftware,KiCad,Pcbnew,5.1.6-c6e7f7d~87~ubuntu18.04.1*%
%TF.CreationDate,2022-03-05T00:23:36+01:00*%
%TF.ProjectId,door_if2,646f6f72-5f69-4663-922e-6b696361645f,rev?*%
%TF.SameCoordinates,Original*%
%TF.FileFunction,Copper,L1,Top*%
%TF.FilePolarity,Positive*%
%FSLAX46Y46*%
G04 Gerber Fmt 4.6, Leading zero omitted, Abs format (unit mm)*
G04 Created by KiCad (PCBNEW 5.1.6-c6e7f7d~87~ubuntu18.04.1) date 2022-03-05 00:23:36*
%MOMM*%
%LPD*%
G01*
G04 APERTURE LIST*
%TA.AperFunction,SMDPad,CuDef*%
%ADD10R,3.500000X2.300000*%
%TD*%
%TA.AperFunction,ComponentPad*%
%ADD11O,3.500000X2.500000*%
%TD*%
%TA.AperFunction,ComponentPad*%
%ADD12C,1.800000*%
%TD*%
%TA.AperFunction,ComponentPad*%
%ADD13R,1.800000X1.800000*%
%TD*%
%TA.AperFunction,ComponentPad*%
%ADD14C,1.422400*%
%TD*%
%TA.AperFunction,SMDPad,CuDef*%
%ADD15R,1.000000X1.500000*%
%TD*%
%TA.AperFunction,SMDPad,CuDef*%
%ADD16R,1.300000X0.800000*%
%TD*%
%TA.AperFunction,ViaPad*%
%ADD17C,0.600000*%
%TD*%
%TA.AperFunction,ViaPad*%
%ADD18C,2.000000*%
%TD*%
%TA.AperFunction,Conductor*%
%ADD19C,0.150000*%
%TD*%
%TA.AperFunction,Conductor*%
%ADD20C,0.500000*%
%TD*%
%TA.AperFunction,Conductor*%
%ADD21C,2.000000*%
%TD*%
%TA.AperFunction,Conductor*%
%ADD22C,0.254000*%
%TD*%
G04 APERTURE END LIST*
%TO.P,D1,1*%
%TO.N,GND*%
%TA.AperFunction,SMDPad,CuDef*%
G36*
G01*
X144137500Y-77000000D02*
X143662500Y-77000000D01*
G75*
G02*
X143425000Y-76762500I0J237500D01*
G01*
X143425000Y-76187500D01*
G75*
G02*
X143662500Y-75950000I237500J0D01*
G01*
X144137500Y-75950000D01*
G75*
G02*
X144375000Y-76187500I0J-237500D01*
G01*
X144375000Y-76762500D01*
G75*
G02*
X144137500Y-77000000I-237500J0D01*
G01*
G37*
%TD.AperFunction*%
%TO.P,D1,2*%
%TO.N,Net-(D1-Pad2)*%
%TA.AperFunction,SMDPad,CuDef*%
G36*
G01*
X144137500Y-75250000D02*
X143662500Y-75250000D01*
G75*
G02*
X143425000Y-75012500I0J237500D01*
G01*
X143425000Y-74437500D01*
G75*
G02*
X143662500Y-74200000I237500J0D01*
G01*
X144137500Y-74200000D01*
G75*
G02*
X144375000Y-74437500I0J-237500D01*
G01*
X144375000Y-75012500D01*
G75*
G02*
X144137500Y-75250000I-237500J0D01*
G01*
G37*
%TD.AperFunction*%
%TD*%
D10*
%TO.P,D3,1*%
%TO.N,OUT1*%
X125300000Y-112000000D03*
%TO.P,D3,2*%
%TO.N,GNDA*%
X130700000Y-112000000D03*
%TD*%
%TO.P,D5,1*%
%TO.N,OUT2*%
X125300000Y-104600000D03*
%TO.P,D5,2*%
%TO.N,GNDA*%
X130700000Y-104600000D03*
%TD*%
%TO.P,D7,1*%
%TO.N,OUT3*%
X125300000Y-98000000D03*
%TO.P,D7,2*%
%TO.N,GNDA*%
X130700000Y-98000000D03*
%TD*%
%TO.P,D9,2*%
%TO.N,GNDA*%
X130700000Y-91000000D03*
%TO.P,D9,1*%
%TO.N,OUT4*%
X125300000Y-91000000D03*
%TD*%
D11*
%TO.P,J1,1*%
%TO.N,+12V*%
X136000000Y-108000000D03*
%TO.P,J1,2*%
%TO.N,OUT1*%
X136000000Y-104502420D03*
%TO.P,J1,3*%
%TO.N,OUT2*%
X136000000Y-101002300D03*
%TO.P,J1,4*%
%TO.N,OUT3*%
X136000000Y-97502180D03*
%TO.P,J1,5*%
%TO.N,OUT4*%
X136000000Y-94000000D03*
%TO.P,J1,6*%
%TO.N,IN7*%
X136000000Y-90500000D03*
%TO.P,J1,7*%
%TO.N,IN8*%
X136000000Y-87000000D03*
%TO.P,J1,8*%
%TO.N,GNDA*%
X136000000Y-83500000D03*
%TD*%
D12*
%TO.P,J2,26*%
%TO.N,O_LED*%
X119055001Y-65535001D03*
%TO.P,J2,25*%
%TO.N,GND*%
X119055001Y-68075001D03*
%TO.P,J2,24*%
%TO.N,SPI_CS*%
X116515001Y-65535001D03*
%TO.P,J2,23*%
%TO.N,SPI_CLK*%
X116515001Y-68075001D03*
%TO.P,J2,22*%
%TO.N,S_IN6*%
X113975001Y-65535001D03*
%TO.P,J2,21*%
%TO.N,SPI_MISO*%
X113975001Y-68075001D03*
%TO.P,J2,20*%
%TO.N,GND*%
X111435001Y-65535001D03*
%TO.P,J2,19*%
%TO.N,SPI_MOSI*%
X111435001Y-68075001D03*
%TO.P,J2,18*%
%TO.N,S_IN5*%
X108895001Y-65535001D03*
%TO.P,J2,17*%
%TO.N,+3V3*%
X108895001Y-68075001D03*
%TO.P,J2,16*%
%TO.N,S_IN4*%
X106355001Y-65535001D03*
%TO.P,J2,15*%
%TO.N,S_IN3*%
X106355001Y-68075001D03*
%TO.P,J2,14*%
%TO.N,GND*%
X103815001Y-65535001D03*
%TO.P,J2,13*%
%TO.N,S_IN8*%
X103815001Y-68075001D03*
%TO.P,J2,12*%
%TO.N,S_OUT3*%
X101275001Y-65535001D03*
%TO.P,J2,11*%
%TO.N,S_OUT2*%
X101275001Y-68075001D03*
%TO.P,J2,10*%
%TO.N,UART_RX*%
X98735001Y-65535001D03*
%TO.P,J2,9*%
%TO.N,GND*%
X98735001Y-68075001D03*
%TO.P,J2,8*%
%TO.N,UART_TX*%
X96195001Y-65535001D03*
%TO.P,J2,7*%
%TO.N,GPIO2*%
X96195001Y-68075001D03*
%TO.P,J2,6*%
%TO.N,GND*%
X93655001Y-65535001D03*
%TO.P,J2,5*%
%TO.N,I2C_SCL*%
X93655001Y-68075001D03*
%TO.P,J2,4*%
%TO.N,+5V*%
X91115001Y-65535001D03*
%TO.P,J2,3*%
%TO.N,I2C_SDA*%
X91115001Y-68075001D03*
%TO.P,J2,2*%
%TO.N,+5V*%
X88575001Y-65535001D03*
D13*
%TO.P,J2,1*%
%TO.N,+3V3*%
X88575001Y-68075001D03*
D12*
%TO.P,J2,27*%
%TO.N,GPIO0*%
X121595001Y-68075001D03*
%TO.P,J2,28*%
%TO.N,GPIO1*%
X121595001Y-65535001D03*
%TO.P,J2,29*%
%TO.N,GPIO3*%
X124135001Y-68075001D03*
%TO.P,J2,30*%
%TO.N,GND*%
X124135001Y-65535001D03*
%TO.P,J2,31*%
%TO.N,GPIO4*%
X126675001Y-68075001D03*
%TO.P,J2,32*%
%TO.N,GPIO5*%
X126675001Y-65535001D03*
%TO.P,J2,33*%
%TO.N,GPIO6*%
X129215001Y-68075001D03*
%TO.P,J2,34*%
%TO.N,GND*%
X129215001Y-65535001D03*
%TO.P,J2,35*%
%TO.N,S_OUT4*%
X131755001Y-68075001D03*
%TO.P,J2,36*%
%TO.N,S_OUT1*%
X131755001Y-65535001D03*
%TO.P,J2,37*%
%TO.N,S_IN7*%
X134295001Y-68075001D03*
%TO.P,J2,38*%
%TO.N,S_IN1*%
X134295001Y-65535001D03*
%TO.P,J2,39*%
%TO.N,GND*%
X136835001Y-68075001D03*
%TO.P,J2,40*%
%TO.N,S_IN2*%
X136835001Y-65535001D03*
%TD*%
D14*
%TO.P,J3,10*%
%TO.N,GND*%
X84920000Y-77270000D03*
%TO.P,J3,9*%
%TO.N,UART_TX*%
X84920000Y-74730000D03*
%TO.P,J3,8*%
%TO.N,UART_RX*%
X87460000Y-77270000D03*
%TO.P,J3,7*%
%TO.N,I2C_SDA*%
X87460000Y-74730000D03*
%TO.P,J3,6*%
%TO.N,I2C_SCL*%
X90000000Y-77270000D03*
%TO.P,J3,5*%
%TO.N,SPI_CLK*%
X90000000Y-74730000D03*
%TO.P,J3,4*%
%TO.N,SPI_MISO*%
X92540000Y-77270000D03*
%TO.P,J3,3*%
%TO.N,SPI_MOSI*%
X92540000Y-74730000D03*
%TO.P,J3,2*%
%TO.N,SPI_CS*%
X95080000Y-77270000D03*
%TO.P,J3,1*%
%TO.N,+3V3*%
X95080000Y-74730000D03*
%TD*%
D11*
%TO.P,J4,8*%
%TO.N,GNDA*%
X89000000Y-108500000D03*
%TO.P,J4,7*%
%TO.N,IN6*%
X89000000Y-105000000D03*
%TO.P,J4,6*%
%TO.N,IN5*%
X89000000Y-101500000D03*
%TO.P,J4,5*%
%TO.N,IN4*%
X89000000Y-98000000D03*
%TO.P,J4,4*%
%TO.N,IN3*%
X89000000Y-94497820D03*
%TO.P,J4,3*%
%TO.N,IN2*%
X89000000Y-90997700D03*
%TO.P,J4,2*%
%TO.N,IN1*%
X89000000Y-87497580D03*
%TO.P,J4,1*%
%TO.N,+12V*%
X89000000Y-84000000D03*
%TD*%
D14*
%TO.P,J5,1*%
%TO.N,+3V3*%
X117080000Y-74730000D03*
%TO.P,J5,2*%
%TO.N,GPIO0*%
X117080000Y-77270000D03*
%TO.P,J5,3*%
%TO.N,GPIO1*%
X114540000Y-74730000D03*
%TO.P,J5,4*%
%TO.N,GPIO2*%
X114540000Y-77270000D03*
%TO.P,J5,5*%
%TO.N,GPIO3*%
X112000000Y-74730000D03*
%TO.P,J5,6*%
%TO.N,GPIO4*%
X112000000Y-77270000D03*
%TO.P,J5,7*%
%TO.N,GPIO5*%
X109460000Y-74730000D03*
%TO.P,J5,8*%
%TO.N,GPIO6*%
X109460000Y-77270000D03*
%TO.P,J5,9*%
%TO.N,+5V*%
X106920000Y-74730000D03*
%TO.P,J5,10*%
%TO.N,GND*%
X106920000Y-77270000D03*
%TD*%
D15*
%TO.P,JP1,3*%
%TO.N,IN1*%
X93700000Y-85800000D03*
%TO.P,JP1,2*%
%TO.N,Net-(JP1-Pad2)*%
X95000000Y-85800000D03*
%TO.P,JP1,1*%
%TO.N,+12V*%
X96300000Y-85800000D03*
%TD*%
%TO.P,JP2,3*%
%TO.N,IN1*%
X93700000Y-88500000D03*
%TO.P,JP2,2*%
%TO.N,Net-(JP2-Pad2)*%
X95000000Y-88500000D03*
%TO.P,JP2,1*%
%TO.N,GNDA*%
X96300000Y-88500000D03*
%TD*%
%TO.P,JP3,1*%
%TO.N,+12V*%
X96300000Y-91300000D03*
%TO.P,JP3,2*%
%TO.N,Net-(JP3-Pad2)*%
X95000000Y-91300000D03*
%TO.P,JP3,3*%
%TO.N,IN2*%
X93700000Y-91300000D03*
%TD*%
%TO.P,JP4,3*%
%TO.N,IN2*%
X93700000Y-94000000D03*
%TO.P,JP4,2*%
%TO.N,Net-(JP4-Pad2)*%
X95000000Y-94000000D03*
%TO.P,JP4,1*%
%TO.N,GNDA*%
X96300000Y-94000000D03*
%TD*%
%TO.P,JP5,1*%
%TO.N,+12V*%
X96400000Y-96800000D03*
%TO.P,JP5,2*%
%TO.N,Net-(JP5-Pad2)*%
X95100000Y-96800000D03*
%TO.P,JP5,3*%
%TO.N,IN3*%
X93800000Y-96800000D03*
%TD*%
%TO.P,JP6,3*%
%TO.N,IN3*%
X93700000Y-99700000D03*
%TO.P,JP6,2*%
%TO.N,Net-(JP6-Pad2)*%
X95000000Y-99700000D03*
%TO.P,JP6,1*%
%TO.N,GNDA*%
X96300000Y-99700000D03*
%TD*%
%TO.P,JP7,3*%
%TO.N,IN4*%
X93700000Y-102600000D03*
%TO.P,JP7,2*%
%TO.N,Net-(JP7-Pad2)*%
X95000000Y-102600000D03*
%TO.P,JP7,1*%
%TO.N,+12V*%
X96300000Y-102600000D03*
%TD*%
%TO.P,JP8,1*%
%TO.N,GNDA*%
X96300000Y-105600000D03*
%TO.P,JP8,2*%
%TO.N,Net-(JP8-Pad2)*%
X95000000Y-105600000D03*
%TO.P,JP8,3*%
%TO.N,IN4*%
X93700000Y-105600000D03*
%TD*%
%TO.P,JP9,1*%
%TO.N,+12V*%
X96200000Y-108300000D03*
%TO.P,JP9,2*%
%TO.N,Net-(JP9-Pad2)*%
X94900000Y-108300000D03*
%TO.P,JP9,3*%
%TO.N,IN5*%
X93600000Y-108300000D03*
%TD*%
%TO.P,JP10,3*%
%TO.N,IN5*%
X93500000Y-111100000D03*
%TO.P,JP10,2*%
%TO.N,Net-(JP10-Pad2)*%
X94800000Y-111100000D03*
%TO.P,JP10,1*%
%TO.N,GNDA*%
X96100000Y-111100000D03*
%TD*%
%TO.P,JP11,1*%
%TO.N,+12V*%
X96100000Y-114000000D03*
%TO.P,JP11,2*%
%TO.N,Net-(JP11-Pad2)*%
X94800000Y-114000000D03*
%TO.P,JP11,3*%
%TO.N,IN6*%
X93500000Y-114000000D03*
%TD*%
%TO.P,JP12,3*%
%TO.N,IN6*%
X93500000Y-116900000D03*
%TO.P,JP12,2*%
%TO.N,Net-(JP12-Pad2)*%
X94800000Y-116900000D03*
%TO.P,JP12,1*%
%TO.N,GNDA*%
X96100000Y-116900000D03*
%TD*%
%TO.P,JP17,1*%
%TO.N,+12V*%
X111500000Y-112000000D03*
%TO.P,JP17,2*%
%TO.N,Net-(JP17-Pad2)*%
X112800000Y-112000000D03*
%TO.P,JP17,3*%
%TO.N,Net-(JP17-Pad3)*%
X114100000Y-112000000D03*
%TD*%
%TO.P,JP18,3*%
%TO.N,GNDA*%
X111500000Y-109300000D03*
%TO.P,JP18,2*%
%TO.N,Net-(JP18-Pad2)*%
X112800000Y-109300000D03*
%TO.P,JP18,1*%
%TO.N,Net-(JP18-Pad1)*%
X114100000Y-109300000D03*
%TD*%
%TO.P,JP19,3*%
%TO.N,Net-(JP19-Pad3)*%
X114100000Y-104400000D03*
%TO.P,JP19,2*%
%TO.N,Net-(JP19-Pad2)*%
X112800000Y-104400000D03*
%TO.P,JP19,1*%
%TO.N,+12V*%
X111500000Y-104400000D03*
%TD*%
%TO.P,JP20,1*%
%TO.N,Net-(JP20-Pad1)*%
X114100000Y-101700000D03*
%TO.P,JP20,2*%
%TO.N,Net-(JP20-Pad2)*%
X112800000Y-101700000D03*
%TO.P,JP20,3*%
%TO.N,GNDA*%
X111500000Y-101700000D03*
%TD*%
%TO.P,JP21,1*%
%TO.N,+12V*%
X111500000Y-97300000D03*
%TO.P,JP21,2*%
%TO.N,Net-(JP21-Pad2)*%
X112800000Y-97300000D03*
%TO.P,JP21,3*%
%TO.N,Net-(JP21-Pad3)*%
X114100000Y-97300000D03*
%TD*%
%TO.P,JP22,1*%
%TO.N,Net-(JP22-Pad1)*%
X114100000Y-94600000D03*
%TO.P,JP22,2*%
%TO.N,Net-(JP22-Pad2)*%
X112800000Y-94600000D03*
%TO.P,JP22,3*%
%TO.N,GNDA*%
X111500000Y-94600000D03*
%TD*%
%TO.P,JP23,1*%
%TO.N,+12V*%
X111500000Y-90400000D03*
%TO.P,JP23,2*%
%TO.N,Net-(JP23-Pad2)*%
X112800000Y-90400000D03*
%TO.P,JP23,3*%
%TO.N,Net-(JP23-Pad3)*%
X114100000Y-90400000D03*
%TD*%
%TO.P,JP24,3*%
%TO.N,GNDA*%
X111500000Y-87700000D03*
%TO.P,JP24,2*%
%TO.N,Net-(JP24-Pad2)*%
X112800000Y-87700000D03*
%TO.P,JP24,1*%
%TO.N,Net-(JP24-Pad1)*%
X114100000Y-87700000D03*
%TD*%
%TO.P,Q1,1*%
%TO.N,GNDA*%
%TA.AperFunction,SMDPad,CuDef*%
G36*
G01*
X115750000Y-108245000D02*
X115750000Y-107945000D01*
G75*
G02*
X115900000Y-107795000I150000J0D01*
G01*
X117350000Y-107795000D01*
G75*
G02*
X117500000Y-107945000I0J-150000D01*
G01*
X117500000Y-108245000D01*
G75*
G02*
X117350000Y-108395000I-150000J0D01*
G01*
X115900000Y-108395000D01*
G75*
G02*
X115750000Y-108245000I0J150000D01*
G01*
G37*
%TD.AperFunction*%
%TO.P,Q1,2*%
%TO.N,Net-(JP18-Pad1)*%
%TA.AperFunction,SMDPad,CuDef*%
G36*
G01*
X115750000Y-109515000D02*
X115750000Y-109215000D01*
G75*
G02*
X115900000Y-109065000I150000J0D01*
G01*
X117350000Y-109065000D01*
G75*
G02*
X117500000Y-109215000I0J-150000D01*
G01*
X117500000Y-109515000D01*
G75*
G02*
X117350000Y-109665000I-150000J0D01*
G01*
X115900000Y-109665000D01*
G75*
G02*
X115750000Y-109515000I0J150000D01*
G01*
G37*
%TD.AperFunction*%
%TO.P,Q1,3*%
%TO.N,+12V*%
%TA.AperFunction,SMDPad,CuDef*%
G36*
G01*
X115750000Y-110785000D02*
X115750000Y-110485000D01*
G75*
G02*
X115900000Y-110335000I150000J0D01*
G01*
X117350000Y-110335000D01*
G75*
G02*
X117500000Y-110485000I0J-150000D01*
G01*
X117500000Y-110785000D01*
G75*
G02*
X117350000Y-110935000I-150000J0D01*
G01*
X115900000Y-110935000D01*
G75*
G02*
X115750000Y-110785000I0J150000D01*
G01*
G37*
%TD.AperFunction*%
%TO.P,Q1,4*%
%TO.N,Net-(JP17-Pad3)*%
%TA.AperFunction,SMDPad,CuDef*%
G36*
G01*
X115750000Y-112055000D02*
X115750000Y-111755000D01*
G75*
G02*
X115900000Y-111605000I150000J0D01*
G01*
X117350000Y-111605000D01*
G75*
G02*
X117500000Y-111755000I0J-150000D01*
G01*
X117500000Y-112055000D01*
G75*
G02*
X117350000Y-112205000I-150000J0D01*
G01*
X115900000Y-112205000D01*
G75*
G02*
X115750000Y-112055000I0J150000D01*
G01*
G37*
%TD.AperFunction*%
%TO.P,Q1,5*%
%TO.N,OUT1*%
%TA.AperFunction,SMDPad,CuDef*%
G36*
G01*
X120900000Y-112055000D02*
X120900000Y-111755000D01*
G75*
G02*
X121050000Y-111605000I150000J0D01*
G01*
X122500000Y-111605000D01*
G75*
G02*
X122650000Y-111755000I0J-150000D01*
G01*
X122650000Y-112055000D01*
G75*
G02*
X122500000Y-112205000I-150000J0D01*
G01*
X121050000Y-112205000D01*
G75*
G02*
X120900000Y-112055000I0J150000D01*
G01*
G37*
%TD.AperFunction*%
%TO.P,Q1,6*%
%TA.AperFunction,SMDPad,CuDef*%
G36*
G01*
X120900000Y-110785000D02*
X120900000Y-110485000D01*
G75*
G02*
X121050000Y-110335000I150000J0D01*
G01*
X122500000Y-110335000D01*
G75*
G02*
X122650000Y-110485000I0J-150000D01*
G01*
X122650000Y-110785000D01*
G75*
G02*
X122500000Y-110935000I-150000J0D01*
G01*
X121050000Y-110935000D01*
G75*
G02*
X120900000Y-110785000I0J150000D01*
G01*
G37*
%TD.AperFunction*%
%TO.P,Q1,7*%
%TA.AperFunction,SMDPad,CuDef*%
G36*
G01*
X120900000Y-109515000D02*
X120900000Y-109215000D01*
G75*
G02*
X121050000Y-109065000I150000J0D01*
G01*
X122500000Y-109065000D01*
G75*
G02*
X122650000Y-109215000I0J-150000D01*
G01*
X122650000Y-109515000D01*
G75*
G02*
X122500000Y-109665000I-150000J0D01*
G01*
X121050000Y-109665000D01*
G75*
G02*
X120900000Y-109515000I0J150000D01*
G01*
G37*
%TD.AperFunction*%
%TO.P,Q1,8*%
%TA.AperFunction,SMDPad,CuDef*%
G36*
G01*
X120900000Y-108245000D02*
X120900000Y-107945000D01*
G75*
G02*
X121050000Y-107795000I150000J0D01*
G01*
X122500000Y-107795000D01*
G75*
G02*
X122650000Y-107945000I0J-150000D01*
G01*
X122650000Y-108245000D01*
G75*
G02*
X122500000Y-108395000I-150000J0D01*
G01*
X121050000Y-108395000D01*
G75*
G02*
X120900000Y-108245000I0J150000D01*
G01*
G37*
%TD.AperFunction*%
%TD*%
%TO.P,Q2,8*%
%TO.N,OUT2*%
%TA.AperFunction,SMDPad,CuDef*%
G36*
G01*
X120900000Y-101145000D02*
X120900000Y-100845000D01*
G75*
G02*
X121050000Y-100695000I150000J0D01*
G01*
X122500000Y-100695000D01*
G75*
G02*
X122650000Y-100845000I0J-150000D01*
G01*
X122650000Y-101145000D01*
G75*
G02*
X122500000Y-101295000I-150000J0D01*
G01*
X121050000Y-101295000D01*
G75*
G02*
X120900000Y-101145000I0J150000D01*
G01*
G37*
%TD.AperFunction*%
%TO.P,Q2,7*%
%TA.AperFunction,SMDPad,CuDef*%
G36*
G01*
X120900000Y-102415000D02*
X120900000Y-102115000D01*
G75*
G02*
X121050000Y-101965000I150000J0D01*
G01*
X122500000Y-101965000D01*
G75*
G02*
X122650000Y-102115000I0J-150000D01*
G01*
X122650000Y-102415000D01*
G75*
G02*
X122500000Y-102565000I-150000J0D01*
G01*
X121050000Y-102565000D01*
G75*
G02*
X120900000Y-102415000I0J150000D01*
G01*
G37*
%TD.AperFunction*%
%TO.P,Q2,6*%
%TA.AperFunction,SMDPad,CuDef*%
G36*
G01*
X120900000Y-103685000D02*
X120900000Y-103385000D01*
G75*
G02*
X121050000Y-103235000I150000J0D01*
G01*
X122500000Y-103235000D01*
G75*
G02*
X122650000Y-103385000I0J-150000D01*
G01*
X122650000Y-103685000D01*
G75*
G02*
X122500000Y-103835000I-150000J0D01*
G01*
X121050000Y-103835000D01*
G75*
G02*
X120900000Y-103685000I0J150000D01*
G01*
G37*
%TD.AperFunction*%
%TO.P,Q2,5*%
%TA.AperFunction,SMDPad,CuDef*%
G36*
G01*
X120900000Y-104955000D02*
X120900000Y-104655000D01*
G75*
G02*
X121050000Y-104505000I150000J0D01*
G01*
X122500000Y-104505000D01*
G75*
G02*
X122650000Y-104655000I0J-150000D01*
G01*
X122650000Y-104955000D01*
G75*
G02*
X122500000Y-105105000I-150000J0D01*
G01*
X121050000Y-105105000D01*
G75*
G02*
X120900000Y-104955000I0J150000D01*
G01*
G37*
%TD.AperFunction*%
%TO.P,Q2,4*%
%TO.N,Net-(JP19-Pad3)*%
%TA.AperFunction,SMDPad,CuDef*%
G36*
G01*
X115750000Y-104955000D02*
X115750000Y-104655000D01*
G75*
G02*
X115900000Y-104505000I150000J0D01*
G01*
X117350000Y-104505000D01*
G75*
G02*
X117500000Y-104655000I0J-150000D01*
G01*
X117500000Y-104955000D01*
G75*
G02*
X117350000Y-105105000I-150000J0D01*
G01*
X115900000Y-105105000D01*
G75*
G02*
X115750000Y-104955000I0J150000D01*
G01*
G37*
%TD.AperFunction*%
%TO.P,Q2,3*%
%TO.N,+12V*%
%TA.AperFunction,SMDPad,CuDef*%
G36*
G01*
X115750000Y-103685000D02*
X115750000Y-103385000D01*
G75*
G02*
X115900000Y-103235000I150000J0D01*
G01*
X117350000Y-103235000D01*
G75*
G02*
X117500000Y-103385000I0J-150000D01*
G01*
X117500000Y-103685000D01*
G75*
G02*
X117350000Y-103835000I-150000J0D01*
G01*
X115900000Y-103835000D01*
G75*
G02*
X115750000Y-103685000I0J150000D01*
G01*
G37*
%TD.AperFunction*%
%TO.P,Q2,2*%
%TO.N,Net-(JP20-Pad1)*%
%TA.AperFunction,SMDPad,CuDef*%
G36*
G01*
X115750000Y-102415000D02*
X115750000Y-102115000D01*
G75*
G02*
X115900000Y-101965000I150000J0D01*
G01*
X117350000Y-101965000D01*
G75*
G02*
X117500000Y-102115000I0J-150000D01*
G01*
X117500000Y-102415000D01*
G75*
G02*
X117350000Y-102565000I-150000J0D01*
G01*
X115900000Y-102565000D01*
G75*
G02*
X115750000Y-102415000I0J150000D01*
G01*
G37*
%TD.AperFunction*%
%TO.P,Q2,1*%
%TO.N,GNDA*%
%TA.AperFunction,SMDPad,CuDef*%
G36*
G01*
X115750000Y-101145000D02*
X115750000Y-100845000D01*
G75*
G02*
X115900000Y-100695000I150000J0D01*
G01*
X117350000Y-100695000D01*
G75*
G02*
X117500000Y-100845000I0J-150000D01*
G01*
X117500000Y-101145000D01*
G75*
G02*
X117350000Y-101295000I-150000J0D01*
G01*
X115900000Y-101295000D01*
G75*
G02*
X115750000Y-101145000I0J150000D01*
G01*
G37*
%TD.AperFunction*%
%TD*%
%TO.P,Q3,8*%
%TO.N,OUT3*%
%TA.AperFunction,SMDPad,CuDef*%
G36*
G01*
X120900000Y-94245000D02*
X120900000Y-93945000D01*
G75*
G02*
X121050000Y-93795000I150000J0D01*
G01*
X122500000Y-93795000D01*
G75*
G02*
X122650000Y-93945000I0J-150000D01*
G01*
X122650000Y-94245000D01*
G75*
G02*
X122500000Y-94395000I-150000J0D01*
G01*
X121050000Y-94395000D01*
G75*
G02*
X120900000Y-94245000I0J150000D01*
G01*
G37*
%TD.AperFunction*%
%TO.P,Q3,7*%
%TA.AperFunction,SMDPad,CuDef*%
G36*
G01*
X120900000Y-95515000D02*
X120900000Y-95215000D01*
G75*
G02*
X121050000Y-95065000I150000J0D01*
G01*
X122500000Y-95065000D01*
G75*
G02*
X122650000Y-95215000I0J-150000D01*
G01*
X122650000Y-95515000D01*
G75*
G02*
X122500000Y-95665000I-150000J0D01*
G01*
X121050000Y-95665000D01*
G75*
G02*
X120900000Y-95515000I0J150000D01*
G01*
G37*
%TD.AperFunction*%
%TO.P,Q3,6*%
%TA.AperFunction,SMDPad,CuDef*%
G36*
G01*
X120900000Y-96785000D02*
X120900000Y-96485000D01*
G75*
G02*
X121050000Y-96335000I150000J0D01*
G01*
X122500000Y-96335000D01*
G75*
G02*
X122650000Y-96485000I0J-150000D01*
G01*
X122650000Y-96785000D01*
G75*
G02*
X122500000Y-96935000I-150000J0D01*
G01*
X121050000Y-96935000D01*
G75*
G02*
X120900000Y-96785000I0J150000D01*
G01*
G37*
%TD.AperFunction*%
%TO.P,Q3,5*%
%TA.AperFunction,SMDPad,CuDef*%
G36*
G01*
X120900000Y-98055000D02*
X120900000Y-97755000D01*
G75*
G02*
X121050000Y-97605000I150000J0D01*
G01*
X122500000Y-97605000D01*
G75*
G02*
X122650000Y-97755000I0J-150000D01*
G01*
X122650000Y-98055000D01*
G75*
G02*
X122500000Y-98205000I-150000J0D01*
G01*
X121050000Y-98205000D01*
G75*
G02*
X120900000Y-98055000I0J150000D01*
G01*
G37*
%TD.AperFunction*%
%TO.P,Q3,4*%
%TO.N,Net-(JP21-Pad3)*%
%TA.AperFunction,SMDPad,CuDef*%
G36*
G01*
X115750000Y-98055000D02*
X115750000Y-97755000D01*
G75*
G02*
X115900000Y-97605000I150000J0D01*
G01*
X117350000Y-97605000D01*
G75*
G02*
X117500000Y-97755000I0J-150000D01*
G01*
X117500000Y-98055000D01*
G75*
G02*
X117350000Y-98205000I-150000J0D01*
G01*
X115900000Y-98205000D01*
G75*
G02*
X115750000Y-98055000I0J150000D01*
G01*
G37*
%TD.AperFunction*%
%TO.P,Q3,3*%
%TO.N,+12V*%
%TA.AperFunction,SMDPad,CuDef*%
G36*
G01*
X115750000Y-96785000D02*
X115750000Y-96485000D01*
G75*
G02*
X115900000Y-96335000I150000J0D01*
G01*
X117350000Y-96335000D01*
G75*
G02*
X117500000Y-96485000I0J-150000D01*
G01*
X117500000Y-96785000D01*
G75*
G02*
X117350000Y-96935000I-150000J0D01*
G01*
X115900000Y-96935000D01*
G75*
G02*
X115750000Y-96785000I0J150000D01*
G01*
G37*
%TD.AperFunction*%
%TO.P,Q3,2*%
%TO.N,Net-(JP22-Pad1)*%
%TA.AperFunction,SMDPad,CuDef*%
G36*
G01*
X115750000Y-95515000D02*
X115750000Y-95215000D01*
G75*
G02*
X115900000Y-95065000I150000J0D01*
G01*
X117350000Y-95065000D01*
G75*
G02*
X117500000Y-95215000I0J-150000D01*
G01*
X117500000Y-95515000D01*
G75*
G02*
X117350000Y-95665000I-150000J0D01*
G01*
X115900000Y-95665000D01*
G75*
G02*
X115750000Y-95515000I0J150000D01*
G01*
G37*
%TD.AperFunction*%
%TO.P,Q3,1*%
%TO.N,GNDA*%
%TA.AperFunction,SMDPad,CuDef*%
G36*
G01*
X115750000Y-94245000D02*
X115750000Y-93945000D01*
G75*
G02*
X115900000Y-93795000I150000J0D01*
G01*
X117350000Y-93795000D01*
G75*
G02*
X117500000Y-93945000I0J-150000D01*
G01*
X117500000Y-94245000D01*
G75*
G02*
X117350000Y-94395000I-150000J0D01*
G01*
X115900000Y-94395000D01*
G75*
G02*
X115750000Y-94245000I0J150000D01*
G01*
G37*
%TD.AperFunction*%
%TD*%
%TO.P,Q4,1*%
%TO.N,GNDA*%
%TA.AperFunction,SMDPad,CuDef*%
G36*
G01*
X115750000Y-87345000D02*
X115750000Y-87045000D01*
G75*
G02*
X115900000Y-86895000I150000J0D01*
G01*
X117350000Y-86895000D01*
G75*
G02*
X117500000Y-87045000I0J-150000D01*
G01*
X117500000Y-87345000D01*
G75*
G02*
X117350000Y-87495000I-150000J0D01*
G01*
X115900000Y-87495000D01*
G75*
G02*
X115750000Y-87345000I0J150000D01*
G01*
G37*
%TD.AperFunction*%
%TO.P,Q4,2*%
%TO.N,Net-(JP24-Pad1)*%
%TA.AperFunction,SMDPad,CuDef*%
G36*
G01*
X115750000Y-88615000D02*
X115750000Y-88315000D01*
G75*
G02*
X115900000Y-88165000I150000J0D01*
G01*
X117350000Y-88165000D01*
G75*
G02*
X117500000Y-88315000I0J-150000D01*
G01*
X117500000Y-88615000D01*
G75*
G02*
X117350000Y-88765000I-150000J0D01*
G01*
X115900000Y-88765000D01*
G75*
G02*
X115750000Y-88615000I0J150000D01*
G01*
G37*
%TD.AperFunction*%
%TO.P,Q4,3*%
%TO.N,+12V*%
%TA.AperFunction,SMDPad,CuDef*%
G36*
G01*
X115750000Y-89885000D02*
X115750000Y-89585000D01*
G75*
G02*
X115900000Y-89435000I150000J0D01*
G01*
X117350000Y-89435000D01*
G75*
G02*
X117500000Y-89585000I0J-150000D01*
G01*
X117500000Y-89885000D01*
G75*
G02*
X117350000Y-90035000I-150000J0D01*
G01*
X115900000Y-90035000D01*
G75*
G02*
X115750000Y-89885000I0J150000D01*
G01*
G37*
%TD.AperFunction*%
%TO.P,Q4,4*%
%TO.N,Net-(JP23-Pad3)*%
%TA.AperFunction,SMDPad,CuDef*%
G36*
G01*
X115750000Y-91155000D02*
X115750000Y-90855000D01*
G75*
G02*
X115900000Y-90705000I150000J0D01*
G01*
X117350000Y-90705000D01*
G75*
G02*
X117500000Y-90855000I0J-150000D01*
G01*
X117500000Y-91155000D01*
G75*
G02*
X117350000Y-91305000I-150000J0D01*
G01*
X115900000Y-91305000D01*
G75*
G02*
X115750000Y-91155000I0J150000D01*
G01*
G37*
%TD.AperFunction*%
%TO.P,Q4,5*%
%TO.N,OUT4*%
%TA.AperFunction,SMDPad,CuDef*%
G36*
G01*
X120900000Y-91155000D02*
X120900000Y-90855000D01*
G75*
G02*
X121050000Y-90705000I150000J0D01*
G01*
X122500000Y-90705000D01*
G75*
G02*
X122650000Y-90855000I0J-150000D01*
G01*
X122650000Y-91155000D01*
G75*
G02*
X122500000Y-91305000I-150000J0D01*
G01*
X121050000Y-91305000D01*
G75*
G02*
X120900000Y-91155000I0J150000D01*
G01*
G37*
%TD.AperFunction*%
%TO.P,Q4,6*%
%TA.AperFunction,SMDPad,CuDef*%
G36*
G01*
X120900000Y-89885000D02*
X120900000Y-89585000D01*
G75*
G02*
X121050000Y-89435000I150000J0D01*
G01*
X122500000Y-89435000D01*
G75*
G02*
X122650000Y-89585000I0J-150000D01*
G01*
X122650000Y-89885000D01*
G75*
G02*
X122500000Y-90035000I-150000J0D01*
G01*
X121050000Y-90035000D01*
G75*
G02*
X120900000Y-89885000I0J150000D01*
G01*
G37*
%TD.AperFunction*%
%TO.P,Q4,7*%
%TA.AperFunction,SMDPad,CuDef*%
G36*
G01*
X120900000Y-88615000D02*
X120900000Y-88315000D01*
G75*
G02*
X121050000Y-88165000I150000J0D01*
G01*
X122500000Y-88165000D01*
G75*
G02*
X122650000Y-88315000I0J-150000D01*
G01*
X122650000Y-88615000D01*
G75*
G02*
X122500000Y-88765000I-150000J0D01*
G01*
X121050000Y-88765000D01*
G75*
G02*
X120900000Y-88615000I0J150000D01*
G01*
G37*
%TD.AperFunction*%
%TO.P,Q4,8*%
%TA.AperFunction,SMDPad,CuDef*%
G36*
G01*
X120900000Y-87345000D02*
X120900000Y-87045000D01*
G75*
G02*
X121050000Y-86895000I150000J0D01*
G01*
X122500000Y-86895000D01*
G75*
G02*
X122650000Y-87045000I0J-150000D01*
G01*
X122650000Y-87345000D01*
G75*
G02*
X122500000Y-87495000I-150000J0D01*
G01*
X121050000Y-87495000D01*
G75*
G02*
X120900000Y-87345000I0J150000D01*
G01*
G37*
%TD.AperFunction*%
%TD*%
%TO.P,R1,1*%
%TO.N,+3V3*%
%TA.AperFunction,SMDPad,CuDef*%
G36*
G01*
X107062500Y-81400000D02*
X107537500Y-81400000D01*
G75*
G02*
X107775000Y-81637500I0J-237500D01*
G01*
X107775000Y-82212500D01*
G75*
G02*
X107537500Y-82450000I-237500J0D01*
G01*
X107062500Y-82450000D01*
G75*
G02*
X106825000Y-82212500I0J237500D01*
G01*
X106825000Y-81637500D01*
G75*
G02*
X107062500Y-81400000I237500J0D01*
G01*
G37*
%TD.AperFunction*%
%TO.P,R1,2*%
%TO.N,S_IN1*%
%TA.AperFunction,SMDPad,CuDef*%
G36*
G01*
X107062500Y-83150000D02*
X107537500Y-83150000D01*
G75*
G02*
X107775000Y-83387500I0J-237500D01*
G01*
X107775000Y-83962500D01*
G75*
G02*
X107537500Y-84200000I-237500J0D01*
G01*
X107062500Y-84200000D01*
G75*
G02*
X106825000Y-83962500I0J237500D01*
G01*
X106825000Y-83387500D01*
G75*
G02*
X107062500Y-83150000I237500J0D01*
G01*
G37*
%TD.AperFunction*%
%TD*%
%TO.P,R2,1*%
%TO.N,+3V3*%
%TA.AperFunction,SMDPad,CuDef*%
G36*
G01*
X105462500Y-81400000D02*
X105937500Y-81400000D01*
G75*
G02*
X106175000Y-81637500I0J-237500D01*
G01*
X106175000Y-82212500D01*
G75*
G02*
X105937500Y-82450000I-237500J0D01*
G01*
X105462500Y-82450000D01*
G75*
G02*
X105225000Y-82212500I0J237500D01*
G01*
X105225000Y-81637500D01*
G75*
G02*
X105462500Y-81400000I237500J0D01*
G01*
G37*
%TD.AperFunction*%
%TO.P,R2,2*%
%TO.N,S_IN2*%
%TA.AperFunction,SMDPad,CuDef*%
G36*
G01*
X105462500Y-83150000D02*
X105937500Y-83150000D01*
G75*
G02*
X106175000Y-83387500I0J-237500D01*
G01*
X106175000Y-83962500D01*
G75*
G02*
X105937500Y-84200000I-237500J0D01*
G01*
X105462500Y-84200000D01*
G75*
G02*
X105225000Y-83962500I0J237500D01*
G01*
X105225000Y-83387500D01*
G75*
G02*
X105462500Y-83150000I237500J0D01*
G01*
G37*
%TD.AperFunction*%
%TD*%
%TO.P,R3,1*%
%TO.N,+3V3*%
%TA.AperFunction,SMDPad,CuDef*%
G36*
G01*
X103862500Y-81400000D02*
X104337500Y-81400000D01*
G75*
G02*
X104575000Y-81637500I0J-237500D01*
G01*
X104575000Y-82212500D01*
G75*
G02*
X104337500Y-82450000I-237500J0D01*
G01*
X103862500Y-82450000D01*
G75*
G02*
X103625000Y-82212500I0J237500D01*
G01*
X103625000Y-81637500D01*
G75*
G02*
X103862500Y-81400000I237500J0D01*
G01*
G37*
%TD.AperFunction*%
%TO.P,R3,2*%
%TO.N,S_IN3*%
%TA.AperFunction,SMDPad,CuDef*%
G36*
G01*
X103862500Y-83150000D02*
X104337500Y-83150000D01*
G75*
G02*
X104575000Y-83387500I0J-237500D01*
G01*
X104575000Y-83962500D01*
G75*
G02*
X104337500Y-84200000I-237500J0D01*
G01*
X103862500Y-84200000D01*
G75*
G02*
X103625000Y-83962500I0J237500D01*
G01*
X103625000Y-83387500D01*
G75*
G02*
X103862500Y-83150000I237500J0D01*
G01*
G37*
%TD.AperFunction*%
%TD*%
%TO.P,R4,2*%
%TO.N,O_LED*%
%TA.AperFunction,SMDPad,CuDef*%
G36*
G01*
X144137500Y-71650000D02*
X143662500Y-71650000D01*
G75*
G02*
X143425000Y-71412500I0J237500D01*
G01*
X143425000Y-70837500D01*
G75*
G02*
X143662500Y-70600000I237500J0D01*
G01*
X144137500Y-70600000D01*
G75*
G02*
X144375000Y-70837500I0J-237500D01*
G01*
X144375000Y-71412500D01*
G75*
G02*
X144137500Y-71650000I-237500J0D01*
G01*
G37*
%TD.AperFunction*%
%TO.P,R4,1*%
%TO.N,Net-(D1-Pad2)*%
%TA.AperFunction,SMDPad,CuDef*%
G36*
G01*
X144137500Y-73400000D02*
X143662500Y-73400000D01*
G75*
G02*
X143425000Y-73162500I0J237500D01*
G01*
X143425000Y-72587500D01*
G75*
G02*
X143662500Y-72350000I237500J0D01*
G01*
X144137500Y-72350000D01*
G75*
G02*
X144375000Y-72587500I0J-237500D01*
G01*
X144375000Y-73162500D01*
G75*
G02*
X144137500Y-73400000I-237500J0D01*
G01*
G37*
%TD.AperFunction*%
%TD*%
%TO.P,R5,1*%
%TO.N,+3V3*%
%TA.AperFunction,SMDPad,CuDef*%
G36*
G01*
X102262500Y-81400000D02*
X102737500Y-81400000D01*
G75*
G02*
X102975000Y-81637500I0J-237500D01*
G01*
X102975000Y-82212500D01*
G75*
G02*
X102737500Y-82450000I-237500J0D01*
G01*
X102262500Y-82450000D01*
G75*
G02*
X102025000Y-82212500I0J237500D01*
G01*
X102025000Y-81637500D01*
G75*
G02*
X102262500Y-81400000I237500J0D01*
G01*
G37*
%TD.AperFunction*%
%TO.P,R5,2*%
%TO.N,S_IN4*%
%TA.AperFunction,SMDPad,CuDef*%
G36*
G01*
X102262500Y-83150000D02*
X102737500Y-83150000D01*
G75*
G02*
X102975000Y-83387500I0J-237500D01*
G01*
X102975000Y-83962500D01*
G75*
G02*
X102737500Y-84200000I-237500J0D01*
G01*
X102262500Y-84200000D01*
G75*
G02*
X102025000Y-83962500I0J237500D01*
G01*
X102025000Y-83387500D01*
G75*
G02*
X102262500Y-83150000I237500J0D01*
G01*
G37*
%TD.AperFunction*%
%TD*%
%TO.P,R6,1*%
%TO.N,+3V3*%
%TA.AperFunction,SMDPad,CuDef*%
G36*
G01*
X105000000Y-100037500D02*
X105000000Y-99562500D01*
G75*
G02*
X105237500Y-99325000I237500J0D01*
G01*
X105812500Y-99325000D01*
G75*
G02*
X106050000Y-99562500I0J-237500D01*
G01*
X106050000Y-100037500D01*
G75*
G02*
X105812500Y-100275000I-237500J0D01*
G01*
X105237500Y-100275000D01*
G75*
G02*
X105000000Y-100037500I0J237500D01*
G01*
G37*
%TD.AperFunction*%
%TO.P,R6,2*%
%TO.N,S_IN5*%
%TA.AperFunction,SMDPad,CuDef*%
G36*
G01*
X106750000Y-100037500D02*
X106750000Y-99562500D01*
G75*
G02*
X106987500Y-99325000I237500J0D01*
G01*
X107562500Y-99325000D01*
G75*
G02*
X107800000Y-99562500I0J-237500D01*
G01*
X107800000Y-100037500D01*
G75*
G02*
X107562500Y-100275000I-237500J0D01*
G01*
X106987500Y-100275000D01*
G75*
G02*
X106750000Y-100037500I0J237500D01*
G01*
G37*
%TD.AperFunction*%
%TD*%
%TO.P,R7,1*%
%TO.N,+3V3*%
%TA.AperFunction,SMDPad,CuDef*%
G36*
G01*
X105000000Y-101637500D02*
X105000000Y-101162500D01*
G75*
G02*
X105237500Y-100925000I237500J0D01*
G01*
X105812500Y-100925000D01*
G75*
G02*
X106050000Y-101162500I0J-237500D01*
G01*
X106050000Y-101637500D01*
G75*
G02*
X105812500Y-101875000I-237500J0D01*
G01*
X105237500Y-101875000D01*
G75*
G02*
X105000000Y-101637500I0J237500D01*
G01*
G37*
%TD.AperFunction*%
%TO.P,R7,2*%
%TO.N,S_IN6*%
%TA.AperFunction,SMDPad,CuDef*%
G36*
G01*
X106750000Y-101637500D02*
X106750000Y-101162500D01*
G75*
G02*
X106987500Y-100925000I237500J0D01*
G01*
X107562500Y-100925000D01*
G75*
G02*
X107800000Y-101162500I0J-237500D01*
G01*
X107800000Y-101637500D01*
G75*
G02*
X107562500Y-101875000I-237500J0D01*
G01*
X106987500Y-101875000D01*
G75*
G02*
X106750000Y-101637500I0J237500D01*
G01*
G37*
%TD.AperFunction*%
%TD*%
%TO.P,R8,1*%
%TO.N,+3V3*%
%TA.AperFunction,SMDPad,CuDef*%
G36*
G01*
X105000000Y-103237500D02*
X105000000Y-102762500D01*
G75*
G02*
X105237500Y-102525000I237500J0D01*
G01*
X105812500Y-102525000D01*
G75*
G02*
X106050000Y-102762500I0J-237500D01*
G01*
X106050000Y-103237500D01*
G75*
G02*
X105812500Y-103475000I-237500J0D01*
G01*
X105237500Y-103475000D01*
G75*
G02*
X105000000Y-103237500I0J237500D01*
G01*
G37*
%TD.AperFunction*%
%TO.P,R8,2*%
%TO.N,S_IN7*%
%TA.AperFunction,SMDPad,CuDef*%
G36*
G01*
X106750000Y-103237500D02*
X106750000Y-102762500D01*
G75*
G02*
X106987500Y-102525000I237500J0D01*
G01*
X107562500Y-102525000D01*
G75*
G02*
X107800000Y-102762500I0J-237500D01*
G01*
X107800000Y-103237500D01*
G75*
G02*
X107562500Y-103475000I-237500J0D01*
G01*
X106987500Y-103475000D01*
G75*
G02*
X106750000Y-103237500I0J237500D01*
G01*
G37*
%TD.AperFunction*%
%TD*%
%TO.P,R9,1*%
%TO.N,+3V3*%
%TA.AperFunction,SMDPad,CuDef*%
G36*
G01*
X105000000Y-104837500D02*
X105000000Y-104362500D01*
G75*
G02*
X105237500Y-104125000I237500J0D01*
G01*
X105812500Y-104125000D01*
G75*
G02*
X106050000Y-104362500I0J-237500D01*
G01*
X106050000Y-104837500D01*
G75*
G02*
X105812500Y-105075000I-237500J0D01*
G01*
X105237500Y-105075000D01*
G75*
G02*
X105000000Y-104837500I0J237500D01*
G01*
G37*
%TD.AperFunction*%
%TO.P,R9,2*%
%TO.N,S_IN8*%
%TA.AperFunction,SMDPad,CuDef*%
G36*
G01*
X106750000Y-104837500D02*
X106750000Y-104362500D01*
G75*
G02*
X106987500Y-104125000I237500J0D01*
G01*
X107562500Y-104125000D01*
G75*
G02*
X107800000Y-104362500I0J-237500D01*
G01*
X107800000Y-104837500D01*
G75*
G02*
X107562500Y-105075000I-237500J0D01*
G01*
X106987500Y-105075000D01*
G75*
G02*
X106750000Y-104837500I0J237500D01*
G01*
G37*
%TD.AperFunction*%
%TD*%
%TO.P,R10,2*%
%TO.N,Net-(JP1-Pad2)*%
%TA.AperFunction,SMDPad,CuDef*%
G36*
G01*
X98737500Y-85450000D02*
X98262500Y-85450000D01*
G75*
G02*
X98025000Y-85212500I0J237500D01*
G01*
X98025000Y-84637500D01*
G75*
G02*
X98262500Y-84400000I237500J0D01*
G01*
X98737500Y-84400000D01*
G75*
G02*
X98975000Y-84637500I0J-237500D01*
G01*
X98975000Y-85212500D01*
G75*
G02*
X98737500Y-85450000I-237500J0D01*
G01*
G37*
%TD.AperFunction*%
%TO.P,R10,1*%
%TO.N,Net-(R10-Pad1)*%
%TA.AperFunction,SMDPad,CuDef*%
G36*
G01*
X98737500Y-87200000D02*
X98262500Y-87200000D01*
G75*
G02*
X98025000Y-86962500I0J237500D01*
G01*
X98025000Y-86387500D01*
G75*
G02*
X98262500Y-86150000I237500J0D01*
G01*
X98737500Y-86150000D01*
G75*
G02*
X98975000Y-86387500I0J-237500D01*
G01*
X98975000Y-86962500D01*
G75*
G02*
X98737500Y-87200000I-237500J0D01*
G01*
G37*
%TD.AperFunction*%
%TD*%
%TO.P,R11,2*%
%TO.N,Net-(JP3-Pad2)*%
%TA.AperFunction,SMDPad,CuDef*%
G36*
G01*
X98262500Y-91850000D02*
X98737500Y-91850000D01*
G75*
G02*
X98975000Y-92087500I0J-237500D01*
G01*
X98975000Y-92662500D01*
G75*
G02*
X98737500Y-92900000I-237500J0D01*
G01*
X98262500Y-92900000D01*
G75*
G02*
X98025000Y-92662500I0J237500D01*
G01*
X98025000Y-92087500D01*
G75*
G02*
X98262500Y-91850000I237500J0D01*
G01*
G37*
%TD.AperFunction*%
%TO.P,R11,1*%
%TO.N,Net-(R11-Pad1)*%
%TA.AperFunction,SMDPad,CuDef*%
G36*
G01*
X98262500Y-90100000D02*
X98737500Y-90100000D01*
G75*
G02*
X98975000Y-90337500I0J-237500D01*
G01*
X98975000Y-90912500D01*
G75*
G02*
X98737500Y-91150000I-237500J0D01*
G01*
X98262500Y-91150000D01*
G75*
G02*
X98025000Y-90912500I0J237500D01*
G01*
X98025000Y-90337500D01*
G75*
G02*
X98262500Y-90100000I237500J0D01*
G01*
G37*
%TD.AperFunction*%
%TD*%
%TO.P,R12,2*%
%TO.N,Net-(JP5-Pad2)*%
%TA.AperFunction,SMDPad,CuDef*%
G36*
G01*
X98262500Y-97150000D02*
X98737500Y-97150000D01*
G75*
G02*
X98975000Y-97387500I0J-237500D01*
G01*
X98975000Y-97962500D01*
G75*
G02*
X98737500Y-98200000I-237500J0D01*
G01*
X98262500Y-98200000D01*
G75*
G02*
X98025000Y-97962500I0J237500D01*
G01*
X98025000Y-97387500D01*
G75*
G02*
X98262500Y-97150000I237500J0D01*
G01*
G37*
%TD.AperFunction*%
%TO.P,R12,1*%
%TO.N,Net-(R12-Pad1)*%
%TA.AperFunction,SMDPad,CuDef*%
G36*
G01*
X98262500Y-95400000D02*
X98737500Y-95400000D01*
G75*
G02*
X98975000Y-95637500I0J-237500D01*
G01*
X98975000Y-96212500D01*
G75*
G02*
X98737500Y-96450000I-237500J0D01*
G01*
X98262500Y-96450000D01*
G75*
G02*
X98025000Y-96212500I0J237500D01*
G01*
X98025000Y-95637500D01*
G75*
G02*
X98262500Y-95400000I237500J0D01*
G01*
G37*
%TD.AperFunction*%
%TD*%
%TO.P,R13,2*%
%TO.N,+12V*%
%TA.AperFunction,SMDPad,CuDef*%
G36*
G01*
X118675000Y-113837500D02*
X118675000Y-113362500D01*
G75*
G02*
X118912500Y-113125000I237500J0D01*
G01*
X119487500Y-113125000D01*
G75*
G02*
X119725000Y-113362500I0J-237500D01*
G01*
X119725000Y-113837500D01*
G75*
G02*
X119487500Y-114075000I-237500J0D01*
G01*
X118912500Y-114075000D01*
G75*
G02*
X118675000Y-113837500I0J237500D01*
G01*
G37*
%TD.AperFunction*%
%TO.P,R13,1*%
%TO.N,Net-(JP17-Pad3)*%
%TA.AperFunction,SMDPad,CuDef*%
G36*
G01*
X116925000Y-113837500D02*
X116925000Y-113362500D01*
G75*
G02*
X117162500Y-113125000I237500J0D01*
G01*
X117737500Y-113125000D01*
G75*
G02*
X117975000Y-113362500I0J-237500D01*
G01*
X117975000Y-113837500D01*
G75*
G02*
X117737500Y-114075000I-237500J0D01*
G01*
X117162500Y-114075000D01*
G75*
G02*
X116925000Y-113837500I0J237500D01*
G01*
G37*
%TD.AperFunction*%
%TD*%
%TO.P,R14,2*%
%TO.N,Net-(JP7-Pad2)*%
%TA.AperFunction,SMDPad,CuDef*%
G36*
G01*
X98262500Y-103150000D02*
X98737500Y-103150000D01*
G75*
G02*
X98975000Y-103387500I0J-237500D01*
G01*
X98975000Y-103962500D01*
G75*
G02*
X98737500Y-104200000I-237500J0D01*
G01*
X98262500Y-104200000D01*
G75*
G02*
X98025000Y-103962500I0J237500D01*
G01*
X98025000Y-103387500D01*
G75*
G02*
X98262500Y-103150000I237500J0D01*
G01*
G37*
%TD.AperFunction*%
%TO.P,R14,1*%
%TO.N,Net-(R14-Pad1)*%
%TA.AperFunction,SMDPad,CuDef*%
G36*
G01*
X98262500Y-101400000D02*
X98737500Y-101400000D01*
G75*
G02*
X98975000Y-101637500I0J-237500D01*
G01*
X98975000Y-102212500D01*
G75*
G02*
X98737500Y-102450000I-237500J0D01*
G01*
X98262500Y-102450000D01*
G75*
G02*
X98025000Y-102212500I0J237500D01*
G01*
X98025000Y-101637500D01*
G75*
G02*
X98262500Y-101400000I237500J0D01*
G01*
G37*
%TD.AperFunction*%
%TD*%
%TO.P,R15,2*%
%TO.N,Net-(JP9-Pad2)*%
%TA.AperFunction,SMDPad,CuDef*%
G36*
G01*
X98262500Y-108550000D02*
X98737500Y-108550000D01*
G75*
G02*
X98975000Y-108787500I0J-237500D01*
G01*
X98975000Y-109362500D01*
G75*
G02*
X98737500Y-109600000I-237500J0D01*
G01*
X98262500Y-109600000D01*
G75*
G02*
X98025000Y-109362500I0J237500D01*
G01*
X98025000Y-108787500D01*
G75*
G02*
X98262500Y-108550000I237500J0D01*
G01*
G37*
%TD.AperFunction*%
%TO.P,R15,1*%
%TO.N,Net-(R15-Pad1)*%
%TA.AperFunction,SMDPad,CuDef*%
G36*
G01*
X98262500Y-106800000D02*
X98737500Y-106800000D01*
G75*
G02*
X98975000Y-107037500I0J-237500D01*
G01*
X98975000Y-107612500D01*
G75*
G02*
X98737500Y-107850000I-237500J0D01*
G01*
X98262500Y-107850000D01*
G75*
G02*
X98025000Y-107612500I0J237500D01*
G01*
X98025000Y-107037500D01*
G75*
G02*
X98262500Y-106800000I237500J0D01*
G01*
G37*
%TD.AperFunction*%
%TD*%
%TO.P,R16,2*%
%TO.N,Net-(JP11-Pad2)*%
%TA.AperFunction,SMDPad,CuDef*%
G36*
G01*
X98262500Y-114450000D02*
X98737500Y-114450000D01*
G75*
G02*
X98975000Y-114687500I0J-237500D01*
G01*
X98975000Y-115262500D01*
G75*
G02*
X98737500Y-115500000I-237500J0D01*
G01*
X98262500Y-115500000D01*
G75*
G02*
X98025000Y-115262500I0J237500D01*
G01*
X98025000Y-114687500D01*
G75*
G02*
X98262500Y-114450000I237500J0D01*
G01*
G37*
%TD.AperFunction*%
%TO.P,R16,1*%
%TO.N,Net-(R16-Pad1)*%
%TA.AperFunction,SMDPad,CuDef*%
G36*
G01*
X98262500Y-112700000D02*
X98737500Y-112700000D01*
G75*
G02*
X98975000Y-112937500I0J-237500D01*
G01*
X98975000Y-113512500D01*
G75*
G02*
X98737500Y-113750000I-237500J0D01*
G01*
X98262500Y-113750000D01*
G75*
G02*
X98025000Y-113512500I0J237500D01*
G01*
X98025000Y-112937500D01*
G75*
G02*
X98262500Y-112700000I237500J0D01*
G01*
G37*
%TD.AperFunction*%
%TD*%
%TO.P,R17,2*%
%TO.N,Net-(JP13-Pad2)*%
%TA.AperFunction,SMDPad,CuDef*%
G36*
G01*
X112450000Y-115437500D02*
X112450000Y-114962500D01*
G75*
G02*
X112687500Y-114725000I237500J0D01*
G01*
X113262500Y-114725000D01*
G75*
G02*
X113500000Y-114962500I0J-237500D01*
G01*
X113500000Y-115437500D01*
G75*
G02*
X113262500Y-115675000I-237500J0D01*
G01*
X112687500Y-115675000D01*
G75*
G02*
X112450000Y-115437500I0J237500D01*
G01*
G37*
%TD.AperFunction*%
%TO.P,R17,1*%
%TO.N,Net-(R17-Pad1)*%
%TA.AperFunction,SMDPad,CuDef*%
G36*
G01*
X110700000Y-115437500D02*
X110700000Y-114962500D01*
G75*
G02*
X110937500Y-114725000I237500J0D01*
G01*
X111512500Y-114725000D01*
G75*
G02*
X111750000Y-114962500I0J-237500D01*
G01*
X111750000Y-115437500D01*
G75*
G02*
X111512500Y-115675000I-237500J0D01*
G01*
X110937500Y-115675000D01*
G75*
G02*
X110700000Y-115437500I0J237500D01*
G01*
G37*
%TD.AperFunction*%
%TD*%
%TO.P,R18,2*%
%TO.N,Net-(JP15-Pad2)*%
%TA.AperFunction,SMDPad,CuDef*%
G36*
G01*
X112450000Y-117837500D02*
X112450000Y-117362500D01*
G75*
G02*
X112687500Y-117125000I237500J0D01*
G01*
X113262500Y-117125000D01*
G75*
G02*
X113500000Y-117362500I0J-237500D01*
G01*
X113500000Y-117837500D01*
G75*
G02*
X113262500Y-118075000I-237500J0D01*
G01*
X112687500Y-118075000D01*
G75*
G02*
X112450000Y-117837500I0J237500D01*
G01*
G37*
%TD.AperFunction*%
%TO.P,R18,1*%
%TO.N,Net-(R18-Pad1)*%
%TA.AperFunction,SMDPad,CuDef*%
G36*
G01*
X110700000Y-117837500D02*
X110700000Y-117362500D01*
G75*
G02*
X110937500Y-117125000I237500J0D01*
G01*
X111512500Y-117125000D01*
G75*
G02*
X111750000Y-117362500I0J-237500D01*
G01*
X111750000Y-117837500D01*
G75*
G02*
X111512500Y-118075000I-237500J0D01*
G01*
X110937500Y-118075000D01*
G75*
G02*
X110700000Y-117837500I0J237500D01*
G01*
G37*
%TD.AperFunction*%
%TD*%
%TO.P,R19,1*%
%TO.N,S_OUT1*%
%TA.AperFunction,SMDPad,CuDef*%
G36*
G01*
X130800000Y-70262500D02*
X130800000Y-70737500D01*
G75*
G02*
X130562500Y-70975000I-237500J0D01*
G01*
X129987500Y-70975000D01*
G75*
G02*
X129750000Y-70737500I0J237500D01*
G01*
X129750000Y-70262500D01*
G75*
G02*
X129987500Y-70025000I237500J0D01*
G01*
X130562500Y-70025000D01*
G75*
G02*
X130800000Y-70262500I0J-237500D01*
G01*
G37*
%TD.AperFunction*%
%TO.P,R19,2*%
%TO.N,Net-(R19-Pad2)*%
%TA.AperFunction,SMDPad,CuDef*%
G36*
G01*
X129050000Y-70262500D02*
X129050000Y-70737500D01*
G75*
G02*
X128812500Y-70975000I-237500J0D01*
G01*
X128237500Y-70975000D01*
G75*
G02*
X128000000Y-70737500I0J237500D01*
G01*
X128000000Y-70262500D01*
G75*
G02*
X128237500Y-70025000I237500J0D01*
G01*
X128812500Y-70025000D01*
G75*
G02*
X129050000Y-70262500I0J-237500D01*
G01*
G37*
%TD.AperFunction*%
%TD*%
%TO.P,R20,1*%
%TO.N,S_OUT2*%
%TA.AperFunction,SMDPad,CuDef*%
G36*
G01*
X100700000Y-70537500D02*
X100700000Y-70062500D01*
G75*
G02*
X100937500Y-69825000I237500J0D01*
G01*
X101512500Y-69825000D01*
G75*
G02*
X101750000Y-70062500I0J-237500D01*
G01*
X101750000Y-70537500D01*
G75*
G02*
X101512500Y-70775000I-237500J0D01*
G01*
X100937500Y-70775000D01*
G75*
G02*
X100700000Y-70537500I0J237500D01*
G01*
G37*
%TD.AperFunction*%
%TO.P,R20,2*%
%TO.N,Net-(R20-Pad2)*%
%TA.AperFunction,SMDPad,CuDef*%
G36*
G01*
X102450000Y-70537500D02*
X102450000Y-70062500D01*
G75*
G02*
X102687500Y-69825000I237500J0D01*
G01*
X103262500Y-69825000D01*
G75*
G02*
X103500000Y-70062500I0J-237500D01*
G01*
X103500000Y-70537500D01*
G75*
G02*
X103262500Y-70775000I-237500J0D01*
G01*
X102687500Y-70775000D01*
G75*
G02*
X102450000Y-70537500I0J237500D01*
G01*
G37*
%TD.AperFunction*%
%TD*%
%TO.P,R23,2*%
%TO.N,Net-(JP18-Pad1)*%
%TA.AperFunction,SMDPad,CuDef*%
G36*
G01*
X113650000Y-107337500D02*
X113650000Y-106862500D01*
G75*
G02*
X113887500Y-106625000I237500J0D01*
G01*
X114462500Y-106625000D01*
G75*
G02*
X114700000Y-106862500I0J-237500D01*
G01*
X114700000Y-107337500D01*
G75*
G02*
X114462500Y-107575000I-237500J0D01*
G01*
X113887500Y-107575000D01*
G75*
G02*
X113650000Y-107337500I0J237500D01*
G01*
G37*
%TD.AperFunction*%
%TO.P,R23,1*%
%TO.N,GNDA*%
%TA.AperFunction,SMDPad,CuDef*%
G36*
G01*
X111900000Y-107337500D02*
X111900000Y-106862500D01*
G75*
G02*
X112137500Y-106625000I237500J0D01*
G01*
X112712500Y-106625000D01*
G75*
G02*
X112950000Y-106862500I0J-237500D01*
G01*
X112950000Y-107337500D01*
G75*
G02*
X112712500Y-107575000I-237500J0D01*
G01*
X112137500Y-107575000D01*
G75*
G02*
X111900000Y-107337500I0J237500D01*
G01*
G37*
%TD.AperFunction*%
%TD*%
%TO.P,R24,2*%
%TO.N,Net-(JP20-Pad1)*%
%TA.AperFunction,SMDPad,CuDef*%
G36*
G01*
X113850000Y-99737500D02*
X113850000Y-99262500D01*
G75*
G02*
X114087500Y-99025000I237500J0D01*
G01*
X114662500Y-99025000D01*
G75*
G02*
X114900000Y-99262500I0J-237500D01*
G01*
X114900000Y-99737500D01*
G75*
G02*
X114662500Y-99975000I-237500J0D01*
G01*
X114087500Y-99975000D01*
G75*
G02*
X113850000Y-99737500I0J237500D01*
G01*
G37*
%TD.AperFunction*%
%TO.P,R24,1*%
%TO.N,GNDA*%
%TA.AperFunction,SMDPad,CuDef*%
G36*
G01*
X112100000Y-99737500D02*
X112100000Y-99262500D01*
G75*
G02*
X112337500Y-99025000I237500J0D01*
G01*
X112912500Y-99025000D01*
G75*
G02*
X113150000Y-99262500I0J-237500D01*
G01*
X113150000Y-99737500D01*
G75*
G02*
X112912500Y-99975000I-237500J0D01*
G01*
X112337500Y-99975000D01*
G75*
G02*
X112100000Y-99737500I0J237500D01*
G01*
G37*
%TD.AperFunction*%
%TD*%
%TO.P,R25,1*%
%TO.N,GNDA*%
%TA.AperFunction,SMDPad,CuDef*%
G36*
G01*
X119900000Y-92262500D02*
X119900000Y-92737500D01*
G75*
G02*
X119662500Y-92975000I-237500J0D01*
G01*
X119087500Y-92975000D01*
G75*
G02*
X118850000Y-92737500I0J237500D01*
G01*
X118850000Y-92262500D01*
G75*
G02*
X119087500Y-92025000I237500J0D01*
G01*
X119662500Y-92025000D01*
G75*
G02*
X119900000Y-92262500I0J-237500D01*
G01*
G37*
%TD.AperFunction*%
%TO.P,R25,2*%
%TO.N,Net-(JP22-Pad1)*%
%TA.AperFunction,SMDPad,CuDef*%
G36*
G01*
X118150000Y-92262500D02*
X118150000Y-92737500D01*
G75*
G02*
X117912500Y-92975000I-237500J0D01*
G01*
X117337500Y-92975000D01*
G75*
G02*
X117100000Y-92737500I0J237500D01*
G01*
X117100000Y-92262500D01*
G75*
G02*
X117337500Y-92025000I237500J0D01*
G01*
X117912500Y-92025000D01*
G75*
G02*
X118150000Y-92262500I0J-237500D01*
G01*
G37*
%TD.AperFunction*%
%TD*%
%TO.P,R26,1*%
%TO.N,GNDA*%
%TA.AperFunction,SMDPad,CuDef*%
G36*
G01*
X112000000Y-85737500D02*
X112000000Y-85262500D01*
G75*
G02*
X112237500Y-85025000I237500J0D01*
G01*
X112812500Y-85025000D01*
G75*
G02*
X113050000Y-85262500I0J-237500D01*
G01*
X113050000Y-85737500D01*
G75*
G02*
X112812500Y-85975000I-237500J0D01*
G01*
X112237500Y-85975000D01*
G75*
G02*
X112000000Y-85737500I0J237500D01*
G01*
G37*
%TD.AperFunction*%
%TO.P,R26,2*%
%TO.N,Net-(JP24-Pad1)*%
%TA.AperFunction,SMDPad,CuDef*%
G36*
G01*
X113750000Y-85737500D02*
X113750000Y-85262500D01*
G75*
G02*
X113987500Y-85025000I237500J0D01*
G01*
X114562500Y-85025000D01*
G75*
G02*
X114800000Y-85262500I0J-237500D01*
G01*
X114800000Y-85737500D01*
G75*
G02*
X114562500Y-85975000I-237500J0D01*
G01*
X113987500Y-85975000D01*
G75*
G02*
X113750000Y-85737500I0J237500D01*
G01*
G37*
%TD.AperFunction*%
%TD*%
%TO.P,R27,2*%
%TO.N,+12V*%
%TA.AperFunction,SMDPad,CuDef*%
G36*
G01*
X118850000Y-106637500D02*
X118850000Y-106162500D01*
G75*
G02*
X119087500Y-105925000I237500J0D01*
G01*
X119662500Y-105925000D01*
G75*
G02*
X119900000Y-106162500I0J-237500D01*
G01*
X119900000Y-106637500D01*
G75*
G02*
X119662500Y-106875000I-237500J0D01*
G01*
X119087500Y-106875000D01*
G75*
G02*
X118850000Y-106637500I0J237500D01*
G01*
G37*
%TD.AperFunction*%
%TO.P,R27,1*%
%TO.N,Net-(JP19-Pad3)*%
%TA.AperFunction,SMDPad,CuDef*%
G36*
G01*
X117100000Y-106637500D02*
X117100000Y-106162500D01*
G75*
G02*
X117337500Y-105925000I237500J0D01*
G01*
X117912500Y-105925000D01*
G75*
G02*
X118150000Y-106162500I0J-237500D01*
G01*
X118150000Y-106637500D01*
G75*
G02*
X117912500Y-106875000I-237500J0D01*
G01*
X117337500Y-106875000D01*
G75*
G02*
X117100000Y-106637500I0J237500D01*
G01*
G37*
%TD.AperFunction*%
%TD*%
%TO.P,R28,2*%
%TO.N,+12V*%
%TA.AperFunction,SMDPad,CuDef*%
G36*
G01*
X118850000Y-99637500D02*
X118850000Y-99162500D01*
G75*
G02*
X119087500Y-98925000I237500J0D01*
G01*
X119662500Y-98925000D01*
G75*
G02*
X119900000Y-99162500I0J-237500D01*
G01*
X119900000Y-99637500D01*
G75*
G02*
X119662500Y-99875000I-237500J0D01*
G01*
X119087500Y-99875000D01*
G75*
G02*
X118850000Y-99637500I0J237500D01*
G01*
G37*
%TD.AperFunction*%
%TO.P,R28,1*%
%TO.N,Net-(JP21-Pad3)*%
%TA.AperFunction,SMDPad,CuDef*%
G36*
G01*
X117100000Y-99637500D02*
X117100000Y-99162500D01*
G75*
G02*
X117337500Y-98925000I237500J0D01*
G01*
X117912500Y-98925000D01*
G75*
G02*
X118150000Y-99162500I0J-237500D01*
G01*
X118150000Y-99637500D01*
G75*
G02*
X117912500Y-99875000I-237500J0D01*
G01*
X117337500Y-99875000D01*
G75*
G02*
X117100000Y-99637500I0J237500D01*
G01*
G37*
%TD.AperFunction*%
%TD*%
%TO.P,R29,1*%
%TO.N,Net-(JP23-Pad3)*%
%TA.AperFunction,SMDPad,CuDef*%
G36*
G01*
X114700000Y-92362500D02*
X114700000Y-92837500D01*
G75*
G02*
X114462500Y-93075000I-237500J0D01*
G01*
X113887500Y-93075000D01*
G75*
G02*
X113650000Y-92837500I0J237500D01*
G01*
X113650000Y-92362500D01*
G75*
G02*
X113887500Y-92125000I237500J0D01*
G01*
X114462500Y-92125000D01*
G75*
G02*
X114700000Y-92362500I0J-237500D01*
G01*
G37*
%TD.AperFunction*%
%TO.P,R29,2*%
%TO.N,+12V*%
%TA.AperFunction,SMDPad,CuDef*%
G36*
G01*
X112950000Y-92362500D02*
X112950000Y-92837500D01*
G75*
G02*
X112712500Y-93075000I-237500J0D01*
G01*
X112137500Y-93075000D01*
G75*
G02*
X111900000Y-92837500I0J237500D01*
G01*
X111900000Y-92362500D01*
G75*
G02*
X112137500Y-92125000I237500J0D01*
G01*
X112712500Y-92125000D01*
G75*
G02*
X112950000Y-92362500I0J-237500D01*
G01*
G37*
%TD.AperFunction*%
%TD*%
D16*
%TO.P,U1,1*%
%TO.N,Net-(R10-Pad1)*%
X100850000Y-88350000D03*
%TO.P,U1,2*%
%TO.N,Net-(JP2-Pad2)*%
X100850000Y-89630000D03*
%TO.P,U1,3*%
%TO.N,Net-(R11-Pad1)*%
X100850000Y-90890000D03*
%TO.P,U1,4*%
%TO.N,Net-(JP4-Pad2)*%
X100850000Y-92160000D03*
%TO.P,U1,5*%
%TO.N,Net-(R12-Pad1)*%
X100850000Y-93440000D03*
%TO.P,U1,6*%
%TO.N,Net-(JP6-Pad2)*%
X100850000Y-94710000D03*
%TO.P,U1,7*%
%TO.N,Net-(R14-Pad1)*%
X100850000Y-95970000D03*
%TO.P,U1,8*%
%TO.N,Net-(JP8-Pad2)*%
X100850000Y-97250000D03*
%TO.P,U1,9*%
%TO.N,GND*%
X107150000Y-97250000D03*
%TO.P,U1,10*%
%TO.N,S_IN4*%
X107150000Y-95970000D03*
%TO.P,U1,11*%
%TO.N,GND*%
X107150000Y-94710000D03*
%TO.P,U1,12*%
%TO.N,S_IN3*%
X107150000Y-93440000D03*
%TO.P,U1,13*%
%TO.N,GND*%
X107150000Y-92160000D03*
%TO.P,U1,14*%
%TO.N,S_IN2*%
X107150000Y-90890000D03*
%TO.P,U1,15*%
%TO.N,GND*%
X107150000Y-89630000D03*
%TO.P,U1,16*%
%TO.N,S_IN1*%
X107150000Y-88350000D03*
%TD*%
%TO.P,U2,16*%
%TO.N,S_IN5*%
X107150000Y-108050000D03*
%TO.P,U2,15*%
%TO.N,GND*%
X107150000Y-109330000D03*
%TO.P,U2,14*%
%TO.N,S_IN6*%
X107150000Y-110590000D03*
%TO.P,U2,13*%
%TO.N,GND*%
X107150000Y-111860000D03*
%TO.P,U2,12*%
%TO.N,S_IN7*%
X107150000Y-113140000D03*
%TO.P,U2,11*%
%TO.N,GND*%
X107150000Y-114410000D03*
%TO.P,U2,10*%
%TO.N,S_IN8*%
X107150000Y-115670000D03*
%TO.P,U2,9*%
%TO.N,GND*%
X107150000Y-116950000D03*
%TO.P,U2,8*%
%TO.N,Net-(JP16-Pad2)*%
X100850000Y-116950000D03*
%TO.P,U2,7*%
%TO.N,Net-(R18-Pad1)*%
X100850000Y-115670000D03*
%TO.P,U2,6*%
%TO.N,Net-(JP14-Pad2)*%
X100850000Y-114410000D03*
%TO.P,U2,5*%
%TO.N,Net-(R17-Pad1)*%
X100850000Y-113140000D03*
%TO.P,U2,4*%
%TO.N,Net-(JP12-Pad2)*%
X100850000Y-111860000D03*
%TO.P,U2,3*%
%TO.N,Net-(R16-Pad1)*%
X100850000Y-110590000D03*
%TO.P,U2,2*%
%TO.N,Net-(JP10-Pad2)*%
X100850000Y-109330000D03*
%TO.P,U2,1*%
%TO.N,Net-(R15-Pad1)*%
X100850000Y-108050000D03*
%TD*%
%TO.P,U3,1*%
%TO.N,Net-(R19-Pad2)*%
X124450000Y-73150000D03*
%TO.P,U3,2*%
%TO.N,GND*%
X124450000Y-74430000D03*
%TO.P,U3,3*%
%TO.N,Net-(R20-Pad2)*%
X124450000Y-75690000D03*
%TO.P,U3,4*%
%TO.N,GND*%
X124450000Y-76960000D03*
%TO.P,U3,5*%
%TO.N,Net-(R21-Pad2)*%
X124450000Y-78240000D03*
%TO.P,U3,6*%
%TO.N,GND*%
X124450000Y-79510000D03*
%TO.P,U3,7*%
%TO.N,Net-(R22-Pad2)*%
X124450000Y-80770000D03*
%TO.P,U3,8*%
%TO.N,GND*%
X124450000Y-82050000D03*
%TO.P,U3,9*%
%TO.N,Net-(JP24-Pad2)*%
X130750000Y-82050000D03*
%TO.P,U3,10*%
%TO.N,Net-(R33-Pad1)*%
X130750000Y-80770000D03*
%TO.P,U3,11*%
%TO.N,Net-(JP22-Pad2)*%
X130750000Y-79510000D03*
%TO.P,U3,12*%
%TO.N,Net-(R32-Pad1)*%
X130750000Y-78240000D03*
%TO.P,U3,13*%
%TO.N,Net-(JP20-Pad2)*%
X130750000Y-76960000D03*
%TO.P,U3,14*%
%TO.N,Net-(R31-Pad1)*%
X130750000Y-75690000D03*
%TO.P,U3,15*%
%TO.N,Net-(JP18-Pad2)*%
X130750000Y-74430000D03*
%TO.P,U3,16*%
%TO.N,Net-(R30-Pad1)*%
X130750000Y-73150000D03*
%TD*%
%TO.P,R30,1*%
%TO.N,Net-(R30-Pad1)*%
%TA.AperFunction,SMDPad,CuDef*%
G36*
G01*
X132500000Y-72937500D02*
X132500000Y-72462500D01*
G75*
G02*
X132737500Y-72225000I237500J0D01*
G01*
X133312500Y-72225000D01*
G75*
G02*
X133550000Y-72462500I0J-237500D01*
G01*
X133550000Y-72937500D01*
G75*
G02*
X133312500Y-73175000I-237500J0D01*
G01*
X132737500Y-73175000D01*
G75*
G02*
X132500000Y-72937500I0J237500D01*
G01*
G37*
%TD.AperFunction*%
%TO.P,R30,2*%
%TO.N,Net-(JP17-Pad2)*%
%TA.AperFunction,SMDPad,CuDef*%
G36*
G01*
X134250000Y-72937500D02*
X134250000Y-72462500D01*
G75*
G02*
X134487500Y-72225000I237500J0D01*
G01*
X135062500Y-72225000D01*
G75*
G02*
X135300000Y-72462500I0J-237500D01*
G01*
X135300000Y-72937500D01*
G75*
G02*
X135062500Y-73175000I-237500J0D01*
G01*
X134487500Y-73175000D01*
G75*
G02*
X134250000Y-72937500I0J237500D01*
G01*
G37*
%TD.AperFunction*%
%TD*%
%TO.P,R31,2*%
%TO.N,Net-(JP19-Pad2)*%
%TA.AperFunction,SMDPad,CuDef*%
G36*
G01*
X134250000Y-75837500D02*
X134250000Y-75362500D01*
G75*
G02*
X134487500Y-75125000I237500J0D01*
G01*
X135062500Y-75125000D01*
G75*
G02*
X135300000Y-75362500I0J-237500D01*
G01*
X135300000Y-75837500D01*
G75*
G02*
X135062500Y-76075000I-237500J0D01*
G01*
X134487500Y-76075000D01*
G75*
G02*
X134250000Y-75837500I0J237500D01*
G01*
G37*
%TD.AperFunction*%
%TO.P,R31,1*%
%TO.N,Net-(R31-Pad1)*%
%TA.AperFunction,SMDPad,CuDef*%
G36*
G01*
X132500000Y-75837500D02*
X132500000Y-75362500D01*
G75*
G02*
X132737500Y-75125000I237500J0D01*
G01*
X133312500Y-75125000D01*
G75*
G02*
X133550000Y-75362500I0J-237500D01*
G01*
X133550000Y-75837500D01*
G75*
G02*
X133312500Y-76075000I-237500J0D01*
G01*
X132737500Y-76075000D01*
G75*
G02*
X132500000Y-75837500I0J237500D01*
G01*
G37*
%TD.AperFunction*%
%TD*%
%TO.P,R32,1*%
%TO.N,Net-(R32-Pad1)*%
%TA.AperFunction,SMDPad,CuDef*%
G36*
G01*
X132500000Y-78337500D02*
X132500000Y-77862500D01*
G75*
G02*
X132737500Y-77625000I237500J0D01*
G01*
X133312500Y-77625000D01*
G75*
G02*
X133550000Y-77862500I0J-237500D01*
G01*
X133550000Y-78337500D01*
G75*
G02*
X133312500Y-78575000I-237500J0D01*
G01*
X132737500Y-78575000D01*
G75*
G02*
X132500000Y-78337500I0J237500D01*
G01*
G37*
%TD.AperFunction*%
%TO.P,R32,2*%
%TO.N,Net-(JP21-Pad2)*%
%TA.AperFunction,SMDPad,CuDef*%
G36*
G01*
X134250000Y-78337500D02*
X134250000Y-77862500D01*
G75*
G02*
X134487500Y-77625000I237500J0D01*
G01*
X135062500Y-77625000D01*
G75*
G02*
X135300000Y-77862500I0J-237500D01*
G01*
X135300000Y-78337500D01*
G75*
G02*
X135062500Y-78575000I-237500J0D01*
G01*
X134487500Y-78575000D01*
G75*
G02*
X134250000Y-78337500I0J237500D01*
G01*
G37*
%TD.AperFunction*%
%TD*%
%TO.P,R33,1*%
%TO.N,Net-(R33-Pad1)*%
%TA.AperFunction,SMDPad,CuDef*%
G36*
G01*
X131900000Y-83762500D02*
X131900000Y-84237500D01*
G75*
G02*
X131662500Y-84475000I-237500J0D01*
G01*
X131087500Y-84475000D01*
G75*
G02*
X130850000Y-84237500I0J237500D01*
G01*
X130850000Y-83762500D01*
G75*
G02*
X131087500Y-83525000I237500J0D01*
G01*
X131662500Y-83525000D01*
G75*
G02*
X131900000Y-83762500I0J-237500D01*
G01*
G37*
%TD.AperFunction*%
%TO.P,R33,2*%
%TO.N,Net-(JP23-Pad2)*%
%TA.AperFunction,SMDPad,CuDef*%
G36*
G01*
X130150000Y-83762500D02*
X130150000Y-84237500D01*
G75*
G02*
X129912500Y-84475000I-237500J0D01*
G01*
X129337500Y-84475000D01*
G75*
G02*
X129100000Y-84237500I0J237500D01*
G01*
X129100000Y-83762500D01*
G75*
G02*
X129337500Y-83525000I237500J0D01*
G01*
X129912500Y-83525000D01*
G75*
G02*
X130150000Y-83762500I0J-237500D01*
G01*
G37*
%TD.AperFunction*%
%TD*%
D17*
%TO.N,GND*%
X125900000Y-79500000D03*
X123200000Y-79300000D03*
X125800000Y-77000000D03*
X125800000Y-74500000D03*
X108900000Y-114800000D03*
X108500000Y-111900000D03*
X105700000Y-109300000D03*
X105900000Y-97200000D03*
X105700000Y-94300000D03*
X105800000Y-92000000D03*
X105700000Y-89200000D03*
X108600000Y-113900000D03*
X142700000Y-76500000D03*
D18*
%TO.N,OUT1*%
X125100000Y-109000000D03*
D17*
%TO.N,+12V*%
X97400000Y-85000000D03*
X97300000Y-83700000D03*
X93500000Y-107000000D03*
X91200000Y-107000000D03*
X93300000Y-112700000D03*
X91400000Y-112900000D03*
X142200000Y-91400000D03*
X142200000Y-86000000D03*
X118000000Y-116700000D03*
X116607809Y-118298844D03*
%TO.N,GNDA*%
X118200000Y-108100000D03*
X110600000Y-108200000D03*
X111400000Y-106900000D03*
X118100000Y-101000000D03*
X111400000Y-99300000D03*
X111400000Y-100400000D03*
X118000000Y-87200000D03*
X111500000Y-85200000D03*
X119400000Y-93700000D03*
X118000000Y-94100000D03*
D18*
X132700000Y-90900000D03*
X133500000Y-112000000D03*
X132800000Y-99100014D03*
X132500000Y-104300000D03*
D17*
X97300000Y-117000000D03*
X97400000Y-110900000D03*
X97500000Y-105700000D03*
X97400000Y-99800000D03*
X97400000Y-94100000D03*
X97600000Y-88400000D03*
X111100087Y-86328160D03*
X111039452Y-93696187D03*
D18*
%TO.N,OUT2*%
X125300000Y-102000000D03*
%TO.N,OUT3*%
X125200000Y-95000000D03*
%TO.N,OUT4*%
X125500000Y-88000000D03*
D17*
%TO.N,SPI_CLK*%
X102500076Y-77600000D03*
X97693900Y-78102338D03*
%TO.N,SPI_MISO*%
X102500076Y-75997235D03*
X97883500Y-76430939D03*
%TO.N,SPI_MOSI*%
X110049376Y-68774965D03*
X102500076Y-75247222D03*
X108950762Y-69807969D03*
X97999990Y-75468780D03*
%TO.N,SPI_CS*%
X102500076Y-76834786D03*
X97803811Y-77249950D03*
%TO.N,+3V3*%
X88600000Y-69700000D03*
X95200000Y-69600000D03*
X99400000Y-81900000D03*
X102500000Y-81925000D03*
X104100000Y-81925000D03*
X105700000Y-81925000D03*
X107300000Y-81925000D03*
X108525020Y-82100000D03*
X105525000Y-99800000D03*
X105525000Y-101400000D03*
X105525000Y-103000000D03*
X105525000Y-104600000D03*
X108200000Y-75900000D03*
X108200000Y-73600000D03*
X110312727Y-70812735D03*
%TO.N,GPIO0*%
X124102905Y-69539573D03*
%TO.N,GPIO1*%
X122482852Y-69509481D03*
X120692665Y-69274979D03*
%TO.N,GPIO2*%
X113300000Y-77300000D03*
X113200000Y-79100000D03*
X99074990Y-78600000D03*
X108729820Y-78849989D03*
X104700919Y-78564540D03*
X107002513Y-78858754D03*
%TO.N,GPIO5*%
X121500000Y-70100000D03*
%TO.N,GPIO6*%
X125700000Y-69700000D03*
X128500000Y-69500000D03*
%TO.N,+5V*%
X81700000Y-79500000D03*
X102200000Y-79500000D03*
X97800000Y-79550013D03*
%TO.N,S_IN1*%
X128000000Y-66900000D03*
%TO.N,S_IN2*%
X122896238Y-64998371D03*
%TO.N,S_IN3*%
X104882002Y-70174913D03*
X106700000Y-71500000D03*
%TO.N,O_LED*%
X138300000Y-64500000D03*
%TO.N,S_IN4*%
X107442344Y-70942344D03*
%TO.N,S_IN5*%
X107550742Y-69091033D03*
X106972914Y-70325362D03*
%TO.N,S_IN6*%
X103900000Y-104400000D03*
X103024988Y-105400000D03*
%TO.N,S_IN7*%
X105200000Y-106400000D03*
X102795263Y-106450011D03*
%TO.N,S_IN8*%
X101900000Y-106200000D03*
X104783969Y-105775953D03*
%TO.N,Net-(R20-Pad2)*%
X99600000Y-80400000D03*
X103100000Y-79800000D03*
X106100004Y-79900000D03*
X108400045Y-79900009D03*
%TO.N,S_OUT3*%
X100700000Y-71800000D03*
%TO.N,Net-(R21-Pad2)*%
X105500001Y-75383276D03*
X102775000Y-72600000D03*
X108500008Y-81170945D03*
X106737667Y-80781813D03*
%TO.N,S_OUT4*%
X122100000Y-77000000D03*
X127300000Y-70500000D03*
%TO.N,Net-(R22-Pad2)*%
X122000000Y-81100000D03*
%TO.N,Net-(JP13-Pad2)*%
X140900000Y-90100000D03*
%TO.N,Net-(JP14-Pad2)*%
X140900000Y-87400000D03*
%TO.N,Net-(JP15-Pad2)*%
X140900000Y-84700000D03*
%TO.N,Net-(JP16-Pad2)*%
X140900000Y-81800000D03*
%TD*%
D19*
%TO.N,GND*%
X124450000Y-82050000D02*
X125650000Y-82050000D01*
X125900000Y-81800000D02*
X125900000Y-79500000D01*
X125650000Y-82050000D02*
X125900000Y-81800000D01*
X123410000Y-79510000D02*
X123200000Y-79300000D01*
X124450000Y-79510000D02*
X123410000Y-79510000D01*
X125760000Y-76960000D02*
X125800000Y-77000000D01*
X124450000Y-76960000D02*
X125760000Y-76960000D01*
X125730000Y-74430000D02*
X125800000Y-74500000D01*
X124450000Y-74430000D02*
X125730000Y-74430000D01*
X107150000Y-116950000D02*
X108350000Y-116950000D01*
X108900000Y-116400000D02*
X108900000Y-114800000D01*
X108350000Y-116950000D02*
X108900000Y-116400000D01*
X108460000Y-111860000D02*
X108500000Y-111900000D01*
X107150000Y-111860000D02*
X108460000Y-111860000D01*
X105730000Y-109330000D02*
X105700000Y-109300000D01*
X107150000Y-109330000D02*
X105730000Y-109330000D01*
X105950000Y-97250000D02*
X105900000Y-97200000D01*
X107150000Y-97250000D02*
X105950000Y-97250000D01*
X106110000Y-94710000D02*
X105700000Y-94300000D01*
X107150000Y-94710000D02*
X106110000Y-94710000D01*
X105960000Y-92160000D02*
X105800000Y-92000000D01*
X107150000Y-92160000D02*
X105960000Y-92160000D01*
X106130000Y-89630000D02*
X105700000Y-89200000D01*
X107150000Y-89630000D02*
X106130000Y-89630000D01*
X107150000Y-114410000D02*
X108090000Y-114410000D01*
X108090000Y-114410000D02*
X108600000Y-113900000D01*
X142725000Y-76475000D02*
X142700000Y-76500000D01*
X143900000Y-76475000D02*
X142725000Y-76475000D01*
D20*
X124135001Y-65535001D02*
X125435002Y-64235000D01*
X125435002Y-64235000D02*
X127915000Y-64235000D01*
X127915000Y-64235000D02*
X129215001Y-65535001D01*
D19*
%TO.N,Net-(D1-Pad2)*%
X143900000Y-72875000D02*
X143900000Y-74725000D01*
D21*
%TO.N,OUT1*%
X125300000Y-112000000D02*
X125300000Y-111700000D01*
X125300000Y-111700000D02*
X128700000Y-108300000D01*
X135500000Y-104502420D02*
X136000000Y-104502420D01*
X131702420Y-108300000D02*
X135500000Y-104502420D01*
X128700000Y-108300000D02*
X131702420Y-108300000D01*
D19*
%TO.N,+12V*%
X115584989Y-110800011D02*
X115750000Y-110635000D01*
X111500000Y-111100000D02*
X111799989Y-110800011D01*
X111500000Y-112000000D02*
X111500000Y-111100000D01*
X111799989Y-110800011D02*
X115584989Y-110800011D01*
X115750000Y-110635000D02*
X116625000Y-110635000D01*
X111500000Y-103500000D02*
X111700000Y-103300000D01*
X111500000Y-104400000D02*
X111500000Y-103500000D01*
X116390000Y-103300000D02*
X116625000Y-103535000D01*
X111700000Y-103300000D02*
X116390000Y-103300000D01*
X111500000Y-96400000D02*
X111800000Y-96100000D01*
X111500000Y-97300000D02*
X111500000Y-96400000D01*
X116090000Y-96100000D02*
X116625000Y-96635000D01*
X111800000Y-96100000D02*
X116090000Y-96100000D01*
X111500000Y-89500000D02*
X111800000Y-89200000D01*
X111500000Y-90400000D02*
X111500000Y-89500000D01*
X116090000Y-89200000D02*
X116625000Y-89735000D01*
X111800000Y-89200000D02*
X116090000Y-89200000D01*
D20*
X119200000Y-106575000D02*
X119375000Y-106400000D01*
X119165000Y-96635000D02*
X119375000Y-96425000D01*
X116625000Y-96635000D02*
X119165000Y-96635000D01*
X119375000Y-99400000D02*
X119375000Y-96425000D01*
X119335000Y-103535000D02*
X119375000Y-103575000D01*
X116625000Y-103535000D02*
X119335000Y-103535000D01*
X119375000Y-103575000D02*
X119375000Y-99400000D01*
X119375000Y-106400000D02*
X119375000Y-103575000D01*
X116625000Y-110635000D02*
X119135000Y-110635000D01*
X119200000Y-110700000D02*
X119200000Y-106575000D01*
X119135000Y-110635000D02*
X119200000Y-110700000D01*
X119200000Y-113600000D02*
X119200000Y-110700000D01*
X118335000Y-89735000D02*
X116625000Y-89735000D01*
X120400000Y-93817166D02*
X120400000Y-91800000D01*
X119375000Y-94842166D02*
X120400000Y-93817166D01*
X119375000Y-96425000D02*
X119375000Y-94842166D01*
D19*
X112425000Y-92600000D02*
X112425000Y-92925000D01*
X112425000Y-92925000D02*
X113000000Y-93500000D01*
X113000000Y-93500000D02*
X114900000Y-93500000D01*
X114900000Y-93500000D02*
X116700000Y-91700000D01*
X118800000Y-91700000D02*
X119550000Y-90950000D01*
X116700000Y-91700000D02*
X118800000Y-91700000D01*
D20*
X119550000Y-90950000D02*
X118335000Y-89735000D01*
X120400000Y-91800000D02*
X119550000Y-90950000D01*
X139400000Y-91400000D02*
X140900000Y-91400000D01*
X138600000Y-92200000D02*
X139400000Y-91400000D01*
X138600000Y-106900000D02*
X138600000Y-92200000D01*
X137500000Y-108000000D02*
X138600000Y-106900000D01*
X136000000Y-108000000D02*
X137500000Y-108000000D01*
X138600000Y-92200000D02*
X138600000Y-86800000D01*
X139400000Y-86000000D02*
X140900000Y-86000000D01*
X138600000Y-86800000D02*
X139400000Y-86000000D01*
X119200000Y-113600000D02*
X119200000Y-114400000D01*
X119200000Y-114400000D02*
X119900000Y-115100000D01*
X119900000Y-115100000D02*
X133700000Y-115100000D01*
X136000000Y-112800000D02*
X136000000Y-108000000D01*
X133700000Y-115100000D02*
X136000000Y-112800000D01*
D19*
X96600000Y-85800000D02*
X97400000Y-85000000D01*
X96300000Y-85800000D02*
X96600000Y-85800000D01*
X97000000Y-84000000D02*
X89000000Y-84000000D01*
X97300000Y-83700000D02*
X97000000Y-84000000D01*
D20*
X89000000Y-84000000D02*
X87700000Y-84000000D01*
X87700000Y-84000000D02*
X86200000Y-85500000D01*
X86200000Y-110000000D02*
X89100000Y-112900000D01*
X89100000Y-112900000D02*
X91400000Y-112900000D01*
D19*
X90700000Y-89300000D02*
X86400000Y-89300000D01*
X95900000Y-90000000D02*
X91400000Y-90000000D01*
X96300000Y-90400000D02*
X95900000Y-90000000D01*
X86400000Y-89300000D02*
X86200000Y-89500000D01*
X91400000Y-90000000D02*
X90700000Y-89300000D01*
X96300000Y-91300000D02*
X96300000Y-90400000D01*
D20*
X86200000Y-85500000D02*
X86200000Y-89500000D01*
D19*
X90600000Y-92700000D02*
X86300000Y-92700000D01*
X95900000Y-95400000D02*
X93300000Y-95400000D01*
X96400000Y-95900000D02*
X95900000Y-95400000D01*
X96400000Y-96800000D02*
X96400000Y-95900000D01*
X93300000Y-95400000D02*
X90600000Y-92700000D01*
X86300000Y-92700000D02*
X86200000Y-92600000D01*
D20*
X86200000Y-89500000D02*
X86200000Y-92600000D01*
X86200000Y-92600000D02*
X86200000Y-96000000D01*
D19*
X90400000Y-96300000D02*
X86500000Y-96300000D01*
X91700000Y-99700000D02*
X91700000Y-97600000D01*
X86500000Y-96300000D02*
X86200000Y-96000000D01*
X91700000Y-97600000D02*
X90400000Y-96300000D01*
X93300000Y-101300000D02*
X91700000Y-99700000D01*
X95900000Y-101300000D02*
X93300000Y-101300000D01*
X96300000Y-101700000D02*
X95900000Y-101300000D01*
X96300000Y-102600000D02*
X96300000Y-101700000D01*
X95800000Y-107000000D02*
X93500000Y-107000000D01*
X96200000Y-107400000D02*
X95800000Y-107000000D01*
X96200000Y-108300000D02*
X96200000Y-107400000D01*
X91200000Y-107000000D02*
X90900000Y-106700000D01*
X86300000Y-106700000D02*
X86200000Y-106600000D01*
X90900000Y-106700000D02*
X86300000Y-106700000D01*
D20*
X86200000Y-106600000D02*
X86200000Y-110000000D01*
X86200000Y-96000000D02*
X86200000Y-106600000D01*
D19*
X95700000Y-112700000D02*
X93300000Y-112700000D01*
X96100000Y-113100000D02*
X95700000Y-112700000D01*
X96100000Y-114000000D02*
X96100000Y-113100000D01*
D20*
X140900000Y-91400000D02*
X142200000Y-91400000D01*
X140900000Y-86000000D02*
X142200000Y-86000000D01*
X119600000Y-115100000D02*
X119900000Y-115100000D01*
X118000000Y-116700000D02*
X119600000Y-115100000D01*
X104379677Y-118900000D02*
X104554708Y-119075031D01*
X91400000Y-118200000D02*
X92100000Y-118900000D01*
X91400000Y-112900000D02*
X91400000Y-118200000D01*
X115831622Y-119075031D02*
X116607809Y-118298844D01*
X92100000Y-118900000D02*
X104379677Y-118900000D01*
X104554708Y-119075031D02*
X115831622Y-119075031D01*
D19*
%TO.N,GNDA*%
X118195000Y-108095000D02*
X118200000Y-108100000D01*
X116625000Y-108095000D02*
X118195000Y-108095000D01*
X111500000Y-109100000D02*
X110600000Y-108200000D01*
X111500000Y-109300000D02*
X111500000Y-109100000D01*
X111600000Y-107100000D02*
X111400000Y-106900000D01*
X112425000Y-107100000D02*
X111600000Y-107100000D01*
X118095000Y-100995000D02*
X118100000Y-101000000D01*
X116625000Y-100995000D02*
X118095000Y-100995000D01*
X111600000Y-99500000D02*
X111400000Y-99300000D01*
X112625000Y-99500000D02*
X111600000Y-99500000D01*
X111500000Y-100500000D02*
X111400000Y-100400000D01*
X111500000Y-101700000D02*
X111500000Y-100500000D01*
X117995000Y-87195000D02*
X118000000Y-87200000D01*
X116625000Y-87195000D02*
X117995000Y-87195000D01*
X111800000Y-85500000D02*
X111500000Y-85200000D01*
X112525000Y-85500000D02*
X111800000Y-85500000D01*
X119375000Y-93675000D02*
X119400000Y-93700000D01*
X119375000Y-92500000D02*
X119375000Y-93675000D01*
X117995000Y-94095000D02*
X118000000Y-94100000D01*
X116625000Y-94095000D02*
X117995000Y-94095000D01*
D21*
X132600000Y-91000000D02*
X132700000Y-90900000D01*
X130700000Y-91000000D02*
X132600000Y-91000000D01*
X130700000Y-112000000D02*
X133500000Y-112000000D01*
X130700000Y-98000000D02*
X131699986Y-98000000D01*
X131699986Y-98000000D02*
X132800000Y-99100014D01*
X130700000Y-104600000D02*
X132500000Y-104300000D01*
D19*
X97200000Y-116900000D02*
X97300000Y-117000000D01*
X96100000Y-116900000D02*
X97200000Y-116900000D01*
X97200000Y-111100000D02*
X97400000Y-110900000D01*
X96100000Y-111100000D02*
X97200000Y-111100000D01*
X97400000Y-105600000D02*
X97500000Y-105700000D01*
X96300000Y-105600000D02*
X97400000Y-105600000D01*
X97300000Y-99700000D02*
X97400000Y-99800000D01*
X96300000Y-99700000D02*
X97300000Y-99700000D01*
X97300000Y-94000000D02*
X97400000Y-94100000D01*
X96300000Y-94000000D02*
X97300000Y-94000000D01*
X97500000Y-88500000D02*
X97600000Y-88400000D01*
X96300000Y-88500000D02*
X97500000Y-88500000D01*
X111500000Y-94600000D02*
X111500000Y-94156735D01*
X111500000Y-94156735D02*
X111039452Y-93696187D01*
X111500000Y-86728073D02*
X111100087Y-86328160D01*
X111500000Y-87700000D02*
X111500000Y-86728073D01*
D21*
%TO.N,OUT2*%
X128357026Y-101942974D02*
X135059326Y-101942974D01*
X135059326Y-101942974D02*
X136000000Y-101002300D01*
X125300000Y-105000000D02*
X128357026Y-101942974D01*
%TO.N,OUT3*%
X135608054Y-97502180D02*
X136000000Y-97502180D01*
X135172182Y-97502180D02*
X136000000Y-97502180D01*
X133320013Y-95650011D02*
X135172182Y-97502180D01*
X127649989Y-95650011D02*
X133320013Y-95650011D01*
X125300000Y-98000000D02*
X127649989Y-95650011D01*
%TO.N,OUT4*%
X128229998Y-93500000D02*
X135500000Y-93500000D01*
X125729998Y-91000000D02*
X128229998Y-93500000D01*
X125300000Y-91000000D02*
X125729998Y-91000000D01*
X135500000Y-93500000D02*
X136000000Y-94000000D01*
D19*
%TO.N,UART_TX*%
X84920000Y-74730000D02*
X84920000Y-70780000D01*
X84920000Y-70780000D02*
X87000000Y-68700000D01*
X87000000Y-68700000D02*
X87000000Y-64300000D01*
X87000000Y-64300000D02*
X87300000Y-64000000D01*
X94660000Y-64000000D02*
X96195001Y-65535001D01*
X87300000Y-64000000D02*
X94660000Y-64000000D01*
%TO.N,UART_RX*%
X87460000Y-77270000D02*
X88600000Y-76130000D01*
X88600000Y-76130000D02*
X88600000Y-73500000D01*
X88600000Y-73500000D02*
X92400000Y-69700000D01*
X92400000Y-69700000D02*
X92400000Y-67600000D01*
X97320002Y-66950000D02*
X98735001Y-65535001D01*
X93050000Y-66950000D02*
X97320002Y-66950000D01*
X92400000Y-67600000D02*
X93050000Y-66950000D01*
%TO.N,I2C_SDA*%
X87460000Y-71730002D02*
X91115001Y-68075001D01*
X87460000Y-74730000D02*
X87460000Y-71730002D01*
%TO.N,I2C_SCL*%
X90000000Y-77270000D02*
X88900000Y-76170000D01*
X88900000Y-76170000D02*
X88900000Y-74000000D01*
X93655001Y-69244999D02*
X93655001Y-68075001D01*
X88900000Y-74000000D02*
X93655001Y-69244999D01*
%TO.N,SPI_CLK*%
X110107986Y-70274998D02*
X109850795Y-70532189D01*
X109850795Y-70532189D02*
X109850795Y-70549206D01*
X116515001Y-68075001D02*
X114315004Y-70274998D01*
X104024976Y-76075100D02*
X102500076Y-77600000D01*
X114315004Y-70274998D02*
X110107986Y-70274998D01*
X109850795Y-70549206D02*
X107400000Y-73000000D01*
X107400000Y-73000000D02*
X105697675Y-73000000D01*
X105697675Y-73000000D02*
X104024976Y-74672699D01*
X104024976Y-74672699D02*
X104024976Y-76075100D01*
X90936201Y-77051779D02*
X92286759Y-78402337D01*
X97393901Y-78402337D02*
X97693900Y-78102338D01*
X92286759Y-78402337D02*
X97393901Y-78402337D01*
X90936201Y-75666201D02*
X90936201Y-77051779D01*
X90000000Y-74730000D02*
X90936201Y-75666201D01*
%TO.N,SPI_MISO*%
X107151464Y-72399978D02*
X105449140Y-72399978D01*
X112450024Y-69599978D02*
X109934448Y-69599978D01*
X109934448Y-69599978D02*
X109250773Y-70283653D01*
X103424954Y-74424164D02*
X103424954Y-75072357D01*
X105449140Y-72399978D02*
X103424954Y-74424164D01*
X109250773Y-70300670D02*
X107151464Y-72399978D01*
X109250773Y-70283653D02*
X109250773Y-70300670D01*
X113975001Y-68075001D02*
X112450024Y-69599978D01*
X103424954Y-75072357D02*
X102500076Y-75997235D01*
X97545968Y-76093407D02*
X97883500Y-76430939D01*
X93716593Y-76093407D02*
X97545968Y-76093407D01*
X92540000Y-77270000D02*
X93716593Y-76093407D01*
%TO.N,SPI_MOSI*%
X110735037Y-68774965D02*
X110049376Y-68774965D01*
X111435001Y-68075001D02*
X110735037Y-68774965D01*
X92540000Y-74730000D02*
X93578779Y-75768779D01*
X93578779Y-75768779D02*
X97699991Y-75768779D01*
X97699991Y-75768779D02*
X97999990Y-75468780D01*
X102500076Y-75247222D02*
X102500076Y-74924763D01*
X102500076Y-74924763D02*
X105399838Y-72025001D01*
X107102163Y-72025001D02*
X108950762Y-70176402D01*
X105399838Y-72025001D02*
X107102163Y-72025001D01*
X108950762Y-70176402D02*
X108950762Y-69807969D01*
%TO.N,SPI_CS*%
X105573408Y-72699989D02*
X103724965Y-74548432D01*
X103724965Y-75609897D02*
X102500076Y-76834786D01*
X103724965Y-74548432D02*
X103724965Y-75609897D01*
X109550784Y-70424938D02*
X107275732Y-72699989D01*
X107275732Y-72699989D02*
X105573408Y-72699989D01*
X109550784Y-70407921D02*
X109550784Y-70424938D01*
X110058716Y-69899989D02*
X109550784Y-70407921D01*
X113775733Y-69899989D02*
X110058716Y-69899989D01*
X115390000Y-66660002D02*
X115390000Y-68285722D01*
X116515001Y-65535001D02*
X115390000Y-66660002D01*
X115390000Y-68285722D02*
X113775733Y-69899989D01*
X95080000Y-77270000D02*
X97783761Y-77270000D01*
X97783761Y-77270000D02*
X97803811Y-77249950D01*
D20*
%TO.N,+3V3*%
X88575001Y-69675001D02*
X88600000Y-69700000D01*
X88575001Y-68075001D02*
X88575001Y-69675001D01*
X105700000Y-81925000D02*
X107300000Y-81925000D01*
X108525020Y-82550836D02*
X108300000Y-82775856D01*
X108525020Y-82100000D02*
X108525020Y-82550836D01*
X108300000Y-82775856D02*
X108300000Y-98000000D01*
X108300000Y-98000000D02*
X107700000Y-98600000D01*
X106725000Y-98600000D02*
X105525000Y-99800000D01*
X107700000Y-98600000D02*
X106725000Y-98600000D01*
X108200000Y-73600000D02*
X108200000Y-72925462D01*
X108200000Y-72925462D02*
X110312727Y-70812735D01*
X108441212Y-76141212D02*
X108200000Y-75900000D01*
X115668788Y-76141212D02*
X108441212Y-76141212D01*
X117080000Y-74730000D02*
X115668788Y-76141212D01*
X98700000Y-74400000D02*
X98700000Y-74700000D01*
X95200000Y-70900000D02*
X98700000Y-74400000D01*
X95200000Y-69600000D02*
X95200000Y-70900000D01*
X95791199Y-74018801D02*
X98218801Y-74018801D01*
X98374988Y-78263998D02*
X98374988Y-78936002D01*
X98700000Y-74500000D02*
X98700000Y-77938986D01*
X98700000Y-81200000D02*
X99400000Y-81900000D01*
X98700000Y-79261014D02*
X98700000Y-81200000D01*
X98374988Y-78936002D02*
X98700000Y-79261014D01*
X98700000Y-77938986D02*
X98374988Y-78263998D01*
X98218801Y-74018801D02*
X98700000Y-74500000D01*
X95080000Y-74730000D02*
X95791199Y-74018801D01*
X107300000Y-81925000D02*
X107437668Y-81787332D01*
X108029819Y-78821413D02*
X108029819Y-78513988D01*
X107437668Y-80445812D02*
X107400024Y-80408168D01*
X107400024Y-79451208D02*
X108029819Y-78821413D01*
X107437668Y-81787332D02*
X107437668Y-80445812D01*
X108029819Y-78513988D02*
X108200000Y-78343807D01*
X108200000Y-78343807D02*
X108200000Y-75900000D01*
X107400024Y-80408168D02*
X107400024Y-79451208D01*
D19*
%TO.N,IN6*%
X89000000Y-105000000D02*
X90300000Y-105000000D01*
X90300000Y-105000000D02*
X91900000Y-106600000D01*
X91900000Y-106600000D02*
X91900000Y-107500000D01*
X91900000Y-107500000D02*
X92300000Y-107900000D01*
X92300000Y-112800000D02*
X93500000Y-114000000D01*
X92300000Y-107900000D02*
X92300000Y-112800000D01*
X93500000Y-114000000D02*
X93500000Y-116900000D01*
%TO.N,IN5*%
X89000000Y-101500000D02*
X90700000Y-101500000D01*
X90700000Y-101500000D02*
X92300000Y-103100000D01*
X92300000Y-107000000D02*
X93600000Y-108300000D01*
X92300000Y-103100000D02*
X92300000Y-107000000D01*
X93600000Y-111000000D02*
X93500000Y-111100000D01*
X93600000Y-108300000D02*
X93600000Y-111000000D01*
%TO.N,IN4*%
X89100000Y-98000000D02*
X93700000Y-102600000D01*
X89000000Y-98000000D02*
X89100000Y-98000000D01*
X93700000Y-102600000D02*
X93700000Y-105600000D01*
%TO.N,IN3*%
X91497820Y-94497820D02*
X93800000Y-96800000D01*
X89000000Y-94497820D02*
X91497820Y-94497820D01*
X93800000Y-99600000D02*
X93700000Y-99700000D01*
X93800000Y-96800000D02*
X93800000Y-99600000D01*
%TO.N,IN2*%
X93397700Y-90997700D02*
X93700000Y-91300000D01*
X89000000Y-90997700D02*
X93397700Y-90997700D01*
X93700000Y-91300000D02*
X93700000Y-94000000D01*
%TO.N,IN1*%
X92697580Y-87497580D02*
X93700000Y-88500000D01*
X89000000Y-87497580D02*
X92697580Y-87497580D01*
X93700000Y-88500000D02*
X93700000Y-85800000D01*
%TO.N,GPIO0*%
X123763311Y-69539573D02*
X124102905Y-69539573D01*
X117080000Y-77270000D02*
X117080000Y-76222884D01*
X117080000Y-76222884D02*
X123763311Y-69539573D01*
%TO.N,GPIO1*%
X120392666Y-68974980D02*
X120692665Y-69274979D01*
X121595001Y-65535001D02*
X120392666Y-66737336D01*
X120392666Y-66737336D02*
X120392666Y-68974980D01*
X114540000Y-74730000D02*
X118544998Y-70725002D01*
X122482852Y-69933745D02*
X122482852Y-69509481D01*
X118544998Y-70725002D02*
X121691595Y-70725002D01*
X121691595Y-70725002D02*
X122482852Y-69933745D01*
%TO.N,GPIO2*%
X113330000Y-77270000D02*
X113300000Y-77300000D01*
X114540000Y-77270000D02*
X113330000Y-77270000D01*
X96195001Y-68075001D02*
X99299989Y-71179989D01*
X99299989Y-78375001D02*
X99074990Y-78600000D01*
X99299989Y-71179989D02*
X99299989Y-78375001D01*
X108979831Y-79100000D02*
X108729820Y-78849989D01*
X113200000Y-79100000D02*
X108979831Y-79100000D01*
X106708299Y-78564540D02*
X107002513Y-78858754D01*
X104700919Y-78564540D02*
X106708299Y-78564540D01*
%TO.N,GPIO3*%
X115670000Y-74754422D02*
X116630623Y-73793799D01*
X115670000Y-74985578D02*
X115670000Y-74754422D01*
X116630623Y-73793799D02*
X118557644Y-73793799D01*
X112000000Y-74730000D02*
X112936201Y-75666201D01*
X114989377Y-75666201D02*
X115670000Y-74985578D01*
X120226430Y-72125013D02*
X120753592Y-72125013D01*
X120753592Y-72125013D02*
X123235002Y-69643603D01*
X123235002Y-69643603D02*
X123235002Y-68975000D01*
X112936201Y-75666201D02*
X114989377Y-75666201D01*
X123235002Y-68975000D02*
X124135001Y-68075001D01*
X118557644Y-73793799D02*
X120226430Y-72125013D01*
%TO.N,GPIO4*%
X119999989Y-76112413D02*
X119999989Y-73727175D01*
X119999989Y-73727175D02*
X123527196Y-70199967D01*
X112936201Y-78206201D02*
X117906201Y-78206201D01*
X123527196Y-70199967D02*
X124275754Y-70199967D01*
X112000000Y-77270000D02*
X112936201Y-78206201D01*
X125500721Y-68975000D02*
X125775002Y-68975000D01*
X125775002Y-68975000D02*
X126675001Y-68075001D01*
X117906201Y-78206201D02*
X119999989Y-76112413D01*
X124275754Y-70199967D02*
X125500721Y-68975000D01*
%TO.N,GPIO5*%
X114989377Y-73793799D02*
X118683176Y-70100000D01*
X110396201Y-73793799D02*
X114989377Y-73793799D01*
X109460000Y-74730000D02*
X110396201Y-73793799D01*
X118683176Y-70100000D02*
X121500000Y-70100000D01*
%TO.N,GPIO6*%
X129215001Y-68784999D02*
X129215001Y-68075001D01*
X128500000Y-69500000D02*
X129215001Y-68784999D01*
X113452001Y-78574999D02*
X113677002Y-78800000D01*
X113677002Y-78800000D02*
X117900000Y-78800000D01*
X124451465Y-70499978D02*
X125251443Y-69700000D01*
X120300000Y-73851443D02*
X123651464Y-70499978D01*
X120300000Y-76400000D02*
X120300000Y-73851443D01*
X117900000Y-78800000D02*
X120300000Y-76400000D01*
X109460000Y-77270000D02*
X110764999Y-78574999D01*
X110764999Y-78574999D02*
X113452001Y-78574999D01*
X123651464Y-70499978D02*
X124451465Y-70499978D01*
X125251443Y-69700000D02*
X125700000Y-69700000D01*
%TO.N,+5V*%
X102150000Y-79500000D02*
X102200000Y-79500000D01*
D20*
X104499987Y-76926964D02*
X104499987Y-74869454D01*
X102150000Y-79276951D02*
X104499987Y-76926964D01*
X106208801Y-74018801D02*
X106920000Y-74730000D01*
X105350640Y-74018801D02*
X106208801Y-74018801D01*
X104499987Y-74869454D02*
X105350640Y-74018801D01*
X102150000Y-79500000D02*
X102150000Y-79276951D01*
X81700000Y-79500000D02*
X97749987Y-79500000D01*
X97749987Y-79500000D02*
X97800000Y-79550013D01*
X91115001Y-65535001D02*
X88575001Y-65535001D01*
D19*
%TO.N,Net-(JP17-Pad2)*%
X108899969Y-98821713D02*
X108775011Y-98696755D01*
X108775011Y-98696755D02*
X108775011Y-83355036D01*
X122269876Y-82499923D02*
X122769875Y-82999923D01*
X127700000Y-78002884D02*
X127700000Y-73800000D01*
X122769875Y-82999923D02*
X126254409Y-82999923D01*
X109630124Y-82499923D02*
X122269876Y-82499923D01*
X127000000Y-82254332D02*
X127000000Y-78702884D01*
X112500000Y-113200000D02*
X109600000Y-113200000D01*
X126254409Y-82999923D02*
X127000000Y-82254332D01*
X108899969Y-109624248D02*
X108899969Y-98821713D01*
X131500000Y-72300000D02*
X132000000Y-71800000D01*
X112800000Y-112000000D02*
X112800000Y-112900000D01*
X133875000Y-71800000D02*
X134775000Y-72700000D01*
X132000000Y-71800000D02*
X133875000Y-71800000D01*
X129200000Y-72300000D02*
X131500000Y-72300000D01*
X127700000Y-73800000D02*
X129200000Y-72300000D01*
X127000000Y-78702884D02*
X127700000Y-78002884D01*
X109300000Y-112900000D02*
X109300000Y-110024279D01*
X112800000Y-112900000D02*
X112500000Y-113200000D01*
X108775011Y-83355036D02*
X109630124Y-82499923D01*
X109600000Y-113200000D02*
X109300000Y-112900000D01*
X109300000Y-110024279D02*
X108899969Y-109624248D01*
%TO.N,Net-(JP17-Pad3)*%
X114195000Y-111905000D02*
X114100000Y-112000000D01*
X116625000Y-111905000D02*
X114195000Y-111905000D01*
X116625000Y-111905000D02*
X116625000Y-113225000D01*
X117000000Y-113600000D02*
X117450000Y-113600000D01*
X116625000Y-113225000D02*
X117000000Y-113600000D01*
%TO.N,Net-(JP18-Pad2)*%
X128100000Y-78027163D02*
X128100000Y-76280000D01*
X127399945Y-78727218D02*
X128100000Y-78027163D01*
X127399945Y-82278665D02*
X127399945Y-78727218D01*
X126378677Y-83299934D02*
X127399945Y-82278665D01*
X122145609Y-82799935D02*
X122645607Y-83299934D01*
X109754392Y-82799934D02*
X122145609Y-82799935D01*
X110200000Y-110500000D02*
X109199980Y-109499980D01*
X109075022Y-83479304D02*
X109754392Y-82799934D01*
X109075022Y-95972138D02*
X109075022Y-83479304D01*
X109199980Y-96097096D02*
X109075022Y-95972138D01*
X109199980Y-109499980D02*
X109199980Y-96097096D01*
X112500000Y-110500000D02*
X110200000Y-110500000D01*
X112800000Y-109300000D02*
X112800000Y-110200000D01*
X112800000Y-110200000D02*
X112500000Y-110500000D01*
X129950000Y-74430000D02*
X130750000Y-74430000D01*
X128100000Y-76280000D02*
X129950000Y-74430000D01*
X122645607Y-83299934D02*
X126378677Y-83299934D01*
%TO.N,Net-(JP18-Pad1)*%
X116560000Y-109300000D02*
X116625000Y-109365000D01*
X114100000Y-109300000D02*
X116560000Y-109300000D01*
X114175000Y-109225000D02*
X114100000Y-109300000D01*
X114175000Y-107100000D02*
X114175000Y-109225000D01*
%TO.N,Net-(JP19-Pad3)*%
X114505000Y-104805000D02*
X114100000Y-104400000D01*
X116625000Y-104805000D02*
X114505000Y-104805000D01*
X116625000Y-105400000D02*
X117625000Y-106400000D01*
X116625000Y-104805000D02*
X116625000Y-105400000D01*
%TO.N,Net-(JP19-Pad2)*%
X127699956Y-82402933D02*
X127699956Y-78851486D01*
X134775000Y-76075000D02*
X134775000Y-75600000D01*
X127699956Y-78851486D02*
X128499978Y-78051464D01*
X128499978Y-78051464D02*
X128499978Y-76900022D01*
X129065001Y-76334999D02*
X131834999Y-76334999D01*
X131834999Y-76334999D02*
X132100000Y-76600000D01*
X128499978Y-76900022D02*
X129065001Y-76334999D01*
X110300000Y-105700000D02*
X109799978Y-105199978D01*
X134250000Y-76600000D02*
X134775000Y-76075000D01*
X122021340Y-83099945D02*
X122521339Y-83599945D01*
X122521339Y-83599945D02*
X126502945Y-83599945D01*
X132100000Y-76600000D02*
X134250000Y-76600000D01*
X126502945Y-83599945D02*
X127699956Y-82402933D01*
X112400000Y-105700000D02*
X110300000Y-105700000D01*
X112800000Y-104400000D02*
X112800000Y-105300000D01*
X109375033Y-83603572D02*
X109878660Y-83099945D01*
X109375033Y-95847870D02*
X109375033Y-83603572D01*
X109799978Y-96272815D02*
X109375033Y-95847870D01*
X109799978Y-105199978D02*
X109799978Y-96272815D01*
X112800000Y-105300000D02*
X112400000Y-105700000D01*
X109878660Y-83099945D02*
X122021340Y-83099945D01*
%TO.N,Net-(JP20-Pad1)*%
X114665000Y-102265000D02*
X114100000Y-101700000D01*
X116625000Y-102265000D02*
X114665000Y-102265000D01*
X114100000Y-99775000D02*
X114375000Y-99500000D01*
X114100000Y-101700000D02*
X114100000Y-99775000D01*
%TO.N,Net-(JP20-Pad2)*%
X112800000Y-101700000D02*
X112800000Y-101024279D01*
X112800000Y-102600000D02*
X112600000Y-102800000D01*
X112800000Y-101700000D02*
X112800000Y-102600000D01*
X112600000Y-102800000D02*
X110944998Y-102800000D01*
X110944998Y-102800000D02*
X110099989Y-101954991D01*
X110099989Y-101954991D02*
X110099989Y-96148547D01*
X110099989Y-96148547D02*
X109675044Y-95723602D01*
X109675044Y-95723602D02*
X109675044Y-83727840D01*
X110002928Y-83399956D02*
X121897073Y-83399957D01*
X121897073Y-83399957D02*
X122397071Y-83899956D01*
X126627213Y-83899956D02*
X127999967Y-82527201D01*
X127999967Y-82527201D02*
X127999967Y-79460033D01*
X109675044Y-83727840D02*
X110002928Y-83399956D01*
X127999967Y-79460033D02*
X130500000Y-76960000D01*
X130500000Y-76960000D02*
X130750000Y-76960000D01*
X122397071Y-83899956D02*
X126627213Y-83899956D01*
%TO.N,Net-(JP21-Pad2)*%
X112600000Y-98400000D02*
X110600000Y-98400000D01*
X110600000Y-96224278D02*
X109975055Y-95599333D01*
X112800000Y-97300000D02*
X112800000Y-98200000D01*
X109975055Y-95599333D02*
X109975055Y-84252108D01*
X110527196Y-83699967D02*
X121772804Y-83699967D01*
X109975055Y-84252108D02*
X110527196Y-83699967D01*
X122272803Y-84199967D02*
X126751481Y-84199967D01*
X121772804Y-83699967D02*
X122272803Y-84199967D01*
X110600000Y-98400000D02*
X110600000Y-96224278D01*
X126751481Y-84199967D02*
X128299978Y-82651469D01*
X128299978Y-79800022D02*
X129215001Y-78884999D01*
X129215001Y-78884999D02*
X133990001Y-78884999D01*
X128299978Y-82651469D02*
X128299978Y-79800022D01*
X133990001Y-78884999D02*
X134775000Y-78100000D01*
X112800000Y-98200000D02*
X112600000Y-98400000D01*
%TO.N,Net-(JP21-Pad3)*%
X114705000Y-97905000D02*
X114100000Y-97300000D01*
X116625000Y-97905000D02*
X114705000Y-97905000D01*
X117625000Y-99400000D02*
X117625000Y-99125000D01*
X116625000Y-98125000D02*
X116625000Y-97905000D01*
X117625000Y-99125000D02*
X116625000Y-98125000D01*
%TO.N,Net-(JP22-Pad1)*%
X114865000Y-95365000D02*
X114100000Y-94600000D01*
X116625000Y-95365000D02*
X114865000Y-95365000D01*
X116625000Y-95365000D02*
X117935000Y-95365000D01*
X117935000Y-95365000D02*
X118700000Y-94600000D01*
X118700000Y-93575000D02*
X117625000Y-92500000D01*
X118700000Y-94600000D02*
X118700000Y-93575000D01*
%TO.N,Net-(JP22-Pad2)*%
X126875749Y-84499978D02*
X128599989Y-82775737D01*
X128599989Y-82775737D02*
X128599989Y-80860011D01*
X129950000Y-79510000D02*
X130750000Y-79510000D01*
X128599989Y-80860011D02*
X129950000Y-79510000D01*
X110500000Y-95700000D02*
X110275066Y-95475066D01*
X110275066Y-84376376D02*
X110651464Y-83999978D01*
X110275066Y-95475066D02*
X110275066Y-84376376D01*
X110651464Y-83999978D02*
X121648537Y-83999979D01*
X121648537Y-83999979D02*
X122148535Y-84499978D01*
X112800000Y-95500000D02*
X112600000Y-95700000D01*
X122148535Y-84499978D02*
X126875749Y-84499978D01*
X112600000Y-95700000D02*
X110500000Y-95700000D01*
X112800000Y-94600000D02*
X112800000Y-95500000D01*
%TO.N,Net-(JP23-Pad2)*%
X110575077Y-84500644D02*
X110775732Y-84299989D01*
X121524268Y-84299989D02*
X122024267Y-84799989D01*
X110575077Y-91130079D02*
X110575077Y-84500644D01*
X128825011Y-84799989D02*
X129625000Y-84000000D01*
X122024267Y-84799989D02*
X128825011Y-84799989D01*
X110775732Y-84299989D02*
X121524268Y-84299989D01*
X111144998Y-91700000D02*
X110575077Y-91130079D01*
X112400000Y-91700000D02*
X111144998Y-91700000D01*
X112800000Y-91300000D02*
X112400000Y-91700000D01*
X112800000Y-90400000D02*
X112800000Y-91300000D01*
%TO.N,Net-(JP23-Pad3)*%
X114705000Y-91005000D02*
X114100000Y-90400000D01*
X116625000Y-91005000D02*
X114705000Y-91005000D01*
X114175000Y-90475000D02*
X114100000Y-90400000D01*
X114175000Y-92600000D02*
X114175000Y-90475000D01*
%TO.N,Net-(JP24-Pad2)*%
X131550000Y-82050000D02*
X130750000Y-82050000D01*
X132500000Y-83000000D02*
X131550000Y-82050000D01*
X121899999Y-85100000D02*
X132300000Y-85100000D01*
X121400000Y-84600000D02*
X121899999Y-85100000D01*
X110900000Y-85000000D02*
X111300000Y-84600000D01*
X132500000Y-84900000D02*
X132500000Y-83000000D01*
X110900000Y-85351069D02*
X110900000Y-85000000D01*
X132300000Y-85100000D02*
X132500000Y-84900000D01*
X111300000Y-84600000D02*
X121400000Y-84600000D01*
X112800000Y-87251069D02*
X110900000Y-85351069D01*
X112800000Y-87700000D02*
X112800000Y-87251069D01*
%TO.N,Net-(JP24-Pad1)*%
X114865000Y-88465000D02*
X114100000Y-87700000D01*
X116625000Y-88465000D02*
X114865000Y-88465000D01*
X114100000Y-85675000D02*
X114275000Y-85500000D01*
X114100000Y-87700000D02*
X114100000Y-85675000D01*
%TO.N,S_IN1*%
X107150000Y-83825000D02*
X107300000Y-83675000D01*
X107150000Y-88350000D02*
X107150000Y-83825000D01*
X126674998Y-70225002D02*
X128000000Y-68900000D01*
X107912679Y-80249057D02*
X107875035Y-80211413D01*
X113452001Y-79625001D02*
X113677002Y-79400000D01*
X107300000Y-83675000D02*
X107300000Y-83104090D01*
X125150720Y-70225002D02*
X126674998Y-70225002D01*
X124575733Y-70799989D02*
X125150720Y-70225002D01*
X107912679Y-81358589D02*
X107912679Y-80249057D01*
X118400000Y-79400000D02*
X120600011Y-77199989D01*
X107300000Y-83104090D02*
X108000010Y-82404080D01*
X108147999Y-79374999D02*
X108752001Y-79374999D01*
X108752001Y-79374999D02*
X109002003Y-79625001D01*
X123775732Y-70799989D02*
X124575733Y-70799989D01*
X107875035Y-79647963D02*
X108147999Y-79374999D01*
X107875035Y-80211413D02*
X107875035Y-79647963D01*
X109002003Y-79625001D02*
X113452001Y-79625001D01*
X120600011Y-77199989D02*
X120600011Y-73975711D01*
X108000010Y-82404080D02*
X108000010Y-81445920D01*
X108000010Y-81445920D02*
X107912679Y-81358589D01*
X128000000Y-68900000D02*
X128000000Y-66900000D01*
X113677002Y-79400000D02*
X118400000Y-79400000D01*
X120600011Y-73975711D02*
X123775732Y-70799989D01*
%TO.N,S_IN2*%
X107150000Y-90890000D02*
X106090000Y-90890000D01*
X106090000Y-90890000D02*
X104100000Y-88900000D01*
X104100000Y-85275000D02*
X105700000Y-83675000D01*
X104100000Y-88900000D02*
X104100000Y-85275000D01*
X105983799Y-75179377D02*
X106479420Y-75674998D01*
X105366210Y-74674998D02*
X105752002Y-74674998D01*
X103674987Y-79276270D02*
X103674987Y-78423730D01*
X121023007Y-69799989D02*
X121247998Y-69574998D01*
X108200000Y-74604422D02*
X111104422Y-71700000D01*
X105700000Y-83675000D02*
X104925002Y-82900002D01*
X104723007Y-79599987D02*
X103998704Y-79599987D01*
X122896238Y-65422635D02*
X122896238Y-64998371D01*
X106479420Y-75674998D02*
X107647998Y-75674998D01*
X122896238Y-68406326D02*
X122896238Y-65422635D01*
X122313505Y-68989059D02*
X122896238Y-68406326D01*
X118558908Y-69799989D02*
X121023007Y-69799989D01*
X108200000Y-75122996D02*
X108200000Y-74604422D01*
X105983799Y-74906795D02*
X105983799Y-75179377D01*
X104925002Y-81452000D02*
X105952000Y-80425002D01*
X122257017Y-68989059D02*
X122313505Y-68989059D01*
X104974998Y-75066209D02*
X105366210Y-74674998D01*
X105752002Y-74674998D02*
X105983799Y-74906795D01*
X121671078Y-69574998D02*
X122257017Y-68989059D01*
X107647998Y-75674998D02*
X108200000Y-75122996D01*
X105952000Y-80425002D02*
X106352006Y-80425002D01*
X121247998Y-69574998D02*
X121671078Y-69574998D01*
X111104422Y-71700000D02*
X116658897Y-71700000D01*
X103674987Y-78423730D02*
X104974998Y-77123719D01*
X106625006Y-79648003D02*
X106351996Y-79374993D01*
X106352006Y-80425002D02*
X106625006Y-80152002D01*
X104925002Y-82900002D02*
X104925002Y-81452000D01*
X104948001Y-79374993D02*
X104723007Y-79599987D01*
X103998704Y-79599987D02*
X103674987Y-79276270D01*
X104974998Y-77123719D02*
X104974998Y-75066209D01*
X116658897Y-71700000D02*
X118558908Y-69799989D01*
X106351996Y-79374993D02*
X104948001Y-79374993D01*
X106625006Y-80152002D02*
X106625006Y-79648003D01*
%TO.N,S_IN3*%
X103799991Y-84500009D02*
X104100000Y-84200000D01*
X107150000Y-93440000D02*
X105140000Y-93440000D01*
X105140000Y-93440000D02*
X104100000Y-92400000D01*
X104100000Y-92400000D02*
X104100000Y-89324278D01*
X104100000Y-89324278D02*
X103799991Y-89024269D01*
X103799991Y-89024269D02*
X103799991Y-84500009D01*
X104100000Y-84200000D02*
X104100000Y-83675000D01*
X106355001Y-68075001D02*
X104882002Y-69548000D01*
X104882002Y-69548000D02*
X104882002Y-70174913D01*
X105400604Y-71599956D02*
X106600044Y-71599956D01*
X101625057Y-75375503D02*
X105400604Y-71599956D01*
X106600044Y-71599956D02*
X106700000Y-71500000D01*
X104100000Y-83675000D02*
X103300000Y-82875000D01*
X103300000Y-81545910D02*
X101625057Y-79870967D01*
X101625057Y-79870967D02*
X101625057Y-75375503D01*
X103300000Y-82875000D02*
X103300000Y-81545910D01*
%TO.N,O_LED*%
X138300000Y-64500000D02*
X138700000Y-64900000D01*
X138700000Y-64900000D02*
X138700000Y-68600000D01*
X141225000Y-71125000D02*
X143900000Y-71125000D01*
X138700000Y-68600000D02*
X141225000Y-71125000D01*
%TO.N,S_IN4*%
X103299991Y-92024269D02*
X103299991Y-84474991D01*
X103299991Y-84474991D02*
X102500000Y-83675000D01*
X103499991Y-93119991D02*
X103499991Y-92224269D01*
X106350000Y-95970000D02*
X103499991Y-93119991D01*
X103499991Y-92224269D02*
X103299991Y-92024269D01*
X107150000Y-95970000D02*
X106350000Y-95970000D01*
X105276336Y-71299945D02*
X105578660Y-71299945D01*
X102500000Y-83675000D02*
X101325046Y-82500046D01*
X107018080Y-70942344D02*
X107442344Y-70942344D01*
X106028650Y-70849955D02*
X106925691Y-70849955D01*
X105578660Y-71299945D02*
X106028650Y-70849955D01*
X106925691Y-70849955D02*
X107018080Y-70942344D01*
X101325046Y-75251235D02*
X105276336Y-71299945D01*
X101325046Y-82500046D02*
X101325046Y-75251235D01*
%TO.N,S_IN5*%
X103625002Y-105147998D02*
X103100000Y-104622996D01*
X105651283Y-108050000D02*
X103625002Y-106023719D01*
X103625002Y-106023719D02*
X103625002Y-105147998D01*
X107150000Y-108050000D02*
X105651283Y-108050000D01*
X107050000Y-100500000D02*
X103100000Y-100500000D01*
X107275000Y-100275000D02*
X107050000Y-100500000D01*
X107275000Y-99800000D02*
X107275000Y-100275000D01*
X103100000Y-104622996D02*
X103100000Y-100500000D01*
X107550742Y-66879260D02*
X107550742Y-69091033D01*
X108895001Y-65535001D02*
X107550742Y-66879260D01*
X101025035Y-84025035D02*
X101025035Y-75126967D01*
X102999980Y-100399980D02*
X102999980Y-85999980D01*
X101025035Y-75126967D02*
X105152068Y-70999934D01*
X106128964Y-70325362D02*
X106972914Y-70325362D01*
X103100000Y-100500000D02*
X102999980Y-100399980D01*
X102999980Y-85999980D02*
X101025035Y-84025035D01*
X105454392Y-70999934D02*
X106128964Y-70325362D01*
X105152068Y-70999934D02*
X105454392Y-70999934D01*
%TO.N,S_IN6*%
X104290000Y-110590000D02*
X103300000Y-109600000D01*
X103325002Y-106652002D02*
X103325002Y-106149281D01*
X107150000Y-110590000D02*
X104290000Y-110590000D01*
X103300000Y-109600000D02*
X103300000Y-106677004D01*
X103300000Y-106677004D02*
X103325002Y-106652002D01*
X103325002Y-106149281D02*
X102799989Y-105624268D01*
X103900000Y-104400000D02*
X104200000Y-104100000D01*
X106574990Y-102100010D02*
X107275000Y-101400000D01*
X105245900Y-102100010D02*
X106574990Y-102100010D01*
X104200000Y-103145910D02*
X105245900Y-102100010D01*
X104200000Y-104100000D02*
X104200000Y-103145910D01*
X102799989Y-105624268D02*
X103024257Y-105400000D01*
X103024257Y-105400000D02*
X103024988Y-105400000D01*
X109218456Y-69299967D02*
X111827197Y-69299967D01*
X102799989Y-105624268D02*
X102699969Y-105524248D01*
X100725024Y-73872974D02*
X102522999Y-72074999D01*
X102699969Y-105524248D02*
X102699969Y-86151411D01*
X111827197Y-69299967D02*
X112700000Y-68427164D01*
X102522999Y-72074999D02*
X103255048Y-72074999D01*
X105330124Y-70699923D02*
X106384212Y-69645835D01*
X104630124Y-70699923D02*
X105330124Y-70699923D01*
X103255048Y-72074999D02*
X104630124Y-70699923D01*
X108334584Y-69645835D02*
X108697452Y-69282967D01*
X106384212Y-69645835D02*
X108334584Y-69645835D01*
X109201456Y-69282967D02*
X109218456Y-69299967D01*
X100725024Y-84176466D02*
X100725024Y-73872974D01*
X102699969Y-86151411D02*
X100725024Y-84176466D01*
X112700000Y-68427164D02*
X112700000Y-66810002D01*
X112700000Y-66810002D02*
X113975001Y-65535001D01*
X108697452Y-69282967D02*
X109201456Y-69282967D01*
%TO.N,S_IN7*%
X106350000Y-113140000D02*
X102600000Y-109390000D01*
X107150000Y-113140000D02*
X106350000Y-113140000D01*
X102600000Y-109390000D02*
X102600000Y-106000000D01*
X105200000Y-106400000D02*
X107500000Y-106400000D01*
X107500000Y-106400000D02*
X108400000Y-105500000D01*
X108400000Y-104125000D02*
X107275000Y-103000000D01*
X108400000Y-105500000D02*
X108400000Y-104125000D01*
X102600000Y-106000000D02*
X102600000Y-106254748D01*
X102600000Y-106254748D02*
X102795263Y-106450011D01*
X100425013Y-84300734D02*
X100425013Y-73748706D01*
X102398731Y-71774988D02*
X103130780Y-71774988D01*
X103130780Y-71774988D02*
X104357001Y-70548767D01*
X102600000Y-106000000D02*
X102600000Y-105848558D01*
X100425013Y-73748706D02*
X102398731Y-71774988D01*
X133000000Y-66780000D02*
X134295001Y-68075001D01*
X133000000Y-64900000D02*
X133000000Y-66780000D01*
X102399958Y-86275679D02*
X100425013Y-84300734D01*
X104357001Y-69648722D02*
X104940002Y-69065721D01*
X102399958Y-105648516D02*
X102399958Y-86275679D01*
X131724991Y-63624991D02*
X133000000Y-64900000D01*
X102600000Y-105848558D02*
X102399958Y-105648516D01*
X124518234Y-64410000D02*
X125303243Y-63624991D01*
X105690000Y-64410000D02*
X124518234Y-64410000D01*
X125303243Y-63624991D02*
X131724991Y-63624991D01*
X104940002Y-65159998D02*
X105690000Y-64410000D01*
X104940002Y-69065721D02*
X104940002Y-65159998D01*
X104357001Y-70548767D02*
X104357001Y-69648722D01*
%TO.N,S_IN8*%
X102127183Y-105972817D02*
X101900000Y-106200000D01*
X102299980Y-105972817D02*
X102127183Y-105972817D01*
X106099047Y-105775953D02*
X104783969Y-105775953D01*
X107275000Y-104600000D02*
X106099047Y-105775953D01*
X102270215Y-106002582D02*
X102299980Y-105972817D01*
X107150000Y-115670000D02*
X105270000Y-115670000D01*
X105270000Y-115670000D02*
X104100000Y-114500000D01*
X102299980Y-106729117D02*
X102270215Y-106699352D01*
X102299980Y-109514259D02*
X102299980Y-106729117D01*
X104100000Y-114500000D02*
X104100000Y-111314279D01*
X102270215Y-106699352D02*
X102270215Y-106002582D01*
X104100000Y-111314279D02*
X102299980Y-109514259D01*
X102274463Y-71474977D02*
X103006512Y-71474977D01*
X102299980Y-105972817D02*
X102099947Y-105772784D01*
X103815001Y-70666489D02*
X103815001Y-68075001D01*
X100125002Y-84425002D02*
X100125002Y-73624438D01*
X102099947Y-105772784D02*
X102099947Y-86399947D01*
X103006512Y-71474977D02*
X103815001Y-70666489D01*
X102099947Y-86399947D02*
X100125002Y-84425002D01*
X100125002Y-73624438D02*
X102274463Y-71474977D01*
%TO.N,Net-(R10-Pad1)*%
X99175000Y-86675000D02*
X100850000Y-88350000D01*
X98500000Y-86675000D02*
X99175000Y-86675000D01*
%TO.N,Net-(R11-Pad1)*%
X100585000Y-90625000D02*
X100850000Y-90890000D01*
X98500000Y-90625000D02*
X100585000Y-90625000D01*
%TO.N,Net-(R12-Pad1)*%
X100460000Y-93440000D02*
X100850000Y-93440000D01*
X98500000Y-95400000D02*
X100460000Y-93440000D01*
X98500000Y-95925000D02*
X98500000Y-95400000D01*
%TO.N,Net-(R14-Pad1)*%
X100850000Y-95970000D02*
X99930000Y-95970000D01*
X99930000Y-95970000D02*
X99800000Y-96100000D01*
X99800000Y-100625000D02*
X98500000Y-101925000D01*
X99800000Y-96100000D02*
X99800000Y-100625000D01*
%TO.N,Net-(R15-Pad1)*%
X100125000Y-107325000D02*
X100850000Y-108050000D01*
X98500000Y-107325000D02*
X100125000Y-107325000D01*
%TO.N,Net-(R16-Pad1)*%
X98500000Y-112140000D02*
X98500000Y-113225000D01*
X100050000Y-110590000D02*
X98500000Y-112140000D01*
X100850000Y-110590000D02*
X100050000Y-110590000D01*
%TO.N,Net-(R17-Pad1)*%
X100850000Y-113140000D02*
X101884998Y-113140000D01*
X101884998Y-113140000D02*
X106319998Y-117575001D01*
X106319998Y-117575001D02*
X108200720Y-117575001D01*
X108200720Y-117575001D02*
X110575721Y-115200000D01*
X110575721Y-115200000D02*
X111225000Y-115200000D01*
%TO.N,Net-(R18-Pad1)*%
X100850000Y-115670000D02*
X102245722Y-115670000D01*
X108499301Y-118124978D02*
X110700022Y-118124978D01*
X110700022Y-118124978D02*
X111225000Y-117600000D01*
X102245722Y-115670000D02*
X104750745Y-118175023D01*
X108449256Y-118175023D02*
X108499301Y-118124978D01*
X104750745Y-118175023D02*
X108449256Y-118175023D01*
%TO.N,S_OUT1*%
X130340002Y-66950000D02*
X131755001Y-65535001D01*
X130340002Y-70434998D02*
X130340002Y-66950000D01*
X130275000Y-70500000D02*
X130340002Y-70434998D01*
%TO.N,Net-(R19-Pad2)*%
X125875000Y-73150000D02*
X128525000Y-70500000D01*
X124450000Y-73150000D02*
X125875000Y-73150000D01*
%TO.N,S_OUT2*%
X101275001Y-70249999D02*
X101225000Y-70300000D01*
X101275001Y-68075001D02*
X101275001Y-70249999D01*
%TO.N,Net-(R20-Pad2)*%
X102975000Y-70300000D02*
X102975000Y-70325000D01*
X99600000Y-73700000D02*
X99600000Y-80400000D01*
X102975000Y-70325000D02*
X99600000Y-73700000D01*
X108800037Y-80300001D02*
X108400045Y-79900009D01*
X124450000Y-75690000D02*
X124200000Y-75690000D01*
X119589999Y-80300001D02*
X108800037Y-80300001D01*
X103200000Y-79900000D02*
X106100004Y-79900000D01*
X103100000Y-79800000D02*
X103200000Y-79900000D01*
X124200000Y-75690000D02*
X119589999Y-80300001D01*
%TO.N,S_OUT3*%
X100700000Y-71800000D02*
X100100000Y-71200000D01*
X100100000Y-66710002D02*
X101275001Y-65535001D01*
X100100000Y-71200000D02*
X100100000Y-66710002D01*
%TO.N,Net-(R21-Pad2)*%
X108924272Y-81170945D02*
X108500008Y-81170945D01*
X124450000Y-78240000D02*
X122660000Y-78240000D01*
X119729054Y-81170946D02*
X108924272Y-81170945D01*
X122660000Y-78240000D02*
X119729054Y-81170946D01*
X104623729Y-79274987D02*
X104823728Y-79074988D01*
X106476270Y-79074988D02*
X106925013Y-79523731D01*
X104223730Y-79274987D02*
X104623729Y-79274987D01*
X106925013Y-79523731D02*
X106925013Y-80594467D01*
X106925013Y-80594467D02*
X106737667Y-80781813D01*
X105500001Y-77022995D02*
X103974998Y-78547998D01*
X104823728Y-79074988D02*
X106476270Y-79074988D01*
X105500001Y-75383276D02*
X105500001Y-77022995D01*
X103974998Y-78547998D02*
X103974998Y-79026255D01*
X103974998Y-79026255D02*
X104223730Y-79274987D01*
%TO.N,S_OUT4*%
X122100000Y-77000000D02*
X122100000Y-74000000D01*
X122100000Y-74000000D02*
X122100000Y-72900000D01*
X122100000Y-72900000D02*
X123900000Y-71100000D01*
X126700000Y-71100000D02*
X127300000Y-70500000D01*
X123900000Y-71100000D02*
X126700000Y-71100000D01*
%TO.N,Net-(R22-Pad2)*%
X122330000Y-80770000D02*
X122000000Y-81100000D01*
X124450000Y-80770000D02*
X122330000Y-80770000D01*
%TO.N,Net-(R30-Pad1)*%
X132575000Y-73150000D02*
X133025000Y-72700000D01*
X130750000Y-73150000D02*
X132575000Y-73150000D01*
%TO.N,Net-(R31-Pad1)*%
X132935000Y-75690000D02*
X133025000Y-75600000D01*
X130750000Y-75690000D02*
X132935000Y-75690000D01*
%TO.N,Net-(R32-Pad1)*%
X132885000Y-78240000D02*
X133025000Y-78100000D01*
X130750000Y-78240000D02*
X132885000Y-78240000D01*
%TO.N,Net-(R33-Pad1)*%
X131375000Y-84000000D02*
X131375000Y-83475000D01*
X131375000Y-83475000D02*
X130900000Y-83000000D01*
X130900000Y-83000000D02*
X129700000Y-83000000D01*
X129700000Y-83000000D02*
X129400000Y-82700000D01*
X129400000Y-82700000D02*
X129400000Y-81300000D01*
X129930000Y-80770000D02*
X130750000Y-80770000D01*
X129400000Y-81300000D02*
X129930000Y-80770000D01*
%TO.N,Net-(JP1-Pad2)*%
X97975000Y-84400000D02*
X98500000Y-84925000D01*
X95500000Y-84400000D02*
X97975000Y-84400000D01*
X95000000Y-84900000D02*
X95500000Y-84400000D01*
X95000000Y-85800000D02*
X95000000Y-84900000D01*
%TO.N,Net-(JP2-Pad2)*%
X95000000Y-89400000D02*
X95230000Y-89630000D01*
X95000000Y-88500000D02*
X95000000Y-89400000D01*
X95230000Y-89630000D02*
X100050000Y-89630000D01*
X100050000Y-89630000D02*
X100850000Y-89630000D01*
%TO.N,Net-(JP3-Pad2)*%
X95000000Y-91300000D02*
X95000000Y-91900000D01*
X95475000Y-92375000D02*
X98500000Y-92375000D01*
X95000000Y-91900000D02*
X95475000Y-92375000D01*
%TO.N,Net-(JP4-Pad2)*%
X95000000Y-94000000D02*
X95000000Y-93400000D01*
X95000000Y-93400000D02*
X95600000Y-92800000D01*
X95600000Y-92800000D02*
X97300000Y-92800000D01*
X97300000Y-92800000D02*
X97900000Y-93400000D01*
X97900000Y-93400000D02*
X99100000Y-93400000D01*
X100340000Y-92160000D02*
X100850000Y-92160000D01*
X99100000Y-93400000D02*
X100340000Y-92160000D01*
%TO.N,Net-(JP5-Pad2)*%
X95100000Y-96800000D02*
X95100000Y-97700000D01*
X95100000Y-97700000D02*
X95499989Y-98099989D01*
X95499989Y-98099989D02*
X98075011Y-98099989D01*
X98075011Y-98099989D02*
X98500000Y-97675000D01*
%TO.N,Net-(JP6-Pad2)*%
X95000000Y-98800000D02*
X95400000Y-98400000D01*
X95000000Y-99700000D02*
X95000000Y-98800000D01*
X95400000Y-98400000D02*
X97200000Y-98400000D01*
X97200000Y-98400000D02*
X97500000Y-98700000D01*
X97500000Y-98700000D02*
X99300000Y-98700000D01*
X99300000Y-98700000D02*
X99500000Y-98500000D01*
X100050000Y-94710000D02*
X100850000Y-94710000D01*
X99500000Y-95260000D02*
X100050000Y-94710000D01*
X99500000Y-98500000D02*
X99500000Y-95260000D01*
%TO.N,Net-(JP7-Pad2)*%
X95000000Y-103500000D02*
X95000000Y-102600000D01*
X95175000Y-103675000D02*
X95000000Y-103500000D01*
X98500000Y-103675000D02*
X95175000Y-103675000D01*
%TO.N,Net-(JP8-Pad2)*%
X95000000Y-105600000D02*
X95000000Y-104800000D01*
X95000000Y-104800000D02*
X95400000Y-104400000D01*
X95400000Y-104400000D02*
X97000000Y-104400000D01*
X97000000Y-104400000D02*
X97600000Y-105000000D01*
X97600000Y-105000000D02*
X100000000Y-105000000D01*
X100850000Y-104150000D02*
X100850000Y-97250000D01*
X100000000Y-105000000D02*
X100850000Y-104150000D01*
%TO.N,Net-(JP9-Pad2)*%
X98500000Y-109075000D02*
X97525000Y-109075000D01*
X97525000Y-109075000D02*
X97100000Y-109500000D01*
X94900000Y-109200000D02*
X94900000Y-108300000D01*
X95200000Y-109500000D02*
X94900000Y-109200000D01*
X97100000Y-109500000D02*
X95200000Y-109500000D01*
%TO.N,Net-(JP10-Pad2)*%
X94800000Y-111100000D02*
X94800000Y-112100000D01*
X94800000Y-112100000D02*
X95100000Y-112400000D01*
X95100000Y-112400000D02*
X97200000Y-112400000D01*
X100270000Y-109330000D02*
X100850000Y-109330000D01*
X97200000Y-112400000D02*
X100270000Y-109330000D01*
%TO.N,Net-(JP11-Pad2)*%
X95000000Y-115100000D02*
X94800000Y-114900000D01*
X94800000Y-114900000D02*
X94800000Y-114000000D01*
X98375000Y-115100000D02*
X95000000Y-115100000D01*
X98500000Y-114975000D02*
X98375000Y-115100000D01*
%TO.N,Net-(JP12-Pad2)*%
X94800000Y-116900000D02*
X94800000Y-116100000D01*
X94800000Y-116100000D02*
X95300000Y-115600000D01*
X95300000Y-115600000D02*
X97100000Y-115600000D01*
X97100000Y-115600000D02*
X97700000Y-116200000D01*
X97700000Y-116200000D02*
X99200000Y-116200000D01*
X99200000Y-116200000D02*
X99700000Y-115700000D01*
X100050000Y-111860000D02*
X100850000Y-111860000D01*
X99700000Y-112210000D02*
X100050000Y-111860000D01*
X99700000Y-115700000D02*
X99700000Y-112210000D01*
%TO.N,Net-(JP13-Pad2)*%
X118124245Y-117599967D02*
X133027197Y-117599967D01*
X115724278Y-115200000D02*
X118124245Y-117599967D01*
X133027197Y-117599967D02*
X143099967Y-107527197D01*
X143099967Y-107527197D02*
X143099967Y-90499967D01*
X142700000Y-90100000D02*
X140900000Y-90100000D01*
X143099967Y-90499967D02*
X142700000Y-90100000D01*
X112975000Y-115200000D02*
X115724278Y-115200000D01*
%TO.N,Net-(JP14-Pad2)*%
X109700000Y-116500000D02*
X116400000Y-116500000D01*
X108324988Y-117875012D02*
X109700000Y-116500000D01*
X143399978Y-107651465D02*
X143399978Y-89899978D01*
X141199999Y-87699999D02*
X140900000Y-87400000D01*
X100850000Y-114410000D02*
X102730719Y-114410000D01*
X106195731Y-117875012D02*
X108324988Y-117875012D01*
X117799978Y-117899978D02*
X133151465Y-117899978D01*
X133151465Y-117899978D02*
X143399978Y-107651465D01*
X102730719Y-114410000D02*
X106195731Y-117875012D01*
X143399978Y-89899978D02*
X141199999Y-87699999D01*
X116400000Y-116500000D02*
X117799978Y-117899978D01*
%TO.N,Net-(JP15-Pad2)*%
X143800000Y-90027164D02*
X143800000Y-85300000D01*
X143699989Y-107775733D02*
X143699989Y-90127175D01*
X133275733Y-118199989D02*
X143699989Y-107775733D01*
X116675731Y-117200009D02*
X117675711Y-118199989D01*
X112975000Y-117600000D02*
X113374991Y-117200009D01*
X113374991Y-117200009D02*
X116675731Y-117200009D01*
X117675711Y-118199989D02*
X133275733Y-118199989D01*
X143699989Y-90127175D02*
X143800000Y-90027164D01*
X143200000Y-84700000D02*
X140900000Y-84700000D01*
X143800000Y-85300000D02*
X143200000Y-84700000D01*
%TO.N,Net-(JP16-Pad2)*%
X144200000Y-85100000D02*
X141199999Y-82099999D01*
X144200000Y-90051443D02*
X144200000Y-85100000D01*
X144000000Y-90251443D02*
X144200000Y-90051443D01*
X144000000Y-107900000D02*
X144000000Y-90251443D01*
X117551443Y-118500000D02*
X133400000Y-118500000D01*
X116551463Y-117500020D02*
X117551443Y-118500000D01*
X116422976Y-117500020D02*
X116551463Y-117500020D01*
X115498007Y-118424989D02*
X116422976Y-117500020D01*
X108623569Y-118424989D02*
X115498007Y-118424989D01*
X108573524Y-118475034D02*
X108623569Y-118424989D01*
X104626477Y-118475034D02*
X108573524Y-118475034D01*
X133400000Y-118500000D02*
X144000000Y-107900000D01*
X103101443Y-116950000D02*
X104626477Y-118475034D01*
X141199999Y-82099999D02*
X140900000Y-81800000D01*
X100850000Y-116950000D02*
X103101443Y-116950000D01*
%TD*%
D22*
%TO.N,OUT1*%
G36*
X127873000Y-113173000D02*
G01*
X120627000Y-113173000D01*
X120627000Y-107627000D01*
X127873000Y-107627000D01*
X127873000Y-113173000D01*
G37*
X127873000Y-113173000D02*
X120627000Y-113173000D01*
X120627000Y-107627000D01*
X127873000Y-107627000D01*
X127873000Y-113173000D01*
%TO.N,OUT2*%
G36*
X128062055Y-106073000D02*
G01*
X120816055Y-106073000D01*
X120816055Y-100627000D01*
X128062055Y-100627000D01*
X128062055Y-106073000D01*
G37*
X128062055Y-106073000D02*
X120816055Y-106073000D01*
X120816055Y-100627000D01*
X128062055Y-100627000D01*
X128062055Y-106073000D01*
%TO.N,OUT3*%
G36*
X127017078Y-94599319D02*
G01*
X127068284Y-94661714D01*
X127317246Y-94866031D01*
X127601283Y-95017852D01*
X127909482Y-95111343D01*
X128062055Y-95126370D01*
X128062055Y-99173000D01*
X120816055Y-99173000D01*
X120816055Y-94652690D01*
X120995050Y-94473695D01*
X121028817Y-94445983D01*
X121109143Y-94348107D01*
X121139411Y-94311225D01*
X121221588Y-94157480D01*
X121221589Y-94157479D01*
X121272195Y-93990656D01*
X121285000Y-93860643D01*
X121285000Y-93860635D01*
X121289281Y-93817166D01*
X121285000Y-93773697D01*
X121285000Y-93627000D01*
X126044759Y-93627000D01*
X127017078Y-94599319D01*
G37*
X127017078Y-94599319D02*
X127068284Y-94661714D01*
X127317246Y-94866031D01*
X127601283Y-95017852D01*
X127909482Y-95111343D01*
X128062055Y-95126370D01*
X128062055Y-99173000D01*
X120816055Y-99173000D01*
X120816055Y-94652690D01*
X120995050Y-94473695D01*
X121028817Y-94445983D01*
X121109143Y-94348107D01*
X121139411Y-94311225D01*
X121221588Y-94157480D01*
X121221589Y-94157479D01*
X121272195Y-93990656D01*
X121285000Y-93860643D01*
X121285000Y-93860635D01*
X121289281Y-93817166D01*
X121285000Y-93773697D01*
X121285000Y-93627000D01*
X126044759Y-93627000D01*
X127017078Y-94599319D01*
%TO.N,OUT4*%
G36*
X128031264Y-92273000D02*
G01*
X121285000Y-92273000D01*
X121285000Y-91843469D01*
X121289281Y-91800000D01*
X121285000Y-91756531D01*
X121285000Y-91756523D01*
X121272195Y-91626510D01*
X121221589Y-91459687D01*
X121221589Y-91459686D01*
X121139411Y-91305941D01*
X121056532Y-91204953D01*
X121056530Y-91204951D01*
X121028817Y-91171183D01*
X120995049Y-91143470D01*
X120785264Y-90933685D01*
X120785264Y-86627000D01*
X128031264Y-86627000D01*
X128031264Y-92273000D01*
G37*
X128031264Y-92273000D02*
X121285000Y-92273000D01*
X121285000Y-91843469D01*
X121289281Y-91800000D01*
X121285000Y-91756531D01*
X121285000Y-91756523D01*
X121272195Y-91626510D01*
X121221589Y-91459687D01*
X121221589Y-91459686D01*
X121139411Y-91305941D01*
X121056532Y-91204953D01*
X121056530Y-91204951D01*
X121028817Y-91171183D01*
X120995049Y-91143470D01*
X120785264Y-90933685D01*
X120785264Y-86627000D01*
X128031264Y-86627000D01*
X128031264Y-92273000D01*
%TD*%
M02*
