M48
; DRILL file {KiCad 5.1.6-c6e7f7d~87~ubuntu18.04.1} date Sat Mar  5 00:15:18 2022
; FORMAT={-:-/ absolute / metric / decimal}
; #@! TF.CreationDate,2022-03-05T00:15:18+01:00
; #@! TF.GenerationSoftware,Kicad,Pcbnew,5.1.6-c6e7f7d~87~ubuntu18.04.1
; #@! TF.FileFunction,Plated,1,2,PTH
FMAT,2
METRIC
T1C0.300
T2C0.914
T3C1.000
T4C1.400
T5C1.500
%
G90
G05
T1
X81.7Y-79.5
X88.6Y-69.7
X91.2Y-107.0
X91.4Y-112.9
X93.3Y-112.7
X93.5Y-107.0
X95.2Y-69.6
X97.3Y-83.7
X97.3Y-117.0
X97.4Y-85.0
X97.4Y-94.1
X97.4Y-99.8
X97.4Y-110.9
X97.5Y-105.7
X97.6Y-88.4
X97.694Y-78.102
X97.8Y-79.55
X97.804Y-77.25
X97.883Y-76.431
X98.0Y-75.469
X99.075Y-78.6
X99.4Y-81.9
X99.6Y-80.4
X100.7Y-71.8
X101.9Y-106.2
X102.2Y-79.5
X102.5Y-81.925
X102.5Y-75.247
X102.5Y-75.997
X102.5Y-76.835
X102.5Y-77.6
X102.775Y-72.6
X102.795Y-106.45
X103.025Y-105.4
X103.1Y-79.8
X103.9Y-104.4
X104.1Y-81.925
X104.701Y-78.565
X104.784Y-105.776
X104.882Y-70.175
X105.2Y-106.4
X105.5Y-75.383
X105.525Y-99.8
X105.525Y-101.4
X105.525Y-103.0
X105.525Y-104.6
X105.7Y-81.925
X105.7Y-89.2
X105.7Y-94.3
X105.7Y-109.3
X105.8Y-92.0
X105.9Y-97.2
X106.1Y-79.9
X106.7Y-71.5
X106.738Y-80.782
X106.973Y-70.325
X107.003Y-78.859
X107.3Y-81.925
X107.442Y-70.942
X107.551Y-69.091
X108.2Y-73.6
X108.2Y-75.9
X108.4Y-79.9
X108.5Y-111.9
X108.5Y-81.171
X108.525Y-82.1
X108.6Y-113.9
X108.73Y-78.85
X108.9Y-114.8
X108.951Y-69.808
X110.049Y-68.775
X110.313Y-70.813
X110.6Y-108.2
X111.039Y-93.696
X111.1Y-86.328
X111.4Y-99.3
X111.4Y-100.4
X111.4Y-106.9
X111.5Y-85.2
X113.2Y-79.1
X113.3Y-77.3
X116.608Y-118.299
X118.0Y-87.2
X118.0Y-94.1
X118.0Y-116.7
X118.1Y-101.0
X118.2Y-108.1
X119.4Y-93.7
X120.693Y-69.275
X121.5Y-70.1
X122.0Y-81.1
X122.1Y-77.0
X122.483Y-69.509
X122.896Y-64.998
X123.2Y-79.3
X124.103Y-69.54
X125.7Y-69.7
X125.8Y-74.5
X125.8Y-77.0
X125.9Y-79.5
X127.3Y-70.5
X128.0Y-66.9
X128.5Y-69.5
X138.3Y-64.5
X140.9Y-81.8
X140.9Y-84.7
X140.9Y-87.4
X140.9Y-90.1
X142.2Y-86.0
X142.2Y-91.4
X142.7Y-76.5
T2
X106.92Y-74.73
X106.92Y-77.27
X109.46Y-74.73
X109.46Y-77.27
X112.0Y-74.73
X112.0Y-77.27
X114.54Y-74.73
X114.54Y-77.27
X117.08Y-74.73
X117.08Y-77.27
X84.92Y-74.73
X84.92Y-77.27
X87.46Y-74.73
X87.46Y-77.27
X90.0Y-74.73
X90.0Y-77.27
X92.54Y-74.73
X92.54Y-77.27
X95.08Y-74.73
X95.08Y-77.27
T3
X88.575Y-65.535
X88.575Y-68.075
X91.115Y-65.535
X91.115Y-68.075
X93.655Y-65.535
X93.655Y-68.075
X96.195Y-65.535
X96.195Y-68.075
X98.735Y-65.535
X98.735Y-68.075
X101.275Y-65.535
X101.275Y-68.075
X103.815Y-65.535
X103.815Y-68.075
X106.355Y-65.535
X106.355Y-68.075
X108.895Y-65.535
X108.895Y-68.075
X111.435Y-65.535
X111.435Y-68.075
X113.975Y-65.535
X113.975Y-68.075
X116.515Y-65.535
X116.515Y-68.075
X119.055Y-65.535
X119.055Y-68.075
X121.595Y-65.535
X121.595Y-68.075
X124.135Y-65.535
X124.135Y-68.075
X126.675Y-65.535
X126.675Y-68.075
X129.215Y-65.535
X129.215Y-68.075
X131.755Y-65.535
X131.755Y-68.075
X134.295Y-65.535
X134.295Y-68.075
X136.835Y-65.535
X136.835Y-68.075
T4
X125.1Y-109.0
X125.2Y-95.0
X125.3Y-102.0
X125.5Y-88.0
X132.5Y-104.3
X132.7Y-90.9
X132.8Y-99.1
X133.5Y-112.0
T5
X136.0Y-83.5
X136.0Y-87.0
X136.0Y-90.5
X136.0Y-94.0
X136.0Y-97.502
X136.0Y-101.002
X136.0Y-104.502
X136.0Y-108.0
X89.0Y-84.0
X89.0Y-87.498
X89.0Y-90.998
X89.0Y-94.498
X89.0Y-98.0
X89.0Y-101.5
X89.0Y-105.0
X89.0Y-108.5
T0
M30
